<?xml version="1.0" encoding="iso-8859-1"?>
<!-- Generator: Adobe Illustrator 16.0.3, SVG Export Plug-In . SVG Version: 6.00 Build 0)  -->
<!DOCTYPE svg PUBLIC "-//W3C//DTD SVG 1.1//EN" "http://www.w3.org/Graphics/SVG/1.1/DTD/svg11.dtd">
<svg version="1.1" xmlns="http://www.w3.org/2000/svg" xmlns:xlink="http://www.w3.org/1999/xlink" x="0px" y="0px" width="280px"
	 height="150px" viewBox="-1166.5 -1071.5 280 150" style="enable-background:new -1166.5 -1071.5 280 150;" xml:space="preserve">
<g id="Layer_1">
	<g id="New_Symbol_2">
	</g>
	<g id="New_Symbol_3_">
	</g>
	<g id="New_Symbol_2_">
	</g>
	<g id="New_Symbol_1_">
	</g>
	<g id="New_Symbol">
	</g>
	<g>
		<g>
			<g>
				<g>
					<path style="fill:#E1E1E1;" d="M-1034.839-956.278c-0.508,0-0.942-0.385-0.994-0.9c-2.637-26.354-23.678-47.394-50.032-50.029
						c-0.549-0.055-0.95-0.545-0.896-1.095c0.055-0.549,0.542-0.949,1.095-0.896c27.297,2.729,49.092,24.523,51.823,51.82
						c0.055,0.55-0.346,1.04-0.896,1.095C-1034.772-956.279-1034.806-956.278-1034.839-956.278z"/>
					<g>
						<polygon style="fill:#E1E1E1;" points="-1084.854,-1004.076 -1091.5,-1008.488 -1084.357,-1012.039 						"/>
					</g>
					<g>
						<polygon style="fill:#E1E1E1;" points="-1038.964,-958.186 -1034.552,-951.54 -1031.001,-958.683 						"/>
					</g>
				</g>
			</g>
			<g>
				<path style="fill:#E1E1E1;" d="M-1094.268-953.144c-0.552,0-1-0.448-1-1v-6c0-0.552,0.448-1,1-1s1,0.448,1,1v6
					C-1093.268-953.592-1093.716-953.144-1094.268-953.144z M-1094.268-965.144c-0.552,0-1-0.448-1-1v-6c0-0.552,0.448-1,1-1
					s1,0.448,1,1v6C-1093.268-965.592-1093.716-965.144-1094.268-965.144z M-1094.268-977.144c-0.552,0-1-0.448-1-1v-6
					c0-0.552,0.448-1,1-1s1,0.448,1,1v6C-1093.268-977.592-1093.716-977.144-1094.268-977.144z M-1094.268-989.144
					c-0.552,0-1-0.448-1-1v-6c0-0.552,0.448-1,1-1s1,0.448,1,1v6C-1093.268-989.592-1093.716-989.144-1094.268-989.144z
					 M-1094.268-1001.144c-0.552,0-1-0.448-1-1v-6c0-0.552,0.448-1,1-1s1,0.448,1,1v6
					C-1093.268-1001.592-1093.716-1001.144-1094.268-1001.144z M-1094.268-1013.144c-0.552,0-1-0.448-1-1v-6c0-0.552,0.448-1,1-1
					s1,0.448,1,1v6C-1093.268-1013.592-1093.716-1013.144-1094.268-1013.144z M-1094.268-1025.144c-0.552,0-1-0.448-1-1v-6
					c0-0.552,0.448-1,1-1s1,0.448,1,1v6C-1093.268-1025.592-1093.716-1025.144-1094.268-1025.144z M-1094.268-1037.144
					c-0.552,0-1-0.448-1-1v-6c0-0.552,0.448-1,1-1s1,0.448,1,1v6C-1093.268-1037.592-1093.716-1037.144-1094.268-1037.144z"/>
			</g>
			<g>
				<g>
					<g>
						<path style="opacity:0.5;fill:#FABE00;" d="M-1063.164-948.5h-31.104l22.05-22
							C-1066.738-965.042-1063.164-956.846-1063.164-948.5z"/>
						<path style="fill:#FABE00;" d="M-1063.144-947.5c-0.007,0-0.013,0-0.02,0h-31.104c-0.405,0-0.77-0.244-0.924-0.618
							c-0.154-0.374-0.068-0.804,0.218-1.09l22.05-22c0.391-0.39,1.022-0.389,1.412,0c5.807,5.784,9.292,14.183,9.349,22.505
							c0.013,0.065,0.021,0.133,0.021,0.203C-1062.144-947.948-1062.591-947.5-1063.144-947.5z M-1091.85-949.5h27.669
							c-0.252-7.201-3.207-14.386-8.049-19.575L-1091.85-949.5z"/>
					</g>
					<g style="opacity:0;">
						<g>
							<g>
								<g>
									<g>
										<rect x="-1166.5" y="-1071.5" style="fill:#FFFFFF;" width="280" height="150"/>
									</g>
								</g>
							</g>
						</g>
					</g>
					<g>
						<path style="fill:#00D2FF;" d="M-958.774-947.501h-135.493c-0.405,0-0.77-0.244-0.924-0.618
							c-0.154-0.374-0.068-0.804,0.218-1.09l95.859-95.643c0.392-0.39,1.025-0.389,1.415,0.001c0.39,0.391,0.389,1.024-0.002,1.415
							l-94.148,93.935h133.075c0.552,0,1,0.448,1,1S-958.222-947.501-958.774-947.501z"/>
					</g>
				</g>
			</g>
		</g>
	</g>
</g>
<g id="Isolation_Mode">
</g>
<g id="nyt_x5F_exporter_x5F_info" style="display:none;">
</g>
</svg>
