<?xml version="1.0" encoding="iso-8859-1"?>
<!-- Generator: Adobe Illustrator 16.0.3, SVG Export Plug-In . SVG Version: 6.00 Build 0)  -->
<!DOCTYPE svg PUBLIC "-//W3C//DTD SVG 1.1//EN" "http://www.w3.org/Graphics/SVG/1.1/DTD/svg11.dtd">
<svg version="1.1" xmlns="http://www.w3.org/2000/svg" xmlns:xlink="http://www.w3.org/1999/xlink" x="0px" y="0px" width="280px"
	 height="150px" viewBox="35.5 118.5 280 150" style="enable-background:new 35.5 118.5 280 150;" xml:space="preserve">
<g id="Layer_1">
	<g id="New_Symbol_2">
	</g>
	<g id="New_Symbol_3_">
	</g>
	<g id="New_Symbol_2_">
	</g>
	<g id="New_Symbol_1_">
	</g>
	<g id="New_Symbol">
	</g>
	<g>
		<g>
			<g>
				<g>
					<g>
						<g>
							<g>
								<g style="opacity:0;">
									<rect x="35.5" y="118.5" style="fill:#FFFFFF;" width="280" height="150"/>
								</g>
							</g>
						</g>
					</g>
					<g>
						<path style="opacity:0.5;fill:#FABE00;" d="M206.05,166.03c-2.47,1.56-5.41,2.47-8.55,2.47c-4.66,0-8.85-1.99-11.77-5.16
							l11.77-10.84L206.05,166.03z"/>
						<path style="fill:#FABE00;" d="M197.5,169.5c-4.737,0-9.296-1.998-12.505-5.482c-0.18-0.195-0.274-0.454-0.264-0.719
							s0.127-0.515,0.321-0.694l11.77-10.84c0.219-0.201,0.516-0.296,0.809-0.256c0.294,0.039,0.556,0.206,0.715,0.457l8.55,13.53
							c0.142,0.225,0.188,0.496,0.13,0.754c-0.059,0.259-0.218,0.484-0.441,0.626C203.865,168.593,200.724,169.5,197.5,169.5z
							 M187.168,163.375c2.774,2.633,6.486,4.125,10.332,4.125c2.51,0,4.963-0.623,7.152-1.81l-7.357-11.643L187.168,163.375z"/>
					</g>
					<g>
						<path style="opacity:0.5;fill:#FABE00;" d="M120.16,238.5h-16l11.77-10.84C118.56,230.51,120.16,234.32,120.16,238.5z"/>
						<path style="fill:#FABE00;" d="M120.18,239.5c-0.005,0.001-0.013,0.001-0.02,0h-16c-0.412,0-0.782-0.253-0.932-0.637
							s-0.049-0.819,0.254-1.099l11.77-10.84c0.406-0.373,1.038-0.348,1.413,0.058c2.852,3.091,4.443,7.101,4.494,11.312
							c0.014,0.066,0.021,0.136,0.021,0.206C121.18,239.053,120.732,239.5,120.18,239.5z M106.722,237.5h12.405
							c-0.203-3.082-1.345-6.008-3.279-8.405L106.722,237.5z"/>
					</g>
					<g>
						<path style="fill:#FABE00;" d="M124.18,239.5c-0.005,0.001-0.013,0.001-0.02,0h-20c-0.412,0-0.781-0.253-0.932-0.637
							c-0.149-0.384-0.049-0.819,0.254-1.099l14.71-13.55c0.196-0.181,0.441-0.279,0.72-0.264c0.265,0.011,0.515,0.127,0.694,0.322
							c3.535,3.847,5.502,8.819,5.553,14.021c0.014,0.066,0.021,0.135,0.021,0.205C125.18,239.053,124.732,239.5,124.18,239.5z
							 M106.722,237.5h16.412c-0.214-4.078-1.73-7.963-4.342-11.118L106.722,237.5z"/>
					</g>
					<g>
						<path style="opacity:0.5;fill:#FABE00;" d="M251.84,238.5h-16c0-5.7,2.97-10.69,7.45-13.53L251.84,238.5z"/>
						<path style="fill:#FABE00;" d="M251.859,239.5c-0.005,0.001-0.013,0.001-0.02,0h-16c-0.553,0-1-0.447-1-1
							c0-5.859,2.959-11.233,7.915-14.375c0.224-0.143,0.492-0.191,0.755-0.131c0.259,0.059,0.483,0.217,0.626,0.441l8.457,13.385
							c0.166,0.178,0.267,0.417,0.267,0.68C252.859,239.053,252.412,239.5,251.859,239.5z M236.872,237.5h13.153l-7.028-11.122
							C239.392,229.008,237.164,233.054,236.872,237.5z"/>
					</g>
					<g>
						<path style="fill:#FABE00;" d="M251.859,239.5c-0.005,0.001-0.013,0.001-0.02,0h-20c-0.553,0-1-0.447-1-1
							c0-7.249,3.659-13.884,9.787-17.746c0.467-0.293,1.084-0.154,1.379,0.312l10.587,16.755c0.166,0.178,0.267,0.417,0.267,0.68
							C252.859,239.053,252.412,239.5,251.859,239.5z M232.865,237.5h17.16l-9.163-14.5
							C236.092,226.363,233.167,231.667,232.865,237.5z"/>
					</g>
					<g>
						<path style="fill:#FABE00;" d="M251.859,239.5c-0.005,0.001-0.013,0.001-0.02,0h-24c-0.553,0-1-0.447-1-1
							c0-8.623,4.357-16.521,11.657-21.126c0.466-0.294,1.084-0.155,1.379,0.312l12.717,20.135c0.166,0.179,0.267,0.417,0.267,0.68
							C252.859,239.053,252.412,239.5,251.859,239.5z M228.861,237.5h21.164l-11.296-17.883
							C232.792,223.726,229.169,230.291,228.861,237.5z"/>
					</g>
					<g>
						<path style="fill:#00D2FF;" d="M251.842,239.5H104.158c-0.412,0-0.781-0.253-0.932-0.637
							c-0.149-0.383-0.049-0.819,0.254-1.099l93.342-86c0.218-0.201,0.516-0.296,0.809-0.256c0.294,0.039,0.556,0.206,0.715,0.457
							l54.342,86c0.194,0.308,0.206,0.697,0.03,1.017S252.206,239.5,251.842,239.5z M106.72,237.5h143.308l-52.732-83.452
							L106.72,237.5z"/>
					</g>
				</g>
			</g>
		</g>
	</g>
	<g>
		<g>
		</g>
	</g>
</g>
<g id="Isolation_Mode">
</g>
<g id="nyt_x5F_exporter_x5F_info" style="display:none;">
</g>
</svg>
