<?xml version="1.0" encoding="iso-8859-1"?>
<!-- Generator: Adobe Illustrator 16.0.3, SVG Export Plug-In . SVG Version: 6.00 Build 0)  -->
<!DOCTYPE svg PUBLIC "-//W3C//DTD SVG 1.1//EN" "http://www.w3.org/Graphics/SVG/1.1/DTD/svg11.dtd">
<svg version="1.1" xmlns="http://www.w3.org/2000/svg" xmlns:xlink="http://www.w3.org/1999/xlink" x="0px" y="0px" width="280px"
	 height="150px" viewBox="-566.5 458.5 280 150" style="enable-background:new -566.5 458.5 280 150;" xml:space="preserve">
<g id="Layer_1">
	<g id="New_Symbol_2">
	</g>
	<g id="New_Symbol_3_">
	</g>
	<g id="New_Symbol_2_">
	</g>
	<g id="New_Symbol_1_">
	</g>
	<g id="New_Symbol">
	</g>
	<g>
		<g>
			<g>
				<g>
					<g>
						<g>
							<g>
								<g>
									<g style="opacity:0;">
										<rect x="-566.5" y="458.5" style="fill:#FFFFFF;" width="280" height="150"/>
									</g>
								</g>
							</g>
						</g>
					</g>
				</g>
			</g>
		</g>
	</g>
	<g>
		<g>
			<g>
				<rect x="-489.5" y="557.461" style="opacity:0.5;fill:#FABE00;" width="16" height="16"/>
				<path style="fill:#FABE00;" d="M-473.5,574.461h-16c-0.552,0-1-0.447-1-1v-16c0-0.553,0.448-1,1-1h16c0.552,0,1,0.447,1,1v16
					C-472.5,574.014-472.948,574.461-473.5,574.461z M-488.5,572.461h14v-14h-14V572.461z"/>
			</g>
			<g>
				<path style="fill:#00D2FF;" d="M-473.5,574.461c-0.552,0-1-0.447-1-1V497.5c0-0.553,0.448-1,1-1s1,0.447,1,1v75.961
					C-472.5,574.014-472.948,574.461-473.5,574.461z"/>
			</g>
			<g>
				<path style="fill:#C8C8C8;" d="M-443.48,574.5c-0.007-0.001-0.013,0-0.02,0h-95c-0.391,0-0.745-0.228-0.908-0.582
					c-0.164-0.354-0.105-0.771,0.149-1.068l65.093-76c0.228-0.266,0.576-0.392,0.925-0.336c0.346,0.059,0.636,0.294,0.765,0.62
					l29.839,75.827c0.1,0.156,0.157,0.341,0.157,0.539C-442.48,574.053-442.928,574.5-443.48,574.5z M-536.327,572.5h91.358
					l-28.761-73.087L-536.327,572.5z"/>
			</g>
			<g>
				<g>
					<path style="fill:#E1E1E1;" d="M-345.5,574.461h-5c-0.552,0-1-0.447-1-1s0.448-1,1-1h5c0.552,0,1,0.447,1,1
						S-344.948,574.461-345.5,574.461z M-356.5,574.461h-6c-0.552,0-1-0.447-1-1s0.448-1,1-1h6c0.552,0,1,0.447,1,1
						S-355.948,574.461-356.5,574.461z M-368.5,574.461h-6c-0.552,0-1-0.447-1-1s0.448-1,1-1h6c0.552,0,1,0.447,1,1
						S-367.948,574.461-368.5,574.461z M-380.5,574.461h-6c-0.552,0-1-0.447-1-1s0.448-1,1-1h6c0.552,0,1,0.447,1,1
						S-379.948,574.461-380.5,574.461z M-392.5,574.461h-6c-0.552,0-1-0.447-1-1s0.448-1,1-1h6c0.552,0,1,0.447,1,1
						S-391.948,574.461-392.5,574.461z M-404.5,574.461h-6c-0.552,0-1-0.447-1-1s0.448-1,1-1h6c0.552,0,1,0.447,1,1
						S-403.948,574.461-404.5,574.461z M-416.5,574.461h-6c-0.552,0-1-0.447-1-1s0.448-1,1-1h6c0.552,0,1,0.447,1,1
						S-415.948,574.461-416.5,574.461z M-428.5,574.461h-6c-0.552,0-1-0.447-1-1s0.448-1,1-1h6c0.552,0,1,0.447,1,1
						S-427.948,574.461-428.5,574.461z"/>
				</g>
				<g>
					<g>
						<polyline style="opacity:0.5;fill:#FABE00;" points="-408.5,573.461 -408.5,557.461 -392.5,557.461 -392.5,573.461 						"/>
						<path style="fill:#FABE00;" d="M-392.5,574.461c-0.552,0-1-0.447-1-1v-15h-14v15c0,0.553-0.448,1-1,1s-1-0.447-1-1v-16
							c0-0.553,0.448-1,1-1h16c0.552,0,1,0.447,1,1v16C-391.5,574.014-391.948,574.461-392.5,574.461z"/>
					</g>
					<g>
						<g>
							<g>
								<g>
									<g>
										<g>
											<g style="opacity:0;">
												<rect x="-566.5" y="458.5" style="fill:#FFFFFF;" width="280" height="150"/>
											</g>
										</g>
									</g>
								</g>
							</g>
							<g>
								<path style="fill:#00D2FF;" d="M-408.5,574.461c-0.552,0-1-0.447-1-1V497.5c0-0.553,0.448-1,1-1s1,0.447,1,1v75.961
									C-407.5,574.014-407.948,574.461-408.5,574.461z"/>
							</g>
							<g>
								<path style="fill:#C8C8C8;" d="M-310.48,574.5c-0.007-0.001-0.013,0-0.02,0h-35c-0.298,0-0.58-0.133-0.77-0.361l-63-76
									c-0.325-0.394-0.303-0.968,0.051-1.334c0.354-0.365,0.927-0.407,1.332-0.095l97.888,75.913
									c0.31,0.17,0.519,0.499,0.519,0.877C-309.48,574.053-309.928,574.5-310.48,574.5z M-345.03,572.5h31.609l-88.504-68.636
									L-345.03,572.5z"/>
							</g>
						</g>
					</g>
				</g>
			</g>
		</g>
	</g>
</g>
<g id="Isolation_Mode">
</g>
<g id="nyt_x5F_exporter_x5F_info" style="display:none;">
</g>
</svg>
