<?xml version="1.0" encoding="iso-8859-1"?>
<!-- Generator: Adobe Illustrator 16.0.3, SVG Export Plug-In . SVG Version: 6.00 Build 0)  -->
<!DOCTYPE svg PUBLIC "-//W3C//DTD SVG 1.1//EN" "http://www.w3.org/Graphics/SVG/1.1/DTD/svg11.dtd">
<svg version="1.1" xmlns="http://www.w3.org/2000/svg" xmlns:xlink="http://www.w3.org/1999/xlink" x="0px" y="0px" width="280px"
	 height="150px" viewBox="-866.5 -1071.5 280 150" style="enable-background:new -866.5 -1071.5 280 150;" xml:space="preserve">
<g id="Layer_1">
	<g id="New_Symbol_2">
	</g>
	<g id="New_Symbol_3_">
	</g>
	<g id="New_Symbol_2_">
	</g>
	<g id="New_Symbol_1_">
	</g>
	<g id="New_Symbol">
	</g>
	<g>
		<g>
			<g>
				<path style="opacity:0.5;fill:#FABE00;" d="M-808.799-961.5h-34.471l26.542-22C-811.778-977.529-808.799-969.859-808.799-961.5z
					"/>
				<path style="fill:#FABE00;" d="M-808.779-960.5c-0.006,0-0.013,0-0.02,0h-34.471c-0.421,0-0.798-0.264-0.941-0.661
					c-0.143-0.396-0.022-0.84,0.303-1.109l26.542-22c0.204-0.169,0.464-0.252,0.731-0.226c0.264,0.025,0.507,0.153,0.677,0.357
					c5.218,6.296,8.111,14.255,8.158,22.436c0.013,0.065,0.021,0.133,0.021,0.203C-807.779-960.948-808.227-960.5-808.779-960.5z
					 M-840.497-962.5h30.683c-0.213-7.1-2.694-13.983-7.057-19.583L-840.497-962.5z"/>
			</g>
			<g>
				<path style="opacity:0.5;fill:#FABE00;" d="M-668.579-961.5h-22.251l-10.544-19.164c3.19-1.808,6.875-2.836,10.796-2.836
					C-678.432-983.5-668.579-973.647-668.579-961.5z"/>
				<path style="fill:#FABE00;" d="M-668.559-960.5c-0.006,0-0.013,0-0.02,0h-22.251c-0.365,0-0.7-0.198-0.876-0.518l-10.544-19.164
					c-0.264-0.479-0.093-1.082,0.383-1.352c3.424-1.94,7.328-2.966,11.289-2.966c12.614,0,22.889,10.207,22.999,22.796
					c0.014,0.066,0.021,0.134,0.021,0.204C-667.559-960.948-668.007-960.5-668.559-960.5z M-690.239-962.5h20.637
					c-0.523-11.117-9.732-20-20.977-20c-3.284,0-6.524,0.772-9.432,2.24L-690.239-962.5z"/>
			</g>
			<g>
				<path style="opacity:0;fill:#FABE00;" d="M-662.957-961.5h-27.863l-13.202-23.996c3.995-2.264,8.608-3.552,13.519-3.552
					C-675.294-989.048-662.957-976.711-662.957-961.5z"/>
				<path style="fill:#FABE00;" d="M-662.937-960.5c-0.007,0-0.013,0-0.02,0h-27.863c-0.365,0-0.7-0.198-0.876-0.518l-13.202-23.996
					c-0.264-0.479-0.093-1.082,0.383-1.352c4.251-2.409,9.096-3.682,14.012-3.682c15.672,0,28.436,12.697,28.546,28.344
					c0.013,0.066,0.021,0.134,0.021,0.204C-661.937-960.948-662.385-960.5-662.937-960.5z M-690.229-962.5h26.253
					c-0.528-14.177-12.226-25.548-26.528-25.548c-4.239,0-8.421,1.018-12.157,2.951L-690.229-962.5z"/>
			</g>
			<g>
				<g>
					<g>
						<g>
							<g>
								<g>
									<g style="opacity:0;">
										<rect x="-866.5" y="-1071.5" style="fill:#FFFFFF;" width="280" height="150"/>
									</g>
								</g>
							</g>
						</g>
					</g>
					<g>
						<path style="fill:#00D2FF;" d="M-741.974-960.5h-101.293c-0.421,0-0.798-0.264-0.941-0.661
							c-0.143-0.396-0.022-0.84,0.303-1.109l80.819-66.999c0.425-0.352,1.056-0.293,1.408,0.132
							c0.353,0.425,0.293,1.056-0.132,1.408l-78.684,65.229h98.52c0.552,0,1,0.448,1,1S-741.422-960.5-741.974-960.5z"/>
					</g>
					<g>
						<path style="fill:#C8C8C8;" d="M-604.527-960.5h-86.291c-0.365,0-0.7-0.198-0.876-0.518l-36.682-66.674
							c-0.267-0.484-0.09-1.092,0.394-1.358c0.484-0.267,1.092-0.09,1.358,0.394l36.397,66.156h85.7c0.552,0,1,0.448,1,1
							S-603.975-960.5-604.527-960.5z"/>
					</g>
				</g>
			</g>
		</g>
	</g>
</g>
<g id="Isolation_Mode">
</g>
<g id="nyt_x5F_exporter_x5F_info" style="display:none;">
</g>
</svg>
