<?xml version="1.0" encoding="iso-8859-1"?>
<!-- Generator: Adobe Illustrator 16.0.3, SVG Export Plug-In . SVG Version: 6.00 Build 0)  -->
<!DOCTYPE svg PUBLIC "-//W3C//DTD SVG 1.1//EN" "http://www.w3.org/Graphics/SVG/1.1/DTD/svg11.dtd">
<svg version="1.1" xmlns="http://www.w3.org/2000/svg" xmlns:xlink="http://www.w3.org/1999/xlink" x="0px" y="0px" width="280px"
	 height="150px" viewBox="-566.5 -1071.5 280 150" style="enable-background:new -566.5 -1071.5 280 150;" xml:space="preserve">
<g id="Layer_1">
	<g id="New_Symbol_2">
	</g>
	<g id="New_Symbol_3_">
	</g>
	<g id="New_Symbol_2_">
	</g>
	<g id="New_Symbol_1_">
	</g>
	<g id="New_Symbol">
	</g>
	<g>
		<g>
			<g>
				<path style="opacity:0.5;fill:#FABE00;" d="M-446.25-957.5h-58.25l48.678-32C-449.769-980.305-446.25-969.315-446.25-957.5z"/>
				<path style="fill:#FABE00;" d="M-446.23-956.5c-0.007,0-0.013,0-0.02,0h-58.25c-0.442,0-0.832-0.29-0.958-0.713
					s0.04-0.879,0.409-1.122l48.678-32c0.462-0.303,1.081-0.175,1.385,0.286c6.333,9.62,9.698,20.801,9.736,32.348
					c0.014,0.065,0.021,0.133,0.021,0.202C-445.23-956.948-445.678-956.5-446.23-956.5z M-501.158-958.5h53.899
					c-0.182-10.538-3.231-20.734-8.856-29.611L-501.158-958.5z"/>
			</g>
			<g>
				<path style="fill:#00D2FF;" d="M-504.5-956.5c-0.43,0-0.828-0.28-0.958-0.714c-0.158-0.529,0.142-1.086,0.671-1.245
					l149.452-44.724c0.528-0.158,1.086,0.142,1.245,0.671c0.158,0.529-0.142,1.086-0.671,1.245l-149.452,44.724
					C-504.309-956.513-504.405-956.5-504.5-956.5z"/>
			</g>
			<g>
				<g>
					<g>
						<g>
							<g>
								<g>
									<g style="opacity:0;">
										<rect x="-566.5" y="-1071.5" style="fill:#FFFFFF;" width="280" height="150"/>
									</g>
								</g>
							</g>
						</g>
					</g>
				</g>
			</g>
			<g>
				<path style="fill:#C8C8C8;" d="M-348.5-956.5h-156c-0.442,0-0.832-0.29-0.958-0.713s0.04-0.879,0.409-1.122l130.356-85.693
					c0.462-0.303,1.083-0.175,1.385,0.286c0.304,0.461,0.175,1.082-0.286,1.385L-501.158-958.5H-348.5c0.552,0,1,0.448,1,1
					S-347.948-956.5-348.5-956.5z"/>
			</g>
			<g>
				<path style="fill:#B4B4B4;" d="M-455.077-978.71c-0.378,0-0.74-0.216-0.909-0.582c-0.231-0.501-0.012-1.096,0.49-1.326
					l7.269-3.345c0.501-0.231,1.096-0.011,1.326,0.49c0.231,0.501,0.012,1.096-0.49,1.326l-7.269,3.345
					C-454.794-978.74-454.937-978.71-455.077-978.71z"/>
			</g>
			<g>
				<path style="fill:#B4B4B4;" d="M-450.771-963.362c-0.493,0-0.923-0.365-0.99-0.868c-0.073-0.547,0.312-1.05,0.859-1.124
					l7.93-1.058c0.543-0.069,1.051,0.312,1.124,0.859c0.073,0.547-0.312,1.05-0.859,1.124l-7.93,1.058
					C-450.682-963.365-450.727-963.362-450.771-963.362z"/>
			</g>
		</g>
	</g>
</g>
<g id="Isolation_Mode">
</g>
<g id="nyt_x5F_exporter_x5F_info" style="display:none;">
</g>
</svg>
