<?xml version="1.0" encoding="iso-8859-1"?>
<!-- Generator: Adobe Illustrator 16.0.3, SVG Export Plug-In . SVG Version: 6.00 Build 0)  -->
<!DOCTYPE svg PUBLIC "-//W3C//DTD SVG 1.1//EN" "http://www.w3.org/Graphics/SVG/1.1/DTD/svg11.dtd">
<svg version="1.1" xmlns="http://www.w3.org/2000/svg" xmlns:xlink="http://www.w3.org/1999/xlink" x="0px" y="0px" width="280px"
	 height="150px" viewBox="934.5 474.5 280 150" style="enable-background:new 934.5 474.5 280 150;" xml:space="preserve">
<g id="Isolation_Mode">
	<g id="Layer_1">
		<g id="New_Symbol_2">
		</g>
		<g id="New_Symbol_3_">
		</g>
		<g id="New_Symbol_2_">
		</g>
		<g id="New_Symbol_1_">
		</g>
		<g id="New_Symbol">
		</g>
	</g>
	<g id="Layer_1_26_">
	</g>
	<g>
		<g>
			<g>
				<g>
					<g>
						<g>
							<g>
								<g>
									<g>
										<g>
											<g>
												<g id="Layer_1_33_">
													<g>
														<g>
															<g>
																<g>
																	<g>
																		<g>
																			<g>
																				<g>
																					<rect x="934.5" y="474.5" style="opacity:0;fill:#FFFFFF;" width="280" height="150"/>
																				</g>
																			</g>
																		</g>
																	</g>
																</g>
															</g>
														</g>
													</g>
												</g>
											</g>
										</g>
									</g>
								</g>
							</g>
						</g>
					</g>
				</g>
			</g>
		</g>
		<g>
			<path style="fill:#191E23;" d="M1035.684,595.216c-0.416-0.624-1.186-1.024-2.098-1.024c-1.057,0-2.434,0.593-2.434,2.018
				c0,0.976,0.77,1.408,1.826,1.809c1.648,0.608,2.977,1.425,2.977,3.153c0,2.081-1.648,3.617-4.242,3.617
				c-1.439,0-2.961-0.576-3.697-1.761l1.313-0.88c0.416,0.736,1.346,1.313,2.449,1.313c1.297,0,2.529-0.721,2.529-2.113
				c0-1.168-1.025-1.648-2.209-2.081c-1.328-0.496-2.545-1.216-2.545-2.913c0-2.112,1.777-3.474,4.178-3.474
				c1.313,0,2.561,0.528,3.17,1.409L1035.684,595.216z"/>
			<path style="fill:#191E23;" d="M1050.627,597.682v1.296h-8.42v-1.296H1050.627z M1050.627,600.322v1.297h-8.42v-1.297H1050.627z"
				/>
			<path style="fill:#191E23;" d="M1063.443,595.216c-0.416-0.624-1.186-1.024-2.098-1.024c-1.057,0-2.434,0.593-2.434,2.018
				c0,0.976,0.77,1.408,1.826,1.809c1.648,0.608,2.977,1.425,2.977,3.153c0,2.081-1.648,3.617-4.242,3.617
				c-1.439,0-2.961-0.576-3.697-1.761l1.313-0.88c0.416,0.736,1.346,1.313,2.449,1.313c1.297,0,2.529-0.721,2.529-2.113
				c0-1.168-1.025-1.648-2.209-2.081c-1.328-0.496-2.545-1.216-2.545-2.913c0-2.112,1.777-3.474,4.178-3.474
				c1.313,0,2.561,0.528,3.17,1.409L1063.443,595.216z"/>
			<path style="fill:#191E23;" d="M1067.867,609.828h-0.885l0.979-5.528l-1.445,1.054l-0.42-0.662l2.098-1.464h0.84
				L1067.867,609.828z"/>
			<path style="fill:#191E23;" d="M1076.383,598.994h3.555v1.313h-3.555v3.553h-1.313v-3.553h-3.553v-1.313h3.553v-3.554h1.313
				V598.994z"/>
			<path style="fill:#191E23;" d="M1088.752,595.216c-0.416-0.624-1.184-1.024-2.096-1.024c-1.057,0-2.434,0.593-2.434,2.018
				c0,0.976,0.768,1.408,1.824,1.809c1.648,0.608,2.979,1.425,2.979,3.153c0,2.081-1.65,3.617-4.242,3.617
				c-1.441,0-2.961-0.576-3.697-1.761l1.313-0.88c0.416,0.736,1.344,1.313,2.449,1.313c1.295,0,2.527-0.721,2.527-2.113
				c0-1.168-1.023-1.648-2.209-2.081c-1.328-0.496-2.545-1.216-2.545-2.913c0-2.112,1.777-3.474,4.178-3.474
				c1.313,0,2.563,0.528,3.17,1.409L1088.752,595.216z"/>
			<path style="fill:#191E23;" d="M1094.529,609.828h-4.299l0.15-0.857l3.049-2.602c0.68-0.578,1.006-0.997,1.006-1.585
				c0-0.605-0.447-0.97-1.08-0.97c-0.699,0-1.186,0.448-1.381,1.101l-0.82-0.205c0.346-1.025,1.174-1.65,2.246-1.65
				c1.119,0,1.939,0.634,1.939,1.659s-0.531,1.529-1.436,2.284l-2.414,2.023h3.18L1094.529,609.828z"/>
			<path style="fill:#191E23;" d="M1101.693,598.994h3.553v1.313h-3.553v3.553h-1.313v-3.553h-3.555v-1.313h3.555v-3.554h1.313
				V598.994z"/>
			<path style="fill:#191E23;" d="M1114.063,595.216c-0.416-0.624-1.186-1.024-2.098-1.024c-1.057,0-2.434,0.593-2.434,2.018
				c0,0.976,0.77,1.408,1.826,1.809c1.648,0.608,2.977,1.425,2.977,3.153c0,2.081-1.648,3.617-4.242,3.617
				c-1.439,0-2.961-0.576-3.697-1.761l1.313-0.88c0.416,0.736,1.346,1.313,2.449,1.313c1.297,0,2.529-0.721,2.529-2.113
				c0-1.168-1.025-1.648-2.209-2.081c-1.328-0.496-2.545-1.216-2.545-2.913c0-2.112,1.777-3.474,4.178-3.474
				c1.313,0,2.561,0.528,3.17,1.409L1114.063,595.216z"/>
			<path style="fill:#191E23;" d="M1117.619,606.015h0.309c1.082,0,1.641-0.466,1.641-1.305c0-0.55-0.41-0.904-1.006-0.904
				c-0.57,0-0.998,0.271-1.27,0.773l-0.689-0.4c0.467-0.756,1.166-1.119,2.023-1.119c0.988,0,1.828,0.587,1.828,1.632
				c0,0.886-0.561,1.473-1.391,1.688v0.019c0.625,0.149,1.082,0.699,1.082,1.389c0,1.333-0.969,2.21-2.387,2.21
				c-1.025,0-1.799-0.531-2.07-1.408l0.85-0.279c0.131,0.597,0.643,0.923,1.277,0.923c0.875,0,1.416-0.541,1.416-1.352
				c0-0.82-0.652-1.138-1.453-1.138h-0.289L1117.619,606.015z"/>
		</g>
		<g>
			
				<polygon style="fill:#00D2FF;fill-opacity:0.4;stroke:#00D2FF;stroke-width:2;stroke-linecap:round;stroke-linejoin:round;stroke-miterlimit:10;" points="
				1015,536.5 1150,584.5 999,569.5 			"/>
			
				<polygon style="fill:#00D2FF;fill-opacity:0.4;stroke:#00D2FF;stroke-width:2;stroke-linecap:round;stroke-linejoin:round;stroke-miterlimit:10;" points="
				1015,536.5 1150,584.5 1120,528.5 			"/>
			
				<polygon style="fill:#00D2FF;fill-opacity:0.4;stroke:#00D2FF;stroke-width:2;stroke-linecap:round;stroke-linejoin:round;stroke-miterlimit:10;" points="
				1015,536.5 1074,493.5 1120,528.5 			"/>
			<g>
				<path style="fill:#191E23;" d="M1026.372,552.216c-0.416-0.624-1.185-1.024-2.097-1.024c-1.057,0-2.434,0.593-2.434,2.018
					c0,0.976,0.769,1.408,1.825,1.809c1.648,0.608,2.978,1.425,2.978,3.153c0,2.081-1.649,3.617-4.242,3.617
					c-1.44,0-2.961-0.576-3.697-1.761l1.313-0.88c0.416,0.736,1.345,1.313,2.449,1.313c1.296,0,2.528-0.721,2.528-2.113
					c0-1.168-1.024-1.648-2.209-2.081c-1.328-0.496-2.545-1.216-2.545-2.913c0-2.112,1.777-3.474,4.178-3.474
					c1.313,0,2.562,0.528,3.17,1.409L1026.372,552.216z"/>
				<path style="fill:#191E23;" d="M1030.797,566.828h-0.886l0.979-5.528l-1.445,1.054l-0.42-0.662l2.098-1.464h0.84
					L1030.797,566.828z"/>
			</g>
			<g>
				<path style="fill:#191E23;" d="M1107.372,544.216c-0.416-0.624-1.185-1.024-2.097-1.024c-1.057,0-2.434,0.593-2.434,2.018
					c0,0.976,0.769,1.408,1.825,1.809c1.648,0.608,2.978,1.425,2.978,3.153c0,2.081-1.649,3.617-4.242,3.617
					c-1.44,0-2.961-0.576-3.697-1.761l1.313-0.88c0.416,0.736,1.345,1.313,2.449,1.313c1.296,0,2.528-0.721,2.528-2.113
					c0-1.168-1.024-1.648-2.209-2.081c-1.328-0.496-2.545-1.216-2.545-2.913c0-2.112,1.777-3.474,4.178-3.474
					c1.313,0,2.562,0.528,3.17,1.409L1107.372,544.216z"/>
				<path style="fill:#191E23;" d="M1113.148,558.828h-4.298l0.149-0.857l3.049-2.602c0.681-0.578,1.007-0.997,1.007-1.585
					c0-0.605-0.447-0.97-1.081-0.97c-0.699,0-1.185,0.448-1.38,1.101l-0.82-0.205c0.345-1.025,1.174-1.65,2.246-1.65
					c1.119,0,1.939,0.634,1.939,1.659s-0.531,1.529-1.436,2.284l-2.415,2.023h3.18L1113.148,558.828z"/>
			</g>
			<g>
				<path style="fill:#191E23;" d="M1076.372,510.216c-0.416-0.624-1.185-1.024-2.097-1.024c-1.057,0-2.434,0.593-2.434,2.018
					c0,0.976,0.769,1.408,1.825,1.809c1.648,0.608,2.978,1.425,2.978,3.153c0,2.081-1.649,3.617-4.242,3.617
					c-1.44,0-2.961-0.576-3.697-1.761l1.313-0.88c0.416,0.736,1.345,1.313,2.449,1.313c1.296,0,2.528-0.721,2.528-2.113
					c0-1.168-1.024-1.648-2.209-2.081c-1.328-0.496-2.545-1.216-2.545-2.913c0-2.112,1.777-3.474,4.178-3.474
					c1.313,0,2.562,0.528,3.17,1.409L1076.372,510.216z"/>
				<path style="fill:#191E23;" d="M1079.93,521.015h0.308c1.082,0,1.642-0.466,1.642-1.305c0-0.55-0.41-0.904-1.007-0.904
					c-0.569,0-0.998,0.271-1.269,0.773l-0.689-0.4c0.466-0.756,1.165-1.119,2.022-1.119c0.988,0,1.828,0.587,1.828,1.632
					c0,0.886-0.56,1.473-1.39,1.688v0.019c0.625,0.149,1.082,0.699,1.082,1.389c0,1.333-0.97,2.21-2.387,2.21
					c-1.026,0-1.8-0.531-2.07-1.408l0.849-0.279c0.131,0.597,0.644,0.923,1.277,0.923c0.876,0,1.417-0.541,1.417-1.352
					c0-0.82-0.652-1.138-1.454-1.138h-0.289L1079.93,521.015z"/>
			</g>
		</g>
	</g>
</g>
<g id="nyt_x5F_exporter_x5F_info" style="display:none;">
</g>
</svg>
