<?xml version="1.0" encoding="iso-8859-1"?>
<!-- Generator: Adobe Illustrator 16.0.3, SVG Export Plug-In . SVG Version: 6.00 Build 0)  -->
<!DOCTYPE svg PUBLIC "-//W3C//DTD SVG 1.1//EN" "http://www.w3.org/Graphics/SVG/1.1/DTD/svg11.dtd">
<svg version="1.1" xmlns="http://www.w3.org/2000/svg" xmlns:xlink="http://www.w3.org/1999/xlink" x="0px" y="0px" width="280px"
	 height="150px" viewBox="33.5 458.5 280 150" style="enable-background:new 33.5 458.5 280 150;" xml:space="preserve">
<g id="Layer_1">
	<g id="New_Symbol_2">
	</g>
	<g id="New_Symbol_3_">
	</g>
	<g id="New_Symbol_2_">
	</g>
	<g id="New_Symbol_1_">
	</g>
	<g id="New_Symbol">
	</g>
	<g>
		<g>
			<g>
				<polygon style="opacity:0.5;fill:#FABE00;" points="181.5,554.5 197.5,554.5 197.5,570.5 181.569,570.5 				"/>
				<path style="fill:#FABE00;" d="M197.5,571.5h-15.931c-0.551,0-0.998-0.445-1-0.996l-0.069-16
					c-0.001-0.266,0.104-0.521,0.291-0.71c0.188-0.188,0.443-0.294,0.709-0.294h16c0.553,0,1,0.447,1,1v16
					C198.5,571.053,198.053,571.5,197.5,571.5z M182.565,569.5H196.5v-14h-13.996L182.565,569.5z"/>
			</g>
			<g>
				<path style="fill:#C8C8C8;" d="M197.5,571.5c-0.553,0-1-0.447-1-1v-63c0-0.553,0.447-1,1-1s1,0.447,1,1v63
					C198.5,571.053,198.053,571.5,197.5,571.5z"/>
			</g>
			<g>
				<g>
					<g>
						<g>
							<g>
								<g>
									<g>
										<g>
											<g>
												<g>
													<g style="opacity:0;">
														<rect x="33.5" y="458.5" style="fill:#FFFFFF;" width="280" height="150"/>
													</g>
												</g>
											</g>
										</g>
									</g>
								</g>
							</g>
						</g>
					</g>
					<g>
						<path style="fill:#00D2FF;" d="M263.52,571.5c-0.004,0.001-0.012,0.001-0.02,0h-176c-0.453,0-0.85-0.305-0.967-0.743
							c-0.116-0.438,0.076-0.899,0.47-1.125l110-63c0.384-0.219,0.868-0.161,1.188,0.145l65.891,62.896
							c0.265,0.18,0.438,0.483,0.438,0.828C264.52,571.053,264.072,571.5,263.52,571.5z M91.258,569.5h169.746l-63.654-60.762
							L91.258,569.5z"/>
					</g>
				</g>
				<g>
					<g>
						<path d="M175.03,578.17c0-0.896-0.576-1.265-1.601-1.265c-0.801,0-1.681,0.368-2.272,0.832l-0.608-0.992
							c0.8-0.64,1.969-1.04,3.089-1.04c1.44,0,2.817,0.608,2.817,2.24c0,0.192-0.032,0.561-0.064,0.769l-0.56,3.073
							c-0.097,0.593-0.177,1.297-0.177,1.713h-1.36c0-0.32,0.032-0.704,0.096-1.057h-0.031c-0.721,0.849-1.537,1.217-2.689,1.217
							c-1.04,0-2.353-0.464-2.353-2.001c0-2.465,3.009-2.897,5.65-2.897C175.015,578.458,175.03,578.313,175.03,578.17z
							 M174.566,579.851c-1.665,0-3.777,0.224-3.777,1.601c0,0.832,0.704,1.072,1.393,1.072c1.344,0,2.305-0.96,2.513-2.112
							l0.112-0.561H174.566z"/>
					</g>
				</g>
				<g>
					<g>
						<path d="M210.935,546.042c0,0.256-0.016,0.496-0.063,0.769l-0.833,4.689h-1.488l0.736-4.193
							c0.064-0.288,0.096-0.576,0.096-0.849c0-0.864-0.368-1.488-1.473-1.488c-1.2,0-2.145,0.992-2.417,2.513l-0.704,4.018H203.3
							l2.129-12.101h1.488l-0.992,5.666h0.032c0.48-0.769,1.36-1.36,2.449-1.36C210.055,543.705,210.935,544.697,210.935,546.042z"
							/>
					</g>
				</g>
				<g>
					<g>
						<path d="M75.936,498.216c-0.416-0.624-1.184-1.024-2.096-1.024c-1.057,0-2.434,0.593-2.434,2.018
							c0,0.976,0.768,1.408,1.824,1.809c1.648,0.608,2.979,1.425,2.979,3.153c0,2.081-1.65,3.617-4.242,3.617
							c-1.441,0-2.961-0.576-3.697-1.761l1.313-0.88c0.416,0.736,1.344,1.313,2.449,1.313c1.295,0,2.527-0.721,2.527-2.113
							c0-1.168-1.023-1.648-2.209-2.081c-1.328-0.496-2.545-1.216-2.545-2.913c0-2.112,1.777-3.474,4.178-3.474
							c1.313,0,2.563,0.528,3.17,1.409L75.936,498.216z"/>
					</g>
					<g>
						<path d="M91.52,500.682v1.296H83.1v-1.296H91.52z M91.52,503.322v1.297H83.1v-1.297H91.52z"/>
					</g>
					<g>
						<path d="M120.543,502.17c0-0.896-0.576-1.265-1.602-1.265c-0.801,0-1.68,0.368-2.271,0.832l-0.609-0.992
							c0.801-0.64,1.969-1.04,3.09-1.04c1.439,0,2.816,0.608,2.816,2.24c0,0.192-0.031,0.561-0.064,0.769l-0.559,3.073
							c-0.098,0.593-0.178,1.297-0.178,1.713h-1.359c0-0.32,0.031-0.704,0.096-1.057h-0.031c-0.721,0.849-1.537,1.217-2.689,1.217
							c-1.041,0-2.354-0.464-2.354-2.001c0-2.465,3.01-2.897,5.65-2.897C120.527,502.458,120.543,502.313,120.543,502.17z
							 M120.078,503.851c-1.664,0-3.777,0.224-3.777,1.601c0,0.832,0.705,1.072,1.393,1.072c1.344,0,2.305-0.96,2.514-2.112
							l0.111-0.561H120.078z"/>
					</g>
					<g>
						<path d="M131.551,502.042c0,0.256-0.016,0.496-0.063,0.769l-0.834,4.689h-1.488l0.736-4.193
							c0.064-0.288,0.096-0.576,0.096-0.849c0-0.864-0.367-1.488-1.473-1.488c-1.199,0-2.145,0.992-2.416,2.513l-0.705,4.018h-1.488
							l2.129-12.101h1.488l-0.992,5.666h0.033c0.479-0.769,1.359-1.36,2.449-1.36C130.672,499.705,131.551,500.697,131.551,502.042z
							"/>
					</g>
				</g>
				<g>
					<g>
						<path d="M105.928,500.5h-1.521l1.68-9.492l-2.48,1.809l-0.721-1.136l3.602-2.514h1.441L105.928,500.5z"/>
					</g>
					<g>
						<path d="M108.248,519.7h-7.379l0.256-1.473l5.234-4.466c1.168-0.992,1.729-1.713,1.729-2.721c0-1.041-0.768-1.665-1.857-1.665
							c-1.199,0-2.033,0.769-2.369,1.889l-1.408-0.352c0.592-1.761,2.018-2.834,3.857-2.834c1.922,0,3.33,1.089,3.33,2.85
							s-0.912,2.625-2.465,3.922l-4.146,3.473h5.459L108.248,519.7z"/>
					</g>
				</g>
			</g>
			<g>
				<path d="M112.5,504h-13c-0.276,0-0.5-0.224-0.5-0.5s0.224-0.5,0.5-0.5h13c0.276,0,0.5,0.224,0.5,0.5S112.776,504,112.5,504z"/>
			</g>
		</g>
	</g>
</g>
<g id="Isolation_Mode">
</g>
<g id="nyt_x5F_exporter_x5F_info" style="display:none;">
</g>
</svg>
