<?xml version="1.0" encoding="iso-8859-1"?>
<!-- Generator: Adobe Illustrator 16.0.3, SVG Export Plug-In . SVG Version: 6.00 Build 0)  -->
<!DOCTYPE svg PUBLIC "-//W3C//DTD SVG 1.1//EN" "http://www.w3.org/Graphics/SVG/1.1/DTD/svg11.dtd">
<svg version="1.1" xmlns="http://www.w3.org/2000/svg" xmlns:xlink="http://www.w3.org/1999/xlink" x="0px" y="0px" width="280px"
	 height="150px" viewBox="333.5 118.5 280 150" style="enable-background:new 333.5 118.5 280 150;" xml:space="preserve">
<g id="Layer_1">
	<g id="New_Symbol_2">
	</g>
	<g id="New_Symbol_3_">
	</g>
	<g id="New_Symbol_2_">
	</g>
	<g id="New_Symbol_1_">
	</g>
	<g id="New_Symbol">
	</g>
	<g>
		<g>
			<g>
				<g>
					<g>
						<g>
							<g>
								<g>
									<g style="opacity:0;">
										<rect x="333.5" y="118.5" style="fill:#FFFFFF;" width="280" height="150"/>
									</g>
								</g>
							</g>
						</g>
					</g>
				</g>
			</g>
			<g>
				<g>
					<g>
						<g>
							<path style="fill:#B4B4B4;" d="M436.99,193.206c0,0.256-0.033,0.496-0.08,0.769l-0.832,4.689h-1.473l0.736-4.193
								c0.047-0.288,0.08-0.576,0.08-0.849c0-0.864-0.369-1.505-1.457-1.505c-1.393,0-2.064,1.265-2.273,2.449l-0.721,4.098h-1.488
								l0.801-4.498c0.049-0.256,0.08-0.496,0.08-0.704c0-0.8-0.385-1.345-1.328-1.345c-1.105,0-2.082,1.009-2.354,2.514
								l-0.705,4.033h-1.488l1.041-5.938c0.08-0.4,0.191-1.137,0.24-1.648h1.408l-0.16,1.232h0.031
								c0.529-0.816,1.361-1.44,2.482-1.44c1.039,0,1.953,0.479,2.191,1.553c0.625-0.977,1.537-1.553,2.689-1.553
								C436.109,190.869,436.99,191.861,436.99,193.206z"/>
						</g>
						<g>
							<path style="fill:#B4B4B4;" d="M451.725,191.846v1.296h-8.42v-1.296H451.725z M451.725,194.486v1.297h-8.42v-1.297H451.725z"
								/>
						</g>
					</g>
					<g>
						<g>
							<path style="fill:#191E23;" d="M436.99,193.206c0,0.256-0.033,0.496-0.08,0.769l-0.832,4.689h-1.473l0.736-4.193
								c0.047-0.288,0.08-0.576,0.08-0.849c0-0.864-0.369-1.505-1.457-1.505c-1.393,0-2.064,1.265-2.273,2.449l-0.721,4.098h-1.488
								l0.801-4.498c0.049-0.256,0.08-0.496,0.08-0.704c0-0.8-0.385-1.345-1.328-1.345c-1.105,0-2.082,1.009-2.354,2.514
								l-0.705,4.033h-1.488l1.041-5.938c0.08-0.4,0.191-1.137,0.24-1.648h1.408l-0.16,1.232h0.031
								c0.529-0.816,1.361-1.44,2.482-1.44c1.039,0,1.953,0.479,2.191,1.553c0.625-0.977,1.537-1.553,2.689-1.553
								C436.109,190.869,436.99,191.861,436.99,193.206z"/>
							<path style="fill:#191E23;" d="M436.99,193.206c0,0.256-0.033,0.496-0.08,0.769l-0.832,4.689h-1.473l0.736-4.193
								c0.047-0.288,0.08-0.576,0.08-0.849c0-0.864-0.369-1.505-1.457-1.505c-1.393,0-2.064,1.265-2.273,2.449l-0.721,4.098h-1.488
								l0.801-4.498c0.049-0.256,0.08-0.496,0.08-0.704c0-0.8-0.385-1.345-1.328-1.345c-1.105,0-2.082,1.009-2.354,2.514
								l-0.705,4.033h-1.488l1.041-5.938c0.08-0.4,0.191-1.137,0.24-1.648h1.408l-0.16,1.232h0.031
								c0.529-0.816,1.361-1.44,2.482-1.44c1.039,0,1.953,0.479,2.191,1.553c0.625-0.977,1.537-1.553,2.689-1.553
								C436.109,190.869,436.99,191.861,436.99,193.206z"/>
						</g>
						<g>
							<path style="fill:#191E23;" d="M451.725,191.846v1.296h-8.42v-1.296H451.725z M451.725,194.486v1.297h-8.42v-1.297H451.725z"
								/>
							<path style="fill:#191E23;" d="M451.725,191.846v1.296h-8.42v-1.296H451.725z M451.725,194.486v1.297h-8.42v-1.297H451.725z"
								/>
						</g>
					</g>
				</g>
				<g>
					<g>
						<g>
							<path style="fill:#B4B4B4;" d="M470.633,178.17c0-0.896-0.576-1.265-1.6-1.265c-0.801,0-1.682,0.368-2.273,0.832
								l-0.607-0.992c0.799-0.64,1.969-1.04,3.088-1.04c1.441,0,2.818,0.608,2.818,2.24c0,0.192-0.033,0.561-0.064,0.769
								l-0.561,3.073c-0.096,0.593-0.176,1.297-0.176,1.713h-1.361c0-0.32,0.033-0.704,0.096-1.057h-0.031
								c-0.721,0.849-1.537,1.217-2.689,1.217c-1.039,0-2.352-0.464-2.352-2.001c0-2.465,3.008-2.897,5.65-2.897
								C470.617,178.458,470.633,178.313,470.633,178.17z M470.17,179.851c-1.666,0-3.777,0.224-3.777,1.601
								c0,0.832,0.703,1.072,1.393,1.072c1.344,0,2.305-0.96,2.512-2.112l0.113-0.561H470.17z"/>
						</g>
						<g>
							<path style="fill:#B4B4B4;" d="M481.557,177.994h3.555v1.313h-3.555v3.553h-1.313v-3.553h-3.553v-1.313h3.553v-3.554h1.313
								V177.994z"/>
						</g>
						<g>
							<path style="fill:#B4B4B4;" d="M492.355,182.22l-0.225,1.28h-1.424l2.129-12.101h1.488l-1.041,5.73h0.031
								c0.545-0.816,1.586-1.425,2.754-1.425c2,0,3.313,1.328,3.313,3.281c0,2.593-1.809,4.706-4.305,4.706
								c-1.105,0-2.209-0.528-2.689-1.473H492.355z M495.748,176.938c-1.697,0-3.01,1.521-3.01,3.329c0,1.28,0.85,2.209,2.178,2.209
								c1.777,0,2.945-1.488,2.945-3.346C497.861,177.897,497.109,176.938,495.748,176.938z"/>
						</g>
					</g>
					<g>
						<g>
							<path style="fill:#191E23;" d="M470.633,178.17c0-0.896-0.576-1.265-1.6-1.265c-0.801,0-1.682,0.368-2.273,0.832
								l-0.607-0.992c0.799-0.64,1.969-1.04,3.088-1.04c1.441,0,2.818,0.608,2.818,2.24c0,0.192-0.033,0.561-0.064,0.769
								l-0.561,3.073c-0.096,0.593-0.176,1.297-0.176,1.713h-1.361c0-0.32,0.033-0.704,0.096-1.057h-0.031
								c-0.721,0.849-1.537,1.217-2.689,1.217c-1.039,0-2.352-0.464-2.352-2.001c0-2.465,3.008-2.897,5.65-2.897
								C470.617,178.458,470.633,178.313,470.633,178.17z M470.17,179.851c-1.666,0-3.777,0.224-3.777,1.601
								c0,0.832,0.703,1.072,1.393,1.072c1.344,0,2.305-0.96,2.512-2.112l0.113-0.561H470.17z"/>
							<path style="fill:#191E23;" d="M470.633,178.17c0-0.896-0.576-1.265-1.6-1.265c-0.801,0-1.682,0.368-2.273,0.832
								l-0.607-0.992c0.799-0.64,1.969-1.04,3.088-1.04c1.441,0,2.818,0.608,2.818,2.24c0,0.192-0.033,0.561-0.064,0.769
								l-0.561,3.073c-0.096,0.593-0.176,1.297-0.176,1.713h-1.361c0-0.32,0.033-0.704,0.096-1.057h-0.031
								c-0.721,0.849-1.537,1.217-2.689,1.217c-1.039,0-2.352-0.464-2.352-2.001c0-2.465,3.008-2.897,5.65-2.897
								C470.617,178.458,470.633,178.313,470.633,178.17z M470.17,179.851c-1.666,0-3.777,0.224-3.777,1.601
								c0,0.832,0.703,1.072,1.393,1.072c1.344,0,2.305-0.96,2.512-2.112l0.113-0.561H470.17z"/>
						</g>
						<g>
							<path style="fill:#191E23;" d="M481.557,177.994h3.555v1.313h-3.555v3.553h-1.313v-3.553h-3.553v-1.313h3.553v-3.554h1.313
								V177.994z"/>
							<path style="fill:#191E23;" d="M481.557,177.994h3.555v1.313h-3.555v3.553h-1.313v-3.553h-3.553v-1.313h3.553v-3.554h1.313
								V177.994z"/>
						</g>
						<g>
							<path style="fill:#191E23;" d="M492.355,182.22l-0.225,1.28h-1.424l2.129-12.101h1.488l-1.041,5.73h0.031
								c0.545-0.816,1.586-1.425,2.754-1.425c2,0,3.313,1.328,3.313,3.281c0,2.593-1.809,4.706-4.305,4.706
								c-1.105,0-2.209-0.528-2.689-1.473H492.355z M495.748,176.938c-1.697,0-3.01,1.521-3.01,3.329c0,1.28,0.85,2.209,2.178,2.209
								c1.777,0,2.945-1.488,2.945-3.346C497.861,177.897,497.109,176.938,495.748,176.938z"/>
							<path style="fill:#191E23;" d="M492.355,182.22l-0.225,1.28h-1.424l2.129-12.101h1.488l-1.041,5.73h0.031
								c0.545-0.816,1.586-1.425,2.754-1.425c2,0,3.313,1.328,3.313,3.281c0,2.593-1.809,4.706-4.305,4.706
								c-1.105,0-2.209-0.528-2.689-1.473H492.355z M495.748,176.938c-1.697,0-3.01,1.521-3.01,3.329c0,1.28,0.85,2.209,2.178,2.209
								c1.777,0,2.945-1.488,2.945-3.346C497.861,177.897,497.109,176.938,495.748,176.938z"/>
						</g>
					</g>
				</g>
				<g>
					<g>
						<g>
							<path style="fill:#B4B4B4;" d="M485.248,214.5h-7.379l0.256-1.473l5.234-4.466c1.169-0.992,1.729-1.713,1.729-2.721
								c0-1.041-0.768-1.665-1.856-1.665c-1.2,0-2.033,0.769-2.369,1.889l-1.408-0.352c0.592-1.761,2.017-2.834,3.857-2.834
								c1.921,0,3.329,1.089,3.329,2.85s-0.912,2.625-2.465,3.922l-4.146,3.473h5.458L485.248,214.5z"/>
						</g>
					</g>
					<g>
						<g>
							<path style="fill:#191E23;" d="M485.248,214.5h-7.379l0.256-1.473l5.234-4.466c1.169-0.992,1.729-1.713,1.729-2.721
								c0-1.041-0.768-1.665-1.856-1.665c-1.2,0-2.033,0.769-2.369,1.889l-1.408-0.352c0.592-1.761,2.017-2.834,3.857-2.834
								c1.921,0,3.329,1.089,3.329,2.85s-0.912,2.625-2.465,3.922l-4.146,3.473h5.458L485.248,214.5z"/>
							<path style="fill:#191E23;" d="M485.248,214.5h-7.379l0.256-1.473l5.234-4.466c1.169-0.992,1.729-1.713,1.729-2.721
								c0-1.041-0.768-1.665-1.856-1.665c-1.2,0-2.033,0.769-2.369,1.889l-1.408-0.352c0.592-1.761,2.017-2.834,3.857-2.834
								c1.921,0,3.329,1.089,3.329,2.85s-0.912,2.625-2.465,3.922l-4.146,3.473h5.458L485.248,214.5z"/>
						</g>
					</g>
				</g>
				<g>
					<rect x="457.439" y="192.75" style="fill:#191E23;" width="50.061" height="1.5"/>
				</g>
			</g>
		</g>
	</g>
	<g>
		<g>
		</g>
	</g>
</g>
<g id="Isolation_Mode">
</g>
<g id="nyt_x5F_exporter_x5F_info" style="display:none;">
</g>
</svg>
