<?xml version="1.0" encoding="iso-8859-1"?>
<!-- Generator: Adobe Illustrator 16.0.3, SVG Export Plug-In . SVG Version: 6.00 Build 0)  -->
<!DOCTYPE svg PUBLIC "-//W3C//DTD SVG 1.1//EN" "http://www.w3.org/Graphics/SVG/1.1/DTD/svg11.dtd">
<svg version="1.1" xmlns="http://www.w3.org/2000/svg" xmlns:xlink="http://www.w3.org/1999/xlink" x="0px" y="0px" width="280px"
	 height="150px" viewBox="-266.5 -1071.5 280 150" style="enable-background:new -266.5 -1071.5 280 150;" xml:space="preserve">
<g id="Layer_1">
	<g id="New_Symbol_2">
	</g>
	<g id="New_Symbol_3_">
	</g>
	<g id="New_Symbol_2_">
	</g>
	<g id="New_Symbol_1_">
	</g>
	<g id="New_Symbol">
	</g>
	<g>
		<g>
			<g>
				<path style="fill:#C8C8C8;" d="M-44.48-962.5c-0.007,0-0.013,0-0.02,0h-164c-0.361,0-0.694-0.195-0.871-0.509
					s-0.171-0.7,0.016-1.009l40-66c0.181-0.299,0.505-0.482,0.855-0.482h84c0.35,0,0.674,0.183,0.855,0.482l39.91,65.851
					c0.159,0.177,0.255,0.411,0.255,0.667C-43.48-962.948-43.928-962.5-44.48-962.5z M-206.725-964.5h160.449l-38.788-64h-82.873
					L-206.725-964.5z"/>
			</g>
			<g>
				<g>
					<g>
						<g>
							<g>
								<g>
									<g style="opacity:0;">
										<rect x="-266.5" y="-1071.5" style="fill:#FFFFFF;" width="280" height="150"/>
									</g>
								</g>
							</g>
						</g>
					</g>
				</g>
			</g>
			<g>
				<line style="fill:#FABE00;" x1="-126.5" y1="-1049.5" x2="-126.5" y2="-943.5"/>
				<path style="fill:#00D2FF;" d="M-126.5-942.5c-0.552,0-1-0.448-1-1v-106c0-0.552,0.448-1,1-1s1,0.448,1,1v106
					C-125.5-942.948-125.948-942.5-126.5-942.5z"/>
			</g>
		</g>
	</g>
</g>
<g id="Isolation_Mode">
</g>
<g id="nyt_x5F_exporter_x5F_info" style="display:none;">
</g>
</svg>
