<?xml version="1.0" encoding="iso-8859-1"?>
<!-- Generator: Adobe Illustrator 16.0.3, SVG Export Plug-In . SVG Version: 6.00 Build 0)  -->
<!DOCTYPE svg PUBLIC "-//W3C//DTD SVG 1.1//EN" "http://www.w3.org/Graphics/SVG/1.1/DTD/svg11.dtd">
<svg version="1.1" xmlns="http://www.w3.org/2000/svg" xmlns:xlink="http://www.w3.org/1999/xlink" x="0px" y="0px" width="280px"
	 height="150px" viewBox="33.5 -1071.5 280 150" style="enable-background:new 33.5 -1071.5 280 150;" xml:space="preserve">
<g id="Layer_1">
	<g id="New_Symbol_2">
	</g>
	<g id="New_Symbol_3_">
	</g>
	<g id="New_Symbol_2_">
	</g>
	<g id="New_Symbol_1_">
	</g>
	<g id="New_Symbol">
	</g>
	<g>
		<g>
			<g>
				<g>
					<line style="fill:#FABE00;" x1="173.057" y1="-949.5" x2="183.5" y2="-1043.5"/>
					<path style="fill:#FABE00;" d="M173.058-948.5c-0.037,0-0.074-0.002-0.111-0.006c-0.549-0.061-0.944-0.555-0.884-1.104
						l10.443-94c0.061-0.549,0.569-0.944,1.104-0.883c0.549,0.061,0.944,0.555,0.884,1.104l-10.443,94
						C173.994-948.878,173.561-948.5,173.058-948.5z"/>
				</g>
				<g>
					<line style="fill:#FABE00;" x1="100.5" y1="-949.5" x2="214.75" y2="-996.102"/>
					<path style="fill:#FABE00;" d="M100.5-948.5c-0.395,0-0.768-0.235-0.926-0.623c-0.209-0.511,0.037-1.095,0.548-1.303
						l114.25-46.602c0.513-0.209,1.095,0.037,1.304,0.548c0.209,0.511-0.037,1.095-0.548,1.303l-114.25,46.602
						C100.754-948.523,100.626-948.5,100.5-948.5z"/>
				</g>
				<g>
					<line style="fill:#FABE00;" x1="141.713" y1="-996.175" x2="245.5" y2="-949.5"/>
					<path style="fill:#FABE00;" d="M245.499-948.5c-0.137,0-0.276-0.029-0.409-0.088l-103.787-46.675
						c-0.504-0.227-0.729-0.818-0.502-1.322c0.227-0.503,0.819-0.728,1.322-0.502l103.787,46.675
						c0.504,0.227,0.729,0.818,0.502,1.322C246.245-948.719,245.881-948.5,245.499-948.5z"/>
				</g>
				<g>
					<path style="fill:#C8C8C8;" d="M245.52-948.5c-0.005,0-0.012,0-0.02,0h-145c-0.394,0-0.75-0.23-0.911-0.589
						c-0.162-0.358-0.099-0.778,0.161-1.073l83-94c0.206-0.233,0.507-0.357,0.82-0.335c0.311,0.022,0.593,0.187,0.765,0.447
						l61.905,93.857c0.174,0.18,0.279,0.424,0.279,0.693C246.52-948.948,246.072-948.5,245.52-948.5z M102.717-950.5h140.926
						l-60.258-91.358L102.717-950.5z"/>
				</g>
				<g>
					<g>
						<g>
							<g>
								<g>
									<g>
										<g style="opacity:0;">
											<rect x="33.5" y="-1071.5" style="fill:#FFFFFF;" width="280" height="150"/>
										</g>
									</g>
								</g>
							</g>
						</g>
					</g>
				</g>
				<g>
					<path style="fill:#B4B4B4;" d="M140.5-944.5c-0.553,0-1-0.448-1-1v-8c0-0.552,0.447-1,1-1s1,0.448,1,1v8
						C141.5-944.948,141.053-944.5,140.5-944.5z"/>
				</g>
				<g>
					<path style="fill:#B4B4B4;" d="M205.613-944.5c-0.553,0-1-0.448-1-1v-8c0-0.552,0.447-1,1-1s1,0.448,1,1v8
						C206.613-944.948,206.166-944.5,205.613-944.5z"/>
				</g>
				<g>
					<path style="fill:#B4B4B4;" d="M195.124-1017.57c-0.324,0-0.643-0.158-0.835-0.449c-0.305-0.46-0.178-1.081,0.282-1.386
						l6.674-4.411c0.46-0.304,1.08-0.179,1.386,0.283c0.305,0.46,0.178,1.081-0.282,1.386l-6.674,4.411
						C195.505-1017.624,195.313-1017.57,195.124-1017.57z"/>
				</g>
				<g>
					<path style="fill:#B4B4B4;" d="M197.33-1014.233c-0.324,0-0.643-0.158-0.835-0.448c-0.305-0.461-0.179-1.081,0.282-1.386
						l6.674-4.413c0.46-0.305,1.08-0.178,1.386,0.282c0.305,0.461,0.179,1.081-0.282,1.386l-6.674,4.413
						C197.711-1014.287,197.52-1014.233,197.33-1014.233z"/>
				</g>
				<g>
					<path style="fill:#B4B4B4;" d="M199.536-1010.896c-0.324,0-0.643-0.158-0.835-0.449c-0.305-0.46-0.178-1.081,0.282-1.385
						l6.674-4.412c0.46-0.305,1.08-0.179,1.386,0.283c0.305,0.46,0.178,1.081-0.282,1.385l-6.674,4.412
						C199.917-1010.95,199.726-1010.896,199.536-1010.896z"/>
				</g>
				<g>
					<path style="fill:#B4B4B4;" d="M227.704-968.223c-0.324,0-0.643-0.158-0.835-0.449c-0.305-0.461-0.178-1.081,0.282-1.386
						l6.674-4.41c0.46-0.304,1.081-0.179,1.386,0.283c0.305,0.461,0.178,1.081-0.282,1.386l-6.674,4.41
						C228.085-968.276,227.894-968.223,227.704-968.223z"/>
				</g>
				<g>
					<path style="fill:#B4B4B4;" d="M225.498-971.559c-0.324,0-0.643-0.158-0.835-0.449c-0.305-0.46-0.178-1.081,0.282-1.385
						l6.674-4.412c0.461-0.305,1.08-0.179,1.386,0.283c0.305,0.46,0.178,1.081-0.282,1.385l-6.674,4.412
						C225.879-971.612,225.688-971.559,225.498-971.559z"/>
				</g>
				<g>
					<path style="fill:#B4B4B4;" d="M223.292-974.896c-0.324,0-0.643-0.158-0.835-0.449c-0.305-0.461-0.178-1.081,0.282-1.386
						l6.674-4.41c0.46-0.304,1.08-0.178,1.386,0.283c0.305,0.461,0.178,1.081-0.282,1.386l-6.674,4.41
						C223.673-974.95,223.481-974.896,223.292-974.896z"/>
				</g>
				<g>
					<path style="fill:#B4B4B4;" d="M125.16-970.348c-0.236,0-0.474-0.083-0.665-0.253l-5.979-5.317
						c-0.412-0.367-0.449-0.999-0.082-1.412c0.366-0.413,0.997-0.45,1.412-0.083l5.979,5.317c0.412,0.367,0.449,0.999,0.082,1.412
						C125.71-970.461,125.436-970.348,125.16-970.348z"/>
				</g>
				<g>
					<path style="fill:#B4B4B4;" d="M127.818-973.335c-0.237,0-0.475-0.083-0.665-0.253l-5.977-5.317
						c-0.412-0.367-0.449-0.999-0.082-1.412c0.367-0.414,1.001-0.448,1.412-0.083l5.977,5.317c0.412,0.367,0.449,0.999,0.082,1.412
						C128.368-973.448,128.094-973.335,127.818-973.335z"/>
				</g>
				<g>
					<path style="fill:#B4B4B4;" d="M164.244-1014.685c-0.236,0-0.474-0.083-0.664-0.253l-5.979-5.317
						c-0.412-0.367-0.449-0.999-0.082-1.412c0.366-0.413,0.998-0.45,1.411-0.083l5.979,5.317c0.412,0.367,0.449,0.999,0.082,1.412
						C164.794-1014.798,164.52-1014.685,164.244-1014.685z"/>
				</g>
				<g>
					<path style="fill:#B4B4B4;" d="M161.584-1011.696c-0.237,0-0.475-0.083-0.665-0.253l-5.977-5.319
						c-0.412-0.367-0.449-1-0.082-1.412c0.368-0.413,1-0.448,1.412-0.082l5.977,5.319c0.412,0.367,0.449,1,0.082,1.412
						C162.134-1011.809,161.859-1011.696,161.584-1011.696z"/>
				</g>
			</g>
			<g>
				<g>
					<g>
						<circle style="fill:#FFFFFF;" cx="176.5" cy="-980.5" r="3"/>
						<path style="fill:#00D2FF;" d="M176.5-982.5c1.104,0,2,0.896,2,2s-0.896,2-2,2s-2-0.896-2-2S175.396-982.5,176.5-982.5
							 M176.5-984.5c-2.206,0-4,1.794-4,4s1.794,4,4,4s4-1.794,4-4S178.706-984.5,176.5-984.5L176.5-984.5z"/>
					</g>
				</g>
			</g>
		</g>
	</g>
</g>
<g id="Isolation_Mode">
</g>
<g id="nyt_x5F_exporter_x5F_info" style="display:none;">
</g>
</svg>
