<?xml version="1.0" encoding="iso-8859-1"?>
<!-- Generator: Adobe Illustrator 16.0.3, SVG Export Plug-In . SVG Version: 6.00 Build 0)  -->
<!DOCTYPE svg PUBLIC "-//W3C//DTD SVG 1.1//EN" "http://www.w3.org/Graphics/SVG/1.1/DTD/svg11.dtd">
<svg version="1.1" xmlns="http://www.w3.org/2000/svg" xmlns:xlink="http://www.w3.org/1999/xlink" x="0px" y="0px" width="280px"
	 height="150px" viewBox="-866.5 458.5 280 150" style="enable-background:new -866.5 458.5 280 150;" xml:space="preserve">
<g id="Layer_1">
	<g id="New_Symbol_2">
	</g>
	<g id="New_Symbol_3_">
	</g>
	<g id="New_Symbol_2_">
	</g>
	<g id="New_Symbol_1_">
	</g>
	<g id="New_Symbol">
	</g>
	<g>
		<g>
			<g>
				<path style="fill:#E1E1E1;" d="M-675.514,571.49c-0.204,0-0.409-0.062-0.586-0.19l-4.857-3.522
					c-0.447-0.324-0.547-0.949-0.223-1.396c0.325-0.446,0.951-0.547,1.396-0.223l4.857,3.522c0.447,0.324,0.547,0.949,0.223,1.396
					C-674.899,571.347-675.204,571.49-675.514,571.49z M-685.227,564.444c-0.204,0-0.409-0.062-0.586-0.19l-4.856-3.523
					c-0.447-0.324-0.546-0.95-0.222-1.396c0.325-0.446,0.95-0.547,1.397-0.223l4.856,3.523c0.447,0.324,0.546,0.95,0.222,1.396
					C-684.612,564.301-684.917,564.444-685.227,564.444z M-694.94,557.397c-0.204,0-0.409-0.062-0.586-0.19l-4.856-3.523
					c-0.447-0.324-0.546-0.95-0.222-1.396c0.325-0.446,0.949-0.546,1.397-0.223l4.856,3.523c0.447,0.324,0.546,0.95,0.222,1.396
					C-694.325,557.254-694.63,557.397-694.94,557.397z M-704.653,550.351c-0.204,0-0.409-0.062-0.586-0.19l-4.857-3.523
					c-0.447-0.324-0.546-0.95-0.222-1.396c0.325-0.446,0.949-0.548,1.397-0.223l4.857,3.523c0.447,0.324,0.546,0.95,0.222,1.396
					C-704.038,550.207-704.343,550.351-704.653,550.351z M-714.366,543.304c-0.204,0-0.409-0.062-0.586-0.19l-4.856-3.523
					c-0.447-0.324-0.546-0.95-0.222-1.396s0.95-0.547,1.397-0.223l4.856,3.523c0.447,0.324,0.546,0.95,0.222,1.396
					C-713.751,543.16-714.057,543.304-714.366,543.304z M-724.079,536.257c-0.204,0-0.409-0.062-0.586-0.19l-4.856-3.523
					c-0.447-0.324-0.546-0.95-0.222-1.396c0.325-0.446,0.949-0.547,1.397-0.223l4.856,3.523c0.447,0.324,0.546,0.95,0.222,1.396
					C-723.464,536.113-723.77,536.257-724.079,536.257z M-733.792,529.21c-0.204,0-0.409-0.062-0.586-0.19l-4.857-3.523
					c-0.447-0.324-0.546-0.95-0.222-1.396c0.325-0.447,0.95-0.547,1.397-0.223l4.857,3.523c0.447,0.324,0.546,0.95,0.222,1.396
					C-733.177,529.066-733.482,529.21-733.792,529.21z M-743.505,522.163c-0.204,0-0.409-0.062-0.586-0.19l-4.856-3.522
					c-0.447-0.324-0.547-0.949-0.223-1.396c0.325-0.446,0.951-0.547,1.396-0.223l4.856,3.522c0.447,0.324,0.547,0.949,0.223,1.396
					C-742.891,522.02-743.196,522.163-743.505,522.163z M-753.218,515.117c-0.204,0-0.409-0.062-0.586-0.19l-4.856-3.523
					c-0.447-0.324-0.546-0.95-0.222-1.396c0.325-0.446,0.95-0.547,1.397-0.223l4.856,3.523c0.447,0.324,0.546,0.95,0.222,1.396
					C-752.604,514.974-752.909,515.117-753.218,515.117z M-762.931,508.07c-0.204,0-0.409-0.062-0.586-0.19l-4.857-3.523
					c-0.447-0.324-0.546-0.95-0.222-1.396c0.325-0.446,0.95-0.546,1.397-0.223l4.857,3.523c0.447,0.324,0.546,0.95,0.222,1.396
					C-762.316,507.927-762.622,508.07-762.931,508.07z M-772.645,501.023c-0.204,0-0.409-0.062-0.586-0.19l-4.856-3.523
					c-0.447-0.324-0.546-0.95-0.222-1.396c0.325-0.446,0.949-0.548,1.397-0.223l4.856,3.523c0.447,0.324,0.546,0.95,0.222,1.396
					C-772.03,500.88-772.335,501.023-772.645,501.023z"/>
			</g>
			<g>
				<path style="fill:#E1E1E1;" d="M-817.5,571.5c-0.395,0-0.769-0.235-0.927-0.623c-0.208-0.512,0.038-1.095,0.549-1.304
					l4.14-1.684c0.512-0.207,1.095,0.038,1.303,0.55c0.208,0.512-0.038,1.096-0.549,1.304l-4.14,1.684
					C-817.247,571.477-817.374,571.5-817.5,571.5z M-807.802,567.557c-0.395,0-0.769-0.235-0.927-0.623
					c-0.208-0.512,0.038-1.096,0.55-1.304l5.558-2.26c0.509-0.208,1.095,0.039,1.303,0.55c0.208,0.512-0.038,1.096-0.55,1.304
					l-5.558,2.26C-807.549,567.533-807.676,567.557-807.802,567.557z M-796.686,563.037c-0.395,0-0.769-0.235-0.927-0.623
					c-0.208-0.512,0.038-1.096,0.55-1.304l5.558-2.26c0.509-0.207,1.094,0.038,1.303,0.55c0.208,0.512-0.038,1.096-0.55,1.304
					l-5.558,2.26C-796.433,563.014-796.56,563.037-796.686,563.037z M-785.569,558.518c-0.395,0-0.769-0.235-0.927-0.623
					c-0.208-0.512,0.038-1.096,0.55-1.304l5.558-2.26c0.51-0.208,1.095,0.038,1.303,0.55s-0.038,1.096-0.55,1.304l-5.558,2.26
					C-785.316,558.494-785.444,558.518-785.569,558.518z M-774.453,553.997c-0.395,0-0.769-0.235-0.927-0.623
					c-0.208-0.512,0.038-1.096,0.55-1.304l5.558-2.26c0.508-0.208,1.095,0.038,1.303,0.55s-0.038,1.096-0.55,1.304l-5.558,2.26
					C-774.2,553.974-774.327,553.997-774.453,553.997z M-763.336,549.478c-0.395,0-0.769-0.235-0.927-0.623
					c-0.208-0.512,0.038-1.096,0.55-1.304l5.558-2.26c0.509-0.207,1.095,0.038,1.303,0.55s-0.038,1.096-0.55,1.304l-5.558,2.26
					C-763.083,549.454-763.211,549.478-763.336,549.478z M-752.22,544.958c-0.395,0-0.769-0.235-0.927-0.623
					c-0.208-0.512,0.038-1.096,0.55-1.304l5.558-2.26c0.51-0.208,1.095,0.039,1.303,0.55c0.208,0.512-0.038,1.096-0.55,1.304
					l-5.558,2.26C-751.967,544.935-752.095,544.958-752.22,544.958z M-741.104,540.438c-0.395,0-0.769-0.235-0.927-0.623
					c-0.208-0.512,0.038-1.095,0.549-1.304l5.558-2.261c0.511-0.208,1.095,0.039,1.303,0.55c0.208,0.512-0.038,1.095-0.549,1.304
					l-5.558,2.261C-740.851,540.415-740.979,540.438-741.104,540.438z M-729.988,535.918c-0.395,0-0.769-0.235-0.927-0.623
					c-0.208-0.512,0.038-1.096,0.55-1.304l5.558-2.26c0.51-0.207,1.094,0.038,1.303,0.55c0.208,0.512-0.038,1.096-0.55,1.304
					l-5.558,2.26C-729.735,535.895-729.862,535.918-729.988,535.918z M-718.872,531.398c-0.395,0-0.769-0.235-0.927-0.623
					c-0.208-0.512,0.038-1.096,0.55-1.304l5.558-2.26c0.51-0.208,1.095,0.038,1.303,0.55s-0.038,1.096-0.55,1.304l-5.558,2.26
					C-718.619,531.375-718.746,531.398-718.872,531.398z M-707.755,526.879c-0.395,0-0.769-0.235-0.927-0.623
					c-0.208-0.512,0.038-1.096,0.55-1.304l5.558-2.26c0.509-0.207,1.095,0.038,1.303,0.55s-0.038,1.096-0.55,1.304l-5.558,2.26
					C-707.502,526.855-707.63,526.879-707.755,526.879z M-696.639,522.359c-0.395,0-0.769-0.235-0.927-0.623
					c-0.208-0.512,0.038-1.095,0.549-1.304l5.558-2.261c0.512-0.207,1.095,0.038,1.303,0.55c0.208,0.512-0.038,1.095-0.549,1.304
					l-5.558,2.261C-696.386,522.336-696.514,522.359-696.639,522.359z M-685.523,517.839c-0.395,0-0.769-0.235-0.927-0.623
					c-0.208-0.512,0.038-1.096,0.55-1.304l5.559-2.26c0.51-0.208,1.095,0.039,1.303,0.55c0.208,0.512-0.038,1.096-0.55,1.304
					l-5.559,2.26C-685.27,517.815-685.397,517.839-685.523,517.839z M-674.406,513.319c-0.395,0-0.769-0.235-0.927-0.623
					c-0.208-0.512,0.038-1.096,0.55-1.304l5.558-2.26c0.509-0.207,1.095,0.039,1.303,0.55c0.208,0.512-0.038,1.096-0.55,1.304
					l-5.558,2.26C-674.153,513.296-674.281,513.319-674.406,513.319z M-663.29,508.8c-0.395,0-0.769-0.235-0.927-0.623
					c-0.208-0.512,0.038-1.096,0.55-1.304l5.558-2.26c0.51-0.208,1.095,0.039,1.303,0.55c0.208,0.512-0.038,1.096-0.55,1.304
					l-5.558,2.26C-663.037,508.776-663.165,508.8-663.29,508.8z M-652.174,504.279c-0.395,0-0.769-0.235-0.927-0.623
					c-0.208-0.512,0.038-1.096,0.55-1.304l5.558-2.26c0.508-0.208,1.095,0.039,1.303,0.55c0.208,0.512-0.038,1.096-0.55,1.304
					l-5.558,2.26C-651.921,504.256-652.048,504.279-652.174,504.279z M-641.058,499.76c-0.395,0-0.769-0.235-0.927-0.623
					c-0.208-0.512,0.038-1.096,0.55-1.304l5.558-2.26c0.509-0.207,1.094,0.038,1.303,0.55c0.208,0.512-0.038,1.096-0.55,1.304
					l-5.558,2.26C-640.805,499.736-640.932,499.76-641.058,499.76z"/>
			</g>
			<g>
				<g>
					<g>
						<g>
							<g>
								<g>
									<g>
										<g id="Layer_1_85_">
											<g>
												<g>
													<g>
														<g>
															<g>
																<g>
																	<g>
																		<g>
																			<g style="opacity:0;">
																				<rect x="-866.5" y="458.5" style="fill:#FFFFFF;" width="280" height="150"/>
																			</g>
																		</g>
																	</g>
																</g>
															</g>
														</g>
													</g>
												</g>
											</g>
										</g>
									</g>
								</g>
							</g>
						</g>
					</g>
				</g>
				<g>
					<g>
						<path style="fill:#00D2FF;" d="M-675.5,571.5h-142c-0.352,0-0.679-0.186-0.859-0.488c-0.181-0.302-0.188-0.678-0.021-0.987
							l40-74c0.175-0.323,0.513-0.524,0.88-0.524h142c0.352,0,0.679,0.186,0.859,0.488c0.181,0.302,0.188,0.678,0.021,0.987l-40,74
							C-674.795,571.299-675.133,571.5-675.5,571.5z M-815.823,569.5h139.727l38.919-72h-139.727L-815.823,569.5z"/>
					</g>
				</g>
			</g>
			<g>
				<path style="fill:#FFFFFF;" d="M-726.5,536.5c-1.654,0-3-1.346-3-2.999c0-1.654,1.346-3.001,3-3.001s3,1.347,3,3.001
					C-723.5,535.154-724.846,536.5-726.5,536.5z"/>
				<path style="fill:#00D2FF;" d="M-726.5,531.5c1.104,0,2,0.896,2,2.001c0,1.104-0.896,1.999-2,1.999c-1.105,0-2-0.896-2-1.999
					C-728.5,532.396-727.605,531.5-726.5,531.5 M-726.5,529.5c-2.206,0-4,1.795-4,4.001c0,2.205,1.794,3.999,4,3.999
					s4-1.794,4-3.999C-722.5,531.295-724.294,529.5-726.5,529.5L-726.5,529.5z"/>
			</g>
		</g>
	</g>
</g>
<g id="Isolation_Mode">
</g>
<g id="nyt_x5F_exporter_x5F_info" style="display:none;">
</g>
</svg>
