<?xml version="1.0" encoding="iso-8859-1"?>
<!-- Generator: Adobe Illustrator 16.0.3, SVG Export Plug-In . SVG Version: 6.00 Build 0)  -->
<!DOCTYPE svg PUBLIC "-//W3C//DTD SVG 1.1//EN" "http://www.w3.org/Graphics/SVG/1.1/DTD/svg11.dtd">
<svg version="1.1" xmlns="http://www.w3.org/2000/svg" xmlns:xlink="http://www.w3.org/1999/xlink" x="0px" y="0px" width="280px"
	 height="150px" viewBox="333.5 -1071.5 280 150" style="enable-background:new 333.5 -1071.5 280 150;" xml:space="preserve">
<g id="Layer_1">
	<g id="New_Symbol_2">
	</g>
	<g id="New_Symbol_3_">
	</g>
	<g id="New_Symbol_2_">
	</g>
	<g id="New_Symbol_1_">
	</g>
	<g id="New_Symbol">
	</g>
	<g>
		<g>
			<g>
				<g>
					<g>
						<g>
							<g>
								<g>
									<g style="opacity:0;">
										<rect x="333.5" y="-1071.5" style="fill:#FFFFFF;" width="280" height="150"/>
									</g>
								</g>
							</g>
						</g>
					</g>
					<g>
						<path style="fill:#C8C8C8;" d="M473.5-945.5c-28.121,0-51-22.878-51-51s22.879-51,51-51s51,22.878,51,51
							S501.621-945.5,473.5-945.5z M473.5-1045.5c-27.019,0-49,21.981-49,49s21.981,49,49,49s49-21.981,49-49
							S500.519-1045.5,473.5-1045.5z"/>
					</g>
					<g>
						<path style="fill:#00D2FF;" d="M425.501-1009.5c-0.365,0-0.717-0.2-0.893-0.548c-0.25-0.493-0.053-1.094,0.439-1.344l65.1-33
							c0.49-0.25,1.094-0.053,1.344,0.44s0.053,1.094-0.439,1.344l-65.1,33C425.808-1009.535,425.653-1009.5,425.501-1009.5z"/>
					</g>
				</g>
			</g>
			<g>
				<g>
					<g>
						<circle style="fill:#FFFFFF;" cx="425.5" cy="-1010.5" r="3"/>
						<path style="fill:#00D2FF;" d="M425.5-1012.5c1.104,0,2,0.896,2,2s-0.896,2-2,2s-2-0.896-2-2S424.396-1012.5,425.5-1012.5
							 M425.5-1014.5c-2.206,0-4,1.794-4,4s1.794,4,4,4s4-1.794,4-4S427.706-1014.5,425.5-1014.5L425.5-1014.5z"/>
					</g>
				</g>
			</g>
			<g>
				<g>
					<g>
						<circle style="fill:#FFFFFF;" cx="490.5" cy="-1043.5" r="3"/>
						<path style="fill:#00D2FF;" d="M490.5-1045.5c1.104,0,2,0.896,2,2s-0.896,2-2,2s-2-0.896-2-2S489.396-1045.5,490.5-1045.5
							 M490.5-1047.5c-2.206,0-4,1.794-4,4s1.794,4,4,4s4-1.794,4-4S492.706-1047.5,490.5-1047.5L490.5-1047.5z"/>
					</g>
				</g>
			</g>
		</g>
	</g>
</g>
<g id="Isolation_Mode">
</g>
<g id="nyt_x5F_exporter_x5F_info" style="display:none;">
</g>
</svg>
