<?xml version="1.0" encoding="iso-8859-1"?>
<!-- Generator: Adobe Illustrator 16.0.3, SVG Export Plug-In . SVG Version: 6.00 Build 0)  -->
<!DOCTYPE svg PUBLIC "-//W3C//DTD SVG 1.1//EN" "http://www.w3.org/Graphics/SVG/1.1/DTD/svg11.dtd">
<svg version="1.1" xmlns="http://www.w3.org/2000/svg" xmlns:xlink="http://www.w3.org/1999/xlink" x="0px" y="0px" width="280px"
	 height="150px" viewBox="-1166.5 -901.5 280 150" style="enable-background:new -1166.5 -901.5 280 150;" xml:space="preserve">
<g id="Layer_1">
	<g id="New_Symbol_2">
	</g>
	<g id="New_Symbol_3_">
	</g>
	<g id="New_Symbol_2_">
	</g>
	<g id="New_Symbol_1_">
	</g>
	<g id="New_Symbol">
	</g>
	<g>
		<g>
			<g>
				<g>
					
						<rect x="-1017.415" y="-812.665" transform="matrix(0.4156 0.9095 -0.9095 0.4156 -1326.2483 448.8442)" style="opacity:0.5;fill:#FABE00;" width="10" height="10"/>
					<path style="fill:#FABE00;" d="M-1014.885-800.039c-0.118,0-0.236-0.021-0.349-0.063c-0.249-0.093-0.45-0.28-0.561-0.521
						l-4.156-9.096c-0.229-0.502-0.008-1.096,0.494-1.325l9.096-4.156c0.241-0.11,0.516-0.121,0.765-0.027
						c0.249,0.093,0.45,0.28,0.561,0.521l4.155,9.096c0.229,0.502,0.008,1.096-0.494,1.325l-9.095,4.156
						C-1014.601-800.069-1014.743-800.039-1014.885-800.039z M-1017.716-809.641l3.325,7.276l7.275-3.325l-3.324-7.276
						L-1017.716-809.641z"/>
				</g>
				<g>
					
						<rect x="-1052.078" y="-831.152" transform="matrix(0.9741 0.226 -0.226 0.9741 -213.8021 215.2654)" style="opacity:0.5;fill:#FABE00;" width="9.999" height="9.998"/>
					<path style="fill:#FABE00;" d="M-1043.338-819.154c-0.076,0-0.151-0.008-0.226-0.026l-9.74-2.26
						c-0.258-0.06-0.482-0.22-0.623-0.445s-0.186-0.497-0.125-0.755l2.26-9.739c0.125-0.538,0.661-0.873,1.2-0.748l9.739,2.26
						c0.538,0.125,0.873,0.662,0.748,1.2l-2.259,9.739c-0.06,0.258-0.22,0.482-0.445,0.623
						C-1042.969-819.206-1043.152-819.154-1043.338-819.154z M-1051.878-823.162l7.792,1.808l1.807-7.791l-7.791-1.808
						L-1051.878-823.162z"/>
				</g>
				<g>
					
						<rect x="-1007.054" y="-852.142" transform="matrix(0.7565 0.654 -0.654 0.7565 -798.0471 449.061)" style="opacity:0.5;fill:#FABE00;" width="10.001" height="10"/>
					<path style="fill:#FABE00;" d="M-1001.541-839.089c-0.239,0-0.472-0.086-0.654-0.244l-7.565-6.541
						c-0.418-0.361-0.464-0.993-0.103-1.41l6.54-7.565c0.173-0.201,0.419-0.324,0.684-0.344c0.264-0.02,0.525,0.067,0.726,0.241
						l7.565,6.541c0.418,0.361,0.464,0.993,0.103,1.41l-6.54,7.565c-0.173,0.201-0.419,0.324-0.684,0.344
						C-1001.493-839.09-1001.517-839.089-1001.541-839.089z M-1007.696-846.732l6.052,5.232l5.232-6.052l-6.052-5.232
						L-1007.696-846.732z"/>
				</g>
				<g>
					<g>
						<g>
							<g>
								<path style="fill:#00D2FF;" d="M-1026.5-765.5c-33.636,0-61-27.364-61-61s27.364-61,61-61s61,27.364,61,61
									S-992.864-765.5-1026.5-765.5z M-1026.5-885.5c-32.533,0-59,26.467-59,59s26.467,59,59,59s59-26.467,59-59
									S-993.967-885.5-1026.5-885.5z"/>
							</g>
							<g>
								<line style="fill:#FABE00;" x1="-997.138" y1="-860.479" x2="-1026.5" y2="-826.5"/>
								<path style="fill:#FABE00;" d="M-1026.5-825.5c-0.231,0-0.464-0.08-0.653-0.243c-0.418-0.361-0.464-0.993-0.103-1.411
									l29.362-33.979c0.361-0.418,0.993-0.464,1.411-0.103s0.464,0.993,0.103,1.411l-29.362,33.979
									C-1025.941-825.617-1026.22-825.5-1026.5-825.5z"/>
							</g>
							<g>
								<line style="fill:#FABE00;" x1="-1061.522" y1="-834.635" x2="-1026.5" y2="-826.5"/>
								<path style="fill:#FABE00;" d="M-1026.499-825.5c-0.075,0-0.151-0.008-0.227-0.026l-35.022-8.135
									c-0.538-0.125-0.873-0.663-0.748-1.2c0.125-0.539,0.665-0.873,1.2-0.748l35.022,8.135c0.538,0.125,0.873,0.663,0.748,1.2
									C-1025.633-825.812-1026.044-825.5-1026.499-825.5z"/>
							</g>
							<g>
								<path style="fill:#C8C8C8;" d="M-1063.169-778.006c-0.227,0-0.451-0.077-0.633-0.226c-0.295-0.241-0.427-0.629-0.341-1
									l24.669-106.294c0.079-0.341,0.331-0.616,0.665-0.725c0.331-0.108,0.699-0.036,0.963,0.194l71.908,62.157
									c0.258,0.223,0.384,0.561,0.336,0.898c-0.048,0.337-0.265,0.626-0.574,0.768l-96.577,44.137
									C-1062.886-778.036-1063.028-778.006-1063.169-778.006z M-1037.9-883.46l-23.835,102.699l93.311-42.644L-1037.9-883.46z"/>
							</g>
							<g>
								<line style="fill:#FABE00;" x1="-1010.674" y1="-791.867" x2="-1026.5" y2="-826.5"/>
								<path style="fill:#FABE00;" d="M-1010.673-790.867c-0.379,0-0.742-0.217-0.91-0.585l-15.826-34.633
									c-0.229-0.502-0.008-1.096,0.494-1.325c0.501-0.229,1.095-0.008,1.325,0.494l15.826,34.633
									c0.229,0.502,0.008,1.096-0.494,1.325C-1010.393-790.896-1010.534-790.867-1010.673-790.867z"/>
							</g>
							<g>
								<g>
									<g>
										<g>
											<g style="opacity:0;">
												<rect x="-1166.5" y="-901.5" style="fill:#FFFFFF;" width="280" height="150"/>
											</g>
										</g>
									</g>
								</g>
							</g>
						</g>
					</g>
				</g>
				<g>
					<path style="fill:#B4B4B4;" d="M-989.111-836.473c-0.231,0-0.462-0.08-0.651-0.242c-0.419-0.36-0.466-0.991-0.106-1.41
						l5.321-6.192c0.36-0.419,0.991-0.466,1.41-0.106c0.419,0.36,0.466,0.991,0.106,1.41l-5.321,6.192
						C-988.55-836.591-988.83-836.473-989.111-836.473z"/>
				</g>
				<g>
					<path style="fill:#B4B4B4;" d="M-986.079-833.866c-0.23,0-0.462-0.08-0.651-0.242c-0.419-0.36-0.466-0.991-0.106-1.41
						l5.322-6.194c0.36-0.418,0.991-0.466,1.41-0.106c0.419,0.36,0.466,0.991,0.106,1.41l-5.322,6.194
						C-985.518-833.984-985.797-833.866-986.079-833.866z"/>
				</g>
				<g>
					<path style="fill:#B4B4B4;" d="M-983.043-831.259c-0.23,0-0.462-0.08-0.651-0.242c-0.419-0.36-0.466-0.991-0.106-1.41
						l5.32-6.191c0.36-0.418,0.991-0.466,1.41-0.106c0.419,0.36,0.466,0.991,0.106,1.41l-5.32,6.191
						C-982.482-831.377-982.762-831.259-983.043-831.259z"/>
				</g>
				<g>
					<path style="fill:#B4B4B4;" d="M-1020.823-863.913c-0.23,0-0.462-0.079-0.651-0.242c-0.419-0.36-0.467-0.991-0.106-1.41
						l5.32-6.193c0.36-0.418,0.991-0.466,1.41-0.106c0.419,0.36,0.467,0.991,0.106,1.41l-5.32,6.193
						C-1020.262-864.031-1020.542-863.913-1020.823-863.913z"/>
				</g>
				<g>
					<path style="fill:#B4B4B4;" d="M-1023.857-866.521c-0.231,0-0.462-0.08-0.651-0.242c-0.419-0.36-0.466-0.991-0.106-1.41
						l5.322-6.193c0.36-0.418,0.991-0.466,1.41-0.106c0.419,0.36,0.466,0.991,0.106,1.41l-5.322,6.193
						C-1023.296-866.639-1023.576-866.521-1023.857-866.521z"/>
				</g>
				<g>
					<path style="fill:#B4B4B4;" d="M-1026.891-869.126c-0.23,0-0.462-0.079-0.651-0.241c-0.419-0.36-0.467-0.991-0.107-1.41
						l5.321-6.195c0.36-0.419,0.992-0.467,1.41-0.107c0.419,0.36,0.467,0.991,0.107,1.41l-5.321,6.195
						C-1026.33-869.244-1026.61-869.126-1026.891-869.126z"/>
				</g>
				<g>
					<path style="fill:#B4B4B4;" d="M-1053.11-803.135c-0.078,0-0.156-0.009-0.235-0.028l-7.938-1.909
						c-0.537-0.129-0.868-0.669-0.738-1.206s0.671-0.869,1.206-0.738l7.938,1.909c0.537,0.129,0.868,0.669,0.738,1.206
						C-1052.25-803.442-1052.659-803.135-1053.11-803.135z"/>
				</g>
				<g>
					<path style="fill:#B4B4B4;" d="M-1052.176-807.023c-0.078,0-0.156-0.009-0.235-0.028l-7.938-1.908
						c-0.537-0.129-0.868-0.669-0.738-1.206c0.129-0.537,0.67-0.866,1.206-0.738l7.938,1.908c0.537,0.129,0.868,0.669,0.738,1.206
						C-1051.314-807.331-1051.724-807.023-1052.176-807.023z"/>
				</g>
				<g>
					<path style="fill:#B4B4B4;" d="M-1040.708-856.785c-0.078,0-0.156-0.009-0.235-0.028l-7.937-1.908
						c-0.537-0.129-0.868-0.669-0.738-1.206c0.129-0.537,0.672-0.866,1.206-0.738l7.937,1.908c0.537,0.129,0.868,0.669,0.738,1.206
						C-1039.847-857.093-1040.256-856.785-1040.708-856.785z"/>
				</g>
				<g>
					<path style="fill:#B4B4B4;" d="M-1041.645-852.895c-0.078,0-0.156-0.009-0.235-0.028l-7.935-1.908
						c-0.537-0.129-0.868-0.669-0.738-1.206c0.129-0.538,0.669-0.867,1.206-0.738l7.935,1.908c0.537,0.129,0.868,0.669,0.738,1.206
						C-1040.784-853.203-1041.193-852.895-1041.645-852.895z"/>
				</g>
				<g>
					<path style="fill:#B4B4B4;" d="M-1033.975-786.877c-0.382,0-0.747-0.22-0.913-0.592l-3.339-7.451
						c-0.226-0.504,0-1.095,0.504-1.321c0.502-0.228,1.095-0.001,1.321,0.504l3.339,7.451c0.226,0.504,0,1.095-0.504,1.321
						C-1033.699-786.906-1033.838-786.877-1033.975-786.877z"/>
				</g>
				<g>
					<path style="fill:#B4B4B4;" d="M-990.326-807.046c-0.382,0-0.747-0.22-0.913-0.592l-3.338-7.452
						c-0.226-0.504,0-1.096,0.504-1.321c0.502-0.228,1.095-0.001,1.321,0.504l3.338,7.452c0.226,0.504,0,1.096-0.504,1.321
						C-990.05-807.075-990.189-807.046-990.326-807.046z"/>
				</g>
			</g>
			<g>
				<g>
					<g>
						<circle style="fill:#FFFFFF;" cx="-1026.5" cy="-826.5" r="3"/>
						<path style="fill:#00D2FF;" d="M-1026.5-828.5c1.104,0,2,0.896,2,2s-0.896,2-2,2s-2-0.896-2-2S-1027.604-828.5-1026.5-828.5
							 M-1026.5-830.5c-2.206,0-4,1.794-4,4s1.794,4,4,4s4-1.794,4-4S-1024.294-830.5-1026.5-830.5L-1026.5-830.5z"/>
					</g>
				</g>
			</g>
		</g>
	</g>
</g>
<g id="Isolation_Mode">
</g>
<g id="nyt_x5F_exporter_x5F_info" style="display:none;">
</g>
</svg>
