<?xml version="1.0" encoding="iso-8859-1"?>
<!-- Generator: Adobe Illustrator 16.0.3, SVG Export Plug-In . SVG Version: 6.00 Build 0)  -->
<!DOCTYPE svg PUBLIC "-//W3C//DTD SVG 1.1//EN" "http://www.w3.org/Graphics/SVG/1.1/DTD/svg11.dtd">
<svg version="1.1" xmlns="http://www.w3.org/2000/svg" xmlns:xlink="http://www.w3.org/1999/xlink" x="0px" y="0px" width="280px"
	 height="150px" viewBox="933.5 -1071.5 280 150" style="enable-background:new 933.5 -1071.5 280 150;" xml:space="preserve">
<g id="Layer_1">
	<g id="New_Symbol_2">
	</g>
	<g id="New_Symbol_3_">
	</g>
	<g id="New_Symbol_2_">
	</g>
	<g id="New_Symbol_1_">
	</g>
	<g id="New_Symbol">
	</g>
	<g>
		<g>
			<g>
				<g>
					<g>
						<g>
							<path style="fill:#00D2FF;" d="M1073.5-935.5c-33.636,0-61-27.364-61-61s27.364-61,61-61s61,27.364,61,61
								S1107.136-935.5,1073.5-935.5z M1073.5-1055.5c-32.532,0-59,26.467-59,59s26.468,59,59,59s59-26.467,59-59
								S1106.032-1055.5,1073.5-1055.5z"/>
						</g>
						<g>
							<g>
								<g>
									<g>
										<g style="opacity:0;">
											<rect x="933.5" y="-1071.5" style="fill:#FFFFFF;" width="280" height="150"/>
										</g>
									</g>
								</g>
							</g>
						</g>
					</g>
				</g>
			</g>
			<g>
				<path style="fill:#C8C8C8;" d="M1069.901-935.5c-0.301,0-0.599-0.135-0.795-0.392l-55.2-72
					c-0.192-0.251-0.254-0.578-0.168-0.882c0.086-0.304,0.312-0.549,0.606-0.662l94.8-36c0.255-0.097,0.537-0.086,0.784,0.032
					c0.246,0.117,0.434,0.329,0.52,0.587l21.6,64.8c0.14,0.418-0.011,0.879-0.371,1.133l-61.199,43.2
					C1070.302-935.56,1070.101-935.5,1069.901-935.5z M1016.312-1008.042l53.798,70.17l59.807-42.217l-21.035-63.106
					L1016.312-1008.042z"/>
			</g>
		</g>
	</g>
</g>
<g id="Isolation_Mode">
</g>
<g id="nyt_x5F_exporter_x5F_info" style="display:none;">
</g>
</svg>
