<?xml version="1.0" encoding="iso-8859-1"?>
<!-- Generator: Adobe Illustrator 16.0.3, SVG Export Plug-In . SVG Version: 6.00 Build 0)  -->
<!DOCTYPE svg PUBLIC "-//W3C//DTD SVG 1.1//EN" "http://www.w3.org/Graphics/SVG/1.1/DTD/svg11.dtd">
<svg version="1.1" xmlns="http://www.w3.org/2000/svg" xmlns:xlink="http://www.w3.org/1999/xlink" x="0px" y="0px" width="280px"
	 height="150px" viewBox="633.5 -1071.5 280 150" style="enable-background:new 633.5 -1071.5 280 150;" xml:space="preserve">
<g id="Layer_1">
	<g id="New_Symbol_2">
	</g>
	<g id="New_Symbol_3_">
	</g>
	<g id="New_Symbol_2_">
	</g>
	<g id="New_Symbol_1_">
	</g>
	<g id="New_Symbol">
	</g>
	<g>
		<g>
			<g>
				<g>
					<g>
						<g>
							<g>
								<path style="fill:#00D2FF;" d="M773.5-945.5c-28.121,0-51-22.878-51-51s22.879-51,51-51s51,22.878,51,51
									S801.621-945.5,773.5-945.5z M773.5-1045.5c-27.019,0-49,21.981-49,49s21.981,49,49,49s49-21.981,49-49
									S800.519-1045.5,773.5-1045.5z"/>
							</g>
							<g>
								<path style="fill:#C8C8C8;" d="M773.501-995.5c-0.305,0-0.604-0.138-0.801-0.4c-0.332-0.442-0.242-1.069,0.2-1.4l40-30
									c0.44-0.333,1.068-0.242,1.399,0.2c0.332,0.442,0.242,1.069-0.2,1.4l-40,30C773.92-995.565,773.71-995.5,773.501-995.5z"/>
							</g>
							<g>
								<path style="fill:#C8C8C8;" d="M773.501-995.5c-0.014,0-0.027,0-0.041-0.001c-0.552-0.022-0.981-0.487-0.959-1.039l2-50
									c0.022-0.552,0.5-0.979,1.039-0.959c0.552,0.022,0.981,0.487,0.959,1.039l-2,50
									C774.478-995.922,774.034-995.5,773.501-995.5z"/>
							</g>
							<g>
								<path style="fill:#C8C8C8;" d="M727.501-975.5c-0.387,0-0.754-0.225-0.918-0.602c-0.221-0.507,0.012-1.096,0.519-1.316
									l46-20c0.507-0.221,1.095,0.012,1.315,0.518c0.221,0.507-0.012,1.096-0.519,1.316l-46,20
									C727.769-975.526,727.634-975.5,727.501-975.5z"/>
							</g>
							<g>
								<path style="fill:#C8C8C8;" d="M817.499-971.5c-0.162,0-0.326-0.039-0.478-0.122l-44-24
									c-0.485-0.265-0.664-0.872-0.399-1.357c0.265-0.484,0.874-0.664,1.356-0.399l44,24c0.485,0.265,0.664,0.872,0.399,1.357
									C818.196-971.688,817.854-971.5,817.499-971.5z"/>
							</g>
							<g>
								<g>
									<g>
										<g>
											<g style="opacity:0;">
												<rect x="633.5" y="-1071.5" style="fill:#FFFFFF;" width="280" height="150"/>
											</g>
										</g>
									</g>
								</g>
							</g>
							<g>
								<path style="fill:#B4B4B4;" d="M795.747-1007.925c-0.258,0-0.513-0.117-0.679-0.339l-4.217-5.637
									c-0.28-0.374-0.203-0.904,0.171-1.185c0.376-0.28,0.905-0.203,1.185,0.171l4.217,5.637c0.28,0.374,0.203,0.904-0.171,1.185
									C796.101-1007.979,795.923-1007.925,795.747-1007.925z"/>
							</g>
							<g>
								<path style="fill:#B4B4B4;" d="M778.658-1020.5c-0.014,0-0.027,0-0.041-0.001l-8.315-0.332
									c-0.552-0.022-0.981-0.487-0.959-1.039s0.502-0.979,1.039-0.959l8.315,0.332c0.552,0.022,0.981,0.487,0.959,1.039
									C779.635-1020.922,779.191-1020.5,778.658-1020.5z"/>
							</g>
							<g>
								<path style="fill:#B4B4B4;" d="M752.442-981.863c-0.387,0-0.754-0.225-0.918-0.601l-3.325-7.631
									c-0.221-0.506,0.011-1.096,0.518-1.316c0.509-0.224,1.096,0.011,1.316,0.517l3.325,7.631
									c0.221,0.506-0.011,1.096-0.518,1.316C752.711-981.89,752.575-981.863,752.442-981.863z"/>
							</g>
							<g>
								<path style="fill:#B4B4B4;" d="M793.53-979.784c-0.162,0-0.326-0.039-0.479-0.123c-0.484-0.265-0.663-0.872-0.398-1.357
									l3.99-7.303c0.265-0.485,0.873-0.663,1.357-0.398c0.484,0.265,0.663,0.872,0.398,1.357l-3.99,7.303
									C794.228-979.972,793.884-979.784,793.53-979.784z"/>
							</g>
						</g>
					</g>
				</g>
				<g>
					<circle style="fill:#C8C8C8;" cx="775.5" cy="-1046.5" r="3"/>
				</g>
				<g>
					<circle style="fill:#C8C8C8;" cx="727.5" cy="-976.5" r="3"/>
				</g>
				<g>
					<circle style="fill:#C8C8C8;" cx="813.5" cy="-1026.5" r="3"/>
				</g>
				<g>
					<circle style="fill:#C8C8C8;" cx="817.5" cy="-972.5" r="3"/>
				</g>
			</g>
			<g>
				<g>
					<g>
						<circle style="fill:#FFFFFF;" cx="773.5" cy="-996.5" r="3"/>
						<path style="fill:#00D2FF;" d="M773.5-998.5c1.104,0,2,0.896,2,2s-0.896,2-2,2s-2-0.896-2-2S772.396-998.5,773.5-998.5
							 M773.5-1000.5c-2.205,0-4,1.794-4,4s1.795,4,4,4s4-1.794,4-4S775.705-1000.5,773.5-1000.5L773.5-1000.5z"/>
					</g>
				</g>
			</g>
		</g>
	</g>
</g>
<g id="Isolation_Mode">
</g>
<g id="nyt_x5F_exporter_x5F_info" style="display:none;">
</g>
</svg>
