<?xml version="1.0" encoding="iso-8859-1"?>
<!-- Generator: Adobe Illustrator 16.0.3, SVG Export Plug-In . SVG Version: 6.00 Build 0)  -->
<!DOCTYPE svg PUBLIC "-//W3C//DTD SVG 1.1//EN" "http://www.w3.org/Graphics/SVG/1.1/DTD/svg11.dtd">
<svg version="1.1" xmlns="http://www.w3.org/2000/svg" xmlns:xlink="http://www.w3.org/1999/xlink" x="0px" y="0px" width="280px"
	 height="150px" viewBox="-265.5 301.5 280 150" style="enable-background:new -265.5 301.5 280 150;" xml:space="preserve">
<g id="Layer_1">
	<g id="New_Symbol_2">
	</g>
	<g id="New_Symbol_3_">
	</g>
	<g id="New_Symbol_2_">
	</g>
	<g id="New_Symbol_1_">
	</g>
	<g id="New_Symbol">
	</g>
	<g>
		<g>
		</g>
	</g>
	<g>
		<g>
			<g>
				<g>
					<g>
						<g>
							<g>
								<path style="fill:#C8C8C8;" d="M-125.5,427.5c-28.122,0-51-22.879-51-51s22.878-51,51-51s51,22.879,51,51
									S-97.378,427.5-125.5,427.5z M-125.5,327.5c-27.019,0-49,21.981-49,49s21.981,49,49,49s49-21.981,49-49
									S-98.481,327.5-125.5,327.5z"/>
							</g>
							<g>
								<path style="fill:#00D2FF;" d="M-125.499,377.5c-0.304,0-0.604-0.138-0.801-0.4c-0.332-0.441-0.242-1.068,0.2-1.399l40-30
									c0.443-0.33,1.069-0.242,1.4,0.2c0.332,0.441,0.242,1.068-0.2,1.399l-40,30C-125.08,377.435-125.291,377.5-125.499,377.5z"
									/>
							</g>
							<g>
								<g>
									<g>
										<g>
											<g style="opacity:0;">
												<rect x="-265.5" y="301.5" style="fill:#FFFFFF;" width="280" height="150"/>
											</g>
										</g>
									</g>
								</g>
							</g>
						</g>
					</g>
				</g>
				<g>
					<circle style="fill:#00D2FF;" cx="-85.5" cy="346.5" r="3"/>
				</g>
			</g>
			<g>
				<g>
					<g>
						<circle style="fill:#FFFFFF;" cx="-125.5" cy="376.5" r="3"/>
						<path style="fill:#00D2FF;" d="M-125.5,374.5c1.104,0,2,0.896,2,2s-0.896,2-2,2s-2-0.896-2-2S-126.604,374.5-125.5,374.5
							 M-125.5,372.5c-2.206,0-4,1.794-4,4s1.794,4,4,4s4-1.794,4-4S-123.294,372.5-125.5,372.5L-125.5,372.5z"/>
					</g>
				</g>
			</g>
		</g>
	</g>
</g>
<g id="Isolation_Mode">
</g>
<g id="nyt_x5F_exporter_x5F_info" style="display:none;">
	<g style="display:inline;">
		<path d="M-266.359,341.896l1.271,3.43c0.132,0.384,0.276,0.84,0.372,1.188h0.024c0.108-0.348,0.228-0.791,0.372-1.211l1.151-3.406
			h1.115l-1.583,4.138c-0.756,1.991-1.271,3.01-1.991,3.634c-0.516,0.456-1.031,0.636-1.295,0.684l-0.264-0.888
			c0.264-0.084,0.612-0.252,0.924-0.516c0.288-0.228,0.647-0.636,0.887-1.175c0.048-0.108,0.084-0.192,0.084-0.252
			c0-0.061-0.024-0.145-0.072-0.276l-2.147-5.349H-266.359z"/>
		<path d="M-259.82,340.229v1.667h1.511v0.804h-1.511v3.13c0,0.72,0.204,1.128,0.792,1.128c0.276,0,0.479-0.036,0.611-0.072
			l0.048,0.791c-0.204,0.084-0.528,0.145-0.936,0.145c-0.492,0-0.888-0.156-1.14-0.444c-0.3-0.312-0.408-0.827-0.408-1.511v-3.166
			h-0.899v-0.804h0.899v-1.392L-259.82,340.229z"/>
		<path d="M-251.999,348.6v0.6h-5.997v-0.6H-251.999z"/>
		<path d="M-251.167,347.7c0.024-0.396,0.048-0.983,0.048-1.499v-7.017h1.043v3.646h0.024c0.372-0.647,1.043-1.067,1.979-1.067
			c1.439,0,2.458,1.199,2.447,2.962c0,2.075-1.308,3.106-2.603,3.106c-0.84,0-1.511-0.324-1.943-1.092h-0.036l-0.048,0.96H-251.167z
			 M-250.076,345.373c0,0.133,0.024,0.265,0.048,0.384c0.204,0.732,0.815,1.235,1.583,1.235c1.104,0,1.763-0.899,1.763-2.23
			c0-1.163-0.6-2.159-1.727-2.159c-0.72,0-1.391,0.492-1.607,1.296c-0.024,0.12-0.06,0.264-0.06,0.432V345.373z"/>
		<path d="M-241.077,347.7l-0.084-0.731h-0.036c-0.324,0.456-0.947,0.863-1.775,0.863c-1.175,0-1.775-0.827-1.775-1.667
			c0-1.403,1.247-2.171,3.49-2.159v-0.119c0-0.48-0.132-1.344-1.319-1.344c-0.54,0-1.104,0.168-1.511,0.432l-0.24-0.695
			c0.48-0.312,1.175-0.516,1.907-0.516c1.775,0,2.207,1.211,2.207,2.374v2.171c0,0.504,0.024,0.996,0.096,1.392H-241.077z
			 M-241.233,344.738c-1.151-0.024-2.458,0.18-2.458,1.307c0,0.684,0.456,1.008,0.996,1.008c0.755,0,1.235-0.479,1.403-0.972
			c0.036-0.108,0.06-0.228,0.06-0.336V344.738z"/>
		<path d="M-238.652,346.621c0.312,0.203,0.864,0.42,1.392,0.42c0.768,0,1.127-0.384,1.127-0.864c0-0.504-0.3-0.779-1.079-1.067
			c-1.043-0.371-1.535-0.947-1.535-1.643c0-0.936,0.755-1.703,2.003-1.703c0.587,0,1.103,0.168,1.427,0.359l-0.264,0.768
			c-0.228-0.144-0.647-0.336-1.187-0.336c-0.624,0-0.972,0.36-0.972,0.792c0,0.479,0.348,0.695,1.104,0.983
			c1.007,0.384,1.523,0.888,1.523,1.751c0,1.02-0.792,1.739-2.171,1.739c-0.635,0-1.223-0.156-1.631-0.396L-238.652,346.621z"/>
		<path d="M-233.168,344.989c0.024,1.428,0.936,2.016,1.991,2.016c0.755,0,1.211-0.132,1.607-0.3l0.18,0.755
			c-0.372,0.168-1.007,0.36-1.931,0.36c-1.787,0-2.854-1.176-2.854-2.927s1.032-3.13,2.723-3.13c1.895,0,2.399,1.667,2.399,2.734
			c0,0.216-0.024,0.384-0.036,0.491H-233.168z M-230.074,344.234c0.012-0.672-0.276-1.715-1.463-1.715
			c-1.067,0-1.535,0.983-1.619,1.715H-230.074z"/>
		<path d="M-222.623,348.6v0.6h-5.997v-0.6H-222.623z"/>
		<path d="M-221.744,343.79c0-0.743-0.024-1.343-0.048-1.895h0.947l0.048,0.995h0.024c0.432-0.707,1.115-1.127,2.063-1.127
			c1.403,0,2.459,1.188,2.459,2.95c0,2.087-1.271,3.118-2.639,3.118c-0.768,0-1.439-0.336-1.787-0.911h-0.024v3.154h-1.043V343.79z
			 M-220.7,345.338c0,0.155,0.024,0.3,0.048,0.432c0.192,0.731,0.828,1.235,1.583,1.235c1.116,0,1.763-0.912,1.763-2.243
			c0-1.163-0.612-2.159-1.727-2.159c-0.72,0-1.391,0.517-1.595,1.308c-0.036,0.132-0.072,0.288-0.072,0.432V345.338z"/>
		<path d="M-211.702,347.7l-0.084-0.731h-0.036c-0.324,0.456-0.947,0.863-1.775,0.863c-1.175,0-1.775-0.827-1.775-1.667
			c0-1.403,1.247-2.171,3.49-2.159v-0.119c0-0.48-0.132-1.344-1.319-1.344c-0.54,0-1.103,0.168-1.511,0.432l-0.24-0.695
			c0.48-0.312,1.176-0.516,1.907-0.516c1.775,0,2.207,1.211,2.207,2.374v2.171c0,0.504,0.024,0.996,0.096,1.392H-211.702z
			 M-211.857,344.738c-1.151-0.024-2.459,0.18-2.459,1.307c0,0.684,0.456,1.008,0.996,1.008c0.755,0,1.235-0.479,1.403-0.972
			c0.036-0.108,0.06-0.228,0.06-0.336V344.738z"/>
		<path d="M-207.909,340.229v1.667h1.511v0.804h-1.511v3.13c0,0.72,0.204,1.128,0.792,1.128c0.276,0,0.479-0.036,0.611-0.072
			l0.048,0.791c-0.204,0.084-0.528,0.145-0.936,0.145c-0.492,0-0.888-0.156-1.14-0.444c-0.3-0.312-0.408-0.827-0.408-1.511v-3.166
			h-0.899v-0.804h0.899v-1.392L-207.909,340.229z"/>
		<path d="M-205.208,339.185h1.056v3.622h0.024c0.168-0.3,0.432-0.563,0.755-0.743c0.312-0.18,0.684-0.3,1.08-0.3
			c0.779,0,2.027,0.479,2.027,2.482v3.454h-1.056v-3.334c0-0.936-0.348-1.728-1.343-1.728c-0.684,0-1.223,0.48-1.415,1.056
			c-0.06,0.144-0.072,0.3-0.072,0.504v3.502h-1.056V339.185z"/>
		<path d="M-193.067,344.846l-5.565,2.854v-0.827l4.726-2.352v-0.023l-4.726-2.351v-0.828l5.565,2.854V344.846z"/>
		<path d="M-268.794,372.59c0-0.743-0.024-1.343-0.048-1.895h0.947l0.048,0.995h0.024c0.432-0.707,1.115-1.127,2.063-1.127
			c1.403,0,2.459,1.188,2.459,2.95c0,2.087-1.271,3.118-2.639,3.118c-0.768,0-1.439-0.336-1.787-0.911h-0.024v3.154h-1.043V372.59z
			 M-267.751,374.138c0,0.155,0.024,0.3,0.048,0.432c0.192,0.731,0.828,1.235,1.583,1.235c1.116,0,1.763-0.912,1.763-2.243
			c0-1.163-0.612-2.159-1.727-2.159c-0.72,0-1.391,0.517-1.595,1.308c-0.036,0.132-0.072,0.288-0.072,0.432V374.138z"/>
		<path d="M-258.752,376.5l-0.084-0.731h-0.036c-0.324,0.456-0.947,0.863-1.775,0.863c-1.175,0-1.775-0.827-1.775-1.667
			c0-1.403,1.247-2.171,3.49-2.159v-0.119c0-0.48-0.132-1.344-1.319-1.344c-0.54,0-1.103,0.168-1.511,0.432l-0.24-0.695
			c0.48-0.312,1.176-0.516,1.907-0.516c1.775,0,2.207,1.211,2.207,2.374v2.171c0,0.504,0.024,0.996,0.096,1.392H-258.752z
			 M-258.908,373.538c-1.151-0.024-2.459,0.18-2.459,1.307c0,0.684,0.456,1.008,0.996,1.008c0.755,0,1.235-0.479,1.403-0.972
			c0.036-0.107,0.06-0.228,0.06-0.336V373.538z"/>
		<path d="M-256.183,372.506c0-0.684-0.012-1.271-0.048-1.811h0.923l0.036,1.14h0.048c0.264-0.78,0.899-1.271,1.607-1.271
			c0.12,0,0.204,0.012,0.3,0.036v0.995c-0.108-0.024-0.216-0.036-0.36-0.036c-0.744,0-1.271,0.563-1.416,1.355
			c-0.024,0.144-0.048,0.312-0.048,0.491v3.095h-1.043V372.506z"/>
		<path d="M-251.791,373.789c0.024,1.428,0.936,2.016,1.991,2.016c0.755,0,1.211-0.132,1.607-0.3l0.18,0.755
			c-0.372,0.168-1.007,0.36-1.931,0.36c-1.787,0-2.854-1.176-2.854-2.927s1.032-3.13,2.723-3.13c1.895,0,2.399,1.667,2.399,2.734
			c0,0.216-0.024,0.384-0.036,0.491H-251.791z M-248.697,373.034c0.012-0.672-0.276-1.716-1.463-1.716
			c-1.067,0-1.535,0.984-1.619,1.716H-248.697z"/>
		<path d="M-246.367,372.267c0-0.6-0.012-1.092-0.048-1.571h0.936l0.06,0.959h0.024c0.288-0.552,0.959-1.091,1.919-1.091
			c0.803,0,2.051,0.479,2.051,2.471v3.466h-1.056v-3.346c0-0.936-0.348-1.716-1.343-1.716c-0.695,0-1.235,0.492-1.415,1.08
			c-0.048,0.132-0.072,0.312-0.072,0.491v3.49h-1.056V372.267z"/>
		<path d="M-235.569,376.284c-0.276,0.144-0.888,0.336-1.667,0.336c-1.751,0-2.891-1.188-2.891-2.963
			c0-1.787,1.224-3.082,3.119-3.082c0.624,0,1.175,0.156,1.463,0.3l-0.24,0.815c-0.252-0.144-0.647-0.275-1.223-0.275
			c-1.332,0-2.051,0.983-2.051,2.194c0,1.344,0.864,2.171,2.015,2.171c0.6,0,0.996-0.156,1.295-0.288L-235.569,376.284z"/>
		<path d="M-233.731,370.695l1.271,3.43c0.132,0.384,0.276,0.84,0.372,1.188h0.024c0.108-0.348,0.228-0.791,0.372-1.211l1.151-3.406
			h1.115l-1.583,4.138c-0.756,1.991-1.271,3.011-1.991,3.634c-0.516,0.456-1.031,0.636-1.295,0.684l-0.264-0.888
			c0.264-0.084,0.612-0.252,0.924-0.516c0.288-0.228,0.647-0.636,0.887-1.175c0.048-0.108,0.084-0.192,0.084-0.252
			c0-0.061-0.024-0.145-0.072-0.276l-2.147-5.349H-233.731z"/>
		<path d="M-222.982,373.646l-5.565,2.854v-0.827l4.726-2.352v-0.023l-4.726-2.351v-0.828l5.565,2.854V373.646z"/>
		<path d="M-266.827,402.589c0.024,1.428,0.935,2.016,1.991,2.016c0.755,0,1.211-0.132,1.607-0.3l0.18,0.755
			c-0.372,0.168-1.007,0.36-1.931,0.36c-1.787,0-2.854-1.176-2.854-2.927s1.032-3.13,2.723-3.13c1.895,0,2.399,1.667,2.399,2.734
			c0,0.216-0.024,0.384-0.036,0.491H-266.827z M-263.732,401.834c0.012-0.672-0.276-1.715-1.463-1.715
			c-1.067,0-1.535,0.983-1.619,1.715H-263.732z"/>
		<path d="M-260.947,399.495l0.828,1.247c0.216,0.324,0.396,0.624,0.587,0.947h0.036c0.192-0.348,0.384-0.647,0.576-0.959
			l0.815-1.235h1.14l-1.979,2.807l2.039,2.998h-1.2l-0.851-1.308c-0.228-0.336-0.42-0.659-0.624-1.007h-0.024
			c-0.192,0.348-0.396,0.659-0.612,1.007l-0.839,1.308h-1.164l2.063-2.962l-1.967-2.843H-260.947z"/>
		<path d="M-255.883,401.39c0-0.743-0.024-1.343-0.048-1.895h0.947l0.048,0.995h0.024c0.432-0.707,1.115-1.127,2.063-1.127
			c1.403,0,2.459,1.188,2.459,2.95c0,2.087-1.271,3.118-2.639,3.118c-0.768,0-1.439-0.336-1.787-0.911h-0.024v3.154h-1.043V401.39z
			 M-254.839,402.938c0,0.155,0.024,0.3,0.048,0.432c0.192,0.731,0.828,1.235,1.583,1.235c1.115,0,1.763-0.912,1.763-2.243
			c0-1.163-0.611-2.159-1.727-2.159c-0.72,0-1.391,0.517-1.595,1.308c-0.036,0.132-0.072,0.288-0.072,0.432V402.938z"/>
		<path d="M-243.802,402.35c0,2.146-1.487,3.082-2.89,3.082c-1.571,0-2.783-1.151-2.783-2.986c0-1.943,1.271-3.082,2.878-3.082
			C-244.929,399.363-243.802,400.574-243.802,402.35z M-248.408,402.409c0,1.271,0.732,2.231,1.763,2.231
			c1.007,0,1.763-0.948,1.763-2.255c0-0.983-0.492-2.231-1.739-2.231C-247.868,400.154-248.408,401.306-248.408,402.409z"/>
		<path d="M-242.467,401.306c0-0.684-0.012-1.271-0.048-1.811h0.923l0.036,1.14h0.048c0.264-0.78,0.899-1.271,1.607-1.271
			c0.12,0,0.204,0.012,0.3,0.036v0.995c-0.108-0.024-0.216-0.036-0.359-0.036c-0.744,0-1.271,0.563-1.416,1.355
			c-0.024,0.144-0.048,0.312-0.048,0.491v3.095h-1.043V401.306z"/>
		<path d="M-236.984,397.828v1.667h1.511v0.804h-1.511v3.13c0,0.72,0.204,1.128,0.792,1.128c0.276,0,0.479-0.036,0.611-0.072
			l0.048,0.791c-0.204,0.084-0.528,0.145-0.936,0.145c-0.492,0-0.888-0.156-1.14-0.444c-0.3-0.312-0.408-0.827-0.408-1.511v-3.166
			h-0.899v-0.804h0.899v-1.392L-236.984,397.828z"/>
		<path d="M-229.162,406.199v0.6h-5.997v-0.6H-229.162z"/>
		<path d="M-224.146,405.084c-0.276,0.144-0.888,0.336-1.667,0.336c-1.751,0-2.891-1.188-2.891-2.963
			c0-1.787,1.224-3.082,3.119-3.082c0.624,0,1.175,0.156,1.463,0.3l-0.24,0.815c-0.252-0.144-0.647-0.275-1.223-0.275
			c-1.332,0-2.051,0.983-2.051,2.194c0,1.344,0.864,2.171,2.015,2.171c0.6,0,0.996-0.156,1.295-0.288L-224.146,405.084z"/>
		<path d="M-217.726,402.35c0,2.146-1.487,3.082-2.89,3.082c-1.571,0-2.783-1.151-2.783-2.986c0-1.943,1.271-3.082,2.878-3.082
			C-218.853,399.363-217.726,400.574-217.726,402.35z M-222.332,402.409c0,1.271,0.732,2.231,1.763,2.231
			c1.007,0,1.763-0.948,1.763-2.255c0-0.983-0.492-2.231-1.739-2.231C-221.792,400.154-222.332,401.306-222.332,402.409z"/>
		<path d="M-211.378,396.784v7.017c0,0.516,0.012,1.104,0.048,1.499h-0.947l-0.048-1.008h-0.024c-0.324,0.648-1.032,1.14-1.979,1.14
			c-1.403,0-2.483-1.188-2.483-2.95c-0.012-1.931,1.188-3.118,2.603-3.118c0.888,0,1.487,0.42,1.751,0.888h0.024v-3.467H-211.378z
			 M-212.433,401.857c0-0.132-0.012-0.312-0.048-0.443c-0.156-0.672-0.731-1.224-1.523-1.224c-1.091,0-1.739,0.96-1.739,2.243
			c0,1.175,0.576,2.146,1.715,2.146c0.708,0,1.355-0.468,1.547-1.259c0.036-0.145,0.048-0.288,0.048-0.456V401.857z"/>
		<path d="M-209.036,402.589c0.024,1.428,0.935,2.016,1.991,2.016c0.755,0,1.211-0.132,1.607-0.3l0.18,0.755
			c-0.372,0.168-1.007,0.36-1.931,0.36c-1.787,0-2.854-1.176-2.854-2.927s1.032-3.13,2.723-3.13c1.895,0,2.399,1.667,2.399,2.734
			c0,0.216-0.024,0.384-0.036,0.491H-209.036z M-205.941,401.834c0.012-0.672-0.276-1.715-1.463-1.715
			c-1.067,0-1.535,0.983-1.619,1.715H-205.941z"/>
		<path d="M-198.13,402.445l-5.565,2.854v-0.827l4.726-2.352v-0.023l-4.726-2.351v-0.828l5.565,2.854V402.445z"/>
	</g>
</g>
</svg>
