<?xml version="1.0" encoding="iso-8859-1"?>
<!-- Generator: Adobe Illustrator 16.0.3, SVG Export Plug-In . SVG Version: 6.00 Build 0)  -->
<!DOCTYPE svg PUBLIC "-//W3C//DTD SVG 1.1//EN" "http://www.w3.org/Graphics/SVG/1.1/DTD/svg11.dtd">
<svg version="1.1" xmlns="http://www.w3.org/2000/svg" xmlns:xlink="http://www.w3.org/1999/xlink" x="0px" y="0px" width="280px"
	 height="150px" viewBox="-866.5 -901.5 280 150" style="enable-background:new -866.5 -901.5 280 150;" xml:space="preserve">
<g id="Layer_1">
	<g id="New_Symbol_2">
	</g>
	<g id="New_Symbol_3_">
	</g>
	<g id="New_Symbol_2_">
	</g>
	<g id="New_Symbol_1_">
	</g>
	<g id="New_Symbol">
	</g>
	<g>
		<g>
			<g>
				<g>
					<g>
						<g>
							<g>
								<g>
									<g>
										<g style="opacity:0;">
											<rect x="-866.5" y="-901.5" style="fill:#FFFFFF;" width="280" height="150"/>
										</g>
									</g>
								</g>
							</g>
						</g>
					</g>
				</g>
			</g>
			<g>
				<path style="fill:#00D2FF;" d="M-727.48-785.5c-0.007,0-0.013,0-0.02,0h-112c-0.369,0-0.708-0.203-0.882-0.528
					c-0.174-0.325-0.155-0.72,0.05-1.026l56-84c0.371-0.557,1.293-0.557,1.664,0l55.905,83.858c0.175,0.18,0.283,0.426,0.283,0.697
					C-726.48-785.948-726.928-785.5-727.48-785.5z M-837.631-787.5h108.263l-54.131-81.197L-837.631-787.5z"/>
			</g>
			<g>
				<path style="fill:#C8C8C8;" d="M-783.5-785.5c-17.093,0-31-13.907-31-31s13.907-31,31-31s31,13.907,31,31
					S-766.407-785.5-783.5-785.5z M-783.5-845.5c-15.991,0-29,13.009-29,29s13.009,29,29,29s29-13.009,29-29
					S-767.509-845.5-783.5-845.5z"/>
			</g>
			<g>
				<path style="fill:#00D2FF;" d="M-680.218-775.51c-0.346,0-0.682-0.179-0.867-0.5l-36.603-63.395
					c-0.132-0.229-0.168-0.502-0.1-0.759c0.068-0.256,0.236-0.475,0.466-0.607l63.396-36.603c0.229-0.133,0.503-0.169,0.759-0.1
					c0.256,0.068,0.475,0.236,0.607,0.466l36.602,63.396c0.276,0.479,0.112,1.09-0.366,1.366l-63.396,36.602
					C-679.876-775.553-680.048-775.51-680.218-775.51z M-715.455-839.538l35.603,61.662l61.663-35.602l-35.602-61.663
					L-715.455-839.538z"/>
			</g>
			<g>
				<path style="fill:#C8C8C8;" d="M-640.5-798.5h-53c-0.552,0-1-0.448-1-1v-54c0-0.552,0.448-1,1-1h53c0.552,0,1,0.448,1,1v54
					C-639.5-798.948-639.948-798.5-640.5-798.5z M-692.5-800.5h51v-52h-51V-800.5z"/>
			</g>
		</g>
	</g>
</g>
<g id="Isolation_Mode">
</g>
<g id="nyt_x5F_exporter_x5F_info" style="display:none;">
</g>
</svg>
