<?xml version="1.0" encoding="iso-8859-1"?>
<!-- Generator: Adobe Illustrator 16.0.3, SVG Export Plug-In . SVG Version: 6.00 Build 0)  -->
<!DOCTYPE svg PUBLIC "-//W3C//DTD SVG 1.1//EN" "http://www.w3.org/Graphics/SVG/1.1/DTD/svg11.dtd">
<svg version="1.1" xmlns="http://www.w3.org/2000/svg" xmlns:xlink="http://www.w3.org/1999/xlink" x="0px" y="0px" width="280px"
	 height="150px" viewBox="-566.5 -901.5 280 150" style="enable-background:new -566.5 -901.5 280 150;" xml:space="preserve">
<g id="Layer_1">
	<g id="New_Symbol_2">
	</g>
	<g id="New_Symbol_3_">
	</g>
	<g id="New_Symbol_2_">
	</g>
	<g id="New_Symbol_1_">
	</g>
	<g id="New_Symbol">
	</g>
	<g>
		<g>
			<g>
				<path style="fill:#00D2FF;" d="M-426.5-766.5c-0.552,0-1-0.448-1-1v-118c0-0.552,0.448-1,1-1s1,0.448,1,1v118
					C-425.5-766.948-425.948-766.5-426.5-766.5z"/>
			</g>
			<g>
				<path style="fill:#00D2FF;" d="M-512.945-847.66c-0.489,0-0.917-0.359-0.988-0.857c-0.079-0.547,0.3-1.054,0.847-1.133
					l173.168-25.006c0.548-0.076,1.054,0.3,1.133,0.847c0.079,0.547-0.3,1.054-0.847,1.133L-512.8-847.67
					C-512.849-847.664-512.897-847.66-512.945-847.66z"/>
			</g>
			<g>
				<path style="fill:#00D2FF;" d="M-339.774-778.336c-0.048,0-0.096-0.003-0.145-0.01l-173.168-25.006
					c-0.546-0.079-0.926-0.586-0.847-1.133c0.079-0.547,0.587-0.92,1.133-0.847l173.168,25.006c0.546,0.079,0.926,0.586,0.847,1.133
					C-338.857-778.695-339.285-778.336-339.774-778.336z"/>
			</g>
			<g>
				<g>
					<g>
						<g>
							<g>
								<g>
									<g>
										<g style="opacity:0;">
											<rect x="-566.5" y="-901.5" style="fill:#FFFFFF;" width="280" height="150"/>
										</g>
									</g>
								</g>
							</g>
						</g>
					</g>
				</g>
			</g>
			<g>
				<path style="fill:#C8C8C8;" d="M-456.5-795.5c-17.093,0-31-13.907-31-31s13.907-31,31-31s31,13.907,31,31
					S-439.407-795.5-456.5-795.5z M-456.5-855.5c-15.991,0-29,13.009-29,29s13.009,29,29,29s29-13.009,29-29
					S-440.509-855.5-456.5-855.5z"/>
			</g>
			<g>
				<path style="fill:#C8C8C8;" d="M-386.5-785.5c-22.607,0-41-18.393-41-41s18.393-41,41-41s41,18.393,41,41
					S-363.893-785.5-386.5-785.5z M-386.5-865.5c-21.505,0-39,17.495-39,39s17.495,39,39,39s39-17.495,39-39
					S-364.995-865.5-386.5-865.5z"/>
			</g>
		</g>
	</g>
</g>
<g id="Isolation_Mode">
</g>
<g id="nyt_x5F_exporter_x5F_info" style="display:none;">
</g>
</svg>
