<?xml version="1.0" encoding="iso-8859-1"?>
<!-- Generator: Adobe Illustrator 16.0.3, SVG Export Plug-In . SVG Version: 6.00 Build 0)  -->
<!DOCTYPE svg PUBLIC "-//W3C//DTD SVG 1.1//EN" "http://www.w3.org/Graphics/SVG/1.1/DTD/svg11.dtd">
<svg version="1.1" xmlns="http://www.w3.org/2000/svg" xmlns:xlink="http://www.w3.org/1999/xlink" x="0px" y="0px" width="280px"
	 height="150px" viewBox="33.5 -901.5 280 150" style="enable-background:new 33.5 -901.5 280 150;" xml:space="preserve">
<g id="Layer_1">
	<g id="New_Symbol_2">
	</g>
	<g id="New_Symbol_3_">
	</g>
	<g id="New_Symbol_2_">
	</g>
	<g id="New_Symbol_1_">
	</g>
	<g id="New_Symbol">
	</g>
	<g>
		<g>
			<g>
				<g>
					<path style="fill:#00D2FF;" d="M70.905-851.469c-0.512,0-0.947-0.39-0.995-0.909c-0.05-0.55,0.355-1.037,0.905-1.087
						l203.53-18.531c0.565-0.044,1.036,0.355,1.087,0.905c0.05,0.55-0.355,1.037-0.905,1.087l-203.53,18.531
						C70.966-851.47,70.936-851.469,70.905-851.469z"/>
				</g>
				<g>
					<g>
						<g>
							<g>
								<g>
									<g>
										<g>
											<g style="opacity:0;">
												<rect x="33.5" y="-901.5" style="fill:#FFFFFF;" width="280" height="150"/>
											</g>
										</g>
									</g>
								</g>
							</g>
						</g>
					</g>
				</g>
				<g>
					<path style="fill:#C8C8C8;" d="M116.5-795.5c-17.094,0-31-13.907-31-31s13.906-31,31-31s31,13.907,31,31
						S133.594-795.5,116.5-795.5z M116.5-855.5c-15.99,0-29,13.009-29,29s13.01,29,29,29s29-13.009,29-29S132.49-855.5,116.5-855.5z
						"/>
				</g>
				<g>
					<path style="fill:#C8C8C8;" d="M226.5-785.501c-22.607,0-40.999-18.392-40.999-40.999s18.392-40.999,40.999-40.999
						s40.999,18.392,40.999,40.999S249.107-785.501,226.5-785.501z M226.5-865.499c-21.504,0-38.999,17.495-38.999,38.999
						s17.495,38.999,38.999,38.999s38.999-17.495,38.999-38.999S248.004-865.499,226.5-865.499z"/>
				</g>
			</g>
			<g>
				<g>
					<path style="fill:#E1E1E1;" d="M119.5-825.5h-3c-0.553,0-1-0.448-1-1s0.447-1,1-1h3c0.553,0,1,0.448,1,1
						S120.053-825.5,119.5-825.5z"/>
					<path style="fill:#E1E1E1;" d="M217.382-825.5h-6.117c-0.553,0-1-0.448-1-1s0.447-1,1-1h6.117c0.553,0,1,0.448,1,1
						S217.935-825.5,217.382-825.5z M205.146-825.5h-6.117c-0.553,0-1-0.448-1-1s0.447-1,1-1h6.117c0.553,0,1,0.448,1,1
						S205.699-825.5,205.146-825.5z M192.911-825.5h-6.117c-0.553,0-1-0.448-1-1s0.447-1,1-1h6.117c0.553,0,1,0.448,1,1
						S193.464-825.5,192.911-825.5z M180.676-825.5h-6.117c-0.553,0-1-0.448-1-1s0.447-1,1-1h6.117c0.553,0,1,0.448,1,1
						S181.229-825.5,180.676-825.5z M168.44-825.5h-6.117c-0.553,0-1-0.448-1-1s0.447-1,1-1h6.117c0.553,0,1,0.448,1,1
						S168.993-825.5,168.44-825.5z M156.205-825.5h-6.117c-0.553,0-1-0.448-1-1s0.447-1,1-1h6.117c0.553,0,1,0.448,1,1
						S156.758-825.5,156.205-825.5z M143.97-825.5h-6.117c-0.553,0-1-0.448-1-1s0.447-1,1-1h6.117c0.553,0,1,0.448,1,1
						S144.522-825.5,143.97-825.5z M131.734-825.5h-6.117c-0.553,0-1-0.448-1-1s0.447-1,1-1h6.117c0.553,0,1,0.448,1,1
						S132.287-825.5,131.734-825.5z"/>
					<path style="fill:#E1E1E1;" d="M226.5-825.5h-3c-0.553,0-1-0.448-1-1s0.447-1,1-1h3c0.553,0,1,0.448,1,1
						S227.053-825.5,226.5-825.5z"/>
				</g>
			</g>
			<g>
				<circle style="fill:#FFFFFF;" cx="116.5" cy="-826.5" r="3"/>
				<path style="fill:#E1E1E1;" d="M116.5-828.5c1.104,0,2,0.896,2,2s-0.896,2-2,2s-2-0.896-2-2S115.396-828.5,116.5-828.5
					 M116.5-830.5c-2.206,0-4,1.794-4,4s1.794,4,4,4s4-1.794,4-4S118.706-830.5,116.5-830.5L116.5-830.5z"/>
			</g>
			<g>
				<circle style="fill:#FFFFFF;" cx="226.5" cy="-826.5" r="3"/>
				<path style="fill:#E1E1E1;" d="M226.5-828.5c1.104,0,2,0.896,2,2s-0.896,2-2,2s-2-0.896-2-2S225.396-828.5,226.5-828.5
					 M226.5-830.5c-2.206,0-4,1.794-4,4s1.794,4,4,4s4-1.794,4-4S228.706-830.5,226.5-830.5L226.5-830.5z"/>
			</g>
		</g>
	</g>
</g>
<g id="Isolation_Mode">
</g>
<g id="nyt_x5F_exporter_x5F_info" style="display:none;">
</g>
</svg>
