<?xml version="1.0" encoding="iso-8859-1"?>
<!-- Generator: Adobe Illustrator 16.0.3, SVG Export Plug-In . SVG Version: 6.00 Build 0)  -->
<!DOCTYPE svg PUBLIC "-//W3C//DTD SVG 1.1//EN" "http://www.w3.org/Graphics/SVG/1.1/DTD/svg11.dtd">
<svg version="1.1" xmlns="http://www.w3.org/2000/svg" xmlns:xlink="http://www.w3.org/1999/xlink" x="0px" y="0px" width="280px"
	 height="150px" viewBox="-266.5 -901.5 280 150" style="enable-background:new -266.5 -901.5 280 150;" xml:space="preserve">
<g id="Layer_1">
	<g id="New_Symbol_2">
	</g>
	<g id="New_Symbol_3_">
	</g>
	<g id="New_Symbol_2_">
	</g>
	<g id="New_Symbol_1_">
	</g>
	<g id="New_Symbol">
	</g>
	<g>
		<g>
			<g>
				<g>
					<path style="fill:#E1E1E1;" d="M-180.5-825.5h-3c-0.552,0-1-0.448-1-1s0.448-1,1-1h3c0.552,0,1,0.448,1,1
						S-179.948-825.5-180.5-825.5z"/>
					<path style="fill:#E1E1E1;" d="M-82.618-825.5h-6.118c-0.552,0-1-0.448-1-1s0.448-1,1-1h6.118c0.552,0,1,0.448,1,1
						S-82.065-825.5-82.618-825.5z M-94.853-825.5h-6.118c-0.552,0-1-0.448-1-1s0.448-1,1-1h6.118c0.552,0,1,0.448,1,1
						S-94.301-825.5-94.853-825.5z M-107.088-825.5h-6.118c-0.552,0-1-0.448-1-1s0.448-1,1-1h6.118c0.552,0,1,0.448,1,1
						S-106.536-825.5-107.088-825.5z M-119.324-825.5h-6.117c-0.552,0-1-0.448-1-1s0.448-1,1-1h6.117c0.552,0,1,0.448,1,1
						S-118.771-825.5-119.324-825.5z M-131.559-825.5h-6.118c-0.552,0-1-0.448-1-1s0.448-1,1-1h6.118c0.552,0,1,0.448,1,1
						S-131.006-825.5-131.559-825.5z M-143.794-825.5h-6.118c-0.552,0-1-0.448-1-1s0.448-1,1-1h6.118c0.552,0,1,0.448,1,1
						S-143.242-825.5-143.794-825.5z M-156.029-825.5h-6.118c-0.552,0-1-0.448-1-1s0.448-1,1-1h6.118c0.552,0,1,0.448,1,1
						S-155.477-825.5-156.029-825.5z M-168.265-825.5h-6.118c-0.552,0-1-0.448-1-1s0.448-1,1-1h6.118c0.552,0,1,0.448,1,1
						S-167.712-825.5-168.265-825.5z"/>
					<path style="fill:#E1E1E1;" d="M-73.5-825.5h-3c-0.552,0-1-0.448-1-1s0.448-1,1-1h3c0.552,0,1,0.448,1,1
						S-72.948-825.5-73.5-825.5z"/>
				</g>
			</g>
			<g>
				<g>
					<path style="fill:#00D2FF;" d="M-64.27-766.048c-0.224,0-0.449-0.075-0.636-0.229L-200.998-878.48
						c-0.426-0.351-0.487-0.981-0.135-1.408c0.352-0.426,0.982-0.486,1.408-0.135l136.092,112.204
						c0.426,0.351,0.487,0.981,0.135,1.408C-63.696-766.172-63.982-766.048-64.27-766.048z"/>
				</g>
				<g>
					<g>
						<g>
							<g>
								<g>
									<g>
										<g>
											<g style="opacity:0;">
												<rect x="-266.5" y="-901.5" style="fill:#FFFFFF;" width="280" height="150"/>
											</g>
										</g>
									</g>
								</g>
							</g>
						</g>
					</g>
				</g>
				<g>
					<path style="fill:#C8C8C8;" d="M-183.5-795.5c-17.093,0-31-13.907-31-31s13.907-31,31-31s31,13.907,31,31
						S-166.407-795.5-183.5-795.5z M-183.5-855.5c-15.991,0-29,13.009-29,29s13.009,29,29,29s29-13.009,29-29
						S-167.509-855.5-183.5-855.5z"/>
				</g>
				<g>
					<path style="fill:#C8C8C8;" d="M-73.5-785.5c-22.607,0-41-18.393-41-41s18.393-41,41-41s41,18.393,41,41
						S-50.893-785.5-73.5-785.5z M-73.5-865.5c-21.505,0-39,17.495-39,39s17.495,39,39,39s39-17.495,39-39S-51.995-865.5-73.5-865.5
						z"/>
				</g>
			</g>
			<g>
				<circle style="fill:#FFFFFF;" cx="-183.5" cy="-826.5" r="3"/>
				<path style="fill:#E1E1E1;" d="M-183.5-828.5c1.104,0,2,0.896,2,2s-0.896,2-2,2s-2-0.896-2-2S-184.604-828.5-183.5-828.5
					 M-183.5-830.5c-2.206,0-4,1.794-4,4s1.794,4,4,4s4-1.794,4-4S-181.294-830.5-183.5-830.5L-183.5-830.5z"/>
			</g>
			<g>
				<circle style="fill:#FFFFFF;" cx="-73.5" cy="-826.5" r="3"/>
				<path style="fill:#E1E1E1;" d="M-73.5-828.5c1.104,0,2,0.896,2,2s-0.896,2-2,2s-2-0.896-2-2S-74.604-828.5-73.5-828.5
					 M-73.5-830.5c-2.206,0-4,1.794-4,4s1.794,4,4,4s4-1.794,4-4S-71.294-830.5-73.5-830.5L-73.5-830.5z"/>
			</g>
		</g>
	</g>
</g>
<g id="Isolation_Mode">
</g>
<g id="nyt_x5F_exporter_x5F_info" style="display:none;">
</g>
</svg>
