<?xml version="1.0" encoding="iso-8859-1"?>
<!-- Generator: Adobe Illustrator 16.0.3, SVG Export Plug-In . SVG Version: 6.00 Build 0)  -->
<!DOCTYPE svg PUBLIC "-//W3C//DTD SVG 1.1//EN" "http://www.w3.org/Graphics/SVG/1.1/DTD/svg11.dtd">
<svg version="1.1" xmlns="http://www.w3.org/2000/svg" xmlns:xlink="http://www.w3.org/1999/xlink" x="0px" y="0px" width="280px"
	 height="150px" viewBox="934.5 301.5 280 150" style="enable-background:new 934.5 301.5 280 150;" xml:space="preserve">
<g id="Layer_1">
	<g id="New_Symbol_2">
	</g>
	<g id="New_Symbol_3_">
	</g>
	<g id="New_Symbol_2_">
	</g>
	<g id="New_Symbol_1_">
	</g>
	<g id="New_Symbol">
	</g>
	<g>
		<g>
			<g>
				<g>
					<g>
						<circle style="fill:#FFFFFF;" cx="1074.5" cy="376.5" r="3"/>
						<path style="fill:#00D2FF;" d="M1074.5,374.5c1.104,0,2,0.896,2,2s-0.896,2-2,2s-2-0.896-2-2S1073.396,374.5,1074.5,374.5
							 M1074.5,372.5c-2.205,0-4,1.794-4,4s1.795,4,4,4s4-1.794,4-4S1076.705,372.5,1074.5,372.5L1074.5,372.5z"/>
					</g>
				</g>
			</g>
		</g>
	</g>
	<g>
		<g>
			<g>
				<g>
					<g>
						<g>
							<g>
								<g>
									<g>
										<g>
											<g style="opacity:0;">
												<rect x="934.5" y="301.5" style="fill:#FFFFFF;" width="280" height="150"/>
											</g>
										</g>
									</g>
								</g>
							</g>
						</g>
					</g>
				</g>
			</g>
		</g>
	</g>
	<g>
		<path style="fill:#00D2FF;" d="M1074.5,427.5c-28.121,0-51-22.879-51-51s22.879-51,51-51s51,22.879,51,51
			S1102.621,427.5,1074.5,427.5z M1074.5,327.5c-27.019,0-49,21.981-49,49s21.981,49,49,49s49-21.981,49-49
			S1101.519,327.5,1074.5,327.5z"/>
	</g>
	<g>
		<path style="fill:#00D2FF;" d="M1074.5,407.5c-17.094,0-31-13.906-31-31s13.906-31,31-31s31,13.906,31,31
			S1091.594,407.5,1074.5,407.5z M1074.5,347.5c-15.99,0-29,13.01-29,29s13.01,29,29,29s29-13.01,29-29S1090.49,347.5,1074.5,347.5z
			"/>
	</g>
</g>
<g id="Isolation_Mode">
</g>
<g id="nyt_x5F_exporter_x5F_info" style="display:none;">
</g>
</svg>
