<?xml version="1.0" encoding="iso-8859-1"?>
<!-- Generator: Adobe Illustrator 16.0.3, SVG Export Plug-In . SVG Version: 6.00 Build 0)  -->
<!DOCTYPE svg PUBLIC "-//W3C//DTD SVG 1.1//EN" "http://www.w3.org/Graphics/SVG/1.1/DTD/svg11.dtd">
<svg version="1.1" xmlns="http://www.w3.org/2000/svg" xmlns:xlink="http://www.w3.org/1999/xlink" x="0px" y="0px" width="280px"
	 height="150px" viewBox="633.5 543.5 280 150" style="enable-background:new 633.5 543.5 280 150;" xml:space="preserve">
<g id="Layer_1">
	<g id="New_Symbol_2">
	</g>
	<g id="New_Symbol_3_">
	</g>
	<g id="New_Symbol_2_">
	</g>
	<g id="New_Symbol_1_">
	</g>
	<g id="New_Symbol">
	</g>
	<g>
		<g>
			<g>
				<g>
					<g>
						<g>
							<g>
								<g>
									<g>
										<g>
											<g>
												<g id="Layer_1_78_">
													<g>
														<g>
															<g>
																<g>
																	<g>
																		<g>
																			<g>
																				<g>
																					<g style="opacity:0;">
																						<rect x="633.5" y="543.5" style="fill:#FFFFFF;" width="280" height="150"/>
																					</g>
																				</g>
																			</g>
																		</g>
																	</g>
																</g>
															</g>
														</g>
													</g>
												</g>
											</g>
										</g>
									</g>
								</g>
							</g>
						</g>
					</g>
				</g>
			</g>
			<g>
				<path style="fill:#C8C8C8;" d="M692.847,616.418c-0.465,0-0.881-0.325-0.979-0.798c-0.111-0.541,0.236-1.069,0.777-1.182
					l5.876-1.214c0.541-0.109,1.07,0.236,1.182,0.777s-0.236,1.069-0.777,1.182l-5.876,1.214
					C692.981,616.411,692.914,616.418,692.847,616.418z M704.599,613.991c-0.465,0-0.881-0.325-0.979-0.798
					c-0.111-0.541,0.236-1.069,0.777-1.182l5.876-1.214c0.54-0.108,1.07,0.236,1.182,0.777s-0.236,1.069-0.777,1.182l-5.876,1.214
					C704.733,613.984,704.666,613.991,704.599,613.991z M716.351,611.564c-0.465,0-0.881-0.325-0.979-0.798
					c-0.111-0.541,0.236-1.069,0.777-1.182l5.876-1.214c0.54-0.107,1.07,0.236,1.182,0.777s-0.236,1.069-0.777,1.182l-5.876,1.214
					C716.485,611.558,716.418,611.564,716.351,611.564z M728.103,609.137c-0.465,0-0.881-0.325-0.979-0.798
					c-0.111-0.541,0.236-1.07,0.777-1.182l5.876-1.213c0.539-0.106,1.069,0.236,1.182,0.777c0.111,0.541-0.236,1.07-0.777,1.182
					l-5.876,1.213C728.237,609.13,728.17,609.137,728.103,609.137z M739.854,606.71c-0.465,0-0.881-0.325-0.979-0.798
					c-0.111-0.541,0.236-1.07,0.777-1.182l5.876-1.213c0.539-0.109,1.069,0.236,1.182,0.777c0.111,0.541-0.236,1.07-0.777,1.182
					l-5.876,1.213C739.989,606.703,739.922,606.71,739.854,606.71z M751.606,604.283c-0.465,0-0.881-0.325-0.979-0.798
					c-0.111-0.541,0.236-1.07,0.777-1.182l5.876-1.213c0.538-0.108,1.069,0.236,1.182,0.777c0.111,0.541-0.236,1.07-0.777,1.182
					l-5.876,1.213C751.741,604.276,751.674,604.283,751.606,604.283z M763.358,601.856c-0.465,0-0.881-0.325-0.979-0.798
					c-0.111-0.541,0.236-1.07,0.777-1.182l5.876-1.213c0.542-0.107,1.069,0.236,1.182,0.777c0.111,0.541-0.236,1.07-0.777,1.182
					l-5.876,1.213C763.493,601.85,763.426,601.856,763.358,601.856z M775.11,599.43c-0.465,0-0.881-0.325-0.979-0.798
					c-0.111-0.541,0.236-1.07,0.777-1.182l5.876-1.213c0.541-0.106,1.07,0.236,1.182,0.777s-0.236,1.07-0.777,1.182l-5.876,1.213
					C775.245,599.423,775.178,599.43,775.11,599.43z M786.863,597.003c-0.465,0-0.881-0.325-0.979-0.798
					c-0.111-0.541,0.236-1.069,0.777-1.182l5.876-1.214c0.539-0.108,1.069,0.236,1.182,0.777c0.111,0.541-0.236,1.069-0.777,1.182
					l-5.876,1.214C786.998,596.996,786.931,597.003,786.863,597.003z M798.615,594.576c-0.465,0-0.881-0.325-0.979-0.798
					c-0.111-0.541,0.236-1.069,0.777-1.182l5.876-1.214c0.539-0.107,1.069,0.236,1.182,0.777c0.111,0.541-0.236,1.069-0.777,1.182
					l-5.876,1.214C798.75,594.569,798.683,594.576,798.615,594.576z M810.367,592.149c-0.465,0-0.881-0.325-0.979-0.798
					c-0.111-0.541,0.236-1.069,0.777-1.182l5.876-1.214c0.538-0.107,1.069,0.236,1.182,0.777c0.111,0.541-0.236,1.069-0.777,1.182
					l-5.876,1.214C810.502,592.143,810.435,592.149,810.367,592.149z M822.119,589.723c-0.465,0-0.881-0.325-0.979-0.798
					c-0.111-0.541,0.236-1.069,0.777-1.182l5.876-1.214c0.542-0.106,1.069,0.236,1.182,0.777c0.111,0.541-0.236,1.069-0.777,1.182
					l-5.876,1.214C822.254,589.716,822.187,589.723,822.119,589.723z M833.871,587.296c-0.465,0-0.881-0.325-0.979-0.798
					c-0.111-0.541,0.236-1.069,0.777-1.182l5.876-1.214c0.541-0.109,1.07,0.236,1.182,0.777s-0.236,1.069-0.777,1.182l-5.876,1.214
					C834.006,587.289,833.938,587.296,833.871,587.296z M845.623,584.869c-0.465,0-0.881-0.325-0.979-0.798
					c-0.111-0.541,0.236-1.069,0.777-1.182l5.876-1.214c0.541-0.108,1.07,0.236,1.182,0.777s-0.236,1.069-0.777,1.182l-5.876,1.214
					C845.758,584.862,845.69,584.869,845.623,584.869z"/>
			</g>
			<g>
				<path style="fill:#C8C8C8;" d="M829.499,637.655c-0.182,0-0.365-0.05-0.531-0.153l-5.081-3.19
					c-0.467-0.294-0.608-0.911-0.314-1.379c0.294-0.466,0.909-0.607,1.379-0.314l5.081,3.19c0.467,0.294,0.608,0.911,0.314,1.379
					C830.157,637.489,829.832,637.655,829.499,637.655z M819.336,631.274c-0.182,0-0.365-0.05-0.531-0.153l-5.081-3.191
					c-0.468-0.294-0.608-0.911-0.314-1.379c0.294-0.466,0.909-0.607,1.379-0.314l5.081,3.191c0.468,0.294,0.608,0.911,0.314,1.379
					C819.994,631.108,819.669,631.274,819.336,631.274z M809.174,624.893c-0.182,0-0.365-0.05-0.531-0.153l-5.081-3.19
					c-0.467-0.294-0.608-0.911-0.314-1.379c0.293-0.466,0.908-0.607,1.379-0.314l5.081,3.19c0.467,0.294,0.608,0.911,0.314,1.379
					C809.832,624.727,809.507,624.893,809.174,624.893z M799.011,618.512c-0.182,0-0.365-0.05-0.531-0.153l-5.081-3.19
					c-0.467-0.294-0.608-0.911-0.314-1.379c0.293-0.466,0.909-0.606,1.379-0.314l5.081,3.19c0.467,0.294,0.608,0.911,0.314,1.379
					C799.669,618.346,799.344,618.512,799.011,618.512z M788.849,612.131c-0.182,0-0.365-0.05-0.531-0.153l-5.082-3.191
					c-0.468-0.294-0.608-0.911-0.314-1.379c0.293-0.466,0.909-0.606,1.379-0.314l5.082,3.191c0.468,0.294,0.608,0.911,0.314,1.379
					C789.507,611.965,789.182,612.131,788.849,612.131z M778.686,605.749c-0.182,0-0.365-0.05-0.531-0.153l-5.081-3.19
					c-0.467-0.294-0.608-0.911-0.314-1.379c0.293-0.467,0.909-0.606,1.379-0.314l5.081,3.19c0.467,0.294,0.608,0.911,0.314,1.379
					C779.344,605.583,779.019,605.749,778.686,605.749z M768.522,599.368c-0.182,0-0.365-0.05-0.531-0.153l-5.081-3.19
					c-0.467-0.294-0.608-0.911-0.314-1.379c0.293-0.466,0.91-0.607,1.379-0.314l5.081,3.19c0.467,0.294,0.608,0.911,0.314,1.379
					C769.181,599.202,768.855,599.368,768.522,599.368z M758.36,592.986c-0.182,0-0.365-0.05-0.531-0.153l-5.081-3.19
					c-0.467-0.294-0.608-0.911-0.314-1.379c0.293-0.466,0.909-0.607,1.379-0.314l5.081,3.19c0.467,0.294,0.608,0.911,0.314,1.379
					C759.019,592.82,758.693,592.986,758.36,592.986z M748.197,586.605c-0.182,0-0.365-0.05-0.531-0.153l-4.698-2.95
					c-0.467-0.294-0.608-0.911-0.314-1.379c0.294-0.466,0.909-0.606,1.379-0.314l4.698,2.95c0.467,0.294,0.608,0.911,0.314,1.379
					C748.855,586.439,748.53,586.605,748.197,586.605z"/>
			</g>
			<g>
				<path style="fill:#C8C8C8;" d="M829.501,637.655c-0.05,0-0.101-0.004-0.151-0.012l-5.932-0.904
					c-0.546-0.083-0.922-0.593-0.838-1.139c0.083-0.546,0.589-0.924,1.139-0.838l5.932,0.904c0.546,0.083,0.922,0.593,0.838,1.139
					C830.413,637.301,829.987,637.655,829.501,637.655z M817.638,635.848c-0.05,0-0.101-0.004-0.151-0.012l-5.932-0.904
					c-0.546-0.083-0.922-0.593-0.838-1.139c0.083-0.546,0.589-0.925,1.139-0.838l5.932,0.904c0.546,0.083,0.922,0.593,0.838,1.139
					C818.55,635.493,818.124,635.848,817.638,635.848z M805.774,634.04c-0.05,0-0.101-0.004-0.151-0.012l-5.931-0.904
					c-0.546-0.083-0.922-0.593-0.838-1.139c0.083-0.546,0.594-0.925,1.139-0.838l5.931,0.904c0.546,0.083,0.922,0.593,0.838,1.139
					C806.687,633.686,806.261,634.04,805.774,634.04z M793.912,632.231c-0.05,0-0.101-0.004-0.151-0.012l-5.932-0.903
					c-0.546-0.083-0.921-0.593-0.838-1.139s0.594-0.921,1.139-0.838l5.932,0.903c0.546,0.083,0.921,0.593,0.838,1.139
					C794.824,631.877,794.398,632.231,793.912,632.231z M782.049,630.424c-0.05,0-0.101-0.004-0.151-0.012l-5.932-0.903
					c-0.546-0.083-0.921-0.593-0.838-1.139s0.594-0.921,1.139-0.838l5.932,0.903c0.546,0.083,0.921,0.593,0.838,1.139
					C782.961,630.069,782.535,630.424,782.049,630.424z M770.186,628.616c-0.05,0-0.101-0.004-0.151-0.012l-5.932-0.904
					c-0.546-0.083-0.922-0.593-0.838-1.139c0.083-0.546,0.594-0.921,1.139-0.838l5.932,0.904c0.546,0.083,0.922,0.593,0.838,1.139
					C771.098,628.262,770.672,628.616,770.186,628.616z M758.322,626.809c-0.05,0-0.101-0.004-0.151-0.012l-5.931-0.904
					c-0.546-0.083-0.922-0.593-0.838-1.139c0.083-0.546,0.593-0.921,1.139-0.838l5.931,0.904c0.546,0.083,0.922,0.593,0.838,1.139
					C759.234,626.454,758.809,626.809,758.322,626.809z M746.46,625c-0.05,0-0.101-0.004-0.151-0.012l-5.932-0.903
					c-0.546-0.083-0.921-0.593-0.838-1.139s0.593-0.922,1.139-0.838l5.932,0.903c0.546,0.083,0.921,0.593,0.838,1.139
					C747.372,624.646,746.946,625,746.46,625z M734.597,623.192c-0.05,0-0.101-0.004-0.151-0.012l-5.932-0.903
					c-0.546-0.083-0.921-0.593-0.838-1.139s0.593-0.922,1.139-0.838l5.932,0.903c0.546,0.083,0.921,0.593,0.838,1.139
					C735.509,622.838,735.083,623.192,734.597,623.192z M722.733,621.385c-0.05,0-0.101-0.004-0.151-0.012l-5.932-0.904
					c-0.546-0.083-0.922-0.593-0.838-1.139c0.083-0.546,0.593-0.922,1.139-0.838l5.932,0.904c0.546,0.083,0.922,0.593,0.838,1.139
					C723.646,621.03,723.22,621.385,722.733,621.385z M710.87,619.577c-0.05,0-0.101-0.004-0.151-0.012l-5.931-0.904
					c-0.546-0.083-0.922-0.593-0.838-1.139c0.083-0.546,0.592-0.922,1.139-0.838l5.931,0.904c0.546,0.083,0.922,0.593,0.838,1.139
					C711.782,619.223,711.356,619.577,710.87,619.577z M699.008,617.77c-0.05,0-0.101-0.004-0.151-0.012l-5.932-0.904
					c-0.546-0.083-0.922-0.593-0.838-1.139c0.083-0.546,0.592-0.923,1.139-0.838l5.932,0.904c0.546,0.083,0.922,0.593,0.838,1.139
					C699.92,617.415,699.494,617.77,699.008,617.77z"/>
			</g>
			<g>
				<path style="fill:#C8C8C8;" d="M749.166,656.192c-0.517,0-0.955-0.397-0.996-0.922l-0.468-5.981
					c-0.043-0.551,0.368-1.032,0.919-1.075c0.552-0.033,1.032,0.368,1.075,0.919l0.468,5.981c0.043,0.551-0.368,1.032-0.919,1.075
					C749.219,656.191,749.192,656.192,749.166,656.192z M748.231,644.229c-0.517,0-0.955-0.397-0.996-0.922l-0.468-5.981
					c-0.043-0.551,0.368-1.032,0.919-1.075c0.541-0.035,1.031,0.368,1.075,0.919l0.468,5.981c0.043,0.551-0.368,1.032-0.919,1.075
					C748.284,644.228,748.258,644.229,748.231,644.229z M747.297,632.266c-0.517,0-0.955-0.398-0.996-0.922l-0.468-5.982
					c-0.043-0.551,0.368-1.032,0.919-1.075c0.551-0.036,1.032,0.368,1.075,0.919l0.468,5.982c0.043,0.551-0.368,1.032-0.919,1.075
					C747.35,632.265,747.323,632.266,747.297,632.266z M746.362,620.302c-0.517,0-0.955-0.398-0.996-0.922l-0.468-5.981
					c-0.043-0.551,0.368-1.032,0.919-1.075c0.54-0.039,1.031,0.367,1.075,0.919l0.468,5.981c0.043,0.551-0.368,1.032-0.919,1.075
					C746.415,620.301,746.389,620.302,746.362,620.302z M745.428,608.338c-0.517,0-0.955-0.397-0.996-0.922l-0.468-5.981
					c-0.043-0.551,0.368-1.032,0.919-1.075c0.55-0.04,1.032,0.367,1.075,0.919l0.468,5.981c0.043,0.551-0.368,1.032-0.919,1.075
					C745.48,608.337,745.454,608.338,745.428,608.338z M744.493,596.375c-0.517,0-0.955-0.398-0.996-0.922l-0.468-5.982
					c-0.043-0.551,0.368-1.032,0.919-1.075c0.539-0.042,1.032,0.368,1.075,0.919l0.468,5.982c0.043,0.551-0.368,1.032-0.919,1.075
					C744.546,596.374,744.52,596.375,744.493,596.375z M743.558,584.411c-0.518,0-0.955-0.398-0.996-0.923l-0.059-0.756
					c-0.043-0.551,0.369-1.031,0.92-1.074c0.572-0.052,1.031,0.369,1.074,0.92l0.059,0.756c0.043,0.551-0.369,1.031-0.92,1.074
					C743.609,584.41,743.583,584.411,743.558,584.411z"/>
			</g>
			<g>
				<path style="fill:#C8C8C8;" d="M749.168,656.192c-0.313,0-0.622-0.146-0.816-0.422c-0.319-0.45-0.214-1.074,0.237-1.394
					l4.895-3.47c0.451-0.32,1.075-0.214,1.394,0.237c0.319,0.45,0.214,1.074-0.237,1.394l-4.895,3.47
					C749.569,656.133,749.368,656.192,749.168,656.192z M758.958,649.253c-0.313,0-0.622-0.146-0.816-0.422
					c-0.319-0.45-0.214-1.074,0.237-1.394l4.895-3.47c0.45-0.32,1.075-0.214,1.394,0.237c0.319,0.45,0.214,1.074-0.237,1.394
					l-4.895,3.47C759.359,649.193,759.158,649.253,758.958,649.253z M768.748,642.313c-0.313,0-0.622-0.146-0.816-0.422
					c-0.319-0.45-0.214-1.074,0.237-1.394l4.895-3.47c0.451-0.32,1.075-0.214,1.394,0.237c0.319,0.45,0.214,1.074-0.237,1.394
					l-4.895,3.47C769.149,642.254,768.948,642.313,768.748,642.313z M778.538,635.374c-0.313,0-0.622-0.146-0.816-0.422
					c-0.319-0.45-0.214-1.074,0.237-1.394l4.895-3.47c0.451-0.32,1.075-0.214,1.394,0.237c0.319,0.45,0.214,1.074-0.237,1.394
					l-4.895,3.47C778.939,635.314,778.738,635.374,778.538,635.374z M788.328,628.435c-0.313,0-0.622-0.146-0.816-0.422
					c-0.319-0.45-0.214-1.074,0.237-1.394l4.895-3.47c0.451-0.32,1.075-0.215,1.394,0.237c0.319,0.45,0.214,1.074-0.237,1.394
					l-4.895,3.47C788.729,628.375,788.528,628.435,788.328,628.435z M798.118,621.495c-0.313,0-0.622-0.146-0.816-0.422
					c-0.319-0.45-0.214-1.074,0.237-1.394l4.895-3.47c0.451-0.32,1.075-0.214,1.394,0.237c0.319,0.45,0.214,1.074-0.237,1.394
					l-4.895,3.47C798.52,621.436,798.318,621.495,798.118,621.495z M807.908,614.556c-0.313,0-0.622-0.146-0.816-0.422
					c-0.319-0.45-0.214-1.074,0.237-1.394l4.895-3.47c0.451-0.321,1.075-0.214,1.394,0.237c0.319,0.45,0.214,1.074-0.237,1.394
					l-4.895,3.47C808.31,614.496,808.108,614.556,807.908,614.556z M817.698,607.616c-0.313,0-0.622-0.146-0.816-0.422
					c-0.319-0.45-0.214-1.074,0.237-1.394l4.895-3.47c0.45-0.321,1.076-0.214,1.394,0.237c0.319,0.45,0.214,1.074-0.237,1.394
					l-4.895,3.47C818.1,607.557,817.898,607.616,817.698,607.616z M827.488,600.677c-0.313,0-0.622-0.146-0.816-0.422
					c-0.319-0.45-0.214-1.074,0.237-1.394l4.895-3.47c0.451-0.321,1.075-0.214,1.394,0.237c0.319,0.45,0.214,1.074-0.237,1.394
					l-4.895,3.47C827.89,600.617,827.688,600.677,827.488,600.677z M837.277,593.737c-0.313,0-0.622-0.146-0.816-0.422
					c-0.319-0.45-0.214-1.074,0.237-1.394l4.896-3.47c0.451-0.321,1.075-0.214,1.394,0.237c0.319,0.45,0.214,1.074-0.237,1.394
					l-4.896,3.47C837.679,593.678,837.478,593.737,837.277,593.737z M847.067,586.798c-0.313,0-0.622-0.146-0.816-0.422
					c-0.319-0.45-0.214-1.074,0.237-1.394l4.434-3.143c0.451-0.32,1.075-0.214,1.394,0.237c0.319,0.45,0.214,1.074-0.237,1.394
					l-4.434,3.143C847.469,586.738,847.268,586.798,847.067,586.798z"/>
			</g>
			<g>
				<g>
					<path style="fill:#00D2FF;" d="M749.167,656.192c-0.2,0-0.398-0.061-0.566-0.176l-57.47-39.537
						c-0.276-0.19-0.439-0.507-0.434-0.842c0.006-0.336,0.18-0.646,0.463-0.826l51.803-33c0.16-0.102,0.347-0.156,0.537-0.156h108
						c0.333,0,0.645,0.166,0.83,0.442s0.222,0.627,0.096,0.935l-22,54c-0.122,0.302-0.384,0.524-0.701,0.598l-80.333,18.537
						C749.317,656.184,749.242,656.192,749.167,656.192z M693.508,615.688l55.863,38.432l79.398-18.321l21.243-52.143H743.791
						L693.508,615.688z"/>
				</g>
			</g>
		</g>
	</g>
</g>
<g id="nyt_x5F_exporter_x5F_info" style="display:none;">
</g>
</svg>
