<?xml version="1.0" encoding="iso-8859-1"?>
<!-- Generator: Adobe Illustrator 16.0.3, SVG Export Plug-In . SVG Version: 6.00 Build 0)  -->
<!DOCTYPE svg PUBLIC "-//W3C//DTD SVG 1.1//EN" "http://www.w3.org/Graphics/SVG/1.1/DTD/svg11.dtd">
<svg version="1.1" xmlns="http://www.w3.org/2000/svg" xmlns:xlink="http://www.w3.org/1999/xlink" x="0px" y="0px" width="280px"
	 height="150px" viewBox="333.5 -901.5 280 150" style="enable-background:new 333.5 -901.5 280 150;" xml:space="preserve">
<g id="Layer_1">
	<g id="New_Symbol_2">
	</g>
	<g id="New_Symbol_3_">
	</g>
	<g id="New_Symbol_2_">
	</g>
	<g id="New_Symbol_1_">
	</g>
	<g id="New_Symbol">
	</g>
	<g>
		<g>
			<g>
				<g>
					<g>
						<g style="opacity:0;">
							<rect x="333.5" y="-901.5" style="fill:#FFFFFF;" width="280" height="150"/>
						</g>
					</g>
				</g>
			</g>
			<g>
				<path style="fill:#00D2FF;" d="M502.5-775.5c-0.553,0-1-0.448-1-1v-100c0-0.552,0.447-1,1-1s1,0.448,1,1v100
					C503.5-775.948,503.053-775.5,502.5-775.5z"/>
			</g>
			<g>
				<path style="fill:#00D2FF;" d="M415.766-825.5c-0.346,0-0.682-0.179-0.867-0.5c-0.276-0.479-0.112-1.09,0.366-1.366l86.603-50
					c0.476-0.277,1.089-0.113,1.366,0.366c0.276,0.479,0.112,1.09-0.366,1.366l-86.603,50
					C416.107-825.543,415.936-825.5,415.766-825.5z"/>
			</g>
			<g>
				<path style="fill:#00D2FF;" d="M444.632-775.5c-0.17,0-0.342-0.043-0.499-0.134c-0.479-0.276-0.643-0.888-0.366-1.366
					l57.734-100c0.276-0.479,0.888-0.643,1.366-0.366c0.479,0.276,0.643,0.888,0.366,1.366l-57.734,100
					C445.313-775.679,444.978-775.5,444.632-775.5z"/>
			</g>
			<g>
				<path style="fill:#C8C8C8;" d="M502.367-775.5h-57.734c-0.357,0-0.688-0.19-0.866-0.5l-28.868-50c-0.179-0.31-0.179-0.69,0-1
					l28.868-50c0.179-0.31,0.509-0.5,0.866-0.5h57.734c0.357,0,0.688,0.19,0.866,0.5l28.868,50c0.179,0.31,0.179,0.69,0,1
					l-28.868,50C503.055-775.69,502.725-775.5,502.367-775.5z M445.21-777.5h56.58l28.291-49l-28.291-49h-56.58l-28.291,49
					L445.21-777.5z"/>
			</g>
		</g>
	</g>
</g>
<g id="Isolation_Mode">
</g>
<g id="nyt_x5F_exporter_x5F_info" style="display:none;">
</g>
</svg>
