<?xml version="1.0" encoding="iso-8859-1"?>
<!-- Generator: Adobe Illustrator 16.0.3, SVG Export Plug-In . SVG Version: 6.00 Build 0)  -->
<!DOCTYPE svg PUBLIC "-//W3C//DTD SVG 1.1//EN" "http://www.w3.org/Graphics/SVG/1.1/DTD/svg11.dtd">
<svg version="1.1" xmlns="http://www.w3.org/2000/svg" xmlns:xlink="http://www.w3.org/1999/xlink" x="0px" y="0px" width="280px"
	 height="150px" viewBox="633.5 -901.5 280 150" style="enable-background:new 633.5 -901.5 280 150;" xml:space="preserve">
<g id="Layer_1">
	<g id="New_Symbol_2">
	</g>
	<g id="New_Symbol_3_">
	</g>
	<g id="New_Symbol_2_">
	</g>
	<g id="New_Symbol_1_">
	</g>
	<g id="New_Symbol">
	</g>
	<g>
		<g>
			<g>
				<g>
					<g>
						<g>
							<path style="fill:#C8C8C8;" d="M773.5-775.5c-28.121,0-51-22.878-51-51s22.879-51,51-51s51,22.878,51,51
								S801.621-775.5,773.5-775.5z M773.5-875.5c-27.019,0-49,21.981-49,49s21.981,49,49,49s49-21.981,49-49
								S800.519-875.5,773.5-875.5z"/>
						</g>
						<g>
							<path style="fill:#00D2FF;" d="M733.501-795.5c-0.305,0-0.604-0.138-0.801-0.4c-0.332-0.442-0.242-1.069,0.2-1.4l80-60
								c0.44-0.333,1.068-0.241,1.399,0.2c0.332,0.442,0.242,1.069-0.2,1.4l-80,60C733.92-795.565,733.71-795.5,733.501-795.5z"/>
						</g>
						<g>
							<g>
								<g>
									<g>
										<g style="opacity:0;">
											<rect x="633.5" y="-901.5" style="fill:#FFFFFF;" width="280" height="150"/>
										</g>
									</g>
								</g>
							</g>
						</g>
						<g>
							<g>
								<g>
									<circle style="fill:#FFFFFF;" cx="773.5" cy="-826.5" r="3"/>
									<path style="fill:#C8C8C8;" d="M773.5-828.5c1.104,0,2,0.896,2,2s-0.896,2-2,2s-2-0.896-2-2S772.396-828.5,773.5-828.5
										 M773.5-830.5c-2.205,0-4,1.794-4,4s1.795,4,4,4s4-1.794,4-4S775.705-830.5,773.5-830.5L773.5-830.5z"/>
								</g>
							</g>
						</g>
					</g>
				</g>
			</g>
			<g>
				<circle style="fill:#00D2FF;" cx="813.5" cy="-856.5" r="3"/>
			</g>
			<g>
				<circle style="fill:#00D2FF;" cx="733.5" cy="-796.5" r="3"/>
			</g>
		</g>
	</g>
</g>
<g id="Isolation_Mode">
</g>
<g id="nyt_x5F_exporter_x5F_info" style="display:none;">
</g>
</svg>
