<?xml version="1.0" encoding="iso-8859-1"?>
<!-- Generator: Adobe Illustrator 16.0.3, SVG Export Plug-In . SVG Version: 6.00 Build 0)  -->
<!DOCTYPE svg PUBLIC "-//W3C//DTD SVG 1.1//EN" "http://www.w3.org/Graphics/SVG/1.1/DTD/svg11.dtd">
<svg version="1.1" xmlns="http://www.w3.org/2000/svg" xmlns:xlink="http://www.w3.org/1999/xlink" x="0px" y="0px" width="280px"
	 height="150px" viewBox="-1166.5 -731.5 280 150" style="enable-background:new -1166.5 -731.5 280 150;" xml:space="preserve">
<g id="Layer_1">
	<g id="New_Symbol_2">
	</g>
	<g id="New_Symbol_3_">
	</g>
	<g id="New_Symbol_2_">
	</g>
	<g id="New_Symbol_1_">
	</g>
	<g id="New_Symbol">
	</g>
	<g>
		<g>
			<g>
				<g>
					<rect x="-1042.5" y="-638.5" style="opacity:0.5;fill:#FABE00;" width="16" height="16"/>
					<path style="fill:#FABE00;" d="M-1026.5-621.5h-16c-0.552,0-1-0.448-1-1v-16c0-0.552,0.448-1,1-1h16c0.552,0,1,0.448,1,1v16
						C-1025.5-621.948-1025.948-621.5-1026.5-621.5z M-1041.5-623.5h14v-14h-14V-623.5z"/>
				</g>
				<g>
					<path style="fill:#00D2FF;" d="M-1026.5-621.5c-0.552,0-1-0.448-1-1v-67c0-0.552,0.448-1,1-1s1,0.448,1,1v67
						C-1025.5-621.948-1025.948-621.5-1026.5-621.5z"/>
				</g>
				<g>
					<g>
						<g>
							<g>
								<g>
									<g>
										<g>
											<g>
												<g style="opacity:0;">
													<rect x="-1166.5" y="-731.5" style="fill:#FFFFFF;" width="280" height="150"/>
												</g>
											</g>
										</g>
									</g>
								</g>
							</g>
						</g>
					</g>
				</g>
				<g>
					<g>
						<path style="fill:#C8C8C8;" d="M-934.5-621.5h-184c-0.552,0-1-0.448-1-1s0.448-1,1-1h184c0.552,0,1,0.448,1,1
							S-933.948-621.5-934.5-621.5z"/>
					</g>
				</g>
			</g>
			<g>
				<circle style="fill:#C8C8C8;" cx="-1026.5" cy="-689.5" r="3"/>
			</g>
		</g>
	</g>
</g>
<g id="Isolation_Mode">
</g>
<g id="nyt_x5F_exporter_x5F_info" style="display:none;">
</g>
</svg>
