<?xml version="1.0" encoding="iso-8859-1"?>
<!-- Generator: Adobe Illustrator 16.0.3, SVG Export Plug-In . SVG Version: 6.00 Build 0)  -->
<!DOCTYPE svg PUBLIC "-//W3C//DTD SVG 1.1//EN" "http://www.w3.org/Graphics/SVG/1.1/DTD/svg11.dtd">
<svg version="1.1" xmlns="http://www.w3.org/2000/svg" xmlns:xlink="http://www.w3.org/1999/xlink" x="0px" y="0px" width="280px"
	 height="150px" viewBox="933.5 -901.5 280 150" style="enable-background:new 933.5 -901.5 280 150;" xml:space="preserve">
<g id="Layer_1">
	<g id="New_Symbol_2">
	</g>
	<g id="New_Symbol_3_">
	</g>
	<g id="New_Symbol_2_">
	</g>
	<g id="New_Symbol_1_">
	</g>
	<g id="New_Symbol">
	</g>
	<g>
		<g>
			<g>
				<rect x="1057.5" y="-808.5" style="opacity:0.5;fill:#FABE00;" width="16" height="16"/>
				<path style="fill:#FABE00;" d="M1073.5-791.5h-16c-0.553,0-1-0.448-1-1v-16c0-0.552,0.447-1,1-1h16c0.553,0,1,0.448,1,1v16
					C1074.5-791.948,1074.053-791.5,1073.5-791.5z M1058.5-793.5h14v-14h-14V-793.5z"/>
			</g>
			<g>
				<path style="fill:#00D2FF;" d="M1073.5-791.5c-0.553,0-1-0.448-1-1v-67c0-0.552,0.447-1,1-1s1,0.448,1,1v67
					C1074.5-791.948,1074.053-791.5,1073.5-791.5z"/>
			</g>
			<g>
				<g>
					<g>
						<g>
							<g>
								<g>
									<g>
										<g>
											<g style="opacity:0;">
												<rect x="933.5" y="-901.5" style="fill:#FFFFFF;" width="280" height="150"/>
											</g>
										</g>
									</g>
								</g>
							</g>
						</g>
					</g>
				</g>
			</g>
			<g>
				<g>
					<path style="fill:#C8C8C8;" d="M1165.5-858.5h-184c-0.553,0-1-0.448-1-1s0.447-1,1-1h184c0.553,0,1,0.448,1,1
						S1166.053-858.5,1165.5-858.5z"/>
				</g>
				<g>
					<path style="fill:#C8C8C8;" d="M1165.5-791.5h-184c-0.553,0-1-0.448-1-1s0.447-1,1-1h184c0.553,0,1,0.448,1,1
						S1166.053-791.5,1165.5-791.5z"/>
				</g>
			</g>
		</g>
	</g>
</g>
<g id="Isolation_Mode">
</g>
<g id="nyt_x5F_exporter_x5F_info" style="display:none;">
</g>
</svg>
