<?xml version="1.0" encoding="iso-8859-1"?>
<!-- Generator: Adobe Illustrator 16.0.3, SVG Export Plug-In . SVG Version: 6.00 Build 0)  -->
<!DOCTYPE svg PUBLIC "-//W3C//DTD SVG 1.1//EN" "http://www.w3.org/Graphics/SVG/1.1/DTD/svg11.dtd">
<svg version="1.1" xmlns="http://www.w3.org/2000/svg" xmlns:xlink="http://www.w3.org/1999/xlink" x="0px" y="0px" width="280px"
	 height="150px" viewBox="-866.5 -731.5 280 150" style="enable-background:new -866.5 -731.5 280 150;" xml:space="preserve">
<g id="Layer_1">
	<g id="New_Symbol_2">
	</g>
	<g id="New_Symbol_3_">
	</g>
	<g id="New_Symbol_2_">
	</g>
	<g id="New_Symbol_1_">
	</g>
	<g id="New_Symbol">
	</g>
	<g>
		<g>
			<g>
				<g>
					<g>
						<g>
							<g>
								<g>
									<g>
										<g>
											<g>
												<g>
													<g style="opacity:0;">
														<rect x="-866.5" y="-731.5" style="fill:#FFFFFF;" width="280" height="150"/>
													</g>
												</g>
											</g>
										</g>
									</g>
								</g>
							</g>
						</g>
					</g>
				</g>
			</g>
			<g>
				<path style="opacity:0.5;fill:#FABE00;" d="M-759.067-606.5H-784.5l12.762-22C-764.163-624.094-759.067-615.892-759.067-606.5z"
					/>
				<path style="fill:#FABE00;" d="M-759.047-605.5c-0.007,0-0.013,0-0.02,0H-784.5c-0.357,0-0.688-0.191-0.867-0.501
					c-0.178-0.31-0.178-0.691,0.001-1.001l12.762-22c0.133-0.229,0.353-0.396,0.609-0.465c0.257-0.066,0.53-0.031,0.759,0.103
					c8.063,4.689,13.095,13.358,13.167,22.661c0.014,0.065,0.021,0.134,0.021,0.204C-758.047-605.948-758.495-605.5-759.047-605.5z
					 M-782.764-607.5h22.676c-0.33-7.957-4.573-15.323-11.298-19.614L-782.764-607.5z"/>
			</g>
			<g>
				<path style="opacity:0.5;fill:#FABE00;" d="M-715.461-687.478v0.008c-3.244,1.886-7.016,2.97-11.039,2.97
					s-7.795-1.084-11.039-2.97v-0.008L-726.5-706.5L-715.461-687.478z"/>
				<path style="fill:#FABE00;" d="M-726.5-683.5c-4.056,0-8.047-1.074-11.542-3.105c-0.308-0.179-0.498-0.508-0.498-0.865
					c0-0.176,0.046-0.358,0.135-0.51l11.039-19.022c0.357-0.616,1.372-0.616,1.729,0l11.039,19.022
					c0.089,0.152,0.135,0.326,0.135,0.502c0,0.356-0.189,0.694-0.498,0.873C-718.453-684.574-722.444-683.5-726.5-683.5z
					 M-736.164-687.855c5.948,3.087,13.38,3.087,19.328,0l-9.664-16.653L-736.164-687.855z"/>
			</g>
			<g>
				<path style="opacity:0.5;fill:#FABE00;" d="M-668.5-606.5h-25.444c0-9.396,5.099-17.602,12.677-22L-668.5-606.5z"/>
				<path style="fill:#FABE00;" d="M-668.48-605.5c-0.007,0-0.013,0-0.02,0h-25.444c-0.552,0-1-0.448-1-1
					c0-9.387,5.048-18.149,13.175-22.865c0.229-0.133,0.502-0.171,0.759-0.102c0.256,0.068,0.475,0.235,0.608,0.464l12.68,21.849
					c0.151,0.175,0.243,0.403,0.243,0.653C-667.48-605.948-667.928-605.5-668.48-605.5z M-692.924-607.5h22.688l-11.384-19.615
					C-688.349-622.83-692.594-615.463-692.924-607.5z"/>
			</g>
			<g>
				<path style="fill:#00D2FF;" d="M-668.48-605.5c-0.007,0-0.013,0-0.02,0h-116c-0.357,0-0.688-0.191-0.867-0.501
					c-0.178-0.31-0.178-0.691,0.001-1.001l58-100c0.358-0.616,1.372-0.616,1.73,0l57.912,99.849
					c0.151,0.175,0.243,0.404,0.243,0.653C-667.48-605.948-667.928-605.5-668.48-605.5z M-782.764-607.5h112.528l-56.264-97.007
					L-782.764-607.5z"/>
			</g>
			<g>
				<path style="fill:#B4B4B4;" d="M-726.5-601.5c-0.552,0-1-0.448-1-1v-8c0-0.552,0.448-1,1-1s1,0.448,1,1v8
					C-725.5-601.948-725.948-601.5-726.5-601.5z"/>
			</g>
			<g>
				<path style="fill:#B4B4B4;" d="M-752.032-653.506c-0.169,0-0.34-0.043-0.498-0.133l-6.936-3.988
					c-0.479-0.275-0.644-0.886-0.368-1.365c0.275-0.479,0.887-0.643,1.365-0.368l6.936,3.988c0.479,0.275,0.644,0.886,0.368,1.365
					C-751.349-653.686-751.686-653.506-752.032-653.506z"/>
			</g>
			<g>
				<path style="fill:#B4B4B4;" d="M-700.929-653.497c-0.345,0-0.681-0.179-0.866-0.499c-0.277-0.478-0.114-1.09,0.364-1.366
					l6.924-4.008c0.479-0.277,1.09-0.113,1.366,0.364c0.277,0.478,0.114,1.09-0.364,1.366l-6.924,4.008
					C-700.586-653.541-700.759-653.497-700.929-653.497z"/>
			</g>
		</g>
	</g>
</g>
<g id="Isolation_Mode">
</g>
<g id="nyt_x5F_exporter_x5F_info" style="display:none;">
</g>
</svg>
