<?xml version="1.0" encoding="iso-8859-1"?>
<!-- Generator: Adobe Illustrator 16.0.3, SVG Export Plug-In . SVG Version: 6.00 Build 0)  -->
<!DOCTYPE svg PUBLIC "-//W3C//DTD SVG 1.1//EN" "http://www.w3.org/Graphics/SVG/1.1/DTD/svg11.dtd">
<svg version="1.1" xmlns="http://www.w3.org/2000/svg" xmlns:xlink="http://www.w3.org/1999/xlink" x="0px" y="0px" width="280px"
	 height="150px" viewBox="-566.5 -731.5 280 150" style="enable-background:new -566.5 -731.5 280 150;" xml:space="preserve">
<g id="Layer_1">
	<g id="New_Symbol_2">
	</g>
	<g id="New_Symbol_3_">
	</g>
	<g id="New_Symbol_2_">
	</g>
	<g id="New_Symbol_1_">
	</g>
	<g id="New_Symbol">
	</g>
	<g>
		<g>
			<g>
				<g>
					<g>
						<g>
							<g>
								<g>
									<g>
										<g>
											<g>
												<g>
													<g>
														<g>
															<g style="opacity:0;">
																<rect x="-566.5" y="-731.5" style="fill:#FFFFFF;" width="280" height="150"/>
															</g>
														</g>
													</g>
												</g>
											</g>
										</g>
									</g>
								</g>
							</g>
						</g>
					</g>
				</g>
				<g>
					<g>
						<path style="fill:#00D2FF;" d="M-452.5-605.5c-22.056,0-40-17.944-40-40s17.944-40,40-40s40,17.944,40,40
							S-430.444-605.5-452.5-605.5z M-452.5-683.5c-20.953,0-38,17.047-38,38s17.047,38,38,38s38-17.047,38-38
							S-431.547-683.5-452.5-683.5z"/>
					</g>
					<g>
						<path style="fill:#C8C8C8;" d="M-424.333-605.5H-514.5c-0.552,0-1-0.448-1-1s0.448-1,1-1h90.167c0.552,0,1,0.448,1,1
							S-423.781-605.5-424.333-605.5z"/>
					</g>
					<g>
						<path style="fill:#C8C8C8;" d="M-406.849-658.432c-0.214,0-0.43-0.068-0.612-0.209l-64.651-50.068
							c-0.437-0.338-0.517-0.966-0.178-1.403c0.339-0.437,0.967-0.516,1.403-0.178l64.651,50.068
							c0.437,0.338,0.517,0.966,0.178,1.403C-406.255-658.565-406.551-658.432-406.849-658.432z"/>
					</g>
					<g>
						<path style="fill:#FABE00;" d="M-338.5-605.5h-85.833c-0.552,0-1-0.448-1-1s0.448-1,1-1h82.909l-66.037-51.141
							c-0.437-0.338-0.517-0.966-0.178-1.403c0.338-0.437,0.967-0.516,1.403-0.178l68.349,52.932
							c0.338,0.262,0.472,0.709,0.334,1.114C-337.692-605.772-338.072-605.5-338.5-605.5z"/>
					</g>
					<g>
						<path style="fill:#FABE00;" d="M-424.333-605.5c-0.104,0-0.209-0.017-0.313-0.051c-0.524-0.173-0.809-0.739-0.636-1.263
							l17.484-52.932c0.173-0.525,0.738-0.809,1.263-0.636c0.524,0.173,0.809,0.739,0.636,1.263l-17.484,52.932
							C-423.522-605.766-423.913-605.5-424.333-605.5z"/>
					</g>
				</g>
			</g>
			<g>
				<g>
					<g>
						<circle style="fill:#FFFFFF;" cx="-452.5" cy="-645.5" r="3"/>
						<path style="fill:#00D2FF;" d="M-452.5-647.5c1.104,0,2,0.896,2,2s-0.896,2-2,2s-2-0.896-2-2S-453.604-647.5-452.5-647.5
							 M-452.5-649.5c-2.206,0-4,1.794-4,4s1.794,4,4,4s4-1.794,4-4S-450.294-649.5-452.5-649.5L-452.5-649.5z"/>
					</g>
				</g>
			</g>
		</g>
	</g>
</g>
<g id="Isolation_Mode">
</g>
<g id="nyt_x5F_exporter_x5F_info" style="display:none;">
</g>
</svg>
