<?xml version="1.0" encoding="iso-8859-1"?>
<!-- Generator: Adobe Illustrator 16.0.3, SVG Export Plug-In . SVG Version: 6.00 Build 0)  -->
<!DOCTYPE svg PUBLIC "-//W3C//DTD SVG 1.1//EN" "http://www.w3.org/Graphics/SVG/1.1/DTD/svg11.dtd">
<svg version="1.1" xmlns="http://www.w3.org/2000/svg" xmlns:xlink="http://www.w3.org/1999/xlink" x="0px" y="0px" width="280px"
	 height="150px" viewBox="-259.5 474.5 280 150" style="enable-background:new -259.5 474.5 280 150;" xml:space="preserve">
<g id="Layer_1">
	<g id="New_Symbol_2">
	</g>
	<g id="New_Symbol_3_">
	</g>
	<g id="New_Symbol_2_">
	</g>
	<g id="New_Symbol_1_">
	</g>
	<g id="New_Symbol">
	</g>
	<g>
		<g>
			<g>
				<g>
					<g>
						<g>
							<g>
								<g>
									<g>
										<g>
											<g>
												<g>
													<g>
														<g>
															<g>
																<g id="Layer_1_35_">
																	<g>
																		<g>
																			<g>
																				<g>
																					<g>
																						<g>
																							<g>
																								<g>
																									<g style="opacity:0;">
																										<rect x="-259.5" y="474.5" style="fill:#FFFFFF;" width="280" height="150"/>
																									</g>
																								</g>
																							</g>
																						</g>
																					</g>
																				</g>
																			</g>
																		</g>
																	</g>
																</g>
															</g>
														</g>
													</g>
												</g>
											</g>
										</g>
									</g>
								</g>
							</g>
						</g>
					</g>
				</g>
			</g>
			<g>
				<g>
					<g>
						<g>
							<path style="fill:#B4B4B4;" d="M-110.922,589.408l-0.238,1.359h-1.513l2.261-12.851h1.581l-1.105,6.085h0.034
								c0.578-0.866,1.683-1.513,2.924-1.513c2.125,0,3.519,1.411,3.519,3.484c0,2.754-1.921,4.998-4.573,4.998
								c-1.173,0-2.346-0.562-2.855-1.563H-110.922z M-107.318,583.798c-1.802,0-3.195,1.615-3.195,3.536
								c0,1.359,0.901,2.346,2.312,2.346c1.887,0,3.128-1.581,3.128-3.553C-105.074,584.818-105.874,583.798-107.318,583.798z"/>
						</g>
					</g>
					<g>
						<g>
							<path style="fill:#FABE00;" d="M-110.922,589.408l-0.238,1.359h-1.513l2.261-12.851h1.581l-1.105,6.085h0.034
								c0.578-0.866,1.683-1.513,2.924-1.513c2.125,0,3.519,1.411,3.519,3.484c0,2.754-1.921,4.998-4.573,4.998
								c-1.173,0-2.346-0.562-2.855-1.563H-110.922z M-107.318,583.798c-1.802,0-3.195,1.615-3.195,3.536
								c0,1.359,0.901,2.346,2.312,2.346c1.887,0,3.128-1.581,3.128-3.553C-105.074,584.818-105.874,583.798-107.318,583.798z"/>
							<path style="fill:#FABE00;" d="M-110.922,589.408l-0.238,1.359h-1.513l2.261-12.851h1.581l-1.105,6.085h0.034
								c0.578-0.866,1.683-1.513,2.924-1.513c2.125,0,3.519,1.411,3.519,3.484c0,2.754-1.921,4.998-4.573,4.998
								c-1.173,0-2.346-0.562-2.855-1.563H-110.922z M-107.318,583.798c-1.802,0-3.195,1.615-3.195,3.536
								c0,1.359,0.901,2.346,2.312,2.346c1.887,0,3.128-1.581,3.128-3.553C-105.074,584.818-105.874,583.798-107.318,583.798z"/>
						</g>
					</g>
				</g>
				<g>
					<g>
						<g>
							<path style="fill:#B4B4B4;" d="M-169.745,537.936c0,0.272-0.017,0.527-0.068,0.816l-0.884,4.98h-1.581l0.782-4.453
								c0.068-0.307,0.102-0.612,0.102-0.901c0-0.918-0.391-1.581-1.564-1.581c-1.275,0-2.278,1.054-2.567,2.669l-0.748,4.267
								h-1.581l2.261-12.851h1.581l-1.054,6.018h0.034c0.51-0.816,1.445-1.445,2.601-1.445
								C-170.68,535.454-169.745,536.508-169.745,537.936z"/>
						</g>
					</g>
					<g>
						<g>
							<path style="fill:#C8C8C8;" d="M-169.745,537.936c0,0.272-0.017,0.527-0.068,0.816l-0.884,4.98h-1.581l0.782-4.453
								c0.068-0.307,0.102-0.612,0.102-0.901c0-0.918-0.391-1.581-1.564-1.581c-1.275,0-2.278,1.054-2.567,2.669l-0.748,4.267
								h-1.581l2.261-12.851h1.581l-1.054,6.018h0.034c0.51-0.816,1.445-1.445,2.601-1.445
								C-170.68,535.454-169.745,536.508-169.745,537.936z"/>
							<path style="fill:#C8C8C8;" d="M-169.745,537.936c0,0.272-0.017,0.527-0.068,0.816l-0.884,4.98h-1.581l0.782-4.453
								c0.068-0.307,0.102-0.612,0.102-0.901c0-0.918-0.391-1.581-1.564-1.581c-1.275,0-2.278,1.054-2.567,2.669l-0.748,4.267
								h-1.581l2.261-12.851h1.581l-1.054,6.018h0.034c0.51-0.816,1.445-1.445,2.601-1.445
								C-170.68,535.454-169.745,536.508-169.745,537.936z"/>
						</g>
					</g>
				</g>
				<g>
					<g>
						<g>
							<path style="fill:#B4B4B4;" d="M-177.823,551.697c0,0.272-0.034,0.527-0.085,0.816l-0.884,4.98h-1.564l0.782-4.453
								c0.051-0.307,0.085-0.612,0.085-0.901c0-0.918-0.391-1.598-1.547-1.598c-1.479,0-2.193,1.343-2.414,2.601l-0.765,4.352
								h-1.581l0.85-4.776c0.051-0.272,0.085-0.527,0.085-0.748c0-0.85-0.408-1.428-1.411-1.428c-1.173,0-2.21,1.07-2.499,2.669
								l-0.748,4.283h-1.581l1.105-6.307c0.085-0.425,0.204-1.207,0.255-1.751h1.496l-0.17,1.31h0.034
								c0.561-0.867,1.445-1.53,2.635-1.53c1.105,0,2.074,0.51,2.329,1.649c0.663-1.037,1.632-1.649,2.855-1.649
								C-178.757,549.216-177.823,550.27-177.823,551.697z"/>
						</g>
					</g>
					<g>
						<g>
							<path style="fill:#C8C8C8;" d="M-177.823,551.697c0,0.272-0.034,0.527-0.085,0.816l-0.884,4.98h-1.564l0.782-4.453
								c0.051-0.307,0.085-0.612,0.085-0.901c0-0.918-0.391-1.598-1.547-1.598c-1.479,0-2.193,1.343-2.414,2.601l-0.765,4.352
								h-1.581l0.85-4.776c0.051-0.272,0.085-0.527,0.085-0.748c0-0.85-0.408-1.428-1.411-1.428c-1.173,0-2.21,1.07-2.499,2.669
								l-0.748,4.283h-1.581l1.105-6.307c0.085-0.425,0.204-1.207,0.255-1.751h1.496l-0.17,1.31h0.034
								c0.561-0.867,1.445-1.53,2.635-1.53c1.105,0,2.074,0.51,2.329,1.649c0.663-1.037,1.632-1.649,2.855-1.649
								C-178.757,549.216-177.823,550.27-177.823,551.697z"/>
							<path style="fill:#C8C8C8;" d="M-177.823,551.697c0,0.272-0.034,0.527-0.085,0.816l-0.884,4.98h-1.564l0.782-4.453
								c0.051-0.307,0.085-0.612,0.085-0.901c0-0.918-0.391-1.598-1.547-1.598c-1.479,0-2.193,1.343-2.414,2.601l-0.765,4.352
								h-1.581l0.85-4.776c0.051-0.272,0.085-0.527,0.085-0.748c0-0.85-0.408-1.428-1.411-1.428c-1.173,0-2.21,1.07-2.499,2.669
								l-0.748,4.283h-1.581l1.105-6.307c0.085-0.425,0.204-1.207,0.255-1.751h1.496l-0.17,1.31h0.034
								c0.561-0.867,1.445-1.53,2.635-1.53c1.105,0,2.074,0.51,2.329,1.649c0.663-1.037,1.632-1.649,2.855-1.649
								C-178.757,549.216-177.823,550.27-177.823,551.697z"/>
						</g>
					</g>
				</g>
				<g>
					<g>
						<g>
							<path style="fill:#B4B4B4;" d="M-31.367,555.858c1.173,0,2.312,0.578,2.838,1.581h0.034l0.238-1.36h1.53l-2.142,12.138
								h-1.581l0.986-5.372h-0.034c-0.578,0.884-1.7,1.496-2.94,1.496c-2.125,0-3.519-1.411-3.519-3.484
								C-35.957,558.103-34.019,555.858-31.367,555.858z M-32.081,563.032c1.785,0,3.195-1.615,3.195-3.536
								c0-1.359-0.918-2.346-2.312-2.346c-1.887,0-3.128,1.581-3.128,3.553C-34.325,562.012-33.526,563.032-32.081,563.032z"/>
						</g>
					</g>
					<g>
						<g>
							<path style="fill:#C8C8C8;" d="M-31.367,555.858c1.173,0,2.312,0.578,2.838,1.581h0.034l0.238-1.36h1.53l-2.142,12.138
								h-1.581l0.986-5.372h-0.034c-0.578,0.884-1.7,1.496-2.94,1.496c-2.125,0-3.519-1.411-3.519-3.484
								C-35.957,558.103-34.019,555.858-31.367,555.858z M-32.081,563.032c1.785,0,3.195-1.615,3.195-3.536
								c0-1.359-0.918-2.346-2.312-2.346c-1.887,0-3.128,1.581-3.128,3.553C-34.325,562.012-33.526,563.032-32.081,563.032z"/>
							<path style="fill:#C8C8C8;" d="M-31.367,555.858c1.173,0,2.312,0.578,2.838,1.581h0.034l0.238-1.36h1.53l-2.142,12.138
								h-1.581l0.986-5.372h-0.034c-0.578,0.884-1.7,1.496-2.94,1.496c-2.125,0-3.519-1.411-3.519-3.484
								C-35.957,558.103-34.019,555.858-31.367,555.858z M-32.081,563.032c1.785,0,3.195-1.615,3.195-3.536
								c0-1.359-0.918-2.346-2.312-2.346c-1.887,0-3.128,1.581-3.128,3.553C-34.325,562.012-33.526,563.032-32.081,563.032z"/>
						</g>
					</g>
				</g>
				<g>
					<g>
						<g>
							<path style="fill:#B4B4B4;" d="M-40.485,552.265c0.595,0.781,1.649,1.292,2.771,1.292c2.125,0,2.924-1.31,3.264-2.975
								l0.204-1.071h-0.034c-0.646,0.884-1.7,1.428-2.907,1.428c-2.142,0-3.501-1.462-3.501-3.502c0-2.686,1.921-4.861,4.572-4.861
								c1.309,0,2.346,0.578,2.771,1.53h0.051l0.221-1.31h1.53l-1.343,7.667c-0.408,2.312-1.445,4.471-4.845,4.471
								c-1.445,0-2.975-0.562-3.808-1.53L-40.485,552.265z M-36.796,549.646c1.819,0,3.162-1.598,3.162-3.45
								c0-1.326-0.901-2.329-2.312-2.329c-1.87,0-3.127,1.462-3.127,3.451C-39.074,548.609-38.258,549.646-36.796,549.646z"/>
						</g>
					</g>
					<g>
						<g>
							<path style="fill:#00D2FF;" d="M-40.485,552.265c0.595,0.781,1.649,1.292,2.771,1.292c2.125,0,2.924-1.31,3.264-2.975
								l0.204-1.071h-0.034c-0.646,0.884-1.7,1.428-2.907,1.428c-2.142,0-3.501-1.462-3.501-3.502c0-2.686,1.921-4.861,4.572-4.861
								c1.309,0,2.346,0.578,2.771,1.53h0.051l0.221-1.31h1.53l-1.343,7.667c-0.408,2.312-1.445,4.471-4.845,4.471
								c-1.445,0-2.975-0.562-3.808-1.53L-40.485,552.265z M-36.796,549.646c1.819,0,3.162-1.598,3.162-3.45
								c0-1.326-0.901-2.329-2.312-2.329c-1.87,0-3.127,1.462-3.127,3.451C-39.074,548.609-38.258,549.646-36.796,549.646z"/>
							<path style="fill:#00D2FF;" d="M-40.485,552.265c0.595,0.781,1.649,1.292,2.771,1.292c2.125,0,2.924-1.31,3.264-2.975
								l0.204-1.071h-0.034c-0.646,0.884-1.7,1.428-2.907,1.428c-2.142,0-3.501-1.462-3.501-3.502c0-2.686,1.921-4.861,4.572-4.861
								c1.309,0,2.346,0.578,2.771,1.53h0.051l0.221-1.31h1.53l-1.343,7.667c-0.408,2.312-1.445,4.471-4.845,4.471
								c-1.445,0-2.975-0.562-3.808-1.53L-40.485,552.265z M-36.796,549.646c1.819,0,3.162-1.598,3.162-3.45
								c0-1.326-0.901-2.329-2.312-2.329c-1.87,0-3.127,1.462-3.127,3.451C-39.074,548.609-38.258,549.646-36.796,549.646z"/>
						</g>
					</g>
				</g>
				<g>
					<g>
						<g>
							<path style="fill:#B4B4B4;" d="M-106.009,507.211c0-0.952-0.612-1.343-1.7-1.343c-0.85,0-1.785,0.391-2.414,0.884
								l-0.646-1.054c0.85-0.681,2.091-1.105,3.281-1.105c1.53,0,2.992,0.646,2.992,2.38c0,0.204-0.034,0.595-0.068,0.816
								l-0.595,3.264c-0.102,0.629-0.187,1.376-0.187,1.818h-1.445c0-0.34,0.034-0.748,0.102-1.122h-0.034
								c-0.765,0.901-1.632,1.292-2.856,1.292c-1.105,0-2.499-0.493-2.499-2.125c0-2.617,3.196-3.076,6-3.076
								C-106.026,507.517-106.009,507.363-106.009,507.211z M-106.502,508.995c-1.768,0-4.011,0.238-4.011,1.7
								c0,0.884,0.748,1.139,1.479,1.139c1.428,0,2.448-1.02,2.669-2.243l0.119-0.596H-106.502z"/>
						</g>
					</g>
					<g>
						<g>
							<path style="fill:#FABE00;" d="M-106.009,507.211c0-0.952-0.612-1.343-1.7-1.343c-0.85,0-1.785,0.391-2.414,0.884
								l-0.646-1.054c0.85-0.681,2.091-1.105,3.281-1.105c1.53,0,2.992,0.646,2.992,2.38c0,0.204-0.034,0.595-0.068,0.816
								l-0.595,3.264c-0.102,0.629-0.187,1.376-0.187,1.818h-1.445c0-0.34,0.034-0.748,0.102-1.122h-0.034
								c-0.765,0.901-1.632,1.292-2.856,1.292c-1.105,0-2.499-0.493-2.499-2.125c0-2.617,3.196-3.076,6-3.076
								C-106.026,507.517-106.009,507.363-106.009,507.211z M-106.502,508.995c-1.768,0-4.011,0.238-4.011,1.7
								c0,0.884,0.748,1.139,1.479,1.139c1.428,0,2.448-1.02,2.669-2.243l0.119-0.596H-106.502z"/>
							<path style="fill:#FABE00;" d="M-106.009,507.211c0-0.952-0.612-1.343-1.7-1.343c-0.85,0-1.785,0.391-2.414,0.884
								l-0.646-1.054c0.85-0.681,2.091-1.105,3.281-1.105c1.53,0,2.992,0.646,2.992,2.38c0,0.204-0.034,0.595-0.068,0.816
								l-0.595,3.264c-0.102,0.629-0.187,1.376-0.187,1.818h-1.445c0-0.34,0.034-0.748,0.102-1.122h-0.034
								c-0.765,0.901-1.632,1.292-2.856,1.292c-1.105,0-2.499-0.493-2.499-2.125c0-2.617,3.196-3.076,6-3.076
								C-106.026,507.517-106.009,507.363-106.009,507.211z M-106.502,508.995c-1.768,0-4.011,0.238-4.011,1.7
								c0,0.884,0.748,1.139,1.479,1.139c1.428,0,2.448-1.02,2.669-2.243l0.119-0.596H-106.502z"/>
						</g>
					</g>
				</g>
				<g>
					<path style="fill:#C8C8C8;" d="M-29.084,596.328c-0.006,0-0.013,0-0.02,0h-162.972c-0.358,0-0.69-0.192-0.868-0.503
						c-0.178-0.312-0.176-0.694,0.005-1.004l45.594-77.605c0.18-0.306,0.508-0.493,0.862-0.493h81.486
						c0.39,0,0.744,0.227,0.908,0.58l35.816,77.44c0.119,0.165,0.188,0.366,0.188,0.585
						C-28.084,595.881-28.532,596.328-29.084,596.328z M-190.329,594.328h159.66l-34.967-75.605h-80.274L-190.329,594.328z"/>
				</g>
				<g>
					<path style="fill:#FABE00;" d="M-64.996,518.723h-81.486c-0.552,0-1-0.447-1-1s0.448-1,1-1h81.486c0.552,0,1,0.447,1,1
						S-64.444,518.723-64.996,518.723z"/>
				</g>
				<g>
					<path style="fill:#FABE00;" d="M-29.104,596.328h-162.972c-0.552,0-1-0.447-1-1s0.448-1,1-1h162.972c0.552,0,1,0.447,1,1
						S-28.552,596.328-29.104,596.328z"/>
				</g>
				<g>
					<path style="fill:#C8C8C8;" d="M-53.068,544.732h-108.695c-0.552,0-1-0.447-1-1s0.448-1,1-1h108.695c0.552,0,1,0.447,1,1
						S-52.516,544.732-53.068,544.732z"/>
				</g>
				<g>
					<path style="fill:#00D2FF;" d="M-50.191,550.735h-115.001c-0.552,0-1-0.447-1-1s0.448-1,1-1h115.001c0.552,0,1,0.447,1,1
						S-49.639,550.735-50.191,550.735z"/>
				</g>
				<g>
					<path style="fill:#C8C8C8;" d="M-47.051,557.526h-122.228c-0.552,0-1-0.447-1-1s0.448-1,1-1h122.228c0.552,0,1,0.447,1,1
						S-46.499,557.526-47.051,557.526z"/>
				</g>
				<g>
					<path style="fill:#C8C8C8;" d="M-43.76,564.64h-129.698c-0.552,0-1-0.447-1-1s0.448-1,1-1H-43.76c0.552,0,1,0.447,1,1
						S-43.208,564.64-43.76,564.64z"/>
				</g>
			</g>
		</g>
	</g>
</g>
<g id="Isolation_Mode">
</g>
<g id="nyt_x5F_exporter_x5F_info" style="display:none;">
</g>
</svg>
