<?xml version="1.0" encoding="iso-8859-1"?>
<!-- Generator: Adobe Illustrator 16.0.3, SVG Export Plug-In . SVG Version: 6.00 Build 0)  -->
<!DOCTYPE svg PUBLIC "-//W3C//DTD SVG 1.1//EN" "http://www.w3.org/Graphics/SVG/1.1/DTD/svg11.dtd">
<svg version="1.1" xmlns="http://www.w3.org/2000/svg" xmlns:xlink="http://www.w3.org/1999/xlink" x="0px" y="0px" width="280px"
	 height="150px" viewBox="634.5 118.5 280 150" style="enable-background:new 634.5 118.5 280 150;" xml:space="preserve">
<g id="Layer_1">
	<g id="New_Symbol_2">
	</g>
	<g id="New_Symbol_3_">
	</g>
	<g id="New_Symbol_2_">
	</g>
	<g id="New_Symbol_1_">
	</g>
	<g id="New_Symbol">
	</g>
	<g>
		<g>
			<g>
				<g>
					<g>
						<g>
							<g>
								<g>
									<g>
										<g style="opacity:0;">
											<rect x="634.5" y="118.5" style="fill:#FFFFFF;" width="280" height="150"/>
										</g>
									</g>
								</g>
							</g>
						</g>
					</g>
				</g>
			</g>
			<g>
				<g>
					<g>
						<g>
							<g>
								<path style="fill:#B4B4B4;" d="M731.949,199.828c0.561,0.736,1.553,1.217,2.609,1.217c2,0,2.752-1.232,3.072-2.801
									l0.191-1.009h-0.031c-0.607,0.832-1.602,1.345-2.736,1.345c-2.018,0-3.299-1.377-3.299-3.298
									c0-2.528,1.809-4.577,4.307-4.577c1.232,0,2.209,0.544,2.609,1.44h0.047l0.209-1.232h1.439l-1.264,7.219
									c-0.385,2.177-1.361,4.21-4.563,4.21c-1.359,0-2.801-0.528-3.584-1.44L731.949,199.828z M735.422,197.363
									c1.713,0,2.977-1.504,2.977-3.249c0-1.249-0.848-2.193-2.176-2.193c-1.762,0-2.945,1.377-2.945,3.25
									C733.277,196.387,734.045,197.363,735.422,197.363z"/>
							</g>
							<g>
								<path style="fill:#B4B4B4;" d="M754.752,191.682v1.296h-8.42v-1.296H754.752z M754.752,194.322v1.297h-8.42v-1.297H754.752z
									"/>
							</g>
						</g>
						<g>
							<g>
								<path style="fill:#191E23;" d="M731.949,199.828c0.561,0.736,1.553,1.217,2.609,1.217c2,0,2.752-1.232,3.072-2.801
									l0.191-1.009h-0.031c-0.607,0.832-1.602,1.345-2.736,1.345c-2.018,0-3.299-1.377-3.299-3.298
									c0-2.528,1.809-4.577,4.307-4.577c1.232,0,2.209,0.544,2.609,1.44h0.047l0.209-1.232h1.439l-1.264,7.219
									c-0.385,2.177-1.361,4.21-4.563,4.21c-1.359,0-2.801-0.528-3.584-1.44L731.949,199.828z M735.422,197.363
									c1.713,0,2.977-1.504,2.977-3.249c0-1.249-0.848-2.193-2.176-2.193c-1.762,0-2.945,1.377-2.945,3.25
									C733.277,196.387,734.045,197.363,735.422,197.363z"/>
								<path style="fill:#191E23;" d="M731.949,199.828c0.561,0.736,1.553,1.217,2.609,1.217c2,0,2.752-1.232,3.072-2.801
									l0.191-1.009h-0.031c-0.607,0.832-1.602,1.345-2.736,1.345c-2.018,0-3.299-1.377-3.299-3.298
									c0-2.528,1.809-4.577,4.307-4.577c1.232,0,2.209,0.544,2.609,1.44h0.047l0.209-1.232h1.439l-1.264,7.219
									c-0.385,2.177-1.361,4.21-4.563,4.21c-1.359,0-2.801-0.528-3.584-1.44L731.949,199.828z M735.422,197.363
									c1.713,0,2.977-1.504,2.977-3.249c0-1.249-0.848-2.193-2.176-2.193c-1.762,0-2.945,1.377-2.945,3.25
									C733.277,196.387,734.045,197.363,735.422,197.363z"/>
							</g>
							<g>
								<path style="fill:#191E23;" d="M754.752,191.682v1.296h-8.42v-1.296H754.752z M754.752,194.322v1.297h-8.42v-1.297H754.752z
									"/>
								<path style="fill:#191E23;" d="M754.752,191.682v1.296h-8.42v-1.296H754.752z M754.752,194.322v1.297h-8.42v-1.297H754.752z
									"/>
							</g>
						</g>
					</g>
					<g>
						<g>
							<g>
								<path style="fill:#B4B4B4;" d="M784.881,193.502c0-0.896-0.576-1.265-1.6-1.265c-0.801,0-1.682,0.368-2.273,0.832
									l-0.607-0.992c0.799-0.64,1.969-1.04,3.088-1.04c1.441,0,2.818,0.608,2.818,2.24c0,0.192-0.033,0.561-0.064,0.769
									l-0.561,3.073c-0.096,0.593-0.176,1.297-0.176,1.713h-1.361c0-0.32,0.033-0.704,0.096-1.057h-0.031
									c-0.721,0.849-1.537,1.217-2.689,1.217c-1.039,0-2.352-0.464-2.352-2.001c0-2.465,3.008-2.897,5.65-2.897
									C784.865,193.79,784.881,193.646,784.881,193.502z M784.418,195.183c-1.666,0-3.777,0.224-3.777,1.601
									c0,0.832,0.703,1.072,1.393,1.072c1.344,0,2.305-0.96,2.512-2.112l0.113-0.561H784.418z"/>
							</g>
							<g>
								<path style="fill:#B4B4B4;" d="M791.947,194.99c-0.561,0-1.008-0.368-1.008-0.992c0-0.608,0.496-1.057,1.057-1.057
									c0.543,0,0.977,0.385,0.977,0.992C792.973,194.494,792.523,194.99,791.947,194.99z"/>
							</g>
							<g>
								<path style="fill:#B4B4B4;" d="M800.107,197.552l-0.225,1.28h-1.424l2.129-12.101h1.488l-1.039,5.73h0.031
									c0.545-0.816,1.584-1.425,2.754-1.425c2,0,3.313,1.328,3.313,3.281c0,2.593-1.809,4.706-4.307,4.706
									c-1.104,0-2.209-0.528-2.688-1.473H800.107z M803.502,192.27c-1.697,0-3.01,1.521-3.01,3.329
									c0,1.28,0.848,2.209,2.176,2.209c1.777,0,2.945-1.488,2.945-3.346C805.613,193.229,804.861,192.27,803.502,192.27z"/>
							</g>
						</g>
						<g>
							<g>
								<path style="fill:#191E23;" d="M784.881,193.502c0-0.896-0.576-1.265-1.6-1.265c-0.801,0-1.682,0.368-2.273,0.832
									l-0.607-0.992c0.799-0.64,1.969-1.04,3.088-1.04c1.441,0,2.818,0.608,2.818,2.24c0,0.192-0.033,0.561-0.064,0.769
									l-0.561,3.073c-0.096,0.593-0.176,1.297-0.176,1.713h-1.361c0-0.32,0.033-0.704,0.096-1.057h-0.031
									c-0.721,0.849-1.537,1.217-2.689,1.217c-1.039,0-2.352-0.464-2.352-2.001c0-2.465,3.008-2.897,5.65-2.897
									C784.865,193.79,784.881,193.646,784.881,193.502z M784.418,195.183c-1.666,0-3.777,0.224-3.777,1.601
									c0,0.832,0.703,1.072,1.393,1.072c1.344,0,2.305-0.96,2.512-2.112l0.113-0.561H784.418z"/>
								<path style="fill:#191E23;" d="M784.881,193.502c0-0.896-0.576-1.265-1.6-1.265c-0.801,0-1.682,0.368-2.273,0.832
									l-0.607-0.992c0.799-0.64,1.969-1.04,3.088-1.04c1.441,0,2.818,0.608,2.818,2.24c0,0.192-0.033,0.561-0.064,0.769
									l-0.561,3.073c-0.096,0.593-0.176,1.297-0.176,1.713h-1.361c0-0.32,0.033-0.704,0.096-1.057h-0.031
									c-0.721,0.849-1.537,1.217-2.689,1.217c-1.039,0-2.352-0.464-2.352-2.001c0-2.465,3.008-2.897,5.65-2.897
									C784.865,193.79,784.881,193.646,784.881,193.502z M784.418,195.183c-1.666,0-3.777,0.224-3.777,1.601
									c0,0.832,0.703,1.072,1.393,1.072c1.344,0,2.305-0.96,2.512-2.112l0.113-0.561H784.418z"/>
							</g>
							<g>
								<path style="fill:#191E23;" d="M791.947,194.99c-0.561,0-1.008-0.368-1.008-0.992c0-0.608,0.496-1.057,1.057-1.057
									c0.543,0,0.977,0.385,0.977,0.992C792.973,194.494,792.523,194.99,791.947,194.99z"/>
								<path style="fill:#191E23;" d="M791.947,194.99c-0.561,0-1.008-0.368-1.008-0.992c0-0.608,0.496-1.057,1.057-1.057
									c0.543,0,0.977,0.385,0.977,0.992C792.973,194.494,792.523,194.99,791.947,194.99z"/>
							</g>
							<g>
								<path style="fill:#191E23;" d="M800.107,197.552l-0.225,1.28h-1.424l2.129-12.101h1.488l-1.039,5.73h0.031
									c0.545-0.816,1.584-1.425,2.754-1.425c2,0,3.313,1.328,3.313,3.281c0,2.593-1.809,4.706-4.307,4.706
									c-1.104,0-2.209-0.528-2.688-1.473H800.107z M803.502,192.27c-1.697,0-3.01,1.521-3.01,3.329
									c0,1.28,0.848,2.209,2.176,2.209c1.777,0,2.945-1.488,2.945-3.346C805.613,193.229,804.861,192.27,803.502,192.27z"/>
								<path style="fill:#191E23;" d="M800.107,197.552l-0.225,1.28h-1.424l2.129-12.101h1.488l-1.039,5.73h0.031
									c0.545-0.816,1.584-1.425,2.754-1.425c2,0,3.313,1.328,3.313,3.281c0,2.593-1.809,4.706-4.307,4.706
									c-1.104,0-2.209-0.528-2.688-1.473H800.107z M803.502,192.27c-1.697,0-3.01,1.521-3.01,3.329
									c0,1.28,0.848,2.209,2.176,2.209c1.777,0,2.945-1.488,2.945-3.346C805.613,193.229,804.861,192.27,803.502,192.27z"/>
							</g>
						</g>
					</g>
				</g>
			</g>
		</g>
	</g>
	<g>
		<g>
			<g>
				<path style="fill:#191E23;" d="M768.875,205.779c-0.329,0-0.622-0.215-0.719-0.534l-3.214-10.716H760.5
					c-0.414,0-0.75-0.336-0.75-0.75s0.336-0.75,0.75-0.75h5c0.331,0,0.623,0.217,0.719,0.534l2.326,7.754l2.587-22.623
					c0.043-0.379,0.364-0.665,0.745-0.665H815.5c0.414,0,0.75,0.336,0.75,0.75s-0.336,0.75-0.75,0.75h-42.954l-2.926,25.585
					c-0.04,0.354-0.324,0.631-0.679,0.662C768.919,205.778,768.896,205.779,768.875,205.779z"/>
			</g>
		</g>
	</g>
</g>
<g id="Isolation_Mode">
</g>
<g id="nyt_x5F_exporter_x5F_info" style="display:none;">
</g>
</svg>
