<?xml version="1.0" encoding="iso-8859-1"?>
<!-- Generator: Adobe Illustrator 16.0.3, SVG Export Plug-In . SVG Version: 6.00 Build 0)  -->
<!DOCTYPE svg PUBLIC "-//W3C//DTD SVG 1.1//EN" "http://www.w3.org/Graphics/SVG/1.1/DTD/svg11.dtd">
<svg version="1.1" xmlns="http://www.w3.org/2000/svg" xmlns:xlink="http://www.w3.org/1999/xlink" x="0px" y="0px" width="280px"
	 height="150px" viewBox="933.5 118.5 280 150" style="enable-background:new 933.5 118.5 280 150;" xml:space="preserve">
<g id="Layer_1">
	<g id="New_Symbol_2">
	</g>
	<g id="New_Symbol_3_">
	</g>
	<g id="New_Symbol_2_">
	</g>
	<g id="New_Symbol_1_">
	</g>
	<g id="New_Symbol">
	</g>
	<g>
		<g>
			<g>
				<g>
					<g>
						<g>
							<g>
								<g>
									<g style="opacity:0;">
										<rect x="933.5" y="118.5" style="fill:#FFFFFF;" width="280" height="150"/>
									</g>
								</g>
							</g>
						</g>
					</g>
				</g>
			</g>
		</g>
	</g>
	<g>
		<g>
			<g>
				<g>
					<g>
						<path style="fill:#B4B4B4;" d="M1033.607,181.538c0,0.256-0.016,0.496-0.063,0.769l-0.834,4.689h-1.488l0.736-4.193
							c0.064-0.288,0.096-0.576,0.096-0.849c0-0.864-0.367-1.488-1.473-1.488c-1.199,0-2.145,0.992-2.416,2.513l-0.705,4.018h-1.488
							l2.129-12.101h1.488l-0.992,5.666h0.033c0.479-0.769,1.359-1.36,2.449-1.36
							C1032.729,179.201,1033.607,180.193,1033.607,181.538z"/>
					</g>
					<g>
						<path style="fill:#B4B4B4;" d="M1048.361,180.178v1.296h-8.42v-1.296H1048.361z M1048.361,182.818v1.297h-8.42v-1.297
							H1048.361z"/>
					</g>
				</g>
				<g>
					<g>
						<path style="fill:#191E23;" d="M1033.607,181.538c0,0.256-0.016,0.496-0.063,0.769l-0.834,4.689h-1.488l0.736-4.193
							c0.064-0.288,0.096-0.576,0.096-0.849c0-0.864-0.367-1.488-1.473-1.488c-1.199,0-2.145,0.992-2.416,2.513l-0.705,4.018h-1.488
							l2.129-12.101h1.488l-0.992,5.666h0.033c0.479-0.769,1.359-1.36,2.449-1.36
							C1032.729,179.201,1033.607,180.193,1033.607,181.538z"/>
						<path style="fill:#191E23;" d="M1033.607,181.538c0,0.256-0.016,0.496-0.063,0.769l-0.834,4.689h-1.488l0.736-4.193
							c0.064-0.288,0.096-0.576,0.096-0.849c0-0.864-0.367-1.488-1.473-1.488c-1.199,0-2.145,0.992-2.416,2.513l-0.705,4.018h-1.488
							l2.129-12.101h1.488l-0.992,5.666h0.033c0.479-0.769,1.359-1.36,2.449-1.36
							C1032.729,179.201,1033.607,180.193,1033.607,181.538z"/>
					</g>
					<g>
						<path style="fill:#191E23;" d="M1048.361,180.178v1.296h-8.42v-1.296H1048.361z M1048.361,182.818v1.297h-8.42v-1.297
							H1048.361z"/>
						<path style="fill:#191E23;" d="M1048.361,180.178v1.296h-8.42v-1.296H1048.361z M1048.361,182.818v1.297h-8.42v-1.297
							H1048.361z"/>
					</g>
				</g>
			</g>
			<g>
				<g>
					<g>
						<path style="fill:#B4B4B4;" d="M1090.369,171.832h-7.379l0.256-1.473l5.234-4.466c1.168-0.992,1.729-1.713,1.729-2.721
							c0-1.041-0.768-1.665-1.857-1.665c-1.199,0-2.033,0.769-2.369,1.889l-1.408-0.352c0.592-1.761,2.018-2.834,3.857-2.834
							c1.922,0,3.33,1.089,3.33,2.85s-0.912,2.625-2.465,3.922l-4.146,3.473h5.459L1090.369,171.832z"/>
					</g>
				</g>
				<g>
					<g>
						<path style="fill:#191E23;" d="M1090.369,171.832h-7.379l0.256-1.473l5.234-4.466c1.168-0.992,1.729-1.713,1.729-2.721
							c0-1.041-0.768-1.665-1.857-1.665c-1.199,0-2.033,0.769-2.369,1.889l-1.408-0.352c0.592-1.761,2.018-2.834,3.857-2.834
							c1.922,0,3.33,1.089,3.33,2.85s-0.912,2.625-2.465,3.922l-4.146,3.473h5.459L1090.369,171.832z"/>
						<path style="fill:#191E23;" d="M1090.369,171.832h-7.379l0.256-1.473l5.234-4.466c1.168-0.992,1.729-1.713,1.729-2.721
							c0-1.041-0.768-1.665-1.857-1.665c-1.199,0-2.033,0.769-2.369,1.889l-1.408-0.352c0.592-1.761,2.018-2.834,3.857-2.834
							c1.922,0,3.33,1.089,3.33,2.85s-0.912,2.625-2.465,3.922l-4.146,3.473h5.459L1090.369,171.832z"/>
					</g>
				</g>
			</g>
			<g>
				<g>
					<g>
						<path style="fill:#B4B4B4;" d="M1088.279,207.994h3.554v1.313h-3.554v3.553h-1.313v-3.553h-3.554v-1.313h3.554v-3.554h1.313
							V207.994z"/>
					</g>
				</g>
				<g>
					<g>
						<path style="fill:#191E23;" d="M1088.279,207.994h3.554v1.313h-3.554v3.553h-1.313v-3.553h-3.554v-1.313h3.554v-3.554h1.313
							V207.994z"/>
						<path style="fill:#191E23;" d="M1088.279,207.994h3.554v1.313h-3.554v3.553h-1.313v-3.553h-3.554v-1.313h3.554v-3.554h1.313
							V207.994z"/>
					</g>
				</g>
			</g>
			<g>
				<rect x="1056.561" y="181.082" style="fill:#191E23;" width="62.061" height="1.5"/>
			</g>
			<g>
				<g>
					<g>
						<g>
							<path style="fill:#B4B4B4;" d="M1068.488,202.832h-1.521l1.681-9.492l-2.48,1.809l-0.721-1.136l3.602-2.514h1.44
								L1068.488,202.832z"/>
						</g>
						<g>
							<path style="fill:#B4B4B4;" d="M1069.752,216.702c0-0.896-0.576-1.265-1.601-1.265c-0.801,0-1.681,0.368-2.272,0.832
								l-0.608-0.992c0.8-0.64,1.969-1.04,3.089-1.04c1.44,0,2.817,0.608,2.817,2.24c0,0.192-0.032,0.561-0.064,0.769l-0.56,3.073
								c-0.097,0.593-0.177,1.297-0.177,1.713h-1.36c0-0.32,0.032-0.704,0.096-1.057h-0.031c-0.721,0.849-1.537,1.217-2.689,1.217
								c-1.04,0-2.353-0.464-2.353-2.001c0-2.465,3.009-2.897,5.65-2.897C1069.736,216.99,1069.752,216.846,1069.752,216.702z
								 M1069.288,218.383c-1.665,0-3.777,0.224-3.777,1.601c0,0.832,0.704,1.072,1.393,1.072c1.344,0,2.305-0.96,2.513-2.112
								l0.112-0.561H1069.288z"/>
						</g>
					</g>
					<g>
						<g>
							<path style="fill:#191E23;" d="M1068.488,202.832h-1.521l1.681-9.492l-2.48,1.809l-0.721-1.136l3.602-2.514h1.44
								L1068.488,202.832z"/>
							<path style="fill:#191E23;" d="M1068.488,202.832h-1.521l1.681-9.492l-2.48,1.809l-0.721-1.136l3.602-2.514h1.44
								L1068.488,202.832z"/>
						</g>
						<g>
							<path style="fill:#191E23;" d="M1069.752,216.702c0-0.896-0.576-1.265-1.601-1.265c-0.801,0-1.681,0.368-2.272,0.832
								l-0.608-0.992c0.8-0.64,1.969-1.04,3.089-1.04c1.44,0,2.817,0.608,2.817,2.24c0,0.192-0.032,0.561-0.064,0.769l-0.56,3.073
								c-0.097,0.593-0.177,1.297-0.177,1.713h-1.36c0-0.32,0.032-0.704,0.096-1.057h-0.031c-0.721,0.849-1.537,1.217-2.689,1.217
								c-1.04,0-2.353-0.464-2.353-2.001c0-2.465,3.009-2.897,5.65-2.897C1069.736,216.99,1069.752,216.846,1069.752,216.702z
								 M1069.288,218.383c-1.665,0-3.777,0.224-3.777,1.601c0,0.832,0.704,1.072,1.393,1.072c1.344,0,2.305-0.96,2.513-2.112
								l0.112-0.561H1069.288z"/>
							<path style="fill:#191E23;" d="M1069.752,216.702c0-0.896-0.576-1.265-1.601-1.265c-0.801,0-1.681,0.368-2.272,0.832
								l-0.608-0.992c0.8-0.64,1.969-1.04,3.089-1.04c1.44,0,2.817,0.608,2.817,2.24c0,0.192-0.032,0.561-0.064,0.769l-0.56,3.073
								c-0.097,0.593-0.177,1.297-0.177,1.713h-1.36c0-0.32,0.032-0.704,0.096-1.057h-0.031c-0.721,0.849-1.537,1.217-2.689,1.217
								c-1.04,0-2.353-0.464-2.353-2.001c0-2.465,3.009-2.897,5.65-2.897C1069.736,216.99,1069.752,216.846,1069.752,216.702z
								 M1069.288,218.383c-1.665,0-3.777,0.224-3.777,1.601c0,0.832,0.704,1.072,1.393,1.072c1.344,0,2.305-0.96,2.513-2.112
								l0.112-0.561H1069.288z"/>
						</g>
					</g>
				</g>
				<g>
					<rect x="1059.061" y="207.416" style="fill:#191E23;" width="16" height="1.5"/>
				</g>
			</g>
			<g>
				<g>
					<g>
						<g>
							<path style="fill:#B4B4B4;" d="M1108.488,202.832h-1.521l1.681-9.492l-2.48,1.809l-0.721-1.136l3.602-2.514h1.44
								L1108.488,202.832z"/>
						</g>
						<g>
							<path style="fill:#B4B4B4;" d="M1105.126,220.752l-0.225,1.28h-1.424l2.129-12.101h1.488l-1.04,5.73h0.031
								c0.545-0.816,1.585-1.425,2.754-1.425c2,0,3.313,1.328,3.313,3.281c0,2.593-1.809,4.706-4.306,4.706
								c-1.104,0-2.209-0.528-2.688-1.473H1105.126z M1108.52,215.47c-1.697,0-3.01,1.521-3.01,3.329
								c0,1.28,0.849,2.209,2.177,2.209c1.777,0,2.945-1.488,2.945-3.346C1110.632,216.43,1109.88,215.47,1108.52,215.47z"/>
						</g>
					</g>
					<g>
						<g>
							<path style="fill:#191E23;" d="M1108.488,202.832h-1.521l1.681-9.492l-2.48,1.809l-0.721-1.136l3.602-2.514h1.44
								L1108.488,202.832z"/>
							<path style="fill:#191E23;" d="M1108.488,202.832h-1.521l1.681-9.492l-2.48,1.809l-0.721-1.136l3.602-2.514h1.44
								L1108.488,202.832z"/>
						</g>
						<g>
							<path style="fill:#191E23;" d="M1105.126,220.752l-0.225,1.28h-1.424l2.129-12.101h1.488l-1.04,5.73h0.031
								c0.545-0.816,1.585-1.425,2.754-1.425c2,0,3.313,1.328,3.313,3.281c0,2.593-1.809,4.706-4.306,4.706
								c-1.104,0-2.209-0.528-2.688-1.473H1105.126z M1108.52,215.47c-1.697,0-3.01,1.521-3.01,3.329
								c0,1.28,0.849,2.209,2.177,2.209c1.777,0,2.945-1.488,2.945-3.346C1110.632,216.43,1109.88,215.47,1108.52,215.47z"/>
							<path style="fill:#191E23;" d="M1105.126,220.752l-0.225,1.28h-1.424l2.129-12.101h1.488l-1.04,5.73h0.031
								c0.545-0.816,1.585-1.425,2.754-1.425c2,0,3.313,1.328,3.313,3.281c0,2.593-1.809,4.706-4.306,4.706
								c-1.104,0-2.209-0.528-2.688-1.473H1105.126z M1108.52,215.47c-1.697,0-3.01,1.521-3.01,3.329
								c0,1.28,0.849,2.209,2.177,2.209c1.777,0,2.945-1.488,2.945-3.346C1110.632,216.43,1109.88,215.47,1108.52,215.47z"/>
						</g>
					</g>
				</g>
				<g>
					<rect x="1099.061" y="207.416" style="fill:#191E23;" width="16" height="1.5"/>
				</g>
			</g>
		</g>
	</g>
</g>
<g id="Isolation_Mode">
</g>
<g id="nyt_x5F_exporter_x5F_info" style="display:none;">
</g>
</svg>
