<?xml version="1.0" encoding="iso-8859-1"?>
<!-- Generator: Adobe Illustrator 16.0.3, SVG Export Plug-In . SVG Version: 6.00 Build 0)  -->
<!DOCTYPE svg PUBLIC "-//W3C//DTD SVG 1.1//EN" "http://www.w3.org/Graphics/SVG/1.1/DTD/svg11.dtd">
<svg version="1.1" xmlns="http://www.w3.org/2000/svg" xmlns:xlink="http://www.w3.org/1999/xlink" x="0px" y="0px" width="280px"
	 height="150px" viewBox="-266.5 -731.5 280 150" style="enable-background:new -266.5 -731.5 280 150;" xml:space="preserve">
<g id="Layer_1">
	<g id="New_Symbol_2">
	</g>
	<g id="New_Symbol_3_">
	</g>
	<g id="New_Symbol_2_">
	</g>
	<g id="New_Symbol_1_">
	</g>
	<g id="New_Symbol">
	</g>
	<g>
		<g>
			<g id="Layer_1_134_">
				<g>
					<g>
						<g>
							<g>
								<g>
									<g>
										<g>
											<g>
												<g style="opacity:0;">
													<rect x="-266.5" y="-731.5" style="fill:#FFFFFF;" width="280" height="150"/>
												</g>
											</g>
										</g>
									</g>
								</g>
							</g>
						</g>
					</g>
				</g>
			</g>
			<g>
				<path style="fill:#00D2FF;" d="M-132.222-600.5c-0.105,0-0.21-0.017-0.312-0.05l-59.278-19.438
					c-0.424-0.139-0.704-0.542-0.688-0.987l1.842-49.594c0.009-0.243,0.106-0.474,0.273-0.65l38.75-40.968
					c0.257-0.272,0.644-0.38,1.004-0.273l61.061,17.668c0.261,0.075,0.479,0.253,0.606,0.493l28.348,53.659
					c0.255,0.483,0.075,1.083-0.404,1.345l-70.722,38.673C-131.891-600.542-132.056-600.5-132.222-600.5z M-190.473-621.654
					l58.151,19.069l69.477-37.992l-27.689-52.412l-60.067-17.381l-38.072,40.251L-190.473-621.654z"/>
			</g>
		</g>
	</g>
</g>
<g id="Isolation_Mode">
</g>
<g id="nyt_x5F_exporter_x5F_info" style="display:none;">
</g>
</svg>
