<?xml version="1.0" encoding="iso-8859-1"?>
<!-- Generator: Adobe Illustrator 16.0.3, SVG Export Plug-In . SVG Version: 6.00 Build 0)  -->
<!DOCTYPE svg PUBLIC "-//W3C//DTD SVG 1.1//EN" "http://www.w3.org/Graphics/SVG/1.1/DTD/svg11.dtd">
<svg version="1.1" xmlns="http://www.w3.org/2000/svg" xmlns:xlink="http://www.w3.org/1999/xlink" x="0px" y="0px" width="280px"
	 height="150px" viewBox="33.5 -731.5 280 150" style="enable-background:new 33.5 -731.5 280 150;" xml:space="preserve">
<g id="Layer_1">
	<g id="New_Symbol_2">
	</g>
	<g id="New_Symbol_3_">
	</g>
	<g id="New_Symbol_2_">
	</g>
	<g id="New_Symbol_1_">
	</g>
	<g id="New_Symbol">
	</g>
	<g>
		<g>
			<g>
				<g>
					<g>
						<g>
							<g style="opacity:0;">
								<rect x="33.5" y="-731.5" style="fill:#FFFFFF;" width="280" height="150"/>
							</g>
						</g>
					</g>
				</g>
				<g>
					<path style="opacity:0.5;fill:#FABE00;" d="M158.63-606.5h-14l-7-12.117c2.058-1.196,4.452-1.883,7-1.883
						C152.365-620.5,158.63-614.234,158.63-606.5z"/>
					<path style="fill:#FABE00;" d="M158.649-605.5c-0.004,0-0.012,0-0.02,0h-14c-0.357,0-0.688-0.19-0.866-0.5l-7-12.117
						c-0.275-0.477-0.113-1.087,0.363-1.365c2.271-1.32,4.866-2.018,7.503-2.018c8.202,0,14.888,6.617,14.999,14.793
						c0.014,0.066,0.021,0.136,0.021,0.207C159.649-605.948,159.202-605.5,158.649-605.5z M145.207-607.5h12.385
						c-0.513-6.703-6.13-12-12.962-12c-1.949,0-3.872,0.44-5.616,1.28L145.207-607.5z"/>
				</g>
				<g>
					<path style="opacity:0.5;fill:#FABE00;" d="M231.24-656.5l-7,12.117c-4.186-2.414-7-6.937-7-12.117
						c0-5.18,2.814-9.702,7-12.117L231.24-656.5z"/>
					<path style="fill:#FABE00;" d="M224.239-643.383c-0.17,0-0.341-0.043-0.499-0.134c-4.626-2.668-7.5-7.643-7.5-12.983
						c0-5.339,2.874-10.314,7.5-12.983c0.477-0.277,1.09-0.113,1.366,0.366l7,12.117c0.179,0.309,0.179,0.691,0,1l-7,12.117
						C224.921-643.562,224.585-643.383,224.239-643.383z M223.894-667.218c-3.51,2.406-5.653,6.426-5.653,10.718
						c0,4.292,2.144,8.313,5.653,10.718l6.191-10.718L223.894-667.218z"/>
				</g>
				<g>
					<path style="opacity:0.5;fill:#FABE00;" d="M209.377-618.631l-7.008,12.131h-13.965c0-7.734,6.271-14,14-14
						C204.945-620.5,207.326-619.82,209.377-618.631z"/>
					<path style="fill:#FABE00;" d="M202.369-605.5h-13.965c-0.553,0-1-0.448-1-1c0-8.271,6.729-15,15-15
						c2.629,0,5.214,0.693,7.475,2.004c0.477,0.277,0.64,0.888,0.364,1.365L203.235-606C203.057-605.69,202.727-605.5,202.369-605.5
						z M189.442-607.5h12.35l6.2-10.733c-1.734-0.831-3.646-1.267-5.588-1.267C195.572-619.5,189.955-614.203,189.442-607.5z"/>
				</g>
				<g>
					<path style="opacity:0.5;fill:#FABE00;" d="M129.76-656.5c0,5.181-2.813,9.703-7,12.117l-7-12.117l7-12.117
						C126.946-666.202,129.76-661.68,129.76-656.5z"/>
					<path style="fill:#FABE00;" d="M122.761-643.383c-0.346,0-0.682-0.179-0.867-0.5l-7-12.117c-0.179-0.309-0.179-0.691,0-1
						l7-12.117c0.275-0.479,0.886-0.643,1.366-0.366c4.626,2.669,7.5,7.644,7.5,12.983c0,5.341-2.874,10.316-7.5,12.983
						C123.102-643.426,122.93-643.383,122.761-643.383z M116.915-656.5l6.191,10.718c3.51-2.405,5.653-6.425,5.653-10.718
						c0-4.292-2.144-8.313-5.653-10.718L116.915-656.5z"/>
				</g>
				<g>
					<path style="opacity:0.5;fill:#FABE00;" d="M158.63-706.5c0,7.734-6.265,14-14,14c-2.548,0-4.942-0.686-7-1.883l7-12.117
						H158.63z"/>
					<path style="fill:#FABE00;" d="M144.63-691.5c-2.639,0-5.233-0.698-7.503-2.019c-0.477-0.277-0.639-0.887-0.363-1.364l7-12.117
						c0.179-0.31,0.509-0.5,0.866-0.5h14c0.553,0,1,0.448,1,1C159.63-698.229,152.901-691.5,144.63-691.5z M139.014-694.779
						c1.743,0.839,3.665,1.279,5.616,1.279c6.832,0,12.449-5.297,12.962-12h-12.385L139.014-694.779z"/>
				</g>
				<g>
					<path style="opacity:0.5;fill:#FABE00;" d="M209.377-694.369c-2.051,1.19-4.432,1.869-6.973,1.869c-7.729,0-14-6.266-14-14
						h13.965L209.377-694.369z"/>
					<path style="fill:#FABE00;" d="M202.404-691.5c-8.271,0-15-6.729-15-15c0-0.552,0.447-1,1-1h13.965
						c0.357,0,0.688,0.19,0.866,0.5l7.008,12.131c0.275,0.478,0.112,1.088-0.364,1.365C207.62-692.193,205.035-691.5,202.404-691.5z
						 M189.442-705.5c0.513,6.703,6.13,12,12.962,12c1.942,0,3.855-0.436,5.588-1.267l-6.2-10.733H189.442z"/>
				</g>
				<g>
					<path style="fill:#00D2FF;" d="M202.367-605.5h-57.734c-0.357,0-0.688-0.19-0.866-0.5l-28.868-50c-0.179-0.31-0.179-0.69,0-1
						l28.868-50c0.179-0.31,0.509-0.5,0.866-0.5h57.734c0.357,0,0.688,0.19,0.866,0.5l28.869,50c0.179,0.31,0.179,0.69,0,1
						l-28.869,50C203.055-605.69,202.725-605.5,202.367-605.5z M145.21-607.5h56.58l28.292-49l-28.292-49h-56.58l-28.291,49
						L145.21-607.5z"/>
				</g>
			</g>
			<g>
				<path style="fill:#B4B4B4;" d="M173.5-601.5c-0.553,0-1-0.448-1-1v-8c0-0.552,0.447-1,1-1s1,0.448,1,1v8
					C174.5-601.948,174.053-601.5,173.5-601.5z"/>
			</g>
			<g>
				<path style="fill:#B4B4B4;" d="M173.5-701.5c-0.553,0-1-0.448-1-1v-8c0-0.552,0.447-1,1-1s1,0.448,1,1v8
					C174.5-701.948,174.053-701.5,173.5-701.5z"/>
			</g>
			<g>
				<path style="fill:#B4B4B4;" d="M173.5-601.5c-0.553,0-1-0.448-1-1v-8c0-0.552,0.447-1,1-1s1,0.448,1,1v8
					C174.5-601.948,174.053-601.5,173.5-601.5z"/>
			</g>
			<g>
				<path style="fill:#B4B4B4;" d="M173.5-701.5c-0.553,0-1-0.448-1-1v-8c0-0.552,0.447-1,1-1s1,0.448,1,1v8
					C174.5-701.948,174.053-701.5,173.5-701.5z"/>
			</g>
			<g>
				<path style="fill:#B4B4B4;" d="M220.265-628.5c-0.17,0-0.342-0.043-0.499-0.134l-6.928-4c-0.479-0.276-0.643-0.888-0.366-1.366
					c0.275-0.479,0.889-0.643,1.366-0.366l6.928,4c0.479,0.276,0.643,0.888,0.366,1.366C220.946-628.679,220.61-628.5,220.265-628.5
					z"/>
			</g>
			<g>
				<path style="fill:#B4B4B4;" d="M133.662-678.5c-0.17,0-0.342-0.043-0.499-0.134l-6.929-4c-0.479-0.276-0.643-0.888-0.366-1.366
					c0.276-0.479,0.888-0.642,1.366-0.366l6.929,4c0.479,0.276,0.643,0.888,0.366,1.366
					C134.344-678.679,134.008-678.5,133.662-678.5z"/>
			</g>
			<g>
				<path style="fill:#B4B4B4;" d="M213.339-678.5c-0.346,0-0.682-0.179-0.867-0.5c-0.276-0.478-0.112-1.09,0.366-1.366l6.928-4
					c0.477-0.276,1.089-0.113,1.366,0.366c0.276,0.478,0.112,1.09-0.366,1.366l-6.928,4
					C213.681-678.543,213.509-678.5,213.339-678.5z"/>
			</g>
			<g>
				<path style="fill:#B4B4B4;" d="M126.735-628.5c-0.346,0-0.682-0.179-0.867-0.5c-0.276-0.479-0.112-1.09,0.366-1.366l6.93-4
					c0.476-0.276,1.089-0.113,1.366,0.366c0.276,0.479,0.112,1.09-0.366,1.366l-6.93,4C127.077-628.543,126.905-628.5,126.735-628.5
					z"/>
			</g>
		</g>
	</g>
</g>
<g id="Isolation_Mode">
</g>
<g id="nyt_x5F_exporter_x5F_info" style="display:none;">
</g>
</svg>
