<?xml version="1.0" encoding="iso-8859-1"?>
<!-- Generator: Adobe Illustrator 16.0.3, SVG Export Plug-In . SVG Version: 6.00 Build 0)  -->
<!DOCTYPE svg PUBLIC "-//W3C//DTD SVG 1.1//EN" "http://www.w3.org/Graphics/SVG/1.1/DTD/svg11.dtd">
<svg version="1.1" xmlns="http://www.w3.org/2000/svg" xmlns:xlink="http://www.w3.org/1999/xlink" x="0px" y="0px" width="280px"
	 height="150px" viewBox="33.5 628.5 280 150" style="enable-background:new 33.5 628.5 280 150;" xml:space="preserve">
<g id="Layer_1">
	<g id="New_Symbol_2">
	</g>
	<g id="New_Symbol_3_">
	</g>
	<g id="New_Symbol_2_">
	</g>
	<g id="New_Symbol_1_">
	</g>
	<g id="New_Symbol">
	</g>
	<g>
		<g>
			<g>
				<g>
					<g>
						<g>
							<g style="opacity:0;">
								<rect x="33.5" y="628.5" style="fill:#FFFFFF;" width="280" height="150"/>
							</g>
						</g>
					</g>
				</g>
				<g>
					<path style="fill:#E1E1E1;" d="M202.367,754.5h-57.734c-0.357,0-0.688-0.19-0.866-0.5l-28.868-50c-0.179-0.31-0.179-0.69,0-1
						l28.868-50c0.179-0.31,0.509-0.5,0.866-0.5h57.734c0.357,0,0.688,0.19,0.866,0.5l28.869,50c0.179,0.31,0.179,0.69,0,1
						l-28.869,50C203.055,754.31,202.725,754.5,202.367,754.5z M145.21,752.5h56.58l28.292-49l-28.292-49h-56.58l-28.291,49
						L145.21,752.5z"/>
				</g>
			</g>
		</g>
	</g>
	<g>
		<path style="fill:#00D2FF;" d="M231.236,704.5H115.765c-0.553,0-1-0.447-1-1s0.447-1,1-1h115.472c0.553,0,1,0.447,1,1
			S231.789,704.5,231.236,704.5z"/>
	</g>
	<g>
		<path style="fill:#00D2FF;" d="M202.368,754.502c-0.346,0-0.682-0.179-0.867-0.5l-57.734-100.003
			c-0.276-0.479-0.112-1.09,0.366-1.366c0.476-0.275,1.089-0.113,1.366,0.366l57.734,100.003c0.276,0.479,0.112,1.09-0.366,1.366
			C202.71,754.459,202.538,754.502,202.368,754.502z"/>
	</g>
	<g>
		<path style="fill:#00D2FF;" d="M144.629,754.5c-0.17,0-0.342-0.043-0.499-0.134c-0.479-0.276-0.643-0.888-0.366-1.366l57.739-100
			c0.276-0.479,0.889-0.643,1.366-0.366c0.479,0.276,0.643,0.888,0.366,1.366l-57.739,100
			C145.311,754.321,144.975,754.5,144.629,754.5z"/>
	</g>
</g>
<g id="Isolation_Mode">
</g>
<g id="nyt_x5F_exporter_x5F_info" style="display:none;">
</g>
</svg>
