<?xml version="1.0" encoding="iso-8859-1"?>
<!-- Generator: Adobe Illustrator 16.0.3, SVG Export Plug-In . SVG Version: 6.00 Build 0)  -->
<!DOCTYPE svg PUBLIC "-//W3C//DTD SVG 1.1//EN" "http://www.w3.org/Graphics/SVG/1.1/DTD/svg11.dtd">
<svg version="1.1" xmlns="http://www.w3.org/2000/svg" xmlns:xlink="http://www.w3.org/1999/xlink" x="0px" y="0px" width="280px"
	 height="150px" viewBox="333.5 -731.5 280 150" style="enable-background:new 333.5 -731.5 280 150;" xml:space="preserve">
<g id="Layer_1">
	<g id="New_Symbol_2">
	</g>
	<g id="New_Symbol_3_">
	</g>
	<g id="New_Symbol_2_">
	</g>
	<g id="New_Symbol_1_">
	</g>
	<g id="New_Symbol">
	</g>
	<g>
		<g>
			<g>
				<g>
					<g>
						<g>
							<g>
								<g>
									<g style="opacity:0;">
										<rect x="333.5" y="-731.5" style="fill:#FFFFFF;" width="280" height="150"/>
									</g>
								</g>
							</g>
						</g>
					</g>
				</g>
				<g>
					<path style="fill:#00D2FF;" d="M473.5-611.5c-24.813,0-45-20.187-45-45s20.187-45,45-45s45,20.187,45,45
						S498.313-611.5,473.5-611.5z M473.5-699.5c-23.71,0-43,19.29-43,43s19.29,43,43,43s43-19.29,43-43S497.21-699.5,473.5-699.5z"
						/>
				</g>
				<g>
					<path style="fill:#00D2FF;" d="M473.5-658.5c1.104,0,2,0.896,2,2s-0.896,2-2,2s-2-0.896-2-2S472.396-658.5,473.5-658.5
						 M473.5-660.5c-2.206,0-4,1.794-4,4s1.794,4,4,4s4-1.794,4-4S475.706-660.5,473.5-660.5L473.5-660.5z"/>
				</g>
			</g>
			<g>
				<path style="fill:#C8C8C8;" d="M515.465-605.5c-0.044,0-0.088-0.003-0.132-0.009l-75.631-10.083
					c-0.387-0.051-0.708-0.323-0.823-0.695l-22.281-71.9c-0.082-0.265-0.051-0.551,0.087-0.792c0.137-0.241,0.368-0.414,0.638-0.478
					l102.21-24.225c0.302-0.073,0.625,0.002,0.866,0.202c0.241,0.199,0.376,0.5,0.363,0.812l-4.298,106.208
					c-0.011,0.281-0.141,0.544-0.355,0.725C515.927-605.582,515.699-605.5,515.465-605.5z M440.6-617.49l73.91,9.854l4.2-103.794
					l-99.885,23.673L440.6-617.49z"/>
			</g>
		</g>
	</g>
</g>
<g id="Isolation_Mode">
</g>
<g id="nyt_x5F_exporter_x5F_info" style="display:none;">
</g>
</svg>
