<?xml version="1.0" encoding="iso-8859-1"?>
<!-- Generator: Adobe Illustrator 16.0.3, SVG Export Plug-In . SVG Version: 6.00 Build 0)  -->
<!DOCTYPE svg PUBLIC "-//W3C//DTD SVG 1.1//EN" "http://www.w3.org/Graphics/SVG/1.1/DTD/svg11.dtd">
<svg version="1.1" xmlns="http://www.w3.org/2000/svg" xmlns:xlink="http://www.w3.org/1999/xlink" x="0px" y="0px" width="280px"
	 height="150px" viewBox="633.5 -731.5 280 150" style="enable-background:new 633.5 -731.5 280 150;" xml:space="preserve">
<g id="Layer_1">
	<g id="New_Symbol_2">
	</g>
	<g id="New_Symbol_3_">
	</g>
	<g id="New_Symbol_2_">
	</g>
	<g id="New_Symbol_1_">
	</g>
	<g id="New_Symbol">
	</g>
	<g>
		<g>
			<g>
				<path style="opacity:0.5;fill:#FABE00;" d="M754.952-692.131c-0.59,0.084-1.18,0.127-1.79,0.131
					c-2.77,0.016-5.354-0.779-7.532-2.158L753.084-706L754.952-692.131z"/>
				<path style="fill:#FABE00;" d="M753.082-691c-2.834,0-5.596-0.8-7.987-2.313c-0.466-0.295-0.604-0.911-0.312-1.378l7.454-11.842
					c0.225-0.356,0.652-0.534,1.059-0.444c0.412,0.089,0.723,0.426,0.779,0.844l1.868,13.869c0.073,0.544-0.307,1.046-0.851,1.124
					c-0.636,0.09-1.265,0.136-1.924,0.141C753.166-691,753.084-691,753.082-691z M747.028-694.502
					c1.86,0.986,3.934,1.502,6.054,1.502v1l0.074-1c0.226-0.001,0.447-0.009,0.667-0.021l-1.362-10.112L747.028-694.502z"/>
			</g>
			<g>
				<path style="opacity:0.5;fill:#FABE00;" d="M766.479-693.569c-2.833,3.056-6.608,5.132-10.957,5.68L753.084-706L766.479-693.569
					z"/>
				<path style="fill:#FABE00;" d="M755.521-686.89c-0.494,0-0.923-0.365-0.99-0.867l-2.438-18.11
					c-0.057-0.418,0.156-0.827,0.531-1.021c0.374-0.195,0.83-0.133,1.141,0.155l13.396,12.431c0.404,0.375,0.428,1.008,0.053,1.413
					c-3.114,3.359-7.113,5.431-11.565,5.992C755.605-686.892,755.563-686.89,755.521-686.89z M754.447-703.371l1.93,14.337
					c3.268-0.605,6.232-2.144,8.67-4.5L754.447-703.371z"/>
			</g>
			<g>
				<path style="opacity:0.5;fill:#FABE00;" d="M706.749-603.5H688.5l16.008-8.771C705.928-609.664,706.749-606.68,706.749-603.5z"
					/>
				<path style="fill:#FABE00;" d="M706.769-602.5c-0.004,0.001-0.012,0-0.02,0H688.5c-0.457,0-0.855-0.31-0.969-0.752
					s0.088-0.906,0.488-1.125l16.008-8.771c0.232-0.128,0.508-0.159,0.762-0.083c0.255,0.075,0.47,0.248,0.597,0.481
					c1.514,2.778,2.328,5.901,2.362,9.044c0.014,0.066,0.021,0.135,0.021,0.206C707.769-602.948,707.321-602.5,706.769-602.5z
					 M692.406-604.5h13.313c-0.13-2.208-0.688-4.388-1.636-6.399L692.406-604.5z"/>
			</g>
			<g>
				<path style="opacity:0.5;fill:#FABE00;" d="M700.78-610.23l-12.28,6.73l7.52-11.8C698-614.04,699.64-612.3,700.78-610.23z"/>
				<path style="fill:#FABE00;" d="M688.5-602.5c-0.27,0-0.536-0.109-0.73-0.316c-0.312-0.333-0.358-0.836-0.113-1.221l7.52-11.8
					c0.298-0.465,0.914-0.602,1.381-0.306c2.122,1.35,3.886,3.228,5.1,5.43c0.128,0.233,0.158,0.507,0.084,0.762
					c-0.074,0.255-0.246,0.47-0.479,0.598l-12.28,6.73C688.829-602.54,688.664-602.5,688.5-602.5z M696.305-613.887l-4.866,7.636
					l7.948-4.356C698.558-611.868,697.513-612.981,696.305-613.887z"/>
			</g>
			<g>
				<path style="fill:#FABE00;" d="M710.848-602.5c-0.004,0.001-0.012,0-0.02,0H688.5c-0.456,0-0.854-0.309-0.969-0.751
					c-0.113-0.442,0.087-0.905,0.486-1.125l19.584-10.791c0.234-0.129,0.511-0.158,0.764-0.083c0.256,0.075,0.471,0.249,0.598,0.483
					c1.842,3.396,2.83,7.217,2.864,11.063c0.014,0.066,0.021,0.135,0.021,0.205C711.848-602.948,711.4-602.5,710.848-602.5z
					 M692.387-604.5h17.418c-0.137-2.91-0.868-5.785-2.141-8.418L692.387-604.5z"/>
			</g>
			<g>
				<path style="fill:#FABE00;" d="M688.5-602.5c-0.27,0-0.536-0.109-0.73-0.317c-0.312-0.333-0.358-0.835-0.113-1.221l9.802-15.378
					c0.299-0.464,0.916-0.603,1.38-0.306c2.723,1.73,4.986,4.14,6.546,6.967c0.128,0.232,0.158,0.507,0.084,0.762
					c-0.074,0.255-0.246,0.471-0.479,0.598l-16.008,8.771C688.829-602.54,688.664-602.5,688.5-602.5z M698.593-617.474
					l-7.153,11.223l11.683-6.401C701.938-614.533,700.394-616.175,698.593-617.474z"/>
			</g>
			<g>
				<path style="opacity:0.5;fill:#FABE00;" d="M863.5-603.5h-27.271c0-3.507,0.662-6.878,1.889-9.956L863.5-603.5z"/>
				<path style="fill:#FABE00;" d="M863.52-602.5c-0.005,0.001-0.013,0-0.02,0h-27.271c-0.553,0-1-0.448-1-1
					c0-3.589,0.659-7.063,1.96-10.326c0.203-0.512,0.781-0.76,1.294-0.561l25.285,9.918c0.432,0.11,0.751,0.502,0.751,0.969
					C864.52-602.948,864.072-602.5,863.52-602.5z M837.248-604.5h20.964l-19.515-7.655
					C837.832-609.708,837.346-607.142,837.248-604.5z"/>
			</g>
			<g>
				<path style="fill:#FABE00;" d="M863.52-602.5c-0.005,0.001-0.013,0-0.02,0h-31.363c-0.553,0-1-0.448-1-1
					c0-4.119,0.756-8.096,2.247-11.821c0.204-0.511,0.784-0.757,1.294-0.56l29.091,11.412c0.432,0.11,0.751,0.502,0.751,0.969
					C864.52-602.948,864.072-602.5,863.52-602.5z M833.152-604.5h25.06l-23.324-9.149
					C833.836-610.737,833.254-607.668,833.152-604.5z"/>
			</g>
			<g>
				<path style="opacity:0.5;fill:#FABE00;" d="M863.5-603.5l-21.852-8.57c1.072-2.767,2.666-5.264,4.645-7.395L863.5-603.5z"/>
				<path style="fill:#FABE00;" d="M863.5-602.5c-0.122,0-0.246-0.022-0.365-0.069l-21.852-8.57
					c-0.513-0.201-0.767-0.779-0.567-1.292c1.103-2.843,2.732-5.438,4.845-7.714c0.374-0.405,1.008-0.428,1.412-0.052l17.098,15.862
					c0.271,0.179,0.449,0.486,0.449,0.835c0,0.552-0.447,1-1,1C863.513-602.499,863.506-602.5,863.5-602.5z M842.962-612.629
					l15.985,6.27l-12.586-11.677C844.961-616.391,843.821-614.578,842.962-612.629z"/>
			</g>
			<g>
				<path style="fill:#FABE00;" d="M863.5-602.5c-0.122,0-0.246-0.022-0.365-0.069l-25.382-9.956
					c-0.513-0.201-0.766-0.779-0.567-1.292c1.271-3.285,3.153-6.282,5.596-8.91c0.378-0.405,1.009-0.426,1.413-0.052l19.876,18.443
					c0.271,0.179,0.449,0.486,0.449,0.835c0,0.552-0.447,1-1,1C863.513-602.499,863.506-602.5,863.5-602.5z M839.428-614.017
					l19.521,7.657l-15.369-14.261C841.853-618.619,840.461-616.404,839.428-614.017z"/>
			</g>
			<g>
				<path style="fill:#FABE00;" d="M863.52-602.5c-0.005,0.001-0.013,0-0.02,0h-35.452c-0.553,0-1-0.448-1-1
					c0-4.636,0.852-9.114,2.531-13.309c0.206-0.51,0.785-0.758,1.294-0.56l32.896,12.9c0.432,0.11,0.751,0.502,0.751,0.969
					C864.52-602.948,864.072-602.5,863.52-602.5z M829.062-604.5h29.149l-27.13-10.639
					C829.843-611.755,829.165-608.186,829.062-604.5z"/>
			</g>
			<g>
				<path style="fill:#FABE00;" d="M863.5-602.5c-0.122,0-0.246-0.022-0.365-0.069l-29.188-11.449
					c-0.513-0.201-0.766-0.779-0.567-1.292c1.455-3.759,3.609-7.19,6.405-10.198c0.378-0.405,1.008-0.426,1.413-0.052l22.872,21.225
					c0.271,0.179,0.449,0.486,0.449,0.835c0,0.552-0.447,1-1,1C863.513-602.499,863.506-602.5,863.5-602.5z M835.62-615.51
					l23.328,9.15l-18.366-17.043C838.504-621.019,836.84-618.371,835.62-615.51z"/>
			</g>
			<g>
				<line style="fill:#E1E1E1;" x1="688.5" y1="-603.5" x2="814.5" y2="-672.541"/>
				<path style="fill:#FABE00;" d="M688.501-602.5c-0.354,0-0.696-0.188-0.878-0.52c-0.266-0.484-0.088-1.092,0.396-1.357
					l126-69.041c0.484-0.266,1.093-0.088,1.357,0.396c0.266,0.484,0.088,1.092-0.396,1.357l-126,69.041
					C688.828-602.54,688.663-602.5,688.501-602.5z"/>
			</g>
			<g>
				<line style="fill:#E1E1E1;" x1="753.084" y1="-706" x2="768.367" y2="-592.5"/>
				<path style="fill:#FABE00;" d="M768.366-591.5c-0.493,0-0.923-0.364-0.99-0.867l-15.283-113.5
					c-0.073-0.547,0.311-1.051,0.857-1.125c0.561-0.071,1.051,0.311,1.125,0.858l15.283,113.5c0.073,0.547-0.311,1.051-0.857,1.125
					C768.455-591.503,768.41-591.5,768.366-591.5z"/>
			</g>
			<g>
				<line style="fill:#E1E1E1;" x1="863.5" y1="-603.5" x2="705.5" y2="-665.461"/>
				<path style="fill:#FABE00;" d="M863.5-602.5c-0.122,0-0.245-0.022-0.365-0.069l-158-61.961
					c-0.514-0.202-0.768-0.782-0.565-1.296c0.201-0.514,0.782-0.766,1.296-0.566l158,61.961c0.514,0.202,0.768,0.782,0.565,1.296
					C864.276-602.741,863.899-602.5,863.5-602.5z"/>
			</g>
			<g>
				<g>
					<g>
						<g>
							<g>
								<g style="opacity:0;">
									<rect x="633.5" y="-731.5" style="fill:#FFFFFF;" width="280" height="150"/>
								</g>
							</g>
						</g>
					</g>
					<g>
						<path style="fill:#64BE64;" d="M863.52-602.5c-0.005,0.001-0.013,0-0.02,0h-175c-0.364,0-0.699-0.198-0.876-0.517
							c-0.176-0.319-0.164-0.708,0.03-1.017l64.584-102.5c0.158-0.251,0.421-0.42,0.716-0.458c0.291-0.04,0.592,0.056,0.811,0.259
							L864.07-604.335c0.271,0.179,0.449,0.486,0.449,0.835C864.52-602.948,864.072-602.5,863.52-602.5z M690.313-604.5h170.641
							l-107.666-99.947L690.313-604.5z"/>
					</g>
				</g>
			</g>
			<g>
				<path style="fill:#C8C8C8;" d="M761.5-602.5c-22.607,0-41-18.393-41-41s18.393-41,41-41s41,18.393,41,41
					S784.107-602.5,761.5-602.5z M761.5-682.5c-21.505,0-39,17.495-39,39s17.495,39,39,39s39-17.495,39-39
					S783.005-682.5,761.5-682.5z"/>
			</g>
			<g>
				<circle style="fill:#FFFFFF;" cx="761.5" cy="-643.5" r="3"/>
				<path style="fill:#00D2FF;" d="M761.5-645.5c1.104,0,2,0.896,2,2s-0.896,2-2,2s-2-0.896-2-2S760.396-645.5,761.5-645.5
					 M761.5-647.5c-2.205,0-4,1.794-4,4s1.795,4,4,4s4-1.794,4-4S763.705-647.5,761.5-647.5L761.5-647.5z"/>
			</g>
		</g>
	</g>
</g>
<g id="Isolation_Mode">
</g>
<g id="nyt_x5F_exporter_x5F_info" style="display:none;">
</g>
</svg>
