<?xml version="1.0" encoding="iso-8859-1"?>
<!-- Generator: Adobe Illustrator 16.0.3, SVG Export Plug-In . SVG Version: 6.00 Build 0)  -->
<!DOCTYPE svg PUBLIC "-//W3C//DTD SVG 1.1//EN" "http://www.w3.org/Graphics/SVG/1.1/DTD/svg11.dtd">
<svg version="1.1" xmlns="http://www.w3.org/2000/svg" xmlns:xlink="http://www.w3.org/1999/xlink" x="0px" y="0px" width="280px"
	 height="150px" viewBox="-866.5 -561.5 280 150" style="enable-background:new -866.5 -561.5 280 150;" xml:space="preserve">
<g id="Layer_1">
	<g id="New_Symbol_2">
	</g>
	<g id="New_Symbol_3_">
	</g>
	<g id="New_Symbol_2_">
	</g>
	<g id="New_Symbol_1_">
	</g>
	<g id="New_Symbol">
	</g>
	<g>
		<g>
			<g>
				<g>
					<path style="fill:#00D2FF;" d="M-642.5-440.5h-45c-0.552,0-1-0.448-1-1v-43c0-0.552,0.448-1,1-1h45c0.552,0,1,0.448,1,1v43
						C-641.5-440.948-641.948-440.5-642.5-440.5z M-686.5-442.5h43v-41h-43V-442.5z"/>
				</g>
				<g>
					<g>
						<path style="fill:#00D2FF;" d="M-783.354-440.5c-0.063,0-0.126-0.006-0.189-0.018c-0.355-0.069-0.646-0.324-0.76-0.667
							L-802.482-496c-0.127-0.385-0.01-0.808,0.297-1.073c0.308-0.264,0.745-0.316,1.104-0.134l45.156,22.891
							c0.272,0.138,0.467,0.394,0.528,0.693c0.061,0.3-0.019,0.611-0.216,0.844l-26.977,31.924
							C-782.782-440.627-783.063-440.5-783.354-440.5z M-799.82-494.325l16.854,50.817l25.009-29.596L-799.82-494.325z"/>
					</g>
					<g>
						<path style="fill:#C8C8C8;" d="M-619.798-440.5c-0.007,0-0.013,0-0.02,0h-88c-0.343,0-0.663-0.176-0.846-0.466
							c-0.183-0.291-0.205-0.654-0.057-0.964l41.977-88c0.163-0.342,0.505-0.562,0.884-0.569c0.386-0.008,0.729,0.201,0.905,0.537
							l45.941,87.842c0.135,0.171,0.216,0.387,0.216,0.622C-618.798-440.948-619.246-440.5-619.798-440.5z M-706.233-442.5h84.764
							l-44.331-84.764L-706.233-442.5z"/>
					</g>
					<g>
						<path style="fill:#C8C8C8;" d="M-739.662-440.5c-0.007,0-0.013,0-0.02,0h-88c-0.343,0-0.663-0.176-0.846-0.466
							c-0.183-0.291-0.205-0.654-0.057-0.964l41.978-88c0.163-0.342,0.505-0.562,0.884-0.569c0.41-0.008,0.729,0.201,0.905,0.537
							l45.94,87.842c0.135,0.171,0.216,0.387,0.216,0.622C-738.662-440.948-739.109-440.5-739.662-440.5z M-826.097-442.5h84.764
							l-44.33-84.764L-826.097-442.5z"/>
					</g>
					<g>
						<g id="Layer_1_130_">
							<g>
								<g>
									<g>
										<g>
											<g>
												<g>
													<g>
														<g>
															<g style="opacity:0;">
																<rect x="-866.5" y="-561.5" style="fill:#FFFFFF;" width="280" height="150"/>
															</g>
														</g>
													</g>
												</g>
											</g>
										</g>
									</g>
								</g>
							</g>
						</g>
					</g>
				</g>
			</g>
			<g>
				<path style="fill:#00D2FF;" d="M-642.5-440.5h-45c-0.552,0-1-0.448-1-1s0.448-1,1-1h45c0.552,0,1,0.448,1,1
					S-641.948-440.5-642.5-440.5z"/>
			</g>
		</g>
	</g>
</g>
<g id="Isolation_Mode">
</g>
<g id="nyt_x5F_exporter_x5F_info" style="display:none;">
</g>
</svg>
