<?xml version="1.0" encoding="iso-8859-1"?>
<!-- Generator: Adobe Illustrator 16.0.3, SVG Export Plug-In . SVG Version: 6.00 Build 0)  -->
<!DOCTYPE svg PUBLIC "-//W3C//DTD SVG 1.1//EN" "http://www.w3.org/Graphics/SVG/1.1/DTD/svg11.dtd">
<svg version="1.1" xmlns="http://www.w3.org/2000/svg" xmlns:xlink="http://www.w3.org/1999/xlink" x="0px" y="0px" width="280px"
	 height="150px" viewBox="-1166.5 -561.5 280 150" style="enable-background:new -1166.5 -561.5 280 150;" xml:space="preserve">
<g id="Layer_1">
	<g id="New_Symbol_2">
	</g>
	<g id="New_Symbol_3_">
	</g>
	<g id="New_Symbol_2_">
	</g>
	<g id="New_Symbol_1_">
	</g>
	<g id="New_Symbol">
	</g>
	<g>
		<g>
			<g>
				<path style="fill:#00D2FF;" d="M-1062.75-446.832c-0.139,0-0.277-0.029-0.407-0.086l-65.963-29.379
					c-0.265-0.118-0.466-0.345-0.55-0.623c-0.084-0.277-0.044-0.578,0.111-0.823l32.016-50.849c0.245-0.389,0.724-0.56,1.16-0.417
					l45.527,15.048c0.472,0.156,0.758,0.635,0.67,1.125l-11.58,65.18c-0.054,0.303-0.244,0.564-0.516,0.708
					C-1062.427-446.871-1062.588-446.832-1062.75-446.832z M-1127.251-477.655l63.741,28.389l11.205-63.068l-43.962-14.53
					L-1127.251-477.655z"/>
			</g>
			<g>
				<path style="fill:#C8C8C8;" d="M-1085.5-440.5c-24.813,0-45-20.187-45-45s20.187-45,45-45s45,20.187,45,45
					S-1060.687-440.5-1085.5-440.5z M-1085.5-528.5c-23.71,0-43,19.29-43,43s19.29,43,43,43s43-19.29,43-43
					S-1061.79-528.5-1085.5-528.5z"/>
			</g>
			<g>
				<path style="fill:#00D2FF;" d="M-970.957-444.499c-0.069,0-0.138-0.007-0.207-0.021c-0.259-0.055-0.486-0.21-0.631-0.433
					l-31.544-48.457c-0.301-0.463-0.17-1.082,0.292-1.383l48.456-31.543c0.464-0.302,1.083-0.17,1.383,0.292l31.544,48.457
					c0.301,0.463,0.17,1.082-0.292,1.383l-48.456,31.544C-970.575-444.555-970.765-444.499-970.957-444.499z M-1001.117-493.664
					l30.453,46.781l46.78-30.453l-30.453-46.78L-1001.117-493.664z"/>
			</g>
			<g>
				<path style="fill:#C8C8C8;" d="M-922.5-444.5h-80c-0.552,0-1-0.448-1-1v-80c0-0.552,0.448-1,1-1h80c0.552,0,1,0.448,1,1v80
					C-921.5-444.948-921.948-444.5-922.5-444.5z M-1001.5-446.5h78v-78h-78V-446.5z"/>
			</g>
			<g>
				<g>
					<g>
						<circle style="fill:#FFFFFF;" cx="-1085.5" cy="-485.5" r="3"/>
						<path style="fill:#C8C8C8;" d="M-1085.5-487.5c1.104,0,2,0.896,2,2s-0.896,2-2,2s-2-0.896-2-2S-1086.604-487.5-1085.5-487.5
							 M-1085.5-489.5c-2.206,0-4,1.794-4,4s1.794,4,4,4s4-1.794,4-4S-1083.294-489.5-1085.5-489.5L-1085.5-489.5z"/>
					</g>
				</g>
			</g>
			<g>
				<g id="Layer_1_131_">
					<g>
						<g>
							<g>
								<g>
									<g>
										<g>
											<g>
												<g>
													<g style="opacity:0;">
														<rect x="-1166.5" y="-561.5" style="fill:#FFFFFF;" width="280" height="150"/>
													</g>
												</g>
											</g>
										</g>
									</g>
								</g>
							</g>
						</g>
					</g>
				</g>
			</g>
		</g>
	</g>
</g>
<g id="Isolation_Mode">
</g>
<g id="nyt_x5F_exporter_x5F_info" style="display:none;">
</g>
</svg>
