<?xml version="1.0" encoding="iso-8859-1"?>
<!-- Generator: Adobe Illustrator 16.0.3, SVG Export Plug-In . SVG Version: 6.00 Build 0)  -->
<!DOCTYPE svg PUBLIC "-//W3C//DTD SVG 1.1//EN" "http://www.w3.org/Graphics/SVG/1.1/DTD/svg11.dtd">
<svg version="1.1" xmlns="http://www.w3.org/2000/svg" xmlns:xlink="http://www.w3.org/1999/xlink" x="0px" y="0px" width="280px"
	 height="150px" viewBox="933.5 -731.5 280 150" style="enable-background:new 933.5 -731.5 280 150;" xml:space="preserve">
<g id="Layer_1">
	<g id="New_Symbol_2">
	</g>
	<g id="New_Symbol_3_">
	</g>
	<g id="New_Symbol_2_">
	</g>
	<g id="New_Symbol_1_">
	</g>
	<g id="New_Symbol">
	</g>
	<g>
		<g>
			<g>
				<g>
					<g>
						<g>
							<g>
								<g style="opacity:0;">
									<rect x="933.5" y="-731.5" style="fill:#FFFFFF;" width="280" height="150"/>
								</g>
							</g>
						</g>
					</g>
				</g>
			</g>
			<g>
				<g>
					<path style="fill:#00D2FF;" d="M1013.503-611.465c-22.609,0-41.003-18.395-41.003-41.006c0-22.604,18.394-40.994,41.003-40.994
						c22.605,0,40.997,18.39,40.997,40.994C1054.5-629.86,1036.108-611.465,1013.503-611.465z M1013.503-691.465
						c-21.506,0-39.003,17.493-39.003,38.994c0,21.508,17.497,39.006,39.003,39.006c21.503,0,38.997-17.498,38.997-39.006
						C1052.5-673.972,1035.006-691.465,1013.503-691.465z"/>
				</g>
				<g>
					<path style="fill:#00D2FF;" d="M1013.5-654.465c1.104,0,2,0.896,2,2s-0.896,2-2,2s-2-0.896-2-2
						S1012.396-654.465,1013.5-654.465 M1013.5-656.465c-2.205,0-4,1.794-4,4s1.795,4,4,4s4-1.794,4-4
						S1015.705-656.465,1013.5-656.465L1013.5-656.465z"/>
				</g>
				<g>
					<path style="fill:#C8C8C8;" d="M987.495-608.652c-0.406,0-0.776-0.247-0.929-0.63l-22.765-57.215
						c-0.171-0.428-0.026-0.918,0.35-1.185l49.66-35.281c0.357-0.254,0.838-0.246,1.187,0.021l50.164,38.402
						c0.387,0.295,0.504,0.826,0.278,1.257l-25.612,48.961c-0.155,0.298-0.451,0.498-0.786,0.532l-51.447,5.133
						C987.561-608.654,987.527-608.652,987.495-608.652z M965.95-666.507l22.195,55.785l50.161-5.004l24.972-47.737l-48.91-37.442
						L965.95-666.507z"/>
				</g>
			</g>
			<g>
				<path style="fill:#00D2FF;" d="M1165.033-615.661c-0.179,0-0.357-0.048-0.517-0.144l-69.138-41.729
					c-0.295-0.178-0.478-0.495-0.483-0.839c-0.006-0.345,0.166-0.667,0.455-0.855l55.962-36.352
					c0.283-0.184,0.639-0.213,0.947-0.077c0.309,0.135,0.527,0.417,0.584,0.749l13.176,78.081c0.064,0.385-0.101,0.773-0.424,0.993
					C1165.427-615.719,1165.229-615.661,1165.033-615.661z M1097.779-658.422l65.905,39.779l-12.56-74.431L1097.779-658.422z"/>
			</g>
			<g>
				<path style="fill:#C8C8C8;" d="M1139.503-607.5c-24.814,0-45.003-20.19-45.003-45.007c0-24.809,20.188-44.993,45.003-44.993
					c24.812,0,44.997,20.184,44.997,44.993C1184.5-627.69,1164.314-607.5,1139.503-607.5z M1139.503-695.5
					c-23.712,0-43.003,19.287-43.003,42.993c0,23.714,19.291,43.007,43.003,43.007c23.709,0,42.997-19.293,42.997-43.007
					C1182.5-676.213,1163.212-695.5,1139.503-695.5z"/>
			</g>
			<g>
				<path style="fill:#C8C8C8;" d="M1139.5-654.5c1.104,0,2,0.896,2,2s-0.896,2-2,2s-2-0.896-2-2S1138.396-654.5,1139.5-654.5
					 M1139.5-656.5c-2.205,0-4,1.794-4,4s1.795,4,4,4s4-1.794,4-4S1141.705-656.5,1139.5-656.5L1139.5-656.5z"/>
			</g>
		</g>
	</g>
</g>
<g id="Isolation_Mode">
</g>
<g id="nyt_x5F_exporter_x5F_info" style="display:none;">
</g>
</svg>
