<?xml version="1.0" encoding="iso-8859-1"?>
<!-- Generator: Adobe Illustrator 16.0.3, SVG Export Plug-In . SVG Version: 6.00 Build 0)  -->
<!DOCTYPE svg PUBLIC "-//W3C//DTD SVG 1.1//EN" "http://www.w3.org/Graphics/SVG/1.1/DTD/svg11.dtd">
<svg version="1.1" xmlns="http://www.w3.org/2000/svg" xmlns:xlink="http://www.w3.org/1999/xlink" x="0px" y="0px" width="280px"
	 height="150px" viewBox="933.5 458.5 280 150" style="enable-background:new 933.5 458.5 280 150;" xml:space="preserve">
<g id="Layer_1">
	<g id="New_Symbol_2">
	</g>
	<g id="New_Symbol_3_">
	</g>
	<g id="New_Symbol_2_">
	</g>
	<g id="New_Symbol_1_">
	</g>
	<g id="New_Symbol">
	</g>
	<g>
		<g>
			<g>
				<g>
					<g>
						<g id="Layer_1_81_">
							<g>
								<g>
									<g>
										<g>
											<g>
												<g>
													<g>
														<g>
															<g style="opacity:0;">
																<rect x="933.5" y="458.5" style="fill:#FFFFFF;" width="280" height="150"/>
															</g>
														</g>
													</g>
												</g>
											</g>
										</g>
									</g>
								</g>
							</g>
						</g>
					</g>
				</g>
			</g>
			<g>
				<g>
					<path style="fill:#00D2FF;" d="M1058.501,579.5c-0.367,0-0.72-0.202-0.896-0.553l-44.105-88.211l-44.105,88.211
						c-0.248,0.494-0.847,0.692-1.342,0.447c-0.494-0.247-0.694-0.848-0.447-1.342l45-90c0.34-0.678,1.449-0.678,1.789,0l45,90
						c0.247,0.494,0.047,1.095-0.447,1.342C1058.804,579.466,1058.651,579.5,1058.501,579.5z"/>
				</g>
				<g>
					<path style="fill:#E1E1E1;" d="M1057.5,579.5h-90c-0.553,0-1-0.447-1-1s0.447-1,1-1h90c0.553,0,1,0.447,1,1
						S1058.053,579.5,1057.5,579.5z"/>
				</g>
				<g>
					<path style="fill:#B4B4B4;" d="M994.72,536.236c-0.148,0-0.3-0.033-0.442-0.104l-7.17-3.549
						c-0.495-0.245-0.698-0.845-0.453-1.34c0.245-0.494,0.844-0.697,1.34-0.453l7.17,3.549c0.495,0.245,0.698,0.845,0.453,1.34
						C995.442,536.032,995.088,536.236,994.72,536.236z"/>
				</g>
				<g>
					<path style="fill:#B4B4B4;" d="M1032.479,536.283c-0.363,0-0.714-0.198-0.892-0.545c-0.251-0.491-0.057-1.094,0.436-1.346
						l7.122-3.644c0.49-0.25,1.093-0.058,1.346,0.436c0.251,0.491,0.057,1.094-0.436,1.346l-7.122,3.644
						C1032.787,536.248,1032.632,536.283,1032.479,536.283z"/>
				</g>
			</g>
			<g>
				<g>
					<path style="fill:#E1E1E1;" d="M1178.501,579.5c-0.367,0-0.72-0.202-0.896-0.553l-44.105-88.211l-44.105,88.211
						c-0.248,0.494-0.848,0.692-1.342,0.447c-0.494-0.247-0.694-0.848-0.447-1.342l45-90c0.34-0.678,1.449-0.678,1.789,0l45,90
						c0.247,0.494,0.047,1.095-0.447,1.342C1178.804,579.466,1178.651,579.5,1178.501,579.5z"/>
				</g>
				<g>
					<path style="fill:#00D2FF;" d="M1177.5,579.5h-90c-0.553,0-1-0.447-1-1s0.447-1,1-1h90c0.553,0,1,0.447,1,1
						S1178.053,579.5,1177.5,579.5z"/>
				</g>
				<g>
					<path style="fill:#E1E1E1;" d="M1114.72,536.236c-0.148,0-0.3-0.033-0.442-0.104l-7.17-3.549
						c-0.495-0.245-0.698-0.845-0.453-1.34c0.245-0.494,0.843-0.697,1.34-0.453l7.17,3.549c0.495,0.245,0.698,0.845,0.453,1.34
						C1115.442,536.032,1115.088,536.236,1114.72,536.236z"/>
				</g>
				<g>
					<path style="fill:#E1E1E1;" d="M1152.479,536.283c-0.363,0-0.714-0.198-0.892-0.545c-0.251-0.491-0.057-1.094,0.436-1.346
						l7.122-3.644c0.489-0.25,1.092-0.058,1.346,0.436c0.251,0.491,0.057,1.094-0.436,1.346l-7.122,3.644
						C1152.787,536.248,1152.632,536.283,1152.479,536.283z"/>
				</g>
			</g>
		</g>
	</g>
</g>
<g id="Isolation_Mode">
</g>
<g id="nyt_x5F_exporter_x5F_info" style="display:none;">
</g>
</svg>
