<?xml version="1.0" encoding="iso-8859-1"?>
<!-- Generator: Adobe Illustrator 16.0.3, SVG Export Plug-In . SVG Version: 6.00 Build 0)  -->
<!DOCTYPE svg PUBLIC "-//W3C//DTD SVG 1.1//EN" "http://www.w3.org/Graphics/SVG/1.1/DTD/svg11.dtd">
<svg version="1.1" xmlns="http://www.w3.org/2000/svg" xmlns:xlink="http://www.w3.org/1999/xlink" x="0px" y="0px" width="280px"
	 height="150px" viewBox="-566.5 -561.5 280 150" style="enable-background:new -566.5 -561.5 280 150;" xml:space="preserve">
<g id="Layer_1">
	<g id="New_Symbol_2">
	</g>
	<g id="New_Symbol_3_">
	</g>
	<g id="New_Symbol_2_">
	</g>
	<g id="New_Symbol_1_">
	</g>
	<g id="New_Symbol">
	</g>
	<g>
		<g>
			<g>
				<g>
					<g>
						<g id="Layer_1_129_">
							<g>
								<g>
									<g>
										<g>
											<g>
												<g>
													<g>
														<g>
															<g style="opacity:0;">
																<rect x="-566.5" y="-561.5" style="fill:#FFFFFF;" width="280" height="150"/>
															</g>
														</g>
													</g>
												</g>
											</g>
										</g>
									</g>
								</g>
							</g>
						</g>
					</g>
				</g>
			</g>
			<g>
				<g>
					<path style="fill:#00D2FF;" d="M-346.5-460.5h-160c-0.384,0-0.735-0.22-0.901-0.567c-0.167-0.346-0.12-0.758,0.121-1.058l40-50
						c0.189-0.237,0.477-0.375,0.781-0.375h80c0.304,0,0.591,0.138,0.781,0.375l40,50c0.24,0.3,0.287,0.711,0.121,1.058
						C-345.765-460.72-346.116-460.5-346.5-460.5z M-504.419-462.5h155.839l-38.4-48h-79.039L-504.419-462.5z"/>
				</g>
				<g>
					<path style="fill:#B4B4B4;" d="M-483.366-483.04c-0.22,0-0.441-0.072-0.626-0.221l-6.234-5.014
						c-0.431-0.346-0.499-0.976-0.153-1.406c0.347-0.431,0.977-0.499,1.406-0.153l6.234,5.014c0.431,0.346,0.499,0.976,0.153,1.406
						C-482.784-483.167-483.073-483.04-483.366-483.04z"/>
				</g>
				<g>
					<path style="fill:#B4B4B4;" d="M-369.609-482.978c-0.293,0-0.583-0.128-0.781-0.375c-0.345-0.431-0.275-1.061,0.156-1.406
						l6.246-4.999c0.431-0.345,1.06-0.275,1.406,0.156c0.345,0.431,0.275,1.061-0.156,1.406l-6.246,4.999
						C-369.169-483.049-369.39-482.978-369.609-482.978z"/>
				</g>
				<g>
					<path style="fill:#B4B4B4;" d="M-428.522-454.5c-0.256,0-0.512-0.098-0.707-0.293c-0.391-0.39-0.391-1.023,0-1.414l5.315-5.316
						l-5.27-5.27c-0.391-0.391-0.391-1.023,0-1.414s1.023-0.391,1.414,0l5.977,5.977c0.391,0.391,0.391,1.023,0,1.414l-6.022,6.023
						C-428.011-454.598-428.267-454.5-428.522-454.5z"/>
				</g>
				<g>
					<path style="fill:#B4B4B4;" d="M-428.522-504.5c-0.256,0-0.512-0.098-0.707-0.293c-0.391-0.39-0.391-1.023,0-1.414l5.315-5.316
						l-5.27-5.27c-0.391-0.391-0.391-1.023,0-1.414s1.023-0.391,1.414,0l5.977,5.977c0.391,0.391,0.391,1.023,0,1.414l-6.022,6.023
						C-428.011-504.598-428.267-504.5-428.522-504.5z"/>
				</g>
			</g>
		</g>
	</g>
</g>
<g id="Isolation_Mode">
</g>
<g id="nyt_x5F_exporter_x5F_info" style="display:none;">
</g>
</svg>
