<?xml version="1.0" encoding="iso-8859-1"?>
<!-- Generator: Adobe Illustrator 16.0.3, SVG Export Plug-In . SVG Version: 6.00 Build 0)  -->
<!DOCTYPE svg PUBLIC "-//W3C//DTD SVG 1.1//EN" "http://www.w3.org/Graphics/SVG/1.1/DTD/svg11.dtd">
<svg version="1.1" xmlns="http://www.w3.org/2000/svg" xmlns:xlink="http://www.w3.org/1999/xlink" x="0px" y="0px" width="280px"
	 height="150px" viewBox="-266.5 -561.5 280 150" style="enable-background:new -266.5 -561.5 280 150;" xml:space="preserve">
<g id="Layer_1">
	<g id="New_Symbol_2">
	</g>
	<g id="New_Symbol_3_">
	</g>
	<g id="New_Symbol_2_">
	</g>
	<g id="New_Symbol_1_">
	</g>
	<g id="New_Symbol">
	</g>
	<g>
		<g>
			<g>
				<g>
					<g>
						<g id="Layer_1_128_">
							<g>
								<g>
									<g>
										<g>
											<g>
												<g>
													<g>
														<g>
															<g style="opacity:0;">
																<rect x="-266.5" y="-561.5" style="fill:#FFFFFF;" width="280" height="150"/>
															</g>
														</g>
													</g>
												</g>
											</g>
										</g>
									</g>
								</g>
							</g>
						</g>
					</g>
				</g>
			</g>
			<g>
				<g>
					<path style="opacity:0.5;fill:#FABE00;" d="M-146.899-441.5H-171.5l11-22C-152.435-459.467-146.899-451.129-146.899-441.5z"/>
					<path style="fill:#FABE00;" d="M-146.879-440.5c-0.007,0-0.013,0-0.02,0H-171.5c-0.347,0-0.668-0.18-0.851-0.474
						c-0.182-0.295-0.199-0.663-0.044-0.973l11-22c0.247-0.494,0.847-0.694,1.342-0.447c8.669,4.335,14.078,13.016,14.152,22.691
						c0.014,0.065,0.021,0.134,0.021,0.204C-145.879-440.948-146.327-440.5-146.879-440.5z M-169.882-442.5h21.962
						c-0.342-8.259-4.905-15.64-12.142-19.64L-169.882-442.5z"/>
				</g>
				<g>
					<path style="opacity:0.5;fill:#FABE00;" d="M-81.5-441.5h-24.371c0-9.566,5.424-17.876,13.371-22L-81.5-441.5z"/>
					<path style="fill:#FABE00;" d="M-81.48-440.5c-0.007,0-0.013,0-0.02,0h-24.371c-0.552,0-1-0.448-1-1
						c0-9.665,5.33-18.435,13.911-22.888c0.238-0.123,0.516-0.146,0.77-0.063c0.255,0.083,0.465,0.265,0.585,0.504l10.919,21.839
						c0.129,0.168,0.206,0.379,0.206,0.608C-80.48-440.948-80.928-440.5-81.48-440.5z M-104.851-442.5h21.732l-9.813-19.626
						C-100.034-458.053-104.512-450.68-104.851-442.5z"/>
				</g>
				<g>
					<path style="fill:#00D2FF;" d="M-81.499-440.5c-0.367,0-0.72-0.202-0.896-0.553l-44.105-88.211l-44.105,88.211
						c-0.247,0.494-0.846,0.694-1.342,0.447c-0.494-0.247-0.694-0.848-0.447-1.342l45-90c0.339-0.678,1.45-0.678,1.789,0l45,90
						c0.247,0.494,0.047,1.095-0.447,1.342C-81.196-440.534-81.349-440.5-81.499-440.5z"/>
				</g>
				<g>
					<path style="fill:#00D2FF;" d="M-81.5-440.5h-90c-0.552,0-1-0.448-1-1s0.448-1,1-1h90c0.552,0,1,0.448,1,1
						S-80.948-440.5-81.5-440.5z"/>
				</g>
				<g>
					<path style="fill:#B4B4B4;" d="M-145.28-483.764c-0.149,0-0.3-0.033-0.442-0.104l-7.17-3.549
						c-0.495-0.245-0.698-0.845-0.453-1.339c0.244-0.496,0.843-0.7,1.339-0.453l7.17,3.549c0.495,0.245,0.698,0.845,0.453,1.339
						C-144.558-483.968-144.912-483.764-145.28-483.764z"/>
				</g>
				<g>
					<path style="fill:#B4B4B4;" d="M-107.521-483.717c-0.364,0-0.714-0.199-0.891-0.544c-0.251-0.492-0.057-1.094,0.435-1.346
						l7.122-3.644c0.494-0.253,1.094-0.057,1.346,0.435c0.251,0.492,0.057,1.094-0.435,1.346l-7.122,3.644
						C-107.213-483.752-107.369-483.717-107.521-483.717z"/>
				</g>
			</g>
		</g>
	</g>
</g>
<g id="Isolation_Mode">
</g>
<g id="nyt_x5F_exporter_x5F_info" style="display:none;">
</g>
</svg>
