<?xml version="1.0" encoding="iso-8859-1"?>
<!-- Generator: Adobe Illustrator 16.0.3, SVG Export Plug-In . SVG Version: 6.00 Build 0)  -->
<!DOCTYPE svg PUBLIC "-//W3C//DTD SVG 1.1//EN" "http://www.w3.org/Graphics/SVG/1.1/DTD/svg11.dtd">
<svg version="1.1" xmlns="http://www.w3.org/2000/svg" xmlns:xlink="http://www.w3.org/1999/xlink" x="0px" y="0px" width="280px"
	 height="150px" viewBox="33.5 -561.5 280 150" style="enable-background:new 33.5 -561.5 280 150;" xml:space="preserve">
<g id="Layer_1">
	<g id="New_Symbol_2">
	</g>
	<g id="New_Symbol_3_">
	</g>
	<g id="New_Symbol_2_">
	</g>
	<g id="New_Symbol_1_">
	</g>
	<g id="New_Symbol">
	</g>
	<g>
		<g>
			<g>
				<path style="fill:#00D2FF;" d="M173.501-440.5c-0.072,0-0.146-0.008-0.221-0.024c-0.538-0.121-0.877-0.656-0.756-1.195l20-89
					c0.121-0.539,0.653-0.879,1.195-0.756c0.538,0.121,0.877,0.656,0.756,1.195l-20,89C174.371-440.816,173.958-440.5,173.501-440.5
					z"/>
			</g>
			<g>
				<g>
					<g>
						<g>
							<g id="Layer_1_127_">
								<g>
									<g>
										<g>
											<g>
												<g>
													<g>
														<g>
															<g>
																<g style="opacity:0;">
																	<rect x="33.5" y="-561.5" style="fill:#FFFFFF;" width="280" height="150"/>
																</g>
															</g>
														</g>
													</g>
												</g>
											</g>
										</g>
									</g>
								</g>
							</g>
						</g>
					</g>
				</g>
				<g>
					<g>
						<path style="fill:#C8C8C8;" d="M238.501-440.5c-0.367,0-0.72-0.202-0.896-0.553l-44.36-88.721l-84.019,88.96
							c-0.378,0.401-1.011,0.42-1.413,0.041c-0.401-0.379-0.42-1.012-0.04-1.414l85-90c0.223-0.238,0.55-0.351,0.873-0.303
							c0.322,0.048,0.602,0.25,0.748,0.542l45,90c0.247,0.494,0.047,1.095-0.447,1.342C238.804-440.534,238.651-440.5,238.501-440.5
							z"/>
					</g>
				</g>
			</g>
			<g>
				<path style="fill:#64BE64;" d="M238.5-440.5h-130c-0.553,0-1-0.448-1-1s0.447-1,1-1h130c0.553,0,1,0.448,1,1
					S239.053-440.5,238.5-440.5z"/>
			</g>
			<g>
				<path style="fill:#B4B4B4;" d="M142.5-436.5c-0.553,0-1-0.448-1-1v-8c0-0.552,0.447-1,1-1s1,0.448,1,1v8
					C143.5-436.948,143.053-436.5,142.5-436.5z"/>
			</g>
			<g>
				<path style="fill:#B4B4B4;" d="M205.5-436.5c-0.553,0-1-0.448-1-1v-8c0-0.552,0.447-1,1-1s1,0.448,1,1v8
					C206.5-436.948,206.053-436.5,205.5-436.5z"/>
			</g>
		</g>
	</g>
</g>
<g id="Isolation_Mode">
</g>
<g id="nyt_x5F_exporter_x5F_info" style="display:none;">
</g>
</svg>
