<?xml version="1.0" encoding="iso-8859-1"?>
<!-- Generator: Adobe Illustrator 16.0.3, SVG Export Plug-In . SVG Version: 6.00 Build 0)  -->
<!DOCTYPE svg PUBLIC "-//W3C//DTD SVG 1.1//EN" "http://www.w3.org/Graphics/SVG/1.1/DTD/svg11.dtd">
<svg version="1.1" xmlns="http://www.w3.org/2000/svg" xmlns:xlink="http://www.w3.org/1999/xlink" x="0px" y="0px" width="280px"
	 height="150px" viewBox="1233.5 -476.5 280 150" style="enable-background:new 1233.5 -476.5 280 150;" xml:space="preserve">
<g id="Layer_1">
	<g id="New_Symbol_2">
	</g>
	<g id="New_Symbol_3_">
	</g>
	<g id="New_Symbol_2_">
	</g>
	<g id="New_Symbol_1_">
	</g>
	<g id="New_Symbol">
	</g>
	<g>
		<g>
			<g>
				<circle style="fill:#C8C8C8;" cx="1298.5" cy="-401.5" r="3"/>
			</g>
			<g>
				<circle style="fill:#C8C8C8;" cx="1448.5" cy="-401.5" r="3"/>
			</g>
			<g>
				<g>
					<g>
						<g>
							<g>
								<g id="Layer_1_134_">
									<g>
										<g>
											<g>
												<g>
													<g>
														<g>
															<g>
																<g>
																	<g style="opacity:0;">
																		<rect x="1233.5" y="-476.5" style="fill:#FFFFFF;" width="280" height="150"/>
																	</g>
																</g>
															</g>
														</g>
													</g>
												</g>
											</g>
										</g>
									</g>
								</g>
							</g>
						</g>
					</g>
					<g>
						<g>
							<path style="fill:#C8C8C8;" d="M1448.5-400.5h-150c-0.553,0-1-0.448-1-1s0.447-1,1-1h150c0.553,0,1,0.448,1,1
								S1449.053-400.5,1448.5-400.5z"/>
						</g>
					</g>
				</g>
				<g>
					<path style="fill:#B4B4B4;" d="M1336.5-396.5c-0.553,0-1-0.448-1-1v-8c0-0.552,0.447-1,1-1s1,0.448,1,1v8
						C1337.5-396.948,1337.053-396.5,1336.5-396.5z"/>
				</g>
				<g>
					<path style="fill:#B4B4B4;" d="M1413.5-396.5c-0.553,0-1-0.448-1-1v-8c0-0.552,0.447-1,1-1s1,0.448,1,1v8
						C1414.5-396.948,1414.053-396.5,1413.5-396.5z"/>
				</g>
			</g>
			<g>
				<circle style="fill:#FFFFFF;" cx="1373.5" cy="-401.5" r="3"/>
				<path style="fill:#00D2FF;" d="M1373.5-403.5c1.104,0,2,0.896,2,2s-0.896,2-2,2s-2-0.896-2-2S1372.396-403.5,1373.5-403.5
					 M1373.5-405.5c-2.205,0-4,1.794-4,4s1.795,4,4,4s4-1.794,4-4S1375.705-405.5,1373.5-405.5L1373.5-405.5z"/>
			</g>
		</g>
	</g>
</g>
<g id="nyt_x5F_exporter_x5F_info" style="display:none;">
</g>
</svg>
