<?xml version="1.0" encoding="iso-8859-1"?>
<!-- Generator: Adobe Illustrator 16.0.3, SVG Export Plug-In . SVG Version: 6.00 Build 0)  -->
<!DOCTYPE svg PUBLIC "-//W3C//DTD SVG 1.1//EN" "http://www.w3.org/Graphics/SVG/1.1/DTD/svg11.dtd">
<svg version="1.1" xmlns="http://www.w3.org/2000/svg" xmlns:xlink="http://www.w3.org/1999/xlink" x="0px" y="0px" width="280px"
	 height="150px" viewBox="633.5 -561.5 280 150" style="enable-background:new 633.5 -561.5 280 150;" xml:space="preserve">
<g id="Layer_1">
	<g id="New_Symbol_2">
	</g>
	<g id="New_Symbol_3_">
	</g>
	<g id="New_Symbol_2_">
	</g>
	<g id="New_Symbol_1_">
	</g>
	<g id="New_Symbol">
	</g>
	<g>
		<g>
			<g>
				<g>
					<path style="fill:#00D2FF;" d="M826.5-485.5h-76c-0.553,0-1-0.448-1-1s0.447-1,1-1h76c0.553,0,1,0.448,1,1
						S827.053-485.5,826.5-485.5z"/>
				</g>
				<g>
					<g>
						<g>
							<g>
								<g id="Layer_1_126_">
									<g>
										<g>
											<g>
												<g>
													<g>
														<g>
															<g>
																<g>
																	<g style="opacity:0;">
																		<rect x="633.5" y="-561.5" style="fill:#FFFFFF;" width="280" height="150"/>
																	</g>
																</g>
															</g>
														</g>
													</g>
												</g>
											</g>
										</g>
									</g>
								</g>
							</g>
						</g>
					</g>
					<g>
						<g>
							<path style="fill:#C8C8C8;" d="M849.5-440.5h-152c-0.419,0-0.794-0.262-0.938-0.655s-0.028-0.835,0.291-1.107l106-90
								c0.233-0.198,0.543-0.278,0.844-0.218c0.299,0.06,0.555,0.253,0.694,0.525l46,90c0.158,0.31,0.145,0.68-0.038,0.977
								C850.171-440.681,849.849-440.5,849.5-440.5z M700.223-442.5h147.644l-44.682-87.42L700.223-442.5z"/>
						</g>
					</g>
				</g>
				<g>
					<path style="fill:#B4B4B4;" d="M726.857-460.085c-0.282,0-0.563-0.119-0.76-0.35l-5.198-6.081
						c-0.359-0.42-0.31-1.051,0.11-1.41c0.419-0.359,1.051-0.31,1.409,0.11l5.198,6.081c0.359,0.42,0.31,1.051-0.11,1.41
						C727.318-460.164,727.088-460.085,726.857-460.085z"/>
				</g>
				<g>
					<path style="fill:#B4B4B4;" d="M779.341-504.834c-0.282,0-0.563-0.119-0.76-0.35l-5.198-6.081
						c-0.359-0.42-0.31-1.051,0.11-1.41c0.42-0.358,1.051-0.311,1.409,0.11l5.198,6.081c0.359,0.42,0.31,1.051-0.11,1.41
						C779.802-504.913,779.571-504.834,779.341-504.834z"/>
				</g>
				<g>
					<path style="fill:#B4B4B4;" d="M811.245-506.604c-0.366,0-0.72-0.202-0.895-0.552c-0.248-0.494-0.049-1.095,0.445-1.342
						l7.152-3.586c0.494-0.246,1.096-0.047,1.342,0.446c0.248,0.494,0.049,1.095-0.445,1.342l-7.152,3.586
						C811.549-506.639,811.396-506.604,811.245-506.604z"/>
				</g>
				<g>
					<path style="fill:#B4B4B4;" d="M813.041-503.026c-0.366,0-0.72-0.202-0.895-0.552c-0.248-0.494-0.049-1.094,0.445-1.342
						l7.149-3.587c0.494-0.246,1.096-0.048,1.342,0.446c0.248,0.494,0.049,1.094-0.445,1.342l-7.149,3.587
						C813.345-503.061,813.191-503.026,813.041-503.026z"/>
				</g>
				<g>
					<path style="fill:#B4B4B4;" d="M834.604-460.81c-0.366,0-0.72-0.202-0.895-0.552c-0.248-0.494-0.049-1.095,0.445-1.342
						l7.152-3.586c0.494-0.246,1.096-0.047,1.342,0.446c0.248,0.494,0.049,1.095-0.445,1.342l-7.152,3.586
						C834.908-460.844,834.755-460.81,834.604-460.81z"/>
				</g>
				<g>
					<path style="fill:#B4B4B4;" d="M832.812-464.387c-0.366,0-0.72-0.202-0.895-0.552c-0.248-0.494-0.049-1.094,0.445-1.342
						l7.149-3.587c0.493-0.246,1.096-0.047,1.342,0.446c0.248,0.494,0.049,1.094-0.445,1.342l-7.149,3.587
						C833.115-464.421,832.962-464.387,832.812-464.387z"/>
				</g>
			</g>
			<g>
				<circle style="fill:#FFFFFF;" cx="750.5" cy="-486.5" r="3"/>
				<path style="fill:#00D2FF;" d="M750.5-488.5c1.104,0,2,0.896,2,2s-0.896,2-2,2s-2-0.896-2-2S749.396-488.5,750.5-488.5
					 M750.5-490.5c-2.205,0-4,1.794-4,4s1.795,4,4,4s4-1.794,4-4S752.705-490.5,750.5-490.5L750.5-490.5z"/>
			</g>
			<g>
				<circle style="fill:#FFFFFF;" cx="826.5" cy="-486.5" r="3"/>
				<path style="fill:#00D2FF;" d="M826.5-488.5c1.104,0,2,0.896,2,2s-0.896,2-2,2s-2-0.896-2-2S825.396-488.5,826.5-488.5
					 M826.5-490.5c-2.205,0-4,1.794-4,4s1.795,4,4,4s4-1.794,4-4S828.705-490.5,826.5-490.5L826.5-490.5z"/>
			</g>
		</g>
	</g>
</g>
<g id="Isolation_Mode">
</g>
<g id="nyt_x5F_exporter_x5F_info" style="display:none;">
</g>
</svg>
