<?xml version="1.0" encoding="iso-8859-1"?>
<!-- Generator: Adobe Illustrator 16.0.3, SVG Export Plug-In . SVG Version: 6.00 Build 0)  -->
<!DOCTYPE svg PUBLIC "-//W3C//DTD SVG 1.1//EN" "http://www.w3.org/Graphics/SVG/1.1/DTD/svg11.dtd">
<svg version="1.1" xmlns="http://www.w3.org/2000/svg" xmlns:xlink="http://www.w3.org/1999/xlink" x="0px" y="0px" width="280px"
	 height="150px" viewBox="633.5 118.5 280 150" style="enable-background:new 633.5 118.5 280 150;" xml:space="preserve">
<g id="Layer_1">
	<g id="New_Symbol_2">
	</g>
	<g id="New_Symbol_3_">
	</g>
	<g id="New_Symbol_2_">
	</g>
	<g id="New_Symbol_1_">
	</g>
	<g id="New_Symbol">
	</g>
	<g>
		<g>
		</g>
	</g>
	<g>
		<g>
			<g>
				<g>
					<path style="opacity:0.5;fill:#FABE00;" d="M816.74,216.32L803,233.5h-22c0-12.15,9.85-22,22-22
						C808.2,211.5,812.98,213.3,816.74,216.32z"/>
					<path style="fill:#FABE00;" d="M803,234.5h-22c-0.553,0-1-0.447-1-1c0-12.683,10.317-23,23-23c5.219,0,10.32,1.79,14.366,5.041
						c0.431,0.345,0.499,0.974,0.155,1.404l-13.74,17.18C803.591,234.362,803.304,234.5,803,234.5z M782.023,232.5h20.496
						l12.802-16.007c-3.585-2.616-7.824-3.993-12.321-3.993C791.756,212.5,782.547,221.383,782.023,232.5z"/>
				</g>
				<g>
					<path style="fill:#00D2FF;" d="M803,234.5H680c-0.475,0-0.885-0.334-0.979-0.799c-0.096-0.466,0.149-0.934,0.586-1.12l187-80
						c0.421-0.181,0.912-0.053,1.189,0.313c0.277,0.365,0.271,0.872-0.015,1.23l-64,80C803.591,234.362,803.304,234.5,803,234.5z
						 M684.88,232.5h117.64l61.211-76.514L684.88,232.5z"/>
				</g>
				<g>
					<g>
						<g>
							<g>
								<g>
									<g>
										<g>
											<g>
												<g id="Layer_1_104_">
													<g>
														<g>
															<g>
																<g>
																	<g>
																		<g>
																			<g>
																				<g>
																					<g style="opacity:0;">
																						<rect x="633.5" y="118.5" style="fill:#FFFFFF;" width="280" height="150"/>
																					</g>
																				</g>
																			</g>
																		</g>
																	</g>
																</g>
															</g>
														</g>
													</g>
												</g>
											</g>
										</g>
									</g>
								</g>
							</g>
						</g>
					</g>
				</g>
			</g>
		</g>
	</g>
</g>
<g id="Isolation_Mode">
</g>
<g id="nyt_x5F_exporter_x5F_info" style="display:none;">
</g>
</svg>
