<?xml version="1.0" encoding="iso-8859-1"?>
<!-- Generator: Adobe Illustrator 16.0.3, SVG Export Plug-In . SVG Version: 6.00 Build 0)  -->
<!DOCTYPE svg PUBLIC "-//W3C//DTD SVG 1.1//EN" "http://www.w3.org/Graphics/SVG/1.1/DTD/svg11.dtd">
<svg version="1.1" xmlns="http://www.w3.org/2000/svg" xmlns:xlink="http://www.w3.org/1999/xlink" x="0px" y="0px" width="280px"
	 height="150px" viewBox="-1166.5 -391.5 280 150" style="enable-background:new -1166.5 -391.5 280 150;" xml:space="preserve">
<g id="Layer_1">
	<g>
		<g>
			<path style="fill:#E1E1E1;" d="M-1077.18-283.235c-0.038,0-0.075-0.002-0.113-0.006c-0.549-0.061-0.944-0.556-0.882-1.105
				c2.672-23.881,21.945-43.155,45.826-45.828c0.547-0.061,1.043,0.333,1.105,0.882c0.062,0.549-0.333,1.043-0.882,1.105
				c-22.961,2.571-41.491,21.102-44.061,44.063C-1076.245-283.613-1076.677-283.235-1077.18-283.235z"/>
			<g>
				<polygon style="fill:#E1E1E1;" points="-1073.026,-285.104 -1077.5,-278.5 -1080.984,-285.676 				"/>
			</g>
			<g>
				<polygon style="fill:#E1E1E1;" points="-1033.104,-325.026 -1026.5,-329.5 -1033.676,-332.984 				"/>
			</g>
		</g>
	</g>
	<g>
		<path style="fill:#E1E1E1;" d="M-1025.5-274.5h-6c-0.552,0-1-0.448-1-1s0.448-1,1-1h6c0.552,0,1,0.448,1,1
			S-1024.948-274.5-1025.5-274.5z M-1037.5-274.5h-6c-0.552,0-1-0.448-1-1s0.448-1,1-1h6c0.552,0,1,0.448,1,1
			S-1036.948-274.5-1037.5-274.5z M-1049.5-274.5h-6c-0.552,0-1-0.448-1-1s0.448-1,1-1h6c0.552,0,1,0.448,1,1
			S-1048.948-274.5-1049.5-274.5z M-1061.5-274.5h-6c-0.552,0-1-0.448-1-1s0.448-1,1-1h6c0.552,0,1,0.448,1,1
			S-1060.948-274.5-1061.5-274.5z M-1073.5-274.5h-6c-0.552,0-1-0.448-1-1s0.448-1,1-1h6c0.552,0,1,0.448,1,1
			S-1072.948-274.5-1073.5-274.5z M-1085.5-274.5h-6c-0.552,0-1-0.448-1-1s0.448-1,1-1h6c0.552,0,1,0.448,1,1
			S-1084.948-274.5-1085.5-274.5z M-1097.5-274.5h-6c-0.552,0-1-0.448-1-1s0.448-1,1-1h6c0.552,0,1,0.448,1,1
			S-1096.948-274.5-1097.5-274.5z M-1109.5-274.5h-6c-0.552,0-1-0.448-1-1s0.448-1,1-1h6c0.552,0,1,0.448,1,1
			S-1108.948-274.5-1109.5-274.5z"/>
	</g>
	<g>
		<path style="fill:#E1E1E1;" d="M-1023.5-275.5c-0.552,0-1-0.448-1-1v-6c0-0.552,0.448-1,1-1s1,0.448,1,1v6
			C-1022.5-275.948-1022.948-275.5-1023.5-275.5z M-1023.5-287.5c-0.552,0-1-0.448-1-1v-6c0-0.552,0.448-1,1-1s1,0.448,1,1v6
			C-1022.5-287.948-1022.948-287.5-1023.5-287.5z M-1023.5-299.5c-0.552,0-1-0.448-1-1v-6c0-0.552,0.448-1,1-1s1,0.448,1,1v6
			C-1022.5-299.948-1022.948-299.5-1023.5-299.5z M-1023.5-311.5c-0.552,0-1-0.448-1-1v-6c0-0.552,0.448-1,1-1s1,0.448,1,1v6
			C-1022.5-311.948-1022.948-311.5-1023.5-311.5z M-1023.5-323.5c-0.552,0-1-0.448-1-1v-6c0-0.552,0.448-1,1-1s1,0.448,1,1v6
			C-1022.5-323.948-1022.948-323.5-1023.5-323.5z M-1023.5-335.5c-0.552,0-1-0.448-1-1v-6c0-0.552,0.448-1,1-1s1,0.448,1,1v6
			C-1022.5-335.948-1022.948-335.5-1023.5-335.5z M-1023.5-347.5c-0.552,0-1-0.448-1-1v-6c0-0.552,0.448-1,1-1s1,0.448,1,1v6
			C-1022.5-347.948-1022.948-347.5-1023.5-347.5z M-1023.5-359.5c-0.552,0-1-0.448-1-1v-6c0-0.552,0.448-1,1-1s1,0.448,1,1v6
			C-1022.5-359.948-1022.948-359.5-1023.5-359.5z"/>
	</g>
	<g id="New_Symbol_2">
	</g>
	<g id="New_Symbol_3_">
	</g>
	<g id="New_Symbol_2_">
	</g>
	<g id="New_Symbol_1_">
	</g>
	<g id="New_Symbol">
	</g>
	<g>
		<g>
			<g>
				<g>
					<g>
						<g>
							<g>
								<g>
									<g style="opacity:0;">
										<rect x="-1166.5" y="-391.5" style="fill:#FFFFFF;" width="280" height="150"/>
									</g>
								</g>
							</g>
						</g>
					</g>
					<g>
						<path style="opacity:0.5;fill:#FABE00;" d="M-1001.714-275.5h-22l-15.91-15.195c4.015-4.196,9.656-6.805,15.91-6.805
							C-1011.566-297.5-1001.714-287.647-1001.714-275.5z"/>
						<path style="fill:#FABE00;" d="M-1001.694-274.5c-0.007,0-0.013,0-0.02,0h-22c-0.257,0-0.504-0.099-0.69-0.277l-15.91-15.195
							c-0.192-0.183-0.303-0.435-0.309-0.701c-0.006-0.265,0.093-0.522,0.277-0.714c4.389-4.587,10.295-7.113,16.633-7.113
							c12.614,0,22.889,10.207,22.999,22.796c0.014,0.066,0.021,0.134,0.021,0.204C-1000.694-274.948-1001.142-274.5-1001.694-274.5
							z M-1023.313-276.5h20.576c-0.523-11.117-9.732-20-20.977-20c-5.452,0-10.555,2.048-14.479,5.789L-1023.313-276.5z"/>
					</g>
					<g>
						<path style="fill:#00D2FF;" d="M-932.5-274.5h-91.261c-0.257,0-0.504-0.099-0.69-0.276l-79.739-76
							c-0.4-0.381-0.415-1.014-0.034-1.414c0.382-0.399,1.014-0.414,1.414-0.034l79.45,75.724h90.86c0.552,0,1,0.448,1,1
							S-931.948-274.5-932.5-274.5z"/>
					</g>
				</g>
			</g>
		</g>
	</g>
</g>
<g id="Isolation_Mode">
</g>
<g id="nyt_x5F_exporter_x5F_info" style="display:none;">
</g>
</svg>
