<?xml version="1.0" encoding="iso-8859-1"?>
<!-- Generator: Adobe Illustrator 16.0.3, SVG Export Plug-In . SVG Version: 6.00 Build 0)  -->
<!DOCTYPE svg PUBLIC "-//W3C//DTD SVG 1.1//EN" "http://www.w3.org/Graphics/SVG/1.1/DTD/svg11.dtd">
<svg version="1.1" xmlns="http://www.w3.org/2000/svg" xmlns:xlink="http://www.w3.org/1999/xlink" x="0px" y="0px" width="280px"
	 height="150px" viewBox="-866.5 -391.5 280 150" style="enable-background:new -866.5 -391.5 280 150;" xml:space="preserve">
<g id="Layer_1">
	<g id="New_Symbol_2">
	</g>
	<g id="New_Symbol_3_">
	</g>
	<g id="New_Symbol_2_">
	</g>
	<g id="New_Symbol_1_">
	</g>
	<g id="New_Symbol">
	</g>
	<g>
		<g>
			<g>
				<g>
					<g>
						<g>
							<g>
								<g>
									<g>
										<g style="opacity:0;">
											<rect x="-866.5" y="-391.5" style="fill:#FFFFFF;" width="280" height="150"/>
										</g>
									</g>
								</g>
							</g>
						</g>
					</g>
				</g>
			</g>
			<g>
				<path style="fill:#00D2FF;" d="M-696.87-267.499c-0.001,0-0.002,0-0.003,0l-50.63-0.161c-0.259-0.001-0.508-0.103-0.694-0.283
					l-43-41.84c-0.188-0.183-0.297-0.433-0.303-0.695l-0.596-27c-0.007-0.326,0.146-0.635,0.408-0.828l38.374-28.16
					c0.172-0.126,0.379-0.194,0.592-0.194h37.222c0.179,0,0.354,0.048,0.509,0.139l44,26c0.226,0.133,0.39,0.35,0.457,0.603
					l9.596,35.871c0.092,0.343-0.005,0.709-0.255,0.962l-34.966,35.29C-696.348-267.605-696.604-267.499-696.87-267.499z
					 M-747.092-269.659l49.807,0.158l34.267-34.584l-9.342-34.922l-43.413-25.653h-36.621l-37.69,27.658l0.575,26.071
					L-747.092-269.659z"/>
			</g>
		</g>
	</g>
</g>
<g id="Isolation_Mode">
</g>
<g id="nyt_x5F_exporter_x5F_info" style="display:none;">
</g>
</svg>
