<?xml version="1.0" encoding="iso-8859-1"?>
<!-- Generator: Adobe Illustrator 16.0.3, SVG Export Plug-In . SVG Version: 6.00 Build 0)  -->
<!DOCTYPE svg PUBLIC "-//W3C//DTD SVG 1.1//EN" "http://www.w3.org/Graphics/SVG/1.1/DTD/svg11.dtd">
<svg version="1.1" xmlns="http://www.w3.org/2000/svg" xmlns:xlink="http://www.w3.org/1999/xlink" x="0px" y="0px" width="280px"
	 height="150px" viewBox="-566.5 -391.5 280 150" style="enable-background:new -566.5 -391.5 280 150;" xml:space="preserve">
<g id="Layer_1">
	<g id="New_Symbol_2">
	</g>
	<g id="New_Symbol_3_">
	</g>
	<g id="New_Symbol_2_">
	</g>
	<g id="New_Symbol_1_">
	</g>
	<g id="New_Symbol">
	</g>
	<g>
		<g>
			<g>
				<g>
					<g>
						<g>
							<g>
								<g>
									<g>
										<g style="opacity:0;">
											<rect x="-566.5" y="-391.5" style="fill:#FFFFFF;" width="280" height="150"/>
										</g>
									</g>
								</g>
							</g>
						</g>
					</g>
				</g>
			</g>
			<g>
				<path style="opacity:0.5;fill:#FABE00;" d="M-433.209-266.5h-14.001l-9.901-9.9c2.532-2.529,6.031-4.1,9.901-4.1
					C-439.48-280.5-433.209-274.23-433.209-266.5z"/>
				<path style="fill:#FABE00;" d="M-433.189-265.5c-0.007-0.001-0.014,0-0.02,0h-14.001c-0.265,0-0.52-0.105-0.707-0.293
					l-9.901-9.9c-0.188-0.188-0.293-0.442-0.293-0.708c0-0.265,0.105-0.52,0.293-0.707c2.835-2.833,6.603-4.392,10.608-4.392
					c8.203,0,14.888,6.617,15,14.793c0.014,0.066,0.021,0.136,0.021,0.207C-432.189-265.948-432.637-265.5-433.189-265.5z
					 M-446.796-267.5h12.549c-0.512-6.703-6.13-12-12.963-12c-3.136,0-6.104,1.104-8.46,3.126L-446.796-267.5z"/>
			</g>
			<g>
				<path style="opacity:0.5;fill:#FABE00;" d="M-395.891-276.4l-9.899,9.9h-14.001c0-7.73,6.271-14,14.001-14
					C-401.921-280.5-398.421-278.93-395.891-276.4z"/>
				<path style="fill:#FABE00;" d="M-405.79-265.5h-14.001c-0.552,0-1-0.448-1-1c0-8.271,6.729-15,15.001-15
					c4.006,0,7.773,1.56,10.606,4.393c0.188,0.188,0.293,0.442,0.293,0.707s-0.105,0.52-0.293,0.707l-9.899,9.9
					C-405.271-265.605-405.525-265.5-405.79-265.5z M-418.753-267.5h12.549l8.873-8.874c-2.354-2.023-5.322-3.126-8.458-3.126
					C-412.623-279.5-418.241-274.203-418.753-267.5z"/>
			</g>
			<g>
				<path style="opacity:0.5;fill:#FABE00;" d="M-376.5-309.791v14.001l-9.9,9.901c-2.529-2.532-4.099-6.031-4.099-9.901
					C-390.499-303.52-384.229-309.791-376.5-309.791z"/>
				<path style="fill:#FABE00;" d="M-386.4-284.889C-386.4-284.889-386.4-284.889-386.4-284.889c-0.266,0-0.52-0.105-0.708-0.293
					c-2.832-2.835-4.391-6.602-4.391-10.608c0-8.271,6.729-15.001,14.999-15.001c0.552,0,1,0.448,1,1v14.001
					c0,0.265-0.105,0.52-0.293,0.707l-9.9,9.901C-385.881-284.994-386.135-284.889-386.4-284.889z M-377.5-308.753
					c-6.702,0.512-11.999,6.13-11.999,12.963c0,3.137,1.103,6.104,3.125,8.46l8.874-8.874V-308.753z"/>
			</g>
			<g>
				<path style="opacity:0.5;fill:#FABE00;" d="M-376.5-337.21v14.001c-7.729,0-13.999-6.271-13.999-14.001
					c0-3.87,1.569-7.369,4.099-9.901L-376.5-337.21z"/>
				<path style="fill:#FABE00;" d="M-376.5-322.209c-8.271,0-14.999-6.729-14.999-15.001c0-4.006,1.56-7.773,4.391-10.608
					c0.375-0.376,1.041-0.375,1.415,0l9.9,9.901c0.188,0.188,0.293,0.442,0.293,0.707v14.001
					C-375.5-322.657-375.948-322.209-376.5-322.209z M-386.374-345.67c-2.022,2.355-3.125,5.323-3.125,8.46
					c0,6.833,5.297,12.451,11.999,12.963v-12.549L-386.374-345.67z"/>
			</g>
			<g>
				<path style="opacity:0.5;fill:#FABE00;" d="M-395.891-356.6c-2.53,2.529-6.03,4.1-9.899,4.1c-7.729,0-14.001-6.27-14.001-14
					h14.001L-395.891-356.6z"/>
				<path style="fill:#FABE00;" d="M-405.79-351.5c-8.271,0-15.001-6.729-15.001-15c0-0.552,0.448-1,1-1h14.001
					c0.265,0,0.52,0.105,0.707,0.293l9.899,9.9c0.188,0.188,0.293,0.442,0.293,0.707s-0.105,0.52-0.293,0.707
					C-398.017-353.06-401.784-351.5-405.79-351.5z M-418.753-365.5c0.512,6.703,6.13,12,12.963,12c3.137,0,6.104-1.104,8.458-3.126
					l-8.873-8.874H-418.753z"/>
			</g>
			<g>
				<path style="opacity:0.5;fill:#FABE00;" d="M-433.209-366.5c0,7.73-6.271,14-14.001,14c-3.87,0-7.369-1.57-9.901-4.1l9.901-9.9
					H-433.209z"/>
				<path style="fill:#FABE00;" d="M-447.21-351.5c-4.005,0-7.772-1.56-10.608-4.392c-0.188-0.188-0.293-0.442-0.293-0.707
					c0-0.266,0.105-0.52,0.293-0.708l9.901-9.9c0.188-0.188,0.442-0.293,0.707-0.293h14.001c0.552,0,1,0.448,1,1
					C-432.209-358.229-438.938-351.5-447.21-351.5z M-455.67-356.626c2.356,2.023,5.324,3.126,8.46,3.126
					c6.833,0,12.451-5.297,12.963-12h-12.549L-455.67-356.626z"/>
			</g>
			<g>
				<path style="opacity:0.5;fill:#FABE00;" d="M-462.5-337.21c0,7.729-6.27,14.001-14,14.001v-14.001l9.9-9.901
					C-464.07-344.579-462.5-341.08-462.5-337.21z"/>
				<path style="fill:#FABE00;" d="M-476.5-322.209c-0.552,0-1-0.448-1-1v-14.001c0-0.265,0.105-0.52,0.293-0.707l9.9-9.901
					c0.188-0.188,0.442-0.293,0.707-0.293c0,0,0,0,0,0c0.265,0,0.52,0.105,0.707,0.293c2.833,2.835,4.392,6.603,4.392,10.608
					C-461.5-328.938-468.229-322.209-476.5-322.209z M-475.5-336.796v12.549c6.703-0.512,12-6.13,12-12.963
					c0-3.136-1.104-6.104-3.126-8.46L-475.5-336.796z"/>
			</g>
			<g>
				<path style="opacity:0.5;fill:#FABE00;" d="M-462.5-295.79c0,3.87-1.57,7.369-4.1,9.901l-9.9-9.901v-14.001
					C-468.77-309.791-462.5-303.52-462.5-295.79z"/>
				<path style="fill:#FABE00;" d="M-466.599-284.889c-0.266,0-0.52-0.105-0.708-0.293l-9.9-9.901
					c-0.188-0.188-0.293-0.442-0.293-0.707v-14.001c0-0.552,0.448-1,1-1c8.271,0,15,6.729,15,15.001
					c0,4.005-1.56,7.772-4.392,10.608C-466.08-284.994-466.334-284.889-466.599-284.889z M-475.5-296.204l8.874,8.874
					c2.023-2.356,3.126-5.324,3.126-8.46c0-6.833-5.297-12.451-12-12.963V-296.204z"/>
			</g>
			<g>
				<path style="fill:#00D2FF;" d="M-405.79-265.5h-41.42c-0.265,0-0.52-0.105-0.707-0.293l-29.29-29.29
					c-0.188-0.188-0.293-0.442-0.293-0.707v-41.42c0-0.265,0.105-0.52,0.293-0.707l29.29-29.29c0.188-0.188,0.442-0.293,0.707-0.293
					h41.42c0.265,0,0.52,0.105,0.707,0.293l29.29,29.29c0.188,0.188,0.293,0.442,0.293,0.707v41.42c0,0.265-0.105,0.52-0.293,0.707
					l-29.29,29.29C-405.271-265.605-405.525-265.5-405.79-265.5z M-446.796-267.5h40.592l28.704-28.704v-40.592l-28.704-28.704
					h-40.592l-28.704,28.704v40.592L-446.796-267.5z"/>
			</g>
			<g>
				<path style="fill:#B4B4B4;" d="M-426.5-261.25c-0.552,0-1-0.448-1-1v-8c0-0.552,0.448-1,1-1s1,0.448,1,1v8
					C-425.5-261.698-425.948-261.25-426.5-261.25z"/>
			</g>
			<g>
				<path style="fill:#B4B4B4;" d="M-426.5-361.5c-0.552,0-1-0.448-1-1v-8c0-0.552,0.448-1,1-1s1,0.448,1,1v8
					C-425.5-361.948-425.948-361.5-426.5-361.5z"/>
			</g>
			<g>
				<path style="fill:#B4B4B4;" d="M-472.625-315.375h-8c-0.552,0-1-0.448-1-1s0.448-1,1-1h8c0.552,0,1,0.448,1,1
					S-472.073-315.375-472.625-315.375z"/>
			</g>
			<g>
				<path style="fill:#B4B4B4;" d="M-372.375-315.375h-8c-0.552,0-1-0.448-1-1s0.448-1,1-1h8c0.552,0,1,0.448,1,1
					S-371.823-315.375-372.375-315.375z"/>
			</g>
			<g>
				<path style="fill:#B4B4B4;" d="M-464.771-277.103c-0.256,0-0.512-0.098-0.707-0.293c-0.391-0.39-0.391-1.023,0-1.414
					l5.656-5.657c0.391-0.391,1.023-0.391,1.414,0c0.391,0.39,0.391,1.023,0,1.414l-5.656,5.657
					C-464.26-277.2-464.516-277.103-464.771-277.103z"/>
			</g>
			<g>
				<path style="fill:#B4B4B4;" d="M-393.885-347.99c-0.256,0-0.512-0.098-0.707-0.293c-0.391-0.39-0.391-1.023,0-1.414l5.656-5.657
					c0.391-0.391,1.023-0.391,1.414,0c0.391,0.39,0.391,1.023,0,1.414l-5.656,5.657C-393.373-348.088-393.629-347.99-393.885-347.99
					z"/>
			</g>
			<g>
				<path style="fill:#B4B4B4;" d="M-459.115-347.99c-0.256,0-0.512-0.098-0.707-0.293l-5.656-5.657
					c-0.391-0.391-0.391-1.024,0-1.414c0.391-0.391,1.023-0.391,1.414,0l5.656,5.657c0.391,0.391,0.391,1.024,0,1.414
					C-458.604-348.088-458.859-347.99-459.115-347.99z"/>
			</g>
			<g>
				<path style="fill:#B4B4B4;" d="M-388.228-277.103c-0.256,0-0.512-0.098-0.707-0.293l-5.657-5.657
					c-0.391-0.391-0.391-1.023,0-1.414s1.023-0.391,1.414,0l5.657,5.657c0.391,0.391,0.391,1.023,0,1.414
					C-387.716-277.2-387.972-277.103-388.228-277.103z"/>
			</g>
		</g>
	</g>
</g>
<g id="Isolation_Mode">
</g>
<g id="nyt_x5F_exporter_x5F_info" style="display:none;">
</g>
</svg>
