<?xml version="1.0" encoding="iso-8859-1"?>
<!-- Generator: Adobe Illustrator 16.0.3, SVG Export Plug-In . SVG Version: 6.00 Build 0)  -->
<!DOCTYPE svg PUBLIC "-//W3C//DTD SVG 1.1//EN" "http://www.w3.org/Graphics/SVG/1.1/DTD/svg11.dtd">
<svg version="1.1" xmlns="http://www.w3.org/2000/svg" xmlns:xlink="http://www.w3.org/1999/xlink" x="0px" y="0px" width="280px"
	 height="150px" viewBox="-266.5 -391.5 280 150" style="enable-background:new -266.5 -391.5 280 150;" xml:space="preserve">
<g id="Layer_1">
	<g id="New_Symbol_2">
	</g>
	<g id="New_Symbol_3_">
	</g>
	<g id="New_Symbol_2_">
	</g>
	<g id="New_Symbol_1_">
	</g>
	<g id="New_Symbol">
	</g>
	<g>
		<g>
			<g>
				<rect x="-121.473" y="-275.578" style="opacity:0.5;fill:#FABE00;" width="10" height="10.078"/>
				<path style="fill:#FABE00;" d="M-111.473-264.5h-10c-0.552,0-1-0.448-1-1v-10.078c0-0.552,0.448-1,1-1h10c0.552,0,1,0.448,1,1
					v10.078C-110.473-264.948-110.92-264.5-111.473-264.5z M-120.473-266.5h8v-8.078h-8V-266.5z"/>
			</g>
			<g>
				
					<rect x="-93.97" y="-314.43" transform="matrix(-0.8995 0.4368 -0.4368 -0.8995 -304.1537 -548.837)" style="opacity:0.5;fill:#FABE00;" width="10" height="10.078"/>
				<path style="fill:#FABE00;" d="M-91.267-301.674c-0.11,0-0.221-0.018-0.327-0.055c-0.25-0.087-0.457-0.27-0.572-0.508
					l-4.401-9.066c-0.241-0.497-0.034-1.095,0.462-1.336l8.995-4.368c0.239-0.117,0.514-0.134,0.764-0.045
					c0.251,0.087,0.457,0.27,0.572,0.508l4.401,9.066c0.241,0.497,0.034,1.095-0.462,1.336l-8.995,4.368
					C-90.967-301.708-91.117-301.674-91.267-301.674z M-94.332-311.277l3.528,7.267l7.196-3.495l-3.528-7.267L-94.332-311.277z"/>
			</g>
			<g>
				
					<rect x="-140.051" y="-333.917" transform="matrix(-0.7881 -0.6156 0.6156 -0.7881 -39.0211 -671.1884)" style="opacity:0.5;fill:#FABE00;" width="10" height="10.08"/>
				<path style="fill:#FABE00;" d="M-134.213-320.827c-0.215,0-0.432-0.069-0.615-0.212l-7.881-6.156
					c-0.209-0.163-0.344-0.403-0.377-0.666c-0.032-0.263,0.042-0.529,0.205-0.738l6.205-7.943c0.34-0.436,0.969-0.512,1.404-0.172
					l7.881,6.156c0.209,0.163,0.344,0.403,0.377,0.666c0.032,0.263-0.042,0.529-0.205,0.738l-6.205,7.943
					C-133.622-320.959-133.917-320.827-134.213-320.827z M-140.69-328.156l6.305,4.925l4.974-6.367l-6.305-4.925L-140.69-328.156z"
					/>
			</g>
			<g>
				<g>
					<g>
						<g>
							<g>
								<g>
									<g id="Layer_1_121_">
										<g>
											<g>
												<g>
													<g>
														<g>
															<g>
																<g>
																	<g>
																		<g style="opacity:0;">
																			<rect x="-266.5" y="-391.5" style="fill:#FFFFFF;" width="280" height="150"/>
																		</g>
																	</g>
																</g>
															</g>
														</g>
													</g>
												</g>
											</g>
										</g>
									</g>
								</g>
							</g>
						</g>
						<g>
							<path style="fill:#FABE00;" d="M-111.473-264.5c-0.552,0-1-0.448-1-1v-101.684c0-0.552,0.448-1,1-1s1,0.448,1,1V-265.5
								C-110.473-264.948-110.92-264.5-111.473-264.5z"/>
						</g>
						<g>
							<path style="fill:#FABE00;" d="M-190.9-264.5c-0.371,0-0.727-0.207-0.9-0.563c-0.241-0.497-0.034-1.095,0.462-1.336
								l104.228-50.608c0.498-0.24,1.095-0.035,1.336,0.462c0.241,0.497,0.034,1.095-0.462,1.336l-104.228,50.608
								C-190.604-264.532-190.753-264.5-190.9-264.5z"/>
						</g>
						<g>
							<path style="fill:#FABE00;" d="M-62.1-264.5c-0.215,0-0.432-0.069-0.615-0.212l-79.994-62.483
								c-0.435-0.34-0.512-0.968-0.172-1.404c0.34-0.435,0.968-0.512,1.404-0.172l79.994,62.483c0.435,0.34,0.512,0.968,0.172,1.404
								C-61.509-264.632-61.803-264.5-62.1-264.5z"/>
						</g>
						<g>
							<g>
								<path style="fill:#C8C8C8;" d="M-62.1-264.5H-190.9c-0.382,0-0.731-0.218-0.899-0.562c-0.167-0.344-0.125-0.753,0.111-1.054
									l79.428-101.684c0.212-0.272,0.55-0.41,0.894-0.379c0.343,0.037,0.644,0.248,0.794,0.558L-61.2-265.937
									c0.15,0.31,0.131,0.676-0.052,0.968C-61.435-264.677-61.755-264.5-62.1-264.5z M-188.85-266.5h125.153l-47.975-98.804
									L-188.85-266.5z"/>
							</g>
						</g>
					</g>
				</g>
			</g>
			<g>
				<circle style="fill:#FFFFFF;" cx="-111.5" cy="-304.5" r="3"/>
				<path style="fill:#00D2FF;" d="M-111.5-306.5c1.104,0,2,0.896,2,2s-0.896,2-2,2s-2-0.896-2-2S-112.604-306.5-111.5-306.5
					 M-111.5-308.5c-2.206,0-4,1.794-4,4s1.794,4,4,4s4-1.794,4-4S-109.294-308.5-111.5-308.5L-111.5-308.5z"/>
			</g>
		</g>
	</g>
</g>
<g id="Isolation_Mode">
</g>
<g id="nyt_x5F_exporter_x5F_info" style="display:none;">
</g>
</svg>
