<?xml version="1.0" encoding="iso-8859-1"?>
<!-- Generator: Adobe Illustrator 16.0.3, SVG Export Plug-In . SVG Version: 6.00 Build 0)  -->
<!DOCTYPE svg PUBLIC "-//W3C//DTD SVG 1.1//EN" "http://www.w3.org/Graphics/SVG/1.1/DTD/svg11.dtd">
<svg version="1.1" xmlns="http://www.w3.org/2000/svg" xmlns:xlink="http://www.w3.org/1999/xlink" x="0px" y="0px" width="280px"
	 height="150px" viewBox="633.5 -306.5 280 150" style="enable-background:new 633.5 -306.5 280 150;" xml:space="preserve">
<g id="Layer_1">
	<g id="New_Symbol_2">
	</g>
	<g id="New_Symbol_3_">
	</g>
	<g id="New_Symbol_2_">
	</g>
	<g id="New_Symbol_1_">
	</g>
	<g id="New_Symbol">
	</g>
	<g>
		<g>
			<g>
				<g>
					<g>
						<g>
							<g>
								<g>
									<g>
										<g id="Layer_1_125_">
											<g>
												<g>
													<g>
														<g>
															<g>
																<g>
																	<g>
																		<g>
																			<g style="opacity:0;">
																				<rect x="633.5" y="-306.5" style="fill:#FFFFFF;" width="280" height="150"/>
																			</g>
																		</g>
																	</g>
																</g>
															</g>
														</g>
													</g>
												</g>
											</g>
										</g>
									</g>
								</g>
							</g>
						</g>
					</g>
				</g>
				<g>
					<g>
						<path style="fill:#00D2FF;" d="M741-199.5h-87c-0.353,0-0.68-0.186-0.859-0.489c-0.181-0.303-0.188-0.679-0.019-0.989l30.5-56
							c0.175-0.321,0.512-0.521,0.878-0.521h87c0.353,0,0.68,0.186,0.859,0.489c0.181,0.303,0.188,0.679,0.019,0.989l-30.5,56
							C741.703-199.7,741.366-199.5,741-199.5z M655.684-201.5h84.723l29.41-54h-84.723L655.684-201.5z"/>
					</g>
				</g>
				<g>
					<g>
						<path style="fill:#00D2FF;" d="M861-199.5h-87c-0.353,0-0.68-0.186-0.859-0.489c-0.181-0.303-0.188-0.679-0.019-0.989l30.5-56
							c0.175-0.321,0.512-0.521,0.878-0.521h87c0.353,0,0.68,0.186,0.859,0.489c0.181,0.303,0.188,0.679,0.019,0.989l-30.5,56
							C861.703-199.7,861.366-199.5,861-199.5z M775.684-201.5h84.723l29.41-54h-84.723L775.684-201.5z"/>
					</g>
					<g>
						<path style="fill:#B4B4B4;" d="M820.5-193.5c-0.256,0-0.512-0.098-0.707-0.293c-0.391-0.39-0.391-1.023,0-1.414l5.315-5.316
							l-5.27-5.27c-0.391-0.391-0.391-1.023,0-1.414s1.023-0.391,1.414,0l5.977,5.977c0.391,0.391,0.391,1.023,0,1.414l-6.022,6.023
							C821.012-193.598,820.756-193.5,820.5-193.5z"/>
					</g>
					<g>
						<path style="fill:#B4B4B4;" d="M814.5-193.5c-0.256,0-0.512-0.098-0.707-0.293c-0.391-0.39-0.391-1.023,0-1.414l5.315-5.316
							l-5.27-5.27c-0.391-0.391-0.391-1.023,0-1.414s1.023-0.391,1.414,0l5.977,5.977c0.391,0.391,0.391,1.023,0,1.414l-6.022,6.023
							C815.012-193.598,814.756-193.5,814.5-193.5z"/>
					</g>
					<g>
						<path style="fill:#B4B4B4;" d="M793.391-222.341c-0.431,0-0.828-0.28-0.958-0.713l-2.161-7.201l-7.139,2.143
							c-0.532,0.156-1.087-0.142-1.245-0.67c-0.158-0.529,0.142-1.086,0.671-1.246l8.096-2.43c0.531-0.156,1.086,0.142,1.245,0.67
							l2.449,8.158c0.158,0.529-0.142,1.086-0.671,1.246C793.582-222.355,793.485-222.341,793.391-222.341z"/>
					</g>
					<g>
						<path style="fill:#B4B4B4;" d="M880.324-222.341c-0.431,0-0.828-0.28-0.958-0.713l-2.161-7.201l-7.139,2.143
							c-0.53,0.156-1.087-0.142-1.245-0.67c-0.158-0.529,0.142-1.086,0.671-1.246l8.096-2.43c0.53-0.156,1.087,0.142,1.245,0.67
							l2.449,8.158c0.158,0.529-0.142,1.086-0.671,1.246C880.516-222.355,880.419-222.341,880.324-222.341z"/>
					</g>
					<g>
						<path style="fill:#B4B4B4;" d="M845-249.75c-0.256,0-0.512-0.098-0.707-0.293c-0.391-0.39-0.391-1.023,0-1.414l5.315-5.316
							l-5.27-5.27c-0.391-0.391-0.391-1.023,0-1.414s1.023-0.391,1.414,0l5.977,5.977c0.391,0.391,0.391,1.023,0,1.414l-6.022,6.023
							C845.512-249.848,845.256-249.75,845-249.75z"/>
					</g>
					<g>
						<path style="fill:#B4B4B4;" d="M839-249.75c-0.256,0-0.512-0.098-0.707-0.293c-0.391-0.39-0.391-1.023,0-1.414l5.315-5.316
							l-5.27-5.27c-0.391-0.391-0.391-1.023,0-1.414s1.023-0.391,1.414,0l5.977,5.977c0.391,0.391,0.391,1.023,0,1.414l-6.022,6.023
							C839.512-249.848,839.256-249.75,839-249.75z"/>
					</g>
				</g>
			</g>
			<g>
				<path style="fill:#B4B4B4;" d="M722.5-251.5c-0.553,0-1-0.448-1-1v-8c0-0.552,0.447-1,1-1s1,0.448,1,1v8
					C723.5-251.948,723.053-251.5,722.5-251.5z"/>
			</g>
			<g>
				<path style="fill:#B4B4B4;" d="M726.5-251.5c-0.553,0-1-0.448-1-1v-8c0-0.552,0.447-1,1-1s1,0.448,1,1v8
					C727.5-251.948,727.053-251.5,726.5-251.5z"/>
			</g>
			<g>
				<path style="fill:#B4B4B4;" d="M696.5-195.5c-0.553,0-1-0.448-1-1v-8c0-0.552,0.447-1,1-1s1,0.448,1,1v8
					C697.5-195.948,697.053-195.5,696.5-195.5z"/>
			</g>
			<g>
				<path style="fill:#B4B4B4;" d="M700.5-195.5c-0.553,0-1-0.448-1-1v-8c0-0.552,0.447-1,1-1s1,0.448,1,1v8
					C701.5-195.948,701.053-195.5,700.5-195.5z"/>
			</g>
			<g>
				<path style="fill:#B4B4B4;" d="M673.953-227.777c-0.161,0-0.325-0.039-0.478-0.122l-7.026-3.826
					c-0.484-0.264-0.664-0.872-0.399-1.356c0.263-0.485,0.869-0.664,1.356-0.4l7.026,3.826c0.484,0.264,0.664,0.872,0.399,1.356
					C674.651-227.966,674.308-227.777,673.953-227.777z"/>
			</g>
			<g>
				<path style="fill:#B4B4B4;" d="M761.036-227.777c-0.161,0-0.325-0.039-0.478-0.122l-7.027-3.826
					c-0.484-0.264-0.664-0.872-0.399-1.356c0.263-0.485,0.868-0.664,1.356-0.4l7.027,3.826c0.484,0.264,0.664,0.872,0.399,1.356
					C761.734-227.966,761.391-227.777,761.036-227.777z"/>
			</g>
		</g>
	</g>
</g>
<g id="nyt_x5F_exporter_x5F_info" style="display:none;">
</g>
</svg>
