<?xml version="1.0" encoding="iso-8859-1"?>
<!-- Generator: Adobe Illustrator 16.0.3, SVG Export Plug-In . SVG Version: 6.00 Build 0)  -->
<!DOCTYPE svg PUBLIC "-//W3C//DTD SVG 1.1//EN" "http://www.w3.org/Graphics/SVG/1.1/DTD/svg11.dtd">
<svg version="1.1" xmlns="http://www.w3.org/2000/svg" xmlns:xlink="http://www.w3.org/1999/xlink" x="0px" y="0px" width="280px"
	 height="150px" viewBox="33.5 -391.5 280 150" style="enable-background:new 33.5 -391.5 280 150;" xml:space="preserve">
<g id="Layer_1">
	<g id="New_Symbol_2">
	</g>
	<g id="New_Symbol_3_">
	</g>
	<g id="New_Symbol_2_">
	</g>
	<g id="New_Symbol_1_">
	</g>
	<g id="New_Symbol">
	</g>
	<g>
		<g>
			<g>
				<g>
					<g>
						<g>
							<g>
								<g>
									<g id="Layer_1_122_">
										<g>
											<g>
												<g>
													<g>
														<g>
															<g>
																<g>
																	<g>
																		<g style="opacity:0;">
																			<rect x="33.5" y="-391.5" style="fill:#FFFFFF;" width="280" height="150"/>
																		</g>
																	</g>
																</g>
															</g>
														</g>
													</g>
												</g>
											</g>
										</g>
									</g>
								</g>
							</g>
						</g>
					</g>
				</g>
				<g>
					<path style="fill:#00D2FF;" d="M254.5-288.5h-162c-0.553,0-1-0.448-1-1s0.447-1,1-1h162c0.553,0,1,0.448,1,1
						S255.053-288.5,254.5-288.5z"/>
				</g>
				<g>
					<path style="fill:#00D2FF;" d="M254.5-342.5h-162c-0.553,0-1-0.448-1-1s0.447-1,1-1h162c0.553,0,1,0.448,1,1
						S255.053-342.5,254.5-342.5z"/>
				</g>
			</g>
			<g>
				<path style="fill:#B4B4B4;" d="M171.478-282.5c-0.256,0-0.512-0.098-0.707-0.293c-0.391-0.39-0.391-1.023,0-1.414l5.315-5.316
					l-5.27-5.27c-0.391-0.391-0.391-1.023,0-1.414s1.023-0.391,1.414,0l5.977,5.977c0.391,0.391,0.391,1.023,0,1.414l-6.022,6.023
					C171.989-282.598,171.733-282.5,171.478-282.5z"/>
			</g>
			<g>
				<path style="fill:#B4B4B4;" d="M171.478-336.5c-0.256,0-0.512-0.098-0.707-0.293c-0.391-0.39-0.391-1.023,0-1.414l5.315-5.316
					l-5.27-5.27c-0.391-0.391-0.391-1.023,0-1.414s1.023-0.391,1.414,0l5.977,5.977c0.391,0.391,0.391,1.023,0,1.414l-6.022,6.023
					C171.989-336.598,171.733-336.5,171.478-336.5z"/>
			</g>
		</g>
	</g>
</g>
<g id="Isolation_Mode">
</g>
<g id="nyt_x5F_exporter_x5F_info" style="display:none;">
</g>
</svg>
