<?xml version="1.0" encoding="iso-8859-1"?>
<!-- Generator: Adobe Illustrator 16.0.3, SVG Export Plug-In . SVG Version: 6.00 Build 0)  -->
<!DOCTYPE svg PUBLIC "-//W3C//DTD SVG 1.1//EN" "http://www.w3.org/Graphics/SVG/1.1/DTD/svg11.dtd">
<svg version="1.1" xmlns="http://www.w3.org/2000/svg" xmlns:xlink="http://www.w3.org/1999/xlink" x="0px" y="0px" width="280px"
	 height="150px" viewBox="933.5 -391.5 280 150" style="enable-background:new 933.5 -391.5 280 150;" xml:space="preserve">
<g id="Layer_1">
	<g id="New_Symbol_2">
	</g>
	<g id="New_Symbol_3_">
	</g>
	<g id="New_Symbol_2_">
	</g>
	<g id="New_Symbol_1_">
	</g>
	<g id="New_Symbol">
	</g>
	<g>
		<g>
		</g>
	</g>
	<g>
		<g>
			<g>
				<g>
					<g>
						<g>
							<g>
								<g>
									<g>
										<g>
											<g>
												<g style="opacity:0;">
													<rect x="933.5" y="-391.5" style="fill:#FFFFFF;" width="280" height="150"/>
												</g>
											</g>
										</g>
									</g>
								</g>
							</g>
						</g>
					</g>
				</g>
			</g>
			<g>
				<path style="opacity:0.5;fill:#FABE00;" d="M1053.88-264.5h-14l-4.319-13.32c1.359-0.439,2.81-0.68,4.319-0.68
					C1047.609-278.5,1053.88-272.23,1053.88-264.5z"/>
				<path style="fill:#FABE00;" d="M1053.899-263.5c-0.005,0-0.012,0-0.02,0h-14c-0.434,0-0.817-0.279-0.951-0.691l-4.319-13.32
					c-0.082-0.252-0.061-0.527,0.061-0.764s0.33-0.415,0.583-0.497c1.495-0.483,3.052-0.728,4.627-0.728
					c8.202,0,14.888,6.617,14.999,14.793c0.014,0.066,0.021,0.136,0.021,0.207C1054.899-263.948,1054.452-263.5,1053.899-263.5z
					 M1040.606-265.5h12.235c-0.513-6.703-6.13-12-12.962-12c-1.03,0-2.052,0.121-3.048,0.36L1040.606-265.5z"/>
			</g>
			<g>
				<path style="opacity:0.5;fill:#FABE00;" d="M1033.1-328.58c0,6.22-4.06,11.5-9.68,13.32l-4.32-13.32l11.32-8.24
					C1032.1-334.51,1033.1-331.66,1033.1-328.58z"/>
				<path style="fill:#FABE00;" d="M1023.42-314.259c-0.422,0-0.814-0.269-0.951-0.692l-4.32-13.32
					c-0.134-0.412,0.013-0.862,0.362-1.117l11.32-8.24c0.216-0.156,0.479-0.221,0.745-0.179c0.262,0.042,0.497,0.185,0.652,0.4
					c1.878,2.583,2.871,5.636,2.871,8.828c0,6.527-4.168,12.262-10.371,14.271C1023.626-314.275,1023.521-314.259,1023.42-314.259z
					 M1020.274-328.199l3.776,11.644c4.854-1.99,8.049-6.704,8.049-12.025c0-2.432-0.664-4.77-1.931-6.821L1020.274-328.199z"/>
			</g>
			<g>
				<path style="opacity:0.5;fill:#FABE00;" d="M1084.82-359.93c-2.551,3.489-6.67,5.76-11.32,5.76s-8.77-2.271-11.32-5.76
					l11.32-8.24L1084.82-359.93z"/>
				<path style="fill:#FABE00;" d="M1073.5-353.17c-4.77,0-9.304-2.307-12.128-6.169c-0.156-0.214-0.222-0.482-0.181-0.745
					c0.041-0.262,0.186-0.498,0.399-0.654l11.32-8.24c0.352-0.255,0.826-0.255,1.178,0l11.32,8.24
					c0.214,0.156,0.358,0.392,0.399,0.654c0.041,0.263-0.024,0.531-0.181,0.745C1082.804-355.477,1078.27-353.17,1073.5-353.17z
					 M1063.609-359.734c2.464,2.875,6.091,4.564,9.891,4.564s7.427-1.689,9.891-4.564l-9.891-7.199L1063.609-359.734z"/>
			</g>
			<g>
				<path style="opacity:0.5;fill:#FABE00;" d="M1127.9-328.55l-4.32,13.319c-5.62-1.819-9.68-7.1-9.68-13.319
					c0-3.08,1-5.931,2.68-8.24L1127.9-328.55z"/>
				<path style="fill:#FABE00;" d="M1123.58-314.23c-0.102,0-0.206-0.016-0.308-0.049c-6.204-2.008-10.372-7.743-10.372-14.271
					c0-3.193,0.993-6.246,2.871-8.829c0.156-0.214,0.391-0.358,0.653-0.399c0.262-0.043,0.528,0.023,0.744,0.179l11.32,8.24
					c0.35,0.255,0.496,0.706,0.362,1.117l-4.32,13.319C1124.395-314.499,1124.002-314.23,1123.58-314.23z M1116.831-335.371
					c-1.266,2.05-1.931,4.389-1.931,6.821c0,5.321,3.195,10.035,8.049,12.024l3.776-11.643L1116.831-335.371z"/>
			</g>
			<g>
				<path style="opacity:0.5;fill:#FABE00;" d="M1111.439-277.82l-4.319,13.32h-14c0-7.73,6.271-14,14-14
					C1108.63-278.5,1110.08-278.26,1111.439-277.82z"/>
				<path style="fill:#FABE00;" d="M1107.12-263.5h-14c-0.553,0-1-0.448-1-1c0-8.271,6.729-15,15-15
					c1.575,0,3.132,0.245,4.627,0.728c0.253,0.082,0.462,0.26,0.583,0.497s0.143,0.511,0.061,0.764l-4.319,13.32
					C1107.938-263.779,1107.554-263.5,1107.12-263.5z M1094.158-265.5h12.235l3.774-11.64c-0.996-0.239-2.018-0.36-3.048-0.36
					C1100.288-277.5,1094.671-272.203,1094.158-265.5z"/>
			</g>
			<g>
				<path style="fill:#00D2FF;" d="M1107.122-263.5h-67.244c-0.434,0-0.817-0.279-0.951-0.691l-20.78-64.084
					c-0.134-0.412,0.013-0.862,0.362-1.117l54.402-39.59c0.353-0.255,0.827-0.255,1.178,0l54.402,39.623
					c0.35,0.254,0.496,0.705,0.362,1.117l-20.78,64.051C1107.939-263.779,1107.556-263.5,1107.122-263.5z M1040.604-265.5h65.791
					l20.332-62.669l-53.228-38.768l-53.228,38.735L1040.604-265.5z"/>
			</g>
			<g>
				<path style="fill:#B4B4B4;" d="M1073.5-259.5c-0.553,0-1-0.448-1-1v-8c0-0.552,0.447-1,1-1s1,0.448,1,1v8
					C1074.5-259.948,1074.053-259.5,1073.5-259.5z"/>
			</g>
			<g>
				<path style="fill:#B4B4B4;" d="M1025.714-294.324c-0.424,0-0.817-0.272-0.953-0.698c-0.167-0.526,0.124-1.088,0.65-1.256
					l7.624-2.424c0.523-0.167,1.088,0.124,1.256,0.65c0.167,0.526-0.124,1.088-0.65,1.256l-7.624,2.424
					C1025.916-294.339,1025.814-294.324,1025.714-294.324z"/>
			</g>
			<g>
				<path style="fill:#B4B4B4;" d="M1048.704-344.153c-0.31,0-0.614-0.143-0.81-0.412l-4.705-6.471
					c-0.325-0.446-0.227-1.072,0.221-1.396c0.447-0.326,1.072-0.227,1.396,0.221l4.705,6.471c0.325,0.446,0.227,1.072-0.221,1.396
					C1049.113-344.215,1048.908-344.153,1048.704-344.153z"/>
			</g>
			<g>
				<path style="fill:#B4B4B4;" d="M1098.333-344.15c-0.203,0-0.408-0.062-0.586-0.19c-0.447-0.324-0.547-0.949-0.223-1.396
					l4.693-6.477c0.323-0.446,0.947-0.548,1.396-0.223c0.447,0.324,0.547,0.949,0.223,1.396l-4.693,6.477
					C1098.948-344.294,1098.643-344.15,1098.333-344.15z"/>
			</g>
			<g>
				<path style="fill:#B4B4B4;" d="M1121.307-294.308c-0.102,0-0.205-0.016-0.307-0.049l-7.615-2.454
					c-0.525-0.169-0.814-0.733-0.646-1.258c0.17-0.525,0.735-0.817,1.259-0.645l7.615,2.454c0.525,0.169,0.814,0.733,0.646,1.258
					C1122.122-294.578,1121.729-294.308,1121.307-294.308z"/>
			</g>
		</g>
	</g>
</g>
<g id="Isolation_Mode">
</g>
<g id="nyt_x5F_exporter_x5F_info" style="display:none;">
</g>
</svg>
