<?xml version="1.0" encoding="iso-8859-1"?>
<!-- Generator: Adobe Illustrator 16.0.3, SVG Export Plug-In . SVG Version: 6.00 Build 0)  -->
<!DOCTYPE svg PUBLIC "-//W3C//DTD SVG 1.1//EN" "http://www.w3.org/Graphics/SVG/1.1/DTD/svg11.dtd">
<svg version="1.1" xmlns="http://www.w3.org/2000/svg" xmlns:xlink="http://www.w3.org/1999/xlink" x="0px" y="0px" width="280px"
	 height="150px" viewBox="633.5 -391.5 280 150" style="enable-background:new 633.5 -391.5 280 150;" xml:space="preserve">
<g id="Layer_1">
	<g id="New_Symbol_2">
	</g>
	<g id="New_Symbol_3_">
	</g>
	<g id="New_Symbol_2_">
	</g>
	<g id="New_Symbol_1_">
	</g>
	<g id="New_Symbol">
	</g>
	<g>
		<g>
		</g>
	</g>
	<g>
		<g>
			<g>
				<g>
					<g>
						<g>
							<g>
								<g>
									<g>
										<g>
											<g style="opacity:0;">
												<rect x="633.5" y="-391.5" style="fill:#FFFFFF;" width="280" height="150"/>
											</g>
										</g>
									</g>
								</g>
							</g>
						</g>
					</g>
				</g>
			</g>
			<g>
				<path style="fill:#00D2FF;" d="M781.402-269.188c-0.054,0-0.107-0.004-0.161-0.013l-68.558-11.197
					c-0.457-0.075-0.803-0.453-0.836-0.915l-3.342-46.238c-0.029-0.396,0.18-0.772,0.532-0.958l66.369-34.885
					c0.349-0.183,0.772-0.146,1.082,0.099l61.285,48.103c0.241,0.189,0.382,0.478,0.383,0.784s-0.139,0.596-0.379,0.786
					l-55.755,44.218C781.846-269.263,781.626-269.188,781.402-269.188z M713.785-282.245l67.342,10.999l54.416-43.156l-59.779-46.92
					l-65.216,34.279L713.785-282.245z"/>
			</g>
		</g>
	</g>
</g>
<g id="Isolation_Mode">
</g>
<g id="nyt_x5F_exporter_x5F_info" style="display:none;">
</g>
</svg>
