<?xml version="1.0" encoding="iso-8859-1"?>
<!-- Generator: Adobe Illustrator 16.0.3, SVG Export Plug-In . SVG Version: 6.00 Build 0)  -->
<!DOCTYPE svg PUBLIC "-//W3C//DTD SVG 1.1//EN" "http://www.w3.org/Graphics/SVG/1.1/DTD/svg11.dtd">
<svg version="1.1" xmlns="http://www.w3.org/2000/svg" xmlns:xlink="http://www.w3.org/1999/xlink" x="0px" y="0px" width="280px"
	 height="150px" viewBox="-266.5 458.5 280 150" style="enable-background:new -266.5 458.5 280 150;" xml:space="preserve">
<g id="Layer_1">
	<g id="New_Symbol_2">
	</g>
	<g id="New_Symbol_3_">
	</g>
	<g id="New_Symbol_2_">
	</g>
	<g id="New_Symbol_1_">
	</g>
	<g id="New_Symbol">
	</g>
	<g>
		<g>
			<g>
				<g>
					<g>
						<g>
							<g>
								<g>
									<g id="Layer_1_124_">
										<g>
											<g>
												<g>
													<g>
														<g>
															<g>
																<g>
																	<g>
																		<g style="opacity:0;">
																			<line style="fill:#FFFFFF;" x1="13.5" y1="458.5" x2="13.5" y2="608.5"/>
																		</g>
																	</g>
																</g>
															</g>
														</g>
													</g>
												</g>
											</g>
										</g>
									</g>
								</g>
							</g>
						</g>
					</g>
				</g>
			</g>
		</g>
	</g>
	<g>
		<g>
			<g>
				<g>
					<g>
						<g>
							<g>
								<g>
									<g>
										<g>
											<g>
												<g>
													<g style="opacity:0;">
														<rect x="-266.5" y="458.5" style="fill:#FFFFFF;" width="280" height="150"/>
													</g>
												</g>
											</g>
										</g>
									</g>
								</g>
							</g>
						</g>
					</g>
				</g>
				<g>
					<g>
						<path d="M-160.81,489.17c0-0.896-0.576-1.265-1.601-1.265c-0.801,0-1.681,0.368-2.272,0.832l-0.608-0.992
							c0.8-0.64,1.969-1.04,3.089-1.04c1.44,0,2.817,0.608,2.817,2.24c0,0.192-0.032,0.561-0.064,0.769l-0.56,3.073
							c-0.097,0.593-0.177,1.297-0.177,1.713h-1.36c0-0.32,0.032-0.704,0.096-1.057h-0.031c-0.721,0.849-1.537,1.217-2.689,1.217
							c-1.04,0-2.353-0.464-2.353-2.001c0-2.465,3.009-2.897,5.65-2.897C-160.825,489.458-160.81,489.313-160.81,489.17z
							 M-161.273,490.851c-1.665,0-3.777,0.224-3.777,1.601c0,0.832,0.704,1.072,1.393,1.072c1.344,0,2.305-0.96,2.513-2.112
							l0.112-0.561H-161.273z"/>
					</g>
				</g>
				<g>
					<g>
						<path d="M-70.435,501.22l-0.225,1.28h-1.424l2.129-12.101h1.488l-1.04,5.73h0.031c0.545-0.816,1.585-1.425,2.754-1.425
							c2,0,3.313,1.328,3.313,3.281c0,2.593-1.809,4.706-4.306,4.706c-1.104,0-2.209-0.528-2.688-1.473H-70.435z M-67.041,495.938
							c-1.697,0-3.01,1.521-3.01,3.329c0,1.28,0.849,2.209,2.177,2.209c1.777,0,2.945-1.488,2.945-3.346
							C-64.929,496.897-65.681,495.938-67.041,495.938z"/>
					</g>
				</g>
				<g>
					<g>
						<path d="M-123.92,552.85c-0.257-0.512-0.913-0.912-1.665-0.912c-1.745,0-3.009,1.521-3.009,3.313
							c0,1.216,0.736,2.209,2.177,2.209c0.944,0,1.584-0.385,2.081-0.913l0.896,0.833c-0.8,0.8-1.776,1.328-3.073,1.328
							c-2.177,0-3.585-1.328-3.585-3.281c0-2.529,1.809-4.722,4.594-4.722c1.12,0,2.225,0.4,2.737,1.28L-123.92,552.85z"/>
					</g>
				</g>
				<g>
					<g>
						<path d="M-172.138,579.167h3.233c2.337,0,3.666,1.073,3.666,2.85c0,2.401-1.857,3.506-4.53,3.506h-1.937l-0.881,4.978h-1.552
							L-172.138,579.167z M-171.482,584.209h1.793c1.745,0,2.881-0.607,2.881-2.017c0-1.296-0.928-1.696-2.305-1.696h-1.696
							L-171.482,584.209z"/>
					</g>
					<g>
						<path d="M-150.952,583.682v1.296h-8.42v-1.296H-150.952z M-150.952,586.322v1.297h-8.42v-1.297H-150.952z"/>
					</g>
					<g>
						<path d="M-139.209,585.17c0-0.896-0.576-1.265-1.601-1.265c-0.801,0-1.681,0.368-2.272,0.832l-0.608-0.992
							c0.8-0.64,1.969-1.04,3.089-1.04c1.44,0,2.817,0.608,2.817,2.24c0,0.192-0.032,0.561-0.064,0.769l-0.56,3.073
							c-0.097,0.593-0.177,1.297-0.177,1.713h-1.36c0-0.32,0.032-0.704,0.096-1.057h-0.031c-0.721,0.849-1.537,1.217-2.689,1.217
							c-1.04,0-2.353-0.464-2.353-2.001c0-2.465,3.009-2.897,5.65-2.897C-139.225,585.458-139.209,585.313-139.209,585.17z
							 M-139.673,586.851c-1.665,0-3.777,0.224-3.777,1.601c0,0.832,0.704,1.072,1.393,1.072c1.344,0,2.305-0.96,2.513-2.112
							l0.112-0.561H-139.673z"/>
					</g>
					<g>
						<path d="M-125.978,584.994h3.554v1.313h-3.554v3.553h-1.313v-3.553h-3.554v-1.313h3.554v-3.554h1.313V584.994z"/>
					</g>
					<g>
						<path d="M-114.54,589.22l-0.225,1.28h-1.424l2.129-12.101h1.488l-1.04,5.73h0.031c0.545-0.816,1.585-1.425,2.754-1.425
							c2,0,3.313,1.328,3.313,3.281c0,2.593-1.809,4.706-4.306,4.706c-1.104,0-2.209-0.528-2.688-1.473H-114.54z M-111.146,583.938
							c-1.697,0-3.01,1.521-3.01,3.329c0,1.28,0.849,2.209,2.177,2.209c1.777,0,2.945-1.488,2.945-3.346
							C-109.034,584.897-109.786,583.938-111.146,583.938z"/>
					</g>
					<g>
						<path d="M-95.914,584.994h3.554v1.313h-3.554v3.553h-1.313v-3.553h-3.554v-1.313h3.554v-3.554h1.313V584.994z"/>
					</g>
					<g>
						<path d="M-79.898,584.85c-0.257-0.512-0.913-0.912-1.665-0.912c-1.745,0-3.009,1.521-3.009,3.313
							c0,1.216,0.736,2.209,2.177,2.209c0.944,0,1.584-0.385,2.081-0.913l0.896,0.833c-0.8,0.8-1.776,1.328-3.073,1.328
							c-2.177,0-3.585-1.328-3.585-3.281c0-2.529,1.809-4.722,4.594-4.722c1.12,0,2.225,0.4,2.737,1.28L-79.898,584.85z"/>
					</g>
				</g>
			</g>
			<g>
				<path style="fill:#00D2FF;" d="M-33.48,541.5c-0.007-0.001-0.013-0.001-0.02,0h-186c-0.453,0-0.85-0.305-0.966-0.743
					c-0.117-0.438,0.076-0.899,0.469-1.125l110-63c0.361-0.205,0.814-0.168,1.135,0.099l75.889,62.907
					c0.295,0.174,0.493,0.495,0.493,0.862C-32.48,541.053-32.928,541.5-33.48,541.5z M-215.742,539.5h179.468l-73.331-60.788
					L-215.742,539.5z"/>
			</g>
		</g>
	</g>
</g>
<g id="Isolation_Mode">
</g>
<g id="nyt_x5F_exporter_x5F_info" style="display:none;">
</g>
</svg>
