<?xml version="1.0" encoding="iso-8859-1"?>
<!-- Generator: Adobe Illustrator 16.0.3, SVG Export Plug-In . SVG Version: 6.00 Build 0)  -->
<!DOCTYPE svg PUBLIC "-//W3C//DTD SVG 1.1//EN" "http://www.w3.org/Graphics/SVG/1.1/DTD/svg11.dtd">
<svg version="1.1" xmlns="http://www.w3.org/2000/svg" xmlns:xlink="http://www.w3.org/1999/xlink" x="0px" y="0px" width="280px"
	 height="150px" viewBox="933.5 373.5 280 150" style="enable-background:new 933.5 373.5 280 150;" xml:space="preserve">
<g id="Layer_1">
	<g id="New_Symbol_2">
	</g>
	<g id="New_Symbol_3_">
	</g>
	<g id="New_Symbol_2_">
	</g>
	<g id="New_Symbol_1_">
	</g>
	<g id="New_Symbol">
	</g>
	<g>
		<g>
			<g>
				<g>
					<rect x="1072.5" y="432.5" style="opacity:0.5;fill:#FABE00;" width="16" height="16"/>
					<path style="fill:#FABE00;" d="M1088.5,449.5h-16c-0.553,0-1-0.447-1-1v-16c0-0.553,0.447-1,1-1h16c0.553,0,1,0.447,1,1v16
						C1089.5,449.053,1089.053,449.5,1088.5,449.5z M1073.5,447.5h14v-14h-14V447.5z"/>
				</g>
				<g>
					<g>
						<g>
							<g>
								<g>
									<g>
										<g id="Layer_1_121_">
											<g>
												<g>
													<g>
														<g>
															<g>
																<g>
																	<g>
																		<g>
																			<g style="opacity:0;">
																				<rect x="933.5" y="373.5" style="fill:#FFFFFF;" width="280" height="150"/>
																			</g>
																		</g>
																	</g>
																</g>
															</g>
														</g>
													</g>
												</g>
											</g>
										</g>
									</g>
								</g>
							</g>
							<g>
								<g>
									<path style="fill:#00D2FF;" d="M1147.5,449.5h-150c-0.553,0-1-0.447-1-1s0.447-1,1-1h150c0.553,0,1,0.447,1,1
										S1148.053,449.5,1147.5,449.5z"/>
								</g>
							</g>
							<g>
								<path style="fill:#00D2FF;" d="M1072.5,504.5c-0.553,0-1-0.447-1-1v-110c0-0.553,0.447-1,1-1s1,0.447,1,1v110
									C1073.5,504.053,1073.053,504.5,1072.5,504.5z"/>
							</g>
						</g>
					</g>
				</g>
			</g>
			<g>
				<g>
					<path d="M1114.463,407.746l-3.857,4.754h-1.841l3.89-4.609l-0.016-0.049c-0.145,0.08-0.336,0.145-0.528,0.192
						s-0.4,0.08-0.608,0.08c-2.017,0-3.265-1.345-3.265-3.089c0-2.337,1.664-4.146,4.273-4.146c2.064,0,3.569,1.361,3.569,3.33
						C1116.08,405.329,1115.567,406.401,1114.463,407.746z M1112.463,402.144c-1.649,0-2.705,1.169-2.705,2.753
						c0,1.201,0.848,2.049,2,2.049c1.649,0,2.802-1.184,2.802-2.736C1114.56,403.008,1113.647,402.144,1112.463,402.144z"/>
				</g>
				<g>
					<path d="M1125.247,404.769c0,3.266-1.296,8.02-4.93,8.02c-2.272,0-3.169-1.713-3.169-3.825c0-3.313,1.328-8.084,4.962-8.084
						C1124.367,400.879,1125.247,402.656,1125.247,404.769z M1118.701,408.738c0,1.489,0.432,2.753,1.729,2.753
						c1.904,0,3.233-3.345,3.233-6.563c0-1.504-0.4-2.769-1.681-2.769C1120.045,402.16,1118.701,405.537,1118.701,408.738z"/>
				</g>
				<g>
					<path d="M1129.661,405.921c-1.393,0-2.481-1.072-2.481-2.465s1.089-2.48,2.481-2.48s2.48,1.088,2.48,2.48
						S1131.054,405.921,1129.661,405.921z M1129.661,401.983c-0.801,0-1.457,0.656-1.457,1.473c0,0.801,0.656,1.457,1.457,1.457
						c0.8,0,1.456-0.656,1.456-1.457C1131.117,402.64,1130.461,401.983,1129.661,401.983z"/>
				</g>
			</g>
		</g>
	</g>
</g>
<g id="nyt_x5F_exporter_x5F_info" style="display:none;">
</g>
</svg>
