<?xml version="1.0" encoding="iso-8859-1"?>
<!-- Generator: Adobe Illustrator 16.0.3, SVG Export Plug-In . SVG Version: 6.00 Build 0)  -->
<!DOCTYPE svg PUBLIC "-//W3C//DTD SVG 1.1//EN" "http://www.w3.org/Graphics/SVG/1.1/DTD/svg11.dtd">
<svg version="1.1" xmlns="http://www.w3.org/2000/svg" xmlns:xlink="http://www.w3.org/1999/xlink" x="0px" y="0px" width="280px"
	 height="150px" viewBox="-1166.5 -221.5 280 150" style="enable-background:new -1166.5 -221.5 280 150;" xml:space="preserve">
<g id="Layer_1">
	<g id="New_Symbol_2">
	</g>
	<g id="New_Symbol_3_">
	</g>
	<g id="New_Symbol_2_">
	</g>
	<g id="New_Symbol_1_">
	</g>
	<g id="New_Symbol">
	</g>
	<g>
		<g>
			<g>
				<g>
					<rect x="-1027.5" y="-162.5" style="opacity:0.5;fill:#FABE00;" width="16" height="16"/>
					<path style="fill:#FABE00;" d="M-1011.5-145.5h-16c-0.552,0-1-0.448-1-1v-16c0-0.552,0.448-1,1-1h16c0.552,0,1,0.448,1,1v16
						C-1010.5-145.948-1010.948-145.5-1011.5-145.5z M-1026.5-147.5h14v-14h-14V-147.5z"/>
				</g>
				<g>
					<g>
						<circle style="fill:#C8C8C8;" cx="-1102.5" cy="-146.5" r="3"/>
					</g>
					<g>
						<circle style="fill:#C8C8C8;" cx="-952.5" cy="-146.5" r="3"/>
					</g>
					<g>
						<g>
							<g>
								<g>
									<g>
										<g id="Layer_1_120_">
											<g>
												<g>
													<g>
														<g>
															<g>
																<g>
																	<g>
																		<g>
																			<g style="opacity:0;">
																				<rect x="-1166.5" y="-221.5" style="fill:#FFFFFF;" width="280" height="150"/>
																			</g>
																		</g>
																	</g>
																</g>
															</g>
														</g>
													</g>
												</g>
											</g>
										</g>
									</g>
								</g>
							</g>
							<g>
								<g>
									<path style="fill:#C8C8C8;" d="M-952.5-145.5h-150c-0.552,0-1-0.448-1-1s0.448-1,1-1h150c0.552,0,1,0.448,1,1
										S-951.948-145.5-952.5-145.5z"/>
								</g>
							</g>
							<g>
								<path style="fill:#00D2FF;" d="M-1027.5-90.5c-0.552,0-1-0.448-1-1v-110c0-0.552,0.448-1,1-1s1,0.448,1,1v110
									C-1026.5-90.948-1026.948-90.5-1027.5-90.5z"/>
							</g>
						</g>
						<g>
							<path style="fill:#B4B4B4;" d="M-1063.5-141.5c-0.552,0-1-0.448-1-1v-8c0-0.552,0.448-1,1-1s1,0.448,1,1v8
								C-1062.5-141.948-1062.948-141.5-1063.5-141.5z"/>
						</g>
						<g>
							<path style="fill:#B4B4B4;" d="M-988.5-141.5c-0.552,0-1-0.448-1-1v-8c0-0.552,0.448-1,1-1s1,0.448,1,1v8
								C-987.5-141.948-987.948-141.5-988.5-141.5z"/>
						</g>
					</g>
				</g>
			</g>
			<g>
				<g>
					<path d="M-986.537-187.254l-3.857,4.754h-1.841l3.89-4.609l-0.016-0.049c-0.145,0.08-0.336,0.145-0.528,0.192
						s-0.4,0.08-0.608,0.08c-2.017,0-3.265-1.345-3.265-3.089c0-2.337,1.664-4.146,4.273-4.146c2.064,0,3.569,1.361,3.569,3.33
						C-984.92-189.671-985.433-188.599-986.537-187.254z M-988.537-192.856c-1.649,0-2.705,1.169-2.705,2.753
						c0,1.201,0.848,2.049,2,2.049c1.649,0,2.802-1.184,2.802-2.736C-986.44-191.992-987.353-192.856-988.537-192.856z"/>
				</g>
				<g>
					<path d="M-975.753-190.231c0,3.266-1.296,8.02-4.93,8.02c-2.272,0-3.169-1.713-3.169-3.825c0-3.313,1.328-8.084,4.962-8.084
						C-976.633-194.121-975.753-192.344-975.753-190.231z M-982.299-186.262c0,1.489,0.432,2.753,1.729,2.753
						c1.904,0,3.233-3.345,3.233-6.563c0-1.504-0.4-2.769-1.681-2.769C-980.955-192.84-982.299-189.463-982.299-186.262z"/>
				</g>
				<g>
					<path d="M-971.339-189.079c-1.393,0-2.481-1.072-2.481-2.465s1.089-2.48,2.481-2.48s2.48,1.088,2.48,2.48
						S-969.946-189.079-971.339-189.079z M-971.339-193.017c-0.801,0-1.457,0.656-1.457,1.473c0,0.801,0.656,1.457,1.457,1.457
						c0.8,0,1.456-0.656,1.456-1.457C-969.883-192.36-970.539-193.017-971.339-193.017z"/>
				</g>
			</g>
		</g>
	</g>
</g>
<g id="Isolation_Mode">
</g>
<g id="nyt_x5F_exporter_x5F_info" style="display:none;">
</g>
</svg>
