<?xml version="1.0" encoding="iso-8859-1"?>
<!-- Generator: Adobe Illustrator 16.0.3, SVG Export Plug-In . SVG Version: 6.00 Build 0)  -->
<!DOCTYPE svg PUBLIC "-//W3C//DTD SVG 1.1//EN" "http://www.w3.org/Graphics/SVG/1.1/DTD/svg11.dtd">
<svg version="1.1" xmlns="http://www.w3.org/2000/svg" xmlns:xlink="http://www.w3.org/1999/xlink" x="0px" y="0px" width="280px"
	 height="150px" viewBox="33.5 288.5 280 150" style="enable-background:new 33.5 288.5 280 150;" xml:space="preserve">
<g id="Layer_1">
	<g id="New_Symbol_2">
	</g>
	<g id="New_Symbol_3_">
	</g>
	<g id="New_Symbol_2_">
	</g>
	<g id="New_Symbol_1_">
	</g>
	<g id="New_Symbol">
	</g>
	<g>
		<g>
			<g>
				<g>
					<path d="M161.207,320.5h-1.521l1.681-9.492l-2.48,1.809l-0.721-1.136l3.602-2.514h1.44L161.207,320.5z"/>
				</g>
				<g>
					<path d="M172.039,314.562l0.016,0.032c0.992,0.304,1.745,1.217,1.745,2.385c0,2.417-1.905,3.81-4.146,3.81
						c-1.681,0-3.393-0.896-3.393-3.025c0-1.776,1.296-3.009,2.769-3.313v-0.048c-0.832-0.368-1.408-1.152-1.408-2.129
						c0-2.097,1.664-3.394,3.617-3.394c1.665,0,3.089,0.896,3.089,2.722C174.327,313.217,173.223,314.178,172.039,314.562z
						 M170.39,315.154c-1.521,0-2.641,1.056-2.641,2.465c0,1.216,0.864,1.889,1.969,1.889c1.648,0,2.593-1.089,2.593-2.497
						C172.311,315.922,171.526,315.154,170.39,315.154z M171.126,310.16c-1.232,0-2.08,0.96-2.08,2.097
						c0,0.896,0.64,1.616,1.664,1.616c1.249,0,2.161-0.992,2.161-2.049C172.871,310.752,172.167,310.16,171.126,310.16z"/>
				</g>
				<g>
					<path d="M184.007,312.769c0,3.266-1.296,8.02-4.93,8.02c-2.272,0-3.169-1.713-3.169-3.825c0-3.313,1.328-8.084,4.962-8.084
						C183.127,308.879,184.007,310.656,184.007,312.769z M177.461,316.738c0,1.489,0.432,2.753,1.729,2.753
						c1.904,0,3.233-3.345,3.233-6.563c0-1.504-0.4-2.769-1.681-2.769C178.805,310.16,177.461,313.537,177.461,316.738z"/>
				</g>
				<g>
					<path d="M188.421,313.921c-1.393,0-2.481-1.072-2.481-2.465s1.089-2.48,2.481-2.48s2.48,1.088,2.48,2.48
						S189.813,313.921,188.421,313.921z M188.421,309.983c-0.801,0-1.457,0.656-1.457,1.473c0,0.801,0.656,1.457,1.457,1.457
						c0.8,0,1.456-0.656,1.456-1.457C189.877,310.64,189.221,309.983,188.421,309.983z"/>
				</g>
			</g>
			<g>
				<g>
					<path style="fill:#E1E1E1;" d="M98.33,419.422c-0.318,0-0.632-0.151-0.825-0.434c-0.313-0.456-0.197-1.078,0.258-1.391
						l4.946-3.396c0.455-0.313,1.079-0.197,1.391,0.258c0.313,0.456,0.197,1.078-0.258,1.391l-4.946,3.396
						C98.723,419.365,98.525,419.422,98.33,419.422z M108.223,412.63c-0.318,0-0.632-0.151-0.825-0.434
						c-0.313-0.456-0.197-1.078,0.258-1.391l4.946-3.396c0.455-0.313,1.079-0.197,1.391,0.258c0.313,0.456,0.197,1.078-0.258,1.391
						l-4.946,3.396C108.615,412.573,108.418,412.63,108.223,412.63z M118.115,405.838c-0.318,0-0.632-0.151-0.825-0.434
						c-0.313-0.456-0.197-1.078,0.258-1.391l4.947-3.396c0.458-0.313,1.079-0.197,1.391,0.258c0.313,0.456,0.197,1.078-0.258,1.391
						l-4.947,3.396C118.507,405.781,118.311,405.838,118.115,405.838z M128.009,399.046c-0.318,0-0.632-0.151-0.825-0.434
						c-0.313-0.456-0.197-1.078,0.258-1.391l4.946-3.396c0.455-0.313,1.078-0.197,1.391,0.258c0.313,0.456,0.197,1.078-0.258,1.391
						l-4.946,3.396C128.401,398.989,128.204,399.046,128.009,399.046z M137.901,392.254c-0.318,0-0.632-0.151-0.825-0.434
						c-0.313-0.456-0.197-1.078,0.258-1.391l4.946-3.396c0.455-0.313,1.08-0.197,1.391,0.258c0.313,0.456,0.197,1.078-0.258,1.391
						l-4.946,3.396C138.294,392.197,138.097,392.254,137.901,392.254z M147.794,385.461c-0.318,0-0.632-0.151-0.825-0.434
						c-0.313-0.456-0.197-1.078,0.258-1.391l4.946-3.396c0.458-0.313,1.079-0.196,1.391,0.258c0.313,0.456,0.197,1.078-0.258,1.391
						l-4.946,3.396C148.186,385.404,147.989,385.461,147.794,385.461z M157.687,378.669c-0.318,0-0.632-0.151-0.825-0.434
						c-0.313-0.456-0.197-1.078,0.258-1.391l4.946-3.396c0.458-0.313,1.079-0.197,1.391,0.258c0.313,0.456,0.197,1.078-0.258,1.391
						l-4.946,3.396C158.078,378.612,157.882,378.669,157.687,378.669z M167.579,371.877c-0.318,0-0.632-0.151-0.825-0.435
						c-0.313-0.455-0.197-1.077,0.259-1.39l4.947-3.396c0.455-0.313,1.078-0.198,1.39,0.259c0.313,0.455,0.197,1.077-0.259,1.39
						l-4.947,3.396C167.971,371.82,167.774,371.877,167.579,371.877z M177.473,365.085c-0.318,0-0.632-0.151-0.825-0.434
						c-0.313-0.456-0.197-1.078,0.258-1.391l4.946-3.396c0.455-0.313,1.079-0.197,1.391,0.258c0.313,0.456,0.197,1.078-0.258,1.391
						l-4.946,3.396C177.865,365.028,177.668,365.085,177.473,365.085z M187.365,358.293c-0.318,0-0.632-0.151-0.825-0.434
						c-0.313-0.456-0.197-1.078,0.258-1.391l4.946-3.396c0.455-0.313,1.079-0.197,1.391,0.258c0.313,0.456,0.197,1.078-0.258,1.391
						l-4.946,3.396C187.758,358.236,187.561,358.293,187.365,358.293z M197.258,351.501c-0.318,0-0.632-0.151-0.825-0.434
						c-0.313-0.456-0.197-1.078,0.258-1.391l4.946-3.396c0.456-0.313,1.079-0.197,1.391,0.258c0.313,0.456,0.197,1.078-0.258,1.391
						l-4.946,3.396C197.65,351.444,197.453,351.501,197.258,351.501z M207.15,344.709c-0.318,0-0.632-0.151-0.825-0.434
						c-0.313-0.456-0.197-1.078,0.258-1.391l4.946-3.396c0.455-0.313,1.078-0.197,1.391,0.258c0.313,0.456,0.197,1.078-0.258,1.391
						l-4.946,3.396C207.543,344.652,207.346,344.709,207.15,344.709z M217.044,337.917c-0.318,0-0.632-0.151-0.825-0.434
						c-0.313-0.456-0.197-1.078,0.258-1.391l4.946-3.396c0.455-0.313,1.079-0.197,1.391,0.258c0.313,0.456,0.197,1.078-0.258,1.391
						l-4.946,3.396C217.437,337.86,217.239,337.917,217.044,337.917z M226.937,331.124c-0.318,0-0.632-0.151-0.825-0.434
						c-0.313-0.456-0.197-1.078,0.258-1.391l4.946-3.396c0.458-0.313,1.079-0.197,1.391,0.258c0.313,0.456,0.197,1.078-0.258,1.391
						l-4.946,3.396C227.328,331.067,227.132,331.124,226.937,331.124z M236.829,324.332c-0.318,0-0.632-0.151-0.825-0.434
						c-0.313-0.456-0.197-1.078,0.258-1.391l4.946-3.396c0.458-0.313,1.079-0.197,1.391,0.258c0.313,0.456,0.197,1.078-0.258,1.391
						l-4.946,3.396C237.221,324.275,237.024,324.332,236.829,324.332z"/>
				</g>
				<g>
					<path style="fill:#E1E1E1;" d="M208.732,391.451c-0.183,0-0.368-0.05-0.534-0.155l-1.504-0.953
						c-0.467-0.296-0.605-0.913-0.31-1.38c0.295-0.468,0.912-0.606,1.38-0.31l1.504,0.953c0.467,0.296,0.605,0.913,0.31,1.38
						C209.388,391.287,209.063,391.451,208.732,391.451z M202.159,387.288c-0.183,0-0.368-0.05-0.534-0.155l-5.068-3.211
						c-0.467-0.296-0.605-0.913-0.31-1.38c0.295-0.467,0.912-0.606,1.38-0.31l5.068,3.211c0.467,0.296,0.605,0.913,0.31,1.38
						C202.814,387.124,202.49,387.288,202.159,387.288z M192.022,380.866c-0.183,0-0.368-0.05-0.534-0.155l-5.069-3.211
						c-0.467-0.296-0.605-0.913-0.31-1.38c0.295-0.467,0.912-0.607,1.38-0.31l5.069,3.211c0.467,0.296,0.605,0.913,0.31,1.38
						C192.678,380.702,192.354,380.866,192.022,380.866z M181.885,374.445c-0.183,0-0.368-0.05-0.534-0.155l-5.068-3.211
						c-0.467-0.296-0.605-0.913-0.31-1.38c0.295-0.467,0.913-0.607,1.38-0.31l5.068,3.211c0.467,0.296,0.605,0.913,0.31,1.38
						C182.54,374.281,182.216,374.445,181.885,374.445z M171.747,368.023c-0.183,0-0.368-0.05-0.534-0.155l-5.068-3.211
						c-0.467-0.296-0.605-0.913-0.31-1.38c0.295-0.467,0.912-0.607,1.38-0.31l5.068,3.211c0.467,0.296,0.605,0.913,0.31,1.38
						C172.402,367.859,172.078,368.023,171.747,368.023z M161.61,361.603c-0.183,0-0.368-0.05-0.534-0.155l-5.069-3.211
						c-0.467-0.296-0.605-0.913-0.31-1.38c0.295-0.468,0.912-0.607,1.38-0.31l5.069,3.211c0.467,0.296,0.605,0.913,0.31,1.38
						C162.266,361.438,161.941,361.603,161.61,361.603z M151.473,355.181c-0.183,0-0.368-0.05-0.534-0.155l-5.068-3.211
						c-0.467-0.296-0.605-0.913-0.31-1.38c0.296-0.468,0.912-0.606,1.38-0.31l5.068,3.211c0.467,0.296,0.605,0.913,0.31,1.38
						C152.128,355.017,151.804,355.181,151.473,355.181z M141.335,348.76c-0.183,0-0.368-0.05-0.534-0.155l-5.068-3.211
						c-0.467-0.296-0.605-0.913-0.31-1.38c0.295-0.467,0.913-0.606,1.38-0.31l5.068,3.211c0.467,0.296,0.605,0.913,0.31,1.38
						C141.99,348.596,141.666,348.76,141.335,348.76z"/>
				</g>
				<g>
					<path style="fill:#E1E1E1;" d="M264.5,368.5h-6c-0.553,0-1-0.447-1-1s0.447-1,1-1h6c0.553,0,1,0.447,1,1
						S265.053,368.5,264.5,368.5z M252.5,368.5h-6c-0.553,0-1-0.447-1-1s0.447-1,1-1h6c0.553,0,1,0.447,1,1
						S253.053,368.5,252.5,368.5z M240.5,368.5h-6c-0.553,0-1-0.447-1-1s0.447-1,1-1h6c0.553,0,1,0.447,1,1
						S241.053,368.5,240.5,368.5z M228.5,368.5h-6c-0.553,0-1-0.447-1-1s0.447-1,1-1h6c0.553,0,1,0.447,1,1
						S229.053,368.5,228.5,368.5z M216.5,368.5h-6c-0.553,0-1-0.447-1-1s0.447-1,1-1h6c0.553,0,1,0.447,1,1
						S217.053,368.5,216.5,368.5z M204.5,368.5h-6c-0.553,0-1-0.447-1-1s0.447-1,1-1h6c0.553,0,1,0.447,1,1
						S205.053,368.5,204.5,368.5z M192.5,368.5h-6c-0.553,0-1-0.447-1-1s0.447-1,1-1h6c0.553,0,1,0.447,1,1
						S193.053,368.5,192.5,368.5z M180.5,368.5h-6c-0.553,0-1-0.447-1-1s0.447-1,1-1h6c0.553,0,1,0.447,1,1
						S181.053,368.5,180.5,368.5z M168.5,368.5h-6c-0.553,0-1-0.447-1-1s0.447-1,1-1h6c0.553,0,1,0.447,1,1
						S169.053,368.5,168.5,368.5z M156.5,368.5h-6c-0.553,0-1-0.447-1-1s0.447-1,1-1h6c0.553,0,1,0.447,1,1
						S157.053,368.5,156.5,368.5z M144.5,368.5h-6c-0.553,0-1-0.447-1-1s0.447-1,1-1h6c0.553,0,1,0.447,1,1
						S145.053,368.5,144.5,368.5z M132.5,368.5h-6c-0.553,0-1-0.447-1-1s0.447-1,1-1h6c0.553,0,1,0.447,1,1
						S133.053,368.5,132.5,368.5z M120.5,368.5h-6c-0.553,0-1-0.447-1-1s0.447-1,1-1h6c0.553,0,1,0.447,1,1
						S121.053,368.5,120.5,368.5z M108.5,368.5h-6c-0.553,0-1-0.447-1-1s0.447-1,1-1h6c0.553,0,1,0.447,1,1
						S109.053,368.5,108.5,368.5z M96.5,368.5h-6c-0.553,0-1-0.447-1-1s0.447-1,1-1h6c0.553,0,1,0.447,1,1S97.053,368.5,96.5,368.5z
						 M84.5,368.5h-6c-0.553,0-1-0.447-1-1s0.447-1,1-1h6c0.553,0,1,0.447,1,1S85.053,368.5,84.5,368.5z"/>
				</g>
				<g>
					<g>
						<g>
							<g>
								<g>
									<g>
										<g>
											<g>
												<g>
													<g>
														<g>
															<g>
																<g id="Layer_1_87_">
																	<g>
																		<g>
																			<g>
																				<g>
																					<g>
																						<g>
																							<g>
																								<g>
																									<g style="opacity:0;">
																										<rect x="33.5" y="288.5" style="fill:#FFFFFF;" width="280" height="150"/>
																									</g>
																								</g>
																							</g>
																						</g>
																					</g>
																				</g>
																			</g>
																		</g>
																	</g>
																</g>
															</g>
														</g>
													</g>
												</g>
											</g>
										</g>
									</g>
								</g>
							</g>
						</g>
					</g>
					<g>
						<path style="fill:#C8C8C8;" d="M98.329,419.422c-0.017,0-0.034,0-0.052-0.001c-0.393-0.021-0.737-0.27-0.88-0.636
							l-19.829-50.922c-0.199-0.513,0.052-1.09,0.563-1.293l57.768-22.951c0.388-0.151,0.829-0.053,1.109,0.258
							c0.28,0.309,0.34,0.758,0.149,1.129l-37.938,73.873C99.047,419.213,98.702,419.422,98.329,419.422z M79.792,368.063
							l18.663,47.926l35.706-69.526L79.792,368.063z"/>
					</g>
					<g>
						<path style="fill:#C8C8C8;" d="M208.733,391.451c-0.276,0-0.547-0.114-0.74-0.328c-0.28-0.308-0.34-0.758-0.149-1.129
							l37.937-73.876c0.18-0.349,0.533-0.563,0.941-0.542c0.393,0.021,0.737,0.27,0.88,0.636l19.83,50.925
							c0.199,0.513-0.052,1.09-0.563,1.293l-57.767,22.951C208.982,391.428,208.857,391.451,208.733,391.451z M246.544,319.009
							l-35.704,69.529l54.368-21.601L246.544,319.009z"/>
					</g>
				</g>
			</g>
			<g>
				<circle style="fill:#FFFFFF;" cx="173.5" cy="367.5" r="3"/>
				<path style="fill:#00D2FF;" d="M173.5,365.5c1.104,0,2,0.896,2,2s-0.896,2-2,2s-2-0.896-2-2S172.396,365.5,173.5,365.5
					 M173.5,363.5c-2.206,0-4,1.794-4,4s1.794,4,4,4s4-1.794,4-4S175.706,363.5,173.5,363.5L173.5,363.5z"/>
			</g>
			<g>
				<g>
					<path style="fill:#E1E1E1;" d="M159.175,343.268c-0.348,0-0.686-0.182-0.87-0.506c-0.273-0.479-0.105-1.09,0.375-1.363
						c4.494-2.558,9.619-3.91,14.82-3.91c3.035,0,6.031,0.452,8.905,1.344c0.528,0.164,0.823,0.724,0.659,1.251
						c-0.163,0.527-0.721,0.822-1.251,0.659c-2.683-0.832-5.479-1.254-8.313-1.254c-4.854,0-9.638,1.262-13.832,3.648
						C159.513,343.226,159.343,343.268,159.175,343.268z"/>
					<g>
						<polygon style="fill:#E1E1E1;" points="179.499,343.157 187.396,342.027 182.47,335.753 						"/>
					</g>
				</g>
			</g>
		</g>
	</g>
</g>
<g id="Isolation_Mode">
</g>
<g id="nyt_x5F_exporter_x5F_info" style="display:none;">
</g>
</svg>
