<?xml version="1.0" encoding="iso-8859-1"?>
<!-- Generator: Adobe Illustrator 16.0.3, SVG Export Plug-In . SVG Version: 6.00 Build 0)  -->
<!DOCTYPE svg PUBLIC "-//W3C//DTD SVG 1.1//EN" "http://www.w3.org/Graphics/SVG/1.1/DTD/svg11.dtd">
<svg version="1.1" xmlns="http://www.w3.org/2000/svg" xmlns:xlink="http://www.w3.org/1999/xlink" x="0px" y="0px" width="280px"
	 height="150px" viewBox="333.5 288.5 280 150" style="enable-background:new 333.5 288.5 280 150;" xml:space="preserve">
<g id="Layer_1">
	<g id="New_Symbol_2">
	</g>
	<g id="New_Symbol_3_">
	</g>
	<g id="New_Symbol_2_">
	</g>
	<g id="New_Symbol_1_">
	</g>
	<g id="New_Symbol">
	</g>
	<g>
		<g>
		</g>
	</g>
	<g>
		<g>
			<g>
				<g>
					<path style="fill:#E1E1E1;" d="M558.5,368.5h-2c-0.553,0-1-0.447-1-1s0.447-1,1-1h2c0.553,0,1,0.447,1,1
						S559.053,368.5,558.5,368.5z M550.5,368.5h-6c-0.553,0-1-0.447-1-1s0.447-1,1-1h6c0.553,0,1,0.447,1,1
						S551.053,368.5,550.5,368.5z M538.5,368.5h-6c-0.553,0-1-0.447-1-1s0.447-1,1-1h6c0.553,0,1,0.447,1,1
						S539.053,368.5,538.5,368.5z M526.5,368.5h-6c-0.553,0-1-0.447-1-1s0.447-1,1-1h6c0.553,0,1,0.447,1,1
						S527.053,368.5,526.5,368.5z M514.5,368.5h-6c-0.553,0-1-0.447-1-1s0.447-1,1-1h6c0.553,0,1,0.447,1,1
						S515.053,368.5,514.5,368.5z M502.5,368.5h-6c-0.553,0-1-0.447-1-1s0.447-1,1-1h6c0.553,0,1,0.447,1,1
						S503.053,368.5,502.5,368.5z M490.5,368.5h-6c-0.553,0-1-0.447-1-1s0.447-1,1-1h6c0.553,0,1,0.447,1,1
						S491.053,368.5,490.5,368.5z M478.5,368.5h-6c-0.553,0-1-0.447-1-1s0.447-1,1-1h6c0.553,0,1,0.447,1,1
						S479.053,368.5,478.5,368.5z M466.5,368.5h-6c-0.553,0-1-0.447-1-1s0.447-1,1-1h6c0.553,0,1,0.447,1,1
						S467.053,368.5,466.5,368.5z M454.5,368.5h-6c-0.553,0-1-0.447-1-1s0.447-1,1-1h6c0.553,0,1,0.447,1,1
						S455.053,368.5,454.5,368.5z M442.5,368.5h-6c-0.553,0-1-0.447-1-1s0.447-1,1-1h6c0.553,0,1,0.447,1,1
						S443.053,368.5,442.5,368.5z M430.5,368.5h-6c-0.553,0-1-0.447-1-1s0.447-1,1-1h6c0.553,0,1,0.447,1,1
						S431.053,368.5,430.5,368.5z M418.5,368.5h-6c-0.553,0-1-0.447-1-1s0.447-1,1-1h6c0.553,0,1,0.447,1,1
						S419.053,368.5,418.5,368.5z M406.5,368.5h-6c-0.553,0-1-0.447-1-1s0.447-1,1-1h6c0.553,0,1,0.447,1,1
						S407.053,368.5,406.5,368.5z M394.5,368.5h-6c-0.553,0-1-0.447-1-1s0.447-1,1-1h6c0.553,0,1,0.447,1,1
						S395.053,368.5,394.5,368.5z"/>
				</g>
				<g>
					<g>
						<g>
							<g>
								<g>
									<g>
										<g>
											<g>
												<g>
													<g>
														<g>
															<g>
																<g id="Layer_1_86_">
																	<g>
																		<g>
																			<g>
																				<g>
																					<g>
																						<g>
																							<g>
																								<g>
																									<g style="opacity:0;">
																										<rect x="333.5" y="288.5" style="fill:#FFFFFF;" width="280" height="150"/>
																									</g>
																								</g>
																							</g>
																						</g>
																					</g>
																				</g>
																			</g>
																		</g>
																	</g>
																</g>
															</g>
														</g>
													</g>
												</g>
											</g>
										</g>
									</g>
								</g>
							</g>
						</g>
					</g>
				</g>
			</g>
			<g>
				<circle style="fill:#FFFFFF;" cx="473.5" cy="367.5" r="3"/>
				<path style="fill:#00D2FF;" d="M473.5,365.5c1.104,0,2,0.896,2,2s-0.896,2-2,2s-2-0.896-2-2S472.396,365.5,473.5,365.5
					 M473.5,363.5c-2.206,0-4,1.794-4,4s1.794,4,4,4s4-1.794,4-4S475.706,363.5,473.5,363.5L473.5,363.5z"/>
			</g>
		</g>
	</g>
	<g>
		<circle style="fill:#C8C8C8;" cx="388.5" cy="367.5" r="3"/>
	</g>
	<g>
		<g>
			<g>
				<path d="M372.948,356.5h-1.841l7.348-11.333h1.424l2.306,11.333h-1.648l-0.545-2.785h-5.313L372.948,356.5z M375.493,352.322
					h4.274l-0.961-5.378L375.493,352.322z"/>
			</g>
		</g>
	</g>
	<g>
		<g>
			<g>
				<path d="M455.7,351.891c0-3.874,2.849-7.012,6.595-7.012c3.089,0,5.202,1.905,5.202,4.883c0,3.873-2.77,7.026-6.547,7.026
					C457.797,356.788,455.7,354.884,455.7,351.891z M462.215,346.224c-2.962,0-4.882,2.737-4.882,5.522
					c0,2.017,1.28,3.682,3.649,3.682c2.993,0,4.882-2.705,4.882-5.522C465.864,347.872,464.567,346.224,462.215,346.224z"/>
			</g>
		</g>
	</g>
	<g>
		<g>
			<g>
				<path d="M542.228,356.5h-1.841l7.348-11.333h1.424l2.306,11.333h-1.648l-0.545-2.785h-5.313L542.228,356.5z M544.772,352.322
					h4.274l-0.961-5.378L544.772,352.322z"/>
			</g>
			<g>
				<path d="M553.956,349.153h-1.248l1.809-3.986h1.473L553.956,349.153z"/>
			</g>
		</g>
	</g>
	<g>
		<path style="fill:#B4B4B4;" d="M430.5,372.5c-0.553,0-1-0.447-1-1v-8c0-0.553,0.447-1,1-1s1,0.447,1,1v8
			C431.5,372.053,431.053,372.5,430.5,372.5z"/>
	</g>
	<g>
		<circle style="fill:#C8C8C8;" cx="558.5" cy="367.5" r="3"/>
	</g>
	<g>
		<path style="fill:#B4B4B4;" d="M516.5,372.5c-0.553,0-1-0.447-1-1v-8c0-0.553,0.447-1,1-1s1,0.447,1,1v8
			C517.5,372.053,517.053,372.5,516.5,372.5z"/>
	</g>
</g>
<g id="Isolation_Mode">
</g>
<g id="nyt_x5F_exporter_x5F_info" style="display:none;">
</g>
</svg>
