<?xml version="1.0" encoding="iso-8859-1"?>
<!-- Generator: Adobe Illustrator 16.0.3, SVG Export Plug-In . SVG Version: 6.00 Build 0)  -->
<!DOCTYPE svg PUBLIC "-//W3C//DTD SVG 1.1//EN" "http://www.w3.org/Graphics/SVG/1.1/DTD/svg11.dtd">
<svg version="1.1" xmlns="http://www.w3.org/2000/svg" xmlns:xlink="http://www.w3.org/1999/xlink" x="0px" y="0px" width="280px"
	 height="150px" viewBox="-866.5 -136.5 280 150" style="enable-background:new -866.5 -136.5 280 150;" xml:space="preserve">
<g id="Layer_1">
	<g id="New_Symbol_2">
	</g>
	<g id="New_Symbol_3_">
	</g>
	<g id="New_Symbol_2_">
	</g>
	<g id="New_Symbol_1_">
	</g>
	<g id="New_Symbol">
	</g>
	<g>
		<g>
			<g id="Layer_1_135_">
				<g>
					<g>
						<g>
							<g>
								<g>
									<g>
										<g>
											<g>
												<g style="opacity:0;">
													<rect x="-866.5" y="-136.5" style="fill:#FFFFFF;" width="280" height="150"/>
												</g>
											</g>
										</g>
									</g>
								</g>
							</g>
						</g>
					</g>
				</g>
			</g>
			<g>
				<path style="fill:#00D2FF;" d="M-732.814-7.574c-0.074,0-0.148-0.008-0.222-0.025l-56.779-12.919
					c-0.463-0.105-0.788-0.521-0.778-0.995l1.094-54.007c0.005-0.251,0.104-0.49,0.277-0.671l37.257-38.926
					c0.28-0.292,0.706-0.387,1.083-0.241l59.294,22.911c0.241,0.093,0.437,0.276,0.546,0.51l22.715,48.764
					c0.224,0.48,0.034,1.052-0.433,1.303l-63.58,34.177C-732.487-7.615-732.65-7.574-732.814-7.574z M-788.578-22.288l55.62,12.655
					l62.418-33.552l-22.146-47.542l-58.296-22.526l-36.526,38.163L-788.578-22.288z"/>
			</g>
		</g>
	</g>
</g>
<g id="nyt_x5F_exporter_x5F_info" style="display:none;">
</g>
</svg>
