<?xml version="1.0" encoding="iso-8859-1"?>
<!-- Generator: Adobe Illustrator 16.0.3, SVG Export Plug-In . SVG Version: 6.00 Build 0)  -->
<!DOCTYPE svg PUBLIC "-//W3C//DTD SVG 1.1//EN" "http://www.w3.org/Graphics/SVG/1.1/DTD/svg11.dtd">
<svg version="1.1" xmlns="http://www.w3.org/2000/svg" xmlns:xlink="http://www.w3.org/1999/xlink" x="0px" y="0px" width="280px"
	 height="150px" viewBox="-266.5 -221.5 280 150" style="enable-background:new -266.5 -221.5 280 150;" xml:space="preserve">
<g id="Layer_1">
	<g id="New_Symbol_2">
	</g>
	<g id="New_Symbol_3_">
	</g>
	<g id="New_Symbol_2_">
	</g>
	<g id="New_Symbol_1_">
	</g>
	<g id="New_Symbol">
	</g>
	<g>
		<g>
			<g>
				<g>
					<g>
						<g>
							<g>
								<g>
									<g>
										<g>
											<g style="opacity:0;">
												<rect x="-266.5" y="-221.5" style="fill:#FFFFFF;" width="280" height="150"/>
											</g>
										</g>
									</g>
								</g>
							</g>
						</g>
					</g>
				</g>
			</g>
			<g>
				<path style="fill:#00D2FF;" d="M-128.437-110.261c-0.359,0-0.691-0.192-0.869-0.505l-39.435-69.279l-37.565,49.152
					c-0.334,0.439-0.962,0.522-1.402,0.187c-0.438-0.335-0.522-0.963-0.187-1.402l38.481-50.352c0.204-0.267,0.529-0.411,0.862-0.39
					c0.335,0.022,0.636,0.211,0.802,0.503l39.887,70.074l52.02-1.063l29.05-57.024c0.25-0.492,0.851-0.69,1.345-0.437
					c0.492,0.251,0.688,0.853,0.437,1.345l-29.322,57.558c-0.167,0.329-0.502,0.538-0.871,0.546l-53.214,1.087
					C-128.423-110.261-128.43-110.261-128.437-110.261z"/>
			</g>
		</g>
	</g>
</g>
<g id="Isolation_Mode">
</g>
<g id="nyt_x5F_exporter_x5F_info" style="display:none;">
</g>
</svg>
