<?xml version="1.0" encoding="iso-8859-1"?>
<!-- Generator: Adobe Illustrator 16.0.3, SVG Export Plug-In . SVG Version: 6.00 Build 0)  -->
<!DOCTYPE svg PUBLIC "-//W3C//DTD SVG 1.1//EN" "http://www.w3.org/Graphics/SVG/1.1/DTD/svg11.dtd">
<svg version="1.1" xmlns="http://www.w3.org/2000/svg" xmlns:xlink="http://www.w3.org/1999/xlink" x="0px" y="0px" width="280px"
	 height="150px" viewBox="333.5 458.5 280 150" style="enable-background:new 333.5 458.5 280 150;" xml:space="preserve">
<g id="Layer_1">
	<g id="New_Symbol_2">
	</g>
	<g id="New_Symbol_3_">
	</g>
	<g id="New_Symbol_2_">
	</g>
	<g id="New_Symbol_1_">
	</g>
	<g id="New_Symbol">
	</g>
	<g>
		<g>
			<g>
				<g>
					<g>
						<rect x="414.5" y="528.5" style="opacity:0.5;fill:#FABE00;" width="16" height="16.125"/>
						<path style="fill:#FABE00;" d="M430.5,545.625h-16c-0.553,0-1-0.447-1-1V528.5c0-0.553,0.447-1,1-1h16c0.553,0,1,0.447,1,1
							v16.125C431.5,545.178,431.053,545.625,430.5,545.625z M415.5,543.625h14V529.5h-14V543.625z"/>
					</g>
					<g>
						<g>
							<g>
								<path style="fill:#C8C8C8;" d="M553.5,545.5h-139c-0.553,0-1-0.447-1-1v-66c0-0.553,0.447-1,1-1s1,0.447,1,1v65h138
									c0.553,0,1,0.447,1,1S554.053,545.5,553.5,545.5z"/>
							</g>
							<g>
								<path style="fill:#00D2FF;" d="M554.499,545.5c-0.143,0-0.288-0.03-0.426-0.096l-140-66
									c-0.499-0.235-0.713-0.831-0.478-1.331c0.235-0.498,0.832-0.716,1.331-0.478l140,66c0.499,0.235,0.713,0.831,0.478,1.331
									C555.234,545.288,554.874,545.5,554.499,545.5z"/>
							</g>
							<g>
								<g>
									<g>
										<g>
											<g>
												<g>
													<g>
														<g>
															<g id="Layer_1_83_">
																<g>
																	<g>
																		<g>
																			<g>
																				<g>
																					<g>
																						<g>
																							<g>
																								<g style="opacity:0;">
																									<rect x="333.5" y="458.5" style="fill:#FFFFFF;" width="280" height="150"/>
																								</g>
																							</g>
																						</g>
																					</g>
																				</g>
																			</g>
																		</g>
																	</g>
																</g>
															</g>
														</g>
													</g>
												</g>
											</g>
										</g>
									</g>
								</g>
							</g>
						</g>
					</g>
				</g>
			</g>
			<g>
				<g>
					<path d="M406.19,512.17c0-0.896-0.576-1.265-1.601-1.265c-0.801,0-1.681,0.368-2.272,0.832l-0.608-0.992
						c0.8-0.64,1.969-1.04,3.089-1.04c1.44,0,2.817,0.608,2.817,2.24c0,0.192-0.032,0.561-0.064,0.769l-0.56,3.073
						c-0.097,0.593-0.177,1.297-0.177,1.713h-1.36c0-0.32,0.032-0.704,0.096-1.057h-0.031c-0.721,0.849-1.537,1.217-2.689,1.217
						c-1.04,0-2.353-0.464-2.353-2.001c0-2.465,3.009-2.897,5.65-2.897C406.175,512.458,406.19,512.313,406.19,512.17z
						 M405.727,513.851c-1.665,0-3.777,0.224-3.777,1.601c0,0.832,0.704,1.072,1.393,1.072c1.344,0,2.305-0.96,2.513-2.112
						l0.112-0.561H405.727z"/>
				</g>
			</g>
			<g>
				<g>
					<path d="M470.565,560.22l-0.225,1.28h-1.424l2.129-12.101h1.488l-1.04,5.73h0.031c0.545-0.816,1.585-1.425,2.754-1.425
						c2,0,3.313,1.328,3.313,3.281c0,2.593-1.809,4.706-4.306,4.706c-1.104,0-2.209-0.528-2.688-1.473H470.565z M473.959,554.938
						c-1.697,0-3.01,1.521-3.01,3.329c0,1.28,0.849,2.209,2.177,2.209c1.777,0,2.945-1.488,2.945-3.346
						C476.071,555.897,475.319,554.938,473.959,554.938z"/>
				</g>
			</g>
			<g>
				<g>
					<path d="M372.353,585.17c0-0.896-0.576-1.265-1.601-1.265c-0.801,0-1.681,0.368-2.272,0.832l-0.608-0.992
						c0.8-0.64,1.969-1.04,3.089-1.04c1.44,0,2.817,0.608,2.817,2.24c0,0.192-0.032,0.561-0.064,0.769l-0.56,3.073
						c-0.097,0.593-0.177,1.297-0.177,1.713h-1.36c0-0.32,0.032-0.704,0.096-1.057h-0.031c-0.721,0.849-1.537,1.217-2.689,1.217
						c-1.04,0-2.353-0.464-2.353-2.001c0-2.465,3.009-2.897,5.65-2.897C372.337,585.458,372.353,585.313,372.353,585.17z
						 M371.889,586.851c-1.665,0-3.777,0.224-3.777,1.601c0,0.832,0.704,1.072,1.393,1.072c1.344,0,2.305-0.96,2.513-2.112
						l0.112-0.561H371.889z"/>
				</g>
				<g>
					<path d="M379.65,585.172h-4.298l0.149-0.857l3.049-2.602c0.681-0.578,1.007-0.997,1.007-1.585c0-0.605-0.447-0.97-1.081-0.97
						c-0.699,0-1.185,0.448-1.38,1.101l-0.82-0.205c0.345-1.025,1.174-1.65,2.246-1.65c1.119,0,1.939,0.634,1.939,1.659
						s-0.531,1.529-1.436,2.284l-2.415,2.023h3.18L379.65,585.172z"/>
				</g>
				<g>
					<path d="M389.52,584.994h3.554v1.313h-3.554v3.553h-1.313v-3.553h-3.554v-1.313h3.554v-3.554h1.313V584.994z"/>
				</g>
				<g>
					<path d="M400.958,589.22l-0.225,1.28h-1.424l2.129-12.101h1.488l-1.04,5.73h0.031c0.545-0.816,1.585-1.425,2.754-1.425
						c2,0,3.313,1.328,3.313,3.281c0,2.593-1.809,4.706-4.306,4.706c-1.104,0-2.209-0.528-2.688-1.473H400.958z M404.352,583.938
						c-1.697,0-3.01,1.521-3.01,3.329c0,1.28,0.849,2.209,2.177,2.209c1.777,0,2.945-1.488,2.945-3.346
						C406.464,584.897,405.712,583.938,404.352,583.938z"/>
				</g>
				<g>
					<path d="M413.649,585.172h-4.298l0.149-0.857l3.049-2.602c0.681-0.578,1.007-0.997,1.007-1.585c0-0.605-0.447-0.97-1.081-0.97
						c-0.699,0-1.185,0.448-1.38,1.101l-0.82-0.205c0.345-1.025,1.174-1.65,2.246-1.65c1.119,0,1.939,0.634,1.939,1.659
						s-0.531,1.529-1.436,2.284l-2.415,2.023h3.18L413.649,585.172z"/>
				</g>
				<g>
					<path d="M427.072,583.682v1.296h-8.42v-1.296H427.072z M427.072,586.322v1.297h-8.42v-1.297H427.072z"/>
				</g>
				<g>
					<path d="M439.534,584.85c-0.257-0.512-0.913-0.912-1.665-0.912c-1.745,0-3.009,1.521-3.009,3.313
						c0,1.216,0.736,2.209,2.177,2.209c0.944,0,1.584-0.385,2.081-0.913l0.896,0.833c-0.8,0.8-1.776,1.328-3.073,1.328
						c-2.177,0-3.585-1.328-3.585-3.281c0-2.529,1.809-4.722,4.594-4.722c1.12,0,2.225,0.4,2.737,1.28L439.534,584.85z"/>
				</g>
				<g>
					<path d="M445.456,585.172h-4.298l0.149-0.857l3.049-2.602c0.681-0.578,1.007-0.997,1.007-1.585c0-0.605-0.447-0.97-1.081-0.97
						c-0.699,0-1.185,0.448-1.38,1.101l-0.82-0.205c0.345-1.025,1.174-1.65,2.246-1.65c1.119,0,1.939,0.634,1.939,1.659
						s-0.531,1.529-1.436,2.284l-2.415,2.023h3.18L445.456,585.172z"/>
				</g>
			</g>
			<g>
				<g>
					<path d="M500.622,584.85c-0.257-0.512-0.913-0.912-1.665-0.912c-1.745,0-3.009,1.521-3.009,3.313
						c0,1.216,0.736,2.209,2.177,2.209c0.944,0,1.584-0.385,2.081-0.913l0.896,0.833c-0.8,0.8-1.776,1.328-3.073,1.328
						c-2.177,0-3.585-1.328-3.585-3.281c0-2.529,1.809-4.722,4.594-4.722c1.12,0,2.225,0.4,2.737,1.28L500.622,584.85z"/>
				</g>
				<g>
					<path d="M514.229,583.682v1.296h-8.42v-1.296H514.229z M514.229,586.322v1.297h-8.42v-1.297H514.229z"/>
				</g>
				<g>
					<path d="M534.612,585.17c0-0.896-0.576-1.265-1.601-1.265c-0.801,0-1.681,0.368-2.272,0.832l-0.608-0.992
						c0.8-0.64,1.969-1.04,3.089-1.04c1.44,0,2.817,0.608,2.817,2.24c0,0.192-0.032,0.561-0.064,0.769l-0.56,3.073
						c-0.097,0.593-0.177,1.297-0.177,1.713h-1.36c0-0.32,0.032-0.704,0.096-1.057h-0.031c-0.721,0.849-1.537,1.217-2.689,1.217
						c-1.04,0-2.353-0.464-2.353-2.001c0-2.465,3.009-2.897,5.65-2.897C534.597,585.458,534.612,585.313,534.612,585.17z
						 M534.148,586.851c-1.665,0-3.777,0.224-3.777,1.601c0,0.832,0.704,1.072,1.393,1.072c1.344,0,2.305-0.96,2.513-2.112
						l0.112-0.561H534.148z"/>
				</g>
				<g>
					<path d="M541.908,585.172h-4.298l0.149-0.857l3.049-2.602c0.681-0.578,1.007-0.997,1.007-1.585c0-0.605-0.447-0.97-1.081-0.97
						c-0.699,0-1.185,0.448-1.38,1.101l-0.82-0.205c0.345-1.025,1.174-1.65,2.246-1.65c1.119,0,1.939,0.634,1.939,1.659
						s-0.531,1.529-1.436,2.284l-2.415,2.023h3.18L541.908,585.172z"/>
				</g>
				<g>
					<path d="M551.778,584.994h3.554v1.313h-3.554v3.553h-1.313v-3.553h-3.554v-1.313h3.554v-3.554h1.313V584.994z"/>
				</g>
				<g>
					<path d="M563.216,589.22l-0.225,1.28h-1.424l2.129-12.101h1.488l-1.04,5.73h0.031c0.545-0.816,1.585-1.425,2.754-1.425
						c2,0,3.313,1.328,3.313,3.281c0,2.593-1.809,4.706-4.306,4.706c-1.104,0-2.209-0.528-2.688-1.473H563.216z M566.609,583.938
						c-1.697,0-3.01,1.521-3.01,3.329c0,1.28,0.849,2.209,2.177,2.209c1.777,0,2.945-1.488,2.945-3.346
						C568.722,584.897,567.97,583.938,566.609,583.938z"/>
				</g>
				<g>
					<path d="M575.907,585.172h-4.298l0.149-0.857l3.049-2.602c0.681-0.578,1.007-0.997,1.007-1.585c0-0.605-0.447-0.97-1.081-0.97
						c-0.699,0-1.185,0.448-1.38,1.101l-0.82-0.205c0.345-1.025,1.174-1.65,2.246-1.65c1.119,0,1.939,0.634,1.939,1.659
						s-0.531,1.529-1.436,2.284l-2.415,2.023h3.18L575.907,585.172z"/>
				</g>
			</g>
			<g>
				<g>
					<path d="M484.239,496.85c-0.257-0.512-0.913-0.912-1.665-0.912c-1.745,0-3.009,1.521-3.009,3.313
						c0,1.216,0.736,2.209,2.177,2.209c0.944,0,1.584-0.385,2.081-0.913l0.896,0.833c-0.8,0.8-1.776,1.328-3.073,1.328
						c-2.177,0-3.585-1.328-3.585-3.281c0-2.529,1.809-4.722,4.594-4.722c1.12,0,2.225,0.4,2.737,1.28L484.239,496.85z"/>
				</g>
			</g>
		</g>
	</g>
	<g>
		<path d="M523.499,596.25c-0.327,0-0.621-0.215-0.718-0.534l-2.839-9.466H518.5c-0.414,0-0.75-0.336-0.75-0.75
			s0.336-0.75,0.75-0.75h2c0.331,0,0.623,0.217,0.719,0.534l1.898,6.328l1.636-17.184c0.037-0.385,0.36-0.679,0.747-0.679h56
			c0.414,0,0.75,0.336,0.75,0.75s-0.336,0.75-0.75,0.75h-55.318l-1.935,20.321c-0.034,0.356-0.316,0.64-0.674,0.675
			C523.549,596.249,523.524,596.25,523.499,596.25z"/>
	</g>
</g>
<g id="Isolation_Mode">
</g>
<g id="nyt_x5F_exporter_x5F_info" style="display:none;">
</g>
</svg>
