<?xml version="1.0" encoding="iso-8859-1"?>
<!-- Generator: Adobe Illustrator 16.0.3, SVG Export Plug-In . SVG Version: 6.00 Build 0)  -->
<!DOCTYPE svg PUBLIC "-//W3C//DTD SVG 1.1//EN" "http://www.w3.org/Graphics/SVG/1.1/DTD/svg11.dtd">
<svg version="1.1" xmlns="http://www.w3.org/2000/svg" xmlns:xlink="http://www.w3.org/1999/xlink" x="0px" y="0px" width="280px"
	 height="150px" viewBox="-266.5 -136.5 280 150" style="enable-background:new -266.5 -136.5 280 150;" xml:space="preserve">
<g id="Layer_1">
	<g id="New_Symbol_2">
	</g>
	<g id="New_Symbol_3_">
	</g>
	<g id="New_Symbol_2_">
	</g>
	<g id="New_Symbol_1_">
	</g>
	<g id="New_Symbol">
	</g>
	<g>
		<g>
			<g>
				<g>
					<g>
						<g>
							<g>
								<g>
									<g>
										<g>
											<g>
												<g style="opacity:0;">
													<rect x="-266.5" y="-136.5" style="fill:#FFFFFF;" width="280" height="150"/>
												</g>
											</g>
										</g>
									</g>
								</g>
							</g>
						</g>
					</g>
				</g>
				<g>
					<path style="fill:#00D2FF;" d="M-132.357-30.5h-56.107c-0.212,0-0.418-0.067-0.589-0.192l-55.035-40.158
						c-0.297-0.217-0.451-0.579-0.401-0.943c0.05-0.364,0.295-0.672,0.64-0.801l70.996-26.601c0.454-0.171,0.959,0.008,1.208,0.421
						l40.146,66.759c0.186,0.309,0.191,0.694,0.014,1.007C-131.665-30.694-131.997-30.5-132.357-30.5z M-188.139-32.5h54.013
						l-38.807-64.53l-68.48,25.658L-188.139-32.5z"/>
				</g>
			</g>
			<g>
				<path style="fill:#00D2FF;" d="M-14.5-30.5h-88c-0.552,0-1-0.448-1-1v-60c0-0.552,0.448-1,1-1h88c0.552,0,1,0.448,1,1v60
					C-13.5-30.948-13.948-30.5-14.5-30.5z M-101.5-32.5h86v-58h-86V-32.5z"/>
			</g>
		</g>
	</g>
</g>
<g id="nyt_x5F_exporter_x5F_info" style="display:none;">
</g>
</svg>
