<?xml version="1.0" encoding="iso-8859-1"?>
<!-- Generator: Adobe Illustrator 16.0.3, SVG Export Plug-In . SVG Version: 6.00 Build 0)  -->
<!DOCTYPE svg PUBLIC "-//W3C//DTD SVG 1.1//EN" "http://www.w3.org/Graphics/SVG/1.1/DTD/svg11.dtd">
<svg version="1.1" xmlns="http://www.w3.org/2000/svg" xmlns:xlink="http://www.w3.org/1999/xlink" x="0px" y="0px" width="280px"
	 height="150px" viewBox="333.5 -221.5 280 150" style="enable-background:new 333.5 -221.5 280 150;" xml:space="preserve">
<g id="Layer_1">
	<g id="New_Symbol_2">
	</g>
	<g id="New_Symbol_3_">
	</g>
	<g id="New_Symbol_2_">
	</g>
	<g id="New_Symbol_1_">
	</g>
	<g id="New_Symbol">
	</g>
	<g>
		<g>
		</g>
	</g>
	<g>
		<g>
			<g>
				<g>
					<circle style="fill:#C8C8C8;" cx="398.5" cy="-146.5" r="3"/>
				</g>
				<g>
					<circle style="fill:#C8C8C8;" cx="548.5" cy="-146.5" r="3"/>
				</g>
				<g>
					<g>
						<g>
							<g>
								<g>
									<g id="Layer_1_118_">
										<g>
											<g>
												<g>
													<g>
														<g>
															<g>
																<g>
																	<g>
																		<g style="opacity:0;">
																			<rect x="333.5" y="-221.5" style="fill:#FFFFFF;" width="280" height="150"/>
																		</g>
																	</g>
																</g>
															</g>
														</g>
													</g>
												</g>
											</g>
										</g>
									</g>
								</g>
							</g>
						</g>
						<g>
							<g>
								<path style="fill:#C8C8C8;" d="M548.5-145.5h-150c-0.553,0-1-0.448-1-1s0.447-1,1-1h150c0.553,0,1,0.448,1,1
									S549.053-145.5,548.5-145.5z"/>
							</g>
						</g>
					</g>
				</g>
				<g>
					<circle style="fill:#FFFFFF;" cx="458.5" cy="-146.5" r="3"/>
					<path style="fill:#00D2FF;" d="M458.5-148.5c1.104,0,2,0.896,2,2s-0.896,2-2,2s-2-0.896-2-2S457.396-148.5,458.5-148.5
						 M458.5-150.5c-2.206,0-4,1.794-4,4s1.794,4,4,4s4-1.794,4-4S460.706-150.5,458.5-150.5L458.5-150.5z"/>
				</g>
			</g>
			<g>
				<g>
					<path d="M381.948-154.5h-1.841l7.348-11.333h1.424l2.306,11.333h-1.648l-0.545-2.785h-5.313L381.948-154.5z M384.493-158.678
						h4.274l-0.961-5.378L384.493-158.678z"/>
				</g>
			</g>
			<g>
				<g>
					<path d="M416.166-109.505v16.007h-1.313v-16.007H416.166z"/>
				</g>
				<g>
					<path d="M418.037-97.5h-1.841l7.347-11.333h1.425l2.305,11.333h-1.648l-0.544-2.785h-5.314L418.037-97.5z M420.582-101.678
						h4.273l-0.96-5.378L420.582-101.678z"/>
				</g>
				<g>
					<path d="M430.693-108.833h3.618c1.568,0,3.297,0.641,3.297,2.481c0,1.505-1.009,2.529-2.497,2.897v0.031
						c1.232,0.192,2.113,1.089,2.113,2.417c0,2.306-2.001,3.506-4.834,3.506h-3.697L430.693-108.833z M430.47-98.828h2.064
						c1.633,0,3.105-0.593,3.105-2.258c0-1.008-0.816-1.632-2.241-1.632h-2.24L430.47-98.828z M431.382-104.03h2.193
						c1.056,0,2.433-0.496,2.433-1.985c0-1.072-0.912-1.505-2.097-1.505h-1.905L431.382-104.03z"/>
				</g>
				<g>
					<path d="M440.741-109.505v16.007h-1.313v-16.007H440.741z"/>
				</g>
				<g>
					<path d="M447.557-97.42c-0.56,0-1.024-0.368-1.024-0.992c0-0.608,0.497-1.057,1.057-1.057c0.561,0,0.992,0.384,0.992,0.992
						C448.581-97.916,448.117-97.42,447.557-97.42z M448.47-103.118c-0.561,0-1.009-0.368-1.009-0.992
						c0-0.625,0.496-1.073,1.057-1.073c0.544,0,0.977,0.385,0.977,1.009C449.494-103.614,449.046-103.118,448.47-103.118z"/>
				</g>
				<g>
					<path d="M457.093-109.505v16.007h-1.313v-16.007H457.093z"/>
				</g>
				<g>
					<path d="M460.725-108.833h3.618c1.568,0,3.297,0.641,3.297,2.481c0,1.505-1.009,2.529-2.497,2.897v0.031
						c1.232,0.192,2.113,1.089,2.113,2.417c0,2.306-2.001,3.506-4.834,3.506h-3.697L460.725-108.833z M460.501-98.828h2.064
						c1.633,0,3.105-0.593,3.105-2.258c0-1.008-0.816-1.632-2.241-1.632h-2.24L460.501-98.828z M461.413-104.03h2.193
						c1.056,0,2.433-0.496,2.433-1.985c0-1.072-0.912-1.505-2.097-1.505h-1.905L461.413-104.03z"/>
				</g>
				<g>
					<path d="M478.776-99.276c-0.896,1.136-2.386,2.064-4.514,2.064c-3.025,0-5.074-1.969-5.074-4.866
						c0-3.921,2.961-7.043,6.723-7.043c1.664,0,3.169,0.705,3.825,1.761l-1.297,0.944c-0.336-0.64-1.216-1.36-2.576-1.36
						c-2.962,0-5.042,2.722-5.042,5.507c0,2.032,1.28,3.697,3.585,3.697c1.249,0,2.417-0.496,3.313-1.585L478.776-99.276z"/>
				</g>
				<g>
					<path d="M481.973-109.505v16.007h-1.313v-16.007H481.973z"/>
				</g>
				<g>
					<path d="M496.632-104.318v1.296h-8.42v-1.296H496.632z M496.632-101.678v1.297h-8.42v-1.297H496.632z"/>
				</g>
				<g>
					<path d="M507.734-102.83c0-0.896-0.576-1.265-1.601-1.265c-0.8,0-1.681,0.368-2.272,0.832l-0.608-0.992
						c0.8-0.64,1.969-1.04,3.089-1.04c1.44,0,2.817,0.608,2.817,2.24c0,0.192-0.032,0.561-0.064,0.769l-0.56,3.073
						c-0.097,0.593-0.177,1.297-0.177,1.713h-1.36c0-0.32,0.032-0.704,0.096-1.057h-0.031c-0.721,0.849-1.537,1.217-2.689,1.217
						c-1.04,0-2.353-0.464-2.353-2.001c0-2.465,3.009-2.897,5.65-2.897C507.719-102.542,507.734-102.687,507.734-102.83z
						 M507.271-101.149c-1.665,0-3.777,0.224-3.777,1.601c0,0.832,0.704,1.072,1.393,1.072c1.344,0,2.305-0.96,2.513-2.112
						l0.112-0.561H507.271z"/>
				</g>
				<g>
					<path d="M516.036-97.42c-0.56,0-1.024-0.368-1.024-0.992c0-0.608,0.497-1.057,1.057-1.057c0.561,0,0.992,0.384,0.992,0.992
						C517.061-97.916,516.597-97.42,516.036-97.42z M516.949-103.118c-0.561,0-1.009-0.368-1.009-0.992
						c0-0.625,0.496-1.073,1.057-1.073c0.544,0,0.977,0.385,0.977,1.009C517.974-103.614,517.525-103.118,516.949-103.118z"/>
				</g>
				<g>
					<path d="M525.269-98.78l-0.225,1.28h-1.424l2.129-12.101h1.488l-1.04,5.73h0.031c0.545-0.816,1.585-1.425,2.754-1.425
						c2,0,3.313,1.328,3.313,3.281c0,2.593-1.809,4.706-4.306,4.706c-1.104,0-2.209-0.528-2.688-1.473H525.269z M528.662-104.063
						c-1.697,0-3.01,1.521-3.01,3.329c0,1.28,0.849,2.209,2.177,2.209c1.777,0,2.945-1.488,2.945-3.346
						C530.774-103.103,530.022-104.063,528.662-104.063z"/>
				</g>
			</g>
			<g>
				<g>
					<path d="M443.949-165.833h3.618c1.568,0,3.297,0.641,3.297,2.481c0,1.505-1.009,2.529-2.497,2.897v0.031
						c1.232,0.192,2.113,1.089,2.113,2.417c0,2.306-2.001,3.506-4.834,3.506h-3.697L443.949-165.833z M443.726-155.828h2.064
						c1.633,0,3.105-0.593,3.105-2.258c0-1.008-0.816-1.632-2.241-1.632h-2.24L443.726-155.828z M444.638-161.03h2.193
						c1.056,0,2.433-0.496,2.433-1.985c0-1.072-0.912-1.505-2.097-1.505h-1.905L444.638-161.03z"/>
				</g>
			</g>
			<g>
				<g>
					<path d="M542.337-156.276c-0.896,1.136-2.386,2.064-4.514,2.064c-3.025,0-5.074-1.969-5.074-4.866
						c0-3.921,2.961-7.043,6.723-7.043c1.664,0,3.169,0.705,3.825,1.761L542-163.416c-0.336-0.64-1.216-1.36-2.576-1.36
						c-2.962,0-5.042,2.722-5.042,5.507c0,2.032,1.28,3.697,3.585,3.697c1.249,0,2.417-0.496,3.313-1.585L542.337-156.276z"/>
				</g>
			</g>
		</g>
	</g>
</g>
<g id="Isolation_Mode">
</g>
<g id="nyt_x5F_exporter_x5F_info" style="display:none;">
</g>
</svg>
