<?xml version="1.0" encoding="iso-8859-1"?>
<!-- Generator: Adobe Illustrator 16.0.3, SVG Export Plug-In . SVG Version: 6.00 Build 0)  -->
<!DOCTYPE svg PUBLIC "-//W3C//DTD SVG 1.1//EN" "http://www.w3.org/Graphics/SVG/1.1/DTD/svg11.dtd">
<svg version="1.1" xmlns="http://www.w3.org/2000/svg" xmlns:xlink="http://www.w3.org/1999/xlink" x="0px" y="0px" width="280px"
	 height="150px" viewBox="633.5 -221.5 280 150" style="enable-background:new 633.5 -221.5 280 150;" xml:space="preserve">
<g id="Layer_1">
	<g id="New_Symbol_2">
	</g>
	<g id="New_Symbol_3_">
	</g>
	<g id="New_Symbol_2_">
	</g>
	<g id="New_Symbol_1_">
	</g>
	<g id="New_Symbol">
	</g>
	<g>
		<g>
		</g>
	</g>
	<g>
		<g>
			<g>
				<g>
					<g>
						<g>
							<g>
								<g>
									<g>
										<g id="Layer_1_117_">
											<g>
												<g>
													<g>
														<g>
															<g>
																<g>
																	<g>
																		<g>
																			<g style="opacity:0;">
																				<rect x="633.5" y="-221.5" style="fill:#FFFFFF;" width="280" height="150"/>
																			</g>
																		</g>
																	</g>
																</g>
															</g>
														</g>
													</g>
												</g>
											</g>
										</g>
									</g>
								</g>
							</g>
							<g>
								<g>
									<path style="fill:#00D2FF;" d="M698.499-125.5c-0.441,0-0.846-0.295-0.965-0.743c-0.143-0.534,0.175-1.082,0.708-1.224
										l150-40c0.533-0.139,1.081,0.174,1.224,0.708c0.143,0.534-0.175,1.082-0.708,1.224l-150,40
										C698.671-125.511,698.585-125.5,698.499-125.5z"/>
								</g>
							</g>
						</g>
					</g>
				</g>
			</g>
			<g>
				<circle style="fill:#FFFFFF;" cx="698.5" cy="-126.5" r="3"/>
				<path style="fill:#00D2FF;" d="M698.5-128.5c1.104,0,2,0.896,2,2s-0.896,2-2,2s-2-0.896-2-2S697.396-128.5,698.5-128.5
					 M698.5-130.5c-2.205,0-4,1.794-4,4s1.795,4,4,4s4-1.794,4-4S700.705-130.5,698.5-130.5L698.5-130.5z"/>
			</g>
		</g>
	</g>
</g>
<g id="Isolation_Mode">
</g>
<g id="nyt_x5F_exporter_x5F_info" style="display:none;">
</g>
</svg>
