<?xml version="1.0" encoding="iso-8859-1"?>
<!-- Generator: Adobe Illustrator 16.0.3, SVG Export Plug-In . SVG Version: 6.00 Build 0)  -->
<!DOCTYPE svg PUBLIC "-//W3C//DTD SVG 1.1//EN" "http://www.w3.org/Graphics/SVG/1.1/DTD/svg11.dtd">
<svg version="1.1" xmlns="http://www.w3.org/2000/svg" xmlns:xlink="http://www.w3.org/1999/xlink" x="0px" y="0px" width="280px"
	 height="150px" viewBox="933.5 -221.5 280 150" style="enable-background:new 933.5 -221.5 280 150;" xml:space="preserve">
<g id="Layer_1">
	<g id="New_Symbol_2">
	</g>
	<g id="New_Symbol_3_">
	</g>
	<g id="New_Symbol_2_">
	</g>
	<g id="New_Symbol_1_">
	</g>
	<g id="New_Symbol">
	</g>
	<g>
		<g>
		</g>
	</g>
	<g>
		<g>
			<g>
				<rect x="1002.5" y="-186.5" style="opacity:0.5;fill:#FABE00;" width="16" height="16"/>
				<path style="fill:#FABE00;" d="M1018.5-169.5h-16c-0.553,0-1-0.448-1-1v-16c0-0.552,0.447-1,1-1h16c0.553,0,1,0.448,1,1v16
					C1019.5-169.948,1019.053-169.5,1018.5-169.5z M1003.5-171.5h14v-14h-14V-171.5z"/>
			</g>
			<g>
				<rect x="1126.5" y="-186.5" style="opacity:0.5;fill:#FABE00;" width="16" height="16"/>
				<path style="fill:#FABE00;" d="M1142.5-169.5h-16c-0.553,0-1-0.448-1-1v-16c0-0.552,0.447-1,1-1h16c0.553,0,1,0.448,1,1v16
					C1143.5-169.948,1143.053-169.5,1142.5-169.5z M1127.5-171.5h14v-14h-14V-171.5z"/>
			</g>
			<g>
				<rect x="1002.5" y="-122.5" style="opacity:0.5;fill:#FABE00;" width="16" height="16"/>
				<path style="fill:#FABE00;" d="M1018.5-105.5h-16c-0.553,0-1-0.448-1-1v-16c0-0.552,0.447-1,1-1h16c0.553,0,1,0.448,1,1v16
					C1019.5-105.948,1019.053-105.5,1018.5-105.5z M1003.5-107.5h14v-14h-14V-107.5z"/>
			</g>
			<g>
				<rect x="1126.5" y="-122.5" style="opacity:0.5;fill:#FABE00;" width="16" height="16"/>
				<path style="fill:#FABE00;" d="M1142.5-105.5h-16c-0.553,0-1-0.448-1-1v-16c0-0.552,0.447-1,1-1h16c0.553,0,1,0.448,1,1v16
					C1143.5-105.948,1143.053-105.5,1142.5-105.5z M1127.5-107.5h14v-14h-14V-107.5z"/>
			</g>
			<g>
				<path style="fill:#00D2FF;" d="M1142.5-105.5h-140c-0.553,0-1-0.448-1-1v-80c0-0.552,0.447-1,1-1h140c0.553,0,1,0.448,1,1v80
					C1143.5-105.948,1143.053-105.5,1142.5-105.5z M1003.5-107.5h138v-78h-138V-107.5z"/>
			</g>
			<g>
				<g>
					<g>
						<g>
							<g>
								<g>
									<g>
										<g>
											<g id="Layer_1_116_">
												<g>
													<g>
														<g>
															<g>
																<g>
																	<g>
																		<g>
																			<g>
																				<g style="opacity:0;">
																					<rect x="933.5" y="-221.5" style="fill:#FFFFFF;" width="280" height="150"/>
																				</g>
																			</g>
																		</g>
																	</g>
																</g>
															</g>
														</g>
													</g>
												</g>
											</g>
										</g>
									</g>
								</g>
							</g>
						</g>
					</g>
				</g>
			</g>
		</g>
	</g>
</g>
<g id="Isolation_Mode">
</g>
<g id="nyt_x5F_exporter_x5F_info" style="display:none;">
</g>
</svg>
