<?xml version="1.0" encoding="iso-8859-1"?>
<!-- Generator: Adobe Illustrator 16.0.3, SVG Export Plug-In . SVG Version: 6.00 Build 0)  -->
<!DOCTYPE svg PUBLIC "-//W3C//DTD SVG 1.1//EN" "http://www.w3.org/Graphics/SVG/1.1/DTD/svg11.dtd">
<svg version="1.1" xmlns="http://www.w3.org/2000/svg" xmlns:xlink="http://www.w3.org/1999/xlink" x="0px" y="0px" width="280px"
	 height="150px" viewBox="-1166.5 288.5 280 150" style="enable-background:new -1166.5 288.5 280 150;" xml:space="preserve">
<g id="Layer_1">
	<g id="New_Symbol_2">
	</g>
	<g id="New_Symbol_3_">
	</g>
	<g id="New_Symbol_2_">
	</g>
	<g id="New_Symbol_1_">
	</g>
	<g id="New_Symbol">
	</g>
	<g>
		<g>
			<g>
				<polyline style="opacity:0.5;fill:#FABE00;" points="-1042.5,363.5 -1042.5,347.5 -1026.5,347.5 -1026.5,363.5 				"/>
				<path style="fill:#FABE00;" d="M-1026.5,364.5c-0.552,0-1-0.447-1-1v-15h-14v15c0,0.553-0.448,1-1,1s-1-0.447-1-1v-16
					c0-0.553,0.448-1,1-1h16c0.552,0,1,0.447,1,1v16C-1025.5,364.053-1025.948,364.5-1026.5,364.5z"/>
			</g>
			<g>
				<g>
					<line style="fill:#E1E1E1;" x1="-1026.5" y1="310.5" x2="-1026.5" y2="416.5"/>
					<path style="fill:#E1E1E1;" d="M-1026.5,417.5c-0.552,0-1-0.447-1-1v-106c0-0.553,0.448-1,1-1s1,0.447,1,1v106
						C-1025.5,417.053-1025.948,417.5-1026.5,417.5z"/>
				</g>
				<g>
					<g>
						<path style="fill:#E1E1E1;" d="M-951.5,364.5h-6c-0.552,0-1-0.447-1-1s0.448-1,1-1h6c0.552,0,1,0.447,1,1
							S-950.948,364.5-951.5,364.5z M-963.5,364.5h-6c-0.552,0-1-0.447-1-1s0.448-1,1-1h6c0.552,0,1,0.447,1,1
							S-962.948,364.5-963.5,364.5z M-975.5,364.5h-6c-0.552,0-1-0.447-1-1s0.448-1,1-1h6c0.552,0,1,0.447,1,1
							S-974.948,364.5-975.5,364.5z M-987.5,364.5h-6c-0.552,0-1-0.447-1-1s0.448-1,1-1h6c0.552,0,1,0.447,1,1
							S-986.948,364.5-987.5,364.5z M-999.5,364.5h-6c-0.552,0-1-0.447-1-1s0.448-1,1-1h6c0.552,0,1,0.447,1,1
							S-998.948,364.5-999.5,364.5z M-1011.5,364.5h-6c-0.552,0-1-0.447-1-1s0.448-1,1-1h6c0.552,0,1,0.447,1,1
							S-1010.948,364.5-1011.5,364.5z M-1023.5,364.5h-6c-0.552,0-1-0.447-1-1s0.448-1,1-1h6c0.552,0,1,0.447,1,1
							S-1022.948,364.5-1023.5,364.5z M-1035.5,364.5h-6c-0.552,0-1-0.447-1-1s0.448-1,1-1h6c0.552,0,1,0.447,1,1
							S-1034.948,364.5-1035.5,364.5z M-1047.5,364.5h-6c-0.552,0-1-0.447-1-1s0.448-1,1-1h6c0.552,0,1,0.447,1,1
							S-1046.948,364.5-1047.5,364.5z M-1059.5,364.5h-6c-0.552,0-1-0.447-1-1s0.448-1,1-1h6c0.552,0,1,0.447,1,1
							S-1058.948,364.5-1059.5,364.5z M-1071.5,364.5h-6c-0.552,0-1-0.447-1-1s0.448-1,1-1h6c0.552,0,1,0.447,1,1
							S-1070.948,364.5-1071.5,364.5z M-1083.5,364.5h-6c-0.552,0-1-0.447-1-1s0.448-1,1-1h6c0.552,0,1,0.447,1,1
							S-1082.948,364.5-1083.5,364.5z M-1095.5,364.5h-6c-0.552,0-1-0.447-1-1s0.448-1,1-1h6c0.552,0,1,0.447,1,1
							S-1094.948,364.5-1095.5,364.5z"/>
					</g>
				</g>
				<g>
					<g>
						<g>
							<g>
								<g>
									<g>
										<g>
											<g>
												<g>
													<g>
														<g id="Layer_1_76_">
															<g>
																<g>
																	<g>
																		<g>
																			<g>
																				<g>
																					<g>
																						<g>
																							<g style="opacity:0;">
																								<rect x="-1166.5" y="288.5" style="fill:#FFFFFF;" width="280" height="150"/>
																							</g>
																						</g>
																					</g>
																				</g>
																			</g>
																		</g>
																	</g>
																</g>
															</g>
														</g>
													</g>
												</g>
											</g>
										</g>
									</g>
								</g>
							</g>
						</g>
					</g>
				</g>
				<g>
					<g>
						<path d="M-1117.052,352.5h-1.841l7.348-11.333h1.424l2.306,11.333h-1.648l-0.545-2.785h-5.313L-1117.052,352.5z
							 M-1114.507,348.322h4.274l-0.961-5.378L-1114.507,348.322z"/>
					</g>
				</g>
				<g>
					<g>
						<path d="M-969.772,352.5h-1.841l7.348-11.333h1.424l2.306,11.333h-1.648l-0.545-2.785h-5.313L-969.772,352.5z
							 M-967.228,348.322h4.274l-0.961-5.378L-967.228,348.322z"/>
					</g>
					<g>
						<path d="M-958.044,345.153h-1.248l1.809-3.986h1.473L-958.044,345.153z"/>
					</g>
				</g>
				<g>
					<path style="fill:#FFFFFF;" d="M-1101.5,366.5c-1.654,0-3-1.347-3-3.001c0-1.653,1.346-2.999,3-2.999s3,1.346,3,2.999
						C-1098.5,365.153-1099.846,366.5-1101.5,366.5z"/>
					<path style="fill:#FABE00;" d="M-1101.5,361.5c1.104,0,2,0.896,2,1.999c0,1.105-0.896,2.001-2,2.001s-2-0.896-2-2.001
						C-1103.5,362.396-1102.604,361.5-1101.5,361.5 M-1101.5,359.5c-2.206,0-4,1.794-4,3.999c0,2.206,1.794,4.001,4,4.001
						s4-1.795,4-4.001C-1097.5,361.294-1099.294,359.5-1101.5,359.5L-1101.5,359.5z"/>
				</g>
				<g>
					<path style="fill:#FFFFFF;" d="M-951.5,366.5c-1.654,0-3-1.347-3-3.001c0-1.653,1.346-2.999,3-2.999s3,1.346,3,2.999
						C-948.5,365.153-949.846,366.5-951.5,366.5z"/>
					<path style="fill:#00D2FF;" d="M-951.5,361.5c1.104,0,2,0.896,2,1.999c0,1.105-0.896,2.001-2,2.001s-2-0.896-2-2.001
						C-953.5,362.396-952.604,361.5-951.5,361.5 M-951.5,359.5c-2.206,0-4,1.794-4,3.999c0,2.206,1.794,4.001,4,4.001
						s4-1.795,4-4.001C-947.5,361.294-949.294,359.5-951.5,359.5L-951.5,359.5z"/>
				</g>
				<g>
					<path style="fill:#B4B4B4;" d="M-1062.5,368.5c-0.552,0-1-0.447-1-1v-8c0-0.553,0.448-1,1-1s1,0.447,1,1v8
						C-1061.5,368.053-1061.948,368.5-1062.5,368.5z"/>
				</g>
				<g>
					<path style="fill:#B4B4B4;" d="M-990.5,368.5c-0.552,0-1-0.447-1-1v-8c0-0.553,0.448-1,1-1s1,0.447,1,1v8
						C-989.5,368.053-989.948,368.5-990.5,368.5z"/>
				</g>
			</g>
		</g>
	</g>
</g>
<g id="Isolation_Mode">
</g>
<g id="nyt_x5F_exporter_x5F_info" style="display:none;">
</g>
</svg>
