<?xml version="1.0" encoding="iso-8859-1"?>
<!-- Generator: Adobe Illustrator 16.0.3, SVG Export Plug-In . SVG Version: 6.00 Build 0)  -->
<!DOCTYPE svg PUBLIC "-//W3C//DTD SVG 1.1//EN" "http://www.w3.org/Graphics/SVG/1.1/DTD/svg11.dtd">
<svg version="1.1" xmlns="http://www.w3.org/2000/svg" xmlns:xlink="http://www.w3.org/1999/xlink" x="0px" y="0px" width="280px"
	 height="150px" viewBox="933.5 118.5 280 150" style="enable-background:new 933.5 118.5 280 150;" xml:space="preserve">
<g id="Layer_1">
	<g id="New_Symbol_2">
	</g>
	<g id="New_Symbol_3_">
	</g>
	<g id="New_Symbol_2_">
	</g>
	<g id="New_Symbol_1_">
	</g>
	<g id="New_Symbol">
	</g>
	<g>
		<g>
		</g>
	</g>
	<g>
		<g>
			<g>
				<line style="fill:#E1E1E1;" x1="1073.5" y1="134.5" x2="1073.5" y2="240.5"/>
				<path style="fill:#E1E1E1;" d="M1073.5,241.5c-0.553,0-1-0.447-1-1v-106c0-0.553,0.447-1,1-1s1,0.447,1,1v106
					C1074.5,241.053,1074.053,241.5,1073.5,241.5z"/>
			</g>
			<g>
				<g>
					<g>
						<path style="fill:#FABE00;" d="M1011,234.5c-0.084,0-0.168-0.011-0.251-0.032c-0.353-0.091-0.627-0.367-0.718-0.72l-20.5-80
							c-0.097-0.377,0.034-0.776,0.336-1.022s0.719-0.296,1.069-0.125l66,32c0.287,0.139,0.49,0.406,0.547,0.72
							c0.058,0.314-0.038,0.636-0.258,0.867l-45.5,48C1011.534,234.39,1011.271,234.5,1011,234.5z M992.004,155.341l19.516,76.157
							l43.314-45.694L992.004,155.341z"/>
					</g>
					<g>
						<path style="fill:#00D2FF;" d="M1136,234.5c-0.271,0-0.534-0.11-0.726-0.313l-45.5-48c-0.22-0.231-0.315-0.553-0.258-0.867
							c0.057-0.313,0.26-0.581,0.547-0.72l66-32c0.35-0.171,0.767-0.121,1.069,0.125c0.302,0.246,0.433,0.646,0.336,1.022l-20.5,80
							c-0.091,0.353-0.365,0.629-0.718,0.72C1136.168,234.489,1136.084,234.5,1136,234.5z M1092.166,185.804l43.314,45.694
							l19.516-76.157L1092.166,185.804z"/>
					</g>
					<g>
						<g>
							<g>
								<g>
									<g>
										<g>
											<g>
												<g>
													<g id="Layer_1_94_">
														<g>
															<g>
																<g>
																	<g>
																		<g>
																			<g>
																				<g>
																					<g>
																						<g style="opacity:0;">
																							<rect x="933.5" y="118.5" style="fill:#FFFFFF;" width="280" height="150"/>
																						</g>
																					</g>
																				</g>
																			</g>
																		</g>
																	</g>
																</g>
															</g>
														</g>
													</g>
												</g>
											</g>
										</g>
									</g>
								</g>
							</g>
						</g>
					</g>
				</g>
			</g>
		</g>
	</g>
</g>
<g id="Isolation_Mode">
</g>
<g id="nyt_x5F_exporter_x5F_info" style="display:none;">
</g>
</svg>
