<?xml version="1.0" encoding="iso-8859-1"?>
<!-- Generator: Adobe Illustrator 16.0.3, SVG Export Plug-In . SVG Version: 6.00 Build 0)  -->
<!DOCTYPE svg PUBLIC "-//W3C//DTD SVG 1.1//EN" "http://www.w3.org/Graphics/SVG/1.1/DTD/svg11.dtd">
<svg version="1.1" xmlns="http://www.w3.org/2000/svg" xmlns:xlink="http://www.w3.org/1999/xlink" x="0px" y="0px" width="280px"
	 height="150px" viewBox="1233.5 -136.5 280 150" style="enable-background:new 1233.5 -136.5 280 150;" xml:space="preserve">
<g id="Layer_1">
	<g id="New_Symbol_2">
	</g>
	<g id="New_Symbol_3_">
	</g>
	<g id="New_Symbol_2_">
	</g>
	<g id="New_Symbol_1_">
	</g>
	<g id="New_Symbol">
	</g>
	<g>
		<g>
			<g>
				<rect x="1402.5" y="-101.5" style="opacity:0.5;fill:#FABE00;" width="16" height="16"/>
				<path style="fill:#FABE00;" d="M1418.5-84.5h-16c-0.553,0-1-0.448-1-1v-16c0-0.552,0.447-1,1-1h16c0.553,0,1,0.448,1,1v16
					C1419.5-84.948,1419.053-84.5,1418.5-84.5z M1403.5-86.5h14v-14h-14V-86.5z"/>
			</g>
			<g>
				<rect x="1466.5" y="-101.5" style="opacity:0.5;fill:#FABE00;" width="16" height="16"/>
				<path style="fill:#FABE00;" d="M1482.5-84.5h-16c-0.553,0-1-0.448-1-1v-16c0-0.552,0.447-1,1-1h16c0.553,0,1,0.448,1,1v16
					C1483.5-84.948,1483.053-84.5,1482.5-84.5z M1467.5-86.5h14v-14h-14V-86.5z"/>
			</g>
			<g>
				<rect x="1402.5" y="-37.5" style="opacity:0.5;fill:#FABE00;" width="16" height="16"/>
				<path style="fill:#FABE00;" d="M1418.5-20.5h-16c-0.553,0-1-0.448-1-1v-16c0-0.552,0.447-1,1-1h16c0.553,0,1,0.448,1,1v16
					C1419.5-20.948,1419.053-20.5,1418.5-20.5z M1403.5-22.5h14v-14h-14V-22.5z"/>
			</g>
			<g>
				<rect x="1466.5" y="-37.5" style="opacity:0.5;fill:#FABE00;" width="16" height="16"/>
				<path style="fill:#FABE00;" d="M1482.5-20.5h-16c-0.553,0-1-0.448-1-1v-16c0-0.552,0.447-1,1-1h16c0.553,0,1,0.448,1,1v16
					C1483.5-20.948,1483.053-20.5,1482.5-20.5z M1467.5-22.5h14v-14h-14V-22.5z"/>
			</g>
			<g>
				<g>
					<g>
						<path style="fill:#00D2FF;" d="M1482.5-20.5h-80c-0.553,0-1-0.448-1-1v-80c0-0.552,0.447-1,1-1h80c0.553,0,1,0.448,1,1v80
							C1483.5-20.948,1483.053-20.5,1482.5-20.5z M1403.5-22.5h78v-78h-78V-22.5z"/>
					</g>
					<g>
						<g>
							<g>
								<g>
									<g>
										<g>
											<g>
												<g>
													<g id="Layer_1_107_">
														<g>
															<g>
																<g>
																	<g>
																		<g>
																			<g>
																				<g>
																					<g>
																						<g style="opacity:0;">
																							<rect x="1233.5" y="-136.5" style="fill:#FFFFFF;" width="280" height="150"/>
																						</g>
																					</g>
																				</g>
																			</g>
																		</g>
																	</g>
																</g>
															</g>
														</g>
													</g>
												</g>
											</g>
										</g>
									</g>
								</g>
							</g>
						</g>
					</g>
				</g>
			</g>
			<g>
				<path style="opacity:0.5;fill:#FABE00;" d="M1304.6-21.5h-14l-7-12.12c2.061-1.2,4.45-1.88,7-1.88
					C1298.33-35.5,1304.6-29.23,1304.6-21.5z"/>
				<path style="fill:#FABE00;" d="M1304.619-20.5c-0.004,0-0.012,0.001-0.02,0h-14c-0.357,0-0.688-0.19-0.866-0.5l-7-12.12
					c-0.275-0.477-0.113-1.087,0.363-1.364c2.264-1.318,4.858-2.016,7.503-2.016c8.202,0,14.888,6.617,14.999,14.793
					c0.014,0.066,0.021,0.136,0.021,0.207C1305.619-20.948,1305.172-20.5,1304.619-20.5z M1291.177-22.5h12.385
					c-0.513-6.703-6.13-12-12.962-12c-1.955,0-3.877,0.439-5.616,1.276L1291.177-22.5z"/>
			</g>
			<g>
				<path style="opacity:0.5;fill:#FABE00;" d="M1281.5-61.5c0,5.18-2.811,9.71-7,12.12l-7-12.12l7-12.12
					C1278.689-71.21,1281.5-66.68,1281.5-61.5z"/>
				<path style="fill:#FABE00;" d="M1274.501-48.38c-0.346,0-0.682-0.179-0.867-0.5l-7-12.12c-0.179-0.31-0.179-0.69,0-1l7-12.12
					c0.276-0.478,0.887-0.642,1.365-0.367c4.627,2.662,7.501,7.638,7.501,12.987s-2.874,10.325-7.501,12.987
					C1274.842-48.423,1274.67-48.38,1274.501-48.38z M1268.655-61.5l6.192,10.722c3.51-2.4,5.652-6.422,5.652-10.722
					s-2.143-8.322-5.652-10.722L1268.655-61.5z"/>
			</g>
			<g>
				<path style="opacity:0.5;fill:#FABE00;" d="M1304.6-101.5c0,7.73-6.27,14-14,14c-2.55,0-4.939-0.68-7-1.88l7-12.12H1304.6z"/>
				<path style="fill:#FABE00;" d="M1290.6-86.5c-2.645,0-5.239-0.697-7.503-2.016c-0.477-0.277-0.639-0.887-0.363-1.364l7-12.12
					c0.179-0.31,0.509-0.5,0.866-0.5h14c0.553,0,1,0.448,1,1C1305.6-93.229,1298.871-86.5,1290.6-86.5z M1284.983-89.776
					c1.739,0.837,3.661,1.276,5.616,1.276c6.832,0,12.449-5.297,12.962-12h-12.385L1284.983-89.776z"/>
			</g>
			<g>
				<path style="opacity:0.5;fill:#FABE00;" d="M1343.79-89.38c-2.061,1.2-4.45,1.88-7,1.88c-7.74,0-14-6.27-14-14h14L1343.79-89.38
					z"/>
				<path style="fill:#FABE00;" d="M1336.79-86.5c-8.271,0-15-6.729-15-15c0-0.552,0.447-1,1-1h14c0.357,0,0.688,0.19,0.866,0.5
					l7,12.12c0.275,0.477,0.113,1.087-0.363,1.364C1342.029-87.197,1339.435-86.5,1336.79-86.5z M1323.828-100.5
					c0.513,6.703,6.13,12,12.962,12c1.955,0,3.877-0.439,5.616-1.276l-6.193-10.724H1323.828z"/>
			</g>
			<g>
				<path style="opacity:0.5;fill:#FABE00;" d="M1359.88-61.5l-7,12.12c-4.19-2.42-7-6.94-7-12.12s2.81-9.7,7-12.12L1359.88-61.5z"
					/>
				<path style="fill:#FABE00;" d="M1352.879-48.38c-0.17,0-0.342-0.043-0.499-0.134c-4.626-2.672-7.5-7.648-7.5-12.986
					s2.874-10.314,7.5-12.986c0.476-0.277,1.089-0.113,1.366,0.366l7,12.12c0.179,0.31,0.179,0.69,0,1l-7,12.12
					C1353.561-48.559,1353.225-48.38,1352.879-48.38z M1352.533-72.221c-3.511,2.408-5.653,6.429-5.653,10.721
					s2.143,8.313,5.653,10.721l6.191-10.721L1352.533-72.221z"/>
			</g>
			<g>
				<path style="opacity:0.5;fill:#FABE00;" d="M1343.79-33.62l-7,12.12h-14c0-7.73,6.26-14,14-14
					C1339.34-35.5,1341.729-34.82,1343.79-33.62z"/>
				<path style="fill:#FABE00;" d="M1336.79-20.5h-14c-0.553,0-1-0.448-1-1c0-8.271,6.729-15,15-15c2.645,0,5.239,0.697,7.503,2.016
					c0.477,0.277,0.639,0.887,0.363,1.364l-7,12.12C1337.478-20.69,1337.147-20.5,1336.79-20.5z M1323.828-22.5h12.385l6.193-10.724
					c-1.739-0.837-3.661-1.276-5.616-1.276C1329.958-34.5,1324.341-29.203,1323.828-22.5z"/>
			</g>
			<g>
				<path style="fill:#00D2FF;" d="M1336.785-20.5h-46.188c-0.357,0-0.688-0.19-0.866-0.5l-23.095-40c-0.179-0.31-0.179-0.69,0-1
					l23.095-40c0.179-0.31,0.509-0.5,0.866-0.5h46.188c0.357,0,0.688,0.19,0.866,0.5l23.095,40c0.179,0.31,0.179,0.69,0,1
					l-23.095,40C1337.473-20.69,1337.143-20.5,1336.785-20.5z M1291.175-22.5h45.033l22.518-39l-22.518-39h-45.033l-22.518,39
					L1291.175-22.5z"/>
			</g>
			<g>
				<path style="fill:#B4B4B4;" d="M1442.5-16.5c-0.553,0-1-0.448-1-1v-8c0-0.552,0.447-1,1-1s1,0.448,1,1v8
					C1443.5-16.948,1443.053-16.5,1442.5-16.5z"/>
			</g>
			<g>
				<path style="fill:#B4B4B4;" d="M1442.5-96.5c-0.553,0-1-0.448-1-1v-8c0-0.552,0.447-1,1-1s1,0.448,1,1v8
					C1443.5-96.948,1443.053-96.5,1442.5-96.5z"/>
			</g>
			<g>
				<path style="fill:#B4B4B4;" d="M1313.5-96.5c-0.553,0-1-0.448-1-1v-8c0-0.552,0.447-1,1-1s1,0.448,1,1v8
					C1314.5-96.948,1314.053-96.5,1313.5-96.5z"/>
			</g>
			<g>
				<path style="fill:#B4B4B4;" d="M1313.5-16.5c-0.553,0-1-0.448-1-1v-8c0-0.552,0.447-1,1-1s1,0.448,1,1v8
					C1314.5-16.948,1314.053-16.5,1313.5-16.5z"/>
			</g>
			<g>
				<path style="fill:#B4B4B4;" d="M1282.702-78.5c-0.17,0-0.342-0.043-0.499-0.134l-6.929-4c-0.479-0.276-0.643-0.888-0.366-1.366
					c0.276-0.479,0.889-0.643,1.366-0.366l6.929,4c0.479,0.276,0.643,0.888,0.366,1.366
					C1283.384-78.679,1283.048-78.5,1282.702-78.5z"/>
			</g>
			<g>
				<path style="fill:#B4B4B4;" d="M1351.984-38.5c-0.17,0-0.342-0.043-0.499-0.134l-6.928-4c-0.479-0.276-0.643-0.888-0.366-1.366
					c0.275-0.479,0.889-0.642,1.366-0.366l6.928,4c0.479,0.276,0.643,0.888,0.366,1.366C1352.666-38.679,1352.33-38.5,1351.984-38.5
					z"/>
			</g>
			<g>
				<path style="fill:#B4B4B4;" d="M1275.775-38.5c-0.346,0-0.682-0.179-0.867-0.5c-0.276-0.479-0.112-1.09,0.366-1.366l6.929-4
					c0.476-0.276,1.089-0.112,1.366,0.366c0.276,0.479,0.112,1.09-0.366,1.366l-6.929,4
					C1276.117-38.543,1275.945-38.5,1275.775-38.5z"/>
			</g>
			<g>
				<path style="fill:#B4B4B4;" d="M1345.059-78.5c-0.346,0-0.682-0.179-0.867-0.5c-0.276-0.478-0.112-1.09,0.366-1.366l6.928-4
					c0.476-0.277,1.089-0.113,1.366,0.366c0.276,0.478,0.112,1.09-0.366,1.366l-6.928,4C1345.4-78.543,1345.229-78.5,1345.059-78.5z
					"/>
			</g>
			<g>
				<path style="fill:#B4B4B4;" d="M1406.5-60.5h-8c-0.553,0-1-0.448-1-1s0.447-1,1-1h8c0.553,0,1,0.448,1,1
					S1407.053-60.5,1406.5-60.5z"/>
			</g>
			<g>
				<path style="fill:#B4B4B4;" d="M1486.5-60.5h-8c-0.553,0-1-0.448-1-1s0.447-1,1-1h8c0.553,0,1,0.448,1,1
					S1487.053-60.5,1486.5-60.5z"/>
			</g>
		</g>
	</g>
</g>
<g id="nyt_x5F_exporter_x5F_info" style="display:none;">
</g>
</svg>
