<?xml version="1.0" encoding="iso-8859-1"?>
<!-- Generator: Adobe Illustrator 16.0.3, SVG Export Plug-In . SVG Version: 6.00 Build 0)  -->
<!DOCTYPE svg PUBLIC "-//W3C//DTD SVG 1.1//EN" "http://www.w3.org/Graphics/SVG/1.1/DTD/svg11.dtd">
<svg version="1.1" xmlns="http://www.w3.org/2000/svg" xmlns:xlink="http://www.w3.org/1999/xlink" x="0px" y="0px" width="280px"
	 height="150px" viewBox="-566.5 -51.5 280 150" style="enable-background:new -566.5 -51.5 280 150;" xml:space="preserve">
<g id="Layer_1">
	<g id="New_Symbol_2">
	</g>
	<g id="New_Symbol_3_">
	</g>
	<g id="New_Symbol_2_">
	</g>
	<g id="New_Symbol_1_">
	</g>
	<g id="New_Symbol">
	</g>
	<g>
		<g>
			<g>
				<path style="fill:#00D2FF;" d="M-426.5,70.5c-0.2,0-0.4-0.06-0.572-0.18l-66-46c-0.269-0.187-0.428-0.493-0.428-0.82
					s0.16-0.633,0.428-0.82l66-46c0.341-0.238,0.794-0.241,1.138-0.004l67,46c0.272,0.187,0.434,0.495,0.434,0.824
					s-0.162,0.638-0.434,0.824l-67,46C-426.104,70.441-426.302,70.5-426.5,70.5z M-490.751,23.5l64.255,44.784l65.229-44.784
					l-65.229-44.784L-490.751,23.5z"/>
			</g>
			<g>
				<path style="fill:#B4B4B4;" d="M-457.195,4.826c-0.316,0-0.628-0.15-0.822-0.429l-4.565-6.568
					c-0.315-0.454-0.203-1.077,0.25-1.392c0.454-0.314,1.077-0.202,1.392,0.25l4.565,6.568c0.315,0.454,0.203,1.077-0.25,1.392
					C-456.799,4.768-456.999,4.826-457.195,4.826z"/>
			</g>
			<g>
				<path style="fill:#B4B4B4;" d="M-395.127,4.848c-0.194,0-0.39-0.056-0.562-0.173c-0.457-0.311-0.574-0.933-0.264-1.39
					l4.504-6.611c0.312-0.456,0.933-0.574,1.39-0.264c0.457,0.311,0.574,0.933,0.264,1.39l-4.504,6.611
					C-394.493,4.695-394.807,4.848-395.127,4.848z"/>
			</g>
			<g>
				<path style="fill:#B4B4B4;" d="M-390.644,50.77c-0.319,0-0.632-0.152-0.826-0.436l-4.518-6.602
					c-0.312-0.455-0.195-1.078,0.26-1.39c0.457-0.312,1.079-0.195,1.39,0.261l4.518,6.602c0.312,0.455,0.195,1.078-0.26,1.39
					C-390.252,50.713-390.449,50.77-390.644,50.77z"/>
			</g>
			<g>
				<path style="fill:#B4B4B4;" d="M-461.798,50.749c-0.197,0-0.397-0.059-0.571-0.18c-0.453-0.316-0.564-0.939-0.248-1.393
					l4.576-6.562c0.316-0.451,0.939-0.563,1.393-0.248c0.453,0.316,0.564,0.939,0.248,1.393l-4.576,6.562
					C-461.171,50.6-461.482,50.749-461.798,50.749z"/>
			</g>
			<g>
				<g>
					<g>
						<g>
							<g>
								<g>
									<g>
										<g>
											<g>
												<g>
													<g>
														<g id="Layer_1_102_">
															<g>
																<g>
																	<g>
																		<g>
																			<g>
																				<g>
																					<g>
																						<g>
																							<g style="opacity:0;">
																								<rect x="-566.5" y="-51.5" style="fill:#FFFFFF;" width="280" height="150"/>
																							</g>
																						</g>
																					</g>
																				</g>
																			</g>
																		</g>
																	</g>
																</g>
															</g>
														</g>
													</g>
												</g>
											</g>
										</g>
									</g>
								</g>
							</g>
						</g>
					</g>
				</g>
			</g>
		</g>
	</g>
</g>
<g id="Isolation_Mode">
</g>
<g id="nyt_x5F_exporter_x5F_info" style="display:none;">
</g>
</svg>
