<?xml version="1.0" encoding="iso-8859-1"?>
<!-- Generator: Adobe Illustrator 16.0.3, SVG Export Plug-In . SVG Version: 6.00 Build 0)  -->
<!DOCTYPE svg PUBLIC "-//W3C//DTD SVG 1.1//EN" "http://www.w3.org/Graphics/SVG/1.1/DTD/svg11.dtd">
<svg version="1.1" xmlns="http://www.w3.org/2000/svg" xmlns:xlink="http://www.w3.org/1999/xlink" x="0px" y="0px" width="280px"
	 height="150px" viewBox="333.5 -51.5 280 150" style="enable-background:new 333.5 -51.5 280 150;" xml:space="preserve">
<g id="Layer_1">
	<g id="New_Symbol_2">
	</g>
	<g id="New_Symbol_3_">
	</g>
	<g id="New_Symbol_2_">
	</g>
	<g id="New_Symbol_1_">
	</g>
	<g id="New_Symbol">
	</g>
	<g>
		<g>
		</g>
	</g>
	<g>
		<g>
			<g>
				<g>
					<rect x="404.5" y="50.5" style="opacity:0.5;fill:#FABE00;" width="16" height="16.125"/>
					<path style="fill:#FABE00;" d="M420.5,67.625h-16c-0.553,0-1-0.447-1-1V50.5c0-0.553,0.447-1,1-1h16c0.553,0,1,0.447,1,1
						v16.125C421.5,67.178,421.053,67.625,420.5,67.625z M405.5,65.625h14V51.5h-14V65.625z"/>
				</g>
				<g>
					<rect x="404.5" y="-13.625" style="opacity:0.5;fill:#FABE00;" width="16" height="16.125"/>
					<path style="fill:#FABE00;" d="M420.5,3.5h-16c-0.553,0-1-0.448-1-1v-16.125c0-0.552,0.447-1,1-1h16c0.553,0,1,0.448,1,1V2.5
						C421.5,3.052,421.053,3.5,420.5,3.5z M405.5,1.5h14v-14.125h-14V1.5z"/>
				</g>
				<g>
					<g>
						<g>
							<path style="fill:#00D2FF;" d="M562.02,67.5c-0.005,0.001-0.013,0.001-0.02,0H404.5c-0.553,0-1-0.447-1-1v-80
								c0-0.552,0.447-1,1-1H504c0.32,0,0.621,0.154,0.81,0.413l57.901,79.864c0.19,0.183,0.309,0.438,0.309,0.723
								C563.02,67.053,562.572,67.5,562.02,67.5z M405.5,65.5h154.54l-56.55-78H405.5V65.5z"/>
						</g>
						<g>
							<g>
								<g>
									<g>
										<g>
											<g>
												<g>
													<g>
														<g id="Layer_1_100_">
															<g>
																<g>
																	<g>
																		<g>
																			<g>
																				<g>
																					<g>
																						<g>
																							<g style="opacity:0;">
																								<rect x="333.5" y="-51.5" style="fill:#FFFFFF;" width="280" height="150"/>
																							</g>
																						</g>
																					</g>
																				</g>
																			</g>
																		</g>
																	</g>
																</g>
															</g>
														</g>
													</g>
												</g>
											</g>
										</g>
									</g>
								</g>
							</g>
						</g>
					</g>
				</g>
			</g>
		</g>
	</g>
</g>
<g id="Isolation_Mode">
</g>
<g id="nyt_x5F_exporter_x5F_info" style="display:none;">
</g>
</svg>
