<?xml version="1.0" encoding="iso-8859-1"?>
<!-- Generator: Adobe Illustrator 16.0.3, SVG Export Plug-In . SVG Version: 6.00 Build 0)  -->
<!DOCTYPE svg PUBLIC "-//W3C//DTD SVG 1.1//EN" "http://www.w3.org/Graphics/SVG/1.1/DTD/svg11.dtd">
<svg version="1.1" xmlns="http://www.w3.org/2000/svg" xmlns:xlink="http://www.w3.org/1999/xlink" x="0px" y="0px" width="280px"
	 height="150px" viewBox="633.5 -51.5 280 150" style="enable-background:new 633.5 -51.5 280 150;" xml:space="preserve">
<g id="Layer_1">
	<g id="New_Symbol_2">
	</g>
	<g id="New_Symbol_3_">
	</g>
	<g id="New_Symbol_2_">
	</g>
	<g id="New_Symbol_1_">
	</g>
	<g id="New_Symbol">
	</g>
	<g>
		<g>
		</g>
	</g>
	<g>
		<g>
			<g>
				<g>
					<rect x="708.5" y="50.5" style="opacity:0.5;fill:#FABE00;" width="16" height="16.125"/>
					<path style="fill:#FABE00;" d="M724.5,67.625h-16c-0.553,0-1-0.447-1-1V50.5c0-0.553,0.447-1,1-1h16c0.553,0,1,0.447,1,1
						v16.125C725.5,67.178,725.053,67.625,724.5,67.625z M709.5,65.625h14V51.5h-14V65.625z"/>
				</g>
				<g>
					<g>
						<g>
							<path style="fill:#00D2FF;" d="M848.52,67.5c-0.005,0.001-0.012,0.001-0.02,0h-140c-0.553,0-1-0.447-1-1v-80
								c0-0.356,0.189-0.686,0.498-0.865c0.308-0.179,0.688-0.181,0.998-0.003l139.892,79.938c0.37,0.146,0.632,0.508,0.632,0.931
								C849.52,67.053,849.072,67.5,848.52,67.5z M709.5,65.5h135.234L709.5-11.777V65.5z"/>
						</g>
						<g>
							<g>
								<g>
									<g>
										<g>
											<g>
												<g>
													<g>
														<g id="Layer_1_99_">
															<g>
																<g>
																	<g>
																		<g>
																			<g>
																				<g>
																					<g>
																						<g>
																							<g style="opacity:0;">
																								<rect x="633.5" y="-51.5" style="fill:#FFFFFF;" width="280" height="150"/>
																							</g>
																						</g>
																					</g>
																				</g>
																			</g>
																		</g>
																	</g>
																</g>
															</g>
														</g>
													</g>
												</g>
											</g>
										</g>
									</g>
								</g>
							</g>
						</g>
					</g>
				</g>
			</g>
		</g>
	</g>
</g>
<g id="Isolation_Mode">
</g>
<g id="nyt_x5F_exporter_x5F_info" style="display:none;">
</g>
</svg>
