<?xml version="1.0" encoding="iso-8859-1"?>
<!-- Generator: Adobe Illustrator 16.0.3, SVG Export Plug-In . SVG Version: 6.00 Build 0)  -->
<!DOCTYPE svg PUBLIC "-//W3C//DTD SVG 1.1//EN" "http://www.w3.org/Graphics/SVG/1.1/DTD/svg11.dtd">
<svg version="1.1" xmlns="http://www.w3.org/2000/svg" xmlns:xlink="http://www.w3.org/1999/xlink" x="0px" y="0px" width="280px"
	 height="150px" viewBox="33.5 -51.5 280 150" style="enable-background:new 33.5 -51.5 280 150;" xml:space="preserve">
<g id="Layer_1">
	<g id="New_Symbol_2">
	</g>
	<g id="New_Symbol_3_">
	</g>
	<g id="New_Symbol_2_">
	</g>
	<g id="New_Symbol_1_">
	</g>
	<g id="New_Symbol">
	</g>
	<g>
		<g>
			<g>
				<g>
					<g>
						<rect x="135.5" y="50.5" style="opacity:0.5;fill:#FABE00;" width="16" height="16.125"/>
						<path style="fill:#FABE00;" d="M151.5,67.625h-16c-0.553,0-1-0.447-1-1V50.5c0-0.553,0.447-1,1-1h16c0.553,0,1,0.447,1,1
							v16.125C152.5,67.178,152.053,67.625,151.5,67.625z M136.5,65.625h14V51.5h-14V65.625z"/>
					</g>
					<g>
						<g>
							<g>
								<path style="fill:#00D2FF;" d="M232.5,67.5h-97c-0.553,0-1-0.447-1-1v-90c0-0.552,0.447-1,1-1s1,0.448,1,1v89h96
									c0.553,0,1,0.447,1,1S233.053,67.5,232.5,67.5z"/>
							</g>
							<g>
								<g>
									<g>
										<g>
											<g>
												<g>
													<g>
														<g>
															<g id="Layer_1_77_">
																<g>
																	<g>
																		<g>
																			<g>
																				<g>
																					<g>
																						<g>
																							<g>
																								<g style="opacity:0;">
																									<rect x="33.5" y="-51.5" style="fill:#FFFFFF;" width="280" height="150"/>
																								</g>
																							</g>
																						</g>
																					</g>
																				</g>
																			</g>
																		</g>
																	</g>
																</g>
															</g>
														</g>
													</g>
												</g>
											</g>
										</g>
									</g>
								</g>
							</g>
						</g>
					</g>
				</g>
			</g>
			<g>
				<g>
					<path d="M197.463,0.746L193.605,5.5h-1.841l3.89-4.609l-0.016-0.049c-0.145,0.08-0.336,0.145-0.528,0.192s-0.4,0.08-0.608,0.08
						c-2.017,0-3.265-1.345-3.265-3.089c0-2.337,1.664-4.146,4.273-4.146c2.064,0,3.569,1.361,3.569,3.33
						C199.08-1.671,198.567-0.599,197.463,0.746z M195.463-4.856c-1.649,0-2.705,1.169-2.705,2.753c0,1.201,0.848,2.049,2,2.049
						c1.649,0,2.802-1.184,2.802-2.736C197.56-3.992,196.647-4.856,195.463-4.856z"/>
				</g>
				<g>
					<path d="M208.247-2.231c0,3.266-1.296,8.02-4.93,8.02c-2.272,0-3.169-1.713-3.169-3.825c0-3.313,1.328-8.084,4.962-8.084
						C207.367-6.121,208.247-4.344,208.247-2.231z M201.701,1.738c0,1.489,0.432,2.753,1.729,2.753c1.904,0,3.233-3.345,3.233-6.563
						c0-1.504-0.4-2.769-1.681-2.769C203.045-4.84,201.701-1.463,201.701,1.738z"/>
				</g>
				<g>
					<path d="M212.661-1.079c-1.393,0-2.481-1.072-2.481-2.465s1.089-2.48,2.481-2.48s2.48,1.088,2.48,2.48
						S214.054-1.079,212.661-1.079z M212.661-5.017c-0.801,0-1.457,0.656-1.457,1.473c0,0.801,0.656,1.457,1.457,1.457
						c0.8,0,1.456-0.656,1.456-1.457C214.117-4.36,213.461-5.017,212.661-5.017z"/>
				</g>
			</g>
		</g>
	</g>
</g>
<g id="Isolation_Mode">
</g>
<g id="nyt_x5F_exporter_x5F_info" style="display:none;">
</g>
</svg>
