<?xml version="1.0" encoding="iso-8859-1"?>
<!-- Generator: Adobe Illustrator 16.0.3, SVG Export Plug-In . SVG Version: 6.00 Build 0)  -->
<!DOCTYPE svg PUBLIC "-//W3C//DTD SVG 1.1//EN" "http://www.w3.org/Graphics/SVG/1.1/DTD/svg11.dtd">
<svg version="1.1" xmlns="http://www.w3.org/2000/svg" xmlns:xlink="http://www.w3.org/1999/xlink" x="0px" y="0px" width="280px"
	 height="150px" viewBox="-1166.5 458.5 280 150" style="enable-background:new -1166.5 458.5 280 150;" xml:space="preserve">
<g id="Layer_1">
	<g id="New_Symbol_2">
	</g>
	<g id="New_Symbol_3_">
	</g>
	<g id="New_Symbol_2_">
	</g>
	<g id="New_Symbol_1_">
	</g>
	<g id="New_Symbol">
	</g>
	<g>
		<g>
			<g>
				<rect x="-1096.5" y="557.5" style="opacity:0.5;fill:#FABE00;" width="16" height="16"/>
				<path style="fill:#FABE00;" d="M-1080.5,574.5h-16c-0.552,0-1-0.447-1-1v-16c0-0.553,0.448-1,1-1h16c0.552,0,1,0.447,1,1v16
					C-1079.5,574.053-1079.948,574.5-1080.5,574.5z M-1095.5,572.5h14v-14h-14V572.5z"/>
			</g>
			<g>
				<g>
					<g>
						<g>
							<g>
								<g>
									<g>
										<g>
											<g>
												<g>
													<g id="Layer_1_89_">
														<g>
															<g>
																<g>
																	<g>
																		<g>
																			<g>
																				<g>
																					<g>
																						<g style="opacity:0;">
																							<rect x="-1166.5" y="458.5" style="fill:#FFFFFF;" width="280" height="150"/>
																						</g>
																					</g>
																				</g>
																			</g>
																		</g>
																	</g>
																</g>
															</g>
														</g>
													</g>
												</g>
											</g>
										</g>
									</g>
								</g>
							</g>
						</g>
					</g>
				</g>
			</g>
			<g>
				<path style="fill:#00D2FF;" d="M-956.5,574.5h-140c-0.552,0-1-0.447-1-1v-80c0-0.553,0.448-1,1-1s1,0.447,1,1v79h139
					c0.552,0,1,0.447,1,1S-955.948,574.5-956.5,574.5z"/>
			</g>
		</g>
	</g>
	<g>
		<path style="fill:#C8C8C8;" d="M-956.501,574.5c-0.168,0-0.339-0.042-0.495-0.132l-140-80c-0.479-0.273-0.646-0.885-0.372-1.364
			c0.274-0.479,0.885-0.646,1.364-0.372l140,80c0.479,0.273,0.646,0.885,0.372,1.364C-955.816,574.319-956.154,574.5-956.501,574.5z
			"/>
	</g>
</g>
<g id="Isolation_Mode">
</g>
<g id="nyt_x5F_exporter_x5F_info" style="display:none;">
</g>
</svg>
