<?xml version="1.0" encoding="iso-8859-1"?>
<!-- Generator: Adobe Illustrator 16.0.3, SVG Export Plug-In . SVG Version: 6.00 Build 0)  -->
<!DOCTYPE svg PUBLIC "-//W3C//DTD SVG 1.1//EN" "http://www.w3.org/Graphics/SVG/1.1/DTD/svg11.dtd">
<svg version="1.1" xmlns="http://www.w3.org/2000/svg" xmlns:xlink="http://www.w3.org/1999/xlink" x="0px" y="0px" width="280px"
	 height="150px" viewBox="-1176.5 301.5 280 150" style="enable-background:new -1176.5 301.5 280 150;" xml:space="preserve">
<g id="Isolation_Mode">
	<g id="Layer_1">
		<g id="New_Symbol_2">
		</g>
		<g id="New_Symbol_3_">
		</g>
		<g id="New_Symbol_2_">
		</g>
		<g id="New_Symbol_1_">
		</g>
		<g id="New_Symbol">
		</g>
	</g>
	<g>
		<g>
			<g>
				<g>
					<g>
						<g>
							<g>
								<g>
									<g>
										<g style="opacity:0;">
											<rect x="-1176.5" y="301.5" style="fill:#FFFFFF;" width="280" height="150"/>
										</g>
									</g>
								</g>
							</g>
						</g>
					</g>
				</g>
			</g>
			<g>
				<g>
					<g>
						<g>
							<g>
								<g>
									<g>
										<g style="opacity:0;">
											<rect x="-1176.5" y="301.5" style="fill:#FFFFFF;" width="280" height="150"/>
										</g>
									</g>
								</g>
							</g>
						</g>
					</g>
				</g>
			</g>
			<g>
				<g>
					<g>
						<g>
							<path style="fill:#B4B4B4;" d="M-1094.124,376.869c1.104,0,2.177,0.544,2.673,1.488h0.032l0.225-1.28h1.44l-2.017,11.429
								h-1.489l0.929-5.059h-0.032c-0.544,0.833-1.601,1.409-2.769,1.409c-2.001,0-3.313-1.329-3.313-3.281
								C-1098.445,378.981-1096.621,376.869-1094.124,376.869z M-1094.796,383.624c1.681,0,3.009-1.521,3.009-3.33
								c0-1.28-0.864-2.209-2.177-2.209c-1.776,0-2.945,1.489-2.945,3.346C-1096.909,382.663-1096.156,383.624-1094.796,383.624z"/>
						</g>
						<g>
							<path style="fill:#C8C8C8;" d="M-1075.37,377.846v1.296h-8.42v-1.296H-1075.37z M-1075.37,380.486v1.297h-8.42v-1.297
								H-1075.37z"/>
						</g>
					</g>
					<g>
						<g>
							<path style="fill:#191E23;" d="M-1094.124,376.869c1.104,0,2.177,0.544,2.673,1.488h0.032l0.225-1.28h1.44l-2.017,11.429
								h-1.489l0.929-5.059h-0.032c-0.544,0.833-1.601,1.409-2.769,1.409c-2.001,0-3.313-1.329-3.313-3.281
								C-1098.445,378.981-1096.621,376.869-1094.124,376.869z M-1094.796,383.624c1.681,0,3.009-1.521,3.009-3.33
								c0-1.28-0.864-2.209-2.177-2.209c-1.776,0-2.945,1.489-2.945,3.346C-1096.909,382.663-1096.156,383.624-1094.796,383.624z"/>
							<path style="fill:#191E23;" d="M-1094.124,376.869c1.104,0,2.177,0.544,2.673,1.488h0.032l0.225-1.28h1.44l-2.017,11.429
								h-1.489l0.929-5.059h-0.032c-0.544,0.833-1.601,1.409-2.769,1.409c-2.001,0-3.313-1.329-3.313-3.281
								C-1098.445,378.981-1096.621,376.869-1094.124,376.869z M-1094.796,383.624c1.681,0,3.009-1.521,3.009-3.33
								c0-1.28-0.864-2.209-2.177-2.209c-1.776,0-2.945,1.489-2.945,3.346C-1096.909,382.663-1096.156,383.624-1094.796,383.624z"/>
						</g>
						<g>
							<path style="fill:#191E23;" d="M-1075.37,377.846v1.296h-8.42v-1.296H-1075.37z M-1075.37,380.486v1.297h-8.42v-1.297
								H-1075.37z"/>
							<path style="fill:#191E23;" d="M-1075.37,377.846v1.296h-8.42v-1.296H-1075.37z M-1075.37,380.486v1.297h-8.42v-1.297
								H-1075.37z"/>
						</g>
					</g>
				</g>
				<g>
					<g>
						<g>
							<path style="fill:#B4B4B4;" d="M-1032.083,364.17c0-0.896-0.576-1.265-1.601-1.265c-0.801,0-1.681,0.368-2.272,0.832
								l-0.608-0.992c0.8-0.64,1.969-1.04,3.089-1.04c1.44,0,2.817,0.608,2.817,2.24c0,0.192-0.032,0.561-0.064,0.769l-0.56,3.073
								c-0.097,0.593-0.177,1.297-0.177,1.713h-1.36c0-0.32,0.032-0.704,0.096-1.057h-0.031c-0.721,0.849-1.537,1.217-2.689,1.217
								c-1.04,0-2.353-0.464-2.353-2.001c0-2.465,3.009-2.897,5.65-2.897C-1032.099,364.458-1032.083,364.313-1032.083,364.17z
								 M-1032.547,365.851c-1.665,0-3.777,0.224-3.777,1.601c0,0.832,0.704,1.072,1.393,1.072c1.344,0,2.305-0.96,2.513-2.112
								l0.112-0.561H-1032.547z"/>
						</g>
						<g>
							<path style="fill:#B4B4B4;" d="M-1025.105,364.172h-4.298l0.149-0.857l3.049-2.602c0.681-0.578,1.007-0.997,1.007-1.585
								c0-0.605-0.447-0.97-1.081-0.97c-0.699,0-1.185,0.448-1.38,1.101l-0.82-0.205c0.345-1.025,1.174-1.65,2.246-1.65
								c1.119,0,1.939,0.634,1.939,1.659s-0.531,1.529-1.436,2.284l-2.415,2.023h3.18L-1025.105,364.172z"/>
						</g>
						<g>
							<path style="fill:#B4B4B4;" d="M-1015.609,363.994h3.554v1.313h-3.554v3.553h-1.313v-3.553h-3.554v-1.313h3.554v-3.554h1.313
								V363.994z"/>
						</g>
						<g>
							<path style="fill:#B4B4B4;" d="M-1004.811,368.22l-0.225,1.28h-1.424l2.129-12.101h1.488l-1.04,5.73h0.031
								c0.545-0.816,1.585-1.425,2.754-1.425c2,0,3.313,1.328,3.313,3.281c0,2.593-1.809,4.706-4.306,4.706
								c-1.104,0-2.209-0.528-2.688-1.473H-1004.811z M-1001.417,362.938c-1.697,0-3.01,1.521-3.01,3.329
								c0,1.28,0.849,2.209,2.177,2.209c1.777,0,2.945-1.488,2.945-3.346C-999.305,363.897-1000.057,362.938-1001.417,362.938z"/>
						</g>
						<g>
							<path style="fill:#B4B4B4;" d="M-992.439,364.172h-4.298l0.149-0.857l3.049-2.602c0.681-0.578,1.007-0.997,1.007-1.585
								c0-0.605-0.447-0.97-1.081-0.97c-0.699,0-1.185,0.448-1.38,1.101l-0.82-0.205c0.345-1.025,1.174-1.65,2.246-1.65
								c1.119,0,1.939,0.634,1.939,1.659s-0.531,1.529-1.436,2.284l-2.415,2.023h3.18L-992.439,364.172z"/>
						</g>
					</g>
					<g>
						<g>
							<path style="fill:#191E23;" d="M-1032.083,364.17c0-0.896-0.576-1.265-1.601-1.265c-0.801,0-1.681,0.368-2.272,0.832
								l-0.608-0.992c0.8-0.64,1.969-1.04,3.089-1.04c1.44,0,2.817,0.608,2.817,2.24c0,0.192-0.032,0.561-0.064,0.769l-0.56,3.073
								c-0.097,0.593-0.177,1.297-0.177,1.713h-1.36c0-0.32,0.032-0.704,0.096-1.057h-0.031c-0.721,0.849-1.537,1.217-2.689,1.217
								c-1.04,0-2.353-0.464-2.353-2.001c0-2.465,3.009-2.897,5.65-2.897C-1032.099,364.458-1032.083,364.313-1032.083,364.17z
								 M-1032.547,365.851c-1.665,0-3.777,0.224-3.777,1.601c0,0.832,0.704,1.072,1.393,1.072c1.344,0,2.305-0.96,2.513-2.112
								l0.112-0.561H-1032.547z"/>
							<path style="fill:#191E23;" d="M-1032.083,364.17c0-0.896-0.576-1.265-1.601-1.265c-0.801,0-1.681,0.368-2.272,0.832
								l-0.608-0.992c0.8-0.64,1.969-1.04,3.089-1.04c1.44,0,2.817,0.608,2.817,2.24c0,0.192-0.032,0.561-0.064,0.769l-0.56,3.073
								c-0.097,0.593-0.177,1.297-0.177,1.713h-1.36c0-0.32,0.032-0.704,0.096-1.057h-0.031c-0.721,0.849-1.537,1.217-2.689,1.217
								c-1.04,0-2.353-0.464-2.353-2.001c0-2.465,3.009-2.897,5.65-2.897C-1032.099,364.458-1032.083,364.313-1032.083,364.17z
								 M-1032.547,365.851c-1.665,0-3.777,0.224-3.777,1.601c0,0.832,0.704,1.072,1.393,1.072c1.344,0,2.305-0.96,2.513-2.112
								l0.112-0.561H-1032.547z"/>
						</g>
						<g>
							<path style="fill:#191E23;" d="M-1025.105,364.172h-4.298l0.149-0.857l3.049-2.602c0.681-0.578,1.007-0.997,1.007-1.585
								c0-0.605-0.447-0.97-1.081-0.97c-0.699,0-1.185,0.448-1.38,1.101l-0.82-0.205c0.345-1.025,1.174-1.65,2.246-1.65
								c1.119,0,1.939,0.634,1.939,1.659s-0.531,1.529-1.436,2.284l-2.415,2.023h3.18L-1025.105,364.172z"/>
							<path style="fill:#191E23;" d="M-1025.105,364.172h-4.298l0.149-0.857l3.049-2.602c0.681-0.578,1.007-0.997,1.007-1.585
								c0-0.605-0.447-0.97-1.081-0.97c-0.699,0-1.185,0.448-1.38,1.101l-0.82-0.205c0.345-1.025,1.174-1.65,2.246-1.65
								c1.119,0,1.939,0.634,1.939,1.659s-0.531,1.529-1.436,2.284l-2.415,2.023h3.18L-1025.105,364.172z"/>
						</g>
						<g>
							<path style="fill:#191E23;" d="M-1015.609,363.994h3.554v1.313h-3.554v3.553h-1.313v-3.553h-3.554v-1.313h3.554v-3.554h1.313
								V363.994z"/>
							<path style="fill:#191E23;" d="M-1015.609,363.994h3.554v1.313h-3.554v3.553h-1.313v-3.553h-3.554v-1.313h3.554v-3.554h1.313
								V363.994z"/>
						</g>
						<g>
							<path style="fill:#191E23;" d="M-1004.811,368.22l-0.225,1.28h-1.424l2.129-12.101h1.488l-1.04,5.73h0.031
								c0.545-0.816,1.585-1.425,2.754-1.425c2,0,3.313,1.328,3.313,3.281c0,2.593-1.809,4.706-4.306,4.706
								c-1.104,0-2.209-0.528-2.688-1.473H-1004.811z M-1001.417,362.938c-1.697,0-3.01,1.521-3.01,3.329
								c0,1.28,0.849,2.209,2.177,2.209c1.777,0,2.945-1.488,2.945-3.346C-999.305,363.897-1000.057,362.938-1001.417,362.938z"/>
							<path style="fill:#191E23;" d="M-1004.811,368.22l-0.225,1.28h-1.424l2.129-12.101h1.488l-1.04,5.73h0.031
								c0.545-0.816,1.585-1.425,2.754-1.425c2,0,3.313,1.328,3.313,3.281c0,2.593-1.809,4.706-4.306,4.706
								c-1.104,0-2.209-0.528-2.688-1.473H-1004.811z M-1001.417,362.938c-1.697,0-3.01,1.521-3.01,3.329
								c0,1.28,0.849,2.209,2.177,2.209c1.777,0,2.945-1.488,2.945-3.346C-999.305,363.897-1000.057,362.938-1001.417,362.938z"/>
						</g>
						<g>
							<path style="fill:#191E23;" d="M-992.439,364.172h-4.298l0.149-0.857l3.049-2.602c0.681-0.578,1.007-0.997,1.007-1.585
								c0-0.605-0.447-0.97-1.081-0.97c-0.699,0-1.185,0.448-1.38,1.101l-0.82-0.205c0.345-1.025,1.174-1.65,2.246-1.65
								c1.119,0,1.939,0.634,1.939,1.659s-0.531,1.529-1.436,2.284l-2.415,2.023h3.18L-992.439,364.172z"/>
							<path style="fill:#191E23;" d="M-992.439,364.172h-4.298l0.149-0.857l3.049-2.602c0.681-0.578,1.007-0.997,1.007-1.585
								c0-0.605-0.447-0.97-1.081-0.97c-0.699,0-1.185,0.448-1.38,1.101l-0.82-0.205c0.345-1.025,1.174-1.65,2.246-1.65
								c1.119,0,1.939,0.634,1.939,1.659s-0.531,1.529-1.436,2.284l-2.415,2.023h3.18L-992.439,364.172z"/>
						</g>
					</g>
				</g>
				<g>
					<g>
						<g>
							<path style="fill:#B4B4B4;" d="M-1017.753,400.5h-7.379l0.256-1.473l5.234-4.466c1.169-0.992,1.729-1.713,1.729-2.721
								c0-1.041-0.768-1.665-1.856-1.665c-1.2,0-2.033,0.769-2.369,1.889l-1.408-0.352c0.592-1.761,2.017-2.834,3.857-2.834
								c1.921,0,3.329,1.089,3.329,2.85s-0.912,2.625-2.465,3.922l-4.146,3.473h5.458L-1017.753,400.5z"/>
						</g>
					</g>
					<g>
						<g>
							<path style="fill:#191E23;" d="M-1017.753,400.5h-7.379l0.256-1.473l5.234-4.466c1.169-0.992,1.729-1.713,1.729-2.721
								c0-1.041-0.768-1.665-1.856-1.665c-1.2,0-2.033,0.769-2.369,1.889l-1.408-0.352c0.592-1.761,2.017-2.834,3.857-2.834
								c1.921,0,3.329,1.089,3.329,2.85s-0.912,2.625-2.465,3.922l-4.146,3.473h5.458L-1017.753,400.5z"/>
							<path style="fill:#191E23;" d="M-1017.753,400.5h-7.379l0.256-1.473l5.234-4.466c1.169-0.992,1.729-1.713,1.729-2.721
								c0-1.041-0.768-1.665-1.856-1.665c-1.2,0-2.033,0.769-2.369,1.889l-1.408-0.352c0.592-1.761,2.017-2.834,3.857-2.834
								c1.921,0,3.329,1.089,3.329,2.85s-0.912,2.625-2.465,3.922l-4.146,3.473h5.458L-1017.753,400.5z"/>
						</g>
					</g>
				</g>
				<g>
					<rect x="-1047.53" y="378.75" style="fill:#191E23;" width="57.03" height="1.5"/>
				</g>
			</g>
			<g>
				<path style="fill:#191E23;" d="M-1058.781,402.75c-0.328,0-0.622-0.215-0.718-0.534l-6.59-21.966h-3.442
					c-0.414,0-0.75-0.336-0.75-0.75s0.336-0.75,0.75-0.75h4c0.331,0,0.623,0.217,0.718,0.534l5.701,19.005l5.59-48.874
					c0.043-0.379,0.364-0.665,0.745-0.665h70.275c0.414,0,0.75,0.336,0.75,0.75s-0.336,0.75-0.75,0.75h-69.606l-5.929,51.835
					c-0.041,0.354-0.324,0.631-0.679,0.662C-1058.736,402.749-1058.759,402.75-1058.781,402.75z"/>
			</g>
		</g>
	</g>
</g>
<g id="nyt_x5F_exporter_x5F_info" style="display:none;">
</g>
</svg>
