<?xml version="1.0" encoding="iso-8859-1"?>
<!-- Generator: Adobe Illustrator 16.0.3, SVG Export Plug-In . SVG Version: 6.00 Build 0)  -->
<!DOCTYPE svg PUBLIC "-//W3C//DTD SVG 1.1//EN" "http://www.w3.org/Graphics/SVG/1.1/DTD/svg11.dtd">
<svg version="1.1" xmlns="http://www.w3.org/2000/svg" xmlns:xlink="http://www.w3.org/1999/xlink" x="0px" y="0px" width="280px"
	 height="150px" viewBox="38.5 474.5 280 150" style="enable-background:new 38.5 474.5 280 150;" xml:space="preserve">
<g id="Layer_1">
	<g id="New_Symbol_2">
	</g>
	<g id="New_Symbol_3_">
	</g>
	<g id="New_Symbol_2_">
	</g>
	<g id="New_Symbol_1_">
	</g>
	<g id="New_Symbol">
	</g>
	<g>
		<g>
			<g>
				<g>
					<g>
						<g>
							<g>
								<g>
									<g>
										<g>
											<g>
												<g>
													<g>
														<g>
															<g>
																<g id="Layer_1_34_">
																	<g>
																		<g>
																			<g>
																				<g>
																					<g>
																						<g>
																							<g>
																								<g>
																									<g style="opacity:0;">
																										<rect x="38.5" y="474.5" style="fill:#FFFFFF;" width="280" height="150"/>
																									</g>
																								</g>
																							</g>
																						</g>
																					</g>
																				</g>
																			</g>
																		</g>
																	</g>
																</g>
															</g>
														</g>
													</g>
												</g>
											</g>
										</g>
									</g>
								</g>
							</g>
						</g>
					</g>
				</g>
			</g>
			<g>
				<g>
					<g>
						<g>
							<path style="fill:#B4B4B4;" d="M187.077,589.408l-0.238,1.359h-1.513l2.261-12.851h1.581l-1.104,6.085h0.033
								c0.578-0.866,1.684-1.513,2.924-1.513c2.125,0,3.519,1.411,3.519,3.484c0,2.754-1.921,4.998-4.572,4.998
								c-1.173,0-2.346-0.562-2.855-1.563H187.077z M190.681,583.798c-1.802,0-3.195,1.615-3.195,3.536
								c0,1.359,0.9,2.346,2.312,2.346c1.887,0,3.128-1.581,3.128-3.553C192.925,584.818,192.126,583.798,190.681,583.798z"/>
						</g>
					</g>
					<g>
						<g>
							<path style="fill:#FABE00;" d="M187.077,589.408l-0.238,1.359h-1.513l2.261-12.851h1.581l-1.104,6.085h0.033
								c0.578-0.866,1.684-1.513,2.924-1.513c2.125,0,3.519,1.411,3.519,3.484c0,2.754-1.921,4.998-4.572,4.998
								c-1.173,0-2.346-0.562-2.855-1.563H187.077z M190.681,583.798c-1.802,0-3.195,1.615-3.195,3.536
								c0,1.359,0.9,2.346,2.312,2.346c1.887,0,3.128-1.581,3.128-3.553C192.925,584.818,192.126,583.798,190.681,583.798z"/>
							<path style="fill:#FABE00;" d="M187.077,589.408l-0.238,1.359h-1.513l2.261-12.851h1.581l-1.104,6.085h0.033
								c0.578-0.866,1.684-1.513,2.924-1.513c2.125,0,3.519,1.411,3.519,3.484c0,2.754-1.921,4.998-4.572,4.998
								c-1.173,0-2.346-0.562-2.855-1.563H187.077z M190.681,583.798c-1.802,0-3.195,1.615-3.195,3.536
								c0,1.359,0.9,2.346,2.312,2.346c1.887,0,3.128-1.581,3.128-3.553C192.925,584.818,192.126,583.798,190.681,583.798z"/>
						</g>
					</g>
				</g>
				<g>
					<g>
						<g>
							<path style="fill:#B4B4B4;" d="M127.255,537.936c0,0.272-0.017,0.527-0.067,0.816l-0.885,4.98h-1.58l0.781-4.453
								c0.068-0.307,0.103-0.612,0.103-0.901c0-0.918-0.392-1.581-1.564-1.581c-1.274,0-2.277,1.054-2.566,2.669l-0.748,4.267
								h-1.581l2.261-12.851h1.581l-1.054,6.018h0.034c0.51-0.816,1.444-1.445,2.601-1.445
								C126.32,535.454,127.255,536.508,127.255,537.936z"/>
						</g>
					</g>
					<g>
						<g>
							<path style="fill:#C8C8C8;" d="M127.255,537.936c0,0.272-0.017,0.527-0.067,0.816l-0.885,4.98h-1.58l0.781-4.453
								c0.068-0.307,0.103-0.612,0.103-0.901c0-0.918-0.392-1.581-1.564-1.581c-1.274,0-2.277,1.054-2.566,2.669l-0.748,4.267
								h-1.581l2.261-12.851h1.581l-1.054,6.018h0.034c0.51-0.816,1.444-1.445,2.601-1.445
								C126.32,535.454,127.255,536.508,127.255,537.936z"/>
							<path style="fill:#C8C8C8;" d="M127.255,537.936c0,0.272-0.017,0.527-0.067,0.816l-0.885,4.98h-1.58l0.781-4.453
								c0.068-0.307,0.103-0.612,0.103-0.901c0-0.918-0.392-1.581-1.564-1.581c-1.274,0-2.277,1.054-2.566,2.669l-0.748,4.267
								h-1.581l2.261-12.851h1.581l-1.054,6.018h0.034c0.51-0.816,1.444-1.445,2.601-1.445
								C126.32,535.454,127.255,536.508,127.255,537.936z"/>
						</g>
					</g>
				</g>
				<g>
					<g>
						<g>
							<path style="fill:#B4B4B4;" d="M119.178,551.697c0,0.272-0.034,0.527-0.085,0.816l-0.884,4.98h-1.564l0.782-4.453
								c0.051-0.307,0.085-0.612,0.085-0.901c0-0.918-0.391-1.598-1.547-1.598c-1.479,0-2.193,1.343-2.414,2.601l-0.765,4.352
								h-1.581l0.85-4.776c0.052-0.272,0.085-0.527,0.085-0.748c0-0.85-0.407-1.428-1.41-1.428c-1.173,0-2.21,1.07-2.499,2.669
								l-0.748,4.283h-1.581l1.105-6.307c0.085-0.425,0.204-1.207,0.255-1.751h1.496l-0.17,1.31h0.033
								c0.562-0.867,1.445-1.53,2.635-1.53c1.105,0,2.074,0.51,2.329,1.649c0.663-1.037,1.632-1.649,2.855-1.649
								C118.242,549.216,119.178,550.27,119.178,551.697z"/>
						</g>
					</g>
					<g>
						<g>
							<path style="fill:#C8C8C8;" d="M119.178,551.697c0,0.272-0.034,0.527-0.085,0.816l-0.884,4.98h-1.564l0.782-4.453
								c0.051-0.307,0.085-0.612,0.085-0.901c0-0.918-0.391-1.598-1.547-1.598c-1.479,0-2.193,1.343-2.414,2.601l-0.765,4.352
								h-1.581l0.85-4.776c0.052-0.272,0.085-0.527,0.085-0.748c0-0.85-0.407-1.428-1.41-1.428c-1.173,0-2.21,1.07-2.499,2.669
								l-0.748,4.283h-1.581l1.105-6.307c0.085-0.425,0.204-1.207,0.255-1.751h1.496l-0.17,1.31h0.033
								c0.562-0.867,1.445-1.53,2.635-1.53c1.105,0,2.074,0.51,2.329,1.649c0.663-1.037,1.632-1.649,2.855-1.649
								C118.242,549.216,119.178,550.27,119.178,551.697z"/>
							<path style="fill:#C8C8C8;" d="M119.178,551.697c0,0.272-0.034,0.527-0.085,0.816l-0.884,4.98h-1.564l0.782-4.453
								c0.051-0.307,0.085-0.612,0.085-0.901c0-0.918-0.391-1.598-1.547-1.598c-1.479,0-2.193,1.343-2.414,2.601l-0.765,4.352
								h-1.581l0.85-4.776c0.052-0.272,0.085-0.527,0.085-0.748c0-0.85-0.407-1.428-1.41-1.428c-1.173,0-2.21,1.07-2.499,2.669
								l-0.748,4.283h-1.581l1.105-6.307c0.085-0.425,0.204-1.207,0.255-1.751h1.496l-0.17,1.31h0.033
								c0.562-0.867,1.445-1.53,2.635-1.53c1.105,0,2.074,0.51,2.329,1.649c0.663-1.037,1.632-1.649,2.855-1.649
								C118.242,549.216,119.178,550.27,119.178,551.697z"/>
						</g>
					</g>
				</g>
				<g>
					<g>
						<g>
							<path style="fill:#B4B4B4;" d="M266.632,555.858c1.173,0,2.312,0.578,2.839,1.581h0.034l0.237-1.36h1.53l-2.142,12.138
								h-1.581l0.985-5.372h-0.033c-0.578,0.884-1.7,1.496-2.941,1.496c-2.125,0-3.519-1.411-3.519-3.484
								C262.042,558.103,263.98,555.858,266.632,555.858z M265.918,563.032c1.784,0,3.195-1.615,3.195-3.536
								c0-1.359-0.918-2.346-2.312-2.346c-1.887,0-3.128,1.581-3.128,3.553C263.674,562.012,264.473,563.032,265.918,563.032z"/>
						</g>
					</g>
					<g>
						<g>
							<path style="fill:#00D2FF;" d="M266.632,555.858c1.173,0,2.312,0.578,2.839,1.581h0.034l0.237-1.36h1.53l-2.142,12.138
								h-1.581l0.985-5.372h-0.033c-0.578,0.884-1.7,1.496-2.941,1.496c-2.125,0-3.519-1.411-3.519-3.484
								C262.042,558.103,263.98,555.858,266.632,555.858z M265.918,563.032c1.784,0,3.195-1.615,3.195-3.536
								c0-1.359-0.918-2.346-2.312-2.346c-1.887,0-3.128,1.581-3.128,3.553C263.674,562.012,264.473,563.032,265.918,563.032z"/>
							<path style="fill:#00D2FF;" d="M266.632,555.858c1.173,0,2.312,0.578,2.839,1.581h0.034l0.237-1.36h1.53l-2.142,12.138
								h-1.581l0.985-5.372h-0.033c-0.578,0.884-1.7,1.496-2.941,1.496c-2.125,0-3.519-1.411-3.519-3.484
								C262.042,558.103,263.98,555.858,266.632,555.858z M265.918,563.032c1.784,0,3.195-1.615,3.195-3.536
								c0-1.359-0.918-2.346-2.312-2.346c-1.887,0-3.128,1.581-3.128,3.553C263.674,562.012,264.473,563.032,265.918,563.032z"/>
						</g>
					</g>
				</g>
				<g>
					<g>
						<g>
							<path style="fill:#B4B4B4;" d="M257.516,552.265c0.595,0.781,1.648,1.292,2.771,1.292c2.125,0,2.924-1.31,3.264-2.975
								l0.204-1.071h-0.034c-0.646,0.884-1.7,1.428-2.906,1.428c-2.143,0-3.502-1.462-3.502-3.502c0-2.686,1.921-4.861,4.572-4.861
								c1.309,0,2.346,0.578,2.771,1.53h0.052l0.221-1.31h1.529l-1.343,7.667c-0.407,2.312-1.444,4.471-4.844,4.471
								c-1.445,0-2.976-0.562-3.808-1.53L257.516,552.265z M261.204,549.646c1.818,0,3.161-1.598,3.161-3.45
								c0-1.326-0.9-2.329-2.312-2.329c-1.87,0-3.128,1.462-3.128,3.451C258.926,548.609,259.742,549.646,261.204,549.646z"/>
						</g>
					</g>
					<g>
						<g>
							<path style="fill:#C8C8C8;" d="M257.516,552.265c0.595,0.781,1.648,1.292,2.771,1.292c2.125,0,2.924-1.31,3.264-2.975
								l0.204-1.071h-0.034c-0.646,0.884-1.7,1.428-2.906,1.428c-2.143,0-3.502-1.462-3.502-3.502c0-2.686,1.921-4.861,4.572-4.861
								c1.309,0,2.346,0.578,2.771,1.53h0.052l0.221-1.31h1.529l-1.343,7.667c-0.407,2.312-1.444,4.471-4.844,4.471
								c-1.445,0-2.976-0.562-3.808-1.53L257.516,552.265z M261.204,549.646c1.818,0,3.161-1.598,3.161-3.45
								c0-1.326-0.9-2.329-2.312-2.329c-1.87,0-3.128,1.462-3.128,3.451C258.926,548.609,259.742,549.646,261.204,549.646z"/>
							<path style="fill:#C8C8C8;" d="M257.516,552.265c0.595,0.781,1.648,1.292,2.771,1.292c2.125,0,2.924-1.31,3.264-2.975
								l0.204-1.071h-0.034c-0.646,0.884-1.7,1.428-2.906,1.428c-2.143,0-3.502-1.462-3.502-3.502c0-2.686,1.921-4.861,4.572-4.861
								c1.309,0,2.346,0.578,2.771,1.53h0.052l0.221-1.31h1.529l-1.343,7.667c-0.407,2.312-1.444,4.471-4.844,4.471
								c-1.445,0-2.976-0.562-3.808-1.53L257.516,552.265z M261.204,549.646c1.818,0,3.161-1.598,3.161-3.45
								c0-1.326-0.9-2.329-2.312-2.329c-1.87,0-3.128,1.462-3.128,3.451C258.926,548.609,259.742,549.646,261.204,549.646z"/>
						</g>
					</g>
				</g>
				<g>
					<g>
						<g>
							<path style="fill:#B4B4B4;" d="M191.99,507.211c0-0.952-0.612-1.343-1.7-1.343c-0.85,0-1.784,0.391-2.413,0.884l-0.646-1.054
								c0.85-0.681,2.091-1.105,3.281-1.105c1.529,0,2.991,0.646,2.991,2.38c0,0.204-0.034,0.595-0.068,0.816l-0.595,3.264
								c-0.102,0.629-0.187,1.376-0.187,1.818h-1.445c0-0.34,0.034-0.748,0.103-1.122h-0.034c-0.765,0.901-1.632,1.292-2.855,1.292
								c-1.105,0-2.499-0.493-2.499-2.125c0-2.617,3.195-3.076,6-3.076C191.974,507.517,191.99,507.363,191.99,507.211z
								 M191.497,508.995c-1.768,0-4.012,0.238-4.012,1.7c0,0.884,0.748,1.139,1.479,1.139c1.428,0,2.447-1.02,2.668-2.243
								l0.119-0.596H191.497z"/>
						</g>
					</g>
					<g>
						<g>
							<path style="fill:#FABE00;" d="M191.99,507.211c0-0.952-0.612-1.343-1.7-1.343c-0.85,0-1.784,0.391-2.413,0.884l-0.646-1.054
								c0.85-0.681,2.091-1.105,3.281-1.105c1.529,0,2.991,0.646,2.991,2.38c0,0.204-0.034,0.595-0.068,0.816l-0.595,3.264
								c-0.102,0.629-0.187,1.376-0.187,1.818h-1.445c0-0.34,0.034-0.748,0.103-1.122h-0.034c-0.765,0.901-1.632,1.292-2.855,1.292
								c-1.105,0-2.499-0.493-2.499-2.125c0-2.617,3.195-3.076,6-3.076C191.974,507.517,191.99,507.363,191.99,507.211z
								 M191.497,508.995c-1.768,0-4.012,0.238-4.012,1.7c0,0.884,0.748,1.139,1.479,1.139c1.428,0,2.447-1.02,2.668-2.243
								l0.119-0.596H191.497z"/>
							<path style="fill:#FABE00;" d="M191.99,507.211c0-0.952-0.612-1.343-1.7-1.343c-0.85,0-1.784,0.391-2.413,0.884l-0.646-1.054
								c0.85-0.681,2.091-1.105,3.281-1.105c1.529,0,2.991,0.646,2.991,2.38c0,0.204-0.034,0.595-0.068,0.816l-0.595,3.264
								c-0.102,0.629-0.187,1.376-0.187,1.818h-1.445c0-0.34,0.034-0.748,0.103-1.122h-0.034c-0.765,0.901-1.632,1.292-2.855,1.292
								c-1.105,0-2.499-0.493-2.499-2.125c0-2.617,3.195-3.076,6-3.076C191.974,507.517,191.99,507.363,191.99,507.211z
								 M191.497,508.995c-1.768,0-4.012,0.238-4.012,1.7c0,0.884,0.748,1.139,1.479,1.139c1.428,0,2.447-1.02,2.668-2.243
								l0.119-0.596H191.497z"/>
						</g>
					</g>
				</g>
				<g>
					<path style="fill:#C8C8C8;" d="M268.916,596.328c-0.005,0.001-0.013,0.001-0.02,0H105.924c-0.358,0-0.689-0.192-0.868-0.503
						c-0.178-0.312-0.176-0.694,0.006-1.004l45.594-77.605c0.18-0.306,0.508-0.493,0.862-0.493h81.486
						c0.39,0,0.744,0.227,0.907,0.58l35.816,77.44c0.119,0.165,0.188,0.366,0.188,0.585
						C269.916,595.881,269.469,596.328,268.916,596.328z M107.671,594.328h159.661l-34.968-75.605H152.09L107.671,594.328z"/>
				</g>
				<g>
					<path style="fill:#FABE00;" d="M233.004,518.723h-81.486c-0.553,0-1-0.447-1-1s0.447-1,1-1h81.486c0.553,0,1,0.447,1,1
						S233.557,518.723,233.004,518.723z"/>
				</g>
				<g>
					<path style="fill:#FABE00;" d="M268.896,596.328H105.924c-0.553,0-1-0.447-1-1s0.447-1,1-1h162.973c0.553,0,1,0.447,1,1
						S269.449,596.328,268.896,596.328z"/>
				</g>
				<g>
					<path style="fill:#C8C8C8;" d="M244.932,544.732H136.236c-0.553,0-1-0.447-1-1s0.447-1,1-1h108.695c0.553,0,1,0.447,1,1
						S245.484,544.732,244.932,544.732z"/>
				</g>
				<g>
					<path style="fill:#C8C8C8;" d="M247.809,550.735H132.807c-0.553,0-1-0.447-1-1s0.447-1,1-1h115.002c0.553,0,1,0.447,1,1
						S248.361,550.735,247.809,550.735z"/>
				</g>
				<g>
					<path style="fill:#C8C8C8;" d="M250.949,557.526H128.721c-0.553,0-1-0.447-1-1s0.447-1,1-1h122.229c0.553,0,1,0.447,1,1
						S251.502,557.526,250.949,557.526z"/>
				</g>
				<g>
					<path style="fill:#00D2FF;" d="M254.24,564.64H124.541c-0.553,0-1-0.447-1-1s0.447-1,1-1H254.24c0.553,0,1,0.447,1,1
						S254.793,564.64,254.24,564.64z"/>
				</g>
			</g>
		</g>
	</g>
</g>
<g id="Isolation_Mode">
</g>
<g id="nyt_x5F_exporter_x5F_info" style="display:none;">
</g>
</svg>
