<?xml version="1.0" encoding="iso-8859-1"?>
<!-- Generator: Adobe Illustrator 16.0.3, SVG Export Plug-In . SVG Version: 6.00 Build 0)  -->
<!DOCTYPE svg PUBLIC "-//W3C//DTD SVG 1.1//EN" "http://www.w3.org/Graphics/SVG/1.1/DTD/svg11.dtd">
<svg version="1.1" xmlns="http://www.w3.org/2000/svg" xmlns:xlink="http://www.w3.org/1999/xlink" x="0px" y="0px" width="280px"
	 height="150px" viewBox="-566.5 288.5 280 150" style="enable-background:new -566.5 288.5 280 150;" xml:space="preserve">
<g id="Layer_1">
	<g id="New_Symbol_2">
	</g>
	<g id="New_Symbol_3_">
	</g>
	<g id="New_Symbol_2_">
	</g>
	<g id="New_Symbol_1_">
	</g>
	<g id="New_Symbol">
	</g>
	<g>
		<g>
			<g>
				<path style="opacity:0.5;fill:#FABE00;" d="M-411.391,386.51L-426.5,402.5l-15.11-15.99c3.94-3.729,9.25-6.01,15.11-6.01
					C-420.641,380.5-415.33,382.78-411.391,386.51z"/>
				<path style="fill:#FABE00;" d="M-426.5,403.5c-0.275,0-0.538-0.113-0.727-0.313l-15.11-15.99
					c-0.379-0.401-0.361-1.033,0.04-1.413c4.281-4.052,9.892-6.283,15.798-6.283c5.907,0,11.517,2.231,15.797,6.283
					c0.401,0.38,0.418,1.013,0.04,1.413l-15.109,15.99C-425.962,403.387-426.225,403.5-426.5,403.5z M-440.181,386.566
					l13.681,14.478l13.68-14.478c-3.803-3.274-8.622-5.066-13.68-5.066S-436.377,383.292-440.181,386.566z"/>
			</g>
			<g>
				<path style="fill:#E1E1E1;" d="M-428.008,401.904c-0.265,0-0.53-0.104-0.727-0.313l-4.122-4.36
					c-0.379-0.401-0.362-1.034,0.04-1.413s1.034-0.363,1.414,0.04l4.122,4.36c0.379,0.401,0.362,1.034-0.04,1.413
					C-427.515,401.813-427.762,401.904-428.008,401.904z M-423.887,400.735c-0.247,0-0.494-0.091-0.687-0.273
					c-0.401-0.379-0.419-1.012-0.04-1.413l4.122-4.36c0.379-0.401,1.012-0.42,1.414-0.04c0.401,0.379,0.419,1.012,0.04,1.413
					l-4.122,4.36C-423.356,400.63-423.622,400.735-423.887,400.735z M-436.251,393.184c-0.265,0-0.53-0.104-0.727-0.313l-4.122-4.36
					c-0.379-0.401-0.362-1.034,0.04-1.413c0.401-0.379,1.034-0.363,1.414,0.04l4.122,4.36c0.379,0.401,0.362,1.034-0.04,1.413
					C-435.758,393.093-436.005,393.184-436.251,393.184z M-415.644,392.015c-0.247,0-0.494-0.091-0.687-0.273
					c-0.401-0.379-0.419-1.012-0.04-1.413l4.122-4.36c0.38-0.401,1.012-0.419,1.414-0.04s0.419,1.012,0.04,1.413l-4.122,4.36
					C-415.114,391.909-415.378,392.015-415.644,392.015z M-444.495,384.463c-0.265,0-0.53-0.104-0.727-0.313l-4.122-4.36
					c-0.379-0.401-0.362-1.034,0.04-1.413c0.401-0.379,1.034-0.363,1.414,0.04l4.122,4.36c0.379,0.401,0.362,1.034-0.04,1.413
					C-444.001,384.372-444.249,384.463-444.495,384.463z M-407.4,383.295c-0.247,0-0.494-0.091-0.687-0.273
					c-0.401-0.379-0.419-1.012-0.04-1.413l4.122-4.36c0.378-0.402,1.013-0.419,1.414-0.04c0.401,0.379,0.419,1.012,0.04,1.413
					l-4.122,4.36C-406.87,383.189-407.135,383.295-407.4,383.295z M-452.738,375.742c-0.265,0-0.53-0.104-0.727-0.313l-4.122-4.36
					c-0.379-0.401-0.362-1.034,0.04-1.413c0.401-0.38,1.034-0.363,1.414,0.04l4.122,4.36c0.379,0.401,0.362,1.034-0.04,1.413
					C-452.245,375.651-452.492,375.742-452.738,375.742z M-399.157,374.574c-0.247,0-0.494-0.091-0.687-0.273
					c-0.401-0.379-0.419-1.012-0.04-1.413l4.122-4.36c0.379-0.401,1.012-0.419,1.414-0.04s0.419,1.012,0.04,1.413l-4.122,4.36
					C-398.626,374.469-398.892,374.574-399.157,374.574z M-460.981,367.022c-0.265,0-0.53-0.104-0.727-0.313l-4.122-4.36
					c-0.379-0.401-0.362-1.034,0.04-1.413s1.034-0.363,1.414,0.04l4.122,4.36c0.379,0.401,0.362,1.034-0.04,1.413
					C-460.488,366.932-460.735,367.022-460.981,367.022z M-390.914,365.854c-0.247,0-0.494-0.091-0.687-0.273
					c-0.401-0.379-0.419-1.012-0.04-1.413l4.122-4.36c0.38-0.401,1.012-0.419,1.414-0.04s0.419,1.012,0.04,1.413l-4.122,4.36
					C-390.384,365.748-390.648,365.854-390.914,365.854z M-469.225,358.302c-0.265,0-0.53-0.104-0.727-0.313l-4.122-4.36
					c-0.379-0.401-0.362-1.034,0.04-1.413s1.034-0.363,1.414,0.04l4.122,4.36c0.379,0.401,0.362,1.034-0.04,1.413
					C-468.731,358.211-468.978,358.302-469.225,358.302z M-382.67,357.133c-0.247,0-0.494-0.091-0.687-0.273
					c-0.401-0.379-0.419-1.012-0.04-1.413l4.122-4.36c0.379-0.401,1.012-0.42,1.414-0.04c0.401,0.379,0.419,1.012,0.04,1.413
					l-4.122,4.36C-382.14,357.027-382.405,357.133-382.67,357.133z M-477.468,349.581c-0.265,0-0.53-0.104-0.727-0.313l-4.122-4.36
					c-0.379-0.401-0.362-1.034,0.04-1.413s1.034-0.363,1.414,0.04l4.122,4.36c0.379,0.401,0.362,1.034-0.04,1.413
					C-476.975,349.49-477.222,349.581-477.468,349.581z M-374.427,348.412c-0.247,0-0.494-0.091-0.687-0.273
					c-0.401-0.379-0.419-1.012-0.04-1.413l4.122-4.36c0.379-0.401,1.012-0.419,1.414-0.04s0.419,1.012,0.04,1.413l-4.122,4.36
					C-373.896,348.307-374.162,348.412-374.427,348.412z M-485.711,340.86c-0.265,0-0.53-0.104-0.727-0.313l-4.122-4.36
					c-0.379-0.401-0.362-1.034,0.04-1.413s1.034-0.363,1.414,0.04l4.122,4.36c0.379,0.401,0.362,1.034-0.04,1.413
					C-485.218,340.77-485.465,340.86-485.711,340.86z M-366.183,339.692c-0.247,0-0.494-0.091-0.687-0.273
					c-0.401-0.379-0.419-1.012-0.04-1.413l3.017-3.192c0.379-0.401,1.012-0.419,1.414-0.04s0.419,1.012,0.04,1.413l-3.017,3.192
					C-365.653,339.587-365.918,339.692-366.183,339.692z"/>
			</g>
			<g>
				<g>
					<path d="M-509.052,326.5h-1.841l7.348-11.333h1.424l2.306,11.333h-1.648l-0.545-2.785h-5.313L-509.052,326.5z
						 M-506.507,322.322h4.274l-0.961-5.378L-506.507,322.322z"/>
				</g>
			</g>
			<g>
				<g>
					<path d="M-443.3,417.891c0-3.874,2.849-7.012,6.595-7.012c3.089,0,5.202,1.905,5.202,4.883c0,3.873-2.77,7.026-6.547,7.026
						C-441.203,422.788-443.3,420.884-443.3,417.891z M-436.785,412.224c-2.962,0-4.882,2.737-4.882,5.522
						c0,2.017,1.28,3.682,3.649,3.682c2.993,0,4.882-2.705,4.882-5.522C-433.136,413.872-434.433,412.224-436.785,412.224z"/>
				</g>
			</g>
			<g>
				<g>
					<path d="M-422.954,366.06c-0.624,0.944-1.601,1.616-2.816,1.616c-1.521,0-2.529-1.12-2.529-2.833
						c0-2.978,2.032-5.266,4.098-5.266c1.232,0,1.889,0.688,2.112,1.536h0.064c0.145-0.608,0.272-0.992,0.4-1.36h1.12
						c-0.112,0.368-0.288,1.12-0.448,1.824c-0.256,1.153-0.528,2.449-0.736,3.506c-0.208,1.089-0.08,1.537,0.48,1.521l-0.272,1.024
						c-0.128,0.032-0.256,0.048-0.432,0.048c-0.624,0-1.089-0.479-0.992-1.616H-422.954z M-426.939,364.65
						c0,1.121,0.561,1.938,1.648,1.938c1.024,0,1.938-1.057,2.337-2.081c0.145-0.32,0.208-0.641,0.288-1.072
						c0.064-0.32,0.097-0.656,0.097-0.944c0-0.961-0.545-1.857-1.617-1.857c-1.36,0-2.753,1.857-2.753,4.002V364.65z"/>
				</g>
			</g>
			<g>
				<g>
					<path d="M-381.772,326.5h-1.841l7.348-11.333h1.424l2.306,11.333h-1.648l-0.545-2.785h-5.313L-381.772,326.5z
						 M-379.228,322.322h4.274l-0.961-5.378L-379.228,322.322z"/>
				</g>
				<g>
					<path d="M-370.044,319.153h-1.248l1.809-3.986h1.473L-370.044,319.153z"/>
				</g>
			</g>
			<g>
				<path style="fill:#FFFFFF;" d="M-363.166,338.5c-1.654,0-3-1.346-3-2.999c0-1.654,1.346-3.001,3-3.001s3,1.347,3,3.001
					C-360.166,337.154-361.512,338.5-363.166,338.5z"/>
				<path style="fill:#00D2FF;" d="M-363.166,333.5c1.104,0,2,0.896,2,2.001c0,1.104-0.896,1.999-2,1.999c-1.105,0-2-0.896-2-1.999
					C-365.166,334.396-364.271,333.5-363.166,333.5 M-363.166,331.5c-2.206,0-4,1.795-4,4.001c0,2.205,1.794,3.999,4,3.999
					s4-1.794,4-3.999C-359.166,333.295-360.96,331.5-363.166,331.5L-363.166,331.5z"/>
			</g>
			<g>
				<g>
					<g>
						<g>
							<g>
								<g>
									<g>
										<g>
											<g>
												<g>
													<g>
														<g>
															<g id="Layer_1_91_">
																<g>
																	<g>
																		<g>
																			<g>
																				<g>
																					<g>
																						<g>
																							<g>
																								<g style="opacity:0;">
																									<rect x="-566.5" y="288.5" style="fill:#FFFFFF;" width="280" height="150"/>
																								</g>
																							</g>
																						</g>
																					</g>
																				</g>
																			</g>
																		</g>
																	</g>
																</g>
															</g>
														</g>
													</g>
												</g>
											</g>
										</g>
									</g>
								</g>
							</g>
						</g>
					</g>
				</g>
				<g>
					<circle style="fill:#C8C8C8;" cx="-426.5" cy="402.5" r="3"/>
				</g>
				<g>
					<circle style="fill:#FFFFFF;" cx="-489.833" cy="335.5" r="3"/>
					<path style="fill:#FABE00;" d="M-489.833,333.5c1.104,0,2,0.896,2,2s-0.896,2-2,2s-2-0.896-2-2S-490.938,333.5-489.833,333.5
						 M-489.833,331.5c-2.206,0-4,1.794-4,4s1.794,4,4,4s4-1.794,4-4S-487.627,331.5-489.833,331.5L-489.833,331.5z"/>
				</g>
			</g>
		</g>
	</g>
</g>
<g id="Isolation_Mode">
</g>
<g id="nyt_x5F_exporter_x5F_info" style="display:none;">
	<g style="display:inline;">
		<path d="M-454.708,300.986l5.565-2.867v0.828l-4.689,2.351v0.023l4.689,2.352v0.827l-5.565-2.866V300.986z"/>
		<path d="M-447.473,300.267c0-0.6-0.012-1.092-0.048-1.571h0.936l0.06,0.959h0.024c0.288-0.552,0.959-1.091,1.919-1.091
			c0.803,0,2.051,0.479,2.051,2.471v3.466h-1.056v-3.346c0-0.936-0.348-1.716-1.343-1.716c-0.695,0-1.235,0.492-1.415,1.08
			c-0.048,0.132-0.072,0.312-0.072,0.491v3.49h-1.056V300.267z"/>
		<path d="M-440.584,298.695l1.271,3.43c0.132,0.384,0.276,0.84,0.372,1.188h0.024c0.108-0.348,0.228-0.791,0.372-1.211l1.151-3.406
			h1.115l-1.583,4.138c-0.756,1.991-1.271,3.011-1.991,3.634c-0.516,0.456-1.031,0.636-1.295,0.684l-0.264-0.888
			c0.264-0.084,0.612-0.252,0.924-0.516c0.288-0.228,0.647-0.636,0.887-1.175c0.048-0.108,0.084-0.192,0.084-0.252
			c0-0.061-0.024-0.145-0.072-0.276l-2.147-5.349H-440.584z"/>
		<path d="M-434.045,297.028v1.667h1.511v0.804h-1.511v3.13c0,0.72,0.204,1.128,0.792,1.128c0.276,0,0.479-0.036,0.612-0.072
			l0.048,0.791c-0.204,0.084-0.528,0.145-0.936,0.145c-0.492,0-0.888-0.156-1.14-0.444c-0.3-0.312-0.408-0.827-0.408-1.511v-3.166
			h-0.899v-0.804h0.899v-1.392L-434.045,297.028z"/>
		<path d="M-426.224,305.399v0.6h-5.997v-0.6H-426.224z"/>
		<path d="M-425.345,300.59c0-0.743-0.024-1.343-0.048-1.895h0.947l0.048,0.995h0.024c0.432-0.707,1.115-1.127,2.063-1.127
			c1.403,0,2.459,1.188,2.459,2.95c0,2.087-1.271,3.118-2.639,3.118c-0.768,0-1.439-0.336-1.787-0.911h-0.024v3.154h-1.043V300.59z
			 M-424.301,302.138c0,0.155,0.024,0.3,0.048,0.432c0.192,0.731,0.828,1.235,1.583,1.235c1.115,0,1.763-0.912,1.763-2.243
			c0-1.163-0.611-2.159-1.727-2.159c-0.72,0-1.391,0.517-1.595,1.308c-0.036,0.132-0.072,0.288-0.072,0.432V302.138z"/>
		<path d="M-418.517,300.506c0-0.684-0.012-1.271-0.048-1.811h0.923l0.036,1.14h0.048c0.264-0.78,0.899-1.271,1.607-1.271
			c0.12,0,0.204,0.012,0.3,0.036v0.995c-0.108-0.024-0.216-0.036-0.36-0.036c-0.744,0-1.271,0.563-1.416,1.355
			c-0.024,0.144-0.048,0.312-0.048,0.491v3.095h-1.043V300.506z"/>
		<path d="M-414.125,301.789c0.024,1.428,0.936,2.016,1.991,2.016c0.755,0,1.211-0.132,1.607-0.3l0.18,0.755
			c-0.372,0.168-1.007,0.36-1.931,0.36c-1.787,0-2.854-1.176-2.854-2.927s1.032-3.13,2.723-3.13c1.895,0,2.399,1.667,2.399,2.734
			c0,0.216-0.024,0.384-0.036,0.491H-414.125z M-411.031,301.034c0.012-0.672-0.276-1.716-1.463-1.716
			c-1.067,0-1.535,0.984-1.619,1.716H-411.031z"/>
		<path d="M-408.593,304.5v-5.001h-0.815v-0.804h0.815v-0.276c0-0.815,0.18-1.559,0.672-2.026c0.396-0.384,0.923-0.54,1.415-0.54
			c0.372,0,0.696,0.084,0.899,0.168l-0.144,0.815c-0.156-0.071-0.372-0.132-0.671-0.132c-0.899,0-1.127,0.792-1.127,1.68v0.312
			h1.403v0.804h-1.403v5.001H-408.593z"/>
		<path d="M-405.449,303.421c0.312,0.203,0.864,0.42,1.392,0.42c0.768,0,1.127-0.384,1.127-0.864c0-0.504-0.3-0.779-1.079-1.067
			c-1.043-0.371-1.535-0.947-1.535-1.643c0-0.936,0.755-1.703,2.003-1.703c0.587,0,1.103,0.168,1.427,0.359l-0.264,0.768
			c-0.228-0.144-0.647-0.336-1.187-0.336c-0.624,0-0.972,0.36-0.972,0.792c0,0.479,0.348,0.695,1.104,0.983
			c1.007,0.384,1.523,0.888,1.523,1.751c0,1.02-0.792,1.739-2.171,1.739c-0.635,0-1.223-0.156-1.631-0.396L-405.449,303.421z"/>
		<path d="M-395.072,301.646l-5.565,2.854v-0.827l4.726-2.352v-0.023l-4.726-2.351v-0.828l5.565,2.854V301.646z"/>
		<path d="M-449.621,315.387l5.565-2.867v0.828l-4.689,2.351v0.023l4.689,2.352v0.827l-5.565-2.866V315.387z"/>
		<path d="M-442.385,314.667c0-0.6-0.012-1.092-0.048-1.571h0.936l0.06,0.959h0.024c0.288-0.552,0.959-1.091,1.919-1.091
			c0.803,0,2.051,0.479,2.051,2.471v3.466h-1.056v-3.346c0-0.936-0.348-1.716-1.343-1.716c-0.695,0-1.235,0.492-1.415,1.08
			c-0.048,0.132-0.072,0.312-0.072,0.491v3.49h-1.056V314.667z"/>
		<path d="M-435.497,313.096l1.271,3.43c0.132,0.384,0.276,0.84,0.372,1.188h0.024c0.108-0.348,0.228-0.791,0.372-1.211l1.151-3.406
			h1.115l-1.583,4.138c-0.756,1.991-1.271,3.011-1.991,3.634c-0.516,0.456-1.031,0.636-1.295,0.684l-0.264-0.888
			c0.264-0.084,0.612-0.252,0.924-0.516c0.288-0.228,0.647-0.636,0.887-1.175c0.048-0.108,0.084-0.192,0.084-0.252
			c0-0.061-0.024-0.145-0.072-0.276l-2.147-5.349H-435.497z"/>
		<path d="M-428.958,311.429v1.667h1.511v0.804h-1.511v3.13c0,0.72,0.204,1.128,0.792,1.128c0.276,0,0.479-0.036,0.611-0.072
			l0.048,0.791c-0.204,0.084-0.528,0.145-0.936,0.145c-0.492,0-0.888-0.156-1.14-0.444c-0.3-0.312-0.408-0.827-0.408-1.511v-3.166
			h-0.899v-0.804h0.899v-1.392L-428.958,311.429z"/>
		<path d="M-421.136,319.8v0.6h-5.997v-0.6H-421.136z"/>
		<path d="M-420.257,314.99c0-0.743-0.024-1.343-0.048-1.895h0.947l0.048,0.995h0.024c0.432-0.707,1.115-1.127,2.063-1.127
			c1.403,0,2.459,1.188,2.459,2.95c0,2.087-1.271,3.118-2.639,3.118c-0.768,0-1.439-0.336-1.787-0.911h-0.024v3.154h-1.043V314.99z
			 M-419.213,316.538c0,0.155,0.024,0.3,0.048,0.432c0.192,0.731,0.828,1.235,1.583,1.235c1.115,0,1.763-0.912,1.763-2.243
			c0-1.163-0.611-2.159-1.727-2.159c-0.72,0-1.391,0.517-1.595,1.308c-0.036,0.132-0.072,0.288-0.072,0.432V316.538z"/>
		<path d="M-413.429,314.906c0-0.684-0.012-1.271-0.048-1.811h0.923l0.036,1.14h0.048c0.264-0.78,0.899-1.271,1.607-1.271
			c0.12,0,0.204,0.012,0.3,0.036v0.995c-0.108-0.024-0.216-0.036-0.36-0.036c-0.744,0-1.271,0.563-1.416,1.355
			c-0.024,0.144-0.048,0.312-0.048,0.491v3.095h-1.043V314.906z"/>
		<path d="M-409.037,316.189c0.024,1.428,0.936,2.016,1.991,2.016c0.755,0,1.211-0.132,1.607-0.3l0.18,0.755
			c-0.372,0.168-1.007,0.36-1.931,0.36c-1.787,0-2.854-1.176-2.854-2.927s1.032-3.13,2.723-3.13c1.895,0,2.399,1.667,2.399,2.734
			c0,0.216-0.024,0.384-0.036,0.491H-409.037z M-405.943,315.435c0.012-0.672-0.276-1.716-1.463-1.716
			c-1.067,0-1.535,0.984-1.619,1.716H-405.943z"/>
		<path d="M-403.505,318.9v-5.001h-0.815v-0.804h0.815v-0.312c0-1.535,0.899-2.531,2.531-2.531c0.54,0,1.175,0.168,1.475,0.384
			l-0.3,0.804c-0.252-0.18-0.708-0.336-1.223-0.336c-1.116,0-1.439,0.779-1.439,1.703v0.288h3.37v5.805h-1.043v-5.001h-2.327v5.001
			H-403.505z"/>
		<path d="M-396.846,313.096l0.828,1.247c0.216,0.324,0.396,0.624,0.587,0.947h0.036c0.192-0.348,0.384-0.647,0.576-0.959
			l0.815-1.235h1.14l-1.979,2.807l2.039,2.998h-1.2l-0.851-1.308c-0.228-0.336-0.42-0.659-0.624-1.007h-0.024
			c-0.192,0.348-0.396,0.659-0.612,1.007l-0.839,1.308h-1.164l2.063-2.962l-1.967-2.843H-396.846z"/>
		<path d="M-392.669,319.38l3.346-8.695h0.816l-3.358,8.695H-392.669z"/>
		<path d="M-382.185,316.046l-5.565,2.854v-0.827l4.726-2.352v-0.023l-4.726-2.351v-0.828l5.565,2.854V316.046z"/>
		<path d="M-449.621,329.786l5.565-2.867v0.828l-4.689,2.351v0.023l4.689,2.352v0.827l-5.565-2.866V329.786z"/>
		<path d="M-442.385,329.066c0-0.6-0.012-1.092-0.048-1.571h0.936l0.06,0.959h0.024c0.288-0.552,0.959-1.091,1.919-1.091
			c0.803,0,2.051,0.479,2.051,2.471v3.466h-1.056v-3.346c0-0.936-0.348-1.716-1.343-1.716c-0.695,0-1.235,0.492-1.415,1.08
			c-0.048,0.132-0.072,0.312-0.072,0.491v3.49h-1.056V329.066z"/>
		<path d="M-435.497,327.495l1.271,3.43c0.132,0.384,0.276,0.84,0.372,1.188h0.024c0.108-0.348,0.228-0.791,0.372-1.211l1.151-3.406
			h1.115l-1.583,4.138c-0.756,1.991-1.271,3.01-1.991,3.634c-0.516,0.456-1.031,0.636-1.295,0.684l-0.264-0.888
			c0.264-0.084,0.612-0.252,0.924-0.516c0.288-0.228,0.647-0.636,0.887-1.175c0.048-0.108,0.084-0.192,0.084-0.252
			c0-0.061-0.024-0.145-0.072-0.276l-2.147-5.349H-435.497z"/>
		<path d="M-428.958,325.828v1.667h1.511v0.804h-1.511v3.13c0,0.72,0.204,1.128,0.792,1.128c0.276,0,0.479-0.036,0.611-0.072
			l0.048,0.791c-0.204,0.084-0.528,0.145-0.936,0.145c-0.492,0-0.888-0.156-1.14-0.444c-0.3-0.312-0.408-0.827-0.408-1.511v-3.166
			h-0.899v-0.804h0.899v-1.392L-428.958,325.828z"/>
		<path d="M-421.136,334.199v0.6h-5.997v-0.6H-421.136z"/>
		<path d="M-420.401,332.221c0.312,0.203,0.864,0.42,1.392,0.42c0.768,0,1.127-0.384,1.127-0.864c0-0.504-0.3-0.779-1.079-1.067
			c-1.043-0.371-1.535-0.947-1.535-1.643c0-0.936,0.755-1.703,2.003-1.703c0.587,0,1.103,0.168,1.427,0.359l-0.264,0.768
			c-0.228-0.144-0.647-0.336-1.187-0.336c-0.624,0-0.972,0.36-0.972,0.792c0,0.479,0.348,0.695,1.104,0.983
			c1.007,0.384,1.523,0.888,1.523,1.751c0,1.02-0.792,1.739-2.171,1.739c-0.635,0-1.223-0.156-1.631-0.396L-420.401,332.221z"/>
		<path d="M-410.647,331.717c0,0.6,0.012,1.127,0.048,1.583h-0.936l-0.06-0.947h-0.024c-0.276,0.468-0.887,1.079-1.919,1.079
			c-0.911,0-2.003-0.504-2.003-2.543v-3.394h1.056v3.214c0,1.104,0.336,1.848,1.295,1.848c0.708,0,1.199-0.492,1.391-0.96
			c0.06-0.156,0.096-0.348,0.096-0.54v-3.562h1.056V331.717z"/>
		<path d="M-401.625,325.816c-0.264-0.168-0.696-0.313-1.175-0.313c-1.116,0-1.451,0.779-1.451,1.703v0.288h3.382v5.805h-1.055
			v-5.001h-2.315v5.001h-1.055v-5.001h-2.447v5.001h-1.043v-5.001h-0.815v-0.804h0.815v-0.216c0-0.731,0.192-1.439,0.696-1.931
			c0.335-0.349,0.839-0.564,1.487-0.564c0.396,0,0.804,0.145,1.02,0.252l-0.288,0.78c-0.18-0.097-0.456-0.204-0.732-0.204
			c-0.335,0-0.575,0.12-0.755,0.312c-0.288,0.312-0.384,0.84-0.384,1.344v0.228h2.447v-0.312c0-1.535,0.912-2.531,2.542-2.531
			c0.528,0,1.127,0.156,1.439,0.372L-401.625,325.816z"/>
		<path d="M-398.622,327.495l0.828,1.247c0.216,0.324,0.396,0.624,0.588,0.947h0.036c0.192-0.348,0.384-0.647,0.576-0.959
			l0.815-1.235h1.14l-1.979,2.807l2.039,2.998h-1.2l-0.852-1.308c-0.228-0.336-0.419-0.659-0.624-1.007h-0.024
			c-0.192,0.348-0.396,0.659-0.612,1.007l-0.839,1.308h-1.163l2.063-2.962l-1.967-2.843H-398.622z"/>
		<path d="M-394.445,333.779l3.346-8.695h0.816l-3.358,8.695H-394.445z"/>
		<path d="M-383.96,330.445l-5.565,2.854v-0.827l4.726-2.352v-0.023l-4.726-2.351v-0.828l5.565,2.854V330.445z"/>
		<path d="M-449.621,344.187l5.565-2.867v0.828l-4.689,2.351v0.023l4.689,2.352v0.827l-5.565-2.866V344.187z"/>
		<path d="M-442.385,343.467c0-0.6-0.012-1.092-0.048-1.571h0.936l0.06,0.959h0.024c0.288-0.552,0.959-1.091,1.919-1.091
			c0.803,0,2.051,0.479,2.051,2.471v3.466h-1.056v-3.346c0-0.936-0.348-1.716-1.343-1.716c-0.695,0-1.235,0.492-1.415,1.08
			c-0.048,0.132-0.072,0.312-0.072,0.491v3.49h-1.056V343.467z"/>
		<path d="M-435.497,341.896l1.271,3.43c0.132,0.384,0.276,0.84,0.372,1.188h0.024c0.108-0.348,0.228-0.791,0.372-1.211l1.151-3.406
			h1.115l-1.583,4.138c-0.756,1.991-1.271,3.01-1.991,3.634c-0.516,0.456-1.031,0.636-1.295,0.684l-0.264-0.888
			c0.264-0.084,0.612-0.252,0.924-0.516c0.288-0.228,0.647-0.636,0.887-1.175c0.048-0.108,0.084-0.192,0.084-0.252
			c0-0.061-0.024-0.145-0.072-0.276l-2.147-5.349H-435.497z"/>
		<path d="M-428.958,340.229v1.667h1.511v0.804h-1.511v3.13c0,0.72,0.204,1.128,0.792,1.128c0.276,0,0.479-0.036,0.611-0.072
			l0.048,0.791c-0.204,0.084-0.528,0.145-0.936,0.145c-0.492,0-0.888-0.156-1.14-0.444c-0.3-0.312-0.408-0.827-0.408-1.511v-3.166
			h-0.899v-0.804h0.899v-1.392L-428.958,340.229z"/>
		<path d="M-421.136,348.6v0.6h-5.997v-0.6H-421.136z"/>
		<path d="M-420.305,347.7c0.024-0.396,0.048-0.983,0.048-1.499v-7.017h1.043v3.646h0.024c0.372-0.647,1.043-1.067,1.979-1.067
			c1.439,0,2.458,1.199,2.447,2.962c0,2.075-1.308,3.106-2.603,3.106c-0.84,0-1.511-0.324-1.943-1.092h-0.036l-0.048,0.96H-420.305z
			 M-419.213,345.373c0,0.133,0.024,0.265,0.048,0.384c0.204,0.732,0.816,1.235,1.583,1.235c1.103,0,1.763-0.899,1.763-2.23
			c0-1.163-0.6-2.159-1.727-2.159c-0.72,0-1.391,0.492-1.607,1.296c-0.024,0.12-0.06,0.264-0.06,0.432V345.373z"/>
		<path d="M-410.215,347.7l-0.084-0.731h-0.036c-0.324,0.456-0.947,0.863-1.775,0.863c-1.175,0-1.775-0.827-1.775-1.667
			c0-1.403,1.247-2.171,3.49-2.159v-0.119c0-0.48-0.132-1.344-1.319-1.344c-0.54,0-1.104,0.168-1.511,0.432l-0.24-0.695
			c0.48-0.312,1.175-0.516,1.907-0.516c1.775,0,2.207,1.211,2.207,2.374v2.171c0,0.504,0.024,0.996,0.096,1.392H-410.215z
			 M-410.371,344.738c-1.151-0.024-2.458,0.18-2.458,1.307c0,0.684,0.456,1.008,0.996,1.008c0.755,0,1.235-0.479,1.403-0.972
			c0.036-0.108,0.06-0.228,0.06-0.336V344.738z"/>
		<path d="M-407.789,346.621c0.312,0.203,0.864,0.42,1.392,0.42c0.768,0,1.127-0.384,1.127-0.864c0-0.504-0.3-0.779-1.079-1.067
			c-1.043-0.371-1.535-0.947-1.535-1.643c0-0.936,0.755-1.703,2.003-1.703c0.587,0,1.104,0.168,1.427,0.359l-0.264,0.768
			c-0.228-0.144-0.647-0.336-1.187-0.336c-0.624,0-0.972,0.36-0.972,0.792c0,0.479,0.348,0.695,1.104,0.983
			c1.007,0.384,1.523,0.888,1.523,1.751c0,1.02-0.792,1.739-2.171,1.739c-0.635,0-1.223-0.156-1.631-0.396L-407.789,346.621z"/>
		<path d="M-402.305,344.989c0.024,1.428,0.935,2.016,1.991,2.016c0.755,0,1.211-0.132,1.607-0.3l0.18,0.755
			c-0.372,0.168-1.007,0.36-1.931,0.36c-1.787,0-2.854-1.176-2.854-2.927s1.032-3.13,2.723-3.13c1.895,0,2.399,1.667,2.399,2.734
			c0,0.216-0.024,0.384-0.036,0.491H-402.305z M-399.211,344.234c0.012-0.672-0.276-1.715-1.463-1.715
			c-1.067,0-1.535,0.983-1.619,1.715H-399.211z"/>
		<path d="M-391.76,348.6v0.6h-5.997v-0.6H-391.76z"/>
		<path d="M-390.881,343.79c0-0.743-0.024-1.343-0.048-1.895h0.947l0.048,0.995h0.024c0.432-0.707,1.115-1.127,2.063-1.127
			c1.403,0,2.459,1.188,2.459,2.95c0,2.087-1.271,3.118-2.639,3.118c-0.768,0-1.439-0.336-1.787-0.911h-0.024v3.154h-1.043V343.79z
			 M-389.838,345.338c0,0.155,0.024,0.3,0.048,0.432c0.192,0.731,0.828,1.235,1.583,1.235c1.116,0,1.763-0.912,1.763-2.243
			c0-1.163-0.612-2.159-1.727-2.159c-0.72,0-1.391,0.517-1.595,1.308c-0.036,0.132-0.072,0.288-0.072,0.432V345.338z"/>
		<path d="M-380.839,347.7l-0.084-0.731h-0.036c-0.324,0.456-0.947,0.863-1.775,0.863c-1.175,0-1.775-0.827-1.775-1.667
			c0-1.403,1.247-2.171,3.49-2.159v-0.119c0-0.48-0.132-1.344-1.319-1.344c-0.54,0-1.104,0.168-1.511,0.432l-0.24-0.695
			c0.48-0.312,1.175-0.516,1.907-0.516c1.775,0,2.207,1.211,2.207,2.374v2.171c0,0.504,0.024,0.996,0.096,1.392H-380.839z
			 M-380.995,344.738c-1.151-0.024-2.458,0.18-2.458,1.307c0,0.684,0.456,1.008,0.996,1.008c0.755,0,1.235-0.479,1.403-0.972
			c0.036-0.108,0.06-0.228,0.06-0.336V344.738z"/>
		<path d="M-377.046,340.229v1.667h1.511v0.804h-1.511v3.13c0,0.72,0.204,1.128,0.792,1.128c0.276,0,0.479-0.036,0.612-0.072
			l0.048,0.791c-0.204,0.084-0.528,0.145-0.936,0.145c-0.492,0-0.888-0.156-1.14-0.444c-0.3-0.312-0.408-0.827-0.408-1.511v-3.166
			h-0.899v-0.804h0.899v-1.392L-377.046,340.229z"/>
		<path d="M-374.346,339.185h1.056v3.622h0.024c0.168-0.3,0.432-0.563,0.755-0.743c0.312-0.18,0.684-0.3,1.08-0.3
			c0.779,0,2.027,0.479,2.027,2.482v3.454h-1.056v-3.334c0-0.936-0.348-1.728-1.343-1.728c-0.684,0-1.223,0.48-1.415,1.056
			c-0.06,0.144-0.072,0.3-0.072,0.504v3.502h-1.056V339.185z"/>
		<path d="M-362.205,344.846l-5.565,2.854v-0.827l4.726-2.352v-0.023l-4.726-2.351v-0.828l5.565,2.854V344.846z"/>
		<path d="M-360.821,345.182c-0.048-1.199,0.6-1.812,1.427-1.812c0.504,0,0.888,0.156,1.691,0.54
			c0.611,0.288,1.055,0.504,1.499,0.504c0.432,0,0.636-0.348,0.647-1.008h0.72c0.06,1.344-0.636,1.812-1.379,1.812
			c-0.48,0-0.912-0.145-1.739-0.528c-0.563-0.275-1.007-0.527-1.439-0.527c-0.432,0-0.695,0.3-0.719,1.02H-360.821z"/>
		<path d="M-354.27,348.18l3.346-8.695h0.816l-3.358,8.695H-354.27z"/>
		<path d="M-349.23,339.725c0.636-0.096,1.391-0.168,2.219-0.168c1.499,0,2.566,0.348,3.274,1.008c0.72,0.659,1.14,1.595,1.14,2.902
			c0,1.319-0.408,2.398-1.164,3.142c-0.755,0.756-2.003,1.164-3.574,1.164c-0.744,0-1.367-0.036-1.895-0.097V339.725z
			 M-348.187,346.873c0.264,0.048,0.647,0.06,1.055,0.06c2.231,0,3.442-1.247,3.442-3.43c0.012-1.907-1.067-3.119-3.274-3.119
			c-0.54,0-0.947,0.049-1.223,0.108V346.873z"/>
		<path d="M-340.638,344.989c0.024,1.428,0.935,2.016,1.991,2.016c0.755,0,1.211-0.132,1.607-0.3l0.18,0.755
			c-0.372,0.168-1.007,0.36-1.931,0.36c-1.787,0-2.854-1.176-2.854-2.927s1.032-3.13,2.723-3.13c1.895,0,2.399,1.667,2.399,2.734
			c0,0.216-0.024,0.384-0.036,0.491H-340.638z M-337.544,344.234c0.012-0.672-0.276-1.715-1.463-1.715
			c-1.067,0-1.535,0.983-1.619,1.715H-337.544z"/>
		<path d="M-335.358,346.621c0.312,0.203,0.864,0.42,1.392,0.42c0.768,0,1.127-0.384,1.127-0.864c0-0.504-0.3-0.779-1.079-1.067
			c-1.043-0.371-1.535-0.947-1.535-1.643c0-0.936,0.755-1.703,2.003-1.703c0.587,0,1.104,0.168,1.427,0.359l-0.264,0.768
			c-0.228-0.144-0.647-0.336-1.187-0.336c-0.624,0-0.972,0.36-0.972,0.792c0,0.479,0.348,0.695,1.104,0.983
			c1.007,0.384,1.523,0.888,1.523,1.751c0,1.02-0.792,1.739-2.171,1.739c-0.635,0-1.223-0.156-1.631-0.396L-335.358,346.621z"/>
		<path d="M-329.419,344.558h0.024c0.144-0.203,0.348-0.455,0.516-0.659l1.703-2.003h1.271l-2.243,2.387l2.554,3.418h-1.283
			l-2.003-2.782l-0.54,0.6v2.183h-1.043v-8.516h1.043V344.558z"/>
		<path d="M-323.563,340.229v1.667h1.511v0.804h-1.511v3.13c0,0.72,0.204,1.128,0.792,1.128c0.276,0,0.479-0.036,0.611-0.072
			l0.048,0.791c-0.204,0.084-0.528,0.145-0.936,0.145c-0.492,0-0.888-0.156-1.14-0.444c-0.3-0.312-0.408-0.827-0.408-1.511v-3.166
			h-0.899v-0.804h0.899v-1.392L-323.563,340.229z"/>
		<path d="M-315.682,344.75c0,2.146-1.487,3.082-2.89,3.082c-1.571,0-2.783-1.151-2.783-2.986c0-1.943,1.271-3.082,2.878-3.082
			C-316.809,341.764-315.682,342.975-315.682,344.75z M-320.287,344.81c0,1.271,0.732,2.231,1.763,2.231
			c1.007,0,1.763-0.948,1.763-2.255c0-0.983-0.492-2.231-1.739-2.231C-319.747,342.555-320.287,343.706-320.287,344.81z"/>
		<path d="M-314.347,343.79c0-0.743-0.024-1.343-0.048-1.895h0.947l0.048,0.995h0.024c0.432-0.707,1.115-1.127,2.063-1.127
			c1.403,0,2.459,1.188,2.459,2.95c0,2.087-1.271,3.118-2.639,3.118c-0.768,0-1.439-0.336-1.787-0.911h-0.024v3.154h-1.043V343.79z
			 M-313.303,345.338c0,0.155,0.024,0.3,0.048,0.432c0.192,0.731,0.828,1.235,1.583,1.235c1.115,0,1.763-0.912,1.763-2.243
			c0-1.163-0.611-2.159-1.727-2.159c-0.72,0-1.391,0.517-1.595,1.308c-0.036,0.132-0.072,0.288-0.072,0.432V345.338z"/>
		<path d="M-307.603,344.187l5.565-2.867v0.828l-4.689,2.351v0.023l4.689,2.352v0.827l-5.565-2.866V344.187z"/>
		<path d="M-301.254,348.18l3.346-8.695h0.816l-3.358,8.695H-301.254z"/>
		<path d="M-296.251,343.467c0-0.6-0.012-1.092-0.048-1.571h0.936l0.06,0.959h0.024c0.288-0.552,0.959-1.091,1.919-1.091
			c0.803,0,2.051,0.479,2.051,2.471v3.466h-1.056v-3.346c0-0.936-0.348-1.716-1.343-1.716c-0.695,0-1.235,0.492-1.415,1.08
			c-0.048,0.132-0.072,0.312-0.072,0.491v3.49h-1.056V343.467z"/>
		<path d="M-289.363,341.896l1.271,3.43c0.132,0.384,0.276,0.84,0.372,1.188h0.024c0.108-0.348,0.228-0.791,0.372-1.211l1.151-3.406
			h1.115l-1.583,4.138c-0.756,1.991-1.271,3.01-1.991,3.634c-0.516,0.456-1.031,0.636-1.295,0.684l-0.264-0.888
			c0.264-0.084,0.612-0.252,0.924-0.516c0.288-0.228,0.647-0.636,0.887-1.175c0.048-0.108,0.084-0.192,0.084-0.252
			c0-0.061-0.024-0.145-0.072-0.276l-2.147-5.349H-289.363z"/>
		<path d="M-449.621,358.586l5.565-2.867v0.828l-4.689,2.351v0.023l4.689,2.352v0.827l-5.565-2.866V358.586z"/>
		<path d="M-442.385,357.866c0-0.6-0.012-1.092-0.048-1.571h0.936l0.06,0.959h0.024c0.288-0.552,0.959-1.091,1.919-1.091
			c0.803,0,2.051,0.479,2.051,2.471v3.466h-1.056v-3.346c0-0.936-0.348-1.716-1.343-1.716c-0.695,0-1.235,0.492-1.415,1.08
			c-0.048,0.132-0.072,0.312-0.072,0.491v3.49h-1.056V357.866z"/>
		<path d="M-435.497,356.295l1.271,3.43c0.132,0.384,0.276,0.84,0.372,1.188h0.024c0.108-0.348,0.228-0.791,0.372-1.211l1.151-3.406
			h1.115l-1.583,4.138c-0.756,1.991-1.271,3.011-1.991,3.634c-0.516,0.456-1.031,0.636-1.295,0.684l-0.264-0.888
			c0.264-0.084,0.612-0.252,0.924-0.516c0.288-0.228,0.647-0.636,0.887-1.175c0.048-0.108,0.084-0.192,0.084-0.252
			c0-0.061-0.024-0.145-0.072-0.276l-2.147-5.349H-435.497z"/>
		<path d="M-428.958,354.628v1.667h1.511v0.804h-1.511v3.13c0,0.72,0.204,1.128,0.792,1.128c0.276,0,0.479-0.036,0.611-0.072
			l0.048,0.791c-0.204,0.084-0.528,0.145-0.936,0.145c-0.492,0-0.888-0.156-1.14-0.444c-0.3-0.312-0.408-0.827-0.408-1.511v-3.166
			h-0.899v-0.804h0.899v-1.392L-428.958,354.628z"/>
		<path d="M-421.136,362.999v0.6h-5.997v-0.6H-421.136z"/>
		<path d="M-420.401,361.021c0.312,0.203,0.864,0.42,1.392,0.42c0.768,0,1.127-0.384,1.127-0.864c0-0.504-0.3-0.779-1.079-1.067
			c-1.043-0.371-1.535-0.947-1.535-1.643c0-0.936,0.755-1.703,2.003-1.703c0.587,0,1.103,0.168,1.427,0.359l-0.264,0.768
			c-0.228-0.144-0.647-0.336-1.187-0.336c-0.624,0-0.972,0.36-0.972,0.792c0,0.479,0.348,0.695,1.104,0.983
			c1.007,0.384,1.523,0.888,1.523,1.751c0,1.02-0.792,1.739-2.171,1.739c-0.635,0-1.223-0.156-1.631-0.396L-420.401,361.021z"/>
		<path d="M-411.367,361.884c-0.276,0.144-0.888,0.336-1.667,0.336c-1.751,0-2.891-1.188-2.891-2.963
			c0-1.787,1.224-3.082,3.119-3.082c0.624,0,1.175,0.156,1.463,0.3l-0.24,0.815c-0.252-0.144-0.647-0.275-1.223-0.275
			c-1.332,0-2.051,0.983-2.051,2.194c0,1.344,0.864,2.171,2.015,2.171c0.6,0,0.996-0.156,1.295-0.288L-411.367,361.884z"/>
		<path d="M-406.915,362.1l-0.084-0.731h-0.036c-0.324,0.456-0.947,0.863-1.775,0.863c-1.175,0-1.775-0.827-1.775-1.667
			c0-1.403,1.247-2.171,3.49-2.159v-0.119c0-0.48-0.132-1.344-1.319-1.344c-0.54,0-1.103,0.168-1.511,0.432l-0.24-0.695
			c0.48-0.312,1.176-0.516,1.907-0.516c1.775,0,2.207,1.211,2.207,2.374v2.171c0,0.504,0.024,0.996,0.096,1.392H-406.915z
			 M-407.07,359.138c-1.151-0.024-2.459,0.18-2.459,1.307c0,0.684,0.456,1.008,0.996,1.008c0.755,0,1.235-0.479,1.403-0.972
			c0.036-0.107,0.06-0.228,0.06-0.336V359.138z"/>
		<path d="M-404.345,353.584h1.056v8.516h-1.056V353.584z"/>
		<path d="M-400.338,354.664c0.012,0.359-0.252,0.647-0.671,0.647c-0.372,0-0.636-0.288-0.636-0.647c0-0.372,0.276-0.66,0.66-0.66
			C-400.59,354.004-400.338,354.292-400.338,354.664z M-401.513,362.1v-5.805h1.056v5.805H-401.513z"/>
		<path d="M-398.705,357.866c0-0.6-0.012-1.092-0.048-1.571h0.936l0.06,0.959h0.024c0.288-0.552,0.959-1.091,1.919-1.091
			c0.803,0,2.051,0.479,2.051,2.471v3.466h-1.056v-3.346c0-0.936-0.348-1.716-1.343-1.716c-0.695,0-1.235,0.492-1.415,1.08
			c-0.048,0.132-0.072,0.312-0.072,0.491v3.49h-1.056V357.866z"/>
		<path d="M-387.044,356.295c-0.024,0.42-0.048,0.888-0.048,1.595v3.37c0,1.332-0.264,2.147-0.827,2.65
			c-0.564,0.528-1.379,0.696-2.111,0.696c-0.696,0-1.463-0.168-1.931-0.479l0.264-0.804c0.384,0.239,0.984,0.455,1.703,0.455
			c1.08,0,1.871-0.563,1.871-2.026v-0.647h-0.024c-0.324,0.539-0.948,0.971-1.847,0.971c-1.439,0-2.471-1.223-2.471-2.83
			c0-1.967,1.284-3.082,2.615-3.082c1.007,0,1.559,0.527,1.811,1.007h0.024l0.048-0.875H-387.044z M-388.136,358.586
			c0-0.181-0.012-0.336-0.06-0.48c-0.192-0.611-0.708-1.115-1.476-1.115c-1.007,0-1.727,0.852-1.727,2.195
			c0,1.139,0.576,2.087,1.715,2.087c0.647,0,1.235-0.408,1.463-1.08c0.06-0.18,0.084-0.384,0.084-0.563V358.586z"/>
		<path d="M-379.856,359.245l-5.565,2.854v-0.827l4.726-2.352v-0.023l-4.726-2.351v-0.828l5.565,2.854V359.245z"/>
		<path d="M-376.23,355.287h-0.024l-1.355,0.731l-0.204-0.803l1.703-0.912h0.9v7.796h-1.02V355.287z"/>
		<path d="M-367.185,358.118c0,2.65-0.983,4.113-2.71,4.113c-1.523,0-2.555-1.427-2.579-4.006c0-2.614,1.127-4.054,2.71-4.054
			C-368.12,354.172-367.185,355.635-367.185,358.118z M-371.418,358.237c0,2.027,0.624,3.179,1.583,3.179
			c1.08,0,1.595-1.26,1.595-3.25c0-1.919-0.492-3.179-1.583-3.179C-370.747,354.987-371.418,356.115-371.418,358.237z"/>
		<path d="M-361.029,358.118c0,2.65-0.983,4.113-2.71,4.113c-1.523,0-2.555-1.427-2.579-4.006c0-2.614,1.127-4.054,2.71-4.054
			C-361.964,354.172-361.029,355.635-361.029,358.118z M-365.262,358.237c0,2.027,0.624,3.179,1.583,3.179
			c1.08,0,1.595-1.26,1.595-3.25c0-1.919-0.492-3.179-1.583-3.179C-364.591,354.987-365.262,356.115-365.262,358.237z"/>
		<path d="M-356.54,356.499c0,1.643-0.863,2.458-1.871,2.458c-0.971,0-1.811-0.779-1.823-2.351c0-1.559,0.852-2.435,1.883-2.435
			C-357.26,354.172-356.54,355.012-356.54,356.499z M-359.395,356.57c-0.024,0.996,0.348,1.751,1.008,1.751
			c0.695,0,1.007-0.743,1.007-1.774c0-0.947-0.276-1.739-1.007-1.739C-359.046,354.808-359.395,355.587-359.395,356.57z
			 M-358.483,362.231l4.582-8.06h0.671l-4.582,8.06H-358.483z M-351.467,359.725c0,1.644-0.863,2.459-1.859,2.459
			c-0.972,0-1.811-0.779-1.823-2.339c0-1.571,0.852-2.446,1.883-2.446C-352.174,357.398-351.467,358.237-351.467,359.725z
			 M-354.321,359.797c-0.012,0.995,0.372,1.751,1.02,1.751c0.696,0,1.007-0.743,1.007-1.775c0-0.947-0.276-1.738-1.007-1.738
			C-353.961,358.034-354.321,358.813-354.321,359.797z"/>
		<path d="M-350.298,358.586l5.565-2.867v0.828l-4.689,2.351v0.023l4.689,2.352v0.827l-5.565-2.866V358.586z"/>
		<path d="M-343.95,362.579l3.346-8.695h0.816l-3.358,8.695H-343.95z"/>
		<path d="M-338.946,357.866c0-0.6-0.012-1.092-0.048-1.571h0.936l0.06,0.959h0.024c0.288-0.552,0.959-1.091,1.919-1.091
			c0.803,0,2.051,0.479,2.051,2.471v3.466h-1.056v-3.346c0-0.936-0.348-1.716-1.343-1.716c-0.695,0-1.235,0.492-1.415,1.08
			c-0.048,0.132-0.072,0.312-0.072,0.491v3.49h-1.056V357.866z"/>
		<path d="M-332.059,356.295l1.271,3.43c0.132,0.384,0.276,0.84,0.372,1.188h0.024c0.108-0.348,0.228-0.791,0.372-1.211l1.151-3.406
			h1.115l-1.583,4.138c-0.756,1.991-1.271,3.011-1.991,3.634c-0.516,0.456-1.031,0.636-1.295,0.684l-0.264-0.888
			c0.264-0.084,0.612-0.252,0.924-0.516c0.288-0.228,0.647-0.636,0.887-1.175c0.048-0.108,0.084-0.192,0.084-0.252
			c0-0.061-0.024-0.145-0.072-0.276l-2.147-5.349H-332.059z"/>
		<path d="M-325.519,354.628v1.667h1.511v0.804h-1.511v3.13c0,0.72,0.204,1.128,0.792,1.128c0.276,0,0.479-0.036,0.611-0.072
			l0.048,0.791c-0.204,0.084-0.528,0.145-0.936,0.145c-0.492,0-0.888-0.156-1.14-0.444c-0.3-0.312-0.408-0.827-0.408-1.511v-3.166
			h-0.899v-0.804h0.899v-1.392L-325.519,354.628z"/>
		<path d="M-317.697,362.999v0.6h-5.997v-0.6H-317.697z"/>
		<path d="M-316.962,361.021c0.312,0.203,0.864,0.42,1.392,0.42c0.768,0,1.127-0.384,1.127-0.864c0-0.504-0.3-0.779-1.079-1.067
			c-1.043-0.371-1.535-0.947-1.535-1.643c0-0.936,0.755-1.703,2.003-1.703c0.587,0,1.103,0.168,1.427,0.359l-0.264,0.768
			c-0.228-0.144-0.647-0.336-1.187-0.336c-0.624,0-0.972,0.36-0.972,0.792c0,0.479,0.348,0.695,1.104,0.983
			c1.007,0.384,1.523,0.888,1.523,1.751c0,1.02-0.792,1.739-2.171,1.739c-0.635,0-1.223-0.156-1.631-0.396L-316.962,361.021z"/>
		<path d="M-307.929,361.884c-0.276,0.144-0.888,0.336-1.667,0.336c-1.751,0-2.891-1.188-2.891-2.963
			c0-1.787,1.224-3.082,3.119-3.082c0.624,0,1.175,0.156,1.463,0.3l-0.24,0.815c-0.252-0.144-0.647-0.275-1.223-0.275
			c-1.332,0-2.051,0.983-2.051,2.194c0,1.344,0.864,2.171,2.015,2.171c0.6,0,0.996-0.156,1.295-0.288L-307.929,361.884z"/>
		<path d="M-303.476,362.1l-0.084-0.731h-0.036c-0.324,0.456-0.947,0.863-1.775,0.863c-1.175,0-1.775-0.827-1.775-1.667
			c0-1.403,1.247-2.171,3.49-2.159v-0.119c0-0.48-0.132-1.344-1.319-1.344c-0.54,0-1.103,0.168-1.511,0.432l-0.24-0.695
			c0.48-0.312,1.176-0.516,1.907-0.516c1.775,0,2.207,1.211,2.207,2.374v2.171c0,0.504,0.024,0.996,0.096,1.392H-303.476z
			 M-303.632,359.138c-1.151-0.024-2.459,0.18-2.459,1.307c0,0.684,0.456,1.008,0.996,1.008c0.755,0,1.235-0.479,1.403-0.972
			c0.036-0.107,0.06-0.228,0.06-0.336V359.138z"/>
		<path d="M-300.907,353.584h1.056v8.516h-1.056V353.584z"/>
		<path d="M-296.899,354.664c0.012,0.359-0.252,0.647-0.671,0.647c-0.372,0-0.636-0.288-0.636-0.647c0-0.372,0.276-0.66,0.66-0.66
			C-297.151,354.004-296.899,354.292-296.899,354.664z M-298.075,362.1v-5.805h1.056v5.805H-298.075z"/>
		<path d="M-295.267,357.866c0-0.6-0.012-1.092-0.048-1.571h0.936l0.06,0.959h0.024c0.288-0.552,0.959-1.091,1.919-1.091
			c0.803,0,2.051,0.479,2.051,2.471v3.466h-1.056v-3.346c0-0.936-0.348-1.716-1.343-1.716c-0.695,0-1.235,0.492-1.415,1.08
			c-0.048,0.132-0.072,0.312-0.072,0.491v3.49h-1.056V357.866z"/>
		<path d="M-283.605,356.295c-0.024,0.42-0.048,0.888-0.048,1.595v3.37c0,1.332-0.264,2.147-0.827,2.65
			c-0.564,0.528-1.379,0.696-2.111,0.696c-0.696,0-1.463-0.168-1.931-0.479l0.264-0.804c0.384,0.239,0.984,0.455,1.703,0.455
			c1.08,0,1.871-0.563,1.871-2.026v-0.647h-0.024c-0.324,0.539-0.948,0.971-1.847,0.971c-1.439,0-2.471-1.223-2.471-2.83
			c0-1.967,1.284-3.082,2.615-3.082c1.007,0,1.559,0.527,1.811,1.007h0.024l0.048-0.875H-283.605z M-284.697,358.586
			c0-0.181-0.012-0.336-0.06-0.48c-0.192-0.611-0.708-1.115-1.476-1.115c-1.007,0-1.727,0.852-1.727,2.195
			c0,1.139,0.576,2.087,1.715,2.087c0.647,0,1.235-0.408,1.463-1.08c0.06-0.18,0.084-0.384,0.084-0.563V358.586z"/>
		<path d="M-449.621,372.986l5.565-2.867v0.828l-4.689,2.351v0.023l4.689,2.352v0.827l-5.565-2.866V372.986z"/>
		<path d="M-442.385,372.267c0-0.6-0.012-1.092-0.048-1.571h0.936l0.06,0.959h0.024c0.288-0.552,0.959-1.091,1.919-1.091
			c0.803,0,2.051,0.479,2.051,2.471v3.466h-1.056v-3.346c0-0.936-0.348-1.716-1.343-1.716c-0.695,0-1.235,0.492-1.415,1.08
			c-0.048,0.132-0.072,0.312-0.072,0.491v3.49h-1.056V372.267z"/>
		<path d="M-435.497,370.695l1.271,3.43c0.132,0.384,0.276,0.84,0.372,1.188h0.024c0.108-0.348,0.228-0.791,0.372-1.211l1.151-3.406
			h1.115l-1.583,4.138c-0.756,1.991-1.271,3.011-1.991,3.634c-0.516,0.456-1.031,0.636-1.295,0.684l-0.264-0.888
			c0.264-0.084,0.612-0.252,0.924-0.516c0.288-0.228,0.647-0.636,0.887-1.175c0.048-0.108,0.084-0.192,0.084-0.252
			c0-0.061-0.024-0.145-0.072-0.276l-2.147-5.349H-435.497z"/>
		<path d="M-428.958,369.028v1.667h1.511v0.804h-1.511v3.13c0,0.72,0.204,1.128,0.792,1.128c0.276,0,0.479-0.036,0.611-0.072
			l0.048,0.791c-0.204,0.084-0.528,0.145-0.936,0.145c-0.492,0-0.888-0.156-1.14-0.444c-0.3-0.312-0.408-0.827-0.408-1.511v-3.166
			h-0.899v-0.804h0.899v-1.392L-428.958,369.028z"/>
		<path d="M-421.136,377.399v0.6h-5.997v-0.6H-421.136z"/>
		<path d="M-418.985,369.028v1.667h1.511v0.804h-1.511v3.13c0,0.72,0.204,1.128,0.792,1.128c0.276,0,0.479-0.036,0.612-0.072
			l0.048,0.791c-0.204,0.084-0.528,0.145-0.936,0.145c-0.492,0-0.888-0.156-1.14-0.444c-0.3-0.312-0.408-0.827-0.408-1.511v-3.166
			h-0.899v-0.804h0.899v-1.392L-418.985,369.028z"/>
		<path d="M-416.285,372.506c0-0.684-0.012-1.271-0.048-1.811h0.923l0.036,1.14h0.048c0.264-0.78,0.899-1.271,1.607-1.271
			c0.12,0,0.204,0.012,0.3,0.036v0.995c-0.108-0.024-0.216-0.036-0.359-0.036c-0.744,0-1.271,0.563-1.416,1.355
			c-0.024,0.144-0.048,0.312-0.048,0.491v3.095h-1.043V372.506z"/>
		<path d="M-409.207,376.5l-0.084-0.731h-0.036c-0.324,0.456-0.947,0.863-1.775,0.863c-1.175,0-1.775-0.827-1.775-1.667
			c0-1.403,1.247-2.171,3.49-2.159v-0.119c0-0.48-0.132-1.344-1.319-1.344c-0.54,0-1.103,0.168-1.511,0.432l-0.24-0.695
			c0.48-0.312,1.176-0.516,1.907-0.516c1.775,0,2.207,1.211,2.207,2.374v2.171c0,0.504,0.024,0.996,0.096,1.392H-409.207z
			 M-409.362,373.538c-1.151-0.024-2.459,0.18-2.459,1.307c0,0.684,0.456,1.008,0.996,1.008c0.755,0,1.235-0.479,1.403-0.972
			c0.036-0.107,0.06-0.228,0.06-0.336V373.538z"/>
		<path d="M-406.637,372.267c0-0.6-0.012-1.092-0.048-1.571h0.936l0.06,0.959h0.024c0.288-0.552,0.959-1.091,1.919-1.091
			c0.803,0,2.051,0.479,2.051,2.471v3.466h-1.056v-3.346c0-0.936-0.348-1.716-1.343-1.716c-0.695,0-1.235,0.492-1.415,1.08
			c-0.048,0.132-0.072,0.312-0.072,0.491v3.49h-1.056V372.267z"/>
		<path d="M-400.121,375.421c0.312,0.203,0.864,0.42,1.392,0.42c0.768,0,1.127-0.384,1.127-0.864c0-0.504-0.3-0.779-1.079-1.067
			c-1.043-0.371-1.535-0.947-1.535-1.643c0-0.936,0.755-1.703,2.003-1.703c0.587,0,1.104,0.168,1.427,0.359l-0.264,0.768
			c-0.228-0.144-0.647-0.336-1.187-0.336c-0.624,0-0.972,0.36-0.972,0.792c0,0.479,0.348,0.695,1.104,0.983
			c1.007,0.384,1.523,0.888,1.523,1.751c0,1.02-0.792,1.739-2.171,1.739c-0.635,0-1.223-0.156-1.631-0.396L-400.121,375.421z"/>
		<path d="M-395.225,372.59c0-0.743-0.024-1.343-0.048-1.895h0.947l0.048,0.995h0.024c0.432-0.707,1.115-1.127,2.063-1.127
			c1.403,0,2.459,1.188,2.459,2.95c0,2.087-1.271,3.118-2.639,3.118c-0.768,0-1.439-0.336-1.787-0.911h-0.024v3.154h-1.043V372.59z
			 M-394.182,374.138c0,0.155,0.024,0.3,0.048,0.432c0.192,0.731,0.828,1.235,1.583,1.235c1.116,0,1.763-0.912,1.763-2.243
			c0-1.163-0.612-2.159-1.727-2.159c-0.72,0-1.391,0.517-1.595,1.308c-0.036,0.132-0.072,0.288-0.072,0.432V374.138z"/>
		<path d="M-385.183,376.5l-0.084-0.731h-0.036c-0.324,0.456-0.947,0.863-1.775,0.863c-1.175,0-1.775-0.827-1.775-1.667
			c0-1.403,1.247-2.171,3.49-2.159v-0.119c0-0.48-0.132-1.344-1.319-1.344c-0.54,0-1.103,0.168-1.511,0.432l-0.24-0.695
			c0.48-0.312,1.176-0.516,1.907-0.516c1.775,0,2.207,1.211,2.207,2.374v2.171c0,0.504,0.024,0.996,0.096,1.392H-385.183z
			 M-385.339,373.538c-1.151-0.024-2.459,0.18-2.459,1.307c0,0.684,0.456,1.008,0.996,1.008c0.755,0,1.235-0.479,1.403-0.972
			c0.036-0.107,0.06-0.228,0.06-0.336V373.538z"/>
		<path d="M-382.613,372.506c0-0.684-0.012-1.271-0.048-1.811h0.923l0.036,1.14h0.048c0.264-0.78,0.899-1.271,1.607-1.271
			c0.12,0,0.204,0.012,0.3,0.036v0.995c-0.108-0.024-0.216-0.036-0.359-0.036c-0.744,0-1.271,0.563-1.416,1.355
			c-0.024,0.144-0.048,0.312-0.048,0.491v3.095h-1.043V372.506z"/>
		<path d="M-378.221,373.789c0.024,1.428,0.935,2.016,1.991,2.016c0.755,0,1.211-0.132,1.607-0.3l0.18,0.755
			c-0.372,0.168-1.007,0.36-1.931,0.36c-1.787,0-2.854-1.176-2.854-2.927s1.032-3.13,2.723-3.13c1.895,0,2.399,1.667,2.399,2.734
			c0,0.216-0.024,0.384-0.036,0.491H-378.221z M-375.127,373.034c0.012-0.672-0.276-1.716-1.463-1.716
			c-1.067,0-1.535,0.984-1.619,1.716H-375.127z"/>
		<path d="M-372.797,372.267c0-0.6-0.012-1.092-0.048-1.571h0.936l0.06,0.959h0.024c0.288-0.552,0.959-1.091,1.919-1.091
			c0.803,0,2.051,0.479,2.051,2.471v3.466h-1.056v-3.346c0-0.936-0.348-1.716-1.343-1.716c-0.695,0-1.235,0.492-1.415,1.08
			c-0.048,0.132-0.072,0.312-0.072,0.491v3.49h-1.056V372.267z"/>
		<path d="M-362,376.284c-0.276,0.144-0.888,0.336-1.667,0.336c-1.751,0-2.891-1.188-2.891-2.963c0-1.787,1.224-3.082,3.119-3.082
			c0.624,0,1.175,0.156,1.463,0.3l-0.24,0.815c-0.252-0.144-0.647-0.275-1.223-0.275c-1.332,0-2.051,0.983-2.051,2.194
			c0,1.344,0.864,2.171,2.015,2.171c0.6,0,0.996-0.156,1.295-0.288L-362,376.284z"/>
		<path d="M-360.162,370.695l1.271,3.43c0.132,0.384,0.276,0.84,0.372,1.188h0.024c0.108-0.348,0.228-0.791,0.372-1.211l1.151-3.406
			h1.115l-1.583,4.138c-0.756,1.991-1.271,3.011-1.991,3.634c-0.516,0.456-1.031,0.636-1.295,0.684l-0.264-0.888
			c0.264-0.084,0.612-0.252,0.924-0.516c0.288-0.228,0.647-0.636,0.887-1.175c0.048-0.108,0.084-0.192,0.084-0.252
			c0-0.061-0.024-0.145-0.072-0.276l-2.147-5.349H-360.162z"/>
		<path d="M-349.413,373.646l-5.565,2.854v-0.827l4.726-2.352v-0.023l-4.726-2.351v-0.828l5.565,2.854V373.646z"/>
		<path d="M-346.47,369.028v1.667h1.511v0.804h-1.511v3.13c0,0.72,0.204,1.128,0.792,1.128c0.276,0,0.479-0.036,0.611-0.072
			l0.048,0.791c-0.204,0.084-0.528,0.145-0.936,0.145c-0.492,0-0.888-0.156-1.14-0.444c-0.3-0.312-0.408-0.827-0.408-1.511v-3.166
			h-0.899v-0.804h0.899v-1.392L-346.47,369.028z"/>
		<path d="M-343.77,372.506c0-0.684-0.012-1.271-0.048-1.811h0.923l0.036,1.14h0.048c0.264-0.78,0.899-1.271,1.607-1.271
			c0.12,0,0.204,0.012,0.3,0.036v0.995c-0.108-0.024-0.216-0.036-0.36-0.036c-0.744,0-1.271,0.563-1.416,1.355
			c-0.024,0.144-0.048,0.312-0.048,0.491v3.095h-1.043V372.506z"/>
		<path d="M-334.989,374.917c0,0.6,0.012,1.127,0.048,1.583h-0.936l-0.06-0.947h-0.024c-0.276,0.468-0.887,1.079-1.919,1.079
			c-0.911,0-2.003-0.504-2.003-2.543v-3.394h1.056v3.214c0,1.104,0.336,1.848,1.295,1.848c0.708,0,1.199-0.492,1.391-0.96
			c0.06-0.156,0.096-0.348,0.096-0.54v-3.562h1.056V374.917z"/>
		<path d="M-332.646,373.789c0.024,1.428,0.935,2.016,1.991,2.016c0.755,0,1.211-0.132,1.607-0.3l0.18,0.755
			c-0.372,0.168-1.007,0.36-1.931,0.36c-1.787,0-2.854-1.176-2.854-2.927s1.032-3.13,2.723-3.13c1.895,0,2.399,1.667,2.399,2.734
			c0,0.216-0.024,0.384-0.036,0.491H-332.646z M-329.552,373.034c0.012-0.672-0.276-1.716-1.463-1.716
			c-1.067,0-1.535,0.984-1.619,1.716H-329.552z"/>
		<path d="M-327.306,372.986l5.565-2.867v0.828l-4.689,2.351v0.023l4.689,2.352v0.827l-5.565-2.866V372.986z"/>
		<path d="M-320.958,376.979l3.346-8.695h0.816l-3.358,8.695H-320.958z"/>
		<path d="M-315.955,372.267c0-0.6-0.012-1.092-0.048-1.571h0.936l0.06,0.959h0.024c0.288-0.552,0.959-1.091,1.919-1.091
			c0.803,0,2.051,0.479,2.051,2.471v3.466h-1.056v-3.346c0-0.936-0.348-1.716-1.343-1.716c-0.695,0-1.235,0.492-1.415,1.08
			c-0.048,0.132-0.072,0.312-0.072,0.491v3.49h-1.056V372.267z"/>
		<path d="M-309.066,370.695l1.271,3.43c0.132,0.384,0.276,0.84,0.372,1.188h0.024c0.108-0.348,0.228-0.791,0.372-1.211l1.151-3.406
			h1.115l-1.583,4.138c-0.756,1.991-1.271,3.011-1.991,3.634c-0.516,0.456-1.031,0.636-1.295,0.684l-0.264-0.888
			c0.264-0.084,0.612-0.252,0.924-0.516c0.288-0.228,0.647-0.636,0.887-1.175c0.048-0.108,0.084-0.192,0.084-0.252
			c0-0.061-0.024-0.145-0.072-0.276l-2.147-5.349H-309.066z"/>
		<path d="M-302.527,369.028v1.667h1.511v0.804h-1.511v3.13c0,0.72,0.204,1.128,0.792,1.128c0.276,0,0.479-0.036,0.611-0.072
			l0.048,0.791c-0.204,0.084-0.528,0.145-0.936,0.145c-0.492,0-0.888-0.156-1.14-0.444c-0.3-0.312-0.408-0.827-0.408-1.511v-3.166
			h-0.899v-0.804h0.899v-1.392L-302.527,369.028z"/>
		<path d="M-294.706,377.399v0.6h-5.997v-0.6H-294.706z"/>
		<path d="M-292.555,369.028v1.667h1.511v0.804h-1.511v3.13c0,0.72,0.204,1.128,0.792,1.128c0.276,0,0.479-0.036,0.611-0.072
			l0.048,0.791c-0.204,0.084-0.528,0.145-0.936,0.145c-0.492,0-0.888-0.156-1.14-0.444c-0.3-0.312-0.408-0.827-0.408-1.511v-3.166
			h-0.899v-0.804h0.899v-1.392L-292.555,369.028z"/>
		<path d="M-289.854,372.506c0-0.684-0.012-1.271-0.048-1.811h0.923l0.036,1.14h0.048c0.264-0.78,0.899-1.271,1.607-1.271
			c0.12,0,0.204,0.012,0.3,0.036v0.995c-0.108-0.024-0.216-0.036-0.359-0.036c-0.744,0-1.271,0.563-1.416,1.355
			c-0.024,0.144-0.048,0.312-0.048,0.491v3.095h-1.043V372.506z"/>
		<path d="M-449.621,387.387l5.565-2.867v0.828l-4.689,2.351v0.023l4.689,2.352v0.827l-5.565-2.866V387.387z"/>
		<path d="M-442.385,386.667c0-0.6-0.012-1.092-0.048-1.571h0.936l0.06,0.959h0.024c0.288-0.552,0.959-1.091,1.919-1.091
			c0.803,0,2.051,0.479,2.051,2.471v3.466h-1.056v-3.346c0-0.936-0.348-1.716-1.343-1.716c-0.695,0-1.235,0.492-1.415,1.08
			c-0.048,0.132-0.072,0.312-0.072,0.491v3.49h-1.056V386.667z"/>
		<path d="M-435.497,385.096l1.271,3.43c0.132,0.384,0.276,0.84,0.372,1.188h0.024c0.108-0.348,0.228-0.791,0.372-1.211l1.151-3.406
			h1.115l-1.583,4.138c-0.756,1.991-1.271,3.011-1.991,3.634c-0.516,0.456-1.031,0.636-1.295,0.684l-0.264-0.888
			c0.264-0.084,0.612-0.252,0.924-0.516c0.288-0.228,0.647-0.636,0.887-1.175c0.048-0.108,0.084-0.192,0.084-0.252
			c0-0.061-0.024-0.145-0.072-0.276l-2.147-5.349H-435.497z"/>
		<path d="M-428.958,383.429v1.667h1.511v0.804h-1.511v3.13c0,0.72,0.204,1.128,0.792,1.128c0.276,0,0.479-0.036,0.611-0.072
			l0.048,0.791c-0.204,0.084-0.528,0.145-0.936,0.145c-0.492,0-0.888-0.156-1.14-0.444c-0.3-0.312-0.408-0.827-0.408-1.511v-3.166
			h-0.899v-0.804h0.899v-1.392L-428.958,383.429z"/>
		<path d="M-421.136,391.8v0.6h-5.997v-0.6H-421.136z"/>
		<path d="M-420.149,390.9v-5.001h-0.815v-0.804h0.815v-0.276c0-0.815,0.18-1.559,0.672-2.026c0.396-0.384,0.923-0.54,1.415-0.54
			c0.372,0,0.696,0.084,0.899,0.168l-0.144,0.815c-0.156-0.071-0.372-0.132-0.671-0.132c-0.899,0-1.127,0.792-1.127,1.68v0.312
			h1.403v0.804h-1.403v5.001H-420.149z"/>
		<path d="M-411.656,387.95c0,2.146-1.487,3.082-2.89,3.082c-1.571,0-2.783-1.151-2.783-2.986c0-1.942,1.271-3.082,2.878-3.082
			C-412.783,384.964-411.656,386.175-411.656,387.95z M-416.261,388.01c0,1.271,0.732,2.231,1.763,2.231
			c1.007,0,1.763-0.948,1.763-2.255c0-0.983-0.492-2.231-1.739-2.231C-415.721,385.755-416.261,386.906-416.261,388.01z"/>
		<path d="M-410.321,386.906c0-0.684-0.012-1.271-0.048-1.811h0.923l0.036,1.14h0.048c0.264-0.78,0.899-1.271,1.607-1.271
			c0.12,0,0.204,0.012,0.3,0.036v0.995c-0.108-0.024-0.216-0.036-0.36-0.036c-0.744,0-1.271,0.563-1.416,1.355
			c-0.024,0.144-0.048,0.312-0.048,0.491v3.095h-1.043V386.906z"/>
		<path d="M-406.349,386.667c0-0.6-0.012-1.092-0.048-1.571h0.923l0.048,0.936h0.036c0.324-0.552,0.864-1.067,1.823-1.067
			c0.792,0,1.391,0.479,1.643,1.163h0.024c0.18-0.324,0.408-0.575,0.647-0.756c0.348-0.264,0.731-0.407,1.283-0.407
			c0.768,0,1.907,0.504,1.907,2.519v3.418h-1.032v-3.286c0-1.115-0.408-1.787-1.259-1.787c-0.6,0-1.067,0.443-1.247,0.96
			c-0.048,0.144-0.084,0.335-0.084,0.527v3.586h-1.031v-3.479c0-0.923-0.408-1.595-1.211-1.595c-0.66,0-1.14,0.527-1.308,1.056
			c-0.06,0.155-0.084,0.336-0.084,0.516v3.502h-1.031V386.667z"/>
		<path d="M-393.126,390.9l-0.084-0.731h-0.036c-0.324,0.456-0.947,0.863-1.775,0.863c-1.175,0-1.775-0.827-1.775-1.667
			c0-1.403,1.247-2.171,3.49-2.159v-0.119c0-0.48-0.132-1.344-1.319-1.344c-0.54,0-1.103,0.168-1.511,0.432l-0.24-0.695
			c0.48-0.312,1.176-0.516,1.907-0.516c1.775,0,2.207,1.211,2.207,2.374v2.171c0,0.504,0.024,0.996,0.096,1.392H-393.126z
			 M-393.282,387.938c-1.151-0.024-2.459,0.18-2.459,1.307c0,0.684,0.456,1.008,0.996,1.008c0.755,0,1.235-0.479,1.403-0.972
			c0.036-0.107,0.06-0.228,0.06-0.336V387.938z"/>
		<path d="M-389.333,383.429v1.667h1.511v0.804h-1.511v3.13c0,0.72,0.204,1.128,0.792,1.128c0.276,0,0.479-0.036,0.611-0.072
			l0.048,0.791c-0.204,0.084-0.528,0.145-0.936,0.145c-0.492,0-0.888-0.156-1.14-0.444c-0.3-0.312-0.408-0.827-0.408-1.511v-3.166
			h-0.899v-0.804h0.899v-1.392L-389.333,383.429z"/>
		<path d="M-381.152,388.046l-5.565,2.854v-0.827l4.726-2.352v-0.023l-4.726-2.351v-0.828l5.565,2.854V388.046z"/>
		<path d="M-379.445,382.913c0.503-0.084,1.163-0.156,2.003-0.156c1.031,0,1.787,0.24,2.267,0.672
			c0.444,0.384,0.708,0.972,0.708,1.69c0,0.732-0.216,1.308-0.624,1.728c-0.552,0.588-1.451,0.888-2.471,0.888
			c-0.312,0-0.6-0.013-0.839-0.072v3.238h-1.043V382.913z M-378.401,386.811c0.228,0.061,0.516,0.084,0.863,0.084
			c1.259,0,2.027-0.611,2.027-1.727c0-1.067-0.755-1.584-1.907-1.584c-0.456,0-0.804,0.036-0.983,0.084V386.811z"/>
		<path d="M-373.061,390.9v-8.084h1.139l2.591,4.09c0.6,0.948,1.067,1.8,1.451,2.627l0.024-0.012c-0.096-1.08-0.12-2.063-0.12-3.322
			v-3.383h0.983v8.084h-1.055l-2.566-4.102c-0.564-0.899-1.104-1.823-1.511-2.698l-0.036,0.012c0.06,1.02,0.084,1.991,0.084,3.334
			v3.454H-373.061z"/>
		<path d="M-359.013,390.541c-0.468,0.168-1.391,0.443-2.482,0.443c-1.224,0-2.231-0.312-3.022-1.067
			c-0.695-0.672-1.127-1.751-1.127-3.011c0.012-2.41,1.667-4.174,4.378-4.174c0.935,0,1.667,0.204,2.015,0.372l-0.252,0.852
			c-0.432-0.191-0.971-0.348-1.787-0.348c-1.967,0-3.25,1.224-3.25,3.25c0,2.051,1.235,3.263,3.118,3.263
			c0.684,0,1.151-0.097,1.391-0.216v-2.411h-1.643v-0.84h2.663V390.541z"/>
		<path d="M-355.241,390.9v-0.647l0.828-0.804c1.991-1.895,2.891-2.902,2.902-4.078c0-0.791-0.384-1.522-1.547-1.522
			c-0.708,0-1.295,0.359-1.655,0.659l-0.336-0.743c0.54-0.456,1.308-0.792,2.207-0.792c1.679,0,2.387,1.151,2.387,2.267
			c0,1.439-1.043,2.603-2.687,4.186l-0.624,0.576v0.023h3.502v0.876H-355.241z"/>
		<path d="M-345.823,390.9v-2.123h-3.622v-0.695l3.479-4.978h1.139v4.846h1.091v0.827h-1.091v2.123H-345.823z M-345.823,387.95
			v-2.603c0-0.408,0.012-0.815,0.036-1.224h-0.036c-0.24,0.456-0.432,0.792-0.647,1.151l-1.907,2.65v0.024H-345.823z"/>
		<path d="M-342.678,387.387l5.565-2.867v0.828l-4.689,2.351v0.023l4.689,2.352v0.827l-5.565-2.866V387.387z"/>
		<path d="M-336.33,391.38l3.346-8.695h0.816l-3.358,8.695H-336.33z"/>
		<path d="M-331.326,386.667c0-0.6-0.012-1.092-0.048-1.571h0.936l0.06,0.959h0.024c0.288-0.552,0.959-1.091,1.919-1.091
			c0.803,0,2.051,0.479,2.051,2.471v3.466h-1.056v-3.346c0-0.936-0.348-1.716-1.343-1.716c-0.695,0-1.235,0.492-1.415,1.08
			c-0.048,0.132-0.072,0.312-0.072,0.491v3.49h-1.056V386.667z"/>
		<path d="M-324.438,385.096l1.271,3.43c0.132,0.384,0.276,0.84,0.372,1.188h0.024c0.108-0.348,0.228-0.791,0.372-1.211l1.151-3.406
			h1.115l-1.583,4.138c-0.756,1.991-1.271,3.011-1.991,3.634c-0.516,0.456-1.031,0.636-1.295,0.684l-0.264-0.888
			c0.264-0.084,0.612-0.252,0.924-0.516c0.288-0.228,0.647-0.636,0.887-1.175c0.048-0.108,0.084-0.192,0.084-0.252
			c0-0.061-0.024-0.145-0.072-0.276l-2.147-5.349H-324.438z"/>
		<path d="M-317.898,383.429v1.667h1.511v0.804h-1.511v3.13c0,0.72,0.204,1.128,0.792,1.128c0.276,0,0.479-0.036,0.612-0.072
			l0.048,0.791c-0.204,0.084-0.528,0.145-0.936,0.145c-0.492,0-0.888-0.156-1.14-0.444c-0.3-0.312-0.408-0.827-0.408-1.511v-3.166
			h-0.899v-0.804h0.899v-1.392L-317.898,383.429z"/>
		<path d="M-310.077,391.8v0.6h-5.997v-0.6H-310.077z"/>
		<path d="M-309.09,390.9v-5.001h-0.815v-0.804h0.815v-0.276c0-0.815,0.18-1.559,0.672-2.026c0.396-0.384,0.923-0.54,1.415-0.54
			c0.372,0,0.696,0.084,0.899,0.168l-0.144,0.815c-0.156-0.071-0.372-0.132-0.671-0.132c-0.899,0-1.127,0.792-1.127,1.68v0.312
			h1.403v0.804h-1.403v5.001H-309.09z"/>
		<path d="M-300.597,387.95c0,2.146-1.487,3.082-2.89,3.082c-1.571,0-2.783-1.151-2.783-2.986c0-1.942,1.271-3.082,2.878-3.082
			C-301.724,384.964-300.597,386.175-300.597,387.95z M-305.203,388.01c0,1.271,0.732,2.231,1.763,2.231
			c1.007,0,1.763-0.948,1.763-2.255c0-0.983-0.492-2.231-1.739-2.231C-304.663,385.755-305.203,386.906-305.203,388.01z"/>
		<path d="M-299.262,386.906c0-0.684-0.012-1.271-0.048-1.811h0.923l0.036,1.14h0.048c0.264-0.78,0.899-1.271,1.607-1.271
			c0.12,0,0.204,0.012,0.3,0.036v0.995c-0.108-0.024-0.216-0.036-0.36-0.036c-0.744,0-1.271,0.563-1.416,1.355
			c-0.024,0.144-0.048,0.312-0.048,0.491v3.095h-1.043V386.906z"/>
		<path d="M-295.29,386.667c0-0.6-0.012-1.092-0.048-1.571h0.923l0.048,0.936h0.036c0.324-0.552,0.864-1.067,1.823-1.067
			c0.792,0,1.391,0.479,1.643,1.163h0.024c0.18-0.324,0.408-0.575,0.647-0.756c0.348-0.264,0.731-0.407,1.283-0.407
			c0.768,0,1.907,0.504,1.907,2.519v3.418h-1.032v-3.286c0-1.115-0.408-1.787-1.259-1.787c-0.6,0-1.067,0.443-1.247,0.96
			c-0.048,0.144-0.084,0.335-0.084,0.527v3.586h-1.032v-3.479c0-0.923-0.408-1.595-1.211-1.595c-0.66,0-1.14,0.527-1.308,1.056
			c-0.06,0.155-0.084,0.336-0.084,0.516v3.502h-1.031V386.667z"/>
		<path d="M-449.621,401.786l5.565-2.867v0.828l-4.689,2.351v0.023l4.689,2.352v0.827l-5.565-2.866V401.786z"/>
		<path d="M-442.385,401.066c0-0.6-0.012-1.092-0.048-1.571h0.936l0.06,0.959h0.024c0.288-0.552,0.959-1.091,1.919-1.091
			c0.803,0,2.051,0.479,2.051,2.471v3.466h-1.056v-3.346c0-0.936-0.348-1.716-1.343-1.716c-0.695,0-1.235,0.492-1.415,1.08
			c-0.048,0.132-0.072,0.312-0.072,0.491v3.49h-1.056V401.066z"/>
		<path d="M-435.497,399.495l1.271,3.43c0.132,0.384,0.276,0.84,0.372,1.188h0.024c0.108-0.348,0.228-0.791,0.372-1.211l1.151-3.406
			h1.115l-1.583,4.138c-0.756,1.991-1.271,3.01-1.991,3.634c-0.516,0.456-1.031,0.636-1.295,0.684l-0.264-0.888
			c0.264-0.084,0.612-0.252,0.924-0.516c0.288-0.228,0.647-0.636,0.887-1.175c0.048-0.108,0.084-0.192,0.084-0.252
			c0-0.061-0.024-0.145-0.072-0.276l-2.147-5.349H-435.497z"/>
		<path d="M-428.958,397.828v1.667h1.511v0.804h-1.511v3.13c0,0.72,0.204,1.128,0.792,1.128c0.276,0,0.479-0.036,0.611-0.072
			l0.048,0.791c-0.204,0.084-0.528,0.145-0.936,0.145c-0.492,0-0.888-0.156-1.14-0.444c-0.3-0.312-0.408-0.827-0.408-1.511v-3.166
			h-0.899v-0.804h0.899v-1.392L-428.958,397.828z"/>
		<path d="M-421.136,406.199v0.6h-5.997v-0.6H-421.136z"/>
		<path d="M-419.669,402.589c0.024,1.428,0.936,2.016,1.991,2.016c0.755,0,1.211-0.132,1.607-0.3l0.18,0.755
			c-0.372,0.168-1.007,0.36-1.931,0.36c-1.787,0-2.854-1.176-2.854-2.927s1.032-3.13,2.723-3.13c1.895,0,2.399,1.667,2.399,2.734
			c0,0.216-0.024,0.384-0.036,0.491H-419.669z M-416.575,401.834c0.012-0.672-0.276-1.715-1.463-1.715
			c-1.067,0-1.535,0.983-1.619,1.715H-416.575z"/>
		<path d="M-413.789,399.495l0.828,1.247c0.216,0.324,0.396,0.624,0.587,0.947h0.036c0.192-0.348,0.384-0.647,0.576-0.959
			l0.815-1.235h1.14l-1.979,2.807l2.039,2.998h-1.2l-0.851-1.308c-0.228-0.336-0.42-0.659-0.624-1.007h-0.024
			c-0.192,0.348-0.396,0.659-0.612,1.007l-0.839,1.308h-1.164l2.063-2.962l-1.967-2.843H-413.789z"/>
		<path d="M-408.725,401.39c0-0.743-0.024-1.343-0.048-1.895h0.947l0.048,0.995h0.024c0.432-0.707,1.115-1.127,2.063-1.127
			c1.403,0,2.459,1.188,2.459,2.95c0,2.087-1.271,3.118-2.639,3.118c-0.768,0-1.439-0.336-1.787-0.911h-0.024v3.154h-1.043V401.39z
			 M-407.682,402.938c0,0.155,0.024,0.3,0.048,0.432c0.192,0.731,0.828,1.235,1.583,1.235c1.116,0,1.763-0.912,1.763-2.243
			c0-1.163-0.612-2.159-1.727-2.159c-0.72,0-1.391,0.517-1.595,1.308c-0.036,0.132-0.072,0.288-0.072,0.432V402.938z"/>
		<path d="M-396.644,402.35c0,2.146-1.487,3.082-2.89,3.082c-1.571,0-2.783-1.151-2.783-2.986c0-1.943,1.271-3.082,2.878-3.082
			C-397.771,399.363-396.644,400.574-396.644,402.35z M-401.25,402.409c0,1.271,0.732,2.231,1.763,2.231
			c1.007,0,1.763-0.948,1.763-2.255c0-0.983-0.492-2.231-1.739-2.231C-400.709,400.154-401.25,401.306-401.25,402.409z"/>
		<path d="M-395.309,401.306c0-0.684-0.012-1.271-0.048-1.811h0.923l0.036,1.14h0.048c0.264-0.78,0.899-1.271,1.607-1.271
			c0.12,0,0.204,0.012,0.3,0.036v0.995c-0.108-0.024-0.216-0.036-0.36-0.036c-0.744,0-1.271,0.563-1.416,1.355
			c-0.024,0.144-0.048,0.312-0.048,0.491v3.095h-1.043V401.306z"/>
		<path d="M-389.826,397.828v1.667h1.511v0.804h-1.511v3.13c0,0.72,0.204,1.128,0.792,1.128c0.276,0,0.479-0.036,0.611-0.072
			l0.048,0.791c-0.204,0.084-0.528,0.145-0.936,0.145c-0.492,0-0.888-0.156-1.14-0.444c-0.3-0.312-0.408-0.827-0.408-1.511v-3.166
			h-0.899v-0.804h0.899v-1.392L-389.826,397.828z"/>
		<path d="M-382.004,406.199v0.6h-5.997v-0.6H-382.004z"/>
		<path d="M-376.988,405.084c-0.276,0.144-0.887,0.336-1.667,0.336c-1.751,0-2.891-1.188-2.891-2.963
			c0-1.787,1.224-3.082,3.119-3.082c0.624,0,1.175,0.156,1.463,0.3l-0.24,0.815c-0.252-0.144-0.647-0.275-1.223-0.275
			c-1.332,0-2.051,0.983-2.051,2.194c0,1.344,0.864,2.171,2.015,2.171c0.6,0,0.996-0.156,1.295-0.288L-376.988,405.084z"/>
		<path d="M-370.568,402.35c0,2.146-1.487,3.082-2.89,3.082c-1.571,0-2.783-1.151-2.783-2.986c0-1.943,1.271-3.082,2.878-3.082
			C-371.695,399.363-370.568,400.574-370.568,402.35z M-375.174,402.409c0,1.271,0.732,2.231,1.763,2.231
			c1.007,0,1.763-0.948,1.763-2.255c0-0.983-0.492-2.231-1.739-2.231C-374.634,400.154-375.174,401.306-375.174,402.409z"/>
		<path d="M-364.22,396.784v7.017c0,0.516,0.012,1.104,0.048,1.499h-0.947l-0.048-1.008h-0.024c-0.324,0.648-1.032,1.14-1.979,1.14
			c-1.403,0-2.483-1.188-2.483-2.95c-0.012-1.931,1.188-3.118,2.603-3.118c0.888,0,1.487,0.42,1.751,0.888h0.024v-3.467H-364.22z
			 M-365.275,401.857c0-0.132-0.012-0.312-0.048-0.443c-0.156-0.672-0.731-1.224-1.523-1.224c-1.091,0-1.739,0.96-1.739,2.243
			c0,1.175,0.576,2.146,1.715,2.146c0.708,0,1.355-0.468,1.547-1.259c0.036-0.145,0.048-0.288,0.048-0.456V401.857z"/>
		<path d="M-361.877,402.589c0.024,1.428,0.935,2.016,1.991,2.016c0.755,0,1.211-0.132,1.607-0.3l0.18,0.755
			c-0.372,0.168-1.007,0.36-1.931,0.36c-1.787,0-2.854-1.176-2.854-2.927s1.032-3.13,2.723-3.13c1.895,0,2.399,1.667,2.399,2.734
			c0,0.216-0.024,0.384-0.036,0.491H-361.877z M-358.783,401.834c0.012-0.672-0.276-1.715-1.463-1.715
			c-1.067,0-1.535,0.983-1.619,1.715H-358.783z"/>
		<path d="M-350.973,402.445l-5.565,2.854v-0.827l4.726-2.352v-0.023l-4.726-2.351v-0.828l5.565,2.854V402.445z"/>
		<path d="M-346.087,405.3l-0.084-0.731h-0.036c-0.324,0.456-0.947,0.863-1.775,0.863c-1.175,0-1.775-0.827-1.775-1.667
			c0-1.403,1.247-2.171,3.49-2.159v-0.119c0-0.48-0.132-1.344-1.319-1.344c-0.54,0-1.103,0.168-1.511,0.432l-0.24-0.695
			c0.48-0.312,1.176-0.516,1.907-0.516c1.775,0,2.207,1.211,2.207,2.374v2.171c0,0.504,0.024,0.996,0.096,1.392H-346.087z
			 M-346.243,402.338c-1.151-0.024-2.459,0.18-2.459,1.307c0,0.684,0.456,1.008,0.996,1.008c0.755,0,1.235-0.479,1.403-0.972
			c0.036-0.108,0.06-0.228,0.06-0.336V402.338z"/>
		<path d="M-343.518,401.306c0-0.684-0.012-1.271-0.048-1.811h0.923l0.036,1.14h0.048c0.264-0.78,0.899-1.271,1.607-1.271
			c0.12,0,0.204,0.012,0.3,0.036v0.995c-0.108-0.024-0.216-0.036-0.359-0.036c-0.744,0-1.271,0.563-1.416,1.355
			c-0.024,0.144-0.048,0.312-0.048,0.491v3.095h-1.043V401.306z"/>
		<path d="M-338.035,397.828v1.667h1.511v0.804h-1.511v3.13c0,0.72,0.204,1.128,0.792,1.128c0.276,0,0.479-0.036,0.611-0.072
			l0.048,0.791c-0.204,0.084-0.528,0.145-0.936,0.145c-0.492,0-0.888-0.156-1.14-0.444c-0.3-0.312-0.408-0.827-0.408-1.511v-3.166
			h-0.899v-0.804h0.899v-1.392L-338.035,397.828z"/>
		<path d="M-335.382,405.3c0.024-0.396,0.048-0.983,0.048-1.499v-7.017h1.043v3.646h0.024c0.372-0.647,1.043-1.067,1.979-1.067
			c1.439,0,2.458,1.199,2.447,2.962c0,2.075-1.308,3.106-2.603,3.106c-0.84,0-1.511-0.324-1.943-1.092h-0.036l-0.048,0.96H-335.382z
			 M-334.291,402.973c0,0.133,0.024,0.265,0.048,0.384c0.204,0.732,0.816,1.235,1.583,1.235c1.103,0,1.763-0.899,1.763-2.23
			c0-1.163-0.6-2.159-1.727-2.159c-0.72,0-1.391,0.492-1.607,1.296c-0.024,0.12-0.06,0.264-0.06,0.432V402.973z"/>
		<path d="M-323.253,402.35c0,2.146-1.487,3.082-2.89,3.082c-1.571,0-2.783-1.151-2.783-2.986c0-1.943,1.271-3.082,2.878-3.082
			C-324.38,399.363-323.253,400.574-323.253,402.35z M-327.859,402.409c0,1.271,0.732,2.231,1.763,2.231
			c1.007,0,1.763-0.948,1.763-2.255c0-0.983-0.492-2.231-1.739-2.231C-327.319,400.154-327.859,401.306-327.859,402.409z"/>
		<path d="M-318.704,405.3l-0.084-0.731h-0.036c-0.324,0.456-0.947,0.863-1.775,0.863c-1.175,0-1.775-0.827-1.775-1.667
			c0-1.403,1.247-2.171,3.49-2.159v-0.119c0-0.48-0.132-1.344-1.319-1.344c-0.54,0-1.104,0.168-1.511,0.432l-0.24-0.695
			c0.48-0.312,1.175-0.516,1.907-0.516c1.775,0,2.207,1.211,2.207,2.374v2.171c0,0.504,0.024,0.996,0.096,1.392H-318.704z
			 M-318.86,402.338c-1.151-0.024-2.458,0.18-2.458,1.307c0,0.684,0.456,1.008,0.996,1.008c0.755,0,1.235-0.479,1.403-0.972
			c0.036-0.108,0.06-0.228,0.06-0.336V402.338z"/>
		<path d="M-316.134,401.306c0-0.684-0.012-1.271-0.048-1.811h0.923l0.036,1.14h0.048c0.264-0.78,0.899-1.271,1.607-1.271
			c0.12,0,0.204,0.012,0.3,0.036v0.995c-0.108-0.024-0.216-0.036-0.36-0.036c-0.744,0-1.271,0.563-1.416,1.355
			c-0.024,0.144-0.048,0.312-0.048,0.491v3.095h-1.043V401.306z"/>
		<path d="M-307.317,396.784v7.017c0,0.516,0.012,1.104,0.048,1.499h-0.947l-0.048-1.008h-0.024c-0.324,0.648-1.032,1.14-1.979,1.14
			c-1.403,0-2.483-1.188-2.483-2.95c-0.012-1.931,1.188-3.118,2.603-3.118c0.888,0,1.487,0.42,1.751,0.888h0.024v-3.467H-307.317z
			 M-308.373,401.857c0-0.132-0.012-0.312-0.048-0.443c-0.156-0.672-0.731-1.224-1.523-1.224c-1.091,0-1.739,0.96-1.739,2.243
			c0,1.175,0.576,2.146,1.715,2.146c0.708,0,1.355-0.468,1.547-1.259c0.036-0.145,0.048-0.288,0.048-0.456V401.857z"/>
		<path d="M-305.707,404.221c0.312,0.203,0.864,0.42,1.392,0.42c0.768,0,1.127-0.384,1.127-0.864c0-0.504-0.3-0.779-1.079-1.067
			c-1.043-0.371-1.535-0.947-1.535-1.643c0-0.936,0.755-1.703,2.003-1.703c0.587,0,1.103,0.168,1.427,0.359l-0.264,0.768
			c-0.228-0.144-0.647-0.336-1.187-0.336c-0.624,0-0.972,0.36-0.972,0.792c0,0.479,0.348,0.695,1.104,0.983
			c1.007,0.384,1.523,0.888,1.523,1.751c0,1.02-0.792,1.739-2.171,1.739c-0.635,0-1.223-0.156-1.631-0.396L-305.707,404.221z"/>
		<path d="M-300.895,401.786l5.565-2.867v0.828l-4.689,2.351v0.023l4.689,2.352v0.827l-5.565-2.866V401.786z"/>
		<path d="M-294.546,405.779l3.346-8.695h0.816l-3.358,8.695H-294.546z"/>
		<path d="M-289.542,401.066c0-0.6-0.012-1.092-0.048-1.571h0.936l0.06,0.959h0.024c0.288-0.552,0.959-1.091,1.919-1.091
			c0.803,0,2.051,0.479,2.051,2.471v3.466h-1.056v-3.346c0-0.936-0.348-1.716-1.343-1.716c-0.695,0-1.235,0.492-1.415,1.08
			c-0.048,0.132-0.072,0.312-0.072,0.491v3.49h-1.056V401.066z"/>
		<path d="M-454.708,416.187l5.565-2.867v0.828l-4.689,2.351v0.023l4.689,2.352v0.827l-5.565-2.866V416.187z"/>
		<path d="M-448.36,420.18l3.346-8.695h0.816l-3.358,8.695H-448.36z"/>
		<path d="M-443.357,415.467c0-0.6-0.012-1.092-0.048-1.571h0.936l0.06,0.959h0.024c0.288-0.552,0.959-1.091,1.919-1.091
			c0.803,0,2.051,0.479,2.051,2.471v3.466h-1.056v-3.346c0-0.936-0.348-1.716-1.343-1.716c-0.695,0-1.235,0.492-1.415,1.08
			c-0.048,0.132-0.072,0.312-0.072,0.491v3.49h-1.056V415.467z"/>
		<path d="M-436.469,413.896l1.271,3.43c0.132,0.384,0.276,0.84,0.372,1.188h0.024c0.108-0.348,0.228-0.791,0.372-1.211l1.151-3.406
			h1.115l-1.583,4.138c-0.756,1.991-1.271,3.01-1.991,3.634c-0.516,0.456-1.031,0.636-1.295,0.684l-0.264-0.888
			c0.264-0.084,0.612-0.252,0.924-0.516c0.288-0.228,0.647-0.636,0.887-1.175c0.048-0.108,0.084-0.192,0.084-0.252
			c0-0.061-0.024-0.145-0.072-0.276l-2.147-5.349H-436.469z"/>
		<path d="M-429.929,412.229v1.667h1.511v0.804h-1.511v3.13c0,0.72,0.204,1.128,0.792,1.128c0.276,0,0.479-0.036,0.611-0.072
			l0.048,0.791c-0.204,0.084-0.528,0.145-0.936,0.145c-0.492,0-0.888-0.156-1.14-0.444c-0.3-0.312-0.408-0.827-0.408-1.511v-3.166
			h-0.899v-0.804h0.899v-1.392L-429.929,412.229z"/>
		<path d="M-422.108,420.6v0.6h-5.997v-0.6H-422.108z"/>
		<path d="M-421.229,415.79c0-0.743-0.024-1.343-0.048-1.895h0.947l0.048,0.995h0.024c0.432-0.707,1.115-1.127,2.063-1.127
			c1.403,0,2.459,1.188,2.459,2.95c0,2.087-1.271,3.118-2.639,3.118c-0.768,0-1.439-0.336-1.787-0.911h-0.024v3.154h-1.043V415.79z
			 M-420.186,417.338c0,0.155,0.024,0.3,0.048,0.432c0.192,0.731,0.828,1.235,1.583,1.235c1.116,0,1.763-0.912,1.763-2.243
			c0-1.163-0.612-2.159-1.727-2.159c-0.72,0-1.391,0.517-1.595,1.308c-0.036,0.132-0.072,0.288-0.072,0.432V417.338z"/>
		<path d="M-414.401,415.706c0-0.684-0.012-1.271-0.048-1.811h0.923l0.036,1.14h0.048c0.264-0.78,0.899-1.271,1.607-1.271
			c0.12,0,0.204,0.012,0.3,0.036v0.995c-0.108-0.024-0.216-0.036-0.36-0.036c-0.744,0-1.271,0.563-1.416,1.355
			c-0.024,0.144-0.048,0.312-0.048,0.491v3.095h-1.043V415.706z"/>
		<path d="M-410.009,416.989c0.024,1.428,0.935,2.016,1.991,2.016c0.755,0,1.211-0.132,1.607-0.3l0.18,0.755
			c-0.372,0.168-1.007,0.36-1.931,0.36c-1.787,0-2.854-1.176-2.854-2.927s1.032-3.13,2.723-3.13c1.895,0,2.399,1.667,2.399,2.734
			c0,0.216-0.024,0.384-0.036,0.491H-410.009z M-406.915,416.234c0.012-0.672-0.276-1.715-1.463-1.715
			c-1.067,0-1.535,0.983-1.619,1.715H-406.915z"/>
		<path d="M-404.477,419.7v-5.001h-0.815v-0.804h0.815v-0.276c0-0.815,0.18-1.559,0.672-2.026c0.396-0.384,0.923-0.54,1.415-0.54
			c0.372,0,0.696,0.084,0.899,0.168l-0.144,0.815c-0.156-0.071-0.372-0.132-0.671-0.132c-0.899,0-1.127,0.792-1.127,1.68v0.312
			h1.403v0.804h-1.403v5.001H-404.477z"/>
		<path d="M-401.333,418.621c0.312,0.203,0.864,0.42,1.392,0.42c0.768,0,1.127-0.384,1.127-0.864c0-0.504-0.3-0.779-1.079-1.067
			c-1.043-0.371-1.535-0.947-1.535-1.643c0-0.936,0.755-1.703,2.003-1.703c0.587,0,1.104,0.168,1.427,0.359l-0.264,0.768
			c-0.228-0.144-0.647-0.336-1.187-0.336c-0.624,0-0.972,0.36-0.972,0.792c0,0.479,0.348,0.695,1.104,0.983
			c1.007,0.384,1.523,0.888,1.523,1.751c0,1.02-0.792,1.739-2.171,1.739c-0.635,0-1.223-0.156-1.631-0.396L-401.333,418.621z"/>
		<path d="M-390.956,416.846l-5.565,2.854v-0.827l4.726-2.352v-0.023l-4.726-2.351v-0.828l5.565,2.854V416.846z"/>
	</g>
</g>
</svg>
