<?xml version="1.0" encoding="iso-8859-1"?>
<!-- Generator: Adobe Illustrator 16.0.3, SVG Export Plug-In . SVG Version: 6.00 Build 0)  -->
<!DOCTYPE svg PUBLIC "-//W3C//DTD SVG 1.1//EN" "http://www.w3.org/Graphics/SVG/1.1/DTD/svg11.dtd">
<svg version="1.1" xmlns="http://www.w3.org/2000/svg" xmlns:xlink="http://www.w3.org/1999/xlink" x="0px" y="0px" width="280px"
	 height="150px" viewBox="-866.5 288.5 280 150" style="enable-background:new -866.5 288.5 280 150;" xml:space="preserve">
<g id="Layer_1">
	<g id="New_Symbol_2">
	</g>
	<g id="New_Symbol_3_">
	</g>
	<g id="New_Symbol_2_">
	</g>
	<g id="New_Symbol_1_">
	</g>
	<g id="New_Symbol">
	</g>
	<g>
		<g>
			<g>
				<g>
					<g>
						<g>
							<g>
								<g>
									<g>
										<g>
											<g>
												<g>
													<g>
														<g id="Layer_1_92_">
															<g>
																<g>
																	<g>
																		<g>
																			<g>
																				<g>
																					<g>
																						<g>
																							<g style="opacity:0;">
																								<rect x="-866.5" y="288.5" style="fill:#FFFFFF;" width="280" height="150"/>
																							</g>
																						</g>
																					</g>
																				</g>
																			</g>
																		</g>
																	</g>
																</g>
															</g>
														</g>
													</g>
												</g>
											</g>
										</g>
									</g>
								</g>
							</g>
						</g>
					</g>
				</g>
			</g>
			<g>
				<circle style="fill:#C8C8C8;" cx="-722.134" cy="397.3" r="3"/>
			</g>
			<g>
				<path style="fill:#E1E1E1;" d="M-745.441,400.619c-0.507,0-0.942-0.384-0.994-0.899c-0.082-0.811-0.123-1.633-0.123-2.442
					c0-1.265,0.101-2.541,0.299-3.794c0.086-0.545,0.606-0.92,1.144-0.831c0.545,0.086,0.918,0.599,0.832,1.144
					c-0.182,1.149-0.274,2.321-0.274,3.481c0,0.743,0.038,1.497,0.113,2.241c0.055,0.55-0.345,1.04-0.895,1.096
					C-745.374,400.617-745.408,400.619-745.441,400.619z M-743.587,388.899c-0.134,0-0.271-0.027-0.402-0.084
					c-0.505-0.223-0.735-0.813-0.513-1.318c0.839-1.911,1.92-3.709,3.212-5.346c0.342-0.435,0.971-0.506,1.404-0.165
					c0.434,0.343,0.507,0.972,0.165,1.405c-1.187,1.502-2.18,3.154-2.951,4.91C-742.835,388.677-743.202,388.899-743.587,388.899z
					 M-736.227,379.588c-0.303,0-0.603-0.138-0.799-0.397c-0.333-0.441-0.245-1.068,0.196-1.401
					c1.667-1.257,3.491-2.294,5.424-3.085c0.51-0.208,1.095,0.036,1.304,0.547c0.209,0.512-0.036,1.096-0.547,1.305
					c-1.773,0.725-3.447,1.678-4.977,2.831C-735.806,379.522-736.018,379.588-736.227,379.588z M-708.241,379.445
					c-0.206,0-0.414-0.063-0.592-0.194c-1.542-1.136-3.227-2.072-5.008-2.784c-0.513-0.205-0.763-0.787-0.558-1.3
					c0.206-0.514,0.787-0.766,1.3-0.558c1.939,0.775,3.773,1.795,5.452,3.03c0.445,0.328,0.54,0.954,0.212,1.398
					C-707.631,379.305-707.934,379.445-708.241,379.445z M-725.25,375.085c-0.493,0-0.922-0.364-0.99-0.866
					c-0.074-0.548,0.31-1.051,0.857-1.125c2.068-0.278,4.178-0.292,6.24-0.036c0.548,0.067,0.938,0.566,0.87,1.115
					c-0.068,0.548-0.568,0.948-1.115,0.869c-1.892-0.233-3.828-0.222-5.727,0.034C-725.16,375.082-725.205,375.085-725.25,375.085z"
					/>
			</g>
			<g>
				<g>
					<path style="fill:#E1E1E1;" d="M-739.262,361.576c-0.376,0-0.737-0.214-0.907-0.577c-0.233-0.501-0.017-1.096,0.483-1.329
						c9.171-4.278,19.563-5.062,29.26-2.206c0.53,0.155,0.833,0.712,0.677,1.241c-0.156,0.53-0.712,0.836-1.242,0.677
						c-9.23-2.717-19.12-1.972-27.85,2.101C-738.977,361.546-739.121,361.576-739.262,361.576z"/>
					<g>
						<polygon style="fill:#E1E1E1;" points="-710.525,354.376 -705.329,360.428 -713.168,361.903 						"/>
					</g>
				</g>
			</g>
			<g>
				<path style="fill:#E1E1E1;" d="M-667.557,413.238c-0.088,0-0.177-0.012-0.266-0.036c-0.533-0.146-0.845-0.697-0.698-1.229
					c0.52-1.887,0.946-3.823,1.267-5.755c0.09-0.545,0.606-0.919,1.15-0.822c0.545,0.09,0.914,0.605,0.823,1.15
					c-0.332,2-0.773,4.005-1.312,5.958C-666.716,412.947-667.118,413.238-667.557,413.238z M-665.599,401.421
					c-0.02,0-0.04-0.001-0.06-0.002c-0.551-0.032-0.972-0.506-0.939-1.058c0.064-1.09,0.097-2.194,0.097-3.282
					c0-0.869-0.021-1.738-0.062-2.607c-0.026-0.552,0.4-1.02,0.952-1.046c0.555-0.012,1.02,0.4,1.046,0.952
					c0.042,0.9,0.063,1.801,0.063,2.701c0,1.127-0.034,2.271-0.101,3.401C-664.633,401.011-665.073,401.421-665.599,401.421z
					 M-666.167,389.458c-0.484,0-0.91-0.353-0.987-0.847c-0.3-1.935-0.709-3.873-1.214-5.762c-0.143-0.534,0.174-1.082,0.708-1.225
					c0.531-0.145,1.081,0.174,1.224,0.707c0.524,1.958,0.948,3.968,1.259,5.973c0.084,0.546-0.289,1.057-0.835,1.142
					C-666.063,389.454-666.115,389.458-666.167,389.458z M-669.262,377.891c-0.401,0-0.779-0.242-0.933-0.639
					c-0.705-1.823-1.518-3.63-2.415-5.371c-0.253-0.491-0.06-1.094,0.431-1.347c0.491-0.256,1.094-0.061,1.347,0.431
					c0.929,1.804,1.771,3.677,2.502,5.564c0.199,0.516-0.057,1.095-0.572,1.294C-669.02,377.869-669.142,377.891-669.262,377.891z
					 M-674.741,367.245c-0.326,0-0.645-0.159-0.837-0.451c-0.258-0.394-0.522-0.785-0.792-1.175
					c-0.848-1.226-1.753-2.429-2.691-3.577c-0.349-0.429-0.285-1.059,0.143-1.407c0.427-0.35,1.058-0.287,1.407,0.142
					c0.971,1.189,1.908,2.436,2.786,3.704c0.279,0.403,0.552,0.809,0.819,1.216c0.303,0.462,0.174,1.082-0.288,1.385
					C-674.363,367.192-674.553,367.245-674.741,367.245z M-682.322,357.969c-0.254,0-0.508-0.097-0.704-0.289
					c-1.389-1.375-2.871-2.693-4.403-3.917c-0.432-0.345-0.502-0.974-0.157-1.405c0.345-0.431,0.974-0.502,1.405-0.157
					c1.588,1.268,3.123,2.633,4.563,4.058c0.393,0.389,0.396,1.021,0.007,1.414C-681.807,357.87-682.064,357.969-682.322,357.969z
					 M-754.005,351.453c-0.32,0-0.634-0.153-0.828-0.438c-0.311-0.457-0.192-1.079,0.265-1.39c1.682-1.144,3.437-2.208,5.215-3.163
					c0.486-0.263,1.092-0.079,1.354,0.407c0.261,0.487,0.079,1.093-0.408,1.354c-1.717,0.923-3.412,1.951-5.037,3.056
					C-753.616,351.397-753.812,351.453-754.005,351.453z M-691.688,350.496c-0.184,0-0.37-0.051-0.536-0.156
					c-1.651-1.051-3.377-2.023-5.131-2.893c-0.495-0.246-0.697-0.846-0.452-1.341c0.245-0.493,0.846-0.698,1.34-0.451
					c1.817,0.9,3.606,1.908,5.316,2.997c0.466,0.297,0.604,0.915,0.307,1.381C-691.033,350.332-691.357,350.496-691.688,350.496z
					 M-743.454,345.792c-0.395,0-0.768-0.234-0.926-0.622c-0.209-0.512,0.037-1.096,0.548-1.304
					c1.875-0.765,3.815-1.438,5.767-1.998c0.531-0.15,1.085,0.154,1.237,0.685c0.153,0.531-0.154,1.085-0.685,1.237
					c-1.883,0.541-3.755,1.19-5.564,1.928C-743.201,345.769-743.329,345.792-743.454,345.792z M-702.417,345.174
					c-0.115,0-0.233-0.02-0.347-0.063c-1.836-0.68-3.729-1.269-5.625-1.751c-0.535-0.136-0.859-0.68-0.723-1.215
					c0.137-0.535,0.679-0.86,1.216-0.723c1.964,0.499,3.925,1.109,5.827,1.813c0.518,0.191,0.782,0.767,0.591,1.284
					C-701.629,344.925-702.011,345.174-702.417,345.174z M-731.947,342.482c-0.477,0-0.898-0.342-0.984-0.827
					c-0.096-0.544,0.268-1.063,0.812-1.158c1.992-0.35,4.031-0.597,6.06-0.733c0.541-0.027,1.028,0.38,1.064,0.931
					c0.037,0.552-0.379,1.028-0.931,1.065c-1.958,0.132-3.925,0.369-5.847,0.708C-731.832,342.478-731.89,342.482-731.947,342.482z
					 M-714.024,342.222c-0.048,0-0.096-0.003-0.145-0.011c-1.939-0.28-3.913-0.461-5.867-0.536c-0.552-0.021-0.982-0.485-0.96-1.037
					s0.48-0.975,1.038-0.961c2.024,0.078,4.068,0.265,6.076,0.556c0.547,0.079,0.926,0.586,0.847,1.133
					C-713.108,341.863-713.535,342.222-714.024,342.222z"/>
			</g>
			<g>
				<path style="fill:#E1E1E1;" d="M-797.431,405.704c-0.492,0-0.921-0.363-0.989-0.865c-0.221-1.623-0.39-3.264-0.502-4.876
					c-0.039-0.551,0.377-1.028,0.928-1.067c0.558-0.027,1.029,0.378,1.067,0.929c0.109,1.568,0.274,3.165,0.489,4.745
					c0.075,0.547-0.309,1.051-0.856,1.126C-797.341,405.701-797.386,405.704-797.431,405.704z M-798.094,394.897
					c-0.005,0-0.009,0-0.014,0c-0.552-0.008-0.994-0.461-0.987-1.014c0.027-2.021,0.14-4.063,0.337-6.07
					c0.054-0.55,0.537-0.948,1.093-0.897c0.549,0.054,0.951,0.543,0.897,1.093c-0.191,1.951-0.301,3.938-0.327,5.902
					C-797.102,394.458-797.548,394.897-798.094,394.897z M-796.925,382.974c-0.06,0-0.121-0.005-0.183-0.017
					c-0.543-0.101-0.902-0.622-0.802-1.165c0.367-1.988,0.823-3.982,1.357-5.929c0.146-0.533,0.694-0.843,1.229-0.7
					c0.532,0.146,0.846,0.696,0.7,1.229c-0.519,1.892-0.962,3.83-1.319,5.763C-796.032,382.637-796.452,382.974-796.925,382.974z
					 M-793.759,371.421c-0.115,0-0.231-0.02-0.345-0.062c-0.519-0.19-0.784-0.766-0.593-1.284c0.696-1.892,1.483-3.779,2.339-5.612
					c0.233-0.501,0.83-0.714,1.329-0.482c0.5,0.234,0.716,0.829,0.482,1.33c-0.833,1.781-1.598,3.617-2.274,5.456
					C-792.97,371.171-793.352,371.421-793.759,371.421z M-788.688,360.566c-0.169,0-0.34-0.043-0.497-0.133
					c-0.479-0.274-0.644-0.886-0.369-1.365c1.004-1.749,2.096-3.479,3.247-5.143c0.313-0.454,0.937-0.567,1.391-0.253
					c0.454,0.314,0.568,0.937,0.253,1.392c-1.119,1.617-2.181,3.299-3.157,5C-788.004,360.387-788.341,360.566-788.688,360.566z
					 M-781.872,350.709c-0.224,0-0.448-0.074-0.634-0.228c-0.427-0.351-0.488-0.98-0.138-1.407c1.28-1.558,2.644-3.084,4.052-4.534
					c0.384-0.396,1.018-0.406,1.414-0.021s0.405,1.018,0.021,1.414c-1.37,1.412-2.696,2.896-3.942,4.411
					C-781.297,350.584-781.583,350.709-781.872,350.709z M-669.213,344.228c-0.239,0-0.479-0.085-0.67-0.258
					c-1.458-1.318-2.986-2.598-4.541-3.804c-0.437-0.338-0.516-0.967-0.177-1.403c0.338-0.437,0.968-0.516,1.403-0.177
					c1.594,1.236,3.161,2.548,4.656,3.899c0.41,0.371,0.442,1.003,0.071,1.413C-668.668,344.116-668.94,344.228-669.213,344.228z
					 M-773.522,342.106c-0.278,0-0.556-0.115-0.753-0.342c-0.363-0.416-0.321-1.048,0.095-1.411
					c1.518-1.327,3.112-2.609,4.737-3.812c0.444-0.33,1.07-0.234,1.399,0.209c0.328,0.444,0.234,1.07-0.209,1.398
					c-1.583,1.17-3.133,2.418-4.61,3.71C-773.054,342.025-773.289,342.106-773.522,342.106z M-678.685,336.879
					c-0.189,0-0.381-0.054-0.551-0.166c-1.635-1.084-3.337-2.122-5.057-3.086c-0.482-0.27-0.654-0.879-0.384-1.361
					c0.271-0.481,0.881-0.653,1.361-0.383c1.763,0.988,3.507,2.052,5.184,3.162c0.46,0.306,0.586,0.926,0.281,1.386
					C-678.043,336.722-678.361,336.879-678.685,336.879z M-763.884,334.977c-0.334,0-0.661-0.168-0.851-0.473
					c-0.292-0.469-0.147-1.086,0.322-1.377c1.716-1.065,3.495-2.073,5.287-2.996c0.492-0.256,1.095-0.061,1.347,0.431
					c0.253,0.491,0.06,1.095-0.431,1.347c-1.745,0.898-3.478,1.881-5.148,2.918C-763.521,334.928-763.704,334.977-763.884,334.977z
					 M-689.142,331.021c-0.142,0-0.285-0.03-0.422-0.094c-1.779-0.829-3.615-1.604-5.458-2.301c-0.516-0.196-0.776-0.773-0.581-1.29
					c0.195-0.516,0.773-0.775,1.29-0.581c1.888,0.716,3.771,1.51,5.593,2.359c0.5,0.233,0.717,0.828,0.484,1.329
					C-688.405,330.807-688.766,331.021-689.142,331.021z M-753.229,329.489c-0.392,0-0.763-0.23-0.923-0.614
					c-0.213-0.51,0.028-1.096,0.537-1.309c1.855-0.774,3.771-1.487,5.694-2.119c0.526-0.174,1.09,0.114,1.262,0.639
					c0.172,0.524-0.114,1.09-0.638,1.262c-1.874,0.615-3.74,1.31-5.546,2.064C-752.97,329.465-753.101,329.489-753.229,329.489z
					 M-700.351,326.778c-0.094,0-0.189-0.013-0.284-0.041c-1.884-0.557-3.814-1.049-5.739-1.465
					c-0.54-0.117-0.883-0.648-0.766-1.188s0.646-0.885,1.189-0.767c1.972,0.427,3.951,0.932,5.882,1.502
					c0.53,0.156,0.833,0.713,0.676,1.242C-699.521,326.497-699.919,326.778-700.351,326.778z M-741.844,325.752
					c-0.45,0-0.859-0.306-0.971-0.763c-0.131-0.537,0.198-1.078,0.735-1.209c1.952-0.476,3.954-0.883,5.951-1.211
					c0.548-0.088,1.059,0.28,1.148,0.825c0.089,0.546-0.28,1.06-0.825,1.149c-1.946,0.318-3.898,0.716-5.801,1.18
					C-741.686,325.743-741.766,325.752-741.844,325.752z M-712.063,324.25c-0.046,0-0.092-0.003-0.138-0.01
					c-1.953-0.27-3.935-0.468-5.89-0.589c-0.551-0.034-0.971-0.509-0.937-1.06s0.512-0.953,1.06-0.937
					c2.006,0.124,4.039,0.327,6.041,0.604c0.547,0.075,0.93,0.58,0.854,1.127C-711.144,323.888-711.572,324.25-712.063,324.25z
					 M-730.019,323.809c-0.513,0-0.949-0.392-0.995-0.912c-0.049-0.55,0.358-1.035,0.908-1.084c2.005-0.178,4.046-0.28,6.066-0.307
					c0.004,0,0.009,0,0.013,0c0.546,0,0.993,0.439,1,0.987c0.007,0.552-0.435,1.006-0.987,1.013c-1.97,0.025-3.96,0.126-5.915,0.299
					C-729.959,323.808-729.989,323.809-730.019,323.809z"/>
			</g>
			<g>
				<path style="fill:#FABE00;" d="M-797.43,405.704c-0.377,0-0.723-0.212-0.893-0.551c-0.176-0.349-0.132-0.769,0.112-1.073
					l43.091-53.928c0.244-0.307,0.647-0.443,1.026-0.346c0.38,0.096,0.669,0.405,0.739,0.791l9.445,52.038
					c0.052,0.285-0.023,0.58-0.205,0.806c-0.182,0.227-0.453,0.362-0.743,0.372l-52.536,1.89
					C-797.406,405.704-797.418,405.704-797.43,405.704z M-754.93,353.118l-40.358,50.508l49.205-1.77L-754.93,353.118z"/>
			</g>
			<g>
				<path style="fill:#00D2FF;" d="M-667.558,413.238c-0.229,0-0.456-0.078-0.639-0.23l-40.685-33.792
					c-0.223-0.186-0.354-0.459-0.361-0.749c-0.006-0.29,0.115-0.568,0.33-0.763l39.032-35.215c0.291-0.262,0.707-0.331,1.065-0.177
					c0.359,0.155,0.595,0.504,0.604,0.895l1.652,69.007c0.01,0.393-0.211,0.754-0.564,0.925
					C-667.26,413.205-667.409,413.238-667.558,413.238z M-706.715,378.415l38.105,31.649l-1.548-64.631L-706.715,378.415z"/>
			</g>
		</g>
	</g>
</g>
<g id="Isolation_Mode">
</g>
<g id="nyt_x5F_exporter_x5F_info" style="display:none;">
</g>
</svg>
