<?xml version="1.0" encoding="iso-8859-1"?>
<!-- Generator: Adobe Illustrator 16.0.3, SVG Export Plug-In . SVG Version: 6.00 Build 0)  -->
<!DOCTYPE svg PUBLIC "-//W3C//DTD SVG 1.1//EN" "http://www.w3.org/Graphics/SVG/1.1/DTD/svg11.dtd">
<svg version="1.1" xmlns="http://www.w3.org/2000/svg" xmlns:xlink="http://www.w3.org/1999/xlink" x="0px" y="0px" width="280px"
	 height="150px" viewBox="-565.5 301.5 280 150" style="enable-background:new -565.5 301.5 280 150;" xml:space="preserve">
<g id="Layer_1">
	<g id="New_Symbol_2">
	</g>
	<g id="New_Symbol_3_">
	</g>
	<g id="New_Symbol_2_">
	</g>
	<g id="New_Symbol_1_">
	</g>
	<g id="New_Symbol">
	</g>
	<g>
		<g>
		</g>
	</g>
	<g>
		<g>
			<g>
				<path style="fill:#C8C8C8;" d="M-425.497,417.5c-22.609,0-41.003-18.396-41.003-41.006c0-22.604,18.394-40.994,41.003-40.994
					c22.606,0,40.997,18.39,40.997,40.994C-384.5,399.104-402.891,417.5-425.497,417.5z M-425.497,337.5
					c-21.506,0-39.003,17.493-39.003,38.994c0,21.508,17.497,39.006,39.003,39.006c21.503,0,38.997-17.498,38.997-39.006
					C-386.5,354.993-403.994,337.5-425.497,337.5z"/>
			</g>
			<g>
				<path style="fill:#00D2FF;" d="M-336.5,419.5c-0.093,0-0.188-0.013-0.282-0.041l-177-52c-0.53-0.155-0.833-0.711-0.678-1.241
					c0.156-0.529,0.712-0.835,1.241-0.677l177,52c0.53,0.155,0.833,0.711,0.678,1.241C-335.668,419.218-336.067,419.5-336.5,419.5z"
					/>
			</g>
			<g>
				<path style="fill:#FFFFFF;" d="M-425.5,379.5c-1.654,0-3-1.346-3-2.999c0-1.654,1.346-3.001,3-3.001s3,1.347,3,3.001
					C-422.5,378.154-423.846,379.5-425.5,379.5z"/>
				<path style="fill:#C8C8C8;" d="M-425.5,374.5c1.104,0,2,0.896,2,2.001c0,1.104-0.896,1.999-2,1.999s-2-0.896-2-1.999
					C-427.5,375.396-426.604,374.5-425.5,374.5 M-425.5,372.5c-2.206,0-4,1.795-4,4.001c0,2.205,1.794,3.999,4,3.999
					s4-1.794,4-3.999C-421.5,374.295-423.294,372.5-425.5,372.5L-425.5,372.5z"/>
			</g>
			<g>
				<g>
					<g>
						<g>
							<g>
								<g>
									<g>
										<g>
											<g>
												<g>
													<g>
														<g>
															<g>
																<g id="Layer_1_39_">
																	<g>
																		<g>
																			<g>
																				<g>
																					<g>
																						<g>
																							<g>
																								<g>
																									<g style="opacity:0;">
																										<rect x="-565.5" y="301.5" style="fill:#FFFFFF;" width="280" height="150"/>
																									</g>
																								</g>
																							</g>
																						</g>
																					</g>
																				</g>
																			</g>
																		</g>
																	</g>
																</g>
															</g>
														</g>
													</g>
												</g>
											</g>
										</g>
									</g>
								</g>
							</g>
						</g>
					</g>
				</g>
			</g>
		</g>
	</g>
	<g>
		<path style="fill:#FFFFFF;" d="M-465.5,383.5c-1.654,0-3-1.346-3-2.999c0-1.654,1.346-3.001,3-3.001s3,1.347,3,3.001
			C-462.5,382.154-463.846,383.5-465.5,383.5z"/>
		<path style="fill:#00D2FF;" d="M-465.5,378.5c1.104,0,2,0.896,2,2.001c0,1.104-0.896,1.999-2,1.999s-2-0.896-2-1.999
			C-467.5,379.396-466.604,378.5-465.5,378.5 M-465.5,376.5c-2.206,0-4,1.795-4,4.001c0,2.205,1.794,3.999,4,3.999s4-1.794,4-3.999
			C-461.5,378.295-463.294,376.5-465.5,376.5L-465.5,376.5z"/>
	</g>
	<g>
		<path style="fill:#FFFFFF;" d="M-394.5,404.5c-1.654,0-3-1.346-3-2.999c0-1.654,1.346-3.001,3-3.001s3,1.347,3,3.001
			C-391.5,403.154-392.846,404.5-394.5,404.5z"/>
		<path style="fill:#00D2FF;" d="M-394.5,399.5c1.104,0,2,0.896,2,2.001c0,1.104-0.896,1.999-2,1.999s-2-0.896-2-1.999
			C-396.5,400.396-395.604,399.5-394.5,399.5 M-394.5,397.5c-2.206,0-4,1.795-4,4.001c0,2.205,1.794,3.999,4,3.999s4-1.794,4-3.999
			C-390.5,399.295-392.294,397.5-394.5,397.5L-394.5,397.5z"/>
	</g>
</g>
<g id="Isolation_Mode">
</g>
<g id="nyt_x5F_exporter_x5F_info" style="display:none;">
	<g style="display:inline;">
		<path d="M-454.708,300.986l5.565-2.867v0.828l-4.689,2.351v0.023l4.689,2.352v0.827l-5.565-2.866V300.986z"/>
		<path d="M-447.473,300.267c0-0.6-0.012-1.092-0.048-1.571h0.936l0.06,0.959h0.024c0.288-0.552,0.959-1.091,1.919-1.091
			c0.803,0,2.051,0.479,2.051,2.471v3.466h-1.056v-3.346c0-0.936-0.348-1.716-1.343-1.716c-0.695,0-1.235,0.492-1.415,1.08
			c-0.048,0.132-0.072,0.312-0.072,0.491v3.49h-1.056V300.267z"/>
		<path d="M-440.584,298.695l1.271,3.43c0.132,0.384,0.276,0.84,0.372,1.188h0.024c0.108-0.348,0.228-0.791,0.372-1.211l1.151-3.406
			h1.115l-1.583,4.138c-0.756,1.991-1.271,3.011-1.991,3.634c-0.516,0.456-1.031,0.636-1.295,0.684l-0.264-0.888
			c0.264-0.084,0.612-0.252,0.924-0.516c0.288-0.228,0.647-0.636,0.887-1.175c0.048-0.108,0.084-0.192,0.084-0.252
			c0-0.061-0.024-0.145-0.072-0.276l-2.147-5.349H-440.584z"/>
		<path d="M-434.045,297.028v1.667h1.511v0.804h-1.511v3.13c0,0.72,0.204,1.128,0.792,1.128c0.276,0,0.479-0.036,0.612-0.072
			l0.048,0.791c-0.204,0.084-0.528,0.145-0.936,0.145c-0.492,0-0.888-0.156-1.14-0.444c-0.3-0.312-0.408-0.827-0.408-1.511v-3.166
			h-0.899v-0.804h0.899v-1.392L-434.045,297.028z"/>
		<path d="M-426.224,305.399v0.6h-5.997v-0.6H-426.224z"/>
		<path d="M-425.345,300.59c0-0.743-0.024-1.343-0.048-1.895h0.947l0.048,0.995h0.024c0.432-0.707,1.115-1.127,2.063-1.127
			c1.403,0,2.459,1.188,2.459,2.95c0,2.087-1.271,3.118-2.639,3.118c-0.768,0-1.439-0.336-1.787-0.911h-0.024v3.154h-1.043V300.59z
			 M-424.301,302.138c0,0.155,0.024,0.3,0.048,0.432c0.192,0.731,0.828,1.235,1.583,1.235c1.115,0,1.763-0.912,1.763-2.243
			c0-1.163-0.611-2.159-1.727-2.159c-0.72,0-1.391,0.517-1.595,1.308c-0.036,0.132-0.072,0.288-0.072,0.432V302.138z"/>
		<path d="M-418.517,300.506c0-0.684-0.012-1.271-0.048-1.811h0.923l0.036,1.14h0.048c0.264-0.78,0.899-1.271,1.607-1.271
			c0.12,0,0.204,0.012,0.3,0.036v0.995c-0.108-0.024-0.216-0.036-0.36-0.036c-0.744,0-1.271,0.563-1.416,1.355
			c-0.024,0.144-0.048,0.312-0.048,0.491v3.095h-1.043V300.506z"/>
		<path d="M-414.125,301.789c0.024,1.428,0.936,2.016,1.991,2.016c0.755,0,1.211-0.132,1.607-0.3l0.18,0.755
			c-0.372,0.168-1.007,0.36-1.931,0.36c-1.787,0-2.854-1.176-2.854-2.927s1.032-3.13,2.723-3.13c1.895,0,2.399,1.667,2.399,2.734
			c0,0.216-0.024,0.384-0.036,0.491H-414.125z M-411.031,301.034c0.012-0.672-0.276-1.716-1.463-1.716
			c-1.067,0-1.535,0.984-1.619,1.716H-411.031z"/>
		<path d="M-408.593,304.5v-5.001h-0.815v-0.804h0.815v-0.276c0-0.815,0.18-1.559,0.672-2.026c0.396-0.384,0.923-0.54,1.415-0.54
			c0.372,0,0.696,0.084,0.899,0.168l-0.144,0.815c-0.156-0.071-0.372-0.132-0.671-0.132c-0.899,0-1.127,0.792-1.127,1.68v0.312
			h1.403v0.804h-1.403v5.001H-408.593z"/>
		<path d="M-405.449,303.421c0.312,0.203,0.864,0.42,1.392,0.42c0.768,0,1.127-0.384,1.127-0.864c0-0.504-0.3-0.779-1.079-1.067
			c-1.043-0.371-1.535-0.947-1.535-1.643c0-0.936,0.755-1.703,2.003-1.703c0.587,0,1.103,0.168,1.427,0.359l-0.264,0.768
			c-0.228-0.144-0.647-0.336-1.187-0.336c-0.624,0-0.972,0.36-0.972,0.792c0,0.479,0.348,0.695,1.104,0.983
			c1.007,0.384,1.523,0.888,1.523,1.751c0,1.02-0.792,1.739-2.171,1.739c-0.635,0-1.223-0.156-1.631-0.396L-405.449,303.421z"/>
		<path d="M-395.072,301.646l-5.565,2.854v-0.827l4.726-2.352v-0.023l-4.726-2.351v-0.828l5.565,2.854V301.646z"/>
		<path d="M-449.621,315.387l5.565-2.867v0.828l-4.689,2.351v0.023l4.689,2.352v0.827l-5.565-2.866V315.387z"/>
		<path d="M-442.385,314.667c0-0.6-0.012-1.092-0.048-1.571h0.936l0.06,0.959h0.024c0.288-0.552,0.959-1.091,1.919-1.091
			c0.803,0,2.051,0.479,2.051,2.471v3.466h-1.056v-3.346c0-0.936-0.348-1.716-1.343-1.716c-0.695,0-1.235,0.492-1.415,1.08
			c-0.048,0.132-0.072,0.312-0.072,0.491v3.49h-1.056V314.667z"/>
		<path d="M-435.497,313.096l1.271,3.43c0.132,0.384,0.276,0.84,0.372,1.188h0.024c0.108-0.348,0.228-0.791,0.372-1.211l1.151-3.406
			h1.115l-1.583,4.138c-0.756,1.991-1.271,3.011-1.991,3.634c-0.516,0.456-1.031,0.636-1.295,0.684l-0.264-0.888
			c0.264-0.084,0.612-0.252,0.924-0.516c0.288-0.228,0.647-0.636,0.887-1.175c0.048-0.108,0.084-0.192,0.084-0.252
			c0-0.061-0.024-0.145-0.072-0.276l-2.147-5.349H-435.497z"/>
		<path d="M-428.958,311.429v1.667h1.511v0.804h-1.511v3.13c0,0.72,0.204,1.128,0.792,1.128c0.276,0,0.479-0.036,0.611-0.072
			l0.048,0.791c-0.204,0.084-0.528,0.145-0.936,0.145c-0.492,0-0.888-0.156-1.14-0.444c-0.3-0.312-0.408-0.827-0.408-1.511v-3.166
			h-0.899v-0.804h0.899v-1.392L-428.958,311.429z"/>
		<path d="M-421.136,319.8v0.6h-5.997v-0.6H-421.136z"/>
		<path d="M-420.257,314.99c0-0.743-0.024-1.343-0.048-1.895h0.947l0.048,0.995h0.024c0.432-0.707,1.115-1.127,2.063-1.127
			c1.403,0,2.459,1.188,2.459,2.95c0,2.087-1.271,3.118-2.639,3.118c-0.768,0-1.439-0.336-1.787-0.911h-0.024v3.154h-1.043V314.99z
			 M-419.213,316.538c0,0.155,0.024,0.3,0.048,0.432c0.192,0.731,0.828,1.235,1.583,1.235c1.115,0,1.763-0.912,1.763-2.243
			c0-1.163-0.611-2.159-1.727-2.159c-0.72,0-1.391,0.517-1.595,1.308c-0.036,0.132-0.072,0.288-0.072,0.432V316.538z"/>
		<path d="M-413.429,314.906c0-0.684-0.012-1.271-0.048-1.811h0.923l0.036,1.14h0.048c0.264-0.78,0.899-1.271,1.607-1.271
			c0.12,0,0.204,0.012,0.3,0.036v0.995c-0.108-0.024-0.216-0.036-0.36-0.036c-0.744,0-1.271,0.563-1.416,1.355
			c-0.024,0.144-0.048,0.312-0.048,0.491v3.095h-1.043V314.906z"/>
		<path d="M-409.037,316.189c0.024,1.428,0.936,2.016,1.991,2.016c0.755,0,1.211-0.132,1.607-0.3l0.18,0.755
			c-0.372,0.168-1.007,0.36-1.931,0.36c-1.787,0-2.854-1.176-2.854-2.927s1.032-3.13,2.723-3.13c1.895,0,2.399,1.667,2.399,2.734
			c0,0.216-0.024,0.384-0.036,0.491H-409.037z M-405.943,315.435c0.012-0.672-0.276-1.716-1.463-1.716
			c-1.067,0-1.535,0.984-1.619,1.716H-405.943z"/>
		<path d="M-403.505,318.9v-5.001h-0.815v-0.804h0.815v-0.312c0-1.535,0.899-2.531,2.531-2.531c0.54,0,1.175,0.168,1.475,0.384
			l-0.3,0.804c-0.252-0.18-0.708-0.336-1.223-0.336c-1.116,0-1.439,0.779-1.439,1.703v0.288h3.37v5.805h-1.043v-5.001h-2.327v5.001
			H-403.505z"/>
		<path d="M-396.846,313.096l0.828,1.247c0.216,0.324,0.396,0.624,0.587,0.947h0.036c0.192-0.348,0.384-0.647,0.576-0.959
			l0.815-1.235h1.14l-1.979,2.807l2.039,2.998h-1.2l-0.851-1.308c-0.228-0.336-0.42-0.659-0.624-1.007h-0.024
			c-0.192,0.348-0.396,0.659-0.612,1.007l-0.839,1.308h-1.164l2.063-2.962l-1.967-2.843H-396.846z"/>
		<path d="M-386.3,316.046l-5.565,2.854v-0.827l4.726-2.352v-0.023l-4.726-2.351v-0.828l5.565,2.854V316.046z"/>
		<path d="M-384.713,315.387l5.565-2.867v0.828l-4.689,2.351v0.023l4.689,2.352v0.827l-5.565-2.866V315.387z"/>
		<path d="M-378.365,319.38l3.346-8.695h0.816l-3.358,8.695H-378.365z"/>
		<path d="M-373.362,314.667c0-0.6-0.012-1.092-0.048-1.571h0.936l0.06,0.959h0.024c0.288-0.552,0.959-1.091,1.919-1.091
			c0.803,0,2.051,0.479,2.051,2.471v3.466h-1.056v-3.346c0-0.936-0.348-1.716-1.343-1.716c-0.695,0-1.235,0.492-1.415,1.08
			c-0.048,0.132-0.072,0.312-0.072,0.491v3.49h-1.056V314.667z"/>
		<path d="M-366.474,313.096l1.271,3.43c0.132,0.384,0.276,0.84,0.372,1.188h0.024c0.108-0.348,0.228-0.791,0.372-1.211l1.151-3.406
			h1.115l-1.583,4.138c-0.756,1.991-1.271,3.011-1.991,3.634c-0.516,0.456-1.031,0.636-1.295,0.684l-0.264-0.888
			c0.264-0.084,0.612-0.252,0.924-0.516c0.288-0.228,0.647-0.636,0.887-1.175c0.048-0.108,0.084-0.192,0.084-0.252
			c0-0.061-0.024-0.145-0.072-0.276l-2.147-5.349H-366.474z"/>
		<path d="M-359.934,311.429v1.667h1.511v0.804h-1.511v3.13c0,0.72,0.204,1.128,0.792,1.128c0.276,0,0.479-0.036,0.611-0.072
			l0.048,0.791c-0.204,0.084-0.528,0.145-0.936,0.145c-0.492,0-0.888-0.156-1.14-0.444c-0.3-0.312-0.408-0.827-0.408-1.511v-3.166
			h-0.899v-0.804h0.899v-1.392L-359.934,311.429z"/>
		<path d="M-352.113,319.8v0.6h-5.997v-0.6H-352.113z"/>
		<path d="M-351.234,314.99c0-0.743-0.024-1.343-0.048-1.895h0.947l0.048,0.995h0.024c0.432-0.707,1.115-1.127,2.063-1.127
			c1.403,0,2.459,1.188,2.459,2.95c0,2.087-1.271,3.118-2.639,3.118c-0.768,0-1.439-0.336-1.787-0.911h-0.024v3.154h-1.043V314.99z
			 M-350.19,316.538c0,0.155,0.024,0.3,0.048,0.432c0.192,0.731,0.828,1.235,1.583,1.235c1.116,0,1.763-0.912,1.763-2.243
			c0-1.163-0.612-2.159-1.727-2.159c-0.72,0-1.391,0.517-1.595,1.308c-0.036,0.132-0.072,0.288-0.072,0.432V316.538z"/>
		<path d="M-344.406,314.906c0-0.684-0.012-1.271-0.048-1.811h0.923l0.036,1.14h0.048c0.264-0.78,0.899-1.271,1.607-1.271
			c0.12,0,0.204,0.012,0.3,0.036v0.995c-0.108-0.024-0.216-0.036-0.36-0.036c-0.744,0-1.271,0.563-1.416,1.355
			c-0.024,0.144-0.048,0.312-0.048,0.491v3.095h-1.043V314.906z"/>
		<path d="M-340.014,316.189c0.024,1.428,0.935,2.016,1.991,2.016c0.755,0,1.211-0.132,1.607-0.3l0.18,0.755
			c-0.372,0.168-1.007,0.36-1.931,0.36c-1.787,0-2.854-1.176-2.854-2.927s1.032-3.13,2.723-3.13c1.895,0,2.399,1.667,2.399,2.734
			c0,0.216-0.024,0.384-0.036,0.491H-340.014z M-336.92,315.435c0.012-0.672-0.276-1.716-1.463-1.716
			c-1.067,0-1.535,0.984-1.619,1.716H-336.92z"/>
		<path d="M-334.482,318.9v-5.001h-0.815v-0.804h0.815v-0.312c0-1.535,0.899-2.531,2.531-2.531c0.54,0,1.175,0.168,1.475,0.384
			l-0.3,0.804c-0.252-0.18-0.708-0.336-1.223-0.336c-1.116,0-1.439,0.779-1.439,1.703v0.288h3.37v5.805h-1.043v-5.001h-2.327v5.001
			H-334.482z"/>
		<path d="M-327.822,313.096l0.828,1.247c0.216,0.324,0.396,0.624,0.587,0.947h0.036c0.192-0.348,0.384-0.647,0.576-0.959
			l0.815-1.235h1.14l-1.979,2.807l2.039,2.998h-1.2l-0.851-1.308c-0.228-0.336-0.42-0.659-0.624-1.007h-0.024
			c-0.192,0.348-0.396,0.659-0.612,1.007l-0.839,1.308h-1.164l2.063-2.962l-1.967-2.843H-327.822z"/>
		<path d="M-317.277,316.046l-5.565,2.854v-0.827l4.726-2.352v-0.023l-4.726-2.351v-0.828l5.565,2.854V316.046z"/>
		<path d="M-449.621,329.786l5.565-2.867v0.828l-4.689,2.351v0.023l4.689,2.352v0.827l-5.565-2.866V329.786z"/>
		<path d="M-442.385,329.066c0-0.6-0.012-1.092-0.048-1.571h0.936l0.06,0.959h0.024c0.288-0.552,0.959-1.091,1.919-1.091
			c0.803,0,2.051,0.479,2.051,2.471v3.466h-1.056v-3.346c0-0.936-0.348-1.716-1.343-1.716c-0.695,0-1.235,0.492-1.415,1.08
			c-0.048,0.132-0.072,0.312-0.072,0.491v3.49h-1.056V329.066z"/>
		<path d="M-435.497,327.495l1.271,3.43c0.132,0.384,0.276,0.84,0.372,1.188h0.024c0.108-0.348,0.228-0.791,0.372-1.211l1.151-3.406
			h1.115l-1.583,4.138c-0.756,1.991-1.271,3.01-1.991,3.634c-0.516,0.456-1.031,0.636-1.295,0.684l-0.264-0.888
			c0.264-0.084,0.612-0.252,0.924-0.516c0.288-0.228,0.647-0.636,0.887-1.175c0.048-0.108,0.084-0.192,0.084-0.252
			c0-0.061-0.024-0.145-0.072-0.276l-2.147-5.349H-435.497z"/>
		<path d="M-428.958,325.828v1.667h1.511v0.804h-1.511v3.13c0,0.72,0.204,1.128,0.792,1.128c0.276,0,0.479-0.036,0.611-0.072
			l0.048,0.791c-0.204,0.084-0.528,0.145-0.936,0.145c-0.492,0-0.888-0.156-1.14-0.444c-0.3-0.312-0.408-0.827-0.408-1.511v-3.166
			h-0.899v-0.804h0.899v-1.392L-428.958,325.828z"/>
		<path d="M-421.136,334.199v0.6h-5.997v-0.6H-421.136z"/>
		<path d="M-420.401,332.221c0.312,0.203,0.864,0.42,1.392,0.42c0.768,0,1.127-0.384,1.127-0.864c0-0.504-0.3-0.779-1.079-1.067
			c-1.043-0.371-1.535-0.947-1.535-1.643c0-0.936,0.755-1.703,2.003-1.703c0.587,0,1.103,0.168,1.427,0.359l-0.264,0.768
			c-0.228-0.144-0.647-0.336-1.187-0.336c-0.624,0-0.972,0.36-0.972,0.792c0,0.479,0.348,0.695,1.104,0.983
			c1.007,0.384,1.523,0.888,1.523,1.751c0,1.02-0.792,1.739-2.171,1.739c-0.635,0-1.223-0.156-1.631-0.396L-420.401,332.221z"/>
		<path d="M-410.647,331.717c0,0.6,0.012,1.127,0.048,1.583h-0.936l-0.06-0.947h-0.024c-0.276,0.468-0.887,1.079-1.919,1.079
			c-0.911,0-2.003-0.504-2.003-2.543v-3.394h1.056v3.214c0,1.104,0.336,1.848,1.295,1.848c0.708,0,1.199-0.492,1.391-0.96
			c0.06-0.156,0.096-0.348,0.096-0.54v-3.562h1.056V331.717z"/>
		<path d="M-401.625,325.816c-0.264-0.168-0.696-0.313-1.175-0.313c-1.116,0-1.451,0.779-1.451,1.703v0.288h3.382v5.805h-1.055
			v-5.001h-2.315v5.001h-1.055v-5.001h-2.447v5.001h-1.043v-5.001h-0.815v-0.804h0.815v-0.216c0-0.731,0.192-1.439,0.696-1.931
			c0.335-0.349,0.839-0.564,1.487-0.564c0.396,0,0.804,0.145,1.02,0.252l-0.288,0.78c-0.18-0.097-0.456-0.204-0.732-0.204
			c-0.335,0-0.575,0.12-0.755,0.312c-0.288,0.312-0.384,0.84-0.384,1.344v0.228h2.447v-0.312c0-1.535,0.912-2.531,2.542-2.531
			c0.528,0,1.127,0.156,1.439,0.372L-401.625,325.816z"/>
		<path d="M-398.622,327.495l0.828,1.247c0.216,0.324,0.396,0.624,0.588,0.947h0.036c0.192-0.348,0.384-0.647,0.576-0.959
			l0.815-1.235h1.14l-1.979,2.807l2.039,2.998h-1.2l-0.852-1.308c-0.228-0.336-0.419-0.659-0.624-1.007h-0.024
			c-0.192,0.348-0.396,0.659-0.612,1.007l-0.839,1.308h-1.163l2.063-2.962l-1.967-2.843H-398.622z"/>
		<path d="M-388.076,330.445l-5.565,2.854v-0.827l4.726-2.352v-0.023l-4.726-2.351v-0.828l5.565,2.854V330.445z"/>
		<path d="M-386.489,329.786l5.565-2.867v0.828l-4.689,2.351v0.023l4.689,2.352v0.827l-5.565-2.866V329.786z"/>
		<path d="M-380.141,333.779l3.346-8.695h0.816l-3.358,8.695H-380.141z"/>
		<path d="M-375.138,329.066c0-0.6-0.012-1.092-0.048-1.571h0.936l0.06,0.959h0.024c0.288-0.552,0.959-1.091,1.919-1.091
			c0.803,0,2.051,0.479,2.051,2.471v3.466h-1.056v-3.346c0-0.936-0.348-1.716-1.343-1.716c-0.695,0-1.235,0.492-1.415,1.08
			c-0.048,0.132-0.072,0.312-0.072,0.491v3.49h-1.056V329.066z"/>
		<path d="M-368.25,327.495l1.271,3.43c0.132,0.384,0.276,0.84,0.372,1.188h0.024c0.108-0.348,0.228-0.791,0.372-1.211l1.151-3.406
			h1.115l-1.583,4.138c-0.756,1.991-1.271,3.01-1.991,3.634c-0.516,0.456-1.031,0.636-1.295,0.684l-0.264-0.888
			c0.264-0.084,0.612-0.252,0.924-0.516c0.288-0.228,0.647-0.636,0.887-1.175c0.048-0.108,0.084-0.192,0.084-0.252
			c0-0.061-0.024-0.145-0.072-0.276l-2.147-5.349H-368.25z"/>
		<path d="M-361.71,325.828v1.667h1.511v0.804h-1.511v3.13c0,0.72,0.204,1.128,0.792,1.128c0.276,0,0.479-0.036,0.612-0.072
			l0.048,0.791c-0.204,0.084-0.528,0.145-0.936,0.145c-0.492,0-0.888-0.156-1.14-0.444c-0.3-0.312-0.408-0.827-0.408-1.511v-3.166
			h-0.899v-0.804h0.899v-1.392L-361.71,325.828z"/>
		<path d="M-353.889,334.199v0.6h-5.997v-0.6H-353.889z"/>
		<path d="M-353.154,332.221c0.312,0.203,0.864,0.42,1.392,0.42c0.768,0,1.127-0.384,1.127-0.864c0-0.504-0.3-0.779-1.079-1.067
			c-1.043-0.371-1.535-0.947-1.535-1.643c0-0.936,0.755-1.703,2.003-1.703c0.587,0,1.103,0.168,1.427,0.359l-0.264,0.768
			c-0.228-0.144-0.647-0.336-1.187-0.336c-0.624,0-0.972,0.36-0.972,0.792c0,0.479,0.348,0.695,1.104,0.983
			c1.007,0.384,1.523,0.888,1.523,1.751c0,1.02-0.792,1.739-2.171,1.739c-0.635,0-1.223-0.156-1.631-0.396L-353.154,332.221z"/>
		<path d="M-343.4,331.717c0,0.6,0.012,1.127,0.048,1.583h-0.936l-0.06-0.947h-0.024c-0.276,0.468-0.887,1.079-1.919,1.079
			c-0.911,0-2.003-0.504-2.003-2.543v-3.394h1.056v3.214c0,1.104,0.336,1.848,1.295,1.848c0.708,0,1.199-0.492,1.391-0.96
			c0.06-0.156,0.096-0.348,0.096-0.54v-3.562h1.056V331.717z"/>
		<path d="M-334.377,325.816c-0.264-0.168-0.696-0.313-1.175-0.313c-1.115,0-1.451,0.779-1.451,1.703v0.288h3.382v5.805h-1.055
			v-5.001h-2.315v5.001h-1.055v-5.001h-2.447v5.001h-1.043v-5.001h-0.815v-0.804h0.815v-0.216c0-0.731,0.192-1.439,0.696-1.931
			c0.336-0.349,0.839-0.564,1.487-0.564c0.396,0,0.803,0.145,1.019,0.252l-0.288,0.78c-0.18-0.097-0.456-0.204-0.731-0.204
			c-0.336,0-0.576,0.12-0.756,0.312c-0.288,0.312-0.384,0.84-0.384,1.344v0.228h2.447v-0.312c0-1.535,0.912-2.531,2.542-2.531
			c0.528,0,1.127,0.156,1.439,0.372L-334.377,325.816z"/>
		<path d="M-331.374,327.495l0.828,1.247c0.216,0.324,0.396,0.624,0.587,0.947h0.036c0.192-0.348,0.384-0.647,0.576-0.959
			l0.815-1.235h1.14l-1.979,2.807l2.039,2.998h-1.2l-0.851-1.308c-0.228-0.336-0.42-0.659-0.624-1.007h-0.024
			c-0.192,0.348-0.396,0.659-0.612,1.007l-0.839,1.308h-1.164l2.063-2.962l-1.967-2.843H-331.374z"/>
		<path d="M-320.829,330.445l-5.565,2.854v-0.827l4.726-2.352v-0.023l-4.726-2.351v-0.828l5.565,2.854V330.445z"/>
		<path d="M-449.621,344.187l5.565-2.867v0.828l-4.689,2.351v0.023l4.689,2.352v0.827l-5.565-2.866V344.187z"/>
		<path d="M-442.385,343.467c0-0.6-0.012-1.092-0.048-1.571h0.936l0.06,0.959h0.024c0.288-0.552,0.959-1.091,1.919-1.091
			c0.803,0,2.051,0.479,2.051,2.471v3.466h-1.056v-3.346c0-0.936-0.348-1.716-1.343-1.716c-0.695,0-1.235,0.492-1.415,1.08
			c-0.048,0.132-0.072,0.312-0.072,0.491v3.49h-1.056V343.467z"/>
		<path d="M-435.497,341.896l1.271,3.43c0.132,0.384,0.276,0.84,0.372,1.188h0.024c0.108-0.348,0.228-0.791,0.372-1.211l1.151-3.406
			h1.115l-1.583,4.138c-0.756,1.991-1.271,3.01-1.991,3.634c-0.516,0.456-1.031,0.636-1.295,0.684l-0.264-0.888
			c0.264-0.084,0.612-0.252,0.924-0.516c0.288-0.228,0.647-0.636,0.887-1.175c0.048-0.108,0.084-0.192,0.084-0.252
			c0-0.061-0.024-0.145-0.072-0.276l-2.147-5.349H-435.497z"/>
		<path d="M-428.958,340.229v1.667h1.511v0.804h-1.511v3.13c0,0.72,0.204,1.128,0.792,1.128c0.276,0,0.479-0.036,0.611-0.072
			l0.048,0.791c-0.204,0.084-0.528,0.145-0.936,0.145c-0.492,0-0.888-0.156-1.14-0.444c-0.3-0.312-0.408-0.827-0.408-1.511v-3.166
			h-0.899v-0.804h0.899v-1.392L-428.958,340.229z"/>
		<path d="M-421.136,348.6v0.6h-5.997v-0.6H-421.136z"/>
		<path d="M-420.305,347.7c0.024-0.396,0.048-0.983,0.048-1.499v-7.017h1.043v3.646h0.024c0.372-0.647,1.043-1.067,1.979-1.067
			c1.439,0,2.458,1.199,2.447,2.962c0,2.075-1.308,3.106-2.603,3.106c-0.84,0-1.511-0.324-1.943-1.092h-0.036l-0.048,0.96H-420.305z
			 M-419.213,345.373c0,0.133,0.024,0.265,0.048,0.384c0.204,0.732,0.816,1.235,1.583,1.235c1.103,0,1.763-0.899,1.763-2.23
			c0-1.163-0.6-2.159-1.727-2.159c-0.72,0-1.391,0.492-1.607,1.296c-0.024,0.12-0.06,0.264-0.06,0.432V345.373z"/>
		<path d="M-410.215,347.7l-0.084-0.731h-0.036c-0.324,0.456-0.947,0.863-1.775,0.863c-1.175,0-1.775-0.827-1.775-1.667
			c0-1.403,1.247-2.171,3.49-2.159v-0.119c0-0.48-0.132-1.344-1.319-1.344c-0.54,0-1.104,0.168-1.511,0.432l-0.24-0.695
			c0.48-0.312,1.175-0.516,1.907-0.516c1.775,0,2.207,1.211,2.207,2.374v2.171c0,0.504,0.024,0.996,0.096,1.392H-410.215z
			 M-410.371,344.738c-1.151-0.024-2.458,0.18-2.458,1.307c0,0.684,0.456,1.008,0.996,1.008c0.755,0,1.235-0.479,1.403-0.972
			c0.036-0.108,0.06-0.228,0.06-0.336V344.738z"/>
		<path d="M-407.789,346.621c0.312,0.203,0.864,0.42,1.392,0.42c0.768,0,1.127-0.384,1.127-0.864c0-0.504-0.3-0.779-1.079-1.067
			c-1.043-0.371-1.535-0.947-1.535-1.643c0-0.936,0.755-1.703,2.003-1.703c0.587,0,1.104,0.168,1.427,0.359l-0.264,0.768
			c-0.228-0.144-0.647-0.336-1.187-0.336c-0.624,0-0.972,0.36-0.972,0.792c0,0.479,0.348,0.695,1.104,0.983
			c1.007,0.384,1.523,0.888,1.523,1.751c0,1.02-0.792,1.739-2.171,1.739c-0.635,0-1.223-0.156-1.631-0.396L-407.789,346.621z"/>
		<path d="M-402.305,344.989c0.024,1.428,0.935,2.016,1.991,2.016c0.755,0,1.211-0.132,1.607-0.3l0.18,0.755
			c-0.372,0.168-1.007,0.36-1.931,0.36c-1.787,0-2.854-1.176-2.854-2.927s1.032-3.13,2.723-3.13c1.895,0,2.399,1.667,2.399,2.734
			c0,0.216-0.024,0.384-0.036,0.491H-402.305z M-399.211,344.234c0.012-0.672-0.276-1.715-1.463-1.715
			c-1.067,0-1.535,0.983-1.619,1.715H-399.211z"/>
		<path d="M-391.76,348.6v0.6h-5.997v-0.6H-391.76z"/>
		<path d="M-390.881,343.79c0-0.743-0.024-1.343-0.048-1.895h0.947l0.048,0.995h0.024c0.432-0.707,1.115-1.127,2.063-1.127
			c1.403,0,2.459,1.188,2.459,2.95c0,2.087-1.271,3.118-2.639,3.118c-0.768,0-1.439-0.336-1.787-0.911h-0.024v3.154h-1.043V343.79z
			 M-389.838,345.338c0,0.155,0.024,0.3,0.048,0.432c0.192,0.731,0.828,1.235,1.583,1.235c1.116,0,1.763-0.912,1.763-2.243
			c0-1.163-0.612-2.159-1.727-2.159c-0.72,0-1.391,0.517-1.595,1.308c-0.036,0.132-0.072,0.288-0.072,0.432V345.338z"/>
		<path d="M-380.839,347.7l-0.084-0.731h-0.036c-0.324,0.456-0.947,0.863-1.775,0.863c-1.175,0-1.775-0.827-1.775-1.667
			c0-1.403,1.247-2.171,3.49-2.159v-0.119c0-0.48-0.132-1.344-1.319-1.344c-0.54,0-1.104,0.168-1.511,0.432l-0.24-0.695
			c0.48-0.312,1.175-0.516,1.907-0.516c1.775,0,2.207,1.211,2.207,2.374v2.171c0,0.504,0.024,0.996,0.096,1.392H-380.839z
			 M-380.995,344.738c-1.151-0.024-2.458,0.18-2.458,1.307c0,0.684,0.456,1.008,0.996,1.008c0.755,0,1.235-0.479,1.403-0.972
			c0.036-0.108,0.06-0.228,0.06-0.336V344.738z"/>
		<path d="M-377.046,340.229v1.667h1.511v0.804h-1.511v3.13c0,0.72,0.204,1.128,0.792,1.128c0.276,0,0.479-0.036,0.612-0.072
			l0.048,0.791c-0.204,0.084-0.528,0.145-0.936,0.145c-0.492,0-0.888-0.156-1.14-0.444c-0.3-0.312-0.408-0.827-0.408-1.511v-3.166
			h-0.899v-0.804h0.899v-1.392L-377.046,340.229z"/>
		<path d="M-374.346,339.185h1.056v3.622h0.024c0.168-0.3,0.432-0.563,0.755-0.743c0.312-0.18,0.684-0.3,1.08-0.3
			c0.779,0,2.027,0.479,2.027,2.482v3.454h-1.056v-3.334c0-0.936-0.348-1.728-1.343-1.728c-0.684,0-1.223,0.48-1.415,1.056
			c-0.06,0.144-0.072,0.3-0.072,0.504v3.502h-1.056V339.185z"/>
		<path d="M-362.205,344.846l-5.565,2.854v-0.827l4.726-2.352v-0.023l-4.726-2.351v-0.828l5.565,2.854V344.846z"/>
		<path d="M-356.312,343.91h-3.142v2.914h3.502v0.876h-4.545v-8.084h4.366v0.876h-3.322v2.555h3.142V343.91z"/>
		<path d="M-354.882,342.854c0-0.443,0.3-0.755,0.72-0.755s0.696,0.312,0.708,0.755c0,0.42-0.276,0.744-0.72,0.744
			C-354.594,343.599-354.882,343.274-354.882,342.854z M-354.882,347.089c0-0.444,0.3-0.756,0.72-0.756s0.696,0.312,0.708,0.756
			c0,0.419-0.276,0.743-0.72,0.743C-354.594,347.832-354.882,347.508-354.882,347.089z"/>
		<path d="M-349.735,348.18l-3.262-8.695h0.815l3.262,8.695H-349.735z"/>
		<path d="M-341.866,347.341c-0.468,0.167-1.391,0.443-2.482,0.443c-1.223,0-2.231-0.312-3.022-1.067
			c-0.696-0.672-1.127-1.751-1.127-3.011c0.012-2.41,1.667-4.174,4.378-4.174c0.935,0,1.667,0.204,2.015,0.372l-0.252,0.852
			c-0.432-0.191-0.971-0.348-1.787-0.348c-1.967,0-3.25,1.224-3.25,3.25c0,2.051,1.235,3.263,3.118,3.263
			c0.684,0,1.151-0.097,1.392-0.216v-2.411h-1.644v-0.84h2.663V347.341z"/>
		<path d="M-340.302,339.185h1.056v8.516h-1.056V339.185z"/>
		<path d="M-332.217,344.75c0,2.146-1.487,3.082-2.89,3.082c-1.571,0-2.783-1.151-2.783-2.986c0-1.943,1.271-3.082,2.878-3.082
			C-333.344,341.764-332.217,342.975-332.217,344.75z M-336.823,344.81c0,1.271,0.732,2.231,1.763,2.231
			c1.007,0,1.763-0.948,1.763-2.255c0-0.983-0.492-2.231-1.739-2.231C-336.283,342.555-336.823,343.706-336.823,344.81z"/>
		<path d="M-331.026,346.621c0.312,0.203,0.864,0.42,1.392,0.42c0.768,0,1.127-0.384,1.127-0.864c0-0.504-0.3-0.779-1.079-1.067
			c-1.043-0.371-1.535-0.947-1.535-1.643c0-0.936,0.755-1.703,2.003-1.703c0.587,0,1.104,0.168,1.427,0.359l-0.264,0.768
			c-0.228-0.144-0.647-0.336-1.187-0.336c-0.624,0-0.972,0.36-0.972,0.792c0,0.479,0.348,0.695,1.104,0.983
			c1.007,0.384,1.523,0.888,1.523,1.751c0,1.02-0.792,1.739-2.171,1.739c-0.635,0-1.223-0.156-1.631-0.396L-331.026,346.621z"/>
		<path d="M-326.274,346.621c0.312,0.203,0.864,0.42,1.392,0.42c0.768,0,1.127-0.384,1.127-0.864c0-0.504-0.3-0.779-1.079-1.067
			c-1.043-0.371-1.535-0.947-1.535-1.643c0-0.936,0.755-1.703,2.003-1.703c0.587,0,1.104,0.168,1.427,0.359l-0.264,0.768
			c-0.228-0.144-0.647-0.336-1.187-0.336c-0.624,0-0.972,0.36-0.972,0.792c0,0.479,0.348,0.695,1.104,0.983
			c1.007,0.384,1.523,0.888,1.523,1.751c0,1.02-0.792,1.739-2.171,1.739c-0.635,0-1.223-0.156-1.631-0.396L-326.274,346.621z"/>
		<path d="M-318.164,347.7l-0.084-0.731h-0.036c-0.324,0.456-0.947,0.863-1.775,0.863c-1.175,0-1.775-0.827-1.775-1.667
			c0-1.403,1.247-2.171,3.49-2.159v-0.119c0-0.48-0.132-1.344-1.319-1.344c-0.54,0-1.104,0.168-1.511,0.432l-0.24-0.695
			c0.48-0.312,1.175-0.516,1.907-0.516c1.775,0,2.207,1.211,2.207,2.374v2.171c0,0.504,0.024,0.996,0.096,1.392H-318.164z
			 M-318.32,344.738c-1.151-0.024-2.458,0.18-2.458,1.307c0,0.684,0.456,1.008,0.996,1.008c0.755,0,1.235-0.479,1.403-0.972
			c0.036-0.108,0.06-0.228,0.06-0.336V344.738z"/>
		<path d="M-315.595,343.706c0-0.684-0.012-1.271-0.048-1.811h0.923l0.036,1.14h0.048c0.264-0.78,0.899-1.271,1.607-1.271
			c0.12,0,0.204,0.012,0.3,0.036v0.995c-0.108-0.024-0.216-0.036-0.359-0.036c-0.744,0-1.271,0.563-1.416,1.355
			c-0.024,0.144-0.048,0.312-0.048,0.491v3.095h-1.043V343.706z"/>
		<path d="M-310.987,341.896l1.271,3.43c0.132,0.384,0.276,0.84,0.372,1.188h0.024c0.108-0.348,0.228-0.791,0.372-1.211l1.151-3.406
			h1.115l-1.583,4.138c-0.756,1.991-1.271,3.01-1.991,3.634c-0.516,0.456-1.031,0.636-1.295,0.684l-0.264-0.888
			c0.264-0.084,0.612-0.252,0.924-0.516c0.288-0.228,0.647-0.636,0.887-1.175c0.048-0.108,0.084-0.192,0.084-0.252
			c0-0.061-0.024-0.145-0.072-0.276l-2.147-5.349H-310.987z"/>
		<path d="M-303.308,348.18l-3.262-8.695h0.815l3.262,8.695H-303.308z"/>
		<path d="M-301.771,346.621c0.312,0.203,0.864,0.42,1.392,0.42c0.768,0,1.127-0.384,1.127-0.864c0-0.504-0.3-0.779-1.079-1.067
			c-1.043-0.371-1.535-0.947-1.535-1.643c0-0.936,0.755-1.703,2.003-1.703c0.587,0,1.103,0.168,1.427,0.359l-0.264,0.768
			c-0.228-0.144-0.647-0.336-1.187-0.336c-0.624,0-0.972,0.36-0.972,0.792c0,0.479,0.348,0.695,1.104,0.983
			c1.007,0.384,1.523,0.888,1.523,1.751c0,1.02-0.792,1.739-2.171,1.739c-0.635,0-1.223-0.156-1.631-0.396L-301.771,346.621z"/>
		<path d="M-296.467,341.896l1.14,3.262c0.192,0.528,0.348,1.008,0.468,1.487h0.036c0.132-0.479,0.3-0.959,0.492-1.487l1.127-3.262
			h1.104l-2.279,5.805h-1.007l-2.207-5.805H-296.467z"/>
		<path d="M-286.222,341.896c-0.024,0.42-0.048,0.888-0.048,1.595v3.37c0,1.332-0.264,2.147-0.827,2.65
			c-0.564,0.528-1.379,0.696-2.111,0.696c-0.696,0-1.463-0.168-1.931-0.479l0.264-0.804c0.384,0.239,0.984,0.455,1.703,0.455
			c1.08,0,1.871-0.563,1.871-2.026v-0.647h-0.024c-0.324,0.539-0.948,0.971-1.847,0.971c-1.439,0-2.471-1.223-2.471-2.83
			c0-1.967,1.284-3.082,2.615-3.082c1.007,0,1.559,0.527,1.811,1.007h0.024l0.048-0.875H-286.222z M-287.313,344.187
			c0-0.181-0.012-0.336-0.06-0.48c-0.192-0.611-0.708-1.115-1.476-1.115c-1.007,0-1.727,0.852-1.727,2.195
			c0,1.139,0.576,2.087,1.715,2.087c0.647,0,1.235-0.408,1.463-1.08c0.06-0.18,0.084-0.384,0.084-0.563V344.187z"/>
		<path d="M-449.621,358.586l5.565-2.867v0.828l-4.689,2.351v0.023l4.689,2.352v0.827l-5.565-2.866V358.586z"/>
		<path d="M-442.385,357.866c0-0.6-0.012-1.092-0.048-1.571h0.936l0.06,0.959h0.024c0.288-0.552,0.959-1.091,1.919-1.091
			c0.803,0,2.051,0.479,2.051,2.471v3.466h-1.056v-3.346c0-0.936-0.348-1.716-1.343-1.716c-0.695,0-1.235,0.492-1.415,1.08
			c-0.048,0.132-0.072,0.312-0.072,0.491v3.49h-1.056V357.866z"/>
		<path d="M-435.497,356.295l1.271,3.43c0.132,0.384,0.276,0.84,0.372,1.188h0.024c0.108-0.348,0.228-0.791,0.372-1.211l1.151-3.406
			h1.115l-1.583,4.138c-0.756,1.991-1.271,3.011-1.991,3.634c-0.516,0.456-1.031,0.636-1.295,0.684l-0.264-0.888
			c0.264-0.084,0.612-0.252,0.924-0.516c0.288-0.228,0.647-0.636,0.887-1.175c0.048-0.108,0.084-0.192,0.084-0.252
			c0-0.061-0.024-0.145-0.072-0.276l-2.147-5.349H-435.497z"/>
		<path d="M-428.958,354.628v1.667h1.511v0.804h-1.511v3.13c0,0.72,0.204,1.128,0.792,1.128c0.276,0,0.479-0.036,0.611-0.072
			l0.048,0.791c-0.204,0.084-0.528,0.145-0.936,0.145c-0.492,0-0.888-0.156-1.14-0.444c-0.3-0.312-0.408-0.827-0.408-1.511v-3.166
			h-0.899v-0.804h0.899v-1.392L-428.958,354.628z"/>
		<path d="M-421.136,362.999v0.6h-5.997v-0.6H-421.136z"/>
		<path d="M-420.401,361.021c0.312,0.203,0.864,0.42,1.392,0.42c0.768,0,1.127-0.384,1.127-0.864c0-0.504-0.3-0.779-1.079-1.067
			c-1.043-0.371-1.535-0.947-1.535-1.643c0-0.936,0.755-1.703,2.003-1.703c0.587,0,1.103,0.168,1.427,0.359l-0.264,0.768
			c-0.228-0.144-0.647-0.336-1.187-0.336c-0.624,0-0.972,0.36-0.972,0.792c0,0.479,0.348,0.695,1.104,0.983
			c1.007,0.384,1.523,0.888,1.523,1.751c0,1.02-0.792,1.739-2.171,1.739c-0.635,0-1.223-0.156-1.631-0.396L-420.401,361.021z"/>
		<path d="M-411.367,361.884c-0.276,0.144-0.888,0.336-1.667,0.336c-1.751,0-2.891-1.188-2.891-2.963
			c0-1.787,1.224-3.082,3.119-3.082c0.624,0,1.175,0.156,1.463,0.3l-0.24,0.815c-0.252-0.144-0.647-0.275-1.223-0.275
			c-1.332,0-2.051,0.983-2.051,2.194c0,1.344,0.864,2.171,2.015,2.171c0.6,0,0.996-0.156,1.295-0.288L-411.367,361.884z"/>
		<path d="M-406.915,362.1l-0.084-0.731h-0.036c-0.324,0.456-0.947,0.863-1.775,0.863c-1.175,0-1.775-0.827-1.775-1.667
			c0-1.403,1.247-2.171,3.49-2.159v-0.119c0-0.48-0.132-1.344-1.319-1.344c-0.54,0-1.103,0.168-1.511,0.432l-0.24-0.695
			c0.48-0.312,1.176-0.516,1.907-0.516c1.775,0,2.207,1.211,2.207,2.374v2.171c0,0.504,0.024,0.996,0.096,1.392H-406.915z
			 M-407.07,359.138c-1.151-0.024-2.459,0.18-2.459,1.307c0,0.684,0.456,1.008,0.996,1.008c0.755,0,1.235-0.479,1.403-0.972
			c0.036-0.107,0.06-0.228,0.06-0.336V359.138z"/>
		<path d="M-404.345,353.584h1.056v8.516h-1.056V353.584z"/>
		<path d="M-400.338,354.664c0.012,0.359-0.252,0.647-0.671,0.647c-0.372,0-0.636-0.288-0.636-0.647c0-0.372,0.276-0.66,0.66-0.66
			C-400.59,354.004-400.338,354.292-400.338,354.664z M-401.513,362.1v-5.805h1.056v5.805H-401.513z"/>
		<path d="M-398.705,357.866c0-0.6-0.012-1.092-0.048-1.571h0.936l0.06,0.959h0.024c0.288-0.552,0.959-1.091,1.919-1.091
			c0.803,0,2.051,0.479,2.051,2.471v3.466h-1.056v-3.346c0-0.936-0.348-1.716-1.343-1.716c-0.695,0-1.235,0.492-1.415,1.08
			c-0.048,0.132-0.072,0.312-0.072,0.491v3.49h-1.056V357.866z"/>
		<path d="M-387.044,356.295c-0.024,0.42-0.048,0.888-0.048,1.595v3.37c0,1.332-0.264,2.147-0.827,2.65
			c-0.564,0.528-1.379,0.696-2.111,0.696c-0.696,0-1.463-0.168-1.931-0.479l0.264-0.804c0.384,0.239,0.984,0.455,1.703,0.455
			c1.08,0,1.871-0.563,1.871-2.026v-0.647h-0.024c-0.324,0.539-0.948,0.971-1.847,0.971c-1.439,0-2.471-1.223-2.471-2.83
			c0-1.967,1.284-3.082,2.615-3.082c1.007,0,1.559,0.527,1.811,1.007h0.024l0.048-0.875H-387.044z M-388.136,358.586
			c0-0.181-0.012-0.336-0.06-0.48c-0.192-0.611-0.708-1.115-1.476-1.115c-1.007,0-1.727,0.852-1.727,2.195
			c0,1.139,0.576,2.087,1.715,2.087c0.647,0,1.235-0.408,1.463-1.08c0.06-0.18,0.084-0.384,0.084-0.563V358.586z"/>
		<path d="M-379.856,359.245l-5.565,2.854v-0.827l4.726-2.352v-0.023l-4.726-2.351v-0.828l5.565,2.854V359.245z"/>
		<path d="M-376.23,355.287h-0.024l-1.355,0.731l-0.204-0.803l1.703-0.912h0.9v7.796h-1.02V355.287z"/>
		<path d="M-367.185,358.118c0,2.65-0.983,4.113-2.71,4.113c-1.523,0-2.555-1.427-2.579-4.006c0-2.614,1.127-4.054,2.71-4.054
			C-368.12,354.172-367.185,355.635-367.185,358.118z M-371.418,358.237c0,2.027,0.624,3.179,1.583,3.179
			c1.08,0,1.595-1.26,1.595-3.25c0-1.919-0.492-3.179-1.583-3.179C-370.747,354.987-371.418,356.115-371.418,358.237z"/>
		<path d="M-361.029,358.118c0,2.65-0.983,4.113-2.71,4.113c-1.523,0-2.555-1.427-2.579-4.006c0-2.614,1.127-4.054,2.71-4.054
			C-361.964,354.172-361.029,355.635-361.029,358.118z M-365.262,358.237c0,2.027,0.624,3.179,1.583,3.179
			c1.08,0,1.595-1.26,1.595-3.25c0-1.919-0.492-3.179-1.583-3.179C-364.591,354.987-365.262,356.115-365.262,358.237z"/>
		<path d="M-359.802,358.586l5.565-2.867v0.828l-4.689,2.351v0.023l4.689,2.352v0.827l-5.565-2.866V358.586z"/>
		<path d="M-353.454,362.579l3.346-8.695h0.816l-3.358,8.695H-353.454z"/>
		<path d="M-348.45,357.866c0-0.6-0.012-1.092-0.048-1.571h0.936l0.06,0.959h0.024c0.288-0.552,0.959-1.091,1.919-1.091
			c0.803,0,2.051,0.479,2.051,2.471v3.466h-1.056v-3.346c0-0.936-0.348-1.716-1.343-1.716c-0.695,0-1.235,0.492-1.415,1.08
			c-0.048,0.132-0.072,0.312-0.072,0.491v3.49h-1.056V357.866z"/>
		<path d="M-341.563,356.295l1.271,3.43c0.132,0.384,0.276,0.84,0.372,1.188h0.024c0.108-0.348,0.228-0.791,0.372-1.211l1.151-3.406
			h1.115l-1.583,4.138c-0.756,1.991-1.271,3.011-1.991,3.634c-0.516,0.456-1.031,0.636-1.295,0.684l-0.264-0.888
			c0.264-0.084,0.612-0.252,0.924-0.516c0.288-0.228,0.647-0.636,0.887-1.175c0.048-0.108,0.084-0.192,0.084-0.252
			c0-0.061-0.024-0.145-0.072-0.276l-2.147-5.349H-341.563z"/>
		<path d="M-335.023,354.628v1.667h1.511v0.804h-1.511v3.13c0,0.72,0.204,1.128,0.792,1.128c0.276,0,0.479-0.036,0.611-0.072
			l0.048,0.791c-0.204,0.084-0.528,0.145-0.936,0.145c-0.492,0-0.888-0.156-1.14-0.444c-0.3-0.312-0.408-0.827-0.408-1.511v-3.166
			h-0.899v-0.804h0.899v-1.392L-335.023,354.628z"/>
		<path d="M-327.201,362.999v0.6h-5.997v-0.6H-327.201z"/>
		<path d="M-326.466,361.021c0.312,0.203,0.864,0.42,1.392,0.42c0.768,0,1.127-0.384,1.127-0.864c0-0.504-0.3-0.779-1.079-1.067
			c-1.043-0.371-1.535-0.947-1.535-1.643c0-0.936,0.755-1.703,2.003-1.703c0.587,0,1.103,0.168,1.427,0.359l-0.264,0.768
			c-0.228-0.144-0.647-0.336-1.187-0.336c-0.624,0-0.972,0.36-0.972,0.792c0,0.479,0.348,0.695,1.104,0.983
			c1.007,0.384,1.523,0.888,1.523,1.751c0,1.02-0.792,1.739-2.171,1.739c-0.635,0-1.223-0.156-1.631-0.396L-326.466,361.021z"/>
		<path d="M-317.433,361.884c-0.276,0.144-0.888,0.336-1.667,0.336c-1.751,0-2.891-1.188-2.891-2.963
			c0-1.787,1.224-3.082,3.119-3.082c0.624,0,1.175,0.156,1.463,0.3l-0.24,0.815c-0.252-0.144-0.647-0.275-1.223-0.275
			c-1.332,0-2.051,0.983-2.051,2.194c0,1.344,0.864,2.171,2.015,2.171c0.6,0,0.996-0.156,1.295-0.288L-317.433,361.884z"/>
		<path d="M-312.98,362.1l-0.084-0.731h-0.036c-0.324,0.456-0.947,0.863-1.775,0.863c-1.175,0-1.775-0.827-1.775-1.667
			c0-1.403,1.247-2.171,3.49-2.159v-0.119c0-0.48-0.132-1.344-1.319-1.344c-0.54,0-1.103,0.168-1.511,0.432l-0.24-0.695
			c0.48-0.312,1.176-0.516,1.907-0.516c1.775,0,2.207,1.211,2.207,2.374v2.171c0,0.504,0.024,0.996,0.096,1.392H-312.98z
			 M-313.136,359.138c-1.151-0.024-2.459,0.18-2.459,1.307c0,0.684,0.456,1.008,0.996,1.008c0.755,0,1.235-0.479,1.403-0.972
			c0.036-0.107,0.06-0.228,0.06-0.336V359.138z"/>
		<path d="M-310.411,353.584h1.056v8.516h-1.056V353.584z"/>
		<path d="M-306.403,354.664c0.012,0.359-0.252,0.647-0.671,0.647c-0.372,0-0.636-0.288-0.636-0.647c0-0.372,0.276-0.66,0.66-0.66
			C-306.655,354.004-306.403,354.292-306.403,354.664z M-307.579,362.1v-5.805h1.056v5.805H-307.579z"/>
		<path d="M-304.771,357.866c0-0.6-0.012-1.092-0.048-1.571h0.936l0.06,0.959h0.024c0.288-0.552,0.959-1.091,1.919-1.091
			c0.803,0,2.051,0.479,2.051,2.471v3.466h-1.056v-3.346c0-0.936-0.348-1.716-1.343-1.716c-0.695,0-1.235,0.492-1.415,1.08
			c-0.048,0.132-0.072,0.312-0.072,0.491v3.49h-1.056V357.866z"/>
		<path d="M-293.109,356.295c-0.024,0.42-0.048,0.888-0.048,1.595v3.37c0,1.332-0.264,2.147-0.827,2.65
			c-0.564,0.528-1.379,0.696-2.111,0.696c-0.696,0-1.463-0.168-1.931-0.479l0.264-0.804c0.384,0.239,0.984,0.455,1.703,0.455
			c1.08,0,1.871-0.563,1.871-2.026v-0.647h-0.024c-0.324,0.539-0.948,0.971-1.847,0.971c-1.439,0-2.471-1.223-2.471-2.83
			c0-1.967,1.284-3.082,2.615-3.082c1.007,0,1.559,0.527,1.811,1.007h0.024l0.048-0.875H-293.109z M-294.201,358.586
			c0-0.181-0.012-0.336-0.06-0.48c-0.192-0.611-0.708-1.115-1.476-1.115c-1.007,0-1.727,0.852-1.727,2.195
			c0,1.139,0.576,2.087,1.715,2.087c0.647,0,1.235-0.408,1.463-1.08c0.06-0.18,0.084-0.384,0.084-0.563V358.586z"/>
		<path d="M-285.922,359.245l-5.565,2.854v-0.827l4.726-2.352v-0.023l-4.726-2.351v-0.828l5.565,2.854V359.245z"/>
		<path d="M-449.621,372.986l5.565-2.867v0.828l-4.689,2.351v0.023l4.689,2.352v0.827l-5.565-2.866V372.986z"/>
		<path d="M-442.385,372.267c0-0.6-0.012-1.092-0.048-1.571h0.936l0.06,0.959h0.024c0.288-0.552,0.959-1.091,1.919-1.091
			c0.803,0,2.051,0.479,2.051,2.471v3.466h-1.056v-3.346c0-0.936-0.348-1.716-1.343-1.716c-0.695,0-1.235,0.492-1.415,1.08
			c-0.048,0.132-0.072,0.312-0.072,0.491v3.49h-1.056V372.267z"/>
		<path d="M-435.497,370.695l1.271,3.43c0.132,0.384,0.276,0.84,0.372,1.188h0.024c0.108-0.348,0.228-0.791,0.372-1.211l1.151-3.406
			h1.115l-1.583,4.138c-0.756,1.991-1.271,3.011-1.991,3.634c-0.516,0.456-1.031,0.636-1.295,0.684l-0.264-0.888
			c0.264-0.084,0.612-0.252,0.924-0.516c0.288-0.228,0.647-0.636,0.887-1.175c0.048-0.108,0.084-0.192,0.084-0.252
			c0-0.061-0.024-0.145-0.072-0.276l-2.147-5.349H-435.497z"/>
		<path d="M-428.958,369.028v1.667h1.511v0.804h-1.511v3.13c0,0.72,0.204,1.128,0.792,1.128c0.276,0,0.479-0.036,0.611-0.072
			l0.048,0.791c-0.204,0.084-0.528,0.145-0.936,0.145c-0.492,0-0.888-0.156-1.14-0.444c-0.3-0.312-0.408-0.827-0.408-1.511v-3.166
			h-0.899v-0.804h0.899v-1.392L-428.958,369.028z"/>
		<path d="M-421.136,377.399v0.6h-5.997v-0.6H-421.136z"/>
		<path d="M-418.985,369.028v1.667h1.511v0.804h-1.511v3.13c0,0.72,0.204,1.128,0.792,1.128c0.276,0,0.479-0.036,0.612-0.072
			l0.048,0.791c-0.204,0.084-0.528,0.145-0.936,0.145c-0.492,0-0.888-0.156-1.14-0.444c-0.3-0.312-0.408-0.827-0.408-1.511v-3.166
			h-0.899v-0.804h0.899v-1.392L-418.985,369.028z"/>
		<path d="M-416.285,372.506c0-0.684-0.012-1.271-0.048-1.811h0.923l0.036,1.14h0.048c0.264-0.78,0.899-1.271,1.607-1.271
			c0.12,0,0.204,0.012,0.3,0.036v0.995c-0.108-0.024-0.216-0.036-0.359-0.036c-0.744,0-1.271,0.563-1.416,1.355
			c-0.024,0.144-0.048,0.312-0.048,0.491v3.095h-1.043V372.506z"/>
		<path d="M-409.207,376.5l-0.084-0.731h-0.036c-0.324,0.456-0.947,0.863-1.775,0.863c-1.175,0-1.775-0.827-1.775-1.667
			c0-1.403,1.247-2.171,3.49-2.159v-0.119c0-0.48-0.132-1.344-1.319-1.344c-0.54,0-1.103,0.168-1.511,0.432l-0.24-0.695
			c0.48-0.312,1.176-0.516,1.907-0.516c1.775,0,2.207,1.211,2.207,2.374v2.171c0,0.504,0.024,0.996,0.096,1.392H-409.207z
			 M-409.362,373.538c-1.151-0.024-2.459,0.18-2.459,1.307c0,0.684,0.456,1.008,0.996,1.008c0.755,0,1.235-0.479,1.403-0.972
			c0.036-0.107,0.06-0.228,0.06-0.336V373.538z"/>
		<path d="M-406.637,372.267c0-0.6-0.012-1.092-0.048-1.571h0.936l0.06,0.959h0.024c0.288-0.552,0.959-1.091,1.919-1.091
			c0.803,0,2.051,0.479,2.051,2.471v3.466h-1.056v-3.346c0-0.936-0.348-1.716-1.343-1.716c-0.695,0-1.235,0.492-1.415,1.08
			c-0.048,0.132-0.072,0.312-0.072,0.491v3.49h-1.056V372.267z"/>
		<path d="M-400.121,375.421c0.312,0.203,0.864,0.42,1.392,0.42c0.768,0,1.127-0.384,1.127-0.864c0-0.504-0.3-0.779-1.079-1.067
			c-1.043-0.371-1.535-0.947-1.535-1.643c0-0.936,0.755-1.703,2.003-1.703c0.587,0,1.104,0.168,1.427,0.359l-0.264,0.768
			c-0.228-0.144-0.647-0.336-1.187-0.336c-0.624,0-0.972,0.36-0.972,0.792c0,0.479,0.348,0.695,1.104,0.983
			c1.007,0.384,1.523,0.888,1.523,1.751c0,1.02-0.792,1.739-2.171,1.739c-0.635,0-1.223-0.156-1.631-0.396L-400.121,375.421z"/>
		<path d="M-395.225,372.59c0-0.743-0.024-1.343-0.048-1.895h0.947l0.048,0.995h0.024c0.432-0.707,1.115-1.127,2.063-1.127
			c1.403,0,2.459,1.188,2.459,2.95c0,2.087-1.271,3.118-2.639,3.118c-0.768,0-1.439-0.336-1.787-0.911h-0.024v3.154h-1.043V372.59z
			 M-394.182,374.138c0,0.155,0.024,0.3,0.048,0.432c0.192,0.731,0.828,1.235,1.583,1.235c1.116,0,1.763-0.912,1.763-2.243
			c0-1.163-0.612-2.159-1.727-2.159c-0.72,0-1.391,0.517-1.595,1.308c-0.036,0.132-0.072,0.288-0.072,0.432V374.138z"/>
		<path d="M-385.183,376.5l-0.084-0.731h-0.036c-0.324,0.456-0.947,0.863-1.775,0.863c-1.175,0-1.775-0.827-1.775-1.667
			c0-1.403,1.247-2.171,3.49-2.159v-0.119c0-0.48-0.132-1.344-1.319-1.344c-0.54,0-1.103,0.168-1.511,0.432l-0.24-0.695
			c0.48-0.312,1.176-0.516,1.907-0.516c1.775,0,2.207,1.211,2.207,2.374v2.171c0,0.504,0.024,0.996,0.096,1.392H-385.183z
			 M-385.339,373.538c-1.151-0.024-2.459,0.18-2.459,1.307c0,0.684,0.456,1.008,0.996,1.008c0.755,0,1.235-0.479,1.403-0.972
			c0.036-0.107,0.06-0.228,0.06-0.336V373.538z"/>
		<path d="M-382.613,372.506c0-0.684-0.012-1.271-0.048-1.811h0.923l0.036,1.14h0.048c0.264-0.78,0.899-1.271,1.607-1.271
			c0.12,0,0.204,0.012,0.3,0.036v0.995c-0.108-0.024-0.216-0.036-0.359-0.036c-0.744,0-1.271,0.563-1.416,1.355
			c-0.024,0.144-0.048,0.312-0.048,0.491v3.095h-1.043V372.506z"/>
		<path d="M-378.221,373.789c0.024,1.428,0.935,2.016,1.991,2.016c0.755,0,1.211-0.132,1.607-0.3l0.18,0.755
			c-0.372,0.168-1.007,0.36-1.931,0.36c-1.787,0-2.854-1.176-2.854-2.927s1.032-3.13,2.723-3.13c1.895,0,2.399,1.667,2.399,2.734
			c0,0.216-0.024,0.384-0.036,0.491H-378.221z M-375.127,373.034c0.012-0.672-0.276-1.716-1.463-1.716
			c-1.067,0-1.535,0.984-1.619,1.716H-375.127z"/>
		<path d="M-372.797,372.267c0-0.6-0.012-1.092-0.048-1.571h0.936l0.06,0.959h0.024c0.288-0.552,0.959-1.091,1.919-1.091
			c0.803,0,2.051,0.479,2.051,2.471v3.466h-1.056v-3.346c0-0.936-0.348-1.716-1.343-1.716c-0.695,0-1.235,0.492-1.415,1.08
			c-0.048,0.132-0.072,0.312-0.072,0.491v3.49h-1.056V372.267z"/>
		<path d="M-362,376.284c-0.276,0.144-0.888,0.336-1.667,0.336c-1.751,0-2.891-1.188-2.891-2.963c0-1.787,1.224-3.082,3.119-3.082
			c0.624,0,1.175,0.156,1.463,0.3l-0.24,0.815c-0.252-0.144-0.647-0.275-1.223-0.275c-1.332,0-2.051,0.983-2.051,2.194
			c0,1.344,0.864,2.171,2.015,2.171c0.6,0,0.996-0.156,1.295-0.288L-362,376.284z"/>
		<path d="M-360.162,370.695l1.271,3.43c0.132,0.384,0.276,0.84,0.372,1.188h0.024c0.108-0.348,0.228-0.791,0.372-1.211l1.151-3.406
			h1.115l-1.583,4.138c-0.756,1.991-1.271,3.011-1.991,3.634c-0.516,0.456-1.031,0.636-1.295,0.684l-0.264-0.888
			c0.264-0.084,0.612-0.252,0.924-0.516c0.288-0.228,0.647-0.636,0.887-1.175c0.048-0.108,0.084-0.192,0.084-0.252
			c0-0.061-0.024-0.145-0.072-0.276l-2.147-5.349H-360.162z"/>
		<path d="M-349.413,373.646l-5.565,2.854v-0.827l4.726-2.352v-0.023l-4.726-2.351v-0.828l5.565,2.854V373.646z"/>
		<path d="M-346.47,369.028v1.667h1.511v0.804h-1.511v3.13c0,0.72,0.204,1.128,0.792,1.128c0.276,0,0.479-0.036,0.611-0.072
			l0.048,0.791c-0.204,0.084-0.528,0.145-0.936,0.145c-0.492,0-0.888-0.156-1.14-0.444c-0.3-0.312-0.408-0.827-0.408-1.511v-3.166
			h-0.899v-0.804h0.899v-1.392L-346.47,369.028z"/>
		<path d="M-343.77,372.506c0-0.684-0.012-1.271-0.048-1.811h0.923l0.036,1.14h0.048c0.264-0.78,0.899-1.271,1.607-1.271
			c0.12,0,0.204,0.012,0.3,0.036v0.995c-0.108-0.024-0.216-0.036-0.36-0.036c-0.744,0-1.271,0.563-1.416,1.355
			c-0.024,0.144-0.048,0.312-0.048,0.491v3.095h-1.043V372.506z"/>
		<path d="M-334.989,374.917c0,0.6,0.012,1.127,0.048,1.583h-0.936l-0.06-0.947h-0.024c-0.276,0.468-0.887,1.079-1.919,1.079
			c-0.911,0-2.003-0.504-2.003-2.543v-3.394h1.056v3.214c0,1.104,0.336,1.848,1.295,1.848c0.708,0,1.199-0.492,1.391-0.96
			c0.06-0.156,0.096-0.348,0.096-0.54v-3.562h1.056V374.917z"/>
		<path d="M-332.646,373.789c0.024,1.428,0.935,2.016,1.991,2.016c0.755,0,1.211-0.132,1.607-0.3l0.18,0.755
			c-0.372,0.168-1.007,0.36-1.931,0.36c-1.787,0-2.854-1.176-2.854-2.927s1.032-3.13,2.723-3.13c1.895,0,2.399,1.667,2.399,2.734
			c0,0.216-0.024,0.384-0.036,0.491H-332.646z M-329.552,373.034c0.012-0.672-0.276-1.716-1.463-1.716
			c-1.067,0-1.535,0.984-1.619,1.716H-329.552z"/>
		<path d="M-327.306,372.986l5.565-2.867v0.828l-4.689,2.351v0.023l4.689,2.352v0.827l-5.565-2.866V372.986z"/>
		<path d="M-320.958,376.979l3.346-8.695h0.816l-3.358,8.695H-320.958z"/>
		<path d="M-315.955,372.267c0-0.6-0.012-1.092-0.048-1.571h0.936l0.06,0.959h0.024c0.288-0.552,0.959-1.091,1.919-1.091
			c0.803,0,2.051,0.479,2.051,2.471v3.466h-1.056v-3.346c0-0.936-0.348-1.716-1.343-1.716c-0.695,0-1.235,0.492-1.415,1.08
			c-0.048,0.132-0.072,0.312-0.072,0.491v3.49h-1.056V372.267z"/>
		<path d="M-309.066,370.695l1.271,3.43c0.132,0.384,0.276,0.84,0.372,1.188h0.024c0.108-0.348,0.228-0.791,0.372-1.211l1.151-3.406
			h1.115l-1.583,4.138c-0.756,1.991-1.271,3.011-1.991,3.634c-0.516,0.456-1.031,0.636-1.295,0.684l-0.264-0.888
			c0.264-0.084,0.612-0.252,0.924-0.516c0.288-0.228,0.647-0.636,0.887-1.175c0.048-0.108,0.084-0.192,0.084-0.252
			c0-0.061-0.024-0.145-0.072-0.276l-2.147-5.349H-309.066z"/>
		<path d="M-302.527,369.028v1.667h1.511v0.804h-1.511v3.13c0,0.72,0.204,1.128,0.792,1.128c0.276,0,0.479-0.036,0.611-0.072
			l0.048,0.791c-0.204,0.084-0.528,0.145-0.936,0.145c-0.492,0-0.888-0.156-1.14-0.444c-0.3-0.312-0.408-0.827-0.408-1.511v-3.166
			h-0.899v-0.804h0.899v-1.392L-302.527,369.028z"/>
		<path d="M-294.706,377.399v0.6h-5.997v-0.6H-294.706z"/>
		<path d="M-292.555,369.028v1.667h1.511v0.804h-1.511v3.13c0,0.72,0.204,1.128,0.792,1.128c0.276,0,0.479-0.036,0.611-0.072
			l0.048,0.791c-0.204,0.084-0.528,0.145-0.936,0.145c-0.492,0-0.888-0.156-1.14-0.444c-0.3-0.312-0.408-0.827-0.408-1.511v-3.166
			h-0.899v-0.804h0.899v-1.392L-292.555,369.028z"/>
		<path d="M-289.854,372.506c0-0.684-0.012-1.271-0.048-1.811h0.923l0.036,1.14h0.048c0.264-0.78,0.899-1.271,1.607-1.271
			c0.12,0,0.204,0.012,0.3,0.036v0.995c-0.108-0.024-0.216-0.036-0.359-0.036c-0.744,0-1.271,0.563-1.416,1.355
			c-0.024,0.144-0.048,0.312-0.048,0.491v3.095h-1.043V372.506z"/>
		<path d="M-282.776,376.5l-0.084-0.731h-0.036c-0.324,0.456-0.947,0.863-1.775,0.863c-1.175,0-1.775-0.827-1.775-1.667
			c0-1.403,1.247-2.171,3.49-2.159v-0.119c0-0.48-0.132-1.344-1.319-1.344c-0.54,0-1.103,0.168-1.511,0.432l-0.24-0.695
			c0.48-0.312,1.176-0.516,1.907-0.516c1.775,0,2.207,1.211,2.207,2.374v2.171c0,0.504,0.024,0.996,0.096,1.392H-282.776z
			 M-282.932,373.538c-1.151-0.024-2.459,0.18-2.459,1.307c0,0.684,0.456,1.008,0.996,1.008c0.755,0,1.235-0.479,1.403-0.972
			c0.036-0.107,0.06-0.228,0.06-0.336V373.538z"/>
		<path d="M-449.621,387.387l5.565-2.867v0.828l-4.689,2.351v0.023l4.689,2.352v0.827l-5.565-2.866V387.387z"/>
		<path d="M-442.385,386.667c0-0.6-0.012-1.092-0.048-1.571h0.936l0.06,0.959h0.024c0.288-0.552,0.959-1.091,1.919-1.091
			c0.803,0,2.051,0.479,2.051,2.471v3.466h-1.056v-3.346c0-0.936-0.348-1.716-1.343-1.716c-0.695,0-1.235,0.492-1.415,1.08
			c-0.048,0.132-0.072,0.312-0.072,0.491v3.49h-1.056V386.667z"/>
		<path d="M-435.497,385.096l1.271,3.43c0.132,0.384,0.276,0.84,0.372,1.188h0.024c0.108-0.348,0.228-0.791,0.372-1.211l1.151-3.406
			h1.115l-1.583,4.138c-0.756,1.991-1.271,3.011-1.991,3.634c-0.516,0.456-1.031,0.636-1.295,0.684l-0.264-0.888
			c0.264-0.084,0.612-0.252,0.924-0.516c0.288-0.228,0.647-0.636,0.887-1.175c0.048-0.108,0.084-0.192,0.084-0.252
			c0-0.061-0.024-0.145-0.072-0.276l-2.147-5.349H-435.497z"/>
		<path d="M-428.958,383.429v1.667h1.511v0.804h-1.511v3.13c0,0.72,0.204,1.128,0.792,1.128c0.276,0,0.479-0.036,0.611-0.072
			l0.048,0.791c-0.204,0.084-0.528,0.145-0.936,0.145c-0.492,0-0.888-0.156-1.14-0.444c-0.3-0.312-0.408-0.827-0.408-1.511v-3.166
			h-0.899v-0.804h0.899v-1.392L-428.958,383.429z"/>
		<path d="M-421.136,391.8v0.6h-5.997v-0.6H-421.136z"/>
		<path d="M-420.149,390.9v-5.001h-0.815v-0.804h0.815v-0.276c0-0.815,0.18-1.559,0.672-2.026c0.396-0.384,0.923-0.54,1.415-0.54
			c0.372,0,0.696,0.084,0.899,0.168l-0.144,0.815c-0.156-0.071-0.372-0.132-0.671-0.132c-0.899,0-1.127,0.792-1.127,1.68v0.312
			h1.403v0.804h-1.403v5.001H-420.149z"/>
		<path d="M-411.656,387.95c0,2.146-1.487,3.082-2.89,3.082c-1.571,0-2.783-1.151-2.783-2.986c0-1.942,1.271-3.082,2.878-3.082
			C-412.783,384.964-411.656,386.175-411.656,387.95z M-416.261,388.01c0,1.271,0.732,2.231,1.763,2.231
			c1.007,0,1.763-0.948,1.763-2.255c0-0.983-0.492-2.231-1.739-2.231C-415.721,385.755-416.261,386.906-416.261,388.01z"/>
		<path d="M-410.321,386.906c0-0.684-0.012-1.271-0.048-1.811h0.923l0.036,1.14h0.048c0.264-0.78,0.899-1.271,1.607-1.271
			c0.12,0,0.204,0.012,0.3,0.036v0.995c-0.108-0.024-0.216-0.036-0.36-0.036c-0.744,0-1.271,0.563-1.416,1.355
			c-0.024,0.144-0.048,0.312-0.048,0.491v3.095h-1.043V386.906z"/>
		<path d="M-406.349,386.667c0-0.6-0.012-1.092-0.048-1.571h0.923l0.048,0.936h0.036c0.324-0.552,0.864-1.067,1.823-1.067
			c0.792,0,1.391,0.479,1.643,1.163h0.024c0.18-0.324,0.408-0.575,0.647-0.756c0.348-0.264,0.731-0.407,1.283-0.407
			c0.768,0,1.907,0.504,1.907,2.519v3.418h-1.032v-3.286c0-1.115-0.408-1.787-1.259-1.787c-0.6,0-1.067,0.443-1.247,0.96
			c-0.048,0.144-0.084,0.335-0.084,0.527v3.586h-1.031v-3.479c0-0.923-0.408-1.595-1.211-1.595c-0.66,0-1.14,0.527-1.308,1.056
			c-0.06,0.155-0.084,0.336-0.084,0.516v3.502h-1.031V386.667z"/>
		<path d="M-393.126,390.9l-0.084-0.731h-0.036c-0.324,0.456-0.947,0.863-1.775,0.863c-1.175,0-1.775-0.827-1.775-1.667
			c0-1.403,1.247-2.171,3.49-2.159v-0.119c0-0.48-0.132-1.344-1.319-1.344c-0.54,0-1.103,0.168-1.511,0.432l-0.24-0.695
			c0.48-0.312,1.176-0.516,1.907-0.516c1.775,0,2.207,1.211,2.207,2.374v2.171c0,0.504,0.024,0.996,0.096,1.392H-393.126z
			 M-393.282,387.938c-1.151-0.024-2.459,0.18-2.459,1.307c0,0.684,0.456,1.008,0.996,1.008c0.755,0,1.235-0.479,1.403-0.972
			c0.036-0.107,0.06-0.228,0.06-0.336V387.938z"/>
		<path d="M-389.333,383.429v1.667h1.511v0.804h-1.511v3.13c0,0.72,0.204,1.128,0.792,1.128c0.276,0,0.479-0.036,0.611-0.072
			l0.048,0.791c-0.204,0.084-0.528,0.145-0.936,0.145c-0.492,0-0.888-0.156-1.14-0.444c-0.3-0.312-0.408-0.827-0.408-1.511v-3.166
			h-0.899v-0.804h0.899v-1.392L-389.333,383.429z"/>
		<path d="M-381.152,388.046l-5.565,2.854v-0.827l4.726-2.352v-0.023l-4.726-2.351v-0.828l5.565,2.854V388.046z"/>
		<path d="M-379.445,382.913c0.503-0.084,1.163-0.156,2.003-0.156c1.031,0,1.787,0.24,2.267,0.672
			c0.444,0.384,0.708,0.972,0.708,1.69c0,0.732-0.216,1.308-0.624,1.728c-0.552,0.588-1.451,0.888-2.471,0.888
			c-0.312,0-0.6-0.013-0.839-0.072v3.238h-1.043V382.913z M-378.401,386.811c0.228,0.061,0.516,0.084,0.863,0.084
			c1.259,0,2.027-0.611,2.027-1.727c0-1.067-0.755-1.584-1.907-1.584c-0.456,0-0.804,0.036-0.983,0.084V386.811z"/>
		<path d="M-373.061,382.925c0.636-0.096,1.391-0.168,2.219-0.168c1.499,0,2.566,0.348,3.274,1.008
			c0.72,0.659,1.14,1.595,1.14,2.902c0,1.319-0.408,2.398-1.164,3.142c-0.755,0.756-2.003,1.164-3.574,1.164
			c-0.744,0-1.367-0.036-1.895-0.097V382.925z M-372.018,390.073c0.264,0.048,0.647,0.06,1.055,0.06c2.231,0,3.442-1.247,3.442-3.43
			c0.012-1.907-1.067-3.119-3.274-3.119c-0.54,0-0.947,0.049-1.223,0.108V390.073z"/>
		<path d="M-365.069,382.816h4.354v0.876h-3.31v2.687h3.058v0.863h-3.058v3.658h-1.043V382.816z"/>
		<path d="M-359.345,387.387l5.565-2.867v0.828l-4.689,2.351v0.023l4.689,2.352v0.827l-5.565-2.866V387.387z"/>
		<path d="M-352.997,391.38l3.346-8.695h0.816l-3.358,8.695H-352.997z"/>
		<path d="M-347.994,386.667c0-0.6-0.012-1.092-0.048-1.571h0.936l0.06,0.959h0.024c0.288-0.552,0.959-1.091,1.919-1.091
			c0.803,0,2.051,0.479,2.051,2.471v3.466h-1.056v-3.346c0-0.936-0.348-1.716-1.343-1.716c-0.695,0-1.235,0.492-1.415,1.08
			c-0.048,0.132-0.072,0.312-0.072,0.491v3.49h-1.056V386.667z"/>
		<path d="M-341.106,385.096l1.271,3.43c0.132,0.384,0.276,0.84,0.372,1.188h0.024c0.108-0.348,0.228-0.791,0.372-1.211l1.151-3.406
			h1.115l-1.583,4.138c-0.756,1.991-1.271,3.011-1.991,3.634c-0.516,0.456-1.031,0.636-1.295,0.684l-0.264-0.888
			c0.264-0.084,0.612-0.252,0.924-0.516c0.288-0.228,0.647-0.636,0.887-1.175c0.048-0.108,0.084-0.192,0.084-0.252
			c0-0.061-0.024-0.145-0.072-0.276l-2.147-5.349H-341.106z"/>
		<path d="M-334.566,383.429v1.667h1.511v0.804h-1.511v3.13c0,0.72,0.204,1.128,0.792,1.128c0.276,0,0.479-0.036,0.611-0.072
			l0.048,0.791c-0.204,0.084-0.528,0.145-0.936,0.145c-0.492,0-0.888-0.156-1.14-0.444c-0.3-0.312-0.408-0.827-0.408-1.511v-3.166
			h-0.899v-0.804h0.899v-1.392L-334.566,383.429z"/>
		<path d="M-326.745,391.8v0.6h-5.997v-0.6H-326.745z"/>
		<path d="M-325.758,390.9v-5.001h-0.815v-0.804h0.815v-0.276c0-0.815,0.18-1.559,0.672-2.026c0.396-0.384,0.923-0.54,1.415-0.54
			c0.372,0,0.696,0.084,0.899,0.168l-0.144,0.815c-0.156-0.071-0.372-0.132-0.671-0.132c-0.899,0-1.127,0.792-1.127,1.68v0.312
			h1.403v0.804h-1.403v5.001H-325.758z"/>
		<path d="M-317.265,387.95c0,2.146-1.487,3.082-2.89,3.082c-1.571,0-2.783-1.151-2.783-2.986c0-1.942,1.271-3.082,2.878-3.082
			C-318.392,384.964-317.265,386.175-317.265,387.95z M-321.87,388.01c0,1.271,0.732,2.231,1.763,2.231
			c1.007,0,1.763-0.948,1.763-2.255c0-0.983-0.492-2.231-1.739-2.231C-321.33,385.755-321.87,386.906-321.87,388.01z"/>
		<path d="M-315.93,386.906c0-0.684-0.012-1.271-0.048-1.811h0.923l0.036,1.14h0.048c0.264-0.78,0.899-1.271,1.607-1.271
			c0.12,0,0.204,0.012,0.3,0.036v0.995c-0.108-0.024-0.216-0.036-0.359-0.036c-0.744,0-1.271,0.563-1.416,1.355
			c-0.024,0.144-0.048,0.312-0.048,0.491v3.095h-1.043V386.906z"/>
		<path d="M-311.958,386.667c0-0.6-0.012-1.092-0.048-1.571h0.923l0.048,0.936h0.036c0.324-0.552,0.864-1.067,1.823-1.067
			c0.792,0,1.391,0.479,1.643,1.163h0.024c0.18-0.324,0.408-0.575,0.647-0.756c0.348-0.264,0.731-0.407,1.283-0.407
			c0.768,0,1.907,0.504,1.907,2.519v3.418h-1.032v-3.286c0-1.115-0.408-1.787-1.259-1.787c-0.6,0-1.067,0.443-1.247,0.96
			c-0.048,0.144-0.084,0.335-0.084,0.527v3.586h-1.031v-3.479c0-0.923-0.408-1.595-1.211-1.595c-0.66,0-1.14,0.527-1.308,1.056
			c-0.06,0.155-0.084,0.336-0.084,0.516v3.502h-1.031V386.667z"/>
		<path d="M-298.735,390.9l-0.084-0.731h-0.036c-0.324,0.456-0.947,0.863-1.775,0.863c-1.175,0-1.775-0.827-1.775-1.667
			c0-1.403,1.247-2.171,3.49-2.159v-0.119c0-0.48-0.132-1.344-1.319-1.344c-0.54,0-1.104,0.168-1.511,0.432l-0.24-0.695
			c0.48-0.312,1.175-0.516,1.907-0.516c1.775,0,2.207,1.211,2.207,2.374v2.171c0,0.504,0.024,0.996,0.096,1.392H-298.735z
			 M-298.892,387.938c-1.151-0.024-2.458,0.18-2.458,1.307c0,0.684,0.456,1.008,0.996,1.008c0.755,0,1.235-0.479,1.403-0.972
			c0.036-0.107,0.06-0.228,0.06-0.336V387.938z"/>
		<path d="M-294.942,383.429v1.667h1.511v0.804h-1.511v3.13c0,0.72,0.204,1.128,0.792,1.128c0.276,0,0.479-0.036,0.612-0.072
			l0.048,0.791c-0.204,0.084-0.528,0.145-0.936,0.145c-0.492,0-0.888-0.156-1.14-0.444c-0.3-0.312-0.408-0.827-0.408-1.511v-3.166
			h-0.899v-0.804h0.899v-1.392L-294.942,383.429z"/>
		<path d="M-286.761,388.046l-5.565,2.854v-0.827l4.726-2.352v-0.023l-4.726-2.351v-0.828l5.565,2.854V388.046z"/>
		<path d="M-449.621,401.786l5.565-2.867v0.828l-4.689,2.351v0.023l4.689,2.352v0.827l-5.565-2.866V401.786z"/>
		<path d="M-442.385,401.066c0-0.6-0.012-1.092-0.048-1.571h0.936l0.06,0.959h0.024c0.288-0.552,0.959-1.091,1.919-1.091
			c0.803,0,2.051,0.479,2.051,2.471v3.466h-1.056v-3.346c0-0.936-0.348-1.716-1.343-1.716c-0.695,0-1.235,0.492-1.415,1.08
			c-0.048,0.132-0.072,0.312-0.072,0.491v3.49h-1.056V401.066z"/>
		<path d="M-435.497,399.495l1.271,3.43c0.132,0.384,0.276,0.84,0.372,1.188h0.024c0.108-0.348,0.228-0.791,0.372-1.211l1.151-3.406
			h1.115l-1.583,4.138c-0.756,1.991-1.271,3.01-1.991,3.634c-0.516,0.456-1.031,0.636-1.295,0.684l-0.264-0.888
			c0.264-0.084,0.612-0.252,0.924-0.516c0.288-0.228,0.647-0.636,0.887-1.175c0.048-0.108,0.084-0.192,0.084-0.252
			c0-0.061-0.024-0.145-0.072-0.276l-2.147-5.349H-435.497z"/>
		<path d="M-428.958,397.828v1.667h1.511v0.804h-1.511v3.13c0,0.72,0.204,1.128,0.792,1.128c0.276,0,0.479-0.036,0.611-0.072
			l0.048,0.791c-0.204,0.084-0.528,0.145-0.936,0.145c-0.492,0-0.888-0.156-1.14-0.444c-0.3-0.312-0.408-0.827-0.408-1.511v-3.166
			h-0.899v-0.804h0.899v-1.392L-428.958,397.828z"/>
		<path d="M-421.136,406.199v0.6h-5.997v-0.6H-421.136z"/>
		<path d="M-419.669,402.589c0.024,1.428,0.936,2.016,1.991,2.016c0.755,0,1.211-0.132,1.607-0.3l0.18,0.755
			c-0.372,0.168-1.007,0.36-1.931,0.36c-1.787,0-2.854-1.176-2.854-2.927s1.032-3.13,2.723-3.13c1.895,0,2.399,1.667,2.399,2.734
			c0,0.216-0.024,0.384-0.036,0.491H-419.669z M-416.575,401.834c0.012-0.672-0.276-1.715-1.463-1.715
			c-1.067,0-1.535,0.983-1.619,1.715H-416.575z"/>
		<path d="M-413.789,399.495l0.828,1.247c0.216,0.324,0.396,0.624,0.587,0.947h0.036c0.192-0.348,0.384-0.647,0.576-0.959
			l0.815-1.235h1.14l-1.979,2.807l2.039,2.998h-1.2l-0.851-1.308c-0.228-0.336-0.42-0.659-0.624-1.007h-0.024
			c-0.192,0.348-0.396,0.659-0.612,1.007l-0.839,1.308h-1.164l2.063-2.962l-1.967-2.843H-413.789z"/>
		<path d="M-408.725,401.39c0-0.743-0.024-1.343-0.048-1.895h0.947l0.048,0.995h0.024c0.432-0.707,1.115-1.127,2.063-1.127
			c1.403,0,2.459,1.188,2.459,2.95c0,2.087-1.271,3.118-2.639,3.118c-0.768,0-1.439-0.336-1.787-0.911h-0.024v3.154h-1.043V401.39z
			 M-407.682,402.938c0,0.155,0.024,0.3,0.048,0.432c0.192,0.731,0.828,1.235,1.583,1.235c1.116,0,1.763-0.912,1.763-2.243
			c0-1.163-0.612-2.159-1.727-2.159c-0.72,0-1.391,0.517-1.595,1.308c-0.036,0.132-0.072,0.288-0.072,0.432V402.938z"/>
		<path d="M-396.644,402.35c0,2.146-1.487,3.082-2.89,3.082c-1.571,0-2.783-1.151-2.783-2.986c0-1.943,1.271-3.082,2.878-3.082
			C-397.771,399.363-396.644,400.574-396.644,402.35z M-401.25,402.409c0,1.271,0.732,2.231,1.763,2.231
			c1.007,0,1.763-0.948,1.763-2.255c0-0.983-0.492-2.231-1.739-2.231C-400.709,400.154-401.25,401.306-401.25,402.409z"/>
		<path d="M-395.309,401.306c0-0.684-0.012-1.271-0.048-1.811h0.923l0.036,1.14h0.048c0.264-0.78,0.899-1.271,1.607-1.271
			c0.12,0,0.204,0.012,0.3,0.036v0.995c-0.108-0.024-0.216-0.036-0.36-0.036c-0.744,0-1.271,0.563-1.416,1.355
			c-0.024,0.144-0.048,0.312-0.048,0.491v3.095h-1.043V401.306z"/>
		<path d="M-389.826,397.828v1.667h1.511v0.804h-1.511v3.13c0,0.72,0.204,1.128,0.792,1.128c0.276,0,0.479-0.036,0.611-0.072
			l0.048,0.791c-0.204,0.084-0.528,0.145-0.936,0.145c-0.492,0-0.888-0.156-1.14-0.444c-0.3-0.312-0.408-0.827-0.408-1.511v-3.166
			h-0.899v-0.804h0.899v-1.392L-389.826,397.828z"/>
		<path d="M-382.004,406.199v0.6h-5.997v-0.6H-382.004z"/>
		<path d="M-376.988,405.084c-0.276,0.144-0.887,0.336-1.667,0.336c-1.751,0-2.891-1.188-2.891-2.963
			c0-1.787,1.224-3.082,3.119-3.082c0.624,0,1.175,0.156,1.463,0.3l-0.24,0.815c-0.252-0.144-0.647-0.275-1.223-0.275
			c-1.332,0-2.051,0.983-2.051,2.194c0,1.344,0.864,2.171,2.015,2.171c0.6,0,0.996-0.156,1.295-0.288L-376.988,405.084z"/>
		<path d="M-370.568,402.35c0,2.146-1.487,3.082-2.89,3.082c-1.571,0-2.783-1.151-2.783-2.986c0-1.943,1.271-3.082,2.878-3.082
			C-371.695,399.363-370.568,400.574-370.568,402.35z M-375.174,402.409c0,1.271,0.732,2.231,1.763,2.231
			c1.007,0,1.763-0.948,1.763-2.255c0-0.983-0.492-2.231-1.739-2.231C-374.634,400.154-375.174,401.306-375.174,402.409z"/>
		<path d="M-364.22,396.784v7.017c0,0.516,0.012,1.104,0.048,1.499h-0.947l-0.048-1.008h-0.024c-0.324,0.648-1.032,1.14-1.979,1.14
			c-1.403,0-2.483-1.188-2.483-2.95c-0.012-1.931,1.188-3.118,2.603-3.118c0.888,0,1.487,0.42,1.751,0.888h0.024v-3.467H-364.22z
			 M-365.275,401.857c0-0.132-0.012-0.312-0.048-0.443c-0.156-0.672-0.731-1.224-1.523-1.224c-1.091,0-1.739,0.96-1.739,2.243
			c0,1.175,0.576,2.146,1.715,2.146c0.708,0,1.355-0.468,1.547-1.259c0.036-0.145,0.048-0.288,0.048-0.456V401.857z"/>
		<path d="M-361.877,402.589c0.024,1.428,0.935,2.016,1.991,2.016c0.755,0,1.211-0.132,1.607-0.3l0.18,0.755
			c-0.372,0.168-1.007,0.36-1.931,0.36c-1.787,0-2.854-1.176-2.854-2.927s1.032-3.13,2.723-3.13c1.895,0,2.399,1.667,2.399,2.734
			c0,0.216-0.024,0.384-0.036,0.491H-361.877z M-358.783,401.834c0.012-0.672-0.276-1.715-1.463-1.715
			c-1.067,0-1.535,0.983-1.619,1.715H-358.783z"/>
		<path d="M-350.973,402.445l-5.565,2.854v-0.827l4.726-2.352v-0.023l-4.726-2.351v-0.828l5.565,2.854V402.445z"/>
		<path d="M-346.087,405.3l-0.084-0.731h-0.036c-0.324,0.456-0.947,0.863-1.775,0.863c-1.175,0-1.775-0.827-1.775-1.667
			c0-1.403,1.247-2.171,3.49-2.159v-0.119c0-0.48-0.132-1.344-1.319-1.344c-0.54,0-1.103,0.168-1.511,0.432l-0.24-0.695
			c0.48-0.312,1.176-0.516,1.907-0.516c1.775,0,2.207,1.211,2.207,2.374v2.171c0,0.504,0.024,0.996,0.096,1.392H-346.087z
			 M-346.243,402.338c-1.151-0.024-2.459,0.18-2.459,1.307c0,0.684,0.456,1.008,0.996,1.008c0.755,0,1.235-0.479,1.403-0.972
			c0.036-0.108,0.06-0.228,0.06-0.336V402.338z"/>
		<path d="M-343.518,401.306c0-0.684-0.012-1.271-0.048-1.811h0.923l0.036,1.14h0.048c0.264-0.78,0.899-1.271,1.607-1.271
			c0.12,0,0.204,0.012,0.3,0.036v0.995c-0.108-0.024-0.216-0.036-0.359-0.036c-0.744,0-1.271,0.563-1.416,1.355
			c-0.024,0.144-0.048,0.312-0.048,0.491v3.095h-1.043V401.306z"/>
		<path d="M-338.035,397.828v1.667h1.511v0.804h-1.511v3.13c0,0.72,0.204,1.128,0.792,1.128c0.276,0,0.479-0.036,0.611-0.072
			l0.048,0.791c-0.204,0.084-0.528,0.145-0.936,0.145c-0.492,0-0.888-0.156-1.14-0.444c-0.3-0.312-0.408-0.827-0.408-1.511v-3.166
			h-0.899v-0.804h0.899v-1.392L-338.035,397.828z"/>
		<path d="M-335.382,405.3c0.024-0.396,0.048-0.983,0.048-1.499v-7.017h1.043v3.646h0.024c0.372-0.647,1.043-1.067,1.979-1.067
			c1.439,0,2.458,1.199,2.447,2.962c0,2.075-1.308,3.106-2.603,3.106c-0.84,0-1.511-0.324-1.943-1.092h-0.036l-0.048,0.96H-335.382z
			 M-334.291,402.973c0,0.133,0.024,0.265,0.048,0.384c0.204,0.732,0.816,1.235,1.583,1.235c1.103,0,1.763-0.899,1.763-2.23
			c0-1.163-0.6-2.159-1.727-2.159c-0.72,0-1.391,0.492-1.607,1.296c-0.024,0.12-0.06,0.264-0.06,0.432V402.973z"/>
		<path d="M-323.253,402.35c0,2.146-1.487,3.082-2.89,3.082c-1.571,0-2.783-1.151-2.783-2.986c0-1.943,1.271-3.082,2.878-3.082
			C-324.38,399.363-323.253,400.574-323.253,402.35z M-327.859,402.409c0,1.271,0.732,2.231,1.763,2.231
			c1.007,0,1.763-0.948,1.763-2.255c0-0.983-0.492-2.231-1.739-2.231C-327.319,400.154-327.859,401.306-327.859,402.409z"/>
		<path d="M-318.704,405.3l-0.084-0.731h-0.036c-0.324,0.456-0.947,0.863-1.775,0.863c-1.175,0-1.775-0.827-1.775-1.667
			c0-1.403,1.247-2.171,3.49-2.159v-0.119c0-0.48-0.132-1.344-1.319-1.344c-0.54,0-1.104,0.168-1.511,0.432l-0.24-0.695
			c0.48-0.312,1.175-0.516,1.907-0.516c1.775,0,2.207,1.211,2.207,2.374v2.171c0,0.504,0.024,0.996,0.096,1.392H-318.704z
			 M-318.86,402.338c-1.151-0.024-2.458,0.18-2.458,1.307c0,0.684,0.456,1.008,0.996,1.008c0.755,0,1.235-0.479,1.403-0.972
			c0.036-0.108,0.06-0.228,0.06-0.336V402.338z"/>
		<path d="M-316.134,401.306c0-0.684-0.012-1.271-0.048-1.811h0.923l0.036,1.14h0.048c0.264-0.78,0.899-1.271,1.607-1.271
			c0.12,0,0.204,0.012,0.3,0.036v0.995c-0.108-0.024-0.216-0.036-0.36-0.036c-0.744,0-1.271,0.563-1.416,1.355
			c-0.024,0.144-0.048,0.312-0.048,0.491v3.095h-1.043V401.306z"/>
		<path d="M-307.317,396.784v7.017c0,0.516,0.012,1.104,0.048,1.499h-0.947l-0.048-1.008h-0.024c-0.324,0.648-1.032,1.14-1.979,1.14
			c-1.403,0-2.483-1.188-2.483-2.95c-0.012-1.931,1.188-3.118,2.603-3.118c0.888,0,1.487,0.42,1.751,0.888h0.024v-3.467H-307.317z
			 M-308.373,401.857c0-0.132-0.012-0.312-0.048-0.443c-0.156-0.672-0.731-1.224-1.523-1.224c-1.091,0-1.739,0.96-1.739,2.243
			c0,1.175,0.576,2.146,1.715,2.146c0.708,0,1.355-0.468,1.547-1.259c0.036-0.145,0.048-0.288,0.048-0.456V401.857z"/>
		<path d="M-305.707,404.221c0.312,0.203,0.864,0.42,1.392,0.42c0.768,0,1.127-0.384,1.127-0.864c0-0.504-0.3-0.779-1.079-1.067
			c-1.043-0.371-1.535-0.947-1.535-1.643c0-0.936,0.755-1.703,2.003-1.703c0.587,0,1.103,0.168,1.427,0.359l-0.264,0.768
			c-0.228-0.144-0.647-0.336-1.187-0.336c-0.624,0-0.972,0.36-0.972,0.792c0,0.479,0.348,0.695,1.104,0.983
			c1.007,0.384,1.523,0.888,1.523,1.751c0,1.02-0.792,1.739-2.171,1.739c-0.635,0-1.223-0.156-1.631-0.396L-305.707,404.221z"/>
		<path d="M-300.895,401.786l5.565-2.867v0.828l-4.689,2.351v0.023l4.689,2.352v0.827l-5.565-2.866V401.786z"/>
		<path d="M-294.546,405.779l3.346-8.695h0.816l-3.358,8.695H-294.546z"/>
		<path d="M-289.542,401.066c0-0.6-0.012-1.092-0.048-1.571h0.936l0.06,0.959h0.024c0.288-0.552,0.959-1.091,1.919-1.091
			c0.803,0,2.051,0.479,2.051,2.471v3.466h-1.056v-3.346c0-0.936-0.348-1.716-1.343-1.716c-0.695,0-1.235,0.492-1.415,1.08
			c-0.048,0.132-0.072,0.312-0.072,0.491v3.49h-1.056V401.066z"/>
		<path d="M-454.708,416.187l5.565-2.867v0.828l-4.689,2.351v0.023l4.689,2.352v0.827l-5.565-2.866V416.187z"/>
		<path d="M-448.36,420.18l3.346-8.695h0.816l-3.358,8.695H-448.36z"/>
		<path d="M-443.357,415.467c0-0.6-0.012-1.092-0.048-1.571h0.936l0.06,0.959h0.024c0.288-0.552,0.959-1.091,1.919-1.091
			c0.803,0,2.051,0.479,2.051,2.471v3.466h-1.056v-3.346c0-0.936-0.348-1.716-1.343-1.716c-0.695,0-1.235,0.492-1.415,1.08
			c-0.048,0.132-0.072,0.312-0.072,0.491v3.49h-1.056V415.467z"/>
		<path d="M-436.469,413.896l1.271,3.43c0.132,0.384,0.276,0.84,0.372,1.188h0.024c0.108-0.348,0.228-0.791,0.372-1.211l1.151-3.406
			h1.115l-1.583,4.138c-0.756,1.991-1.271,3.01-1.991,3.634c-0.516,0.456-1.031,0.636-1.295,0.684l-0.264-0.888
			c0.264-0.084,0.612-0.252,0.924-0.516c0.288-0.228,0.647-0.636,0.887-1.175c0.048-0.108,0.084-0.192,0.084-0.252
			c0-0.061-0.024-0.145-0.072-0.276l-2.147-5.349H-436.469z"/>
		<path d="M-429.929,412.229v1.667h1.511v0.804h-1.511v3.13c0,0.72,0.204,1.128,0.792,1.128c0.276,0,0.479-0.036,0.611-0.072
			l0.048,0.791c-0.204,0.084-0.528,0.145-0.936,0.145c-0.492,0-0.888-0.156-1.14-0.444c-0.3-0.312-0.408-0.827-0.408-1.511v-3.166
			h-0.899v-0.804h0.899v-1.392L-429.929,412.229z"/>
		<path d="M-422.108,420.6v0.6h-5.997v-0.6H-422.108z"/>
		<path d="M-421.229,415.79c0-0.743-0.024-1.343-0.048-1.895h0.947l0.048,0.995h0.024c0.432-0.707,1.115-1.127,2.063-1.127
			c1.403,0,2.459,1.188,2.459,2.95c0,2.087-1.271,3.118-2.639,3.118c-0.768,0-1.439-0.336-1.787-0.911h-0.024v3.154h-1.043V415.79z
			 M-420.186,417.338c0,0.155,0.024,0.3,0.048,0.432c0.192,0.731,0.828,1.235,1.583,1.235c1.116,0,1.763-0.912,1.763-2.243
			c0-1.163-0.612-2.159-1.727-2.159c-0.72,0-1.391,0.517-1.595,1.308c-0.036,0.132-0.072,0.288-0.072,0.432V417.338z"/>
		<path d="M-414.401,415.706c0-0.684-0.012-1.271-0.048-1.811h0.923l0.036,1.14h0.048c0.264-0.78,0.899-1.271,1.607-1.271
			c0.12,0,0.204,0.012,0.3,0.036v0.995c-0.108-0.024-0.216-0.036-0.36-0.036c-0.744,0-1.271,0.563-1.416,1.355
			c-0.024,0.144-0.048,0.312-0.048,0.491v3.095h-1.043V415.706z"/>
		<path d="M-410.009,416.989c0.024,1.428,0.935,2.016,1.991,2.016c0.755,0,1.211-0.132,1.607-0.3l0.18,0.755
			c-0.372,0.168-1.007,0.36-1.931,0.36c-1.787,0-2.854-1.176-2.854-2.927s1.032-3.13,2.723-3.13c1.895,0,2.399,1.667,2.399,2.734
			c0,0.216-0.024,0.384-0.036,0.491H-410.009z M-406.915,416.234c0.012-0.672-0.276-1.715-1.463-1.715
			c-1.067,0-1.535,0.983-1.619,1.715H-406.915z"/>
		<path d="M-404.477,419.7v-5.001h-0.815v-0.804h0.815v-0.276c0-0.815,0.18-1.559,0.672-2.026c0.396-0.384,0.923-0.54,1.415-0.54
			c0.372,0,0.696,0.084,0.899,0.168l-0.144,0.815c-0.156-0.071-0.372-0.132-0.671-0.132c-0.899,0-1.127,0.792-1.127,1.68v0.312
			h1.403v0.804h-1.403v5.001H-404.477z"/>
		<path d="M-401.333,418.621c0.312,0.203,0.864,0.42,1.392,0.42c0.768,0,1.127-0.384,1.127-0.864c0-0.504-0.3-0.779-1.079-1.067
			c-1.043-0.371-1.535-0.947-1.535-1.643c0-0.936,0.755-1.703,2.003-1.703c0.587,0,1.104,0.168,1.427,0.359l-0.264,0.768
			c-0.228-0.144-0.647-0.336-1.187-0.336c-0.624,0-0.972,0.36-0.972,0.792c0,0.479,0.348,0.695,1.104,0.983
			c1.007,0.384,1.523,0.888,1.523,1.751c0,1.02-0.792,1.739-2.171,1.739c-0.635,0-1.223-0.156-1.631-0.396L-401.333,418.621z"/>
		<path d="M-390.956,416.846l-5.565,2.854v-0.827l4.726-2.352v-0.023l-4.726-2.351v-0.828l5.565,2.854V416.846z"/>
	</g>
</g>
</svg>
