<?xml version="1.0" encoding="iso-8859-1"?>
<!-- Generator: Adobe Illustrator 16.0.3, SVG Export Plug-In . SVG Version: 6.00 Build 0)  -->
<!DOCTYPE svg PUBLIC "-//W3C//DTD SVG 1.1//EN" "http://www.w3.org/Graphics/SVG/1.1/DTD/svg11.dtd">
<svg version="1.1" xmlns="http://www.w3.org/2000/svg" xmlns:xlink="http://www.w3.org/1999/xlink" x="0px" y="0px" width="280px"
	 height="150px" viewBox="33.5 33.5 280 150" style="enable-background:new 33.5 33.5 280 150;" xml:space="preserve">
<g id="Layer_1">
	<g id="New_Symbol_2">
	</g>
	<g id="New_Symbol_3_">
	</g>
	<g id="New_Symbol_2_">
	</g>
	<g id="New_Symbol_1_">
	</g>
	<g id="New_Symbol">
	</g>
	<g>
		<g>
			<g>
				<g>
					<g>
						<g>
							<g>
								<path style="fill:#00D2FF;" d="M232.5,109.5h-118c-0.553,0-1-0.447-1-1s0.447-1,1-1h118c0.553,0,1,0.447,1,1
									S233.053,109.5,232.5,109.5z"/>
							</g>
							<g>
								<g>
									<g>
										<g>
											<g>
												<g>
													<g>
														<g>
															<g id="Layer_1_102_">
																<g>
																	<g>
																		<g>
																			<g>
																				<g>
																					<g>
																						<g>
																							<g>
																								<g style="opacity:0;">
																									<rect x="33.5" y="33.5" style="fill:#FFFFFF;" width="280" height="150"/>
																								</g>
																							</g>
																						</g>
																					</g>
																				</g>
																			</g>
																		</g>
																	</g>
																</g>
															</g>
														</g>
													</g>
												</g>
											</g>
										</g>
									</g>
								</g>
							</g>
						</g>
					</g>
				</g>
			</g>
			<g>
				<circle style="fill:#FFFFFF;" cx="114.5" cy="108.5" r="3"/>
				<path style="fill:#00D2FF;" d="M114.5,106.5c1.104,0,2,0.896,2,2s-0.896,2-2,2s-2-0.896-2-2S113.396,106.5,114.5,106.5
					 M114.5,104.5c-2.206,0-4,1.794-4,4s1.794,4,4,4s4-1.794,4-4S116.706,104.5,114.5,104.5L114.5,104.5z"/>
			</g>
			<g>
				<circle style="fill:#FFFFFF;" cx="232.5" cy="108.5" r="3"/>
				<path style="fill:#00D2FF;" d="M232.5,106.5c1.104,0,2,0.896,2,2s-0.896,2-2,2s-2-0.896-2-2S231.396,106.5,232.5,106.5
					 M232.5,104.5c-2.206,0-4,1.794-4,4s1.794,4,4,4s4-1.794,4-4S234.706,104.5,232.5,104.5L232.5,104.5z"/>
			</g>
		</g>
	</g>
</g>
<g id="nyt_x5F_exporter_x5F_info" style="display:none;">
</g>
</svg>
