<?xml version="1.0" encoding="iso-8859-1"?>
<!-- Generator: Adobe Illustrator 16.0.3, SVG Export Plug-In . SVG Version: 6.00 Build 0)  -->
<!DOCTYPE svg PUBLIC "-//W3C//DTD SVG 1.1//EN" "http://www.w3.org/Graphics/SVG/1.1/DTD/svg11.dtd">
<svg version="1.1" xmlns="http://www.w3.org/2000/svg" xmlns:xlink="http://www.w3.org/1999/xlink" x="0px" y="0px" width="280px"
	 height="150px" viewBox="333.5 33.5 280 150" style="enable-background:new 333.5 33.5 280 150;" xml:space="preserve">
<g id="Layer_1">
	<g id="New_Symbol_2">
	</g>
	<g id="New_Symbol_3_">
	</g>
	<g id="New_Symbol_2_">
	</g>
	<g id="New_Symbol_1_">
	</g>
	<g id="New_Symbol">
	</g>
	<g>
		<g>
			<g>
				<rect x="428.5" y="137.375" style="opacity:0.5;fill:#FABE00;" width="16" height="16.125"/>
				<path style="fill:#FABE00;" d="M444.5,154.5h-16c-0.553,0-1-0.447-1-1v-16.125c0-0.553,0.447-1,1-1h16c0.553,0,1,0.447,1,1
					V153.5C445.5,154.053,445.053,154.5,444.5,154.5z M429.5,152.5h14v-14.125h-14V152.5z"/>
			</g>
			<g>
				<rect x="428.5" y="63.375" style="opacity:0.5;fill:#FABE00;" width="16" height="16.125"/>
				<path style="fill:#FABE00;" d="M444.5,80.5h-16c-0.553,0-1-0.447-1-1V63.375c0-0.553,0.447-1,1-1h16c0.553,0,1,0.447,1,1V79.5
					C445.5,80.053,445.053,80.5,444.5,80.5z M429.5,78.5h14V64.375h-14V78.5z"/>
			</g>
			<g>
				<rect x="502.5" y="137.375" style="opacity:0.5;fill:#FABE00;" width="16" height="16.125"/>
				<path style="fill:#FABE00;" d="M518.5,154.5h-16c-0.553,0-1-0.447-1-1v-16.125c0-0.553,0.447-1,1-1h16c0.553,0,1,0.447,1,1
					V153.5C519.5,154.053,519.053,154.5,518.5,154.5z M503.5,152.5h14v-14.125h-14V152.5z"/>
			</g>
			<g>
				<rect x="502.5" y="63.5" style="opacity:0.5;fill:#FABE00;" width="16" height="16.125"/>
				<path style="fill:#FABE00;" d="M518.5,80.625h-16c-0.553,0-1-0.447-1-1V63.5c0-0.553,0.447-1,1-1h16c0.553,0,1,0.447,1,1v16.125
					C519.5,80.178,519.053,80.625,518.5,80.625z M503.5,78.625h14V64.5h-14V78.625z"/>
			</g>
			<g>
				<path style="fill:#00D2FF;" d="M518.5,154.5h-90c-0.553,0-1-0.447-1-1v-90c0-0.553,0.447-1,1-1h90c0.553,0,1,0.447,1,1v90
					C519.5,154.053,519.053,154.5,518.5,154.5z M429.5,152.5h88v-88h-88V152.5z"/>
			</g>
			<g>
				<path style="fill:#B4B4B4;" d="M473.5,158.5c-0.553,0-1-0.447-1-1v-8c0-0.553,0.447-1,1-1s1,0.447,1,1v8
					C474.5,158.053,474.053,158.5,473.5,158.5z"/>
			</g>
			<g>
				<path style="fill:#B4B4B4;" d="M473.5,68.5c-0.553,0-1-0.447-1-1v-8c0-0.553,0.447-1,1-1s1,0.447,1,1v8
					C474.5,68.053,474.053,68.5,473.5,68.5z"/>
			</g>
			<g>
				<path style="fill:#B4B4B4;" d="M432.5,109.5h-8c-0.553,0-1-0.447-1-1s0.447-1,1-1h8c0.553,0,1,0.447,1,1
					S433.053,109.5,432.5,109.5z"/>
			</g>
			<g>
				<path style="fill:#B4B4B4;" d="M522.5,109.5h-8c-0.553,0-1-0.447-1-1s0.447-1,1-1h8c0.553,0,1,0.447,1,1
					S523.053,109.5,522.5,109.5z"/>
			</g>
			<g>
				<g>
					<g>
						<g>
							<g>
								<g>
									<g>
										<g>
											<g>
												<g>
													<g>
														<g>
															<g>
																<g id="Layer_1_101_">
																	<g>
																		<g>
																			<g>
																				<g>
																					<g>
																						<g>
																							<g>
																								<g>
																									<g style="opacity:0;">
																										<rect x="333.5" y="33.5" style="fill:#FFFFFF;" width="280" height="150"/>
																									</g>
																								</g>
																							</g>
																						</g>
																					</g>
																				</g>
																			</g>
																		</g>
																	</g>
																</g>
															</g>
														</g>
													</g>
												</g>
											</g>
										</g>
									</g>
								</g>
							</g>
						</g>
					</g>
				</g>
			</g>
		</g>
	</g>
</g>
<g id="nyt_x5F_exporter_x5F_info" style="display:none;">
</g>
</svg>
