<?xml version="1.0" encoding="iso-8859-1"?>
<!-- Generator: Adobe Illustrator 16.0.3, SVG Export Plug-In . SVG Version: 6.00 Build 0)  -->
<!DOCTYPE svg PUBLIC "-//W3C//DTD SVG 1.1//EN" "http://www.w3.org/Graphics/SVG/1.1/DTD/svg11.dtd">
<svg version="1.1" xmlns="http://www.w3.org/2000/svg" xmlns:xlink="http://www.w3.org/1999/xlink" x="0px" y="0px" width="280px"
	 height="150px" viewBox="-866.5 118.5 280 150" style="enable-background:new -866.5 118.5 280 150;" xml:space="preserve">
<g id="Layer_1">
	<g id="New_Symbol_2">
	</g>
	<g id="New_Symbol_3_">
	</g>
	<g id="New_Symbol_2_">
	</g>
	<g id="New_Symbol_1_">
	</g>
	<g id="New_Symbol">
	</g>
	<g>
		<g>
			<g>
				<g>
					<path d="M-738.793,180.5h-1.521l1.681-9.492l-2.48,1.809l-0.721-1.136l3.602-2.514h1.44L-738.793,180.5z"/>
				</g>
				<g>
					<path d="M-727.961,174.562l0.016,0.032c0.992,0.304,1.745,1.217,1.745,2.385c0,2.417-1.905,3.81-4.146,3.81
						c-1.681,0-3.393-0.896-3.393-3.025c0-1.776,1.296-3.009,2.769-3.313v-0.048c-0.832-0.368-1.408-1.152-1.408-2.129
						c0-2.097,1.664-3.394,3.617-3.394c1.665,0,3.089,0.896,3.089,2.722C-725.673,173.217-726.777,174.178-727.961,174.562z
						 M-729.61,175.154c-1.521,0-2.641,1.056-2.641,2.465c0,1.216,0.864,1.889,1.969,1.889c1.648,0,2.593-1.089,2.593-2.497
						C-727.689,175.922-728.474,175.154-729.61,175.154z M-728.874,170.16c-1.232,0-2.08,0.96-2.08,2.097
						c0,0.896,0.64,1.616,1.664,1.616c1.249,0,2.161-0.992,2.161-2.049C-727.129,170.752-727.833,170.16-728.874,170.16z"/>
				</g>
				<g>
					<path d="M-715.993,172.769c0,3.266-1.296,8.02-4.93,8.02c-2.272,0-3.169-1.713-3.169-3.825c0-3.313,1.328-8.084,4.962-8.084
						C-716.873,168.879-715.993,170.656-715.993,172.769z M-722.539,176.738c0,1.489,0.432,2.753,1.729,2.753
						c1.904,0,3.233-3.345,3.233-6.563c0-1.504-0.4-2.769-1.681-2.769C-721.195,170.16-722.539,173.537-722.539,176.738z"/>
				</g>
				<g>
					<path d="M-711.579,173.921c-1.393,0-2.481-1.072-2.481-2.465s1.089-2.48,2.481-2.48s2.48,1.088,2.48,2.48
						S-710.187,173.921-711.579,173.921z M-711.579,169.983c-0.801,0-1.457,0.656-1.457,1.473c0,0.801,0.656,1.457,1.457,1.457
						c0.8,0,1.456-0.656,1.456-1.457C-710.123,170.64-710.779,169.983-711.579,169.983z"/>
				</g>
			</g>
			<g>
				<g>
					<path style="opacity:0.5;fill:#FABE00;" d="M-704.5,227.5h-44c0-12.15,9.85-22,22-22S-704.5,215.35-704.5,227.5z"/>
					<path style="fill:#FABE00;" d="M-704.48,228.5c-0.006-0.001-0.013-0.001-0.02,0h-44c-0.552,0-1-0.447-1-1
						c0-12.683,10.318-23,23-23c12.614,0,22.889,10.207,22.999,22.796c0.014,0.065,0.021,0.134,0.021,0.204
						C-703.48,228.053-703.928,228.5-704.48,228.5z M-747.477,226.5h41.953c-0.523-11.117-9.732-20-20.977-20
						S-746.953,215.383-747.477,226.5z"/>
				</g>
				<g>
					<path style="fill:#00D2FF;" d="M-636.5,228.5h-180c-0.552,0-1-0.447-1-1s0.448-1,1-1h180c0.552,0,1,0.447,1,1
						S-635.948,228.5-636.5,228.5z"/>
				</g>
				<g>
					<g>
						<g>
							<g>
								<g>
									<g>
										<g>
											<g>
												<g>
													<g>
														<g>
															<g>
																<g>
																	<g id="Layer_1_96_">
																		<g>
																			<g>
																				<g>
																					<g>
																						<g>
																							<g>
																								<g>
																									<g>
																										<g style="opacity:0;">
																											<rect x="-866.5" y="118.5" style="fill:#FFFFFF;" width="280" height="150"/>
																										</g>
																									</g>
																								</g>
																							</g>
																						</g>
																					</g>
																				</g>
																			</g>
																		</g>
																	</g>
																</g>
															</g>
														</g>
													</g>
												</g>
											</g>
										</g>
									</g>
								</g>
							</g>
						</g>
					</g>
				</g>
			</g>
			<g>
				<circle style="fill:#FFFFFF;" cx="-726.5" cy="227.5" r="3"/>
				<path style="fill:#00D2FF;" d="M-726.5,225.5c1.104,0,2,0.896,2,2s-0.896,2-2,2s-2-0.896-2-2S-727.604,225.5-726.5,225.5
					 M-726.5,223.5c-2.206,0-4,1.794-4,4s1.794,4,4,4s4-1.794,4-4S-724.294,223.5-726.5,223.5L-726.5,223.5z"/>
			</g>
		</g>
	</g>
</g>
<g id="Isolation_Mode">
</g>
<g id="nyt_x5F_exporter_x5F_info" style="display:none;">
</g>
</svg>
