<?xml version="1.0" encoding="iso-8859-1"?>
<!-- Generator: Adobe Illustrator 16.0.3, SVG Export Plug-In . SVG Version: 6.00 Build 0)  -->
<!DOCTYPE svg PUBLIC "-//W3C//DTD SVG 1.1//EN" "http://www.w3.org/Graphics/SVG/1.1/DTD/svg11.dtd">
<svg version="1.1" xmlns="http://www.w3.org/2000/svg" xmlns:xlink="http://www.w3.org/1999/xlink" x="0px" y="0px" width="280px"
	 height="150px" viewBox="-566.5 118.5 280 150" style="enable-background:new -566.5 118.5 280 150;" xml:space="preserve">
<g id="Layer_1">
	<g id="New_Symbol_2">
	</g>
	<g id="New_Symbol_3_">
	</g>
	<g id="New_Symbol_2_">
	</g>
	<g id="New_Symbol_1_">
	</g>
	<g id="New_Symbol">
	</g>
	<g>
		<g>
			<g>
				<g>
					<path style="opacity:0.5;fill:#FABE00;" d="M-494.5,198.5c0,3.31-0.73,6.45-2.04,9.26l-19.96-9.26l19.79-9.63
						C-495.29,191.78-494.5,195.04-494.5,198.5z"/>
					<path style="fill:#FABE00;" d="M-496.541,208.76c-0.141,0-0.284-0.029-0.42-0.093l-19.96-9.26
						c-0.35-0.162-0.576-0.512-0.579-0.898c-0.003-0.386,0.215-0.739,0.563-0.908l19.79-9.63c0.495-0.24,1.094-0.035,1.336,0.461
						c1.533,3.144,2.311,6.53,2.311,10.068c0,3.387-0.718,6.645-2.134,9.683C-495.803,208.546-496.164,208.76-496.541,208.76z
						 M-514.17,198.479l17.124,7.944c1.027-2.507,1.546-5.168,1.546-7.923c0-2.893-0.568-5.675-1.692-8.283L-514.17,198.479z"/>
				</g>
				<g>
					<path style="opacity:0.5;fill:#FABE00;" d="M-368.5,147.5l-11.66,18.66c-5.48-3.43-9.34-9.21-10.17-15.94L-368.5,147.5z"/>
					<path style="fill:#FABE00;" d="M-380.16,167.16c-0.186,0-0.37-0.052-0.53-0.152c-5.907-3.696-9.782-9.771-10.632-16.666
						c-0.067-0.547,0.321-1.046,0.869-1.114l21.83-2.72c0.385-0.046,0.759,0.129,0.966,0.454s0.21,0.741,0.005,1.068l-11.66,18.66
						c-0.141,0.225-0.365,0.385-0.624,0.444C-380.01,167.151-380.085,167.16-380.16,167.16z M-389.192,151.086
						c0.953,5.558,4.078,10.455,8.727,13.676l10.004-16.01L-389.192,151.086z"/>
				</g>
				<g>
					<path style="opacity:0.5;fill:#FABE00;" d="M-338.5,210.505l-20.87,7.056c-0.729-2.19-1.13-4.53-1.13-6.96
						c0-4.36,1.27-8.431,3.46-11.851L-338.5,210.505z"/>
					<path style="fill:#FABE00;" d="M-359.37,218.561c-0.153,0-0.306-0.035-0.445-0.104c-0.238-0.119-0.419-0.327-0.503-0.579
						c-0.784-2.354-1.181-4.802-1.181-7.276c0-4.41,1.251-8.694,3.618-12.39c0.297-0.463,0.912-0.6,1.378-0.306l18.54,11.755
						c0.325,0.206,0.503,0.581,0.457,0.964s-0.308,0.705-0.672,0.828l-20.87,7.056C-359.154,218.543-359.262,218.561-359.37,218.561
						z M-356.715,200.141c-1.825,3.172-2.785,6.768-2.785,10.46c0,1.925,0.263,3.832,0.784,5.684l17.913-6.056L-356.715,200.141z"/>
				</g>
				<g>
					<g>
						<g>
							<g>
								<g>
									<g>
										<g>
											<g>
												<g>
													<g>
														<g>
															<g>
																<g id="Layer_1_84_">
																	<g>
																		<g>
																			<g>
																				<g>
																					<g>
																						<g>
																							<g>
																								<g>
																									<g style="opacity:0;">
																										<rect x="-566.5" y="118.5" style="fill:#FFFFFF;" width="280" height="150"/>
																									</g>
																								</g>
																							</g>
																						</g>
																					</g>
																				</g>
																			</g>
																		</g>
																	</g>
																</g>
															</g>
														</g>
													</g>
												</g>
											</g>
										</g>
									</g>
								</g>
							</g>
						</g>
					</g>
				</g>
				<g>
					<path style="fill:#00D2FF;" d="M-426.5,241.396c-0.142,0-0.285-0.03-0.421-0.094l-90-41.896
						c-0.35-0.162-0.575-0.512-0.578-0.897s0.216-0.739,0.563-0.908l90-43.777c0.496-0.24,1.095-0.034,1.337,0.462
						c0.241,0.497,0.035,1.095-0.462,1.337l-88.11,42.858l88.095,41.009c0.501,0.232,0.718,0.827,0.485,1.328
						C-425.763,241.182-426.124,241.396-426.5,241.396z"/>
				</g>
				<g>
					<path style="fill:#FABE00;" d="M-426.5,241.396c-0.552,0-1-0.447-1-1v-85.673c0-0.553,0.448-1,1-1s1,0.447,1,1v85.673
						C-425.5,240.948-425.948,241.396-426.5,241.396z"/>
				</g>
				<g>
					<path style="fill:#E1E1E1;" d="M-426.5,241.396c-0.417,0-0.805-0.262-0.947-0.679c-0.178-0.522,0.102-1.091,0.625-1.269
						l86.021-29.223l-86.234-54.658c-0.467-0.296-0.605-0.914-0.31-1.38c0.295-0.467,0.914-0.605,1.38-0.31l88,55.777
						c0.325,0.206,0.503,0.581,0.458,0.963c-0.046,0.383-0.307,0.705-0.671,0.829l-88,29.896
						C-426.285,241.379-426.394,241.396-426.5,241.396z"/>
				</g>
				<g>
					<path style="fill:#64BE64;" d="M-426.501,241.396c-0.181,0-0.364-0.049-0.529-0.151c-0.468-0.293-0.611-0.91-0.318-1.378
						l56.888-91.114l-55.916,6.963c-0.544,0.076-1.048-0.32-1.116-0.868c-0.068-0.549,0.321-1.048,0.869-1.116l58-7.223
						c0.382-0.047,0.759,0.129,0.966,0.454s0.21,0.74,0.005,1.067l-58,92.896C-425.841,241.229-426.167,241.396-426.501,241.396z"/>
				</g>
				<g>
					<path style="fill:#FFFFFF;" d="M-368.5,150.5c-1.654,0-3-1.346-3-2.999c0-1.654,1.346-3.001,3-3.001s3,1.347,3,3.001
						C-365.5,149.154-366.846,150.5-368.5,150.5z"/>
					<path style="fill:#64BE64;" d="M-368.5,145.5c1.104,0,2,0.896,2,2.001c0,1.104-0.896,1.999-2,1.999s-2-0.896-2-1.999
						C-370.5,146.396-369.604,145.5-368.5,145.5 M-368.5,143.5c-2.206,0-4,1.795-4,4.001c0,2.205,1.794,3.999,4,3.999
						s4-1.794,4-3.999C-364.5,145.295-366.294,143.5-368.5,143.5L-368.5,143.5z"/>
				</g>
				<g>
					<path style="fill:#FFFFFF;" d="M-338.5,213.5c-1.654,0-3-1.346-3-2.999c0-1.654,1.346-3.001,3-3.001s3,1.347,3,3.001
						C-335.5,212.154-336.846,213.5-338.5,213.5z"/>
					<path style="fill:#E1E1E1;" d="M-338.5,208.5c1.104,0,2,0.896,2,2.001c0,1.104-0.896,1.999-2,1.999s-2-0.896-2-1.999
						C-340.5,209.396-339.604,208.5-338.5,208.5 M-338.5,206.5c-2.206,0-4,1.795-4,4.001c0,2.205,1.794,3.999,4,3.999
						s4-1.794,4-3.999C-334.5,208.295-336.294,206.5-338.5,206.5L-338.5,206.5z"/>
				</g>
				<g>
					<path style="fill:#FFFFFF;" d="M-516.5,201.5c-1.654,0-3-1.346-3-2.999c0-1.654,1.346-3.001,3-3.001s3,1.347,3,3.001
						C-513.5,200.154-514.846,201.5-516.5,201.5z"/>
					<path style="fill:#00D2FF;" d="M-516.5,196.5c1.104,0,2,0.896,2,2.001c0,1.104-0.896,1.999-2,1.999s-2-0.896-2-1.999
						C-518.5,197.396-517.604,196.5-516.5,196.5 M-516.5,194.5c-2.206,0-4,1.795-4,4.001c0,2.205,1.794,3.999,4,3.999
						s4-1.794,4-3.999C-512.5,196.295-514.294,194.5-516.5,194.5L-516.5,194.5z"/>
				</g>
			</g>
			<g>
				<circle style="fill:#FABE00;" cx="-426.5" cy="154.5" r="3"/>
			</g>
			<g>
				<circle style="fill:#FABE00;" cx="-426.5" cy="240.5" r="3"/>
			</g>
		</g>
	</g>
</g>
<g id="Isolation_Mode">
</g>
<g id="nyt_x5F_exporter_x5F_info" style="display:none;">
</g>
</svg>
