<?xml version="1.0" encoding="iso-8859-1"?>
<!-- Generator: Adobe Illustrator 16.0.3, SVG Export Plug-In . SVG Version: 6.00 Build 0)  -->
<!DOCTYPE svg PUBLIC "-//W3C//DTD SVG 1.1//EN" "http://www.w3.org/Graphics/SVG/1.1/DTD/svg11.dtd">
<svg version="1.1" xmlns="http://www.w3.org/2000/svg" xmlns:xlink="http://www.w3.org/1999/xlink" x="0px" y="0px" width="280px"
	 height="150px" viewBox="633.5 288.5 280 150" style="enable-background:new 633.5 288.5 280 150;" xml:space="preserve">
<g id="Layer_1">
	<g>
		<path style="fill:#E1E1E1;" d="M799.5,368.5h-4c-0.553,0-1-0.447-1-1s0.447-1,1-1h4c0.553,0,1,0.447,1,1
			S800.053,368.5,799.5,368.5z M789.5,368.5h-6c-0.553,0-1-0.447-1-1s0.447-1,1-1h6c0.553,0,1,0.447,1,1S790.053,368.5,789.5,368.5z
			 M777.5,368.5h-6c-0.553,0-1-0.447-1-1s0.447-1,1-1h6c0.553,0,1,0.447,1,1S778.053,368.5,777.5,368.5z M765.5,368.5h-6
			c-0.553,0-1-0.447-1-1s0.447-1,1-1h6c0.553,0,1,0.447,1,1S766.053,368.5,765.5,368.5z M753.5,368.5h-6c-0.553,0-1-0.447-1-1
			s0.447-1,1-1h6c0.553,0,1,0.447,1,1S754.053,368.5,753.5,368.5z"/>
	</g>
	<g>
		<path style="fill:#E1E1E1;" d="M823.5,324.5h-4c-0.553,0-1-0.447-1-1s0.447-1,1-1h4c0.553,0,1,0.447,1,1
			S824.053,324.5,823.5,324.5z M813.5,324.5h-6c-0.553,0-1-0.447-1-1s0.447-1,1-1h6c0.553,0,1,0.447,1,1S814.053,324.5,813.5,324.5z
			 M801.5,324.5h-6c-0.553,0-1-0.447-1-1s0.447-1,1-1h6c0.553,0,1,0.447,1,1S802.053,324.5,801.5,324.5z M789.5,324.5h-6
			c-0.553,0-1-0.447-1-1s0.447-1,1-1h6c0.553,0,1,0.447,1,1S790.053,324.5,789.5,324.5z M777.5,324.5h-6c-0.553,0-1-0.447-1-1
			s0.447-1,1-1h6c0.553,0,1,0.447,1,1S778.053,324.5,777.5,324.5z M765.5,324.5h-6c-0.553,0-1-0.447-1-1s0.447-1,1-1h6
			c0.553,0,1,0.447,1,1S766.053,324.5,765.5,324.5z M753.5,324.5h-6c-0.553,0-1-0.447-1-1s0.447-1,1-1h6c0.553,0,1,0.447,1,1
			S754.053,324.5,753.5,324.5z M741.5,324.5h-6c-0.553,0-1-0.447-1-1s0.447-1,1-1h6c0.553,0,1,0.447,1,1S742.053,324.5,741.5,324.5z
			 M729.5,324.5h-6c-0.553,0-1-0.447-1-1s0.447-1,1-1h6c0.553,0,1,0.447,1,1S730.053,324.5,729.5,324.5z"/>
	</g>
	<g>
		<path style="fill:#E1E1E1;" d="M866.5,404.5h-6c-0.553,0-1-0.447-1-1s0.447-1,1-1h6c0.553,0,1,0.447,1,1
			S867.053,404.5,866.5,404.5z M854.5,404.5h-6c-0.553,0-1-0.447-1-1s0.447-1,1-1h6c0.553,0,1,0.447,1,1S855.053,404.5,854.5,404.5z
			 M842.5,404.5h-6c-0.553,0-1-0.447-1-1s0.447-1,1-1h6c0.553,0,1,0.447,1,1S843.053,404.5,842.5,404.5z M830.5,404.5h-6
			c-0.553,0-1-0.447-1-1s0.447-1,1-1h6c0.553,0,1,0.447,1,1S831.053,404.5,830.5,404.5z M818.5,404.5h-6c-0.553,0-1-0.447-1-1
			s0.447-1,1-1h6c0.553,0,1,0.447,1,1S819.053,404.5,818.5,404.5z M806.5,404.5h-6c-0.553,0-1-0.447-1-1s0.447-1,1-1h6
			c0.553,0,1,0.447,1,1S807.053,404.5,806.5,404.5z M794.5,404.5h-6c-0.553,0-1-0.447-1-1s0.447-1,1-1h6c0.553,0,1,0.447,1,1
			S795.053,404.5,794.5,404.5z M782.5,404.5h-6c-0.553,0-1-0.447-1-1s0.447-1,1-1h6c0.553,0,1,0.447,1,1S783.053,404.5,782.5,404.5z
			 M770.5,404.5h-6c-0.553,0-1-0.447-1-1s0.447-1,1-1h6c0.553,0,1,0.447,1,1S771.053,404.5,770.5,404.5z M758.5,404.5h-6
			c-0.553,0-1-0.447-1-1s0.447-1,1-1h6c0.553,0,1,0.447,1,1S759.053,404.5,758.5,404.5z M746.5,404.5h-6c-0.553,0-1-0.447-1-1
			s0.447-1,1-1h6c0.553,0,1,0.447,1,1S747.053,404.5,746.5,404.5z M734.5,404.5h-6c-0.553,0-1-0.447-1-1s0.447-1,1-1h6
			c0.553,0,1,0.447,1,1S735.053,404.5,734.5,404.5z M722.5,404.5h-6c-0.553,0-1-0.447-1-1s0.447-1,1-1h6c0.553,0,1,0.447,1,1
			S723.053,404.5,722.5,404.5z M710.5,404.5h-6c-0.553,0-1-0.447-1-1s0.447-1,1-1h6c0.553,0,1,0.447,1,1S711.053,404.5,710.5,404.5z
			 M698.5,404.5h-6c-0.553,0-1-0.447-1-1s0.447-1,1-1h6c0.553,0,1,0.447,1,1S699.053,404.5,698.5,404.5z M686.5,404.5h-6
			c-0.553,0-1-0.447-1-1s0.447-1,1-1h6c0.553,0,1,0.447,1,1S687.053,404.5,686.5,404.5z"/>
	</g>
	<g id="New_Symbol_2">
	</g>
	<g id="New_Symbol_3_">
	</g>
	<g id="New_Symbol_2_">
	</g>
	<g id="New_Symbol_1_">
	</g>
	<g id="New_Symbol">
	</g>
	<g>
		<g>
		</g>
	</g>
	<g>
		<g>
			<g>
				<path style="fill:#FABE00;" d="M773.5,417.5c-0.553,0-1-0.447-1-1v-106c0-0.553,0.447-1,1-1s1,0.447,1,1v106
					C774.5,417.053,774.053,417.5,773.5,417.5z"/>
			</g>
			<g>
				<g>
					<g>
						<path style="fill:#00D2FF;" d="M680.5,404.5c-0.259,0-0.515-0.101-0.707-0.293c-0.313-0.313-0.383-0.792-0.174-1.181l43-80
							c0.174-0.323,0.511-0.525,0.878-0.526c0.001,0,0.002,0,0.003,0c0.366,0,0.702,0.2,0.878,0.521l24,44
							c0.128,0.233,0.156,0.509,0.08,0.764c-0.075,0.255-0.25,0.47-0.484,0.596l-67,36C680.824,404.461,680.661,404.5,680.5,404.5z
							 M723.507,325.601l-40.553,75.445l63.187-33.95L723.507,325.601z"/>
					</g>
					<g>
						<path style="fill:#00D2FF;" d="M866.5,404.5c-0.162,0-0.324-0.039-0.474-0.119l-67-36c-0.234-0.126-0.409-0.341-0.484-0.596
							c-0.076-0.255-0.048-0.53,0.08-0.764l24-44c0.176-0.321,0.512-0.521,0.878-0.521c0.001,0,0.002,0,0.003,0
							c0.367,0.001,0.704,0.203,0.878,0.526l42.916,79.844c0.14,0.172,0.223,0.392,0.223,0.63c0,0.553-0.447,1-1,1
							C866.513,404.499,866.506,404.499,866.5,404.5z M800.859,367.096l63.187,33.95l-40.553-75.445L800.859,367.096z"/>
					</g>
					<g>
						<g>
							<g>
								<g>
									<g>
										<g>
											<g>
												<g>
													<g id="Layer_1_93_">
														<g>
															<g>
																<g>
																	<g>
																		<g>
																			<g>
																				<g>
																					<g>
																						<g style="opacity:0;">
																							<rect x="633.5" y="288.5" style="fill:#FFFFFF;" width="280" height="150"/>
																						</g>
																					</g>
																				</g>
																			</g>
																		</g>
																	</g>
																</g>
															</g>
														</g>
													</g>
												</g>
											</g>
										</g>
									</g>
								</g>
							</g>
						</g>
					</g>
				</g>
			</g>
		</g>
	</g>
</g>
<g id="Isolation_Mode">
</g>
<g id="nyt_x5F_exporter_x5F_info" style="display:none;">
</g>
</svg>
