<?xml version="1.0" encoding="iso-8859-1"?>
<!-- Generator: Adobe Illustrator 16.0.3, SVG Export Plug-In . SVG Version: 6.00 Build 0)  -->
<!DOCTYPE svg PUBLIC "-//W3C//DTD SVG 1.1//EN" "http://www.w3.org/Graphics/SVG/1.1/DTD/svg11.dtd">
<svg version="1.1" xmlns="http://www.w3.org/2000/svg" xmlns:xlink="http://www.w3.org/1999/xlink" x="0px" y="0px" width="280px"
	 height="150px" viewBox="933.5 288.5 280 150" style="enable-background:new 933.5 288.5 280 150;" xml:space="preserve">
<g id="Layer_1">
	<g id="New_Symbol_2">
	</g>
	<g id="New_Symbol_3_">
	</g>
	<g id="New_Symbol_2_">
	</g>
	<g id="New_Symbol_1_">
	</g>
	<g id="New_Symbol">
	</g>
	<g>
		<g>
		</g>
	</g>
	<g>
		<g>
			<g>
				<path style="fill:#E1E1E1;" d="M1172.279,399.077c-0.109,0-0.221-0.018-0.33-0.056l-5.017-1.756
					c-0.521-0.183-0.796-0.753-0.614-1.274c0.183-0.521,0.753-0.795,1.274-0.614l5.017,1.756c0.521,0.183,0.796,0.754,0.614,1.274
					C1173.079,398.819,1172.692,399.077,1172.279,399.077z M1161.6,395.339c-0.109,0-0.221-0.018-0.33-0.056l-5.663-1.982
					c-0.521-0.183-0.796-0.754-0.613-1.274c0.182-0.521,0.752-0.8,1.273-0.613l5.663,1.982c0.521,0.182,0.796,0.753,0.613,1.273
					C1162.399,395.081,1162.013,395.339,1161.6,395.339z M1150.273,391.375c-0.109,0-0.221-0.018-0.33-0.056l-5.663-1.982
					c-0.521-0.183-0.796-0.754-0.613-1.274c0.182-0.521,0.752-0.799,1.273-0.613l5.663,1.982c0.521,0.182,0.796,0.753,0.613,1.273
					C1151.073,391.117,1150.687,391.375,1150.273,391.375z M1138.947,387.41c-0.109,0-0.221-0.018-0.33-0.056l-5.663-1.982
					c-0.521-0.183-0.796-0.754-0.613-1.274c0.182-0.521,0.752-0.8,1.273-0.613l5.663,1.982c0.521,0.182,0.796,0.753,0.613,1.273
					C1139.747,387.152,1139.36,387.41,1138.947,387.41z M1127.621,383.445c-0.109,0-0.221-0.018-0.33-0.056l-5.663-1.981
					c-0.521-0.183-0.796-0.753-0.614-1.274c0.184-0.521,0.753-0.796,1.274-0.614l5.663,1.981c0.521,0.183,0.796,0.753,0.614,1.274
					C1128.421,383.188,1128.034,383.445,1127.621,383.445z M1116.295,379.481c-0.109,0-0.221-0.018-0.33-0.056l-5.663-1.982
					c-0.521-0.183-0.796-0.754-0.613-1.274c0.182-0.521,0.752-0.799,1.273-0.613l5.663,1.982c0.521,0.182,0.796,0.753,0.613,1.273
					C1117.095,379.224,1116.708,379.481,1116.295,379.481z M1104.969,375.517c-0.109,0-0.221-0.018-0.33-0.056l-5.663-1.982
					c-0.521-0.183-0.796-0.754-0.613-1.274c0.182-0.521,0.752-0.799,1.273-0.613l5.663,1.982c0.521,0.182,0.796,0.753,0.614,1.273
					C1105.769,375.259,1105.382,375.517,1104.969,375.517z M1093.643,371.553c-0.109,0-0.221-0.018-0.33-0.056l-5.663-1.982
					c-0.521-0.183-0.796-0.754-0.613-1.274c0.182-0.521,0.752-0.8,1.273-0.613l5.663,1.982c0.521,0.182,0.796,0.753,0.613,1.273
					C1094.442,371.295,1094.056,371.553,1093.643,371.553z M1082.315,367.588c-0.109,0-0.221-0.018-0.33-0.056l-5.663-1.982
					c-0.521-0.183-0.796-0.754-0.614-1.274c0.183-0.521,0.754-0.801,1.274-0.613l5.663,1.982c0.521,0.182,0.796,0.753,0.613,1.273
					C1083.115,367.33,1082.729,367.588,1082.315,367.588z M1070.989,363.623c-0.109,0-0.221-0.018-0.33-0.056l-5.663-1.981
					c-0.521-0.183-0.796-0.753-0.614-1.274c0.183-0.521,0.754-0.795,1.274-0.614l5.663,1.981c0.521,0.183,0.796,0.753,0.614,1.274
					C1071.789,363.365,1071.402,363.623,1070.989,363.623z M1059.663,359.659c-0.109,0-0.221-0.018-0.33-0.056l-5.663-1.982
					c-0.521-0.183-0.796-0.754-0.614-1.274c0.183-0.521,0.754-0.8,1.274-0.613l5.663,1.982c0.521,0.182,0.796,0.753,0.613,1.273
					C1060.463,359.401,1060.076,359.659,1059.663,359.659z M1048.337,355.694c-0.109,0-0.221-0.018-0.33-0.057l-5.663-1.982
					c-0.521-0.182-0.796-0.753-0.613-1.273c0.182-0.521,0.753-0.8,1.273-0.613l5.663,1.982c0.521,0.182,0.796,0.753,0.613,1.273
					C1049.137,355.437,1048.75,355.694,1048.337,355.694z M1037.011,351.73c-0.109,0-0.221-0.018-0.33-0.056l-5.663-1.982
					c-0.521-0.183-0.796-0.754-0.613-1.274c0.182-0.521,0.753-0.799,1.273-0.613l5.663,1.982c0.521,0.182,0.796,0.753,0.613,1.273
					C1037.811,351.473,1037.424,351.73,1037.011,351.73z M1025.685,347.766c-0.109,0-0.221-0.018-0.33-0.057l-5.663-1.982
					c-0.521-0.182-0.796-0.753-0.613-1.273c0.182-0.521,0.753-0.799,1.273-0.613l5.663,1.982c0.521,0.182,0.796,0.753,0.613,1.273
					C1026.484,347.508,1026.098,347.766,1025.685,347.766z M1014.358,343.802c-0.109,0-0.221-0.018-0.33-0.056l-5.663-1.983
					c-0.521-0.182-0.796-0.753-0.613-1.273c0.182-0.521,0.753-0.8,1.273-0.613l5.663,1.982c0.521,0.182,0.796,0.753,0.613,1.273
					C1015.158,343.544,1014.771,343.802,1014.358,343.802z M1003.032,339.837c-0.109,0-0.221-0.018-0.33-0.057l-5.663-1.982
					c-0.521-0.182-0.796-0.753-0.613-1.273c0.182-0.521,0.752-0.801,1.273-0.613l5.663,1.982c0.521,0.182,0.796,0.753,0.613,1.273
					C1003.832,339.579,1003.445,339.837,1003.032,339.837z M991.706,335.872c-0.109,0-0.221-0.018-0.33-0.056l-5.663-1.981
					c-0.521-0.183-0.796-0.753-0.614-1.274c0.183-0.521,0.753-0.795,1.274-0.614l5.663,1.981c0.521,0.183,0.796,0.753,0.614,1.274
					C992.506,335.614,992.119,335.872,991.706,335.872z M980.38,331.908c-0.109,0-0.221-0.018-0.33-0.057l-5.663-1.982
					c-0.521-0.182-0.796-0.753-0.613-1.273c0.182-0.521,0.752-0.8,1.273-0.613l5.663,1.982c0.521,0.182,0.796,0.753,0.614,1.273
					C981.18,331.65,980.793,331.908,980.38,331.908z"/>
			</g>
			<g>
				<path style="fill:#E1E1E1;" d="M1108.904,407.998c-0.291,0-0.579-0.126-0.776-0.369l-2.629-3.23
					c-0.349-0.428-0.284-1.058,0.145-1.406c0.43-0.35,1.06-0.284,1.406,0.145l2.629,3.23c0.349,0.428,0.284,1.058-0.145,1.406
					C1109.349,407.925,1109.126,407.998,1108.904,407.998z M1102.487,400.114c-0.291,0-0.579-0.126-0.776-0.369l-3.788-4.653
					c-0.349-0.428-0.284-1.058,0.145-1.406c0.427-0.35,1.06-0.283,1.406,0.145l3.788,4.653c0.349,0.428,0.284,1.058-0.145,1.406
					C1102.933,400.041,1102.709,400.114,1102.487,400.114z M1094.912,390.808c-0.291,0-0.579-0.126-0.776-0.369l-3.788-4.653
					c-0.349-0.428-0.284-1.058,0.145-1.406c0.427-0.349,1.06-0.283,1.406,0.145l3.788,4.653c0.349,0.428,0.284,1.058-0.145,1.406
					C1095.357,390.734,1095.134,390.808,1094.912,390.808z M1087.336,381.501c-0.291,0-0.579-0.126-0.776-0.369l-3.787-4.652
					c-0.349-0.428-0.284-1.058,0.145-1.406c0.427-0.35,1.06-0.283,1.406,0.145l3.787,4.652c0.349,0.428,0.284,1.058-0.145,1.406
					C1087.781,381.428,1087.558,381.501,1087.336,381.501z M1079.761,372.195c-0.291,0-0.579-0.126-0.776-0.369l-3.788-4.653
					c-0.349-0.428-0.284-1.058,0.145-1.406c0.428-0.35,1.06-0.284,1.406,0.145l3.788,4.653c0.349,0.428,0.284,1.058-0.145,1.406
					C1080.206,372.122,1079.982,372.195,1079.761,372.195z M1072.186,362.889c-0.291,0-0.579-0.126-0.776-0.369l-3.788-4.653
					c-0.349-0.428-0.284-1.058,0.145-1.406c0.428-0.35,1.06-0.283,1.406,0.145l3.788,4.653c0.349,0.428,0.284,1.058-0.145,1.406
					C1072.631,362.815,1072.407,362.889,1072.186,362.889z M1064.609,353.582c-0.291,0-0.579-0.126-0.776-0.369l-3.787-4.653
					c-0.349-0.428-0.284-1.058,0.145-1.406c0.43-0.35,1.06-0.283,1.406,0.145l3.787,4.653c0.349,0.428,0.284,1.058-0.145,1.406
					C1065.054,353.509,1064.831,353.582,1064.609,353.582z M1057.034,344.275c-0.291,0-0.579-0.126-0.776-0.369l-3.787-4.653
					c-0.349-0.428-0.284-1.058,0.145-1.406c0.43-0.349,1.06-0.283,1.406,0.145l3.787,4.653c0.349,0.428,0.284,1.058-0.145,1.406
					C1057.479,344.202,1057.256,344.275,1057.034,344.275z M1049.459,334.969c-0.291,0-0.579-0.126-0.776-0.369l-3.788-4.653
					c-0.349-0.428-0.284-1.058,0.145-1.406c0.428-0.35,1.059-0.283,1.406,0.145l3.788,4.653c0.349,0.428,0.284,1.058-0.145,1.406
					C1049.904,334.896,1049.681,334.969,1049.459,334.969z M1041.884,325.662c-0.291,0-0.579-0.126-0.776-0.369l-3.788-4.653
					c-0.349-0.428-0.284-1.058,0.145-1.406c0.428-0.35,1.059-0.284,1.406,0.145l3.788,4.653c0.349,0.428,0.284,1.058-0.145,1.406
					C1042.329,325.589,1042.105,325.662,1041.884,325.662z"/>
			</g>
			<g>
				<path style="fill:#E1E1E1;" d="M1016.719,398.746c-0.339,0-0.67-0.172-0.857-0.483c-0.285-0.473-0.133-1.088,0.34-1.373
					l5.138-3.099c0.474-0.287,1.088-0.134,1.373,0.34c0.285,0.473,0.133,1.088-0.34,1.373l-5.138,3.099
					C1017.072,398.7,1016.895,398.746,1016.719,398.746z M1026.995,392.549c-0.339,0-0.67-0.172-0.857-0.483
					c-0.285-0.473-0.133-1.088,0.34-1.373l5.138-3.099c0.475-0.287,1.088-0.133,1.373,0.34s0.133,1.088-0.34,1.373l-5.138,3.099
					C1027.349,392.503,1027.171,392.549,1026.995,392.549z M1037.271,386.352c-0.339,0-0.67-0.172-0.857-0.483
					c-0.285-0.474-0.133-1.088,0.34-1.373l5.139-3.099c0.474-0.287,1.088-0.134,1.373,0.34s0.133,1.088-0.34,1.373l-5.139,3.099
					C1037.624,386.306,1037.446,386.352,1037.271,386.352z M1047.547,380.154c-0.339,0-0.67-0.172-0.857-0.483
					c-0.285-0.474-0.133-1.088,0.34-1.373l5.138-3.098c0.474-0.287,1.088-0.134,1.373,0.34s0.133,1.088-0.34,1.373l-5.138,3.098
					C1047.9,380.108,1047.723,380.154,1047.547,380.154z M1057.822,373.958c-0.339,0-0.67-0.172-0.857-0.483
					c-0.285-0.474-0.133-1.088,0.34-1.373l5.139-3.099c0.474-0.287,1.088-0.134,1.373,0.34s0.133,1.088-0.34,1.373l-5.139,3.099
					C1058.176,373.912,1057.998,373.958,1057.822,373.958z M1068.099,367.761c-0.339,0-0.67-0.172-0.857-0.483
					c-0.285-0.473-0.133-1.088,0.34-1.373l5.138-3.099c0.474-0.287,1.088-0.134,1.373,0.34c0.285,0.473,0.133,1.088-0.34,1.373
					l-5.138,3.099C1068.452,367.715,1068.274,367.761,1068.099,367.761z M1078.375,361.563c-0.339,0-0.67-0.172-0.857-0.483
					c-0.285-0.473-0.133-1.088,0.34-1.373l5.138-3.099c0.474-0.287,1.087-0.134,1.373,0.34c0.285,0.473,0.133,1.088-0.34,1.373
					l-5.138,3.099C1078.729,361.518,1078.551,361.563,1078.375,361.563z M1088.65,355.366c-0.339,0-0.67-0.172-0.857-0.483
					c-0.285-0.474-0.133-1.088,0.34-1.373l5.139-3.099c0.475-0.287,1.088-0.134,1.373,0.34s0.133,1.088-0.34,1.373l-5.139,3.099
					C1089.004,355.32,1088.826,355.366,1088.65,355.366z M1098.927,349.169c-0.339,0-0.67-0.172-0.857-0.483
					c-0.285-0.473-0.133-1.088,0.34-1.373l5.138-3.099c0.474-0.286,1.088-0.134,1.373,0.34c0.285,0.473,0.133,1.088-0.34,1.373
					l-5.138,3.099C1099.28,349.123,1099.103,349.169,1098.927,349.169z M1109.202,342.973c-0.339,0-0.67-0.172-0.857-0.483
					c-0.285-0.474-0.133-1.088,0.34-1.373l5.139-3.099c0.474-0.286,1.088-0.134,1.373,0.34s0.133,1.088-0.34,1.373l-5.139,3.099
					C1109.556,342.927,1109.378,342.973,1109.202,342.973z M1119.479,336.775c-0.339,0-0.67-0.172-0.857-0.483
					c-0.285-0.473-0.133-1.088,0.34-1.373l5.138-3.099c0.473-0.286,1.088-0.134,1.373,0.34c0.285,0.473,0.133,1.088-0.34,1.373
					l-5.138,3.099C1119.832,336.729,1119.654,336.775,1119.479,336.775z M1129.755,330.578c-0.339,0-0.669-0.172-0.857-0.483
					c-0.285-0.473-0.133-1.087,0.34-1.373l0.532-0.321c0.471-0.287,1.087-0.133,1.373,0.34c0.285,0.473,0.133,1.087-0.34,1.373
					l-0.532,0.321C1130.109,330.532,1129.931,330.578,1129.755,330.578z"/>
			</g>
			<g>
				<path style="fill:#E1E1E1;" d="M1042.864,405.164c-0.209,0-0.421-0.065-0.601-0.201c-0.441-0.332-0.529-0.959-0.197-1.4
					l3.61-4.792c0.331-0.44,0.959-0.53,1.4-0.197c0.441,0.332,0.529,0.959,0.197,1.4l-3.61,4.792
					C1043.468,405.026,1043.168,405.164,1042.864,405.164z M1050.085,395.58c-0.209,0-0.421-0.065-0.601-0.201
					c-0.441-0.332-0.529-0.959-0.197-1.4l3.61-4.793c0.331-0.44,0.959-0.53,1.4-0.197c0.441,0.332,0.529,0.959,0.197,1.4
					l-3.61,4.793C1050.688,395.442,1050.389,395.58,1050.085,395.58z M1057.306,385.995c-0.209,0-0.421-0.065-0.601-0.201
					c-0.441-0.332-0.529-0.959-0.197-1.4l3.61-4.792c0.331-0.44,0.96-0.531,1.4-0.197c0.441,0.332,0.529,0.959,0.197,1.4
					l-3.61,4.792C1057.909,385.857,1057.609,385.995,1057.306,385.995z M1064.526,376.411c-0.209,0-0.421-0.065-0.601-0.201
					c-0.441-0.332-0.529-0.959-0.197-1.4l3.61-4.793c0.331-0.44,0.96-0.53,1.4-0.197c0.441,0.332,0.529,0.959,0.197,1.4l-3.61,4.793
					C1065.13,376.273,1064.83,376.411,1064.526,376.411z M1071.747,366.826c-0.209,0-0.421-0.065-0.601-0.201
					c-0.441-0.332-0.529-0.959-0.197-1.4l3.61-4.792c0.331-0.44,0.96-0.53,1.4-0.197c0.441,0.332,0.529,0.96,0.197,1.4l-3.61,4.792
					C1072.351,366.688,1072.051,366.826,1071.747,366.826z M1078.968,357.242c-0.209,0-0.421-0.065-0.601-0.201
					c-0.441-0.332-0.529-0.959-0.197-1.4l3.61-4.793c0.332-0.44,0.96-0.53,1.4-0.197c0.441,0.332,0.529,0.959,0.197,1.4l-3.61,4.793
					C1079.571,357.104,1079.271,357.242,1078.968,357.242z M1086.188,347.657c-0.209,0-0.421-0.065-0.601-0.201
					c-0.441-0.332-0.529-0.959-0.197-1.4l3.61-4.792c0.332-0.439,0.96-0.53,1.4-0.197c0.441,0.332,0.529,0.959,0.197,1.4
					l-3.61,4.792C1086.792,347.52,1086.492,347.657,1086.188,347.657z M1093.409,338.073c-0.209,0-0.421-0.065-0.601-0.201
					c-0.441-0.332-0.529-0.959-0.197-1.4l3.61-4.793c0.332-0.44,0.959-0.53,1.4-0.197c0.441,0.332,0.529,0.959,0.197,1.4
					l-3.61,4.793C1094.013,337.936,1093.713,338.073,1093.409,338.073z M1100.63,328.488c-0.209,0-0.421-0.065-0.601-0.201
					c-0.441-0.332-0.529-0.959-0.197-1.4l3.505-4.652c0.331-0.44,0.959-0.53,1.4-0.197c0.441,0.332,0.529,0.959,0.197,1.4
					l-3.505,4.652C1101.233,328.351,1100.934,328.488,1100.63,328.488z"/>
			</g>
			<g>
				<g>
					<g>
						<g>
							<path style="fill:#00D2FF;" d="M1042.866,405.164c-0.079,0-0.159-0.009-0.239-0.029l-26.147-6.418
								c-0.263-0.063-0.487-0.231-0.624-0.465c-0.137-0.232-0.174-0.511-0.102-0.771l20.973-76.27l-61.87,8.705
								c-0.561,0.077-1.053-0.306-1.13-0.851c-0.077-0.547,0.304-1.053,0.851-1.13l63.378-8.917c0.337-0.048,0.669,0.077,0.891,0.33
								c0.223,0.253,0.303,0.601,0.213,0.926l-21.104,76.745l25.149,6.174c0.536,0.131,0.864,0.673,0.732,1.209
								C1043.725,404.858,1043.315,405.164,1042.866,405.164z"/>
						</g>
						<g>
							<path style="fill:#00D2FF;" d="M1108.903,407.998c-0.285,0-0.56-0.122-0.751-0.34c-0.223-0.253-0.303-0.601-0.213-0.926
								l21.109-76.75l-25.151-6.176c-0.536-0.131-0.864-0.673-0.732-1.209c0.131-0.536,0.676-0.867,1.209-0.732l26.15,6.421
								c0.263,0.063,0.487,0.231,0.624,0.465c0.137,0.232,0.174,0.511,0.102,0.771l-20.979,76.273l61.868-8.709
								c0.556-0.081,1.053,0.305,1.13,0.851c0.077,0.547-0.304,1.053-0.851,1.13l-63.376,8.921
								C1108.996,407.995,1108.949,407.998,1108.903,407.998z"/>
						</g>
						<g>
							<g>
								<g>
									<g>
										<g>
											<g>
												<g>
													<g>
														<g id="Layer_1_88_">
															<g>
																<g>
																	<g>
																		<g>
																			<g>
																				<g>
																					<g>
																						<g>
																							<g style="opacity:0;">
																								<rect x="933.5" y="288.5" style="fill:#FFFFFF;" width="280" height="150"/>
																							</g>
																						</g>
																					</g>
																				</g>
																			</g>
																		</g>
																	</g>
																</g>
															</g>
														</g>
													</g>
												</g>
											</g>
										</g>
									</g>
								</g>
							</g>
						</g>
					</g>
				</g>
			</g>
		</g>
	</g>
	<g>
		<path style="fill:#FFFFFF;" d="M1073.5,366.5c-1.654,0-3-1.346-3-2.999c0-1.654,1.346-3.001,3-3.001s3,1.347,3,3.001
			C1076.5,365.154,1075.154,366.5,1073.5,366.5z"/>
		<path style="fill:#FABE00;" d="M1073.5,361.5c1.104,0,2,0.896,2,2.001c0,1.104-0.896,1.999-2,1.999c-1.105,0-2-0.896-2-1.999
			C1071.5,362.396,1072.395,361.5,1073.5,361.5 M1073.5,359.5c-2.205,0-4,1.795-4,4.001c0,2.205,1.795,3.999,4,3.999
			s4-1.794,4-3.999C1077.5,361.295,1075.705,359.5,1073.5,359.5L1073.5,359.5z"/>
	</g>
</g>
<g id="Isolation_Mode">
</g>
<g id="nyt_x5F_exporter_x5F_info" style="display:none;">
</g>
</svg>
