<?xml version="1.0" encoding="iso-8859-1"?>
<!-- Generator: Adobe Illustrator 16.0.3, SVG Export Plug-In . SVG Version: 6.00 Build 0)  -->
<!DOCTYPE svg PUBLIC "-//W3C//DTD SVG 1.1//EN" "http://www.w3.org/Graphics/SVG/1.1/DTD/svg11.dtd">
<svg version="1.1" xmlns="http://www.w3.org/2000/svg" xmlns:xlink="http://www.w3.org/1999/xlink" x="0px" y="0px" width="280px"
	 height="150px" viewBox="334.5 301.5 280 150" style="enable-background:new 334.5 301.5 280 150;" xml:space="preserve">
<g id="Layer_1">
	<g id="New_Symbol_2">
	</g>
	<g id="New_Symbol_3_">
	</g>
	<g id="New_Symbol_2_">
	</g>
	<g id="New_Symbol_1_">
	</g>
	<g id="New_Symbol">
	</g>
	<g>
		<g>
		</g>
	</g>
	<g>
		<g>
		</g>
	</g>
	<g>
		<g>
			<g>
				<g>
					<g>
						<g>
							<g>
								<g>
									<g>
										<g>
											<g style="opacity:0;">
												<rect x="334.5" y="301.5" style="fill:#FFFFFF;" width="280" height="150"/>
											</g>
										</g>
									</g>
								</g>
							</g>
						</g>
					</g>
				</g>
			</g>
		</g>
	</g>
	<g>
		<path style="fill:#00D2FF;" d="M444.5,427.5c-28.121,0-51-22.879-51-51s22.879-51,51-51s51,22.879,51,51
			S472.621,427.5,444.5,427.5z M444.5,327.5c-27.019,0-49,21.981-49,49s21.981,49,49,49s49-21.981,49-49S471.519,327.5,444.5,327.5z
			"/>
	</g>
	<g>
		<path style="fill:#00D2FF;" d="M524.5,407.5c-17.094,0-31-13.906-31-31s13.906-31,31-31s31,13.906,31,31
			S541.594,407.5,524.5,407.5z M524.5,347.5c-15.99,0-29,13.01-29,29s13.01,29,29,29s29-13.01,29-29S540.49,347.5,524.5,347.5z"/>
	</g>
	<g>
		<path style="fill:#FFFFFF;" d="M494.5,379.5c-1.654,0-3-1.346-3-3s1.346-3,3-3c0.802,0,1.555,0.313,2.121,0.879
			c0.567,0.566,0.88,1.32,0.879,2.122c0.001,0.8-0.312,1.554-0.879,2.12C496.055,379.188,495.302,379.5,494.5,379.5z"/>
		<path style="fill:#00D2FF;" d="M494.5,374.5c1.104,0,2.001,0.896,2,2c0.001,1.104-0.896,2-2,2s-2-0.896-2-2
			S493.396,374.5,494.5,374.5 M494.5,372.5c-2.206,0-4,1.794-4,4s1.794,4,4,4c1.068,0,2.073-0.416,2.828-1.171
			c0.757-0.757,1.173-1.762,1.172-2.831c0.001-1.065-0.415-2.07-1.172-2.827C496.573,372.916,495.568,372.5,494.5,372.5L494.5,372.5
			z"/>
	</g>
</g>
<g id="Isolation_Mode">
</g>
<g id="nyt_x5F_exporter_x5F_info" style="display:none;">
</g>
</svg>
