<?xml version="1.0" encoding="iso-8859-1"?>
<!-- Generator: Adobe Illustrator 16.0.3, SVG Export Plug-In . SVG Version: 6.00 Build 0)  -->
<!DOCTYPE svg PUBLIC "-//W3C//DTD SVG 1.1//EN" "http://www.w3.org/Graphics/SVG/1.1/DTD/svg11.dtd">
<svg version="1.1" xmlns="http://www.w3.org/2000/svg" xmlns:xlink="http://www.w3.org/1999/xlink" x="0px" y="0px" width="280px"
	 height="150px" viewBox="-266.5 118.5 280 150" style="enable-background:new -266.5 118.5 280 150;" xml:space="preserve">
<g id="Layer_1">
	<g id="New_Symbol_2">
	</g>
	<g id="New_Symbol_3_">
	</g>
	<g id="New_Symbol_2_">
	</g>
	<g id="New_Symbol_1_">
	</g>
	<g id="New_Symbol">
	</g>
	<g>
		<g>
			<g>
				<path style="fill:#C8C8C8;" d="M-86.81,242.5c-22.609,0-41.003-18.396-41.003-41.006c0-22.604,18.394-40.994,41.003-40.994
					c22.606,0,40.997,18.39,40.997,40.994C-45.813,224.104-64.204,242.5-86.81,242.5z M-86.81,162.5
					c-21.506,0-39.003,17.493-39.003,38.994c0,21.508,17.497,39.006,39.003,39.006c21.503,0,38.997-17.498,38.997-39.006
					C-47.813,179.993-65.307,162.5-86.81,162.5z"/>
			</g>
			<g>
				<path style="fill:#00D2FF;" d="M-215.499,227.5c-0.354,0-0.696-0.188-0.878-0.52c-0.266-0.483-0.088-1.092,0.396-1.357
					l153.125-84c0.484-0.264,1.092-0.089,1.358,0.396c0.266,0.483,0.088,1.092-0.396,1.357l-153.125,84
					C-215.172,227.46-215.336,227.5-215.499,227.5z"/>
			</g>
			<g>
				<path style="fill:#FFFFFF;" d="M-105.813,169.5c-1.654,0-3-1.346-3-2.999c0-1.654,1.346-3.001,3-3.001s3,1.347,3,3.001
					C-102.813,168.154-104.158,169.5-105.813,169.5z"/>
				<path style="fill:#00D2FF;" d="M-105.813,164.5c1.104,0,2,0.896,2,2.001c0,1.104-0.896,1.999-2,1.999s-2-0.896-2-1.999
					C-107.813,165.396-106.917,164.5-105.813,164.5 M-105.813,162.5c-2.206,0-4,1.795-4,4.001c0,2.205,1.794,3.999,4,3.999
					s4-1.794,4-3.999C-101.813,164.295-103.607,162.5-105.813,162.5L-105.813,162.5z"/>
			</g>
			<g>
				<g>
					<g>
						<g>
							<g>
								<g>
									<g>
										<g>
											<g>
												<g>
													<g>
														<g>
															<g>
																<g id="Layer_1_95_">
																	<g>
																		<g>
																			<g>
																				<g>
																					<g>
																						<g>
																							<g>
																								<g>
																									<g style="opacity:0;">
																										<rect x="-266.5" y="118.5" style="fill:#FFFFFF;" width="280" height="150"/>
																									</g>
																								</g>
																							</g>
																						</g>
																					</g>
																				</g>
																			</g>
																		</g>
																	</g>
																</g>
															</g>
														</g>
													</g>
												</g>
											</g>
										</g>
									</g>
								</g>
							</g>
						</g>
					</g>
				</g>
			</g>
		</g>
	</g>
</g>
<g id="Isolation_Mode">
</g>
<g id="nyt_x5F_exporter_x5F_info" style="display:none;">
</g>
</svg>
