<?xml version="1.0" encoding="iso-8859-1"?>
<!-- Generator: Adobe Illustrator 16.0.3, SVG Export Plug-In . SVG Version: 6.00 Build 0)  -->
<!DOCTYPE svg PUBLIC "-//W3C//DTD SVG 1.1//EN" "http://www.w3.org/Graphics/SVG/1.1/DTD/svg11.dtd">
<svg version="1.1" xmlns="http://www.w3.org/2000/svg" xmlns:xlink="http://www.w3.org/1999/xlink" x="0px" y="0px" width="280px"
	 height="150px" viewBox="34.5 301.5 280 150" style="enable-background:new 34.5 301.5 280 150;" xml:space="preserve">
<g id="Layer_1">
	<g id="New_Symbol_2">
	</g>
	<g id="New_Symbol_3_">
	</g>
	<g id="New_Symbol_2_">
	</g>
	<g id="New_Symbol_1_">
	</g>
	<g id="New_Symbol">
	</g>
	<g>
		<g>
		</g>
	</g>
	<g>
		<g>
		</g>
	</g>
	<g>
		<g>
			<g>
				<g>
					<g>
						<g>
							<g>
								<path style="fill:#00D2FF;" d="M175.555,437.51c-21.754,0-42.017-11.69-52.883-30.51
									c-8.146-14.11-10.311-30.549-6.094-46.288c4.217-15.738,14.311-28.893,28.422-37.039c9.271-5.354,19.8-8.183,30.444-8.183
									c21.754,0,42.018,11.69,52.884,30.51c16.817,29.13,6.801,66.51-22.328,83.327C196.728,434.681,186.2,437.51,175.555,437.51z
									 M175.444,317.49c-10.294,0-20.476,2.737-29.444,7.915c-13.648,7.88-23.411,20.603-27.49,35.825
									c-4.078,15.222-1.985,31.121,5.895,44.77c10.509,18.202,30.109,29.51,51.15,29.51c10.295,0,20.477-2.736,29.445-7.915
									c13.648-7.88,23.411-20.603,27.49-35.824c4.078-15.223,1.985-31.122-5.895-44.771
									C216.086,328.798,196.486,317.49,175.444,317.49z"/>
							</g>
							<g>
								<path style="fill:#00D2FF;" d="M159.449,377.504c-10.287,0-19.869-5.528-25.007-14.426
									c-3.853-6.674-4.876-14.447-2.882-21.891c1.994-7.442,6.767-13.662,13.439-17.515c4.384-2.531,9.361-3.869,14.396-3.869
									c10.286,0,19.869,5.529,25.008,14.43c3.852,6.672,4.875,14.445,2.881,21.888c-1.994,7.441-6.767,13.661-13.438,17.514
									C169.462,376.166,164.483,377.504,159.449,377.504z M159.396,321.804c-4.684,0-9.315,1.245-13.396,3.602
									c-6.21,3.585-10.651,9.374-12.508,16.3c-1.855,6.927-0.903,14.162,2.683,20.373c4.781,8.281,13.699,13.426,23.274,13.426
									c4.684,0,9.316-1.246,13.396-3.602c6.21-3.585,10.651-9.373,12.507-16.3c1.855-6.926,0.903-14.159-2.682-20.369
									C177.889,326.95,168.97,321.804,159.396,321.804z"/>
							</g>
							<g>
								<path style="fill:#00D2FF;" d="M207.68,405.354c-10.286,0-19.867-5.527-25.005-14.425
									c-3.853-6.673-4.876-14.447-2.882-21.89c1.994-7.443,6.767-13.663,13.439-17.516c4.384-2.531,9.362-3.869,14.396-3.869
									c10.288,0,19.87,5.529,25.009,14.429c7.951,13.773,3.215,31.448-10.56,39.401
									C217.693,404.017,212.715,405.354,207.68,405.354z M207.628,349.655c-4.683,0-9.315,1.245-13.396,3.602
									c-6.21,3.585-10.651,9.374-12.508,16.301c-1.855,6.927-0.903,14.162,2.683,20.372c4.781,8.281,13.698,13.425,23.272,13.425
									c4.685,0,9.316-1.245,13.397-3.602c12.819-7.401,17.228-23.851,9.827-36.669
									C226.122,354.801,217.203,349.655,207.628,349.655z"/>
							</g>
							<g>
								<path style="fill:#00D2FF;" d="M159.451,433.2c-10.286,0-19.868-5.527-25.006-14.425
									c-7.952-13.776-3.216-31.454,10.559-39.407c4.384-2.53,9.36-3.867,14.394-3.867c10.288,0,19.871,5.528,25.01,14.429
									c7.952,13.772,3.216,31.448-10.559,39.401C169.464,431.862,164.485,433.2,159.451,433.2z M159.397,377.501
									c-4.683,0-9.313,1.244-13.394,3.6c-12.819,7.401-17.228,23.854-9.826,36.675c4.781,8.281,13.699,13.425,23.273,13.425
									c4.684,0,9.316-1.245,13.397-3.602c12.819-7.401,17.227-23.852,9.826-36.669
									C177.893,382.646,168.973,377.501,159.397,377.501z"/>
							</g>
							<g>
								<g>
									<g>
										<g>
											<g style="opacity:0;">
												<rect x="34.5" y="301.5" style="fill:#FFFFFF;" width="280" height="150"/>
											</g>
										</g>
									</g>
								</g>
							</g>
						</g>
					</g>
				</g>
				<g>
					<path style="fill:#FFFFFF;" d="M145.5,327.5c-1.654,0-3-1.346-3-3s1.346-3,3-3c0.802,0,1.555,0.313,2.121,0.879
						c0.567,0.566,0.88,1.32,0.879,2.122c0.001,0.8-0.312,1.554-0.879,2.12C147.055,327.188,146.302,327.5,145.5,327.5z"/>
					<path style="fill:#00D2FF;" d="M145.5,322.5c1.104,0,2.001,0.896,2,2c0.001,1.104-0.896,2-2,2s-2-0.896-2-2
						S144.396,322.5,145.5,322.5 M145.5,320.5c-2.206,0-4,1.794-4,4s1.794,4,4,4c1.068,0,2.073-0.416,2.828-1.171
						c0.757-0.757,1.173-1.762,1.172-2.831c0.001-1.065-0.415-2.07-1.172-2.827C147.573,320.916,146.568,320.5,145.5,320.5
						L145.5,320.5z"/>
				</g>
				<g>
					<path style="fill:#FFFFFF;" d="M145.5,431.5c-1.654,0-3-1.346-3-3s1.346-3,3-3c0.802,0,1.555,0.313,2.121,0.879
						c0.567,0.566,0.88,1.32,0.879,2.122c0.001,0.8-0.312,1.554-0.879,2.12C147.055,431.188,146.302,431.5,145.5,431.5z"/>
					<path style="fill:#00D2FF;" d="M145.5,426.5c1.104,0,2.001,0.896,2,2c0.001,1.104-0.896,2-2,2s-2-0.896-2-2
						S144.396,426.5,145.5,426.5 M145.5,424.5c-2.206,0-4,1.794-4,4s1.794,4,4,4c1.068,0,2.073-0.416,2.828-1.171
						c0.757-0.757,1.173-1.762,1.172-2.831c0.001-1.065-0.415-2.07-1.172-2.827C147.573,424.916,146.568,424.5,145.5,424.5
						L145.5,424.5z"/>
				</g>
				<g>
					<path style="fill:#FFFFFF;" d="M159.5,379.5c-1.654,0-3-1.346-3-3s1.346-3,3-3c0.802,0,1.555,0.313,2.121,0.879
						c0.567,0.566,0.88,1.32,0.879,2.122c0.001,0.8-0.312,1.554-0.879,2.12C161.055,379.188,160.302,379.5,159.5,379.5z"/>
					<path style="fill:#00D2FF;" d="M159.5,374.5c1.104,0,2.001,0.896,2,2c0.001,1.104-0.896,2-2,2s-2-0.896-2-2
						S158.396,374.5,159.5,374.5 M159.5,372.5c-2.206,0-4,1.794-4,4s1.794,4,4,4c1.068,0,2.073-0.416,2.828-1.171
						c0.757-0.757,1.173-1.762,1.172-2.831c0.001-1.065-0.415-2.07-1.172-2.827C161.573,372.916,160.568,372.5,159.5,372.5
						L159.5,372.5z"/>
				</g>
				<g>
					<path style="fill:#FFFFFF;" d="M183.5,393.5c-1.654,0-3-1.346-3-3s1.346-3,3-3c0.802,0,1.555,0.313,2.121,0.879
						c0.567,0.566,0.88,1.32,0.879,2.122c0.001,0.8-0.312,1.554-0.879,2.12C185.055,393.188,184.302,393.5,183.5,393.5z"/>
					<path style="fill:#00D2FF;" d="M183.5,388.5c1.104,0,2.001,0.896,2,2c0.001,1.104-0.896,2-2,2s-2-0.896-2-2
						S182.396,388.5,183.5,388.5 M183.5,386.5c-2.206,0-4,1.794-4,4s1.794,4,4,4c1.068,0,2.073-0.416,2.828-1.171
						c0.757-0.757,1.173-1.762,1.172-2.831c0.001-1.065-0.415-2.07-1.172-2.827C185.573,386.916,184.568,386.5,183.5,386.5
						L183.5,386.5z"/>
				</g>
				<g>
					<path style="fill:#FFFFFF;" d="M183.5,365.5c-1.654,0-3-1.346-3-3s1.346-3,3-3c0.802,0,1.555,0.313,2.121,0.879
						c0.567,0.566,0.88,1.32,0.879,2.122c0.001,0.8-0.312,1.554-0.879,2.12C185.055,365.188,184.302,365.5,183.5,365.5z"/>
					<path style="fill:#00D2FF;" d="M183.5,360.5c1.104,0,2.001,0.896,2,2c0.001,1.104-0.896,2-2,2s-2-0.896-2-2
						S182.396,360.5,183.5,360.5 M183.5,358.5c-2.206,0-4,1.794-4,4s1.794,4,4,4c1.068,0,2.073-0.416,2.828-1.171
						c0.757-0.757,1.173-1.762,1.172-2.831c0.001-1.065-0.415-2.07-1.172-2.827C185.573,358.916,184.568,358.5,183.5,358.5
						L183.5,358.5z"/>
				</g>
				<g>
					<path style="fill:#FFFFFF;" d="M235.5,378.5c-1.654,0-3-1.346-3-3s1.346-3,3-3c0.802,0,1.555,0.313,2.121,0.879
						c0.567,0.566,0.88,1.32,0.879,2.122c0.001,0.8-0.312,1.554-0.879,2.12C237.055,378.188,236.302,378.5,235.5,378.5z"/>
					<path style="fill:#00D2FF;" d="M235.5,373.5c1.104,0,2.001,0.896,2,2c0.001,1.104-0.896,2-2,2s-2-0.896-2-2
						S234.396,373.5,235.5,373.5 M235.5,371.5c-2.206,0-4,1.794-4,4s1.794,4,4,4c1.068,0,2.073-0.416,2.828-1.171
						c0.757-0.757,1.173-1.762,1.172-2.831c0.001-1.065-0.415-2.07-1.172-2.827C237.573,371.916,236.568,371.5,235.5,371.5
						L235.5,371.5z"/>
				</g>
			</g>
		</g>
	</g>
</g>
<g id="Isolation_Mode">
</g>
<g id="nyt_x5F_exporter_x5F_info" style="display:none;">
</g>
</svg>
