<?xml version="1.0" encoding="iso-8859-1"?>
<!-- Generator: Adobe Illustrator 16.0.3, SVG Export Plug-In . SVG Version: 6.00 Build 0)  -->
<!DOCTYPE svg PUBLIC "-//W3C//DTD SVG 1.1//EN" "http://www.w3.org/Graphics/SVG/1.1/DTD/svg11.dtd">
<svg version="1.1" xmlns="http://www.w3.org/2000/svg" xmlns:xlink="http://www.w3.org/1999/xlink" x="0px" y="0px" width="280px"
	 height="150px" viewBox="33.5 118.5 280 150" style="enable-background:new 33.5 118.5 280 150;" xml:space="preserve">
<g id="Layer_1">
	<g id="New_Symbol_2">
	</g>
	<g id="New_Symbol_3_">
	</g>
	<g id="New_Symbol_2_">
	</g>
	<g id="New_Symbol_1_">
	</g>
	<g id="New_Symbol">
	</g>
	<g>
		<g>
			<g>
				<g>
					<path style="fill:#00D2FF;" d="M263.52,234.5c-0.004,0-0.012,0.001-0.02,0h-180c-0.338,0-0.652-0.17-0.837-0.453
						c-0.185-0.282-0.215-0.639-0.079-0.947l35-80c0.159-0.364,0.519-0.6,0.916-0.6h69c0.274,0,0.536,0.112,0.725,0.312
						l75.893,79.887c0.244,0.182,0.402,0.474,0.402,0.802C264.52,234.053,264.072,234.5,263.52,234.5z M85.029,232.5h176.142
						l-74.101-78h-67.916L85.029,232.5z"/>
				</g>
				<g>
					<g>
						<g>
							<g>
								<g>
									<g>
										<g>
											<g>
												<g id="Layer_1_106_">
													<g>
														<g>
															<g>
																<g>
																	<g>
																		<g>
																			<g>
																				<g>
																					<g style="opacity:0;">
																						<rect x="33.5" y="118.5" style="fill:#FFFFFF;" width="280" height="150"/>
																					</g>
																				</g>
																			</g>
																		</g>
																	</g>
																</g>
															</g>
														</g>
													</g>
												</g>
											</g>
										</g>
									</g>
								</g>
							</g>
						</g>
					</g>
				</g>
			</g>
			<g>
				<path style="fill:#B4B4B4;" d="M151.477,160.5c-0.256,0-0.512-0.098-0.707-0.293c-0.391-0.391-0.391-1.023,0-1.414l5.316-5.316
					l-5.27-5.27c-0.391-0.391-0.391-1.023,0-1.414s1.023-0.391,1.414,0l5.977,5.977c0.391,0.391,0.391,1.023,0,1.414l-6.023,6.023
					C151.988,160.402,151.732,160.5,151.477,160.5z"/>
			</g>
			<g>
				<path style="fill:#B4B4B4;" d="M170.488,240.5c-0.256,0-0.512-0.098-0.707-0.293c-0.391-0.391-0.391-1.023,0-1.414l5.316-5.316
					l-5.27-5.27c-0.391-0.391-0.391-1.023,0-1.414s1.023-0.391,1.414,0l5.977,5.977c0.391,0.391,0.391,1.023,0,1.414l-6.023,6.023
					C171,240.402,170.744,240.5,170.488,240.5z"/>
			</g>
		</g>
	</g>
</g>
<g id="Isolation_Mode">
</g>
<g id="nyt_x5F_exporter_x5F_info" style="display:none;">
</g>
</svg>
