<?xml version="1.0" encoding="iso-8859-1"?>
<!-- Generator: Adobe Illustrator 16.0.3, SVG Export Plug-In . SVG Version: 6.00 Build 0)  -->
<!DOCTYPE svg PUBLIC "-//W3C//DTD SVG 1.1//EN" "http://www.w3.org/Graphics/SVG/1.1/DTD/svg11.dtd">
<svg version="1.1" xmlns="http://www.w3.org/2000/svg" xmlns:xlink="http://www.w3.org/1999/xlink" x="0px" y="0px" width="280px"
	 height="150px" viewBox="-1166.5 628.5 280 150" style="enable-background:new -1166.5 628.5 280 150;" xml:space="preserve">
<g id="Layer_1">
	<g id="New_Symbol_2">
	</g>
	<g id="New_Symbol_3_">
	</g>
	<g id="New_Symbol_2_">
	</g>
	<g id="New_Symbol_1_">
	</g>
	<g id="New_Symbol">
	</g>
	<g>
		<g>
			<g>
				<g>
					<path style="fill:#E1E1E1;" d="M-1036.499,744.5c-0.336,0-0.665-0.17-0.854-0.478l-49-80c-0.289-0.471-0.141-1.087,0.33-1.375
						c0.471-0.288,1.087-0.141,1.375,0.33l49,80c0.289,0.471,0.141,1.087-0.33,1.375
						C-1036.141,744.452-1036.321,744.5-1036.499,744.5z"/>
				</g>
				<g>
					<path style="fill:#E1E1E1;" d="M-1146.499,744.5c-0.061,0-0.123-0.006-0.185-0.018c-0.543-0.102-0.9-0.624-0.799-1.167l15-80
						c0.102-0.543,0.625-0.9,1.167-0.798c0.543,0.102,0.9,0.624,0.799,1.167l-15,80
						C-1145.607,744.165-1146.027,744.5-1146.499,744.5z"/>
				</g>
				<g>
					<path style="fill:#00D2FF;" d="M-1085.5,664.5h-46c-0.552,0-1-0.447-1-1s0.448-1,1-1h46c0.552,0,1,0.447,1,1
						S-1084.948,664.5-1085.5,664.5z"/>
				</g>
				<g>
					<path style="fill:#00D2FF;" d="M-1036.5,744.5h-110c-0.552,0-1-0.447-1-1s0.448-1,1-1h110c0.552,0,1,0.447,1,1
						S-1035.948,744.5-1036.5,744.5z"/>
				</g>
				<g>
					<path style="fill:#E1E1E1;" d="M-955.5,664.5h-46c-0.552,0-1-0.447-1-1s0.448-1,1-1h46c0.552,0,1,0.447,1,1
						S-954.948,664.5-955.5,664.5z"/>
				</g>
				<g>
					<path style="fill:#E1E1E1;" d="M-906.5,744.5h-110c-0.552,0-1-0.447-1-1s0.448-1,1-1h110c0.552,0,1,0.447,1,1
						S-905.948,744.5-906.5,744.5z"/>
				</g>
				<g>
					<path style="fill:#00D2FF;" d="M-906.499,744.5c-0.336,0-0.665-0.17-0.854-0.478l-49-80c-0.289-0.471-0.141-1.087,0.33-1.375
						c0.471-0.288,1.087-0.141,1.375,0.33l49,80c0.289,0.471,0.141,1.087-0.33,1.375C-906.141,744.452-906.321,744.5-906.499,744.5z
						"/>
				</g>
				<g>
					<path style="fill:#00D2FF;" d="M-1016.499,744.5c-0.061,0-0.123-0.006-0.185-0.018c-0.543-0.102-0.9-0.624-0.799-1.167l15-80
						c0.102-0.543,0.625-0.9,1.167-0.798c0.543,0.102,0.9,0.624,0.799,1.167l-15,80
						C-1015.607,744.165-1016.027,744.5-1016.499,744.5z"/>
				</g>
				<g>
					<g>
						<g>
							<g>
								<g>
									<g>
										<g>
											<g>
												<g id="Layer_1_80_">
													<g>
														<g>
															<g>
																<g>
																	<g>
																		<g>
																			<g>
																				<g>
																					<g style="opacity:0;">
																						<rect x="-1166.5" y="628.5" style="fill:#FFFFFF;" width="280" height="150"/>
																					</g>
																				</g>
																			</g>
																		</g>
																	</g>
																</g>
															</g>
														</g>
													</g>
												</g>
											</g>
										</g>
									</g>
								</g>
							</g>
						</g>
					</g>
				</g>
			</g>
		</g>
	</g>
</g>
<g id="Isolation_Mode">
</g>
<g id="nyt_x5F_exporter_x5F_info" style="display:none;">
</g>
</svg>
