<?xml version="1.0" encoding="iso-8859-1"?>
<!-- Generator: Adobe Illustrator 16.0.3, SVG Export Plug-In . SVG Version: 6.00 Build 0)  -->
<!DOCTYPE svg PUBLIC "-//W3C//DTD SVG 1.1//EN" "http://www.w3.org/Graphics/SVG/1.1/DTD/svg11.dtd">
<svg version="1.1" xmlns="http://www.w3.org/2000/svg" xmlns:xlink="http://www.w3.org/1999/xlink" x="0px" y="0px" width="280px"
	 height="150px" viewBox="-1166.5 203.5 280 150" style="enable-background:new -1166.5 203.5 280 150;" xml:space="preserve">
<g id="Layer_1">
	<g id="New_Symbol_2">
	</g>
	<g id="New_Symbol_3_">
	</g>
	<g id="New_Symbol_2_">
	</g>
	<g id="New_Symbol_1_">
	</g>
	<g id="New_Symbol">
	</g>
	<g>
		<g>
			<g>
				<g>
					<path style="fill:#00D2FF;" d="M-949.48,319.5c-0.007-0.001-0.013-0.001-0.02,0h-154c-0.437,0-0.823-0.283-0.954-0.699
						c-0.131-0.417,0.023-0.87,0.38-1.12l133-93c0.272-0.191,0.623-0.234,0.934-0.113c0.311,0.12,0.541,0.388,0.615,0.712
						l20.957,92.812c0.056,0.125,0.087,0.264,0.087,0.409C-948.48,319.053-948.928,319.5-949.48,319.5z M-1100.325,317.5h149.574
						l-20.396-90.327L-1100.325,317.5z"/>
				</g>
				<g>
					<g>
						<g>
							<g>
								<g>
									<g>
										<g>
											<g>
												<g id="Layer_1_109_">
													<g>
														<g>
															<g>
																<g>
																	<g>
																		<g>
																			<g>
																				<g>
																					<g style="opacity:0;">
																						<rect x="-1166.5" y="203.5" style="fill:#FFFFFF;" width="280" height="150"/>
																					</g>
																				</g>
																			</g>
																		</g>
																	</g>
																</g>
															</g>
														</g>
													</g>
												</g>
											</g>
										</g>
									</g>
								</g>
							</g>
						</g>
					</g>
				</g>
			</g>
		</g>
	</g>
</g>
<g id="nyt_x5F_exporter_x5F_info" style="display:none;">
</g>
</svg>
