<svg version="1.1" xmlns="http://www.w3.org/2000/svg" xmlns:xlink="http://www.w3.org/1999/xlink" width="199" height="147"><defs><clipPath id="tCUbXAuINLQs"><path fill="none" stroke="none" d=" M 0 0 L 199 0 L 199 147 L 0 147 L 0 0 Z"/></clipPath></defs><g transform="scale(1,1)" clip-path="url(#tCUbXAuINLQs)"><g transform="translate(-423,-349)"><rect fill="rgb(255,255,255)" stroke="none" x="0" y="0" width="1204" height="932" fill-opacity="1"/><path fill="none" stroke="rgb(97,97,97)" paint-order="fill stroke markers" d=" M 545.8912081399325 426.52629190646974 C 545.8912081399325 454.09084992118744 523.5457188046865 476.4363392564333 495.9811607899687 476.4363392564333 C 468.41660277525096 476.4363392564333 446.071113440005 454.09084992118744 446.071113440005 426.52629190646974 C 446.071113440005 398.9617338917521 468.41660277525096 376.6162445565062 495.9811607899687 376.6162445565062 C 523.5457188046865 376.6162445565062 545.8912081399325 398.9617338917521 545.8912081399325 426.52629190646974 Z" stroke-opacity="0.8" stroke-linecap="round" stroke-linejoin="round" stroke-miterlimit="10" stroke-width="2.5"/><path fill="none" stroke="rgb(97,97,97)" paint-order="fill stroke markers" d=" M 595.7978018658843 425.93915550969393 C 595.7978018658843 453.50371352441164 573.4523125306383 475.8492028596575 545.8877545159205 475.8492028596575 C 518.3231965012027 475.8492028596575 495.97770716595676 453.50371352441164 495.97770716595676 425.93915550969393 C 495.97770716595676 398.3745974949763 518.3231965012027 376.0291081597304 545.8877545159205 376.0291081597304 C 573.4523125306383 376.0291081597304 595.7978018658843 398.3745974949763 595.7978018658843 425.93915550969393 Z" stroke-opacity="0.8" stroke-linecap="round" stroke-linejoin="round" stroke-miterlimit="10" stroke-width="2.5"/><path fill="none" stroke="rgb(97,97,97)" paint-order="fill stroke markers" d=" M 495.9811607899687 426.5262919064698 L 1204 418.19665850399906" stroke-opacity="0.8" stroke-linecap="round" stroke-linejoin="round" stroke-miterlimit="10" stroke-width="2.5"/><path fill="none" stroke="rgb(97,97,97)" paint-order="fill stroke markers" d=" M 495.9811607899687 426.5262919064698 L 735.5907601375611 0" stroke-opacity="0.8" stroke-linecap="round" stroke-linejoin="round" stroke-miterlimit="10" stroke-width="2.5"/><path fill="none" stroke="rgb(97,97,97)" paint-order="fill stroke markers" d=" M 495.9811607899687 426.5262919064698 L 795.7997664706509 932" stroke-opacity="0.8" stroke-linecap="round" stroke-linejoin="round" stroke-miterlimit="10" stroke-width="2.5"/><path fill="rgb(21,101,192)" stroke="none" paint-order="stroke fill markers" d=" M 500.9811607899687 426.5262919064698 C 500.9811607899687 429.28771565562374 498.7425845391227 431.5262919064698 495.9811607899687 431.5262919064698 C 493.2197370408148 431.5262919064698 490.9811607899687 429.28771565562374 490.9811607899687 426.5262919064698 C 490.9811607899687 423.76486815731585 493.2197370408148 421.5262919064698 495.9811607899687 421.5262919064698 C 498.7425845391227 421.5262919064698 500.9811607899687 423.76486815731585 500.9811607899687 426.5262919064698 Z" fill-opacity="1"/><path fill="none" stroke="rgb(0,0,0)" paint-order="fill stroke markers" d=" M 500.9811607899687 426.5262919064698 C 500.9811607899687 429.28771565562374 498.7425845391227 431.5262919064698 495.9811607899687 431.5262919064698 C 493.2197370408148 431.5262919064698 490.9811607899687 429.28771565562374 490.9811607899687 426.5262919064698 C 490.9811607899687 423.76486815731585 493.2197370408148 421.5262919064698 495.9811607899687 421.5262919064698 C 498.7425845391227 421.5262919064698 500.9811607899687 423.76486815731585 500.9811607899687 426.5262919064698 Z" stroke-opacity="1" stroke-linecap="round" stroke-linejoin="round" stroke-miterlimit="10"/><text fill="rgb(21,101,192)" stroke="none" font-family="geogebra-sans-serif, sans-serif" font-size="16px" font-style="normal" font-weight="normal" text-decoration="normal" x="500" y="417" text-anchor="start" dominant-baseline="alphabetic" fill-opacity="1">A</text><text fill="none" stroke="rgb(255,255,255)" font-family="geogebra-sans-serif, sans-serif" font-size="16px" font-style="normal" font-weight="normal" text-decoration="normal" x="500" y="417" text-anchor="start" dominant-baseline="alphabetic" stroke-opacity="1" stroke-linejoin="bevel" stroke-miterlimit="10" stroke-width="3">A</text><text fill="rgb(21,101,192)" stroke="none" font-family="geogebra-sans-serif, sans-serif" font-size="16px" font-style="normal" font-weight="normal" text-decoration="normal" x="500" y="417" text-anchor="start" dominant-baseline="alphabetic" fill-opacity="1">A</text><path fill="rgb(21,101,192)" stroke="none" paint-order="stroke fill markers" d=" M 550.8877545159205 425.93915550969393 C 550.8877545159205 428.7005792588479 548.6491782650745 430.93915550969393 545.8877545159205 430.93915550969393 C 543.1263307667665 430.93915550969393 540.8877545159205 428.7005792588479 540.8877545159205 425.93915550969393 C 540.8877545159205 423.17773176054 543.1263307667665 420.93915550969393 545.8877545159205 420.93915550969393 C 548.6491782650745 420.93915550969393 550.8877545159205 423.17773176054 550.8877545159205 425.93915550969393 Z" fill-opacity="1"/><path fill="none" stroke="rgb(0,0,0)" paint-order="fill stroke markers" d=" M 550.8877545159205 425.93915550969393 C 550.8877545159205 428.7005792588479 548.6491782650745 430.93915550969393 545.8877545159205 430.93915550969393 C 543.1263307667665 430.93915550969393 540.8877545159205 428.7005792588479 540.8877545159205 425.93915550969393 C 540.8877545159205 423.17773176054 543.1263307667665 420.93915550969393 545.8877545159205 420.93915550969393 C 548.6491782650745 420.93915550969393 550.8877545159205 423.17773176054 550.8877545159205 425.93915550969393 Z" stroke-opacity="1" stroke-linecap="round" stroke-linejoin="round" stroke-miterlimit="10"/><text fill="rgb(21,101,192)" stroke="none" font-family="geogebra-sans-serif, sans-serif" font-size="16px" font-style="normal" font-weight="normal" text-decoration="normal" x="550" y="416" text-anchor="start" dominant-baseline="alphabetic" fill-opacity="1">B</text><text fill="none" stroke="rgb(255,255,255)" font-family="geogebra-sans-serif, sans-serif" font-size="16px" font-style="normal" font-weight="normal" text-decoration="normal" x="550" y="416" text-anchor="start" dominant-baseline="alphabetic" stroke-opacity="1" stroke-linejoin="bevel" stroke-miterlimit="10" stroke-width="3">B</text><text fill="rgb(21,101,192)" stroke="none" font-family="geogebra-sans-serif, sans-serif" font-size="16px" font-style="normal" font-weight="normal" text-decoration="normal" x="550" y="416" text-anchor="start" dominant-baseline="alphabetic" fill-opacity="1">B</text><path fill="rgb(97,97,97)" stroke="none" paint-order="stroke fill markers" d=" M 524.4259826178502 383.01234572505876 C 524.4259826178502 385.2214847243819 522.6351216171734 387.01234572505876 520.4259826178502 387.01234572505876 C 518.216843618527 387.01234572505876 516.4259826178502 385.2214847243819 516.4259826178502 383.01234572505876 C 516.4259826178502 380.8032067257356 518.216843618527 379.01234572505876 520.4259826178502 379.01234572505876 C 522.6351216171734 379.01234572505876 524.4259826178502 380.8032067257356 524.4259826178502 383.01234572505876 Z" fill-opacity="1"/><path fill="none" stroke="rgb(0,0,0)" paint-order="fill stroke markers" d=" M 524.4259826178502 383.01234572505876 C 524.4259826178502 385.2214847243819 522.6351216171734 387.01234572505876 520.4259826178502 387.01234572505876 C 518.216843618527 387.01234572505876 516.4259826178502 385.2214847243819 516.4259826178502 383.01234572505876 C 516.4259826178502 380.8032067257356 518.216843618527 379.01234572505876 520.4259826178502 379.01234572505876 C 522.6351216171734 379.01234572505876 524.4259826178502 380.8032067257356 524.4259826178502 383.01234572505876 Z" stroke-opacity="1" stroke-linecap="round" stroke-linejoin="round" stroke-miterlimit="10"/><text fill="rgb(97,97,97)" stroke="none" font-family="geogebra-sans-serif, sans-serif" font-size="16px" font-style="normal" font-weight="normal" text-decoration="normal" x="524" y="375" text-anchor="start" dominant-baseline="alphabetic" fill-opacity="1">C</text><text fill="none" stroke="rgb(255,255,255)" font-family="geogebra-sans-serif, sans-serif" font-size="16px" font-style="normal" font-weight="normal" text-decoration="normal" x="524" y="375" text-anchor="start" dominant-baseline="alphabetic" stroke-opacity="1" stroke-linejoin="bevel" stroke-miterlimit="10" stroke-width="3">C</text><text fill="rgb(97,97,97)" stroke="none" font-family="geogebra-sans-serif, sans-serif" font-size="16px" font-style="normal" font-weight="normal" text-decoration="normal" x="524" y="375" text-anchor="start" dominant-baseline="alphabetic" fill-opacity="1">C</text><path fill="rgb(97,97,97)" stroke="none" paint-order="stroke fill markers" d=" M 525.4429326880389 469.45310169110496 C 525.4429326880389 471.6622406904281 523.6520716873621 473.45310169110496 521.4429326880389 473.45310169110496 C 519.2337936887158 473.45310169110496 517.4429326880389 471.6622406904281 517.4429326880389 469.45310169110496 C 517.4429326880389 467.2439626917818 519.2337936887158 465.45310169110496 521.4429326880389 465.45310169110496 C 523.6520716873621 465.45310169110496 525.4429326880389 467.2439626917818 525.4429326880389 469.45310169110496 Z" fill-opacity="1"/><path fill="none" stroke="rgb(0,0,0)" paint-order="fill stroke markers" d=" M 525.4429326880389 469.45310169110496 C 525.4429326880389 471.6622406904281 523.6520716873621 473.45310169110496 521.4429326880389 473.45310169110496 C 519.2337936887158 473.45310169110496 517.4429326880389 471.6622406904281 517.4429326880389 469.45310169110496 C 517.4429326880389 467.2439626917818 519.2337936887158 465.45310169110496 521.4429326880389 465.45310169110496 C 523.6520716873621 465.45310169110496 525.4429326880389 467.2439626917818 525.4429326880389 469.45310169110496 Z" stroke-opacity="1" stroke-linecap="round" stroke-linejoin="round" stroke-miterlimit="10"/><text fill="rgb(97,97,97)" stroke="none" font-family="geogebra-sans-serif, sans-serif" font-size="16px" font-style="normal" font-weight="normal" text-decoration="normal" x="525" y="461" text-anchor="start" dominant-baseline="alphabetic" fill-opacity="1">D</text><text fill="none" stroke="rgb(255,255,255)" font-family="geogebra-sans-serif, sans-serif" font-size="16px" font-style="normal" font-weight="normal" text-decoration="normal" x="525" y="461" text-anchor="start" dominant-baseline="alphabetic" stroke-opacity="1" stroke-linejoin="bevel" stroke-miterlimit="10" stroke-width="3">D</text><text fill="rgb(97,97,97)" stroke="none" font-family="geogebra-sans-serif, sans-serif" font-size="16px" font-style="normal" font-weight="normal" text-decoration="normal" x="525" y="461" text-anchor="start" dominant-baseline="alphabetic" fill-opacity="1">D</text></g></g></svg>