<svg version="1.1" xmlns="http://www.w3.org/2000/svg" xmlns:xlink="http://www.w3.org/1999/xlink" width="170" height="123"><defs><clipPath id="bBGxTvTtSFLQ"><path fill="none" stroke="none" d=" M 0 0 L 170 0 L 170 123 L 0 123 L 0 0 Z"/></clipPath></defs><g transform="scale(1,1)" clip-path="url(#bBGxTvTtSFLQ)"><g transform="translate(-265,-456)"><rect fill="rgb(255,255,255)" stroke="none" x="0" y="0" width="1126" height="932" fill-opacity="1"/><path fill="none" stroke="rgb(97,97,97)" paint-order="fill stroke markers" d=" M 377.10709394723114 522.1284766493569 C 377.10709394723114 548.003679689227 356.1310974060922 568.9796762303661 330.2558943662219 568.9796762303661 C 304.3806913263517 568.9796762303661 283.40469478521277 548.003679689227 283.40469478521277 522.1284766493569 C 283.40469478521277 496.25327360948677 304.3806913263517 475.2772770683478 330.2558943662219 475.2772770683478 C 356.1310974060922 475.2772770683478 377.10709394723114 496.25327360948677 377.10709394723114 522.1284766493569 Z" stroke-opacity="0.8" stroke-linecap="round" stroke-linejoin="round" stroke-miterlimit="10" stroke-width="2.5"/><path fill="none" stroke="rgb(97,97,97)" paint-order="fill stroke markers" d=" M 423.9523925017567 521.3849004818247 C 423.9523925017567 547.2601035216949 402.97639596061777 568.2361000628339 377.1011929207475 568.2361000628339 C 351.2259898808773 568.2361000628339 330.24999333973835 547.2601035216949 330.24999333973835 521.3849004818247 C 330.24999333973835 495.5096974419546 351.2259898808773 474.53370090081563 377.1011929207475 474.53370090081563 C 402.97639596061777 474.53370090081563 423.9523925017567 495.5096974419546 423.9523925017567 521.3849004818247 Z" stroke-opacity="0.8" stroke-linecap="round" stroke-linejoin="round" stroke-miterlimit="10" stroke-width="2.5"/><path fill="none" stroke="rgb(97,97,97)" paint-order="fill stroke markers" d=" M 330.2558943662219 522.1284766493569 L 377.1011929207475 521.3849004818247" stroke-opacity="0.8" stroke-linecap="round" stroke-linejoin="round" stroke-miterlimit="10" stroke-width="2.5"/><path fill="none" stroke="rgb(97,97,97)" paint-order="fill stroke markers" d=" M 353.0345877927532 481.1874699695053 L 354.32249949421623 562.3259071616764" stroke-opacity="0.8" stroke-linecap="round" stroke-linejoin="round" stroke-miterlimit="10" stroke-width="2.5"/><path fill="rgb(21,101,192)" stroke="none" paint-order="stroke fill markers" d=" M 335.2558943662219 522.1284766493569 C 335.2558943662219 524.8899003985109 333.0173181153759 527.1284766493569 330.2558943662219 527.1284766493569 C 327.494470617068 527.1284766493569 325.2558943662219 524.8899003985109 325.2558943662219 522.1284766493569 C 325.2558943662219 519.3670529002029 327.494470617068 517.1284766493569 330.2558943662219 517.1284766493569 C 333.0173181153759 517.1284766493569 335.2558943662219 519.3670529002029 335.2558943662219 522.1284766493569 Z" fill-opacity="1"/><path fill="none" stroke="rgb(0,0,0)" paint-order="fill stroke markers" d=" M 335.2558943662219 522.1284766493569 C 335.2558943662219 524.8899003985109 333.0173181153759 527.1284766493569 330.2558943662219 527.1284766493569 C 327.494470617068 527.1284766493569 325.2558943662219 524.8899003985109 325.2558943662219 522.1284766493569 C 325.2558943662219 519.3670529002029 327.494470617068 517.1284766493569 330.2558943662219 517.1284766493569 C 333.0173181153759 517.1284766493569 335.2558943662219 519.3670529002029 335.2558943662219 522.1284766493569 Z" stroke-opacity="1" stroke-linecap="round" stroke-linejoin="round" stroke-miterlimit="10"/><text fill="rgb(21,101,192)" stroke="none" font-family="geogebra-sans-serif, sans-serif" font-size="16px" font-style="normal" font-weight="normal" text-decoration="normal" x="334" y="512" text-anchor="start" dominant-baseline="alphabetic" fill-opacity="1">A</text><text fill="none" stroke="rgb(255,255,255)" font-family="geogebra-sans-serif, sans-serif" font-size="16px" font-style="normal" font-weight="normal" text-decoration="normal" x="334" y="512" text-anchor="start" dominant-baseline="alphabetic" stroke-opacity="1" stroke-linejoin="bevel" stroke-miterlimit="10" stroke-width="3">A</text><text fill="rgb(21,101,192)" stroke="none" font-family="geogebra-sans-serif, sans-serif" font-size="16px" font-style="normal" font-weight="normal" text-decoration="normal" x="334" y="512" text-anchor="start" dominant-baseline="alphabetic" fill-opacity="1">A</text><path fill="rgb(21,101,192)" stroke="none" paint-order="stroke fill markers" d=" M 382.1011929207475 521.3849004818247 C 382.1011929207475 524.1463242309787 379.86261666990146 526.3849004818247 377.1011929207475 526.3849004818247 C 374.33976917159356 526.3849004818247 372.1011929207475 524.1463242309787 372.1011929207475 521.3849004818247 C 372.1011929207475 518.6234767326707 374.33976917159356 516.3849004818247 377.1011929207475 516.3849004818247 C 379.86261666990146 516.3849004818247 382.1011929207475 518.6234767326707 382.1011929207475 521.3849004818247 Z" fill-opacity="1"/><path fill="none" stroke="rgb(0,0,0)" paint-order="fill stroke markers" d=" M 382.1011929207475 521.3849004818247 C 382.1011929207475 524.1463242309787 379.86261666990146 526.3849004818247 377.1011929207475 526.3849004818247 C 374.33976917159356 526.3849004818247 372.1011929207475 524.1463242309787 372.1011929207475 521.3849004818247 C 372.1011929207475 518.6234767326707 374.33976917159356 516.3849004818247 377.1011929207475 516.3849004818247 C 379.86261666990146 516.3849004818247 382.1011929207475 518.6234767326707 382.1011929207475 521.3849004818247 Z" stroke-opacity="1" stroke-linecap="round" stroke-linejoin="round" stroke-miterlimit="10"/><text fill="rgb(21,101,192)" stroke="none" font-family="geogebra-sans-serif, sans-serif" font-size="16px" font-style="normal" font-weight="normal" text-decoration="normal" x="381" y="511" text-anchor="start" dominant-baseline="alphabetic" fill-opacity="1">B</text><text fill="none" stroke="rgb(255,255,255)" font-family="geogebra-sans-serif, sans-serif" font-size="16px" font-style="normal" font-weight="normal" text-decoration="normal" x="381" y="511" text-anchor="start" dominant-baseline="alphabetic" stroke-opacity="1" stroke-linejoin="bevel" stroke-miterlimit="10" stroke-width="3">B</text><text fill="rgb(21,101,192)" stroke="none" font-family="geogebra-sans-serif, sans-serif" font-size="16px" font-style="normal" font-weight="normal" text-decoration="normal" x="381" y="511" text-anchor="start" dominant-baseline="alphabetic" fill-opacity="1">B</text><path fill="rgb(97,97,97)" stroke="none" paint-order="stroke fill markers" d=" M 357.0345877927532 481.1874699695053 C 357.0345877927532 483.39660896882845 355.24372679207636 485.1874699695053 353.0345877927532 485.1874699695053 C 350.82544879343004 485.1874699695053 349.0345877927532 483.39660896882845 349.0345877927532 481.1874699695053 C 349.0345877927532 478.9783309701821 350.82544879343004 477.1874699695053 353.0345877927532 477.1874699695053 C 355.24372679207636 477.1874699695053 357.0345877927532 478.9783309701821 357.0345877927532 481.1874699695053 Z" fill-opacity="1"/><path fill="none" stroke="rgb(0,0,0)" paint-order="fill stroke markers" d=" M 357.0345877927532 481.1874699695053 C 357.0345877927532 483.39660896882845 355.24372679207636 485.1874699695053 353.0345877927532 485.1874699695053 C 350.82544879343004 485.1874699695053 349.0345877927532 483.39660896882845 349.0345877927532 481.1874699695053 C 349.0345877927532 478.9783309701821 350.82544879343004 477.1874699695053 353.0345877927532 477.1874699695053 C 355.24372679207636 477.1874699695053 357.0345877927532 478.9783309701821 357.0345877927532 481.1874699695053 Z" stroke-opacity="1" stroke-linecap="round" stroke-linejoin="round" stroke-miterlimit="10"/><text fill="rgb(97,97,97)" stroke="none" font-family="geogebra-sans-serif, sans-serif" font-size="16px" font-style="normal" font-weight="normal" text-decoration="normal" x="357" y="473" text-anchor="start" dominant-baseline="alphabetic" fill-opacity="1">C</text><text fill="none" stroke="rgb(255,255,255)" font-family="geogebra-sans-serif, sans-serif" font-size="16px" font-style="normal" font-weight="normal" text-decoration="normal" x="357" y="473" text-anchor="start" dominant-baseline="alphabetic" stroke-opacity="1" stroke-linejoin="bevel" stroke-miterlimit="10" stroke-width="3">C</text><text fill="rgb(97,97,97)" stroke="none" font-family="geogebra-sans-serif, sans-serif" font-size="16px" font-style="normal" font-weight="normal" text-decoration="normal" x="357" y="473" text-anchor="start" dominant-baseline="alphabetic" fill-opacity="1">C</text><path fill="rgb(97,97,97)" stroke="none" paint-order="stroke fill markers" d=" M 358.32249949421623 562.3259071616764 C 358.32249949421623 564.5350461609995 356.5316384935394 566.3259071616764 354.32249949421623 566.3259071616764 C 352.1133604948931 566.3259071616764 350.32249949421623 564.5350461609995 350.32249949421623 562.3259071616764 C 350.32249949421623 560.1167681623532 352.1133604948931 558.3259071616764 354.32249949421623 558.3259071616764 C 356.5316384935394 558.3259071616764 358.32249949421623 560.1167681623532 358.32249949421623 562.3259071616764 Z" fill-opacity="1"/><path fill="none" stroke="rgb(0,0,0)" paint-order="fill stroke markers" d=" M 358.32249949421623 562.3259071616764 C 358.32249949421623 564.5350461609995 356.5316384935394 566.3259071616764 354.32249949421623 566.3259071616764 C 352.1133604948931 566.3259071616764 350.32249949421623 564.5350461609995 350.32249949421623 562.3259071616764 C 350.32249949421623 560.1167681623532 352.1133604948931 558.3259071616764 354.32249949421623 558.3259071616764 C 356.5316384935394 558.3259071616764 358.32249949421623 560.1167681623532 358.32249949421623 562.3259071616764 Z" stroke-opacity="1" stroke-linecap="round" stroke-linejoin="round" stroke-miterlimit="10"/><text fill="rgb(97,97,97)" stroke="none" font-family="geogebra-sans-serif, sans-serif" font-size="16px" font-style="normal" font-weight="normal" text-decoration="normal" x="358" y="554" text-anchor="start" dominant-baseline="alphabetic" fill-opacity="1">D</text><text fill="none" stroke="rgb(255,255,255)" font-family="geogebra-sans-serif, sans-serif" font-size="16px" font-style="normal" font-weight="normal" text-decoration="normal" x="358" y="554" text-anchor="start" dominant-baseline="alphabetic" stroke-opacity="1" stroke-linejoin="bevel" stroke-miterlimit="10" stroke-width="3">D</text><text fill="rgb(97,97,97)" stroke="none" font-family="geogebra-sans-serif, sans-serif" font-size="16px" font-style="normal" font-weight="normal" text-decoration="normal" x="358" y="554" text-anchor="start" dominant-baseline="alphabetic" fill-opacity="1">D</text><path fill="rgb(97,97,97)" stroke="none" paint-order="stroke fill markers" d=" M 357.6785436434847 521.7566885655908 C 357.6785436434847 523.965827564914 355.8876826428079 525.7566885655908 353.6785436434847 525.7566885655908 C 351.46940464416156 525.7566885655908 349.6785436434847 523.965827564914 349.6785436434847 521.7566885655908 C 349.6785436434847 519.5475495662677 351.46940464416156 517.7566885655908 353.6785436434847 517.7566885655908 C 355.8876826428079 517.7566885655908 357.6785436434847 519.5475495662677 357.6785436434847 521.7566885655908 Z" fill-opacity="1"/><path fill="none" stroke="rgb(0,0,0)" paint-order="fill stroke markers" d=" M 357.6785436434847 521.7566885655908 C 357.6785436434847 523.965827564914 355.8876826428079 525.7566885655908 353.6785436434847 525.7566885655908 C 351.46940464416156 525.7566885655908 349.6785436434847 523.965827564914 349.6785436434847 521.7566885655908 C 349.6785436434847 519.5475495662677 351.46940464416156 517.7566885655908 353.6785436434847 517.7566885655908 C 355.8876826428079 517.7566885655908 357.6785436434847 519.5475495662677 357.6785436434847 521.7566885655908 Z" stroke-opacity="1" stroke-linecap="round" stroke-linejoin="round" stroke-miterlimit="10"/><text fill="rgb(97,97,97)" stroke="none" font-family="geogebra-sans-serif, sans-serif" font-size="16px" font-style="normal" font-weight="normal" text-decoration="normal" x="358" y="514" text-anchor="start" dominant-baseline="alphabetic" fill-opacity="1">E</text><text fill="none" stroke="rgb(255,255,255)" font-family="geogebra-sans-serif, sans-serif" font-size="16px" font-style="normal" font-weight="normal" text-decoration="normal" x="358" y="514" text-anchor="start" dominant-baseline="alphabetic" stroke-opacity="1" stroke-linejoin="bevel" stroke-miterlimit="10" stroke-width="3">E</text><text fill="rgb(97,97,97)" stroke="none" font-family="geogebra-sans-serif, sans-serif" font-size="16px" font-style="normal" font-weight="normal" text-decoration="normal" x="358" y="514" text-anchor="start" dominant-baseline="alphabetic" fill-opacity="1">E</text></g></g></svg>