<svg version="1.1" xmlns="http://www.w3.org/2000/svg" xmlns:xlink="http://www.w3.org/1999/xlink" width="180" height="184"><defs><clipPath id="daCcaSysGbhp"><path fill="none" stroke="none" d=" M 0 0 L 180 0 L 180 184 L 0 184 L 0 0 Z"/></clipPath></defs><g transform="scale(1,1)" clip-path="url(#daCcaSysGbhp)"><g transform="translate(-340,-395)"><rect fill="rgb(255,255,255)" stroke="none" x="0" y="0" width="1126" height="932" fill-opacity="1"/><path fill="rgb(21,101,192)" stroke="none" paint-order="stroke fill markers" fill-rule="evenodd" d=" M 364.97861583360543 560.1303226242984 L 494.6256689252425 560.1303226242984 L 494.6256689252425 430.4832695326618 L 364.97861583360543 430.4832695326617 Z" fill-opacity="0.09803921568627451"/><path fill="none" stroke="rgb(21,101,192)" paint-order="fill stroke markers" d=" M 364.97861583360543 560.1303226242984 L 494.6256689252425 560.1303226242984 L 494.6256689252425 430.4832695326618 L 364.97861583360543 430.4832695326617 Z" stroke-opacity="0.8" stroke-linecap="round" stroke-linejoin="round" stroke-miterlimit="10" stroke-width="2.5"/><path fill="none" stroke="rgb(97,97,97)" paint-order="fill stroke markers" d=" M 494.6256689252425 495.30679607848003 C 494.6256689252425 531.1078412199871 465.60318752093116 560.1303226242984 429.80214237942397 560.1303226242984 C 394.0010972379168 560.1303226242984 364.97861583360543 531.1078412199871 364.97861583360543 495.30679607848003 C 364.97861583360543 459.50575093697296 394.0010972379168 430.4832695326617 429.80214237942397 430.4832695326617 C 465.60318752093116 430.4832695326617 494.6256689252425 459.50575093697296 494.6256689252425 495.30679607848003 Z" stroke-opacity="0.8" stroke-linecap="round" stroke-linejoin="round" stroke-miterlimit="10" stroke-width="2.5"/><path fill="none" stroke="rgb(97,97,97)" paint-order="fill stroke markers" d=" M -5 495.30679607848003 L 1131 495.3067960784801" stroke-opacity="0.8" stroke-linecap="round" stroke-linejoin="round" stroke-miterlimit="10" stroke-width="2.5"/><path fill="none" stroke="rgb(21,101,192)" paint-order="fill stroke markers" d=" M 364.97861583360543 560.1303226242984 L 494.6256689252425 560.1303226242984" stroke-opacity="0.8" stroke-linecap="round" stroke-linejoin="round" stroke-miterlimit="10" stroke-width="2.5"/><path fill="none" stroke="rgb(21,101,192)" paint-order="fill stroke markers" d=" M 494.6256689252425 560.1303226242984 L 494.6256689252425 430.4832695326618" stroke-opacity="0.8" stroke-linecap="round" stroke-linejoin="round" stroke-miterlimit="10" stroke-width="2.5"/><path fill="none" stroke="rgb(21,101,192)" paint-order="fill stroke markers" d=" M 494.6256689252425 430.4832695326618 L 364.97861583360543 430.4832695326617" stroke-opacity="0.8" stroke-linecap="round" stroke-linejoin="round" stroke-miterlimit="10" stroke-width="2.5"/><path fill="none" stroke="rgb(21,101,192)" paint-order="fill stroke markers" d=" M 364.97861583360543 430.4832695326617 L 364.97861583360543 560.1303226242984" stroke-opacity="0.8" stroke-linecap="round" stroke-linejoin="round" stroke-miterlimit="10" stroke-width="2.5"/><path fill="none" stroke="rgb(97,97,97)" paint-order="fill stroke markers" d=" M 364.97861583360543 430.4832695326617 L 494.6256689252425 560.1303226242984" stroke-opacity="0.8" stroke-linecap="round" stroke-linejoin="round" stroke-miterlimit="10" stroke-width="2.5"/><path fill="rgb(21,101,192)" stroke="none" paint-order="stroke fill markers" d=" M 369.97861583360543 560.1303226242984 C 369.97861583360543 562.8917463734524 367.7400395827594 565.1303226242984 364.97861583360543 565.1303226242984 C 362.2171920844515 565.1303226242984 359.97861583360543 562.8917463734524 359.97861583360543 560.1303226242984 C 359.97861583360543 557.3688988751444 362.2171920844515 555.1303226242984 364.97861583360543 555.1303226242984 C 367.7400395827594 555.1303226242984 369.97861583360543 557.3688988751444 369.97861583360543 560.1303226242984 Z" fill-opacity="1"/><path fill="none" stroke="rgb(0,0,0)" paint-order="fill stroke markers" d=" M 369.97861583360543 560.1303226242984 C 369.97861583360543 562.8917463734524 367.7400395827594 565.1303226242984 364.97861583360543 565.1303226242984 C 362.2171920844515 565.1303226242984 359.97861583360543 562.8917463734524 359.97861583360543 560.1303226242984 C 359.97861583360543 557.3688988751444 362.2171920844515 555.1303226242984 364.97861583360543 555.1303226242984 C 367.7400395827594 555.1303226242984 369.97861583360543 557.3688988751444 369.97861583360543 560.1303226242984 Z" stroke-opacity="1" stroke-linecap="round" stroke-linejoin="round" stroke-miterlimit="10"/><text fill="rgb(21,101,192)" stroke="none" font-family="geogebra-sans-serif, sans-serif" font-size="16px" font-style="normal" font-weight="normal" text-decoration="normal" x="369" y="550" text-anchor="start" dominant-baseline="alphabetic" fill-opacity="1">A</text><text fill="none" stroke="rgb(255,255,255)" font-family="geogebra-sans-serif, sans-serif" font-size="16px" font-style="normal" font-weight="normal" text-decoration="normal" x="369" y="550" text-anchor="start" dominant-baseline="alphabetic" stroke-opacity="1" stroke-linejoin="bevel" stroke-miterlimit="10" stroke-width="3">A</text><text fill="rgb(21,101,192)" stroke="none" font-family="geogebra-sans-serif, sans-serif" font-size="16px" font-style="normal" font-weight="normal" text-decoration="normal" x="369" y="550" text-anchor="start" dominant-baseline="alphabetic" fill-opacity="1">A</text><path fill="rgb(21,101,192)" stroke="none" paint-order="stroke fill markers" d=" M 499.6256689252425 560.1303226242984 C 499.6256689252425 562.8917463734524 497.38709267439646 565.1303226242984 494.6256689252425 565.1303226242984 C 491.86424517608856 565.1303226242984 489.6256689252425 562.8917463734524 489.6256689252425 560.1303226242984 C 489.6256689252425 557.3688988751444 491.86424517608856 555.1303226242984 494.6256689252425 555.1303226242984 C 497.38709267439646 555.1303226242984 499.6256689252425 557.3688988751444 499.6256689252425 560.1303226242984 Z" fill-opacity="1"/><path fill="none" stroke="rgb(0,0,0)" paint-order="fill stroke markers" d=" M 499.6256689252425 560.1303226242984 C 499.6256689252425 562.8917463734524 497.38709267439646 565.1303226242984 494.6256689252425 565.1303226242984 C 491.86424517608856 565.1303226242984 489.6256689252425 562.8917463734524 489.6256689252425 560.1303226242984 C 489.6256689252425 557.3688988751444 491.86424517608856 555.1303226242984 494.6256689252425 555.1303226242984 C 497.38709267439646 555.1303226242984 499.6256689252425 557.3688988751444 499.6256689252425 560.1303226242984 Z" stroke-opacity="1" stroke-linecap="round" stroke-linejoin="round" stroke-miterlimit="10"/><text fill="rgb(21,101,192)" stroke="none" font-family="geogebra-sans-serif, sans-serif" font-size="16px" font-style="normal" font-weight="normal" text-decoration="normal" x="499" y="550" text-anchor="start" dominant-baseline="alphabetic" fill-opacity="1">B</text><text fill="none" stroke="rgb(255,255,255)" font-family="geogebra-sans-serif, sans-serif" font-size="16px" font-style="normal" font-weight="normal" text-decoration="normal" x="499" y="550" text-anchor="start" dominant-baseline="alphabetic" stroke-opacity="1" stroke-linejoin="bevel" stroke-miterlimit="10" stroke-width="3">B</text><text fill="rgb(21,101,192)" stroke="none" font-family="geogebra-sans-serif, sans-serif" font-size="16px" font-style="normal" font-weight="normal" text-decoration="normal" x="499" y="550" text-anchor="start" dominant-baseline="alphabetic" fill-opacity="1">B</text><path fill="rgb(97,97,97)" stroke="none" paint-order="stroke fill markers" d=" M 499.6256689252425 430.4832695326618 C 499.6256689252425 433.2446932818157 497.38709267439646 435.4832695326618 494.6256689252425 435.4832695326618 C 491.86424517608856 435.4832695326618 489.6256689252425 433.2446932818157 489.6256689252425 430.4832695326618 C 489.6256689252425 427.72184578350783 491.86424517608856 425.4832695326618 494.6256689252425 425.4832695326618 C 497.38709267439646 425.4832695326618 499.6256689252425 427.72184578350783 499.6256689252425 430.4832695326618 Z" fill-opacity="1"/><path fill="none" stroke="rgb(0,0,0)" paint-order="fill stroke markers" d=" M 499.6256689252425 430.4832695326618 C 499.6256689252425 433.2446932818157 497.38709267439646 435.4832695326618 494.6256689252425 435.4832695326618 C 491.86424517608856 435.4832695326618 489.6256689252425 433.2446932818157 489.6256689252425 430.4832695326618 C 489.6256689252425 427.72184578350783 491.86424517608856 425.4832695326618 494.6256689252425 425.4832695326618 C 497.38709267439646 425.4832695326618 499.6256689252425 427.72184578350783 499.6256689252425 430.4832695326618 Z" stroke-opacity="1" stroke-linecap="round" stroke-linejoin="round" stroke-miterlimit="10"/><text fill="rgb(97,97,97)" stroke="none" font-family="geogebra-sans-serif, sans-serif" font-size="16px" font-style="normal" font-weight="normal" text-decoration="normal" x="499" y="420" text-anchor="start" dominant-baseline="alphabetic" fill-opacity="1">C</text><text fill="none" stroke="rgb(255,255,255)" font-family="geogebra-sans-serif, sans-serif" font-size="16px" font-style="normal" font-weight="normal" text-decoration="normal" x="499" y="420" text-anchor="start" dominant-baseline="alphabetic" stroke-opacity="1" stroke-linejoin="bevel" stroke-miterlimit="10" stroke-width="3">C</text><text fill="rgb(97,97,97)" stroke="none" font-family="geogebra-sans-serif, sans-serif" font-size="16px" font-style="normal" font-weight="normal" text-decoration="normal" x="499" y="420" text-anchor="start" dominant-baseline="alphabetic" fill-opacity="1">C</text><path fill="rgb(97,97,97)" stroke="none" paint-order="stroke fill markers" d=" M 369.97861583360543 430.4832695326617 C 369.97861583360543 433.24469328181567 367.7400395827594 435.4832695326617 364.97861583360543 435.4832695326617 C 362.2171920844515 435.4832695326617 359.97861583360543 433.24469328181567 359.97861583360543 430.4832695326617 C 359.97861583360543 427.7218457835078 362.2171920844515 425.4832695326617 364.97861583360543 425.4832695326617 C 367.7400395827594 425.4832695326617 369.97861583360543 427.7218457835078 369.97861583360543 430.4832695326617 Z" fill-opacity="1"/><path fill="none" stroke="rgb(0,0,0)" paint-order="fill stroke markers" d=" M 369.97861583360543 430.4832695326617 C 369.97861583360543 433.24469328181567 367.7400395827594 435.4832695326617 364.97861583360543 435.4832695326617 C 362.2171920844515 435.4832695326617 359.97861583360543 433.24469328181567 359.97861583360543 430.4832695326617 C 359.97861583360543 427.7218457835078 362.2171920844515 425.4832695326617 364.97861583360543 425.4832695326617 C 367.7400395827594 425.4832695326617 369.97861583360543 427.7218457835078 369.97861583360543 430.4832695326617 Z" stroke-opacity="1" stroke-linecap="round" stroke-linejoin="round" stroke-miterlimit="10"/><text fill="rgb(97,97,97)" stroke="none" font-family="geogebra-sans-serif, sans-serif" font-size="16px" font-style="normal" font-weight="normal" text-decoration="normal" x="369" y="420" text-anchor="start" dominant-baseline="alphabetic" fill-opacity="1">D</text><text fill="none" stroke="rgb(255,255,255)" font-family="geogebra-sans-serif, sans-serif" font-size="16px" font-style="normal" font-weight="normal" text-decoration="normal" x="369" y="420" text-anchor="start" dominant-baseline="alphabetic" stroke-opacity="1" stroke-linejoin="bevel" stroke-miterlimit="10" stroke-width="3">D</text><text fill="rgb(97,97,97)" stroke="none" font-family="geogebra-sans-serif, sans-serif" font-size="16px" font-style="normal" font-weight="normal" text-decoration="normal" x="369" y="420" text-anchor="start" dominant-baseline="alphabetic" fill-opacity="1">D</text><path fill="rgb(97,97,97)" stroke="none" paint-order="stroke fill markers" d=" M 433.80214237942397 495.30679607848003 C 433.80214237942397 497.5159350778032 432.0112813787471 499.30679607848003 429.80214237942397 499.30679607848003 C 427.5930033801008 499.30679607848003 425.80214237942397 497.5159350778032 425.80214237942397 495.30679607848003 C 425.80214237942397 493.0976570791569 427.5930033801008 491.30679607848003 429.80214237942397 491.30679607848003 C 432.0112813787471 491.30679607848003 433.80214237942397 493.0976570791569 433.80214237942397 495.30679607848003 Z" fill-opacity="1"/><path fill="none" stroke="rgb(0,0,0)" paint-order="fill stroke markers" d=" M 433.80214237942397 495.30679607848003 C 433.80214237942397 497.5159350778032 432.0112813787471 499.30679607848003 429.80214237942397 499.30679607848003 C 427.5930033801008 499.30679607848003 425.80214237942397 497.5159350778032 425.80214237942397 495.30679607848003 C 425.80214237942397 493.0976570791569 427.5930033801008 491.30679607848003 429.80214237942397 491.30679607848003 C 432.0112813787471 491.30679607848003 433.80214237942397 493.0976570791569 433.80214237942397 495.30679607848003 Z" stroke-opacity="1" stroke-linecap="round" stroke-linejoin="round" stroke-miterlimit="10"/><text fill="rgb(97,97,97)" stroke="none" font-family="geogebra-sans-serif, sans-serif" font-size="16px" font-style="normal" font-weight="normal" text-decoration="normal" x="434" y="487" text-anchor="start" dominant-baseline="alphabetic" fill-opacity="1">E</text><text fill="none" stroke="rgb(255,255,255)" font-family="geogebra-sans-serif, sans-serif" font-size="16px" font-style="normal" font-weight="normal" text-decoration="normal" x="434" y="487" text-anchor="start" dominant-baseline="alphabetic" stroke-opacity="1" stroke-linejoin="bevel" stroke-miterlimit="10" stroke-width="3">E</text><text fill="rgb(97,97,97)" stroke="none" font-family="geogebra-sans-serif, sans-serif" font-size="16px" font-style="normal" font-weight="normal" text-decoration="normal" x="434" y="487" text-anchor="start" dominant-baseline="alphabetic" fill-opacity="1">E</text><path fill="rgb(97,97,97)" stroke="none" paint-order="stroke fill markers" d=" M 498.6256689252425 495.30679607848003 C 498.6256689252425 497.5159350778032 496.83480792456567 499.30679607848003 494.6256689252425 499.30679607848003 C 492.41652992591935 499.30679607848003 490.6256689252425 497.5159350778032 490.6256689252425 495.30679607848003 C 490.6256689252425 493.0976570791569 492.41652992591935 491.30679607848003 494.6256689252425 491.30679607848003 C 496.83480792456567 491.30679607848003 498.6256689252425 493.0976570791569 498.6256689252425 495.30679607848003 Z" fill-opacity="1"/><path fill="none" stroke="rgb(0,0,0)" paint-order="fill stroke markers" d=" M 498.6256689252425 495.30679607848003 C 498.6256689252425 497.5159350778032 496.83480792456567 499.30679607848003 494.6256689252425 499.30679607848003 C 492.41652992591935 499.30679607848003 490.6256689252425 497.5159350778032 490.6256689252425 495.30679607848003 C 490.6256689252425 493.0976570791569 492.41652992591935 491.30679607848003 494.6256689252425 491.30679607848003 C 496.83480792456567 491.30679607848003 498.6256689252425 493.0976570791569 498.6256689252425 495.30679607848003 Z" stroke-opacity="1" stroke-linecap="round" stroke-linejoin="round" stroke-miterlimit="10"/><text fill="rgb(97,97,97)" stroke="none" font-family="geogebra-sans-serif, sans-serif" font-size="16px" font-style="normal" font-weight="normal" text-decoration="normal" x="499" y="487" text-anchor="start" dominant-baseline="alphabetic" fill-opacity="1">F</text><text fill="none" stroke="rgb(255,255,255)" font-family="geogebra-sans-serif, sans-serif" font-size="16px" font-style="normal" font-weight="normal" text-decoration="normal" x="499" y="487" text-anchor="start" dominant-baseline="alphabetic" stroke-opacity="1" stroke-linejoin="bevel" stroke-miterlimit="10" stroke-width="3">F</text><text fill="rgb(97,97,97)" stroke="none" font-family="geogebra-sans-serif, sans-serif" font-size="16px" font-style="normal" font-weight="normal" text-decoration="normal" x="499" y="487" text-anchor="start" dominant-baseline="alphabetic" fill-opacity="1">F</text></g></g></svg>