<svg version="1.1" xmlns="http://www.w3.org/2000/svg" xmlns:xlink="http://www.w3.org/1999/xlink" width="86" height="68"><defs><clipPath id="ObguTSCLUdav"><path fill="none" stroke="none" d=" M 0 0 L 86 0 L 86 68 L 0 68 L 0 0 Z"/></clipPath></defs><g transform="scale(1,1)" clip-path="url(#ObguTSCLUdav)"><g transform="translate(-336,-581)"><rect fill="rgb(255,255,255)" stroke="none" x="0" y="0" width="1126" height="932" fill-opacity="1"/><path fill="none" stroke="rgb(97,97,97)" paint-order="fill stroke markers" d=" M -5 639.1906116926926 L 1131 638.0940865961676" stroke-opacity="0.8" stroke-linecap="round" stroke-linejoin="round" stroke-miterlimit="10" stroke-width="2.5"/><path fill="none" stroke="rgb(97,97,97)" paint-order="fill stroke markers" d=" M 398.88034133630407 937 L 397.9710749270377 -5" stroke-opacity="0.8" stroke-linecap="round" stroke-linejoin="round" stroke-miterlimit="10" stroke-width="2.5"/><path fill="none" stroke="rgb(97,97,97)" paint-order="fill stroke markers" d=" M -5 609.8169214817547 L 1131 608.7203963852296" stroke-opacity="0.8" stroke-linecap="round" stroke-linejoin="round" stroke-miterlimit="10" stroke-width="2.5"/><path fill="none" stroke="rgb(97,97,97)" paint-order="fill stroke markers" d=" M 349.65809437328045 937 L 348.7488279640141 -5" stroke-opacity="0.8" stroke-linecap="round" stroke-linejoin="round" stroke-miterlimit="10" stroke-width="2.5"/><path fill="none" stroke="rgb(97,97,97)" paint-order="fill stroke markers" d=" M 561.0794136419597 937 L -2.2988854130739975 -5" stroke-opacity="0.8" stroke-linecap="round" stroke-linejoin="round" stroke-miterlimit="10" stroke-width="2.5"/><path fill="none" stroke="rgb(97,97,97)" paint-order="fill stroke markers" d=" M 365.18859055661676 609.4595965873949 L 349.3703034036041 638.848555415276" stroke-opacity="0.8" stroke-linecap="round" stroke-linejoin="round" stroke-miterlimit="10" stroke-width="2.5"/><path fill="none" stroke="rgb(97,97,97)" paint-order="fill stroke markers" d=" M 398.5641515494266 609.4273807949309 L 382.74586439641394 638.8163396228119" stroke-opacity="0.8" stroke-linecap="round" stroke-linejoin="round" stroke-miterlimit="10" stroke-width="2.5"/><path fill="rgb(21,101,192)" stroke="none" paint-order="stroke fill markers" d=" M 354.3703034036041 638.848555415276 C 354.3703034036041 641.60997916443 352.13172715275806 643.848555415276 349.3703034036041 643.848555415276 C 346.60887965445016 643.848555415276 344.3703034036041 641.60997916443 344.3703034036041 638.848555415276 C 344.3703034036041 636.087131666122 346.60887965445016 633.848555415276 349.3703034036041 633.848555415276 C 352.13172715275806 633.848555415276 354.3703034036041 636.087131666122 354.3703034036041 638.848555415276 Z" fill-opacity="1"/><path fill="none" stroke="rgb(0,0,0)" paint-order="fill stroke markers" d=" M 354.3703034036041 638.848555415276 C 354.3703034036041 641.60997916443 352.13172715275806 643.848555415276 349.3703034036041 643.848555415276 C 346.60887965445016 643.848555415276 344.3703034036041 641.60997916443 344.3703034036041 638.848555415276 C 344.3703034036041 636.087131666122 346.60887965445016 633.848555415276 349.3703034036041 633.848555415276 C 352.13172715275806 633.848555415276 354.3703034036041 636.087131666122 354.3703034036041 638.848555415276 Z" stroke-opacity="1" stroke-linecap="round" stroke-linejoin="round" stroke-miterlimit="10"/><text fill="rgb(21,101,192)" stroke="none" font-family="geogebra-sans-serif, sans-serif" font-size="16px" font-style="normal" font-weight="normal" text-decoration="normal" x="353" y="629" text-anchor="start" dominant-baseline="alphabetic" fill-opacity="1">A</text><text fill="none" stroke="rgb(255,255,255)" font-family="geogebra-sans-serif, sans-serif" font-size="16px" font-style="normal" font-weight="normal" text-decoration="normal" x="353" y="629" text-anchor="start" dominant-baseline="alphabetic" stroke-opacity="1" stroke-linejoin="bevel" stroke-miterlimit="10" stroke-width="3">A</text><text fill="rgb(21,101,192)" stroke="none" font-family="geogebra-sans-serif, sans-serif" font-size="16px" font-style="normal" font-weight="normal" text-decoration="normal" x="353" y="629" text-anchor="start" dominant-baseline="alphabetic" fill-opacity="1">A</text><path fill="rgb(21,101,192)" stroke="none" paint-order="stroke fill markers" d=" M 403.592504505839 638.8010436381503 C 403.592504505839 641.5624673873043 401.3539282549929 643.8010436381503 398.592504505839 643.8010436381503 C 395.831080756685 643.8010436381503 393.592504505839 641.5624673873043 393.592504505839 638.8010436381503 C 393.592504505839 636.0396198889963 395.831080756685 633.8010436381503 398.592504505839 633.8010436381503 C 401.3539282549929 633.8010436381503 403.592504505839 636.0396198889963 403.592504505839 638.8010436381503 Z" fill-opacity="1"/><path fill="none" stroke="rgb(0,0,0)" paint-order="fill stroke markers" d=" M 403.592504505839 638.8010436381503 C 403.592504505839 641.5624673873043 401.3539282549929 643.8010436381503 398.592504505839 643.8010436381503 C 395.831080756685 643.8010436381503 393.592504505839 641.5624673873043 393.592504505839 638.8010436381503 C 393.592504505839 636.0396198889963 395.831080756685 633.8010436381503 398.592504505839 633.8010436381503 C 401.3539282549929 633.8010436381503 403.592504505839 636.0396198889963 403.592504505839 638.8010436381503 Z" stroke-opacity="1" stroke-linecap="round" stroke-linejoin="round" stroke-miterlimit="10"/><text fill="rgb(21,101,192)" stroke="none" font-family="geogebra-sans-serif, sans-serif" font-size="16px" font-style="normal" font-weight="normal" text-decoration="normal" x="403" y="629" text-anchor="start" dominant-baseline="alphabetic" fill-opacity="1">B</text><text fill="none" stroke="rgb(255,255,255)" font-family="geogebra-sans-serif, sans-serif" font-size="16px" font-style="normal" font-weight="normal" text-decoration="normal" x="403" y="629" text-anchor="start" dominant-baseline="alphabetic" stroke-opacity="1" stroke-linejoin="bevel" stroke-miterlimit="10" stroke-width="3">B</text><text fill="rgb(21,101,192)" stroke="none" font-family="geogebra-sans-serif, sans-serif" font-size="16px" font-style="normal" font-weight="normal" text-decoration="normal" x="403" y="629" text-anchor="start" dominant-baseline="alphabetic" fill-opacity="1">B</text><path fill="rgb(21,101,192)" stroke="none" paint-order="stroke fill markers" d=" M 403.5641515494266 609.4273807949309 C 403.5641515494266 612.1888045440849 401.32557529858053 614.4273807949309 398.5641515494266 614.4273807949309 C 395.80272780027263 614.4273807949309 393.5641515494266 612.1888045440849 393.5641515494266 609.4273807949309 C 393.5641515494266 606.6659570457768 395.80272780027263 604.4273807949309 398.5641515494266 604.4273807949309 C 401.32557529858053 604.4273807949309 403.5641515494266 606.6659570457768 403.5641515494266 609.4273807949309 Z" fill-opacity="1"/><path fill="none" stroke="rgb(0,0,0)" paint-order="fill stroke markers" d=" M 403.5641515494266 609.4273807949309 C 403.5641515494266 612.1888045440849 401.32557529858053 614.4273807949309 398.5641515494266 614.4273807949309 C 395.80272780027263 614.4273807949309 393.5641515494266 612.1888045440849 393.5641515494266 609.4273807949309 C 393.5641515494266 606.6659570457768 395.80272780027263 604.4273807949309 398.5641515494266 604.4273807949309 C 401.32557529858053 604.4273807949309 403.5641515494266 606.6659570457768 403.5641515494266 609.4273807949309 Z" stroke-opacity="1" stroke-linecap="round" stroke-linejoin="round" stroke-miterlimit="10"/><text fill="rgb(21,101,192)" stroke="none" font-family="geogebra-sans-serif, sans-serif" font-size="16px" font-style="normal" font-weight="normal" text-decoration="normal" x="403" y="599" text-anchor="start" dominant-baseline="alphabetic" fill-opacity="1">C</text><text fill="none" stroke="rgb(255,255,255)" font-family="geogebra-sans-serif, sans-serif" font-size="16px" font-style="normal" font-weight="normal" text-decoration="normal" x="403" y="599" text-anchor="start" dominant-baseline="alphabetic" stroke-opacity="1" stroke-linejoin="bevel" stroke-miterlimit="10" stroke-width="3">C</text><text fill="rgb(21,101,192)" stroke="none" font-family="geogebra-sans-serif, sans-serif" font-size="16px" font-style="normal" font-weight="normal" text-decoration="normal" x="403" y="599" text-anchor="start" dominant-baseline="alphabetic" fill-opacity="1">C</text><path fill="rgb(97,97,97)" stroke="none" paint-order="stroke fill markers" d=" M 369.18859055661676 609.4595965873949 C 369.18859055661676 611.6687355867181 367.3977295559399 613.4595965873949 365.18859055661676 613.4595965873949 C 362.9794515572936 613.4595965873949 361.18859055661676 611.6687355867181 361.18859055661676 609.4595965873949 C 361.18859055661676 607.2504575880718 362.9794515572936 605.4595965873949 365.18859055661676 605.4595965873949 C 367.3977295559399 605.4595965873949 369.18859055661676 607.2504575880718 369.18859055661676 609.4595965873949 Z" fill-opacity="1"/><path fill="none" stroke="rgb(0,0,0)" paint-order="fill stroke markers" d=" M 369.18859055661676 609.4595965873949 C 369.18859055661676 611.6687355867181 367.3977295559399 613.4595965873949 365.18859055661676 613.4595965873949 C 362.9794515572936 613.4595965873949 361.18859055661676 611.6687355867181 361.18859055661676 609.4595965873949 C 361.18859055661676 607.2504575880718 362.9794515572936 605.4595965873949 365.18859055661676 605.4595965873949 C 367.3977295559399 605.4595965873949 369.18859055661676 607.2504575880718 369.18859055661676 609.4595965873949 Z" stroke-opacity="1" stroke-linecap="round" stroke-linejoin="round" stroke-miterlimit="10"/><text fill="rgb(97,97,97)" stroke="none" font-family="geogebra-sans-serif, sans-serif" font-size="16px" font-style="normal" font-weight="normal" text-decoration="normal" x="369" y="601" text-anchor="start" dominant-baseline="alphabetic" fill-opacity="1">D</text><text fill="none" stroke="rgb(255,255,255)" font-family="geogebra-sans-serif, sans-serif" font-size="16px" font-style="normal" font-weight="normal" text-decoration="normal" x="369" y="601" text-anchor="start" dominant-baseline="alphabetic" stroke-opacity="1" stroke-linejoin="bevel" stroke-miterlimit="10" stroke-width="3">D</text><text fill="rgb(97,97,97)" stroke="none" font-family="geogebra-sans-serif, sans-serif" font-size="16px" font-style="normal" font-weight="normal" text-decoration="normal" x="369" y="601" text-anchor="start" dominant-baseline="alphabetic" fill-opacity="1">D</text><path fill="rgb(97,97,97)" stroke="none" paint-order="stroke fill markers" d=" M 386.74586439641394 638.8163396228119 C 386.74586439641394 641.0254786221351 384.9550033957371 642.8163396228119 382.74586439641394 642.8163396228119 C 380.5367253970908 642.8163396228119 378.74586439641394 641.0254786221351 378.74586439641394 638.8163396228119 C 378.74586439641394 636.6072006234888 380.5367253970908 634.8163396228119 382.74586439641394 634.8163396228119 C 384.9550033957371 634.8163396228119 386.74586439641394 636.6072006234888 386.74586439641394 638.8163396228119 Z" fill-opacity="1"/><path fill="none" stroke="rgb(0,0,0)" paint-order="fill stroke markers" d=" M 386.74586439641394 638.8163396228119 C 386.74586439641394 641.0254786221351 384.9550033957371 642.8163396228119 382.74586439641394 642.8163396228119 C 380.5367253970908 642.8163396228119 378.74586439641394 641.0254786221351 378.74586439641394 638.8163396228119 C 378.74586439641394 636.6072006234888 380.5367253970908 634.8163396228119 382.74586439641394 634.8163396228119 C 384.9550033957371 634.8163396228119 386.74586439641394 636.6072006234888 386.74586439641394 638.8163396228119 Z" stroke-opacity="1" stroke-linecap="round" stroke-linejoin="round" stroke-miterlimit="10"/><text fill="rgb(97,97,97)" stroke="none" font-family="geogebra-sans-serif, sans-serif" font-size="16px" font-style="normal" font-weight="normal" text-decoration="normal" x="387" y="631" text-anchor="start" dominant-baseline="alphabetic" fill-opacity="1">E</text><text fill="none" stroke="rgb(255,255,255)" font-family="geogebra-sans-serif, sans-serif" font-size="16px" font-style="normal" font-weight="normal" text-decoration="normal" x="387" y="631" text-anchor="start" dominant-baseline="alphabetic" stroke-opacity="1" stroke-linejoin="bevel" stroke-miterlimit="10" stroke-width="3">E</text><text fill="rgb(97,97,97)" stroke="none" font-family="geogebra-sans-serif, sans-serif" font-size="16px" font-style="normal" font-weight="normal" text-decoration="normal" x="387" y="631" text-anchor="start" dominant-baseline="alphabetic" fill-opacity="1">E</text></g></g></svg>