<svg version="1.1" xmlns="http://www.w3.org/2000/svg" xmlns:xlink="http://www.w3.org/1999/xlink" width="116" height="129"><defs><clipPath id="nFivmRDbbmuG"><path fill="none" stroke="none" d=" M 0 0 L 116 0 L 116 129 L 0 129 L 0 0 Z"/></clipPath></defs><g transform="scale(1,1)" clip-path="url(#nFivmRDbbmuG)"><g transform="translate(-259,-398)"><rect fill="rgb(255,255,255)" stroke="none" x="0" y="0" width="1126" height="932" fill-opacity="1"/><path fill="none" stroke="rgb(97,97,97)" paint-order="fill stroke markers" d=" M 359.75479966633304 468.97774435810993 C 359.75479966633304 493.26727299915774 340.06424620573017 512.9578264597606 315.7747175646822 512.9578264597606 C 291.4851889236342 512.9578264597606 271.79463546303134 493.26727299915774 271.79463546303134 468.97774435810993 C 271.79463546303134 444.6882157170621 291.4851889236342 424.9976622564594 315.7747175646822 424.9976622564594 C 340.06424620573017 424.9976622564594 359.75479966633304 444.6882157170621 359.75479966633304 468.97774435810993 Z" stroke-opacity="0.8" stroke-linecap="round" stroke-linejoin="round" stroke-miterlimit="10" stroke-width="2.5"/><path fill="none" stroke="rgb(97,97,97)" paint-order="fill stroke markers" d=" M 459.3380353127068 937 L 170.38458558164044 -5" stroke-opacity="0.8" stroke-linecap="round" stroke-linejoin="round" stroke-miterlimit="10" stroke-width="2.5"/><path fill="none" stroke="rgb(97,97,97)" paint-order="fill stroke markers" d=" M -5 378.1250993500363 L 1131 699.8730398134562" stroke-opacity="0.8" stroke-linecap="round" stroke-linejoin="round" stroke-miterlimit="10" stroke-width="2.5"/><path fill="rgb(21,101,192)" stroke="none" paint-order="stroke fill markers" d=" M 320.7747175646822 468.97774435810993 C 320.7747175646822 471.7391681072639 318.53614131383614 473.97774435810993 315.7747175646822 473.97774435810993 C 313.01329381552824 473.97774435810993 310.7747175646822 471.7391681072639 310.7747175646822 468.97774435810993 C 310.7747175646822 466.216320608956 313.01329381552824 463.97774435810993 315.7747175646822 463.97774435810993 C 318.53614131383614 463.97774435810993 320.7747175646822 466.216320608956 320.7747175646822 468.97774435810993 Z" fill-opacity="1"/><path fill="none" stroke="rgb(0,0,0)" paint-order="fill stroke markers" d=" M 320.7747175646822 468.97774435810993 C 320.7747175646822 471.7391681072639 318.53614131383614 473.97774435810993 315.7747175646822 473.97774435810993 C 313.01329381552824 473.97774435810993 310.7747175646822 471.7391681072639 310.7747175646822 468.97774435810993 C 310.7747175646822 466.216320608956 313.01329381552824 463.97774435810993 315.7747175646822 463.97774435810993 C 318.53614131383614 463.97774435810993 320.7747175646822 466.216320608956 320.7747175646822 468.97774435810993 Z" stroke-opacity="1" stroke-linecap="round" stroke-linejoin="round" stroke-miterlimit="10"/><text fill="rgb(21,101,192)" stroke="none" font-family="geogebra-sans-serif, sans-serif" font-size="16px" font-style="normal" font-weight="normal" text-decoration="normal" x="320" y="459" text-anchor="start" dominant-baseline="alphabetic" fill-opacity="1">A</text><text fill="none" stroke="rgb(255,255,255)" font-family="geogebra-sans-serif, sans-serif" font-size="16px" font-style="normal" font-weight="normal" text-decoration="normal" x="320" y="459" text-anchor="start" dominant-baseline="alphabetic" stroke-opacity="1" stroke-linejoin="bevel" stroke-miterlimit="10" stroke-width="3">A</text><text fill="rgb(21,101,192)" stroke="none" font-family="geogebra-sans-serif, sans-serif" font-size="16px" font-style="normal" font-weight="normal" text-decoration="normal" x="320" y="459" text-anchor="start" dominant-baseline="alphabetic" fill-opacity="1">A</text><path fill="rgb(21,101,192)" stroke="none" paint-order="stroke fill markers" d=" M 333.41322314049586 426.85274229902336 C 333.41322314049586 429.6141660481773 331.1746468896498 431.85274229902336 328.41322314049586 431.85274229902336 C 325.6517993913419 431.85274229902336 323.41322314049586 429.6141660481773 323.41322314049586 426.85274229902336 C 323.41322314049586 424.0913185498694 325.6517993913419 421.85274229902336 328.41322314049586 421.85274229902336 C 331.1746468896498 421.85274229902336 333.41322314049586 424.0913185498694 333.41322314049586 426.85274229902336 Z" fill-opacity="1"/><path fill="none" stroke="rgb(0,0,0)" paint-order="fill stroke markers" d=" M 333.41322314049586 426.85274229902336 C 333.41322314049586 429.6141660481773 331.1746468896498 431.85274229902336 328.41322314049586 431.85274229902336 C 325.6517993913419 431.85274229902336 323.41322314049586 429.6141660481773 323.41322314049586 426.85274229902336 C 323.41322314049586 424.0913185498694 325.6517993913419 421.85274229902336 328.41322314049586 421.85274229902336 C 331.1746468896498 421.85274229902336 333.41322314049586 424.0913185498694 333.41322314049586 426.85274229902336 Z" stroke-opacity="1" stroke-linecap="round" stroke-linejoin="round" stroke-miterlimit="10"/><text fill="rgb(21,101,192)" stroke="none" font-family="geogebra-sans-serif, sans-serif" font-size="16px" font-style="normal" font-weight="normal" text-decoration="normal" x="332" y="417" text-anchor="start" dominant-baseline="alphabetic" fill-opacity="1">B</text><text fill="none" stroke="rgb(255,255,255)" font-family="geogebra-sans-serif, sans-serif" font-size="16px" font-style="normal" font-weight="normal" text-decoration="normal" x="332" y="417" text-anchor="start" dominant-baseline="alphabetic" stroke-opacity="1" stroke-linejoin="bevel" stroke-miterlimit="10" stroke-width="3">B</text><text fill="rgb(21,101,192)" stroke="none" font-family="geogebra-sans-serif, sans-serif" font-size="16px" font-style="normal" font-weight="normal" text-decoration="normal" x="332" y="417" text-anchor="start" dominant-baseline="alphabetic" fill-opacity="1">B</text><path fill="rgb(21,101,192)" stroke="none" paint-order="stroke fill markers" d=" M 286.68933204465657 441.18504539562764 C 286.68933204465657 443.9464691447816 284.4507557938105 446.18504539562764 281.68933204465657 446.18504539562764 C 278.9279082955026 446.18504539562764 276.68933204465657 443.9464691447816 276.68933204465657 441.18504539562764 C 276.68933204465657 438.4236216464737 278.9279082955026 436.18504539562764 281.68933204465657 436.18504539562764 C 284.4507557938105 436.18504539562764 286.68933204465657 438.4236216464737 286.68933204465657 441.18504539562764 Z" fill-opacity="1"/><path fill="none" stroke="rgb(0,0,0)" paint-order="fill stroke markers" d=" M 286.68933204465657 441.18504539562764 C 286.68933204465657 443.9464691447816 284.4507557938105 446.18504539562764 281.68933204465657 446.18504539562764 C 278.9279082955026 446.18504539562764 276.68933204465657 443.9464691447816 276.68933204465657 441.18504539562764 C 276.68933204465657 438.4236216464737 278.9279082955026 436.18504539562764 281.68933204465657 436.18504539562764 C 284.4507557938105 436.18504539562764 286.68933204465657 438.4236216464737 286.68933204465657 441.18504539562764 Z" stroke-opacity="1" stroke-linecap="round" stroke-linejoin="round" stroke-miterlimit="10"/><text fill="rgb(21,101,192)" stroke="none" font-family="geogebra-sans-serif, sans-serif" font-size="16px" font-style="normal" font-weight="normal" text-decoration="normal" x="286" y="431" text-anchor="start" dominant-baseline="alphabetic" fill-opacity="1">C</text><text fill="none" stroke="rgb(255,255,255)" font-family="geogebra-sans-serif, sans-serif" font-size="16px" font-style="normal" font-weight="normal" text-decoration="normal" x="286" y="431" text-anchor="start" dominant-baseline="alphabetic" stroke-opacity="1" stroke-linejoin="bevel" stroke-miterlimit="10" stroke-width="3">C</text><text fill="rgb(21,101,192)" stroke="none" font-family="geogebra-sans-serif, sans-serif" font-size="16px" font-style="normal" font-weight="normal" text-decoration="normal" x="286" y="431" text-anchor="start" dominant-baseline="alphabetic" fill-opacity="1">C</text><path fill="rgb(21,101,192)" stroke="none" paint-order="stroke fill markers" d=" M 309.44611525862103 511.4737487756905 C 309.44611525862103 514.2351725248445 307.207539007775 516.4737487756905 304.44611525862103 516.4737487756905 C 301.6846915094671 516.4737487756905 299.44611525862103 514.2351725248445 299.44611525862103 511.4737487756905 C 299.44611525862103 508.7123250265366 301.6846915094671 506.4737487756905 304.44611525862103 506.4737487756905 C 307.207539007775 506.4737487756905 309.44611525862103 508.7123250265366 309.44611525862103 511.4737487756905 Z" fill-opacity="1"/><path fill="none" stroke="rgb(0,0,0)" paint-order="fill stroke markers" d=" M 309.44611525862103 511.4737487756905 C 309.44611525862103 514.2351725248445 307.207539007775 516.4737487756905 304.44611525862103 516.4737487756905 C 301.6846915094671 516.4737487756905 299.44611525862103 514.2351725248445 299.44611525862103 511.4737487756905 C 299.44611525862103 508.7123250265366 301.6846915094671 506.4737487756905 304.44611525862103 506.4737487756905 C 307.207539007775 506.4737487756905 309.44611525862103 508.7123250265366 309.44611525862103 511.4737487756905 Z" stroke-opacity="1" stroke-linecap="round" stroke-linejoin="round" stroke-miterlimit="10"/><text fill="rgb(21,101,192)" stroke="none" font-family="geogebra-sans-serif, sans-serif" font-size="16px" font-style="normal" font-weight="normal" text-decoration="normal" x="308" y="501" text-anchor="start" dominant-baseline="alphabetic" fill-opacity="1">D</text><text fill="none" stroke="rgb(255,255,255)" font-family="geogebra-sans-serif, sans-serif" font-size="16px" font-style="normal" font-weight="normal" text-decoration="normal" x="308" y="501" text-anchor="start" dominant-baseline="alphabetic" stroke-opacity="1" stroke-linejoin="bevel" stroke-miterlimit="10" stroke-width="3">D</text><text fill="rgb(21,101,192)" stroke="none" font-family="geogebra-sans-serif, sans-serif" font-size="16px" font-style="normal" font-weight="normal" text-decoration="normal" x="308" y="501" text-anchor="start" dominant-baseline="alphabetic" fill-opacity="1">D</text></g></g></svg>