<svg version="1.1" xmlns="http://www.w3.org/2000/svg" xmlns:xlink="http://www.w3.org/1999/xlink" width="268" height="234"><defs><clipPath id="HgdEkRtswCGP"><path fill="none" stroke="none" d=" M 0 0 L 268 0 L 268 234 L 0 234 L 0 0 Z"/></clipPath></defs><g transform="scale(1,1)" clip-path="url(#HgdEkRtswCGP)"><g transform="translate(-278,-311)"><rect fill="rgb(255,255,255)" stroke="none" x="0" y="0" width="1126" height="932" fill-opacity="1"/><path fill="none" stroke="rgb(97,97,97)" paint-order="fill stroke markers" d=" M 463.7787328874512 443.8624736277036 C 463.7787328874512 469.6105018809211 442.9058318807062 490.4834028876661 417.1578036274887 490.4834028876661 C 391.4097753742712 490.4834028876661 370.5368743675262 469.6105018809211 370.5368743675262 443.8624736277036 C 370.5368743675262 418.1144453744861 391.4097753742712 397.2415443677411 417.1578036274887 397.2415443677411 C 442.9058318807062 397.2415443677411 463.7787328874512 418.1144453744861 463.7787328874512 443.8624736277036 Z" stroke-opacity="0.8" stroke-linecap="round" stroke-linejoin="round" stroke-miterlimit="10" stroke-width="2.5"/><path fill="none" stroke="rgb(97,97,97)" paint-order="fill stroke markers" d=" M 535.7289151279133 453.0585404623381 C 535.7289151279133 493.3014045261731 503.10562803301275 525.9246916210736 462.8627639691777 525.9246916210736 C 422.61989990534266 525.9246916210736 389.9966128104422 493.3014045261731 389.9966128104422 453.0585404623381 C 389.9966128104422 412.81567639850306 422.61989990534266 380.19238930360257 462.8627639691777 380.19238930360257 C 503.10562803301275 380.19238930360257 535.7289151279133 412.81567639850306 535.7289151279133 453.0585404623381 Z" stroke-opacity="0.8" stroke-linecap="round" stroke-linejoin="round" stroke-miterlimit="10" stroke-width="2.5"/><path fill="none" stroke="rgb(97,97,97)" paint-order="fill stroke markers" d=" M 488.87247023705277 397.25576672413183 C 488.87247023705277 437.4986307879668 456.2491831421522 470.12191788286736 416.0063190783172 470.12191788286736 C 375.76345501448213 470.12191788286736 343.14016791958164 437.4986307879668 343.14016791958164 397.25576672413183 C 343.14016791958164 357.0129026602968 375.76345501448213 324.3896155653963 416.0063190783172 324.3896155653963 C 456.2491831421522 324.3896155653963 488.87247023705277 357.0129026602968 488.87247023705277 397.25576672413183 Z" stroke-opacity="0.8" stroke-linecap="round" stroke-linejoin="round" stroke-miterlimit="10" stroke-width="2.5"/><path fill="none" stroke="rgb(97,97,97)" paint-order="fill stroke markers" d=" M 444.82888409584234 455.304354170421 C 444.82888409584234 495.547218234256 412.20559700094185 528.1705053291565 371.9627329371068 528.1705053291565 C 331.71986887327176 528.1705053291565 299.0965817783713 495.547218234256 299.0965817783713 455.304354170421 C 299.0965817783713 415.06149010658595 331.71986887327176 382.43820301168546 371.9627329371068 382.43820301168546 C 412.20559700094185 382.43820301168546 444.82888409584234 415.06149010658595 444.82888409584234 455.304354170421 Z" stroke-opacity="0.8" stroke-linecap="round" stroke-linejoin="round" stroke-miterlimit="10" stroke-width="2.5"/><path fill="none" stroke="rgb(97,97,97)" paint-order="fill stroke markers" d=" M 343.7129746254231 388.13719597522 L 444.2560773900009 464.4229249193328" stroke-opacity="0.8" stroke-linecap="round" stroke-linejoin="round" stroke-miterlimit="10" stroke-width="2.5"/><path fill="none" stroke="rgb(97,97,97)" paint-order="fill stroke markers" d=" M 487.76116118266924 384.5782819867242 L 391.10792186482564 465.73602519974577" stroke-opacity="0.8" stroke-linecap="round" stroke-linejoin="round" stroke-miterlimit="10" stroke-width="2.5"/><path fill="rgb(21,101,192)" stroke="none" paint-order="stroke fill markers" d=" M 422.1578036274887 443.8624736277036 C 422.1578036274887 446.62389737685754 419.91922737664265 448.8624736277036 417.1578036274887 448.8624736277036 C 414.39637987833476 448.8624736277036 412.1578036274887 446.62389737685754 412.1578036274887 443.8624736277036 C 412.1578036274887 441.10104987854965 414.39637987833476 438.8624736277036 417.1578036274887 438.8624736277036 C 419.91922737664265 438.8624736277036 422.1578036274887 441.10104987854965 422.1578036274887 443.8624736277036 Z" fill-opacity="1"/><path fill="none" stroke="rgb(0,0,0)" paint-order="fill stroke markers" d=" M 422.1578036274887 443.8624736277036 C 422.1578036274887 446.62389737685754 419.91922737664265 448.8624736277036 417.1578036274887 448.8624736277036 C 414.39637987833476 448.8624736277036 412.1578036274887 446.62389737685754 412.1578036274887 443.8624736277036 C 412.1578036274887 441.10104987854965 414.39637987833476 438.8624736277036 417.1578036274887 438.8624736277036 C 419.91922737664265 438.8624736277036 422.1578036274887 441.10104987854965 422.1578036274887 443.8624736277036 Z" stroke-opacity="1" stroke-linecap="round" stroke-linejoin="round" stroke-miterlimit="10"/><text fill="rgb(21,101,192)" stroke="none" font-family="geogebra-sans-serif, sans-serif" font-size="16px" font-style="normal" font-weight="normal" text-decoration="normal" x="421" y="434" text-anchor="start" dominant-baseline="alphabetic" fill-opacity="1">A</text><text fill="none" stroke="rgb(255,255,255)" font-family="geogebra-sans-serif, sans-serif" font-size="16px" font-style="normal" font-weight="normal" text-decoration="normal" x="421" y="434" text-anchor="start" dominant-baseline="alphabetic" stroke-opacity="1" stroke-linejoin="bevel" stroke-miterlimit="10" stroke-width="3">A</text><text fill="rgb(21,101,192)" stroke="none" font-family="geogebra-sans-serif, sans-serif" font-size="16px" font-style="normal" font-weight="normal" text-decoration="normal" x="421" y="434" text-anchor="start" dominant-baseline="alphabetic" fill-opacity="1">A</text><path fill="rgb(21,101,192)" stroke="none" paint-order="stroke fill markers" d=" M 467.8627639691777 453.0585404623381 C 467.8627639691777 455.81996421149205 465.62418771833165 458.0585404623381 462.8627639691777 458.0585404623381 C 460.10134022002376 458.0585404623381 457.8627639691777 455.81996421149205 457.8627639691777 453.0585404623381 C 457.8627639691777 450.29711671318415 460.10134022002376 448.0585404623381 462.8627639691777 448.0585404623381 C 465.62418771833165 448.0585404623381 467.8627639691777 450.29711671318415 467.8627639691777 453.0585404623381 Z" fill-opacity="1"/><path fill="none" stroke="rgb(0,0,0)" paint-order="fill stroke markers" d=" M 467.8627639691777 453.0585404623381 C 467.8627639691777 455.81996421149205 465.62418771833165 458.0585404623381 462.8627639691777 458.0585404623381 C 460.10134022002376 458.0585404623381 457.8627639691777 455.81996421149205 457.8627639691777 453.0585404623381 C 457.8627639691777 450.29711671318415 460.10134022002376 448.0585404623381 462.8627639691777 448.0585404623381 C 465.62418771833165 448.0585404623381 467.8627639691777 450.29711671318415 467.8627639691777 453.0585404623381 Z" stroke-opacity="1" stroke-linecap="round" stroke-linejoin="round" stroke-miterlimit="10"/><text fill="rgb(21,101,192)" stroke="none" font-family="geogebra-sans-serif, sans-serif" font-size="16px" font-style="normal" font-weight="normal" text-decoration="normal" x="467" y="443" text-anchor="start" dominant-baseline="alphabetic" fill-opacity="1">B</text><text fill="none" stroke="rgb(255,255,255)" font-family="geogebra-sans-serif, sans-serif" font-size="16px" font-style="normal" font-weight="normal" text-decoration="normal" x="467" y="443" text-anchor="start" dominant-baseline="alphabetic" stroke-opacity="1" stroke-linejoin="bevel" stroke-miterlimit="10" stroke-width="3">B</text><text fill="rgb(21,101,192)" stroke="none" font-family="geogebra-sans-serif, sans-serif" font-size="16px" font-style="normal" font-weight="normal" text-decoration="normal" x="467" y="443" text-anchor="start" dominant-baseline="alphabetic" fill-opacity="1">B</text><path fill="rgb(21,101,192)" stroke="none" paint-order="stroke fill markers" d=" M 421.0063190783172 397.25576672413183 C 421.0063190783172 400.0171904732858 418.7677428274711 402.25576672413183 416.0063190783172 402.25576672413183 C 413.2448953291632 402.25576672413183 411.0063190783172 400.0171904732858 411.0063190783172 397.25576672413183 C 411.0063190783172 394.4943429749779 413.2448953291632 392.25576672413183 416.0063190783172 392.25576672413183 C 418.7677428274711 392.25576672413183 421.0063190783172 394.4943429749779 421.0063190783172 397.25576672413183 Z" fill-opacity="1"/><path fill="none" stroke="rgb(0,0,0)" paint-order="fill stroke markers" d=" M 421.0063190783172 397.25576672413183 C 421.0063190783172 400.0171904732858 418.7677428274711 402.25576672413183 416.0063190783172 402.25576672413183 C 413.2448953291632 402.25576672413183 411.0063190783172 400.0171904732858 411.0063190783172 397.25576672413183 C 411.0063190783172 394.4943429749779 413.2448953291632 392.25576672413183 416.0063190783172 392.25576672413183 C 418.7677428274711 392.25576672413183 421.0063190783172 394.4943429749779 421.0063190783172 397.25576672413183 Z" stroke-opacity="1" stroke-linecap="round" stroke-linejoin="round" stroke-miterlimit="10"/><text fill="rgb(21,101,192)" stroke="none" font-family="geogebra-sans-serif, sans-serif" font-size="16px" font-style="normal" font-weight="normal" text-decoration="normal" x="420" y="387" text-anchor="start" dominant-baseline="alphabetic" fill-opacity="1">C</text><text fill="none" stroke="rgb(255,255,255)" font-family="geogebra-sans-serif, sans-serif" font-size="16px" font-style="normal" font-weight="normal" text-decoration="normal" x="420" y="387" text-anchor="start" dominant-baseline="alphabetic" stroke-opacity="1" stroke-linejoin="bevel" stroke-miterlimit="10" stroke-width="3">C</text><text fill="rgb(21,101,192)" stroke="none" font-family="geogebra-sans-serif, sans-serif" font-size="16px" font-style="normal" font-weight="normal" text-decoration="normal" x="420" y="387" text-anchor="start" dominant-baseline="alphabetic" fill-opacity="1">C</text><path fill="rgb(97,97,97)" stroke="none" paint-order="stroke fill markers" d=" M 375.9627329371068 455.304354170421 C 375.9627329371068 457.51349316974415 374.17187193642997 459.304354170421 371.9627329371068 459.304354170421 C 369.75359393778365 459.304354170421 367.9627329371068 457.51349316974415 367.9627329371068 455.304354170421 C 367.9627329371068 453.09521517109783 369.75359393778365 451.304354170421 371.9627329371068 451.304354170421 C 374.17187193642997 451.304354170421 375.9627329371068 453.09521517109783 375.9627329371068 455.304354170421 Z" fill-opacity="1"/><path fill="none" stroke="rgb(0,0,0)" paint-order="fill stroke markers" d=" M 375.9627329371068 455.304354170421 C 375.9627329371068 457.51349316974415 374.17187193642997 459.304354170421 371.9627329371068 459.304354170421 C 369.75359393778365 459.304354170421 367.9627329371068 457.51349316974415 367.9627329371068 455.304354170421 C 367.9627329371068 453.09521517109783 369.75359393778365 451.304354170421 371.9627329371068 451.304354170421 C 374.17187193642997 451.304354170421 375.9627329371068 453.09521517109783 375.9627329371068 455.304354170421 Z" stroke-opacity="1" stroke-linecap="round" stroke-linejoin="round" stroke-miterlimit="10"/><text fill="rgb(97,97,97)" stroke="none" font-family="geogebra-sans-serif, sans-serif" font-size="16px" font-style="normal" font-weight="normal" text-decoration="normal" x="376" y="447" text-anchor="start" dominant-baseline="alphabetic" fill-opacity="1">D</text><text fill="none" stroke="rgb(255,255,255)" font-family="geogebra-sans-serif, sans-serif" font-size="16px" font-style="normal" font-weight="normal" text-decoration="normal" x="376" y="447" text-anchor="start" dominant-baseline="alphabetic" stroke-opacity="1" stroke-linejoin="bevel" stroke-miterlimit="10" stroke-width="3">D</text><text fill="rgb(97,97,97)" stroke="none" font-family="geogebra-sans-serif, sans-serif" font-size="16px" font-style="normal" font-weight="normal" text-decoration="normal" x="376" y="447" text-anchor="start" dominant-baseline="alphabetic" fill-opacity="1">D</text><path fill="rgb(97,97,97)" stroke="none" paint-order="stroke fill markers" d=" M 347.7129746254231 388.13719597522 C 347.7129746254231 390.34633497454314 345.92211362474626 392.13719597522 343.7129746254231 392.13719597522 C 341.50383562609994 392.13719597522 339.7129746254231 390.34633497454314 339.7129746254231 388.13719597522 C 339.7129746254231 385.9280569758968 341.50383562609994 384.13719597522 343.7129746254231 384.13719597522 C 345.92211362474626 384.13719597522 347.7129746254231 385.9280569758968 347.7129746254231 388.13719597522 Z" fill-opacity="1"/><path fill="none" stroke="rgb(0,0,0)" paint-order="fill stroke markers" d=" M 347.7129746254231 388.13719597522 C 347.7129746254231 390.34633497454314 345.92211362474626 392.13719597522 343.7129746254231 392.13719597522 C 341.50383562609994 392.13719597522 339.7129746254231 390.34633497454314 339.7129746254231 388.13719597522 C 339.7129746254231 385.9280569758968 341.50383562609994 384.13719597522 343.7129746254231 384.13719597522 C 345.92211362474626 384.13719597522 347.7129746254231 385.9280569758968 347.7129746254231 388.13719597522 Z" stroke-opacity="1" stroke-linecap="round" stroke-linejoin="round" stroke-miterlimit="10"/><text fill="rgb(97,97,97)" stroke="none" font-family="geogebra-sans-serif, sans-serif" font-size="16px" font-style="normal" font-weight="normal" text-decoration="normal" x="348" y="380" text-anchor="start" dominant-baseline="alphabetic" fill-opacity="1">E</text><text fill="none" stroke="rgb(255,255,255)" font-family="geogebra-sans-serif, sans-serif" font-size="16px" font-style="normal" font-weight="normal" text-decoration="normal" x="348" y="380" text-anchor="start" dominant-baseline="alphabetic" stroke-opacity="1" stroke-linejoin="bevel" stroke-miterlimit="10" stroke-width="3">E</text><text fill="rgb(97,97,97)" stroke="none" font-family="geogebra-sans-serif, sans-serif" font-size="16px" font-style="normal" font-weight="normal" text-decoration="normal" x="348" y="380" text-anchor="start" dominant-baseline="alphabetic" fill-opacity="1">E</text><path fill="rgb(97,97,97)" stroke="none" paint-order="stroke fill markers" d=" M 448.2560773900009 464.4229249193328 C 448.2560773900009 466.63206391865594 446.46521638932404 468.4229249193328 444.2560773900009 468.4229249193328 C 442.0469383906777 468.4229249193328 440.2560773900009 466.63206391865594 440.2560773900009 464.4229249193328 C 440.2560773900009 462.2137859200096 442.0469383906777 460.4229249193328 444.2560773900009 460.4229249193328 C 446.46521638932404 460.4229249193328 448.2560773900009 462.2137859200096 448.2560773900009 464.4229249193328 Z" fill-opacity="1"/><path fill="none" stroke="rgb(0,0,0)" paint-order="fill stroke markers" d=" M 448.2560773900009 464.4229249193328 C 448.2560773900009 466.63206391865594 446.46521638932404 468.4229249193328 444.2560773900009 468.4229249193328 C 442.0469383906777 468.4229249193328 440.2560773900009 466.63206391865594 440.2560773900009 464.4229249193328 C 440.2560773900009 462.2137859200096 442.0469383906777 460.4229249193328 444.2560773900009 460.4229249193328 C 446.46521638932404 460.4229249193328 448.2560773900009 462.2137859200096 448.2560773900009 464.4229249193328 Z" stroke-opacity="1" stroke-linecap="round" stroke-linejoin="round" stroke-miterlimit="10"/><text fill="rgb(97,97,97)" stroke="none" font-family="geogebra-sans-serif, sans-serif" font-size="16px" font-style="normal" font-weight="normal" text-decoration="normal" x="448" y="456" text-anchor="start" dominant-baseline="alphabetic" fill-opacity="1">F</text><text fill="none" stroke="rgb(255,255,255)" font-family="geogebra-sans-serif, sans-serif" font-size="16px" font-style="normal" font-weight="normal" text-decoration="normal" x="448" y="456" text-anchor="start" dominant-baseline="alphabetic" stroke-opacity="1" stroke-linejoin="bevel" stroke-miterlimit="10" stroke-width="3">F</text><text fill="rgb(97,97,97)" stroke="none" font-family="geogebra-sans-serif, sans-serif" font-size="16px" font-style="normal" font-weight="normal" text-decoration="normal" x="448" y="456" text-anchor="start" dominant-baseline="alphabetic" fill-opacity="1">F</text><path fill="rgb(97,97,97)" stroke="none" paint-order="stroke fill markers" d=" M 491.76116118266924 384.5782819867242 C 491.76116118266924 386.7874209860474 489.9703001819924 388.5782819867242 487.76116118266924 388.5782819867242 C 485.5520221833461 388.5782819867242 483.76116118266924 386.7874209860474 483.76116118266924 384.5782819867242 C 483.76116118266924 382.36914298740106 485.5520221833461 380.5782819867242 487.76116118266924 380.5782819867242 C 489.9703001819924 380.5782819867242 491.76116118266924 382.36914298740106 491.76116118266924 384.5782819867242 Z" fill-opacity="1"/><path fill="none" stroke="rgb(0,0,0)" paint-order="fill stroke markers" d=" M 491.76116118266924 384.5782819867242 C 491.76116118266924 386.7874209860474 489.9703001819924 388.5782819867242 487.76116118266924 388.5782819867242 C 485.5520221833461 388.5782819867242 483.76116118266924 386.7874209860474 483.76116118266924 384.5782819867242 C 483.76116118266924 382.36914298740106 485.5520221833461 380.5782819867242 487.76116118266924 380.5782819867242 C 489.9703001819924 380.5782819867242 491.76116118266924 382.36914298740106 491.76116118266924 384.5782819867242 Z" stroke-opacity="1" stroke-linecap="round" stroke-linejoin="round" stroke-miterlimit="10"/><text fill="rgb(97,97,97)" stroke="none" font-family="geogebra-sans-serif, sans-serif" font-size="16px" font-style="normal" font-weight="normal" text-decoration="normal" x="492" y="377" text-anchor="start" dominant-baseline="alphabetic" fill-opacity="1">G</text><text fill="none" stroke="rgb(255,255,255)" font-family="geogebra-sans-serif, sans-serif" font-size="16px" font-style="normal" font-weight="normal" text-decoration="normal" x="492" y="377" text-anchor="start" dominant-baseline="alphabetic" stroke-opacity="1" stroke-linejoin="bevel" stroke-miterlimit="10" stroke-width="3">G</text><text fill="rgb(97,97,97)" stroke="none" font-family="geogebra-sans-serif, sans-serif" font-size="16px" font-style="normal" font-weight="normal" text-decoration="normal" x="492" y="377" text-anchor="start" dominant-baseline="alphabetic" fill-opacity="1">G</text><path fill="rgb(97,97,97)" stroke="none" paint-order="stroke fill markers" d=" M 395.10792186482564 465.73602519974577 C 395.10792186482564 467.9451641990689 393.3170608641488 469.73602519974577 391.10792186482564 469.73602519974577 C 388.8987828655025 469.73602519974577 387.10792186482564 467.9451641990689 387.10792186482564 465.73602519974577 C 387.10792186482564 463.5268862004226 388.8987828655025 461.73602519974577 391.10792186482564 461.73602519974577 C 393.3170608641488 461.73602519974577 395.10792186482564 463.5268862004226 395.10792186482564 465.73602519974577 Z" fill-opacity="1"/><path fill="none" stroke="rgb(0,0,0)" paint-order="fill stroke markers" d=" M 395.10792186482564 465.73602519974577 C 395.10792186482564 467.9451641990689 393.3170608641488 469.73602519974577 391.10792186482564 469.73602519974577 C 388.8987828655025 469.73602519974577 387.10792186482564 467.9451641990689 387.10792186482564 465.73602519974577 C 387.10792186482564 463.5268862004226 388.8987828655025 461.73602519974577 391.10792186482564 461.73602519974577 C 393.3170608641488 461.73602519974577 395.10792186482564 463.5268862004226 395.10792186482564 465.73602519974577 Z" stroke-opacity="1" stroke-linecap="round" stroke-linejoin="round" stroke-miterlimit="10"/><text fill="rgb(97,97,97)" stroke="none" font-family="geogebra-sans-serif, sans-serif" font-size="16px" font-style="normal" font-weight="normal" text-decoration="normal" x="395" y="458" text-anchor="start" dominant-baseline="alphabetic" fill-opacity="1">H</text><text fill="none" stroke="rgb(255,255,255)" font-family="geogebra-sans-serif, sans-serif" font-size="16px" font-style="normal" font-weight="normal" text-decoration="normal" x="395" y="458" text-anchor="start" dominant-baseline="alphabetic" stroke-opacity="1" stroke-linejoin="bevel" stroke-miterlimit="10" stroke-width="3">H</text><text fill="rgb(97,97,97)" stroke="none" font-family="geogebra-sans-serif, sans-serif" font-size="16px" font-style="normal" font-weight="normal" text-decoration="normal" x="395" y="458" text-anchor="start" dominant-baseline="alphabetic" fill-opacity="1">H</text></g></g></svg>