<svg version="1.1" xmlns="http://www.w3.org/2000/svg" xmlns:xlink="http://www.w3.org/1999/xlink" width="198" height="195"><defs><clipPath id="JJlJlkmaFudP"><path fill="none" stroke="none" d=" M 0 0 L 198 0 L 198 195 L 0 195 L 0 0 Z"/></clipPath></defs><g transform="scale(1,1)" clip-path="url(#JJlJlkmaFudP)"><g transform="translate(-359,-330)"><rect fill="rgb(255,255,255)" stroke="none" x="0" y="0" width="1126" height="932" fill-opacity="1"/><path fill="none" stroke="rgb(97,97,97)" paint-order="fill stroke markers" d=" M 531.6596427143556 437.17728453540553 C 531.6596427143556 480.47561094750995 496.5594139873403 515.5758396745252 453.2610875752359 515.5758396745252 C 409.9627611631315 515.5758396745252 374.86253243611617 480.47561094750995 374.86253243611617 437.17728453540553 C 374.86253243611617 393.8789581233012 409.9627611631315 358.7787293962858 453.2610875752359 358.7787293962858 C 496.5594139873403 358.7787293962858 531.6596427143556 393.8789581233012 531.6596427143556 437.17728453540553 Z" stroke-opacity="0.8" stroke-linecap="round" stroke-linejoin="round" stroke-miterlimit="10" stroke-width="2.5"/><path fill="none" stroke="rgb(97,97,97)" paint-order="fill stroke markers" d=" M 454.91448725408065 937 L 451.79837738295555 -5" stroke-opacity="0.8" stroke-linecap="round" stroke-linejoin="round" stroke-miterlimit="10" stroke-width="2.5"/><path fill="none" stroke="rgb(97,97,97)" paint-order="fill stroke markers" d=" M -5 438.6931995020146 L 1131 434.93534301199537" stroke-opacity="0.8" stroke-linecap="round" stroke-linejoin="round" stroke-miterlimit="10" stroke-width="2.5"/><path fill="none" stroke="rgb(97,97,97)" paint-order="fill stroke markers" d=" M 453.00174874835517 358.7791583379353 L 531.6592137727062 436.9179457085248" stroke-opacity="0.8" stroke-linecap="round" stroke-linejoin="round" stroke-miterlimit="10" stroke-width="2.5"/><path fill="none" stroke="rgb(97,97,97)" paint-order="fill stroke markers" d=" M 531.6592137727062 436.9179457085248 L 453.52042640211664 515.5754107328759" stroke-opacity="0.8" stroke-linecap="round" stroke-linejoin="round" stroke-miterlimit="10" stroke-width="2.5"/><path fill="none" stroke="rgb(97,97,97)" paint-order="fill stroke markers" d=" M 453.52042640211664 515.5754107328759 L 374.86296137776566 437.4366233622863" stroke-opacity="0.8" stroke-linecap="round" stroke-linejoin="round" stroke-miterlimit="10" stroke-width="2.5"/><path fill="none" stroke="rgb(97,97,97)" paint-order="fill stroke markers" d=" M 374.86296137776566 437.4366233622863 L 453.00174874835517 358.7791583379353" stroke-opacity="0.8" stroke-linecap="round" stroke-linejoin="round" stroke-miterlimit="10" stroke-width="2.5"/><path fill="rgb(21,101,192)" stroke="none" paint-order="stroke fill markers" d=" M 458.2610875752359 437.1772845354056 C 458.2610875752359 439.93870828455954 456.0225113243898 442.1772845354056 453.2610875752359 442.1772845354056 C 450.4996638260819 442.1772845354056 448.2610875752359 439.93870828455954 448.2610875752359 437.1772845354056 C 448.2610875752359 434.41586078625164 450.4996638260819 432.1772845354056 453.2610875752359 432.1772845354056 C 456.0225113243898 432.1772845354056 458.2610875752359 434.41586078625164 458.2610875752359 437.1772845354056 Z" fill-opacity="1"/><path fill="none" stroke="rgb(0,0,0)" paint-order="fill stroke markers" d=" M 458.2610875752359 437.1772845354056 C 458.2610875752359 439.93870828455954 456.0225113243898 442.1772845354056 453.2610875752359 442.1772845354056 C 450.4996638260819 442.1772845354056 448.2610875752359 439.93870828455954 448.2610875752359 437.1772845354056 C 448.2610875752359 434.41586078625164 450.4996638260819 432.1772845354056 453.2610875752359 432.1772845354056 C 456.0225113243898 432.1772845354056 458.2610875752359 434.41586078625164 458.2610875752359 437.1772845354056 Z" stroke-opacity="1" stroke-linecap="round" stroke-linejoin="round" stroke-miterlimit="10"/><text fill="rgb(21,101,192)" stroke="none" font-family="geogebra-sans-serif, sans-serif" font-size="16px" font-style="normal" font-weight="normal" text-decoration="normal" x="457" y="427" text-anchor="start" dominant-baseline="alphabetic" fill-opacity="1">A</text><text fill="none" stroke="rgb(255,255,255)" font-family="geogebra-sans-serif, sans-serif" font-size="16px" font-style="normal" font-weight="normal" text-decoration="normal" x="457" y="427" text-anchor="start" dominant-baseline="alphabetic" stroke-opacity="1" stroke-linejoin="bevel" stroke-miterlimit="10" stroke-width="3">A</text><text fill="rgb(21,101,192)" stroke="none" font-family="geogebra-sans-serif, sans-serif" font-size="16px" font-style="normal" font-weight="normal" text-decoration="normal" x="457" y="427" text-anchor="start" dominant-baseline="alphabetic" fill-opacity="1">A</text><path fill="rgb(21,101,192)" stroke="none" paint-order="stroke fill markers" d=" M 458.00174874835517 358.7791583379353 C 458.00174874835517 361.54058208708926 455.7631724975091 363.7791583379353 453.00174874835517 363.7791583379353 C 450.2403249992012 363.7791583379353 448.00174874835517 361.54058208708926 448.00174874835517 358.7791583379353 C 448.00174874835517 356.01773458878137 450.2403249992012 353.7791583379353 453.00174874835517 353.7791583379353 C 455.7631724975091 353.7791583379353 458.00174874835517 356.01773458878137 458.00174874835517 358.7791583379353 Z" fill-opacity="1"/><path fill="none" stroke="rgb(0,0,0)" paint-order="fill stroke markers" d=" M 458.00174874835517 358.7791583379353 C 458.00174874835517 361.54058208708926 455.7631724975091 363.7791583379353 453.00174874835517 363.7791583379353 C 450.2403249992012 363.7791583379353 448.00174874835517 361.54058208708926 448.00174874835517 358.7791583379353 C 448.00174874835517 356.01773458878137 450.2403249992012 353.7791583379353 453.00174874835517 353.7791583379353 C 455.7631724975091 353.7791583379353 458.00174874835517 356.01773458878137 458.00174874835517 358.7791583379353 Z" stroke-opacity="1" stroke-linecap="round" stroke-linejoin="round" stroke-miterlimit="10"/><text fill="rgb(21,101,192)" stroke="none" font-family="geogebra-sans-serif, sans-serif" font-size="16px" font-style="normal" font-weight="normal" text-decoration="normal" x="457" y="349" text-anchor="start" dominant-baseline="alphabetic" fill-opacity="1">B</text><text fill="none" stroke="rgb(255,255,255)" font-family="geogebra-sans-serif, sans-serif" font-size="16px" font-style="normal" font-weight="normal" text-decoration="normal" x="457" y="349" text-anchor="start" dominant-baseline="alphabetic" stroke-opacity="1" stroke-linejoin="bevel" stroke-miterlimit="10" stroke-width="3">B</text><text fill="rgb(21,101,192)" stroke="none" font-family="geogebra-sans-serif, sans-serif" font-size="16px" font-style="normal" font-weight="normal" text-decoration="normal" x="457" y="349" text-anchor="start" dominant-baseline="alphabetic" fill-opacity="1">B</text><path fill="rgb(97,97,97)" stroke="none" paint-order="stroke fill markers" d=" M 457.52042640211664 515.5754107328759 C 457.52042640211664 517.784549732199 455.7295654014398 519.5754107328759 453.52042640211664 519.5754107328759 C 451.3112874027935 519.5754107328759 449.52042640211664 517.784549732199 449.52042640211664 515.5754107328759 C 449.52042640211664 513.3662717335527 451.3112874027935 511.57541073287587 453.52042640211664 511.57541073287587 C 455.7295654014398 511.57541073287587 457.52042640211664 513.3662717335527 457.52042640211664 515.5754107328759 Z" fill-opacity="1"/><path fill="none" stroke="rgb(0,0,0)" paint-order="fill stroke markers" d=" M 457.52042640211664 515.5754107328759 C 457.52042640211664 517.784549732199 455.7295654014398 519.5754107328759 453.52042640211664 519.5754107328759 C 451.3112874027935 519.5754107328759 449.52042640211664 517.784549732199 449.52042640211664 515.5754107328759 C 449.52042640211664 513.3662717335527 451.3112874027935 511.57541073287587 453.52042640211664 511.57541073287587 C 455.7295654014398 511.57541073287587 457.52042640211664 513.3662717335527 457.52042640211664 515.5754107328759 Z" stroke-opacity="1" stroke-linecap="round" stroke-linejoin="round" stroke-miterlimit="10"/><text fill="rgb(97,97,97)" stroke="none" font-family="geogebra-sans-serif, sans-serif" font-size="16px" font-style="normal" font-weight="normal" text-decoration="normal" x="458" y="508" text-anchor="start" dominant-baseline="alphabetic" fill-opacity="1">C</text><text fill="none" stroke="rgb(255,255,255)" font-family="geogebra-sans-serif, sans-serif" font-size="16px" font-style="normal" font-weight="normal" text-decoration="normal" x="458" y="508" text-anchor="start" dominant-baseline="alphabetic" stroke-opacity="1" stroke-linejoin="bevel" stroke-miterlimit="10" stroke-width="3">C</text><text fill="rgb(97,97,97)" stroke="none" font-family="geogebra-sans-serif, sans-serif" font-size="16px" font-style="normal" font-weight="normal" text-decoration="normal" x="458" y="508" text-anchor="start" dominant-baseline="alphabetic" fill-opacity="1">C</text><path fill="rgb(97,97,97)" stroke="none" paint-order="stroke fill markers" d=" M 535.6592137727062 436.9179457085248 C 535.6592137727062 439.127084707848 533.8683527720293 440.9179457085248 531.6592137727062 440.9179457085248 C 529.450074773383 440.9179457085248 527.6592137727062 439.127084707848 527.6592137727062 436.9179457085248 C 527.6592137727062 434.70880670920167 529.450074773383 432.9179457085248 531.6592137727062 432.9179457085248 C 533.8683527720293 432.9179457085248 535.6592137727062 434.70880670920167 535.6592137727062 436.9179457085248 Z" fill-opacity="1"/><path fill="none" stroke="rgb(0,0,0)" paint-order="fill stroke markers" d=" M 535.6592137727062 436.9179457085248 C 535.6592137727062 439.127084707848 533.8683527720293 440.9179457085248 531.6592137727062 440.9179457085248 C 529.450074773383 440.9179457085248 527.6592137727062 439.127084707848 527.6592137727062 436.9179457085248 C 527.6592137727062 434.70880670920167 529.450074773383 432.9179457085248 531.6592137727062 432.9179457085248 C 533.8683527720293 432.9179457085248 535.6592137727062 434.70880670920167 535.6592137727062 436.9179457085248 Z" stroke-opacity="1" stroke-linecap="round" stroke-linejoin="round" stroke-miterlimit="10"/><text fill="rgb(97,97,97)" stroke="none" font-family="geogebra-sans-serif, sans-serif" font-size="16px" font-style="normal" font-weight="normal" text-decoration="normal" x="536" y="429" text-anchor="start" dominant-baseline="alphabetic" fill-opacity="1">D</text><text fill="none" stroke="rgb(255,255,255)" font-family="geogebra-sans-serif, sans-serif" font-size="16px" font-style="normal" font-weight="normal" text-decoration="normal" x="536" y="429" text-anchor="start" dominant-baseline="alphabetic" stroke-opacity="1" stroke-linejoin="bevel" stroke-miterlimit="10" stroke-width="3">D</text><text fill="rgb(97,97,97)" stroke="none" font-family="geogebra-sans-serif, sans-serif" font-size="16px" font-style="normal" font-weight="normal" text-decoration="normal" x="536" y="429" text-anchor="start" dominant-baseline="alphabetic" fill-opacity="1">D</text><path fill="rgb(97,97,97)" stroke="none" paint-order="stroke fill markers" d=" M 378.86296137776566 437.4366233622863 C 378.86296137776566 439.64576236160946 377.0721003770888 441.4366233622863 374.86296137776566 441.4366233622863 C 372.6538223784425 441.4366233622863 370.86296137776566 439.64576236160946 370.86296137776566 437.4366233622863 C 370.86296137776566 435.22748436296314 372.6538223784425 433.4366233622863 374.86296137776566 433.4366233622863 C 377.0721003770888 433.4366233622863 378.86296137776566 435.22748436296314 378.86296137776566 437.4366233622863 Z" fill-opacity="1"/><path fill="none" stroke="rgb(0,0,0)" paint-order="fill stroke markers" d=" M 378.86296137776566 437.4366233622863 C 378.86296137776566 439.64576236160946 377.0721003770888 441.4366233622863 374.86296137776566 441.4366233622863 C 372.6538223784425 441.4366233622863 370.86296137776566 439.64576236160946 370.86296137776566 437.4366233622863 C 370.86296137776566 435.22748436296314 372.6538223784425 433.4366233622863 374.86296137776566 433.4366233622863 C 377.0721003770888 433.4366233622863 378.86296137776566 435.22748436296314 378.86296137776566 437.4366233622863 Z" stroke-opacity="1" stroke-linecap="round" stroke-linejoin="round" stroke-miterlimit="10"/><text fill="rgb(97,97,97)" stroke="none" font-family="geogebra-sans-serif, sans-serif" font-size="16px" font-style="normal" font-weight="normal" text-decoration="normal" x="379" y="429" text-anchor="start" dominant-baseline="alphabetic" fill-opacity="1">E</text><text fill="none" stroke="rgb(255,255,255)" font-family="geogebra-sans-serif, sans-serif" font-size="16px" font-style="normal" font-weight="normal" text-decoration="normal" x="379" y="429" text-anchor="start" dominant-baseline="alphabetic" stroke-opacity="1" stroke-linejoin="bevel" stroke-miterlimit="10" stroke-width="3">E</text><text fill="rgb(97,97,97)" stroke="none" font-family="geogebra-sans-serif, sans-serif" font-size="16px" font-style="normal" font-weight="normal" text-decoration="normal" x="379" y="429" text-anchor="start" dominant-baseline="alphabetic" fill-opacity="1">E</text></g></g></svg>