<svg version="1.1" xmlns="http://www.w3.org/2000/svg" xmlns:xlink="http://www.w3.org/1999/xlink" width="240" height="216"><defs><clipPath id="qaJwuOyzwwAD"><path fill="none" stroke="none" d=" M 0 0 L 240 0 L 240 216 L 0 216 L 0 0 Z"/></clipPath></defs><g transform="scale(1,1)" clip-path="url(#qaJwuOyzwwAD)"><g transform="translate(-344,-268)"><rect fill="rgb(255,255,255)" stroke="none" x="0" y="0" width="1126" height="932" fill-opacity="1"/><path fill="none" stroke="rgb(97,97,97)" paint-order="fill stroke markers" d=" M 563.0334728251514 405.82097915699734 C 563.0334728251514 437.6422789833949 537.2372124416268 463.4385393669195 505.41591261522916 463.4385393669195 C 473.5946127888316 463.4385393669195 447.79835240530696 437.6422789833949 447.79835240530696 405.82097915699734 C 447.79835240530696 373.9996793305998 473.5946127888316 348.2034189470752 505.41591261522916 348.2034189470752 C 537.2372124416268 348.2034189470752 563.0334728251514 373.9996793305998 563.0334728251514 405.82097915699734 Z" stroke-opacity="0.8" stroke-linecap="round" stroke-linejoin="round" stroke-miterlimit="10" stroke-width="2.5"/><path fill="none" stroke="rgb(97,97,97)" paint-order="fill stroke markers" d=" M 563.100636484672 348.2034580927686 C 563.100636484672 380.0247579191661 537.3043761011473 405.82101830269073 505.4830762747498 405.82101830269073 C 473.66177644835227 405.82101830269073 447.8655160648276 380.0247579191661 447.8655160648276 348.2034580927686 C 447.8655160648276 316.38215826637105 473.66177644835227 290.58589788284644 505.4830762747498 290.58589788284644 C 537.3043761011473 290.58589788284644 563.100636484672 316.38215826637105 563.100636484672 348.2034580927686 Z" stroke-opacity="0.8" stroke-linecap="round" stroke-linejoin="round" stroke-miterlimit="10" stroke-width="2.5"/><path fill="none" stroke="rgb(97,97,97)" paint-order="fill stroke markers" d=" M 555.3477991920265 376.9540531895269 C 555.3477991920265 432.0701612517301 510.66736556248566 476.75059488127096 455.55125750028236 476.75059488127096 C 400.4351494380791 476.75059488127096 355.7547158085382 432.0701612517301 355.7547158085382 376.9540531895269 C 355.7547158085382 321.8379451273237 400.4351494380791 277.1575114977828 455.55125750028236 277.1575114977828 C 510.66736556248566 277.1575114977828 555.3477991920265 321.8379451273237 555.3477991920265 376.9540531895269 Z" stroke-opacity="0.8" stroke-linecap="round" stroke-linejoin="round" stroke-miterlimit="10" stroke-width="2.5"/><path fill="none" stroke="rgb(97,97,97)" paint-order="fill stroke markers" d=" M -5 110.33837072186654 L 1131 767.9750840101295" stroke-opacity="0.8" stroke-linecap="round" stroke-linejoin="round" stroke-miterlimit="10" stroke-width="2.5"/><path fill="none" stroke="rgb(97,97,97)" paint-order="fill stroke markers" d=" M 505.34874895570846 463.4385002212261 L 369.18314133929516 326.9550707555388" stroke-opacity="0.8" stroke-linecap="round" stroke-linejoin="round" stroke-miterlimit="10" stroke-width="2.5"/><path fill="none" stroke="rgb(97,97,97)" paint-order="fill stroke markers" d=" M 505.34874895570846 463.4385002212261 L 1126 -155.76747260040128" stroke-opacity="0.8" stroke-linecap="round" stroke-linejoin="round" stroke-miterlimit="10" stroke-width="2.5"/><path fill="none" stroke="rgb(97,97,97)" paint-order="fill stroke markers" d=" M 505.4830762747498 348.2034580927686 L 563.033433679458 405.888142816518" stroke-opacity="0.8" stroke-linecap="round" stroke-linejoin="round" stroke-miterlimit="10" stroke-width="2.5"/><path fill="none" stroke="rgb(97,97,97)" paint-order="fill stroke markers" d=" M 505.4830762747498 348.2034580927686 L 447.79839155100035 405.7538154974767" stroke-opacity="0.8" stroke-linecap="round" stroke-linejoin="round" stroke-miterlimit="10" stroke-width="2.5"/><path fill="rgb(21,101,192)" stroke="none" paint-order="stroke fill markers" d=" M 510.41591261522916 405.82097915699734 C 510.41591261522916 408.5824029061513 508.1773363643831 410.82097915699734 505.41591261522916 410.82097915699734 C 502.6544888660752 410.82097915699734 500.41591261522916 408.5824029061513 500.41591261522916 405.82097915699734 C 500.41591261522916 403.0595554078434 502.6544888660752 400.82097915699734 505.41591261522916 400.82097915699734 C 508.1773363643831 400.82097915699734 510.41591261522916 403.0595554078434 510.41591261522916 405.82097915699734 Z" fill-opacity="1"/><path fill="none" stroke="rgb(0,0,0)" paint-order="fill stroke markers" d=" M 510.41591261522916 405.82097915699734 C 510.41591261522916 408.5824029061513 508.1773363643831 410.82097915699734 505.41591261522916 410.82097915699734 C 502.6544888660752 410.82097915699734 500.41591261522916 408.5824029061513 500.41591261522916 405.82097915699734 C 500.41591261522916 403.0595554078434 502.6544888660752 400.82097915699734 505.41591261522916 400.82097915699734 C 508.1773363643831 400.82097915699734 510.41591261522916 403.0595554078434 510.41591261522916 405.82097915699734 Z" stroke-opacity="1" stroke-linecap="round" stroke-linejoin="round" stroke-miterlimit="10"/><text fill="rgb(21,101,192)" stroke="none" font-family="geogebra-sans-serif, sans-serif" font-size="16px" font-style="normal" font-weight="normal" text-decoration="normal" x="509" y="396" text-anchor="start" dominant-baseline="alphabetic" fill-opacity="1">A</text><text fill="none" stroke="rgb(255,255,255)" font-family="geogebra-sans-serif, sans-serif" font-size="16px" font-style="normal" font-weight="normal" text-decoration="normal" x="509" y="396" text-anchor="start" dominant-baseline="alphabetic" stroke-opacity="1" stroke-linejoin="bevel" stroke-miterlimit="10" stroke-width="3">A</text><text fill="rgb(21,101,192)" stroke="none" font-family="geogebra-sans-serif, sans-serif" font-size="16px" font-style="normal" font-weight="normal" text-decoration="normal" x="509" y="396" text-anchor="start" dominant-baseline="alphabetic" fill-opacity="1">A</text><path fill="rgb(21,101,192)" stroke="none" paint-order="stroke fill markers" d=" M 510.4830762747498 348.2034580927686 C 510.4830762747498 350.96488184192253 508.24450002390375 353.2034580927686 505.4830762747498 353.2034580927686 C 502.72165252559586 353.2034580927686 500.4830762747498 350.96488184192253 500.4830762747498 348.2034580927686 C 500.4830762747498 345.44203434361464 502.72165252559586 343.2034580927686 505.4830762747498 343.2034580927686 C 508.24450002390375 343.2034580927686 510.4830762747498 345.44203434361464 510.4830762747498 348.2034580927686 Z" fill-opacity="1"/><path fill="none" stroke="rgb(0,0,0)" paint-order="fill stroke markers" d=" M 510.4830762747498 348.2034580927686 C 510.4830762747498 350.96488184192253 508.24450002390375 353.2034580927686 505.4830762747498 353.2034580927686 C 502.72165252559586 353.2034580927686 500.4830762747498 350.96488184192253 500.4830762747498 348.2034580927686 C 500.4830762747498 345.44203434361464 502.72165252559586 343.2034580927686 505.4830762747498 343.2034580927686 C 508.24450002390375 343.2034580927686 510.4830762747498 345.44203434361464 510.4830762747498 348.2034580927686 Z" stroke-opacity="1" stroke-linecap="round" stroke-linejoin="round" stroke-miterlimit="10"/><text fill="rgb(21,101,192)" stroke="none" font-family="geogebra-sans-serif, sans-serif" font-size="16px" font-style="normal" font-weight="normal" text-decoration="normal" x="509" y="338" text-anchor="start" dominant-baseline="alphabetic" fill-opacity="1">B</text><text fill="none" stroke="rgb(255,255,255)" font-family="geogebra-sans-serif, sans-serif" font-size="16px" font-style="normal" font-weight="normal" text-decoration="normal" x="509" y="338" text-anchor="start" dominant-baseline="alphabetic" stroke-opacity="1" stroke-linejoin="bevel" stroke-miterlimit="10" stroke-width="3">B</text><text fill="rgb(21,101,192)" stroke="none" font-family="geogebra-sans-serif, sans-serif" font-size="16px" font-style="normal" font-weight="normal" text-decoration="normal" x="509" y="338" text-anchor="start" dominant-baseline="alphabetic" fill-opacity="1">B</text><path fill="rgb(97,97,97)" stroke="none" paint-order="stroke fill markers" d=" M 459.55125750028236 376.9540531895269 C 459.55125750028236 379.1631921888501 457.7603964996055 380.9540531895269 455.55125750028236 380.9540531895269 C 453.3421185009592 380.9540531895269 451.55125750028236 379.1631921888501 451.55125750028236 376.9540531895269 C 451.55125750028236 374.74491419020376 453.3421185009592 372.9540531895269 455.55125750028236 372.9540531895269 C 457.7603964996055 372.9540531895269 459.55125750028236 374.74491419020376 459.55125750028236 376.9540531895269 Z" fill-opacity="1"/><path fill="none" stroke="rgb(0,0,0)" paint-order="fill stroke markers" d=" M 459.55125750028236 376.9540531895269 C 459.55125750028236 379.1631921888501 457.7603964996055 380.9540531895269 455.55125750028236 380.9540531895269 C 453.3421185009592 380.9540531895269 451.55125750028236 379.1631921888501 451.55125750028236 376.9540531895269 C 451.55125750028236 374.74491419020376 453.3421185009592 372.9540531895269 455.55125750028236 372.9540531895269 C 457.7603964996055 372.9540531895269 459.55125750028236 374.74491419020376 459.55125750028236 376.9540531895269 Z" stroke-opacity="1" stroke-linecap="round" stroke-linejoin="round" stroke-miterlimit="10"/><text fill="rgb(97,97,97)" stroke="none" font-family="geogebra-sans-serif, sans-serif" font-size="16px" font-style="normal" font-weight="normal" text-decoration="normal" x="460" y="369" text-anchor="start" dominant-baseline="alphabetic" fill-opacity="1">C</text><text fill="none" stroke="rgb(255,255,255)" font-family="geogebra-sans-serif, sans-serif" font-size="16px" font-style="normal" font-weight="normal" text-decoration="normal" x="460" y="369" text-anchor="start" dominant-baseline="alphabetic" stroke-opacity="1" stroke-linejoin="bevel" stroke-miterlimit="10" stroke-width="3">C</text><text fill="rgb(97,97,97)" stroke="none" font-family="geogebra-sans-serif, sans-serif" font-size="16px" font-style="normal" font-weight="normal" text-decoration="normal" x="460" y="369" text-anchor="start" dominant-baseline="alphabetic" fill-opacity="1">C</text><path fill="rgb(97,97,97)" stroke="none" paint-order="stroke fill markers" d=" M 559.3477313896966 377.07038406023895 C 559.3477313896966 379.2795230595621 557.5568703890198 381.07038406023895 555.3477313896966 381.07038406023895 C 553.1385923903734 381.07038406023895 551.3477313896966 379.2795230595621 551.3477313896966 377.07038406023895 C 551.3477313896966 374.8612450609158 553.1385923903734 373.07038406023895 555.3477313896966 373.07038406023895 C 557.5568703890198 373.07038406023895 559.3477313896966 374.8612450609158 559.3477313896966 377.07038406023895 Z" fill-opacity="1"/><path fill="none" stroke="rgb(0,0,0)" paint-order="fill stroke markers" d=" M 559.3477313896966 377.07038406023895 C 559.3477313896966 379.2795230595621 557.5568703890198 381.07038406023895 555.3477313896966 381.07038406023895 C 553.1385923903734 381.07038406023895 551.3477313896966 379.2795230595621 551.3477313896966 377.07038406023895 C 551.3477313896966 374.8612450609158 553.1385923903734 373.07038406023895 555.3477313896966 373.07038406023895 C 557.5568703890198 373.07038406023895 559.3477313896966 374.8612450609158 559.3477313896966 377.07038406023895 Z" stroke-opacity="1" stroke-linecap="round" stroke-linejoin="round" stroke-miterlimit="10"/><text fill="rgb(97,97,97)" stroke="none" font-family="geogebra-sans-serif, sans-serif" font-size="16px" font-style="normal" font-weight="normal" text-decoration="normal" x="559" y="369" text-anchor="start" dominant-baseline="alphabetic" fill-opacity="1">D</text><text fill="none" stroke="rgb(255,255,255)" font-family="geogebra-sans-serif, sans-serif" font-size="16px" font-style="normal" font-weight="normal" text-decoration="normal" x="559" y="369" text-anchor="start" dominant-baseline="alphabetic" stroke-opacity="1" stroke-linejoin="bevel" stroke-miterlimit="10" stroke-width="3">D</text><text fill="rgb(97,97,97)" stroke="none" font-family="geogebra-sans-serif, sans-serif" font-size="16px" font-style="normal" font-weight="normal" text-decoration="normal" x="559" y="369" text-anchor="start" dominant-baseline="alphabetic" fill-opacity="1">D</text><path fill="rgb(97,97,97)" stroke="none" paint-order="stroke fill markers" d=" M 509.34874895570846 463.4385002212261 C 509.34874895570846 465.64763922054925 507.5578879550316 467.4385002212261 505.34874895570846 467.4385002212261 C 503.1396099563853 467.4385002212261 501.34874895570846 465.64763922054925 501.34874895570846 463.4385002212261 C 501.34874895570846 461.22936122190293 503.1396099563853 459.4385002212261 505.34874895570846 459.4385002212261 C 507.5578879550316 459.4385002212261 509.34874895570846 461.22936122190293 509.34874895570846 463.4385002212261 Z" fill-opacity="1"/><path fill="none" stroke="rgb(0,0,0)" paint-order="fill stroke markers" d=" M 509.34874895570846 463.4385002212261 C 509.34874895570846 465.64763922054925 507.5578879550316 467.4385002212261 505.34874895570846 467.4385002212261 C 503.1396099563853 467.4385002212261 501.34874895570846 465.64763922054925 501.34874895570846 463.4385002212261 C 501.34874895570846 461.22936122190293 503.1396099563853 459.4385002212261 505.34874895570846 459.4385002212261 C 507.5578879550316 459.4385002212261 509.34874895570846 461.22936122190293 509.34874895570846 463.4385002212261 Z" stroke-opacity="1" stroke-linecap="round" stroke-linejoin="round" stroke-miterlimit="10"/><text fill="rgb(97,97,97)" stroke="none" font-family="geogebra-sans-serif, sans-serif" font-size="16px" font-style="normal" font-weight="normal" text-decoration="normal" x="509" y="455" text-anchor="start" dominant-baseline="alphabetic" fill-opacity="1">E</text><text fill="none" stroke="rgb(255,255,255)" font-family="geogebra-sans-serif, sans-serif" font-size="16px" font-style="normal" font-weight="normal" text-decoration="normal" x="509" y="455" text-anchor="start" dominant-baseline="alphabetic" stroke-opacity="1" stroke-linejoin="bevel" stroke-miterlimit="10" stroke-width="3">E</text><text fill="rgb(97,97,97)" stroke="none" font-family="geogebra-sans-serif, sans-serif" font-size="16px" font-style="normal" font-weight="normal" text-decoration="normal" x="509" y="455" text-anchor="start" dominant-baseline="alphabetic" fill-opacity="1">E</text><path fill="rgb(97,97,97)" stroke="none" paint-order="stroke fill markers" d=" M 373.18314133929516 326.9550707555388 C 373.18314133929516 329.164209754862 371.3922803386183 330.9550707555388 369.18314133929516 330.9550707555388 C 366.974002339972 330.9550707555388 365.18314133929516 329.164209754862 365.18314133929516 326.9550707555388 C 365.18314133929516 324.74593175621567 366.974002339972 322.9550707555388 369.18314133929516 322.9550707555388 C 371.3922803386183 322.9550707555388 373.18314133929516 324.74593175621567 373.18314133929516 326.9550707555388 Z" fill-opacity="1"/><path fill="none" stroke="rgb(0,0,0)" paint-order="fill stroke markers" d=" M 373.18314133929516 326.9550707555388 C 373.18314133929516 329.164209754862 371.3922803386183 330.9550707555388 369.18314133929516 330.9550707555388 C 366.974002339972 330.9550707555388 365.18314133929516 329.164209754862 365.18314133929516 326.9550707555388 C 365.18314133929516 324.74593175621567 366.974002339972 322.9550707555388 369.18314133929516 322.9550707555388 C 371.3922803386183 322.9550707555388 373.18314133929516 324.74593175621567 373.18314133929516 326.9550707555388 Z" stroke-opacity="1" stroke-linecap="round" stroke-linejoin="round" stroke-miterlimit="10"/><text fill="rgb(97,97,97)" stroke="none" font-family="geogebra-sans-serif, sans-serif" font-size="16px" font-style="normal" font-weight="normal" text-decoration="normal" x="373" y="319" text-anchor="start" dominant-baseline="alphabetic" fill-opacity="1">F</text><text fill="none" stroke="rgb(255,255,255)" font-family="geogebra-sans-serif, sans-serif" font-size="16px" font-style="normal" font-weight="normal" text-decoration="normal" x="373" y="319" text-anchor="start" dominant-baseline="alphabetic" stroke-opacity="1" stroke-linejoin="bevel" stroke-miterlimit="10" stroke-width="3">F</text><text fill="rgb(97,97,97)" stroke="none" font-family="geogebra-sans-serif, sans-serif" font-size="16px" font-style="normal" font-weight="normal" text-decoration="normal" x="373" y="319" text-anchor="start" dominant-baseline="alphabetic" fill-opacity="1">F</text><path fill="rgb(97,97,97)" stroke="none" paint-order="stroke fill markers" d=" M 545.9193736612694 426.953035623515 C 545.9193736612694 429.16217462283817 544.1285126605926 430.953035623515 541.9193736612694 430.953035623515 C 539.7102346619463 430.953035623515 537.9193736612694 429.16217462283817 537.9193736612694 426.953035623515 C 537.9193736612694 424.74389662419185 539.7102346619463 422.953035623515 541.9193736612694 422.953035623515 C 544.1285126605926 422.953035623515 545.9193736612694 424.74389662419185 545.9193736612694 426.953035623515 Z" fill-opacity="1"/><path fill="none" stroke="rgb(0,0,0)" paint-order="fill stroke markers" d=" M 545.9193736612694 426.953035623515 C 545.9193736612694 429.16217462283817 544.1285126605926 430.953035623515 541.9193736612694 430.953035623515 C 539.7102346619463 430.953035623515 537.9193736612694 429.16217462283817 537.9193736612694 426.953035623515 C 537.9193736612694 424.74389662419185 539.7102346619463 422.953035623515 541.9193736612694 422.953035623515 C 544.1285126605926 422.953035623515 545.9193736612694 424.74389662419185 545.9193736612694 426.953035623515 Z" stroke-opacity="1" stroke-linecap="round" stroke-linejoin="round" stroke-miterlimit="10"/><text fill="rgb(97,97,97)" stroke="none" font-family="geogebra-sans-serif, sans-serif" font-size="16px" font-style="normal" font-weight="normal" text-decoration="normal" x="546" y="419" text-anchor="start" dominant-baseline="alphabetic" fill-opacity="1">G</text><text fill="none" stroke="rgb(255,255,255)" font-family="geogebra-sans-serif, sans-serif" font-size="16px" font-style="normal" font-weight="normal" text-decoration="normal" x="546" y="419" text-anchor="start" dominant-baseline="alphabetic" stroke-opacity="1" stroke-linejoin="bevel" stroke-miterlimit="10" stroke-width="3">G</text><text fill="rgb(97,97,97)" stroke="none" font-family="geogebra-sans-serif, sans-serif" font-size="16px" font-style="normal" font-weight="normal" text-decoration="normal" x="546" y="419" text-anchor="start" dominant-baseline="alphabetic" fill-opacity="1">G</text><path fill="rgb(97,97,97)" stroke="none" paint-order="stroke fill markers" d=" M 567.033433679458 405.888142816518 C 567.033433679458 408.09728181584114 565.2425726787811 409.888142816518 563.033433679458 409.888142816518 C 560.8242946801348 409.888142816518 559.033433679458 408.09728181584114 559.033433679458 405.888142816518 C 559.033433679458 403.6790038171948 560.8242946801348 401.888142816518 563.033433679458 401.888142816518 C 565.2425726787811 401.888142816518 567.033433679458 403.6790038171948 567.033433679458 405.888142816518 Z" fill-opacity="1"/><path fill="none" stroke="rgb(0,0,0)" paint-order="fill stroke markers" d=" M 567.033433679458 405.888142816518 C 567.033433679458 408.09728181584114 565.2425726787811 409.888142816518 563.033433679458 409.888142816518 C 560.8242946801348 409.888142816518 559.033433679458 408.09728181584114 559.033433679458 405.888142816518 C 559.033433679458 403.6790038171948 560.8242946801348 401.888142816518 563.033433679458 401.888142816518 C 565.2425726787811 401.888142816518 567.033433679458 403.6790038171948 567.033433679458 405.888142816518 Z" stroke-opacity="1" stroke-linecap="round" stroke-linejoin="round" stroke-miterlimit="10"/><text fill="rgb(97,97,97)" stroke="none" font-family="geogebra-sans-serif, sans-serif" font-size="16px" font-style="normal" font-weight="normal" text-decoration="normal" x="567" y="398" text-anchor="start" dominant-baseline="alphabetic" fill-opacity="1">H</text><text fill="none" stroke="rgb(255,255,255)" font-family="geogebra-sans-serif, sans-serif" font-size="16px" font-style="normal" font-weight="normal" text-decoration="normal" x="567" y="398" text-anchor="start" dominant-baseline="alphabetic" stroke-opacity="1" stroke-linejoin="bevel" stroke-miterlimit="10" stroke-width="3">H</text><text fill="rgb(97,97,97)" stroke="none" font-family="geogebra-sans-serif, sans-serif" font-size="16px" font-style="normal" font-weight="normal" text-decoration="normal" x="567" y="398" text-anchor="start" dominant-baseline="alphabetic" fill-opacity="1">H</text><path fill="rgb(97,97,97)" stroke="none" paint-order="stroke fill markers" d=" M 451.79839155100035 405.7538154974767 C 451.79839155100035 407.96295449679985 450.0075305503235 409.7538154974767 447.79839155100035 409.7538154974767 C 445.5892525516772 409.7538154974767 443.79839155100035 407.96295449679985 443.79839155100035 405.7538154974767 C 443.79839155100035 403.54467649815354 445.5892525516772 401.7538154974767 447.79839155100035 401.7538154974767 C 450.0075305503235 401.7538154974767 451.79839155100035 403.54467649815354 451.79839155100035 405.7538154974767 Z" fill-opacity="1"/><path fill="none" stroke="rgb(0,0,0)" paint-order="fill stroke markers" d=" M 451.79839155100035 405.7538154974767 C 451.79839155100035 407.96295449679985 450.0075305503235 409.7538154974767 447.79839155100035 409.7538154974767 C 445.5892525516772 409.7538154974767 443.79839155100035 407.96295449679985 443.79839155100035 405.7538154974767 C 443.79839155100035 403.54467649815354 445.5892525516772 401.7538154974767 447.79839155100035 401.7538154974767 C 450.0075305503235 401.7538154974767 451.79839155100035 403.54467649815354 451.79839155100035 405.7538154974767 Z" stroke-opacity="1" stroke-linecap="round" stroke-linejoin="round" stroke-miterlimit="10"/><text fill="rgb(97,97,97)" stroke="none" font-family="geogebra-sans-serif, sans-serif" font-size="16px" font-style="normal" font-weight="normal" text-decoration="normal" x="452" y="398" text-anchor="start" dominant-baseline="alphabetic" fill-opacity="1">I</text><text fill="none" stroke="rgb(255,255,255)" font-family="geogebra-sans-serif, sans-serif" font-size="16px" font-style="normal" font-weight="normal" text-decoration="normal" x="452" y="398" text-anchor="start" dominant-baseline="alphabetic" stroke-opacity="1" stroke-linejoin="bevel" stroke-miterlimit="10" stroke-width="3">I</text><text fill="rgb(97,97,97)" stroke="none" font-family="geogebra-sans-serif, sans-serif" font-size="16px" font-style="normal" font-weight="normal" text-decoration="normal" x="452" y="398" text-anchor="start" dominant-baseline="alphabetic" fill-opacity="1">I</text></g></g></svg>