<svg version="1.1" xmlns="http://www.w3.org/2000/svg" xmlns:xlink="http://www.w3.org/1999/xlink" width="117" height="119"><defs><clipPath id="wbpvtwKKTlvr"><path fill="none" stroke="none" d=" M 0 0 L 117 0 L 117 119 L 0 119 L 0 0 Z"/></clipPath></defs><g transform="scale(1,1)" clip-path="url(#wbpvtwKKTlvr)"><g transform="translate(-473,-442)"><rect fill="rgb(255,255,255)" stroke="none" x="0" y="0" width="1126" height="932" fill-opacity="1"/><path fill="none" stroke="rgb(97,97,97)" paint-order="fill stroke markers" d=" M 574.4726340767443 507.4313996295932 C 574.4726340767443 533.628048754513 553.2360539970811 554.8646288341763 527.0394048721613 554.8646288341763 C 500.84275574724154 554.8646288341763 479.6061756675784 533.628048754513 479.6061756675784 507.4313996295932 C 479.6061756675784 481.2347505046734 500.84275574724154 459.9981704250102 527.0394048721613 459.9981704250102 C 553.2360539970811 459.9981704250102 574.4726340767443 481.2347505046734 574.4726340767443 507.4313996295932 Z" stroke-opacity="0.8" stroke-linecap="round" stroke-linejoin="round" stroke-miterlimit="10" stroke-width="2.5"/><path fill="none" stroke="rgb(97,97,97)" paint-order="fill stroke markers" d=" M -5 790.4544654450709 L 1131 186.14922071674812" stroke-opacity="0.8" stroke-linecap="round" stroke-linejoin="round" stroke-miterlimit="10" stroke-width="2.5"/><path fill="none" stroke="rgb(97,97,97)" paint-order="fill stroke markers" d=" M 527.0394048721613 507.4313996295932 L 1126 500.73910247732687" stroke-opacity="0.8" stroke-linecap="round" stroke-linejoin="round" stroke-miterlimit="10" stroke-width="2.5"/><path fill="none" stroke="rgb(97,97,97)" paint-order="fill stroke markers" d=" M 527.0394048721613 507.4313996295932 L 877.3265212936086 0" stroke-opacity="0.8" stroke-linecap="round" stroke-linejoin="round" stroke-miterlimit="10" stroke-width="2.5"/><path fill="rgb(21,101,192)" stroke="none" paint-order="stroke fill markers" d=" M 532.0394048721613 507.4313996295932 C 532.0394048721613 510.19282337874716 529.8008286213153 512.4313996295932 527.0394048721613 512.4313996295932 C 524.2779811230073 512.4313996295932 522.0394048721613 510.19282337874716 522.0394048721613 507.4313996295932 C 522.0394048721613 504.66997588043927 524.2779811230073 502.4313996295932 527.0394048721613 502.4313996295932 C 529.8008286213153 502.4313996295932 532.0394048721613 504.66997588043927 532.0394048721613 507.4313996295932 Z" fill-opacity="1"/><path fill="none" stroke="rgb(0,0,0)" paint-order="fill stroke markers" d=" M 532.0394048721613 507.4313996295932 C 532.0394048721613 510.19282337874716 529.8008286213153 512.4313996295932 527.0394048721613 512.4313996295932 C 524.2779811230073 512.4313996295932 522.0394048721613 510.19282337874716 522.0394048721613 507.4313996295932 C 522.0394048721613 504.66997588043927 524.2779811230073 502.4313996295932 527.0394048721613 502.4313996295932 C 529.8008286213153 502.4313996295932 532.0394048721613 504.66997588043927 532.0394048721613 507.4313996295932 Z" stroke-opacity="1" stroke-linecap="round" stroke-linejoin="round" stroke-miterlimit="10"/><text fill="rgb(21,101,192)" stroke="none" font-family="geogebra-sans-serif, sans-serif" font-size="16px" font-style="normal" font-weight="normal" text-decoration="normal" x="531" y="497" text-anchor="start" dominant-baseline="alphabetic" fill-opacity="1">A</text><text fill="none" stroke="rgb(255,255,255)" font-family="geogebra-sans-serif, sans-serif" font-size="16px" font-style="normal" font-weight="normal" text-decoration="normal" x="531" y="497" text-anchor="start" dominant-baseline="alphabetic" stroke-opacity="1" stroke-linejoin="bevel" stroke-miterlimit="10" stroke-width="3">A</text><text fill="rgb(21,101,192)" stroke="none" font-family="geogebra-sans-serif, sans-serif" font-size="16px" font-style="normal" font-weight="normal" text-decoration="normal" x="531" y="497" text-anchor="start" dominant-baseline="alphabetic" fill-opacity="1">A</text><path fill="rgb(21,101,192)" stroke="none" paint-order="stroke fill markers" d=" M 579.4696735706119 506.9014524932977 C 579.4696735706119 509.66287624245166 577.2310973197659 511.9014524932977 574.4696735706119 511.9014524932977 C 571.7082498214579 511.9014524932977 569.4696735706119 509.66287624245166 569.4696735706119 506.9014524932977 C 569.4696735706119 504.14002874414376 571.7082498214579 501.9014524932977 574.4696735706119 501.9014524932977 C 577.2310973197659 501.9014524932977 579.4696735706119 504.14002874414376 579.4696735706119 506.9014524932977 Z" fill-opacity="1"/><path fill="none" stroke="rgb(0,0,0)" paint-order="fill stroke markers" d=" M 579.4696735706119 506.9014524932977 C 579.4696735706119 509.66287624245166 577.2310973197659 511.9014524932977 574.4696735706119 511.9014524932977 C 571.7082498214579 511.9014524932977 569.4696735706119 509.66287624245166 569.4696735706119 506.9014524932977 C 569.4696735706119 504.14002874414376 571.7082498214579 501.9014524932977 574.4696735706119 501.9014524932977 C 577.2310973197659 501.9014524932977 579.4696735706119 504.14002874414376 579.4696735706119 506.9014524932977 Z" stroke-opacity="1" stroke-linecap="round" stroke-linejoin="round" stroke-miterlimit="10"/><text fill="rgb(21,101,192)" stroke="none" font-family="geogebra-sans-serif, sans-serif" font-size="16px" font-style="normal" font-weight="normal" text-decoration="normal" x="578" y="497" text-anchor="start" dominant-baseline="alphabetic" fill-opacity="1">B</text><text fill="none" stroke="rgb(255,255,255)" font-family="geogebra-sans-serif, sans-serif" font-size="16px" font-style="normal" font-weight="normal" text-decoration="normal" x="578" y="497" text-anchor="start" dominant-baseline="alphabetic" stroke-opacity="1" stroke-linejoin="bevel" stroke-miterlimit="10" stroke-width="3">B</text><text fill="rgb(21,101,192)" stroke="none" font-family="geogebra-sans-serif, sans-serif" font-size="16px" font-style="normal" font-weight="normal" text-decoration="normal" x="578" y="497" text-anchor="start" dominant-baseline="alphabetic" fill-opacity="1">B</text><path fill="rgb(21,101,192)" stroke="none" paint-order="stroke fill markers" d=" M 558.9862440973128 468.3957865493771 C 558.9862440973128 471.157210298531 556.7476678464668 473.3957865493771 553.9862440973128 473.3957865493771 C 551.2248203481588 473.3957865493771 548.9862440973128 471.157210298531 548.9862440973128 468.3957865493771 C 548.9862440973128 465.63436280022313 551.2248203481588 463.3957865493771 553.9862440973128 463.3957865493771 C 556.7476678464668 463.3957865493771 558.9862440973128 465.63436280022313 558.9862440973128 468.3957865493771 Z" fill-opacity="1"/><path fill="none" stroke="rgb(0,0,0)" paint-order="fill stroke markers" d=" M 558.9862440973128 468.3957865493771 C 558.9862440973128 471.157210298531 556.7476678464668 473.3957865493771 553.9862440973128 473.3957865493771 C 551.2248203481588 473.3957865493771 548.9862440973128 471.157210298531 548.9862440973128 468.3957865493771 C 548.9862440973128 465.63436280022313 551.2248203481588 463.3957865493771 553.9862440973128 463.3957865493771 C 556.7476678464668 463.3957865493771 558.9862440973128 465.63436280022313 558.9862440973128 468.3957865493771 Z" stroke-opacity="1" stroke-linecap="round" stroke-linejoin="round" stroke-miterlimit="10"/><text fill="rgb(21,101,192)" stroke="none" font-family="geogebra-sans-serif, sans-serif" font-size="16px" font-style="normal" font-weight="normal" text-decoration="normal" x="558" y="458" text-anchor="start" dominant-baseline="alphabetic" fill-opacity="1">C</text><text fill="none" stroke="rgb(255,255,255)" font-family="geogebra-sans-serif, sans-serif" font-size="16px" font-style="normal" font-weight="normal" text-decoration="normal" x="558" y="458" text-anchor="start" dominant-baseline="alphabetic" stroke-opacity="1" stroke-linejoin="bevel" stroke-miterlimit="10" stroke-width="3">C</text><text fill="rgb(21,101,192)" stroke="none" font-family="geogebra-sans-serif, sans-serif" font-size="16px" font-style="normal" font-weight="normal" text-decoration="normal" x="558" y="458" text-anchor="start" dominant-baseline="alphabetic" fill-opacity="1">C</text></g></g></svg>