<svg version="1.1" xmlns="http://www.w3.org/2000/svg" xmlns:xlink="http://www.w3.org/1999/xlink" width="420" height="377"><defs><clipPath id="qGmhTtxCcXBX"><path fill="none" stroke="none" d=" M 0 0 L 420 0 L 420 377 L 0 377 L 0 0 Z"/></clipPath></defs><g transform="scale(1,1)" clip-path="url(#qGmhTtxCcXBX)"><g transform="translate(-354,-294)"><rect fill="rgb(255,255,255)" stroke="none" x="0" y="0" width="1126" height="932" fill-opacity="1"/><path fill="none" stroke="rgb(97,97,97)" paint-order="fill stroke markers" d=" M 630.1487153990265 528.1651416493452 C 630.1487153990265 599.188771309164 572.5726875785714 656.7647991296192 501.5490579187527 656.7647991296192 C 430.52542825893397 656.7647991296192 372.9494004384789 599.188771309164 372.9494004384789 528.1651416493452 C 372.9494004384789 457.1415119895263 430.52542825893397 399.5654841690711 501.5490579187527 399.5654841690711 C 572.5726875785714 399.5654841690711 630.1487153990265 457.1415119895263 630.1487153990265 528.1651416493452 Z" stroke-opacity="0.8" stroke-linecap="round" stroke-linejoin="round" stroke-miterlimit="10" stroke-width="2.5"/><path fill="none" stroke="rgb(97,97,97)" paint-order="fill stroke markers" d=" M 758.7475922549966 528.6132213596447 C 758.7475922549966 599.6368510194636 701.1715644345416 657.2128788399189 630.1479347747228 657.2128788399189 C 559.124305114904 657.2128788399189 501.548277294449 599.6368510194636 501.548277294449 528.6132213596447 C 501.548277294449 457.58959169982586 559.124305114904 400.0135638793707 630.1479347747228 400.0135638793707 C 701.1715644345416 400.0135638793707 758.7475922549966 457.58959169982586 758.7475922549966 528.6132213596447 Z" stroke-opacity="0.8" stroke-linecap="round" stroke-linejoin="round" stroke-miterlimit="10" stroke-width="2.5"/><path fill="none" stroke="rgb(97,97,97)" paint-order="fill stroke markers" d=" M 713.840263116581 430.52500264553146 C 713.840263116581 501.54863230535034 656.2642352961259 559.1246601258056 585.2406056363072 559.1246601258056 C 514.2169759764885 559.1246601258056 456.64094815603346 501.54863230535034 456.64094815603346 430.52500264553146 C 456.64094815603346 359.5013729857126 514.2169759764885 301.9253451652574 585.2406056363072 301.9253451652574 C 656.2642352961259 301.9253451652574 713.840263116581 359.5013729857126 713.840263116581 430.52500264553146 Z" stroke-opacity="0.8" stroke-linecap="round" stroke-linejoin="round" stroke-miterlimit="10" stroke-width="2.5"/><path fill="none" stroke="rgb(97,97,97)" paint-order="fill stroke markers" d=" M 501.5490579187527 528.1651416493452 L 1126 530.3409289039837" stroke-opacity="0.8" stroke-linecap="round" stroke-linejoin="round" stroke-miterlimit="10" stroke-width="2.5"/><path fill="none" stroke="rgb(97,97,97)" paint-order="fill stroke markers" d=" M 501.5490579187527 528.1651416493452 L 954.2620364753343 0" stroke-opacity="0.8" stroke-linecap="round" stroke-linejoin="round" stroke-miterlimit="10" stroke-width="2.5"/><path fill="none" stroke="rgb(97,97,97)" paint-order="fill stroke markers" d=" M 501.5490579187527 528.1651416493452 L 1126 242.27531354910775" stroke-opacity="0.8" stroke-linecap="round" stroke-linejoin="round" stroke-miterlimit="10" stroke-width="2.5"/><path fill="rgb(21,101,192)" stroke="none" paint-order="stroke fill markers" d=" M 506.5490579187527 528.1651416493452 C 506.5490579187527 530.9265653984992 504.31048166790663 533.1651416493452 501.5490579187527 533.1651416493452 C 498.78763416959873 533.1651416493452 496.5490579187527 530.9265653984992 496.5490579187527 528.1651416493452 C 496.5490579187527 525.4037179001912 498.78763416959873 523.1651416493452 501.5490579187527 523.1651416493452 C 504.31048166790663 523.1651416493452 506.5490579187527 525.4037179001912 506.5490579187527 528.1651416493452 Z" fill-opacity="1"/><path fill="none" stroke="rgb(0,0,0)" paint-order="fill stroke markers" d=" M 506.5490579187527 528.1651416493452 C 506.5490579187527 530.9265653984992 504.31048166790663 533.1651416493452 501.5490579187527 533.1651416493452 C 498.78763416959873 533.1651416493452 496.5490579187527 530.9265653984992 496.5490579187527 528.1651416493452 C 496.5490579187527 525.4037179001912 498.78763416959873 523.1651416493452 501.5490579187527 523.1651416493452 C 504.31048166790663 523.1651416493452 506.5490579187527 525.4037179001912 506.5490579187527 528.1651416493452 Z" stroke-opacity="1" stroke-linecap="round" stroke-linejoin="round" stroke-miterlimit="10"/><text fill="rgb(21,101,192)" stroke="none" font-family="geogebra-sans-serif, sans-serif" font-size="16px" font-style="normal" font-weight="normal" text-decoration="normal" x="506" y="518" text-anchor="start" dominant-baseline="alphabetic" fill-opacity="1">A</text><text fill="none" stroke="rgb(255,255,255)" font-family="geogebra-sans-serif, sans-serif" font-size="16px" font-style="normal" font-weight="normal" text-decoration="normal" x="506" y="518" text-anchor="start" dominant-baseline="alphabetic" stroke-opacity="1" stroke-linejoin="bevel" stroke-miterlimit="10" stroke-width="3">A</text><text fill="rgb(21,101,192)" stroke="none" font-family="geogebra-sans-serif, sans-serif" font-size="16px" font-style="normal" font-weight="normal" text-decoration="normal" x="506" y="518" text-anchor="start" dominant-baseline="alphabetic" fill-opacity="1">A</text><path fill="rgb(21,101,192)" stroke="none" paint-order="stroke fill markers" d=" M 635.1479347747228 528.6132213596447 C 635.1479347747228 531.3746451087987 632.9093585238768 533.6132213596447 630.1479347747228 533.6132213596447 C 627.3865110255688 533.6132213596447 625.1479347747228 531.3746451087987 625.1479347747228 528.6132213596447 C 625.1479347747228 525.8517976104907 627.3865110255688 523.6132213596447 630.1479347747228 523.6132213596447 C 632.9093585238768 523.6132213596447 635.1479347747228 525.8517976104907 635.1479347747228 528.6132213596447 Z" fill-opacity="1"/><path fill="none" stroke="rgb(0,0,0)" paint-order="fill stroke markers" d=" M 635.1479347747228 528.6132213596447 C 635.1479347747228 531.3746451087987 632.9093585238768 533.6132213596447 630.1479347747228 533.6132213596447 C 627.3865110255688 533.6132213596447 625.1479347747228 531.3746451087987 625.1479347747228 528.6132213596447 C 625.1479347747228 525.8517976104907 627.3865110255688 523.6132213596447 630.1479347747228 523.6132213596447 C 632.9093585238768 523.6132213596447 635.1479347747228 525.8517976104907 635.1479347747228 528.6132213596447 Z" stroke-opacity="1" stroke-linecap="round" stroke-linejoin="round" stroke-miterlimit="10"/><text fill="rgb(21,101,192)" stroke="none" font-family="geogebra-sans-serif, sans-serif" font-size="16px" font-style="normal" font-weight="normal" text-decoration="normal" x="634" y="519" text-anchor="start" dominant-baseline="alphabetic" fill-opacity="1">B</text><text fill="none" stroke="rgb(255,255,255)" font-family="geogebra-sans-serif, sans-serif" font-size="16px" font-style="normal" font-weight="normal" text-decoration="normal" x="634" y="519" text-anchor="start" dominant-baseline="alphabetic" stroke-opacity="1" stroke-linejoin="bevel" stroke-miterlimit="10" stroke-width="3">B</text><text fill="rgb(21,101,192)" stroke="none" font-family="geogebra-sans-serif, sans-serif" font-size="16px" font-style="normal" font-weight="normal" text-decoration="normal" x="634" y="519" text-anchor="start" dominant-baseline="alphabetic" fill-opacity="1">B</text><path fill="rgb(21,101,192)" stroke="none" paint-order="stroke fill markers" d=" M 590.2406056363072 430.52500264553146 C 590.2406056363072 433.2864263946854 588.0020293854612 435.52500264553146 585.2406056363072 435.52500264553146 C 582.4791818871532 435.52500264553146 580.2406056363072 433.2864263946854 580.2406056363072 430.52500264553146 C 580.2406056363072 427.7635788963775 582.4791818871532 425.52500264553146 585.2406056363072 425.52500264553146 C 588.0020293854612 425.52500264553146 590.2406056363072 427.7635788963775 590.2406056363072 430.52500264553146 Z" fill-opacity="1"/><path fill="none" stroke="rgb(0,0,0)" paint-order="fill stroke markers" d=" M 590.2406056363072 430.52500264553146 C 590.2406056363072 433.2864263946854 588.0020293854612 435.52500264553146 585.2406056363072 435.52500264553146 C 582.4791818871532 435.52500264553146 580.2406056363072 433.2864263946854 580.2406056363072 430.52500264553146 C 580.2406056363072 427.7635788963775 582.4791818871532 425.52500264553146 585.2406056363072 425.52500264553146 C 588.0020293854612 425.52500264553146 590.2406056363072 427.7635788963775 590.2406056363072 430.52500264553146 Z" stroke-opacity="1" stroke-linecap="round" stroke-linejoin="round" stroke-miterlimit="10"/><text fill="rgb(21,101,192)" stroke="none" font-family="geogebra-sans-serif, sans-serif" font-size="16px" font-style="normal" font-weight="normal" text-decoration="normal" x="589" y="421" text-anchor="start" dominant-baseline="alphabetic" fill-opacity="1">C</text><text fill="none" stroke="rgb(255,255,255)" font-family="geogebra-sans-serif, sans-serif" font-size="16px" font-style="normal" font-weight="normal" text-decoration="normal" x="589" y="421" text-anchor="start" dominant-baseline="alphabetic" stroke-opacity="1" stroke-linejoin="bevel" stroke-miterlimit="10" stroke-width="3">C</text><text fill="rgb(21,101,192)" stroke="none" font-family="geogebra-sans-serif, sans-serif" font-size="16px" font-style="normal" font-weight="normal" text-decoration="normal" x="589" y="421" text-anchor="start" dominant-baseline="alphabetic" fill-opacity="1">C</text><path fill="rgb(97,97,97)" stroke="none" paint-order="stroke fill markers" d=" M 717.8394824922774 430.97308235583097 C 717.8394824922774 433.1822213551541 716.0486214916006 434.97308235583097 713.8394824922774 434.97308235583097 C 711.6303434929542 434.97308235583097 709.8394824922774 433.1822213551541 709.8394824922774 430.97308235583097 C 709.8394824922774 428.7639433565078 711.6303434929542 426.97308235583097 713.8394824922774 426.97308235583097 C 716.0486214916006 426.97308235583097 717.8394824922774 428.7639433565078 717.8394824922774 430.97308235583097 Z" fill-opacity="1"/><path fill="none" stroke="rgb(0,0,0)" paint-order="fill stroke markers" d=" M 717.8394824922774 430.97308235583097 C 717.8394824922774 433.1822213551541 716.0486214916006 434.97308235583097 713.8394824922774 434.97308235583097 C 711.6303434929542 434.97308235583097 709.8394824922774 433.1822213551541 709.8394824922774 430.97308235583097 C 709.8394824922774 428.7639433565078 711.6303434929542 426.97308235583097 713.8394824922774 426.97308235583097 C 716.0486214916006 426.97308235583097 717.8394824922774 428.7639433565078 717.8394824922774 430.97308235583097 Z" stroke-opacity="1" stroke-linecap="round" stroke-linejoin="round" stroke-miterlimit="10"/><text fill="rgb(97,97,97)" stroke="none" font-family="geogebra-sans-serif, sans-serif" font-size="16px" font-style="normal" font-weight="normal" text-decoration="normal" x="718" y="423" text-anchor="start" dominant-baseline="alphabetic" fill-opacity="1">D</text><text fill="none" stroke="rgb(255,255,255)" font-family="geogebra-sans-serif, sans-serif" font-size="16px" font-style="normal" font-weight="normal" text-decoration="normal" x="718" y="423" text-anchor="start" dominant-baseline="alphabetic" stroke-opacity="1" stroke-linejoin="bevel" stroke-miterlimit="10" stroke-width="3">D</text><text fill="rgb(97,97,97)" stroke="none" font-family="geogebra-sans-serif, sans-serif" font-size="16px" font-style="normal" font-weight="normal" text-decoration="normal" x="718" y="423" text-anchor="start" dominant-baseline="alphabetic" fill-opacity="1">D</text></g></g></svg>