<svg version="1.1" xmlns="http://www.w3.org/2000/svg" xmlns:xlink="http://www.w3.org/1999/xlink" width="446" height="337"><defs><clipPath id="ybnJhAnqxkmd"><path fill="none" stroke="none" d=" M 0 0 L 446 0 L 446 337 L 0 337 L 0 0 Z"/></clipPath></defs><g transform="scale(1,1)" clip-path="url(#ybnJhAnqxkmd)"><g transform="translate(-469,-285)"><rect fill="rgb(255,255,255)" stroke="none" x="0" y="0" width="1204" height="932" fill-opacity="1"/><path fill="none" stroke="rgb(97,97,97)" paint-order="fill stroke markers" d=" M 901.3889091720332 436.975841621874 C 901.3889091720332 512.1780648582223 840.4254619650303 573.141512065225 765.2232387286815 573.141512065225 C 690.0210154923327 573.141512065225 629.0575682853298 512.1780648582223 629.0575682853298 436.975841621874 C 629.0575682853298 361.7736183855256 690.0210154923327 300.810171178523 765.2232387286815 300.810171178523 C 840.4254619650303 300.810171178523 901.3889091720332 361.7736183855256 901.3889091720332 436.975841621874 Z" stroke-opacity="0.8" stroke-linecap="round" stroke-linejoin="round" stroke-miterlimit="10" stroke-width="2.5"/><path fill="none" stroke="rgb(97,97,97)" paint-order="fill stroke markers" d=" M 750.2198172666199 523.1243460220396 C 750.2198172666199 573.0761471929203 709.725881548722 613.570082910818 659.7740803778411 613.570082910818 C 609.82227920696 613.570082910818 569.3283434890623 573.0761471929203 569.3283434890623 523.1243460220396 C 569.3283434890623 473.1725448511589 609.82227920696 432.67860913326126 659.7740803778411 432.67860913326126 C 709.725881548722 432.67860913326126 750.2198172666199 473.1725448511589 750.2198172666199 523.1243460220396 Z" stroke-opacity="0.8" stroke-linecap="round" stroke-linejoin="round" stroke-miterlimit="10" stroke-width="2.5"/><path fill="none" stroke="rgb(97,97,97)" paint-order="fill stroke markers" d=" M 714.3737155227531 438.0526775801809 C 714.3737155227531 485.16913297114365 676.1782817018586 523.3645667920379 629.0618263108956 523.3645667920379 C 581.9453709199327 523.3645667920379 543.7499370990382 485.16913297114365 543.7499370990382 438.0526775801809 C 543.7499370990382 390.93622218921814 581.9453709199327 352.74078836832393 629.0618263108956 352.74078836832393 C 676.1782817018586 352.74078836832393 714.3737155227531 390.93622218921814 714.3737155227531 438.0526775801809 Z" stroke-opacity="0.8" stroke-linecap="round" stroke-linejoin="round" stroke-miterlimit="10" stroke-width="2.5"/><path fill="none" stroke="rgb(97,97,97)" paint-order="fill stroke markers" d=" M 492.9004138931109 439.1295135384875 L 628.1961956742084 328.5972965499602" stroke-opacity="0.8" stroke-linecap="round" stroke-linejoin="round" stroke-miterlimit="10" stroke-width="2.5"/><path fill="none" stroke="rgb(97,97,97)" paint-order="fill stroke markers" d=" M 628.1961956742084 328.5972965499602 L 765.2232387286815 436.97584162187394" stroke-opacity="0.8" stroke-linecap="round" stroke-linejoin="round" stroke-miterlimit="10" stroke-width="2.5"/><path fill="none" stroke="rgb(97,97,97)" paint-order="fill stroke markers" d=" M 492.9004138931109 439.1295135384875 L 765.2232387286815 436.97584162187394" stroke-opacity="0.8" stroke-linecap="round" stroke-linejoin="round" stroke-miterlimit="10" stroke-width="2.5"/><path fill="none" stroke="rgb(97,97,97)" paint-order="fill stroke markers" d=" M 765.2232387286815 436.97584162187394 L 629.927456947584 547.5080586104016" stroke-opacity="0.8" stroke-linecap="round" stroke-linejoin="round" stroke-miterlimit="10" stroke-width="2.5"/><path fill="none" stroke="rgb(97,97,97)" paint-order="fill stroke markers" d=" M 629.927456947584 547.5080586104016 L 492.9004138931109 439.1295135384875" stroke-opacity="0.8" stroke-linecap="round" stroke-linejoin="round" stroke-miterlimit="10" stroke-width="2.5"/><path fill="none" stroke="rgb(97,97,97)" paint-order="fill stroke markers" d=" M 628.1961956742084 328.5972965499602 L 629.927456947584 547.5080586104016" stroke-opacity="0.8" stroke-linecap="round" stroke-linejoin="round" stroke-miterlimit="10" stroke-width="2.5"/><path fill="none" stroke="rgb(97,97,97)" paint-order="fill stroke markers" d=" M 737.0110860505192 570.1868180785891 L 629.0618263108956 438.0526775801809" stroke-opacity="0.8" stroke-linecap="round" stroke-linejoin="round" stroke-miterlimit="10" stroke-width="2.5"/><path fill="rgb(21,101,192)" stroke="none" paint-order="stroke fill markers" d=" M 497.9004138931109 439.1295135384875 C 497.9004138931109 441.89093728764146 495.66183764226486 444.1295135384875 492.9004138931109 444.1295135384875 C 490.13899014395696 444.1295135384875 487.9004138931109 441.89093728764146 487.9004138931109 439.1295135384875 C 487.9004138931109 436.36808978933357 490.13899014395696 434.1295135384875 492.9004138931109 434.1295135384875 C 495.66183764226486 434.1295135384875 497.9004138931109 436.36808978933357 497.9004138931109 439.1295135384875 Z" fill-opacity="1"/><path fill="none" stroke="rgb(0,0,0)" paint-order="fill stroke markers" d=" M 497.9004138931109 439.1295135384875 C 497.9004138931109 441.89093728764146 495.66183764226486 444.1295135384875 492.9004138931109 444.1295135384875 C 490.13899014395696 444.1295135384875 487.9004138931109 441.89093728764146 487.9004138931109 439.1295135384875 C 487.9004138931109 436.36808978933357 490.13899014395696 434.1295135384875 492.9004138931109 434.1295135384875 C 495.66183764226486 434.1295135384875 497.9004138931109 436.36808978933357 497.9004138931109 439.1295135384875 Z" stroke-opacity="1" stroke-linecap="round" stroke-linejoin="round" stroke-miterlimit="10"/><text fill="rgb(21,101,192)" stroke="none" font-family="geogebra-sans-serif, sans-serif" font-size="16px" font-style="normal" font-weight="normal" text-decoration="normal" x="497" y="429" text-anchor="start" dominant-baseline="alphabetic" fill-opacity="1">A</text><text fill="none" stroke="rgb(255,255,255)" font-family="geogebra-sans-serif, sans-serif" font-size="16px" font-style="normal" font-weight="normal" text-decoration="normal" x="497" y="429" text-anchor="start" dominant-baseline="alphabetic" stroke-opacity="1" stroke-linejoin="bevel" stroke-miterlimit="10" stroke-width="3">A</text><text fill="rgb(21,101,192)" stroke="none" font-family="geogebra-sans-serif, sans-serif" font-size="16px" font-style="normal" font-weight="normal" text-decoration="normal" x="497" y="429" text-anchor="start" dominant-baseline="alphabetic" fill-opacity="1">A</text><path fill="rgb(21,101,192)" stroke="none" paint-order="stroke fill markers" d=" M 633.1961956742084 328.5972965499602 C 633.1961956742084 331.35872029911417 630.9576194233624 333.5972965499602 628.1961956742084 333.5972965499602 C 625.4347719250544 333.5972965499602 623.1961956742084 331.35872029911417 623.1961956742084 328.5972965499602 C 623.1961956742084 325.83587280080627 625.4347719250544 323.5972965499602 628.1961956742084 323.5972965499602 C 630.9576194233624 323.5972965499602 633.1961956742084 325.83587280080627 633.1961956742084 328.5972965499602 Z" fill-opacity="1"/><path fill="none" stroke="rgb(0,0,0)" paint-order="fill stroke markers" d=" M 633.1961956742084 328.5972965499602 C 633.1961956742084 331.35872029911417 630.9576194233624 333.5972965499602 628.1961956742084 333.5972965499602 C 625.4347719250544 333.5972965499602 623.1961956742084 331.35872029911417 623.1961956742084 328.5972965499602 C 623.1961956742084 325.83587280080627 625.4347719250544 323.5972965499602 628.1961956742084 323.5972965499602 C 630.9576194233624 323.5972965499602 633.1961956742084 325.83587280080627 633.1961956742084 328.5972965499602 Z" stroke-opacity="1" stroke-linecap="round" stroke-linejoin="round" stroke-miterlimit="10"/><text fill="rgb(21,101,192)" stroke="none" font-family="geogebra-sans-serif, sans-serif" font-size="16px" font-style="normal" font-weight="normal" text-decoration="normal" x="632" y="319" text-anchor="start" dominant-baseline="alphabetic" fill-opacity="1">B</text><text fill="none" stroke="rgb(255,255,255)" font-family="geogebra-sans-serif, sans-serif" font-size="16px" font-style="normal" font-weight="normal" text-decoration="normal" x="632" y="319" text-anchor="start" dominant-baseline="alphabetic" stroke-opacity="1" stroke-linejoin="bevel" stroke-miterlimit="10" stroke-width="3">B</text><text fill="rgb(21,101,192)" stroke="none" font-family="geogebra-sans-serif, sans-serif" font-size="16px" font-style="normal" font-weight="normal" text-decoration="normal" x="632" y="319" text-anchor="start" dominant-baseline="alphabetic" fill-opacity="1">B</text><path fill="rgb(21,101,192)" stroke="none" paint-order="stroke fill markers" d=" M 770.2232387286815 436.97584162187394 C 770.2232387286815 439.7372653710279 767.9846624778355 441.97584162187394 765.2232387286815 441.97584162187394 C 762.4618149795275 441.97584162187394 760.2232387286815 439.7372653710279 760.2232387286815 436.97584162187394 C 760.2232387286815 434.21441787272 762.4618149795275 431.97584162187394 765.2232387286815 431.97584162187394 C 767.9846624778355 431.97584162187394 770.2232387286815 434.21441787272 770.2232387286815 436.97584162187394 Z" fill-opacity="1"/><path fill="none" stroke="rgb(0,0,0)" paint-order="fill stroke markers" d=" M 770.2232387286815 436.97584162187394 C 770.2232387286815 439.7372653710279 767.9846624778355 441.97584162187394 765.2232387286815 441.97584162187394 C 762.4618149795275 441.97584162187394 760.2232387286815 439.7372653710279 760.2232387286815 436.97584162187394 C 760.2232387286815 434.21441787272 762.4618149795275 431.97584162187394 765.2232387286815 431.97584162187394 C 767.9846624778355 431.97584162187394 770.2232387286815 434.21441787272 770.2232387286815 436.97584162187394 Z" stroke-opacity="1" stroke-linecap="round" stroke-linejoin="round" stroke-miterlimit="10"/><text fill="rgb(21,101,192)" stroke="none" font-family="geogebra-sans-serif, sans-serif" font-size="16px" font-style="normal" font-weight="normal" text-decoration="normal" x="769" y="427" text-anchor="start" dominant-baseline="alphabetic" fill-opacity="1">C</text><text fill="none" stroke="rgb(255,255,255)" font-family="geogebra-sans-serif, sans-serif" font-size="16px" font-style="normal" font-weight="normal" text-decoration="normal" x="769" y="427" text-anchor="start" dominant-baseline="alphabetic" stroke-opacity="1" stroke-linejoin="bevel" stroke-miterlimit="10" stroke-width="3">C</text><text fill="rgb(21,101,192)" stroke="none" font-family="geogebra-sans-serif, sans-serif" font-size="16px" font-style="normal" font-weight="normal" text-decoration="normal" x="769" y="427" text-anchor="start" dominant-baseline="alphabetic" fill-opacity="1">C</text><path fill="rgb(21,101,192)" stroke="none" paint-order="stroke fill markers" d=" M 634.927456947584 547.5080586104016 C 634.927456947584 550.2694823595556 632.688880696738 552.5080586104016 629.927456947584 552.5080586104016 C 627.16603319843 552.5080586104016 624.927456947584 550.2694823595556 624.927456947584 547.5080586104016 C 624.927456947584 544.7466348612476 627.16603319843 542.5080586104016 629.927456947584 542.5080586104016 C 632.688880696738 542.5080586104016 634.927456947584 544.7466348612476 634.927456947584 547.5080586104016 Z" fill-opacity="1"/><path fill="none" stroke="rgb(0,0,0)" paint-order="fill stroke markers" d=" M 634.927456947584 547.5080586104016 C 634.927456947584 550.2694823595556 632.688880696738 552.5080586104016 629.927456947584 552.5080586104016 C 627.16603319843 552.5080586104016 624.927456947584 550.2694823595556 624.927456947584 547.5080586104016 C 624.927456947584 544.7466348612476 627.16603319843 542.5080586104016 629.927456947584 542.5080586104016 C 632.688880696738 542.5080586104016 634.927456947584 544.7466348612476 634.927456947584 547.5080586104016 Z" stroke-opacity="1" stroke-linecap="round" stroke-linejoin="round" stroke-miterlimit="10"/><text fill="rgb(21,101,192)" stroke="none" font-family="geogebra-sans-serif, sans-serif" font-size="16px" font-style="normal" font-weight="normal" text-decoration="normal" x="634" y="538" text-anchor="start" dominant-baseline="alphabetic" fill-opacity="1">D</text><text fill="none" stroke="rgb(255,255,255)" font-family="geogebra-sans-serif, sans-serif" font-size="16px" font-style="normal" font-weight="normal" text-decoration="normal" x="634" y="538" text-anchor="start" dominant-baseline="alphabetic" stroke-opacity="1" stroke-linejoin="bevel" stroke-miterlimit="10" stroke-width="3">D</text><text fill="rgb(21,101,192)" stroke="none" font-family="geogebra-sans-serif, sans-serif" font-size="16px" font-style="normal" font-weight="normal" text-decoration="normal" x="634" y="538" text-anchor="start" dominant-baseline="alphabetic" fill-opacity="1">D</text><path fill="rgb(97,97,97)" stroke="none" paint-order="stroke fill markers" d=" M 633.0618263108956 438.0526775801809 C 633.0618263108956 440.26181657950406 631.2709653102188 442.0526775801809 629.0618263108956 442.0526775801809 C 626.8526873115725 442.0526775801809 625.0618263108956 440.26181657950406 625.0618263108956 438.0526775801809 C 625.0618263108956 435.84353858085774 626.8526873115725 434.0526775801809 629.0618263108956 434.0526775801809 C 631.2709653102188 434.0526775801809 633.0618263108956 435.84353858085774 633.0618263108956 438.0526775801809 Z" fill-opacity="1"/><path fill="none" stroke="rgb(0,0,0)" paint-order="fill stroke markers" d=" M 633.0618263108956 438.0526775801809 C 633.0618263108956 440.26181657950406 631.2709653102188 442.0526775801809 629.0618263108956 442.0526775801809 C 626.8526873115725 442.0526775801809 625.0618263108956 440.26181657950406 625.0618263108956 438.0526775801809 C 625.0618263108956 435.84353858085774 626.8526873115725 434.0526775801809 629.0618263108956 434.0526775801809 C 631.2709653102188 434.0526775801809 633.0618263108956 435.84353858085774 633.0618263108956 438.0526775801809 Z" stroke-opacity="1" stroke-linecap="round" stroke-linejoin="round" stroke-miterlimit="10"/><text fill="rgb(97,97,97)" stroke="none" font-family="geogebra-sans-serif, sans-serif" font-size="16px" font-style="normal" font-weight="normal" text-decoration="normal" x="633" y="430" text-anchor="start" dominant-baseline="alphabetic" fill-opacity="1">E</text><text fill="none" stroke="rgb(255,255,255)" font-family="geogebra-sans-serif, sans-serif" font-size="16px" font-style="normal" font-weight="normal" text-decoration="normal" x="633" y="430" text-anchor="start" dominant-baseline="alphabetic" stroke-opacity="1" stroke-linejoin="bevel" stroke-miterlimit="10" stroke-width="3">E</text><text fill="rgb(97,97,97)" stroke="none" font-family="geogebra-sans-serif, sans-serif" font-size="16px" font-style="normal" font-weight="normal" text-decoration="normal" x="633" y="430" text-anchor="start" dominant-baseline="alphabetic" fill-opacity="1">E</text><path fill="rgb(97,97,97)" stroke="none" paint-order="stroke fill markers" d=" M 663.7740803778411 523.1243460220396 C 663.7740803778411 525.3334850213628 661.9832193771642 527.1243460220396 659.7740803778411 527.1243460220396 C 657.5649413785179 527.1243460220396 655.7740803778411 525.3334850213628 655.7740803778411 523.1243460220396 C 655.7740803778411 520.9152070227165 657.5649413785179 519.1243460220396 659.7740803778411 519.1243460220396 C 661.9832193771642 519.1243460220396 663.7740803778411 520.9152070227165 663.7740803778411 523.1243460220396 Z" fill-opacity="1"/><path fill="none" stroke="rgb(0,0,0)" paint-order="fill stroke markers" d=" M 663.7740803778411 523.1243460220396 C 663.7740803778411 525.3334850213628 661.9832193771642 527.1243460220396 659.7740803778411 527.1243460220396 C 657.5649413785179 527.1243460220396 655.7740803778411 525.3334850213628 655.7740803778411 523.1243460220396 C 655.7740803778411 520.9152070227165 657.5649413785179 519.1243460220396 659.7740803778411 519.1243460220396 C 661.9832193771642 519.1243460220396 663.7740803778411 520.9152070227165 663.7740803778411 523.1243460220396 Z" stroke-opacity="1" stroke-linecap="round" stroke-linejoin="round" stroke-miterlimit="10"/><text fill="rgb(97,97,97)" stroke="none" font-family="geogebra-sans-serif, sans-serif" font-size="16px" font-style="normal" font-weight="normal" text-decoration="normal" x="664" y="515" text-anchor="start" dominant-baseline="alphabetic" fill-opacity="1">F</text><text fill="none" stroke="rgb(255,255,255)" font-family="geogebra-sans-serif, sans-serif" font-size="16px" font-style="normal" font-weight="normal" text-decoration="normal" x="664" y="515" text-anchor="start" dominant-baseline="alphabetic" stroke-opacity="1" stroke-linejoin="bevel" stroke-miterlimit="10" stroke-width="3">F</text><text fill="rgb(97,97,97)" stroke="none" font-family="geogebra-sans-serif, sans-serif" font-size="16px" font-style="normal" font-weight="normal" text-decoration="normal" x="664" y="515" text-anchor="start" dominant-baseline="alphabetic" fill-opacity="1">F</text><path fill="rgb(97,97,97)" stroke="none" paint-order="stroke fill markers" d=" M 741.0110860505192 570.1868180785891 C 741.0110860505192 572.3959570779123 739.2202250498424 574.1868180785891 737.0110860505192 574.1868180785891 C 734.8019470511961 574.1868180785891 733.0110860505192 572.3959570779123 733.0110860505192 570.1868180785891 C 733.0110860505192 567.977679079266 734.8019470511961 566.1868180785891 737.0110860505192 566.1868180785891 C 739.2202250498424 566.1868180785891 741.0110860505192 567.977679079266 741.0110860505192 570.1868180785891 Z" fill-opacity="1"/><path fill="none" stroke="rgb(0,0,0)" paint-order="fill stroke markers" d=" M 741.0110860505192 570.1868180785891 C 741.0110860505192 572.3959570779123 739.2202250498424 574.1868180785891 737.0110860505192 574.1868180785891 C 734.8019470511961 574.1868180785891 733.0110860505192 572.3959570779123 733.0110860505192 570.1868180785891 C 733.0110860505192 567.977679079266 734.8019470511961 566.1868180785891 737.0110860505192 566.1868180785891 C 739.2202250498424 566.1868180785891 741.0110860505192 567.977679079266 741.0110860505192 570.1868180785891 Z" stroke-opacity="1" stroke-linecap="round" stroke-linejoin="round" stroke-miterlimit="10"/><text fill="rgb(97,97,97)" stroke="none" font-family="geogebra-sans-serif, sans-serif" font-size="16px" font-style="normal" font-weight="normal" text-decoration="normal" x="741" y="562" text-anchor="start" dominant-baseline="alphabetic" fill-opacity="1">G</text><text fill="none" stroke="rgb(255,255,255)" font-family="geogebra-sans-serif, sans-serif" font-size="16px" font-style="normal" font-weight="normal" text-decoration="normal" x="741" y="562" text-anchor="start" dominant-baseline="alphabetic" stroke-opacity="1" stroke-linejoin="bevel" stroke-miterlimit="10" stroke-width="3">G</text><text fill="rgb(97,97,97)" stroke="none" font-family="geogebra-sans-serif, sans-serif" font-size="16px" font-style="normal" font-weight="normal" text-decoration="normal" x="741" y="562" text-anchor="start" dominant-baseline="alphabetic" fill-opacity="1">G</text><path fill="rgb(97,97,97)" stroke="none" paint-order="stroke fill markers" d=" M 687.0364561807066 504.1197478293837 C 687.0364561807066 506.32888682870686 685.2455951800298 508.1197478293837 683.0364561807066 508.1197478293837 C 680.8273171813835 508.1197478293837 679.0364561807066 506.32888682870686 679.0364561807066 504.1197478293837 C 679.0364561807066 501.91060883006054 680.8273171813835 500.1197478293837 683.0364561807066 500.1197478293837 C 685.2455951800298 500.1197478293837 687.0364561807066 501.91060883006054 687.0364561807066 504.1197478293837 Z" fill-opacity="1"/><path fill="none" stroke="rgb(0,0,0)" paint-order="fill stroke markers" d=" M 687.0364561807066 504.1197478293837 C 687.0364561807066 506.32888682870686 685.2455951800298 508.1197478293837 683.0364561807066 508.1197478293837 C 680.8273171813835 508.1197478293837 679.0364561807066 506.32888682870686 679.0364561807066 504.1197478293837 C 679.0364561807066 501.91060883006054 680.8273171813835 500.1197478293837 683.0364561807066 500.1197478293837 C 685.2455951800298 500.1197478293837 687.0364561807066 501.91060883006054 687.0364561807066 504.1197478293837 Z" stroke-opacity="1" stroke-linecap="round" stroke-linejoin="round" stroke-miterlimit="10"/><text fill="rgb(97,97,97)" stroke="none" font-family="geogebra-sans-serif, sans-serif" font-size="16px" font-style="normal" font-weight="normal" text-decoration="normal" x="687" y="496" text-anchor="start" dominant-baseline="alphabetic" fill-opacity="1">H</text><text fill="none" stroke="rgb(255,255,255)" font-family="geogebra-sans-serif, sans-serif" font-size="16px" font-style="normal" font-weight="normal" text-decoration="normal" x="687" y="496" text-anchor="start" dominant-baseline="alphabetic" stroke-opacity="1" stroke-linejoin="bevel" stroke-miterlimit="10" stroke-width="3">H</text><text fill="rgb(97,97,97)" stroke="none" font-family="geogebra-sans-serif, sans-serif" font-size="16px" font-style="normal" font-weight="normal" text-decoration="normal" x="687" y="496" text-anchor="start" dominant-baseline="alphabetic" fill-opacity="1">H</text></g></g></svg>