<svg version="1.1" xmlns="http://www.w3.org/2000/svg" xmlns:xlink="http://www.w3.org/1999/xlink" width="365" height="295"><defs><clipPath id="QsMkAhHrObnu"><path fill="none" stroke="none" d=" M 0 0 L 365 0 L 365 295 L 0 295 L 0 0 Z"/></clipPath></defs><g transform="scale(1,1)" clip-path="url(#QsMkAhHrObnu)"><g transform="translate(-434,-356)"><rect fill="rgb(255,255,255)" stroke="none" x="0" y="0" width="1204" height="932" fill-opacity="1"/><path fill="none" stroke="rgb(97,97,97)" paint-order="fill stroke markers" d=" M 708.4467829996569 508.75318756840113 C 708.4467829996569 560.5711068401329 666.4400596615617 602.5778301782277 614.6221403898298 602.5778301782277 C 562.8042211180979 602.5778301782277 520.7974977800028 560.5711068401329 520.7974977800028 508.75318756840113 C 520.7974977800028 456.9352682966695 562.8042211180979 414.92854495857455 614.6221403898298 414.92854495857455 C 666.4400596615617 414.92854495857455 708.4467829996569 456.9352682966695 708.4467829996569 508.75318756840113 Z" stroke-opacity="0.8" stroke-linecap="round" stroke-linejoin="round" stroke-miterlimit="10" stroke-width="2.5"/><path fill="none" stroke="rgb(97,97,97)" paint-order="fill stroke markers" d=" M 956.2743874674634 937 L 204.75351818245082 -5" stroke-opacity="0.8" stroke-linecap="round" stroke-linejoin="round" stroke-miterlimit="10" stroke-width="2.5"/><path fill="none" stroke="rgb(97,97,97)" paint-order="fill stroke markers" d=" M 463.6223890072283 509.1947974708016 L 614.2719357845522 389.00766546285433" stroke-opacity="0.8" stroke-linecap="round" stroke-linejoin="round" stroke-miterlimit="10" stroke-width="2.5"/><path fill="none" stroke="rgb(97,97,97)" paint-order="fill stroke markers" d=" M 614.2719357845522 389.00766546285433 L 765.6218917724309 508.31157766600046" stroke-opacity="0.8" stroke-linecap="round" stroke-linejoin="round" stroke-miterlimit="10" stroke-width="2.5"/><path fill="none" stroke="rgb(97,97,97)" paint-order="fill stroke markers" d=" M 463.6223890072283 509.1947974708016 L 765.6218917724309 508.31157766600046" stroke-opacity="0.8" stroke-linecap="round" stroke-linejoin="round" stroke-miterlimit="10" stroke-width="2.5"/><path fill="none" stroke="rgb(97,97,97)" paint-order="fill stroke markers" d=" M 765.6218917724309 508.31157766600046 L 614.9723449951073 628.4987096739478" stroke-opacity="0.8" stroke-linecap="round" stroke-linejoin="round" stroke-miterlimit="10" stroke-width="2.5"/><path fill="none" stroke="rgb(97,97,97)" paint-order="fill stroke markers" d=" M 614.9723449951073 628.4987096739478 L 463.6223890072283 509.1947974708016" stroke-opacity="0.8" stroke-linecap="round" stroke-linejoin="round" stroke-miterlimit="10" stroke-width="2.5"/><path fill="none" stroke="rgb(97,97,97)" paint-order="fill stroke markers" d=" M 614.2719357845522 389.00766546285433 L 614.9723449951073 628.4987096739478" stroke-opacity="0.8" stroke-linecap="round" stroke-linejoin="round" stroke-miterlimit="10" stroke-width="2.5"/><path fill="rgb(21,101,192)" stroke="none" paint-order="stroke fill markers" d=" M 468.6223890072283 509.1947974708016 C 468.6223890072283 511.9562212199555 466.38381275638227 514.1947974708016 463.6223890072283 514.1947974708016 C 460.8609652580744 514.1947974708016 458.6223890072283 511.9562212199555 458.6223890072283 509.1947974708016 C 458.6223890072283 506.4333737216476 460.8609652580744 504.1947974708016 463.6223890072283 504.1947974708016 C 466.38381275638227 504.1947974708016 468.6223890072283 506.4333737216476 468.6223890072283 509.1947974708016 Z" fill-opacity="1"/><path fill="none" stroke="rgb(0,0,0)" paint-order="fill stroke markers" d=" M 468.6223890072283 509.1947974708016 C 468.6223890072283 511.9562212199555 466.38381275638227 514.1947974708016 463.6223890072283 514.1947974708016 C 460.8609652580744 514.1947974708016 458.6223890072283 511.9562212199555 458.6223890072283 509.1947974708016 C 458.6223890072283 506.4333737216476 460.8609652580744 504.1947974708016 463.6223890072283 504.1947974708016 C 466.38381275638227 504.1947974708016 468.6223890072283 506.4333737216476 468.6223890072283 509.1947974708016 Z" stroke-opacity="1" stroke-linecap="round" stroke-linejoin="round" stroke-miterlimit="10"/><text fill="rgb(21,101,192)" stroke="none" font-family="geogebra-sans-serif, sans-serif" font-size="16px" font-style="normal" font-weight="normal" text-decoration="normal" x="468" y="499" text-anchor="start" dominant-baseline="alphabetic" fill-opacity="1">A</text><text fill="none" stroke="rgb(255,255,255)" font-family="geogebra-sans-serif, sans-serif" font-size="16px" font-style="normal" font-weight="normal" text-decoration="normal" x="468" y="499" text-anchor="start" dominant-baseline="alphabetic" stroke-opacity="1" stroke-linejoin="bevel" stroke-miterlimit="10" stroke-width="3">A</text><text fill="rgb(21,101,192)" stroke="none" font-family="geogebra-sans-serif, sans-serif" font-size="16px" font-style="normal" font-weight="normal" text-decoration="normal" x="468" y="499" text-anchor="start" dominant-baseline="alphabetic" fill-opacity="1">A</text><path fill="rgb(21,101,192)" stroke="none" paint-order="stroke fill markers" d=" M 619.2719357845522 389.00766546285433 C 619.2719357845522 391.7690892120083 617.0333595337062 394.00766546285433 614.2719357845522 394.00766546285433 C 611.5105120353982 394.00766546285433 609.2719357845522 391.7690892120083 609.2719357845522 389.00766546285433 C 609.2719357845522 386.2462417137004 611.5105120353982 384.00766546285433 614.2719357845522 384.00766546285433 C 617.0333595337062 384.00766546285433 619.2719357845522 386.2462417137004 619.2719357845522 389.00766546285433 Z" fill-opacity="1"/><path fill="none" stroke="rgb(0,0,0)" paint-order="fill stroke markers" d=" M 619.2719357845522 389.00766546285433 C 619.2719357845522 391.7690892120083 617.0333595337062 394.00766546285433 614.2719357845522 394.00766546285433 C 611.5105120353982 394.00766546285433 609.2719357845522 391.7690892120083 609.2719357845522 389.00766546285433 C 609.2719357845522 386.2462417137004 611.5105120353982 384.00766546285433 614.2719357845522 384.00766546285433 C 617.0333595337062 384.00766546285433 619.2719357845522 386.2462417137004 619.2719357845522 389.00766546285433 Z" stroke-opacity="1" stroke-linecap="round" stroke-linejoin="round" stroke-miterlimit="10"/><text fill="rgb(21,101,192)" stroke="none" font-family="geogebra-sans-serif, sans-serif" font-size="16px" font-style="normal" font-weight="normal" text-decoration="normal" x="618" y="379" text-anchor="start" dominant-baseline="alphabetic" fill-opacity="1">B</text><text fill="none" stroke="rgb(255,255,255)" font-family="geogebra-sans-serif, sans-serif" font-size="16px" font-style="normal" font-weight="normal" text-decoration="normal" x="618" y="379" text-anchor="start" dominant-baseline="alphabetic" stroke-opacity="1" stroke-linejoin="bevel" stroke-miterlimit="10" stroke-width="3">B</text><text fill="rgb(21,101,192)" stroke="none" font-family="geogebra-sans-serif, sans-serif" font-size="16px" font-style="normal" font-weight="normal" text-decoration="normal" x="618" y="379" text-anchor="start" dominant-baseline="alphabetic" fill-opacity="1">B</text><path fill="rgb(21,101,192)" stroke="none" paint-order="stroke fill markers" d=" M 770.6218917724309 508.31157766600046 C 770.6218917724309 511.0730014151544 768.3833155215849 513.3115776660004 765.6218917724309 513.3115776660004 C 762.8604680232769 513.3115776660004 760.6218917724309 511.0730014151544 760.6218917724309 508.31157766600046 C 760.6218917724309 505.5501539168465 762.8604680232769 503.31157766600046 765.6218917724309 503.31157766600046 C 768.3833155215849 503.31157766600046 770.6218917724309 505.5501539168465 770.6218917724309 508.31157766600046 Z" fill-opacity="1"/><path fill="none" stroke="rgb(0,0,0)" paint-order="fill stroke markers" d=" M 770.6218917724309 508.31157766600046 C 770.6218917724309 511.0730014151544 768.3833155215849 513.3115776660004 765.6218917724309 513.3115776660004 C 762.8604680232769 513.3115776660004 760.6218917724309 511.0730014151544 760.6218917724309 508.31157766600046 C 760.6218917724309 505.5501539168465 762.8604680232769 503.31157766600046 765.6218917724309 503.31157766600046 C 768.3833155215849 503.31157766600046 770.6218917724309 505.5501539168465 770.6218917724309 508.31157766600046 Z" stroke-opacity="1" stroke-linecap="round" stroke-linejoin="round" stroke-miterlimit="10"/><text fill="rgb(21,101,192)" stroke="none" font-family="geogebra-sans-serif, sans-serif" font-size="16px" font-style="normal" font-weight="normal" text-decoration="normal" x="770" y="498" text-anchor="start" dominant-baseline="alphabetic" fill-opacity="1">C</text><text fill="none" stroke="rgb(255,255,255)" font-family="geogebra-sans-serif, sans-serif" font-size="16px" font-style="normal" font-weight="normal" text-decoration="normal" x="770" y="498" text-anchor="start" dominant-baseline="alphabetic" stroke-opacity="1" stroke-linejoin="bevel" stroke-miterlimit="10" stroke-width="3">C</text><text fill="rgb(21,101,192)" stroke="none" font-family="geogebra-sans-serif, sans-serif" font-size="16px" font-style="normal" font-weight="normal" text-decoration="normal" x="770" y="498" text-anchor="start" dominant-baseline="alphabetic" fill-opacity="1">C</text><path fill="rgb(21,101,192)" stroke="none" paint-order="stroke fill markers" d=" M 619.9723449951073 628.4987096739478 C 619.9723449951073 631.2601334231018 617.7337687442613 633.4987096739478 614.9723449951073 633.4987096739478 C 612.2109212459533 633.4987096739478 609.9723449951073 631.2601334231018 609.9723449951073 628.4987096739478 C 609.9723449951073 625.7372859247938 612.2109212459533 623.4987096739478 614.9723449951073 623.4987096739478 C 617.7337687442613 623.4987096739478 619.9723449951073 625.7372859247938 619.9723449951073 628.4987096739478 Z" fill-opacity="1"/><path fill="none" stroke="rgb(0,0,0)" paint-order="fill stroke markers" d=" M 619.9723449951073 628.4987096739478 C 619.9723449951073 631.2601334231018 617.7337687442613 633.4987096739478 614.9723449951073 633.4987096739478 C 612.2109212459533 633.4987096739478 609.9723449951073 631.2601334231018 609.9723449951073 628.4987096739478 C 609.9723449951073 625.7372859247938 612.2109212459533 623.4987096739478 614.9723449951073 623.4987096739478 C 617.7337687442613 623.4987096739478 619.9723449951073 625.7372859247938 619.9723449951073 628.4987096739478 Z" stroke-opacity="1" stroke-linecap="round" stroke-linejoin="round" stroke-miterlimit="10"/><text fill="rgb(21,101,192)" stroke="none" font-family="geogebra-sans-serif, sans-serif" font-size="16px" font-style="normal" font-weight="normal" text-decoration="normal" x="619" y="618" text-anchor="start" dominant-baseline="alphabetic" fill-opacity="1">D</text><text fill="none" stroke="rgb(255,255,255)" font-family="geogebra-sans-serif, sans-serif" font-size="16px" font-style="normal" font-weight="normal" text-decoration="normal" x="619" y="618" text-anchor="start" dominant-baseline="alphabetic" stroke-opacity="1" stroke-linejoin="bevel" stroke-miterlimit="10" stroke-width="3">D</text><text fill="rgb(21,101,192)" stroke="none" font-family="geogebra-sans-serif, sans-serif" font-size="16px" font-style="normal" font-weight="normal" text-decoration="normal" x="619" y="618" text-anchor="start" dominant-baseline="alphabetic" fill-opacity="1">D</text><path fill="rgb(97,97,97)" stroke="none" paint-order="stroke fill markers" d=" M 618.6221403898298 508.75318756840113 C 618.6221403898298 510.9623265677243 616.831279389153 512.7531875684011 614.6221403898298 512.7531875684011 C 612.4130013905067 512.7531875684011 610.6221403898298 510.9623265677243 610.6221403898298 508.75318756840113 C 610.6221403898298 506.544048569078 612.4130013905067 504.75318756840113 614.6221403898298 504.75318756840113 C 616.831279389153 504.75318756840113 618.6221403898298 506.544048569078 618.6221403898298 508.75318756840113 Z" fill-opacity="1"/><path fill="none" stroke="rgb(0,0,0)" paint-order="fill stroke markers" d=" M 618.6221403898298 508.75318756840113 C 618.6221403898298 510.9623265677243 616.831279389153 512.7531875684011 614.6221403898298 512.7531875684011 C 612.4130013905067 512.7531875684011 610.6221403898298 510.9623265677243 610.6221403898298 508.75318756840113 C 610.6221403898298 506.544048569078 612.4130013905067 504.75318756840113 614.6221403898298 504.75318756840113 C 616.831279389153 504.75318756840113 618.6221403898298 506.544048569078 618.6221403898298 508.75318756840113 Z" stroke-opacity="1" stroke-linecap="round" stroke-linejoin="round" stroke-miterlimit="10"/><text fill="rgb(97,97,97)" stroke="none" font-family="geogebra-sans-serif, sans-serif" font-size="16px" font-style="normal" font-weight="normal" text-decoration="normal" x="619" y="501" text-anchor="start" dominant-baseline="alphabetic" fill-opacity="1">E</text><text fill="none" stroke="rgb(255,255,255)" font-family="geogebra-sans-serif, sans-serif" font-size="16px" font-style="normal" font-weight="normal" text-decoration="normal" x="619" y="501" text-anchor="start" dominant-baseline="alphabetic" stroke-opacity="1" stroke-linejoin="bevel" stroke-miterlimit="10" stroke-width="3">E</text><text fill="rgb(97,97,97)" stroke="none" font-family="geogebra-sans-serif, sans-serif" font-size="16px" font-style="normal" font-weight="normal" text-decoration="normal" x="619" y="501" text-anchor="start" dominant-baseline="alphabetic" fill-opacity="1">E</text><path fill="rgb(97,97,97)" stroke="none" paint-order="stroke fill markers" d=" M 677.1351694250081 582.0968239248709 C 677.1351694250081 584.3059629241941 675.3443084243313 586.0968239248709 673.1351694250081 586.0968239248709 C 670.926030425685 586.0968239248709 669.1351694250081 584.3059629241941 669.1351694250081 582.0968239248709 C 669.1351694250081 579.8876849255478 670.926030425685 578.0968239248709 673.1351694250081 578.0968239248709 C 675.3443084243313 578.0968239248709 677.1351694250081 579.8876849255478 677.1351694250081 582.0968239248709 Z" fill-opacity="1"/><path fill="none" stroke="rgb(0,0,0)" paint-order="fill stroke markers" d=" M 677.1351694250081 582.0968239248709 C 677.1351694250081 584.3059629241941 675.3443084243313 586.0968239248709 673.1351694250081 586.0968239248709 C 670.926030425685 586.0968239248709 669.1351694250081 584.3059629241941 669.1351694250081 582.0968239248709 C 669.1351694250081 579.8876849255478 670.926030425685 578.0968239248709 673.1351694250081 578.0968239248709 C 675.3443084243313 578.0968239248709 677.1351694250081 579.8876849255478 677.1351694250081 582.0968239248709 Z" stroke-opacity="1" stroke-linecap="round" stroke-linejoin="round" stroke-miterlimit="10"/><text fill="rgb(97,97,97)" stroke="none" font-family="geogebra-sans-serif, sans-serif" font-size="16px" font-style="normal" font-weight="normal" text-decoration="normal" x="677" y="574" text-anchor="start" dominant-baseline="alphabetic" fill-opacity="1">F</text><text fill="none" stroke="rgb(255,255,255)" font-family="geogebra-sans-serif, sans-serif" font-size="16px" font-style="normal" font-weight="normal" text-decoration="normal" x="677" y="574" text-anchor="start" dominant-baseline="alphabetic" stroke-opacity="1" stroke-linejoin="bevel" stroke-miterlimit="10" stroke-width="3">F</text><text fill="rgb(97,97,97)" stroke="none" font-family="geogebra-sans-serif, sans-serif" font-size="16px" font-style="normal" font-weight="normal" text-decoration="normal" x="677" y="574" text-anchor="start" dominant-baseline="alphabetic" fill-opacity="1">F</text></g></g></svg>