<svg version="1.1" xmlns="http://www.w3.org/2000/svg" xmlns:xlink="http://www.w3.org/1999/xlink" width="140" height="113"><defs><clipPath id="dbFxUITgBsGP"><path fill="none" stroke="none" d=" M 0 0 L 140 0 L 140 113 L 0 113 L 0 0 Z"/></clipPath></defs><g transform="scale(1,1)" clip-path="url(#dbFxUITgBsGP)"><g transform="translate(-310,-407)"><rect fill="rgb(255,255,255)" stroke="none" x="0" y="0" width="1126" height="932" fill-opacity="1"/><path fill="rgb(21,101,192)" stroke="none" paint-order="stroke fill markers" fill-rule="evenodd" d=" M 353.6570834656878 433.87427108775364 L 322.27194130240423 503.2519537644856 L 429.3668562279946 504.62849508743665 Z" fill-opacity="0.09803921568627451"/><path fill="none" stroke="rgb(97,97,97)" paint-order="fill stroke markers" d=" M -5 711.4361415250563 L 1121.2596327717686 -5" stroke-opacity="0.8" stroke-linecap="round" stroke-linejoin="round" stroke-miterlimit="10" stroke-width="2.5"/><path fill="none" stroke="rgb(97,97,97)" paint-order="fill stroke markers" d=" M -5 330.0204380298695 L 1131 786.6730347309447" stroke-opacity="0.8" stroke-linecap="round" stroke-linejoin="round" stroke-miterlimit="10" stroke-width="2.5"/><path fill="none" stroke="rgb(21,101,192)" paint-order="fill stroke markers" d=" M 353.6570834656878 433.87427108775364 L 322.27194130240423 503.2519537644856" stroke-opacity="0.8" stroke-linecap="round" stroke-linejoin="round" stroke-miterlimit="10" stroke-width="2.5"/><path fill="none" stroke="rgb(21,101,192)" paint-order="fill stroke markers" d=" M 322.27194130240423 503.2519537644856 L 429.3668562279946 504.62849508743665" stroke-opacity="0.8" stroke-linecap="round" stroke-linejoin="round" stroke-miterlimit="10" stroke-width="2.5"/><path fill="none" stroke="rgb(21,101,192)" paint-order="fill stroke markers" d=" M 429.3668562279946 504.62849508743665 L 353.6570834656878 433.87427108775364" stroke-opacity="0.8" stroke-linecap="round" stroke-linejoin="round" stroke-miterlimit="10" stroke-width="2.5"/><path fill="rgb(21,101,192)" stroke="none" paint-order="stroke fill markers" d=" M 358.6570834656878 433.87427108775364 C 358.6570834656878 436.6356948369076 356.4185072148417 438.87427108775364 353.6570834656878 438.87427108775364 C 350.8956597165338 438.87427108775364 348.6570834656878 436.6356948369076 348.6570834656878 433.87427108775364 C 348.6570834656878 431.1128473385997 350.8956597165338 428.87427108775364 353.6570834656878 428.87427108775364 C 356.4185072148417 428.87427108775364 358.6570834656878 431.1128473385997 358.6570834656878 433.87427108775364 Z" fill-opacity="1"/><path fill="none" stroke="rgb(0,0,0)" paint-order="fill stroke markers" d=" M 358.6570834656878 433.87427108775364 C 358.6570834656878 436.6356948369076 356.4185072148417 438.87427108775364 353.6570834656878 438.87427108775364 C 350.8956597165338 438.87427108775364 348.6570834656878 436.6356948369076 348.6570834656878 433.87427108775364 C 348.6570834656878 431.1128473385997 350.8956597165338 428.87427108775364 353.6570834656878 428.87427108775364 C 356.4185072148417 428.87427108775364 358.6570834656878 431.1128473385997 358.6570834656878 433.87427108775364 Z" stroke-opacity="1" stroke-linecap="round" stroke-linejoin="round" stroke-miterlimit="10"/><text fill="rgb(21,101,192)" stroke="none" font-family="geogebra-sans-serif, sans-serif" font-size="16px" font-style="normal" font-weight="normal" text-decoration="normal" x="358" y="424" text-anchor="start" dominant-baseline="alphabetic" fill-opacity="1">A</text><text fill="none" stroke="rgb(255,255,255)" font-family="geogebra-sans-serif, sans-serif" font-size="16px" font-style="normal" font-weight="normal" text-decoration="normal" x="358" y="424" text-anchor="start" dominant-baseline="alphabetic" stroke-opacity="1" stroke-linejoin="bevel" stroke-miterlimit="10" stroke-width="3">A</text><text fill="rgb(21,101,192)" stroke="none" font-family="geogebra-sans-serif, sans-serif" font-size="16px" font-style="normal" font-weight="normal" text-decoration="normal" x="358" y="424" text-anchor="start" dominant-baseline="alphabetic" fill-opacity="1">A</text><path fill="rgb(21,101,192)" stroke="none" paint-order="stroke fill markers" d=" M 327.27194130240423 503.2519537644856 C 327.27194130240423 506.01337751363957 325.0333650515582 508.2519537644856 322.27194130240423 508.2519537644856 C 319.5105175532503 508.2519537644856 317.27194130240423 506.01337751363957 317.27194130240423 503.2519537644856 C 317.27194130240423 500.4905300153317 319.5105175532503 498.2519537644856 322.27194130240423 498.2519537644856 C 325.0333650515582 498.2519537644856 327.27194130240423 500.4905300153317 327.27194130240423 503.2519537644856 Z" fill-opacity="1"/><path fill="none" stroke="rgb(0,0,0)" paint-order="fill stroke markers" d=" M 327.27194130240423 503.2519537644856 C 327.27194130240423 506.01337751363957 325.0333650515582 508.2519537644856 322.27194130240423 508.2519537644856 C 319.5105175532503 508.2519537644856 317.27194130240423 506.01337751363957 317.27194130240423 503.2519537644856 C 317.27194130240423 500.4905300153317 319.5105175532503 498.2519537644856 322.27194130240423 498.2519537644856 C 325.0333650515582 498.2519537644856 327.27194130240423 500.4905300153317 327.27194130240423 503.2519537644856 Z" stroke-opacity="1" stroke-linecap="round" stroke-linejoin="round" stroke-miterlimit="10"/><text fill="rgb(21,101,192)" stroke="none" font-family="geogebra-sans-serif, sans-serif" font-size="16px" font-style="normal" font-weight="normal" text-decoration="normal" x="326" y="493" text-anchor="start" dominant-baseline="alphabetic" fill-opacity="1">B</text><text fill="none" stroke="rgb(255,255,255)" font-family="geogebra-sans-serif, sans-serif" font-size="16px" font-style="normal" font-weight="normal" text-decoration="normal" x="326" y="493" text-anchor="start" dominant-baseline="alphabetic" stroke-opacity="1" stroke-linejoin="bevel" stroke-miterlimit="10" stroke-width="3">B</text><text fill="rgb(21,101,192)" stroke="none" font-family="geogebra-sans-serif, sans-serif" font-size="16px" font-style="normal" font-weight="normal" text-decoration="normal" x="326" y="493" text-anchor="start" dominant-baseline="alphabetic" fill-opacity="1">B</text><path fill="rgb(21,101,192)" stroke="none" paint-order="stroke fill markers" d=" M 434.3668562279946 504.62849508743665 C 434.3668562279946 507.3899188365906 432.12827997714857 509.62849508743665 429.3668562279946 509.62849508743665 C 426.60543247884067 509.62849508743665 424.3668562279946 507.3899188365906 424.3668562279946 504.62849508743665 C 424.3668562279946 501.8670713382827 426.60543247884067 499.62849508743665 429.3668562279946 499.62849508743665 C 432.12827997714857 499.62849508743665 434.3668562279946 501.8670713382827 434.3668562279946 504.62849508743665 Z" fill-opacity="1"/><path fill="none" stroke="rgb(0,0,0)" paint-order="fill stroke markers" d=" M 434.3668562279946 504.62849508743665 C 434.3668562279946 507.3899188365906 432.12827997714857 509.62849508743665 429.3668562279946 509.62849508743665 C 426.60543247884067 509.62849508743665 424.3668562279946 507.3899188365906 424.3668562279946 504.62849508743665 C 424.3668562279946 501.8670713382827 426.60543247884067 499.62849508743665 429.3668562279946 499.62849508743665 C 432.12827997714857 499.62849508743665 434.3668562279946 501.8670713382827 434.3668562279946 504.62849508743665 Z" stroke-opacity="1" stroke-linecap="round" stroke-linejoin="round" stroke-miterlimit="10"/><text fill="rgb(21,101,192)" stroke="none" font-family="geogebra-sans-serif, sans-serif" font-size="16px" font-style="normal" font-weight="normal" text-decoration="normal" x="433" y="495" text-anchor="start" dominant-baseline="alphabetic" fill-opacity="1">C</text><text fill="none" stroke="rgb(255,255,255)" font-family="geogebra-sans-serif, sans-serif" font-size="16px" font-style="normal" font-weight="normal" text-decoration="normal" x="433" y="495" text-anchor="start" dominant-baseline="alphabetic" stroke-opacity="1" stroke-linejoin="bevel" stroke-miterlimit="10" stroke-width="3">C</text><text fill="rgb(21,101,192)" stroke="none" font-family="geogebra-sans-serif, sans-serif" font-size="16px" font-style="normal" font-weight="normal" text-decoration="normal" x="433" y="495" text-anchor="start" dominant-baseline="alphabetic" fill-opacity="1">C</text><path fill="rgb(97,97,97)" stroke="none" paint-order="stroke fill markers" d=" M 366.4161209580063 477.71544305214934 C 366.4161209580063 479.9245820514725 364.62525995732943 481.71544305214934 362.4161209580063 481.71544305214934 C 360.2069819586831 481.71544305214934 358.4161209580063 479.9245820514725 358.4161209580063 477.71544305214934 C 358.4161209580063 475.5063040528262 360.2069819586831 473.71544305214934 362.4161209580063 473.71544305214934 C 364.62525995732943 473.71544305214934 366.4161209580063 475.5063040528262 366.4161209580063 477.71544305214934 Z" fill-opacity="1"/><path fill="none" stroke="rgb(0,0,0)" paint-order="fill stroke markers" d=" M 366.4161209580063 477.71544305214934 C 366.4161209580063 479.9245820514725 364.62525995732943 481.71544305214934 362.4161209580063 481.71544305214934 C 360.2069819586831 481.71544305214934 358.4161209580063 479.9245820514725 358.4161209580063 477.71544305214934 C 358.4161209580063 475.5063040528262 360.2069819586831 473.71544305214934 362.4161209580063 473.71544305214934 C 364.62525995732943 473.71544305214934 366.4161209580063 475.5063040528262 366.4161209580063 477.71544305214934 Z" stroke-opacity="1" stroke-linecap="round" stroke-linejoin="round" stroke-miterlimit="10"/><text fill="rgb(97,97,97)" stroke="none" font-family="geogebra-sans-serif, sans-serif" font-size="16px" font-style="normal" font-weight="normal" text-decoration="normal" x="366" y="470" text-anchor="start" dominant-baseline="alphabetic" fill-opacity="1">D</text><text fill="none" stroke="rgb(255,255,255)" font-family="geogebra-sans-serif, sans-serif" font-size="16px" font-style="normal" font-weight="normal" text-decoration="normal" x="366" y="470" text-anchor="start" dominant-baseline="alphabetic" stroke-opacity="1" stroke-linejoin="bevel" stroke-miterlimit="10" stroke-width="3">D</text><text fill="rgb(97,97,97)" stroke="none" font-family="geogebra-sans-serif, sans-serif" font-size="16px" font-style="normal" font-weight="normal" text-decoration="normal" x="366" y="470" text-anchor="start" dominant-baseline="alphabetic" fill-opacity="1">D</text></g></g></svg>