<svg version="1.1" xmlns="http://www.w3.org/2000/svg" xmlns:xlink="http://www.w3.org/1999/xlink" width="343" height="303"><defs><clipPath id="EXdsZEmDONto"><path fill="none" stroke="none" d=" M 0 0 L 343 0 L 343 303 L 0 303 L 0 0 Z"/></clipPath></defs><g transform="scale(1,1)" clip-path="url(#EXdsZEmDONto)"><g transform="translate(-236,-398)"><rect fill="rgb(255,255,255)" stroke="none" x="0" y="0" width="1126" height="932" fill-opacity="1"/><path fill="rgb(21,101,192)" stroke="none" paint-order="stroke fill markers" fill-rule="evenodd" d=" M 395.37409328722475 506.5563212709104 L 347.57947063067127 591.6307495995757 L 486.8211379700972 594.4984269589689 Z" fill-opacity="0.09803921568627451"/><path fill="none" stroke="rgb(97,97,97)" paint-order="fill stroke markers" d=" M 445.1601260411137 591.6307495995757 C 445.1601260411137 645.5230574612568 401.4717784923523 689.2114050100183 347.57947063067127 689.2114050100183 C 293.6871627689902 689.2114050100183 249.9988152202288 645.5230574612568 249.9988152202288 591.6307495995757 C 249.9988152202288 537.7384417378945 293.6871627689902 494.05009418913295 347.57947063067127 494.05009418913295 C 401.4717784923523 494.05009418913295 445.1601260411137 537.7384417378945 445.1601260411137 591.6307495995757 Z" stroke-opacity="0.8" stroke-linecap="round" stroke-linejoin="round" stroke-miterlimit="10" stroke-width="2.5"/><path fill="none" stroke="rgb(97,97,97)" paint-order="fill stroke markers" d=" M 492.9547486976672 506.5563212709104 C 492.9547486976672 560.4486291325916 449.26640114890574 604.1369766813532 395.3740932872247 604.1369766813532 C 341.48178542554365 604.1369766813532 297.79343787678226 560.4486291325916 297.79343787678226 506.5563212709104 C 297.79343787678226 452.6640134092292 341.48178542554365 408.9756658604677 395.3740932872247 408.9756658604677 C 449.26640114890574 408.9756658604677 492.9547486976672 452.6640134092292 492.9547486976672 506.5563212709104 Z" stroke-opacity="0.8" stroke-linecap="round" stroke-linejoin="round" stroke-miterlimit="10" stroke-width="2.5"/><path fill="none" stroke="rgb(97,97,97)" paint-order="fill stroke markers" d=" M 542.7200934875686 593.6399937803951 C 542.7200934875686 647.5323016420763 499.03174593880726 691.2206491908378 445.1394380771262 691.2206491908378 C 391.24713021544517 691.2206491908378 347.5587826666838 647.5323016420763 347.5587826666838 593.6399937803951 C 347.5587826666838 539.747685918714 391.24713021544517 496.0593383699524 445.1394380771262 496.0593383699524 C 499.03174593880726 496.0593383699524 542.7200934875686 539.747685918714 542.7200934875686 593.6399937803951 Z" stroke-opacity="0.8" stroke-linecap="round" stroke-linejoin="round" stroke-miterlimit="10" stroke-width="2.5"/><path fill="none" stroke="rgb(97,97,97)" paint-order="fill stroke markers" d=" M 563.2894022089217 574.1952215116987 C 563.2894022089217 628.08752937338 519.6010546601603 671.7758769221415 465.7087467984793 671.7758769221415 C 411.8164389367982 671.7758769221415 368.1280913880368 628.08752937338 368.1280913880368 574.1952215116987 C 368.1280913880368 520.3029136500176 411.8164389367982 476.614566101256 465.7087467984793 476.614566101256 C 519.6010546601603 476.614566101256 563.2894022089217 520.3029136500176 563.2894022089217 574.1952215116987 Z" stroke-opacity="0.8" stroke-linecap="round" stroke-linejoin="round" stroke-miterlimit="10" stroke-width="2.5"/><path fill="none" stroke="rgb(21,101,192)" paint-order="fill stroke markers" d=" M 395.37409328722475 506.5563212709104 L 347.57947063067127 591.6307495995757" stroke-opacity="0.8" stroke-linecap="round" stroke-linejoin="round" stroke-miterlimit="10" stroke-width="2.5"/><path fill="none" stroke="rgb(21,101,192)" paint-order="fill stroke markers" d=" M 347.57947063067127 591.6307495995757 L 486.8211379700972 594.4984269589689" stroke-opacity="0.8" stroke-linecap="round" stroke-linejoin="round" stroke-miterlimit="10" stroke-width="2.5"/><path fill="none" stroke="rgb(21,101,192)" paint-order="fill stroke markers" d=" M 486.8211379700972 594.4984269589689 L 395.37409328722475 506.5563212709104" stroke-opacity="0.8" stroke-linecap="round" stroke-linejoin="round" stroke-miterlimit="10" stroke-width="2.5"/><path fill="none" stroke="rgb(97,97,97)" paint-order="fill stroke markers" d=" M 347.57947063067127 591.6307495995757 L 1126 146.79000139406952" stroke-opacity="0.8" stroke-linecap="round" stroke-linejoin="round" stroke-miterlimit="10" stroke-width="2.5"/><path fill="none" stroke="rgb(97,97,97)" paint-order="fill stroke markers" d=" M 395.37409328722475 506.5563212709104 L 458.16830866659734 932" stroke-opacity="0.8" stroke-linecap="round" stroke-linejoin="round" stroke-miterlimit="10" stroke-width="2.5"/><path fill="rgb(21,101,192)" stroke="none" paint-order="stroke fill markers" d=" M 400.37409328722475 506.5563212709104 C 400.37409328722475 509.31774502006436 398.1355170363787 511.5563212709104 395.37409328722475 511.5563212709104 C 392.6126695380708 511.5563212709104 390.37409328722475 509.31774502006436 390.37409328722475 506.5563212709104 C 390.37409328722475 503.79489752175647 392.6126695380708 501.5563212709104 395.37409328722475 501.5563212709104 C 398.1355170363787 501.5563212709104 400.37409328722475 503.79489752175647 400.37409328722475 506.5563212709104 Z" fill-opacity="1"/><path fill="none" stroke="rgb(0,0,0)" paint-order="fill stroke markers" d=" M 400.37409328722475 506.5563212709104 C 400.37409328722475 509.31774502006436 398.1355170363787 511.5563212709104 395.37409328722475 511.5563212709104 C 392.6126695380708 511.5563212709104 390.37409328722475 509.31774502006436 390.37409328722475 506.5563212709104 C 390.37409328722475 503.79489752175647 392.6126695380708 501.5563212709104 395.37409328722475 501.5563212709104 C 398.1355170363787 501.5563212709104 400.37409328722475 503.79489752175647 400.37409328722475 506.5563212709104 Z" stroke-opacity="1" stroke-linecap="round" stroke-linejoin="round" stroke-miterlimit="10"/><text fill="rgb(21,101,192)" stroke="none" font-family="geogebra-sans-serif, sans-serif" font-size="16px" font-style="normal" font-weight="normal" text-decoration="normal" x="399" y="497" text-anchor="start" dominant-baseline="alphabetic" fill-opacity="1">A</text><text fill="none" stroke="rgb(255,255,255)" font-family="geogebra-sans-serif, sans-serif" font-size="16px" font-style="normal" font-weight="normal" text-decoration="normal" x="399" y="497" text-anchor="start" dominant-baseline="alphabetic" stroke-opacity="1" stroke-linejoin="bevel" stroke-miterlimit="10" stroke-width="3">A</text><text fill="rgb(21,101,192)" stroke="none" font-family="geogebra-sans-serif, sans-serif" font-size="16px" font-style="normal" font-weight="normal" text-decoration="normal" x="399" y="497" text-anchor="start" dominant-baseline="alphabetic" fill-opacity="1">A</text><path fill="rgb(21,101,192)" stroke="none" paint-order="stroke fill markers" d=" M 352.57947063067127 591.6307495995757 C 352.57947063067127 594.3921733487297 350.3408943798252 596.6307495995757 347.57947063067127 596.6307495995757 C 344.8180468815173 596.6307495995757 342.57947063067127 594.3921733487297 342.57947063067127 591.6307495995757 C 342.57947063067127 588.8693258504217 344.8180468815173 586.6307495995757 347.57947063067127 586.6307495995757 C 350.3408943798252 586.6307495995757 352.57947063067127 588.8693258504217 352.57947063067127 591.6307495995757 Z" fill-opacity="1"/><path fill="none" stroke="rgb(0,0,0)" paint-order="fill stroke markers" d=" M 352.57947063067127 591.6307495995757 C 352.57947063067127 594.3921733487297 350.3408943798252 596.6307495995757 347.57947063067127 596.6307495995757 C 344.8180468815173 596.6307495995757 342.57947063067127 594.3921733487297 342.57947063067127 591.6307495995757 C 342.57947063067127 588.8693258504217 344.8180468815173 586.6307495995757 347.57947063067127 586.6307495995757 C 350.3408943798252 586.6307495995757 352.57947063067127 588.8693258504217 352.57947063067127 591.6307495995757 Z" stroke-opacity="1" stroke-linecap="round" stroke-linejoin="round" stroke-miterlimit="10"/><text fill="rgb(21,101,192)" stroke="none" font-family="geogebra-sans-serif, sans-serif" font-size="16px" font-style="normal" font-weight="normal" text-decoration="normal" x="352" y="582" text-anchor="start" dominant-baseline="alphabetic" fill-opacity="1">B</text><text fill="none" stroke="rgb(255,255,255)" font-family="geogebra-sans-serif, sans-serif" font-size="16px" font-style="normal" font-weight="normal" text-decoration="normal" x="352" y="582" text-anchor="start" dominant-baseline="alphabetic" stroke-opacity="1" stroke-linejoin="bevel" stroke-miterlimit="10" stroke-width="3">B</text><text fill="rgb(21,101,192)" stroke="none" font-family="geogebra-sans-serif, sans-serif" font-size="16px" font-style="normal" font-weight="normal" text-decoration="normal" x="352" y="582" text-anchor="start" dominant-baseline="alphabetic" fill-opacity="1">B</text><path fill="rgb(21,101,192)" stroke="none" paint-order="stroke fill markers" d=" M 491.8211379700972 594.4984269589689 C 491.8211379700972 597.2598507081229 489.58256171925115 599.4984269589689 486.8211379700972 599.4984269589689 C 484.05971422094325 599.4984269589689 481.8211379700972 597.2598507081229 481.8211379700972 594.4984269589689 C 481.8211379700972 591.7370032098149 484.05971422094325 589.4984269589689 486.8211379700972 589.4984269589689 C 489.58256171925115 589.4984269589689 491.8211379700972 591.7370032098149 491.8211379700972 594.4984269589689 Z" fill-opacity="1"/><path fill="none" stroke="rgb(0,0,0)" paint-order="fill stroke markers" d=" M 491.8211379700972 594.4984269589689 C 491.8211379700972 597.2598507081229 489.58256171925115 599.4984269589689 486.8211379700972 599.4984269589689 C 484.05971422094325 599.4984269589689 481.8211379700972 597.2598507081229 481.8211379700972 594.4984269589689 C 481.8211379700972 591.7370032098149 484.05971422094325 589.4984269589689 486.8211379700972 589.4984269589689 C 489.58256171925115 589.4984269589689 491.8211379700972 591.7370032098149 491.8211379700972 594.4984269589689 Z" stroke-opacity="1" stroke-linecap="round" stroke-linejoin="round" stroke-miterlimit="10"/><text fill="rgb(21,101,192)" stroke="none" font-family="geogebra-sans-serif, sans-serif" font-size="16px" font-style="normal" font-weight="normal" text-decoration="normal" x="491" y="584" text-anchor="start" dominant-baseline="alphabetic" fill-opacity="1">C</text><text fill="none" stroke="rgb(255,255,255)" font-family="geogebra-sans-serif, sans-serif" font-size="16px" font-style="normal" font-weight="normal" text-decoration="normal" x="491" y="584" text-anchor="start" dominant-baseline="alphabetic" stroke-opacity="1" stroke-linejoin="bevel" stroke-miterlimit="10" stroke-width="3">C</text><text fill="rgb(21,101,192)" stroke="none" font-family="geogebra-sans-serif, sans-serif" font-size="16px" font-style="normal" font-weight="normal" text-decoration="normal" x="491" y="584" text-anchor="start" dominant-baseline="alphabetic" fill-opacity="1">C</text><path fill="rgb(97,97,97)" stroke="none" paint-order="stroke fill markers" d=" M 449.1394380771262 593.6399937803951 C 449.1394380771262 595.8491327797183 447.3485770764494 597.6399937803951 445.1394380771262 597.6399937803951 C 442.93029907780306 597.6399937803951 441.1394380771262 595.8491327797183 441.1394380771262 593.6399937803951 C 441.1394380771262 591.430854781072 442.93029907780306 589.6399937803951 445.1394380771262 589.6399937803951 C 447.3485770764494 589.6399937803951 449.1394380771262 591.430854781072 449.1394380771262 593.6399937803951 Z" fill-opacity="1"/><path fill="none" stroke="rgb(0,0,0)" paint-order="fill stroke markers" d=" M 449.1394380771262 593.6399937803951 C 449.1394380771262 595.8491327797183 447.3485770764494 597.6399937803951 445.1394380771262 597.6399937803951 C 442.93029907780306 597.6399937803951 441.1394380771262 595.8491327797183 441.1394380771262 593.6399937803951 C 441.1394380771262 591.430854781072 442.93029907780306 589.6399937803951 445.1394380771262 589.6399937803951 C 447.3485770764494 589.6399937803951 449.1394380771262 591.430854781072 449.1394380771262 593.6399937803951 Z" stroke-opacity="1" stroke-linecap="round" stroke-linejoin="round" stroke-miterlimit="10"/><text fill="rgb(97,97,97)" stroke="none" font-family="geogebra-sans-serif, sans-serif" font-size="16px" font-style="normal" font-weight="normal" text-decoration="normal" x="449" y="586" text-anchor="start" dominant-baseline="alphabetic" fill-opacity="1">D</text><text fill="none" stroke="rgb(255,255,255)" font-family="geogebra-sans-serif, sans-serif" font-size="16px" font-style="normal" font-weight="normal" text-decoration="normal" x="449" y="586" text-anchor="start" dominant-baseline="alphabetic" stroke-opacity="1" stroke-linejoin="bevel" stroke-miterlimit="10" stroke-width="3">D</text><text fill="rgb(97,97,97)" stroke="none" font-family="geogebra-sans-serif, sans-serif" font-size="16px" font-style="normal" font-weight="normal" text-decoration="normal" x="449" y="586" text-anchor="start" dominant-baseline="alphabetic" fill-opacity="1">D</text><path fill="rgb(97,97,97)" stroke="none" paint-order="stroke fill markers" d=" M 469.7087467984793 574.1952215116987 C 469.7087467984793 576.4043605110219 467.91788579780246 578.1952215116987 465.7087467984793 578.1952215116987 C 463.49960779915614 578.1952215116987 461.7087467984793 576.4043605110219 461.7087467984793 574.1952215116987 C 461.7087467984793 571.9860825123756 463.49960779915614 570.1952215116987 465.7087467984793 570.1952215116987 C 467.91788579780246 570.1952215116987 469.7087467984793 571.9860825123756 469.7087467984793 574.1952215116987 Z" fill-opacity="1"/><path fill="none" stroke="rgb(0,0,0)" paint-order="fill stroke markers" d=" M 469.7087467984793 574.1952215116987 C 469.7087467984793 576.4043605110219 467.91788579780246 578.1952215116987 465.7087467984793 578.1952215116987 C 463.49960779915614 578.1952215116987 461.7087467984793 576.4043605110219 461.7087467984793 574.1952215116987 C 461.7087467984793 571.9860825123756 463.49960779915614 570.1952215116987 465.7087467984793 570.1952215116987 C 467.91788579780246 570.1952215116987 469.7087467984793 571.9860825123756 469.7087467984793 574.1952215116987 Z" stroke-opacity="1" stroke-linecap="round" stroke-linejoin="round" stroke-miterlimit="10"/><text fill="rgb(97,97,97)" stroke="none" font-family="geogebra-sans-serif, sans-serif" font-size="16px" font-style="normal" font-weight="normal" text-decoration="normal" x="470" y="566" text-anchor="start" dominant-baseline="alphabetic" fill-opacity="1">E</text><text fill="none" stroke="rgb(255,255,255)" font-family="geogebra-sans-serif, sans-serif" font-size="16px" font-style="normal" font-weight="normal" text-decoration="normal" x="470" y="566" text-anchor="start" dominant-baseline="alphabetic" stroke-opacity="1" stroke-linejoin="bevel" stroke-miterlimit="10" stroke-width="3">E</text><text fill="rgb(97,97,97)" stroke="none" font-family="geogebra-sans-serif, sans-serif" font-size="16px" font-style="normal" font-weight="normal" text-decoration="normal" x="470" y="566" text-anchor="start" dominant-baseline="alphabetic" fill-opacity="1">E</text><path fill="rgb(97,97,97)" stroke="none" paint-order="stroke fill markers" d=" M 496.93406073367976 508.5655654517298 C 496.93406073367976 510.77470445105297 495.1431997330029 512.5655654517298 492.93406073367976 512.5655654517298 C 490.7249217343566 512.5655654517298 488.93406073367976 510.77470445105297 488.93406073367976 508.5655654517298 C 488.93406073367976 506.35642645240665 490.7249217343566 504.5655654517298 492.93406073367976 504.5655654517298 C 495.1431997330029 504.5655654517298 496.93406073367976 506.35642645240665 496.93406073367976 508.5655654517298 Z" fill-opacity="1"/><path fill="none" stroke="rgb(0,0,0)" paint-order="fill stroke markers" d=" M 496.93406073367976 508.5655654517298 C 496.93406073367976 510.77470445105297 495.1431997330029 512.5655654517298 492.93406073367976 512.5655654517298 C 490.7249217343566 512.5655654517298 488.93406073367976 510.77470445105297 488.93406073367976 508.5655654517298 C 488.93406073367976 506.35642645240665 490.7249217343566 504.5655654517298 492.93406073367976 504.5655654517298 C 495.1431997330029 504.5655654517298 496.93406073367976 506.35642645240665 496.93406073367976 508.5655654517298 Z" stroke-opacity="1" stroke-linecap="round" stroke-linejoin="round" stroke-miterlimit="10"/><text fill="rgb(97,97,97)" stroke="none" font-family="geogebra-sans-serif, sans-serif" font-size="16px" font-style="normal" font-weight="normal" text-decoration="normal" x="497" y="501" text-anchor="start" dominant-baseline="alphabetic" fill-opacity="1">F</text><text fill="none" stroke="rgb(255,255,255)" font-family="geogebra-sans-serif, sans-serif" font-size="16px" font-style="normal" font-weight="normal" text-decoration="normal" x="497" y="501" text-anchor="start" dominant-baseline="alphabetic" stroke-opacity="1" stroke-linejoin="bevel" stroke-miterlimit="10" stroke-width="3">F</text><text fill="rgb(97,97,97)" stroke="none" font-family="geogebra-sans-serif, sans-serif" font-size="16px" font-style="normal" font-weight="normal" text-decoration="normal" x="497" y="501" text-anchor="start" dominant-baseline="alphabetic" fill-opacity="1">F</text><path fill="rgb(97,97,97)" stroke="none" paint-order="stroke fill markers" d=" M 421.91412414192575 659.2696498403641 C 421.91412414192575 661.4787888396872 420.1232631412489 663.2696498403641 417.91412414192575 663.2696498403641 C 415.7049851426026 663.2696498403641 413.91412414192575 661.4787888396872 413.91412414192575 659.2696498403641 C 413.91412414192575 657.0605108410409 415.7049851426026 655.2696498403641 417.91412414192575 655.2696498403641 C 420.1232631412489 655.2696498403641 421.91412414192575 657.0605108410409 421.91412414192575 659.2696498403641 Z" fill-opacity="1"/><path fill="none" stroke="rgb(0,0,0)" paint-order="fill stroke markers" d=" M 421.91412414192575 659.2696498403641 C 421.91412414192575 661.4787888396872 420.1232631412489 663.2696498403641 417.91412414192575 663.2696498403641 C 415.7049851426026 663.2696498403641 413.91412414192575 661.4787888396872 413.91412414192575 659.2696498403641 C 413.91412414192575 657.0605108410409 415.7049851426026 655.2696498403641 417.91412414192575 655.2696498403641 C 420.1232631412489 655.2696498403641 421.91412414192575 657.0605108410409 421.91412414192575 659.2696498403641 Z" stroke-opacity="1" stroke-linecap="round" stroke-linejoin="round" stroke-miterlimit="10"/><text fill="rgb(97,97,97)" stroke="none" font-family="geogebra-sans-serif, sans-serif" font-size="16px" font-style="normal" font-weight="normal" text-decoration="normal" x="422" y="651" text-anchor="start" dominant-baseline="alphabetic" fill-opacity="1">G</text><text fill="none" stroke="rgb(255,255,255)" font-family="geogebra-sans-serif, sans-serif" font-size="16px" font-style="normal" font-weight="normal" text-decoration="normal" x="422" y="651" text-anchor="start" dominant-baseline="alphabetic" stroke-opacity="1" stroke-linejoin="bevel" stroke-miterlimit="10" stroke-width="3">G</text><text fill="rgb(97,97,97)" stroke="none" font-family="geogebra-sans-serif, sans-serif" font-size="16px" font-style="normal" font-weight="normal" text-decoration="normal" x="422" y="651" text-anchor="start" dominant-baseline="alphabetic" fill-opacity="1">G</text><path fill="rgb(97,97,97)" stroke="none" paint-order="stroke fill markers" d=" M 407.23635298927564 559.8247421048267 C 407.23635298927564 562.0338811041498 405.4454919885988 563.8247421048267 403.23635298927564 563.8247421048267 C 401.0272139899525 563.8247421048267 399.23635298927564 562.0338811041498 399.23635298927564 559.8247421048267 C 399.23635298927564 557.6156031055035 401.0272139899525 555.8247421048267 403.23635298927564 555.8247421048267 C 405.4454919885988 555.8247421048267 407.23635298927564 557.6156031055035 407.23635298927564 559.8247421048267 Z" fill-opacity="1"/><path fill="none" stroke="rgb(0,0,0)" paint-order="fill stroke markers" d=" M 407.23635298927564 559.8247421048267 C 407.23635298927564 562.0338811041498 405.4454919885988 563.8247421048267 403.23635298927564 563.8247421048267 C 401.0272139899525 563.8247421048267 399.23635298927564 562.0338811041498 399.23635298927564 559.8247421048267 C 399.23635298927564 557.6156031055035 401.0272139899525 555.8247421048267 403.23635298927564 555.8247421048267 C 405.4454919885988 555.8247421048267 407.23635298927564 557.6156031055035 407.23635298927564 559.8247421048267 Z" stroke-opacity="1" stroke-linecap="round" stroke-linejoin="round" stroke-miterlimit="10"/><text fill="rgb(97,97,97)" stroke="none" font-family="geogebra-sans-serif, sans-serif" font-size="16px" font-style="normal" font-weight="normal" text-decoration="normal" x="407" y="552" text-anchor="start" dominant-baseline="alphabetic" fill-opacity="1">H</text><text fill="none" stroke="rgb(255,255,255)" font-family="geogebra-sans-serif, sans-serif" font-size="16px" font-style="normal" font-weight="normal" text-decoration="normal" x="407" y="552" text-anchor="start" dominant-baseline="alphabetic" stroke-opacity="1" stroke-linejoin="bevel" stroke-miterlimit="10" stroke-width="3">H</text><text fill="rgb(97,97,97)" stroke="none" font-family="geogebra-sans-serif, sans-serif" font-size="16px" font-style="normal" font-weight="normal" text-decoration="normal" x="407" y="552" text-anchor="start" dominant-baseline="alphabetic" fill-opacity="1">H</text></g></g></svg>