<svg version="1.1" xmlns="http://www.w3.org/2000/svg" xmlns:xlink="http://www.w3.org/1999/xlink" width="269" height="189"><defs><clipPath id="TIeCVTFIHvEN"><path fill="none" stroke="none" d=" M 0 0 L 269 0 L 269 189 L 0 189 L 0 0 Z"/></clipPath></defs><g transform="scale(1,1)" clip-path="url(#TIeCVTFIHvEN)"><g transform="translate(-383,-434)"><rect fill="rgb(255,255,255)" stroke="none" x="0" y="0" width="1126" height="932" fill-opacity="1"/><path fill="none" stroke="rgb(97,97,97)" paint-order="fill stroke markers" d=" M 559.3356673596584 531.7879078183682 C 559.3356673596584 576.7731908844787 522.8678900617214 613.2409681824158 477.88260699561107 613.2409681824158 C 432.8973239295007 613.2409681824158 396.42954663156377 576.7731908844787 396.42954663156377 531.7879078183682 C 396.42954663156377 486.8026247522577 432.8973239295007 450.33484745432065 477.88260699561107 450.33484745432065 C 522.8678900617214 450.33484745432065 559.3356673596584 486.8026247522577 559.3356673596584 531.7879078183682 Z" stroke-opacity="0.8" stroke-linecap="round" stroke-linejoin="round" stroke-miterlimit="10" stroke-width="2.5"/><path fill="none" stroke="rgb(97,97,97)" paint-order="fill stroke markers" d=" M 640.7857271689134 531.0887656740829 C 640.7857271689134 576.0740487401933 604.3179498709765 612.5418260381305 559.3326668048661 612.5418260381305 C 514.3473837387558 612.5418260381305 477.87960644081886 576.0740487401933 477.87960644081886 531.0887656740829 C 477.87960644081886 486.10348260797235 514.3473837387558 449.6357053100353 559.3326668048661 449.6357053100353 C 604.3179498709765 449.6357053100353 640.7857271689134 486.10348260797235 640.7857271689134 531.0887656740829 Z" stroke-opacity="0.8" stroke-linecap="round" stroke-linejoin="round" stroke-miterlimit="10" stroke-width="2.5"/><path fill="none" stroke="rgb(97,97,97)" paint-order="fill stroke markers" d=" M 396.43254718635603 532.4870499626537 L 1126 526.2246683934379" stroke-opacity="0.8" stroke-linecap="round" stroke-linejoin="round" stroke-miterlimit="10" stroke-width="2.5"/><path fill="none" stroke="rgb(97,97,97)" paint-order="fill stroke markers" d=" M 396.43254718635603 532.4870499626537 L 1126 102.8796563870714" stroke-opacity="0.8" stroke-linecap="round" stroke-linejoin="round" stroke-miterlimit="10" stroke-width="2.5"/><path fill="none" stroke="rgb(97,97,97)" paint-order="fill stroke markers" d=" M 396.43254718635603 532.4870499626537 L 1126 945.3943492007297" stroke-opacity="0.8" stroke-linecap="round" stroke-linejoin="round" stroke-miterlimit="10" stroke-width="2.5"/><path fill="rgb(21,101,192)" stroke="none" paint-order="stroke fill markers" d=" M 401.43254718635603 532.4870499626537 C 401.43254718635603 535.2484737118077 399.19397093551 537.4870499626537 396.43254718635603 537.4870499626537 C 393.6711234372021 537.4870499626537 391.43254718635603 535.2484737118077 391.43254718635603 532.4870499626537 C 391.43254718635603 529.7256262134997 393.6711234372021 527.4870499626537 396.43254718635603 527.4870499626537 C 399.19397093551 527.4870499626537 401.43254718635603 529.7256262134997 401.43254718635603 532.4870499626537 Z" fill-opacity="1"/><path fill="none" stroke="rgb(0,0,0)" paint-order="fill stroke markers" d=" M 401.43254718635603 532.4870499626537 C 401.43254718635603 535.2484737118077 399.19397093551 537.4870499626537 396.43254718635603 537.4870499626537 C 393.6711234372021 537.4870499626537 391.43254718635603 535.2484737118077 391.43254718635603 532.4870499626537 C 391.43254718635603 529.7256262134997 393.6711234372021 527.4870499626537 396.43254718635603 527.4870499626537 C 399.19397093551 527.4870499626537 401.43254718635603 529.7256262134997 401.43254718635603 532.4870499626537 Z" stroke-opacity="1" stroke-linecap="round" stroke-linejoin="round" stroke-miterlimit="10"/><text fill="rgb(21,101,192)" stroke="none" font-family="geogebra-sans-serif, sans-serif" font-size="16px" font-style="normal" font-weight="normal" text-decoration="normal" x="400" y="522" text-anchor="start" dominant-baseline="alphabetic" fill-opacity="1">A</text><text fill="none" stroke="rgb(255,255,255)" font-family="geogebra-sans-serif, sans-serif" font-size="16px" font-style="normal" font-weight="normal" text-decoration="normal" x="400" y="522" text-anchor="start" dominant-baseline="alphabetic" stroke-opacity="1" stroke-linejoin="bevel" stroke-miterlimit="10" stroke-width="3">A</text><text fill="rgb(21,101,192)" stroke="none" font-family="geogebra-sans-serif, sans-serif" font-size="16px" font-style="normal" font-weight="normal" text-decoration="normal" x="400" y="522" text-anchor="start" dominant-baseline="alphabetic" fill-opacity="1">A</text><path fill="rgb(21,101,192)" stroke="none" paint-order="stroke fill markers" d=" M 482.88260699561107 531.7879078183682 C 482.88260699561107 534.5493315675222 480.644030744765 536.7879078183682 477.88260699561107 536.7879078183682 C 475.1211832464571 536.7879078183682 472.88260699561107 534.5493315675222 472.88260699561107 531.7879078183682 C 472.88260699561107 529.0264840692142 475.1211832464571 526.7879078183682 477.88260699561107 526.7879078183682 C 480.644030744765 526.7879078183682 482.88260699561107 529.0264840692142 482.88260699561107 531.7879078183682 Z" fill-opacity="1"/><path fill="none" stroke="rgb(0,0,0)" paint-order="fill stroke markers" d=" M 482.88260699561107 531.7879078183682 C 482.88260699561107 534.5493315675222 480.644030744765 536.7879078183682 477.88260699561107 536.7879078183682 C 475.1211832464571 536.7879078183682 472.88260699561107 534.5493315675222 472.88260699561107 531.7879078183682 C 472.88260699561107 529.0264840692142 475.1211832464571 526.7879078183682 477.88260699561107 526.7879078183682 C 480.644030744765 526.7879078183682 482.88260699561107 529.0264840692142 482.88260699561107 531.7879078183682 Z" stroke-opacity="1" stroke-linecap="round" stroke-linejoin="round" stroke-miterlimit="10"/><text fill="rgb(21,101,192)" stroke="none" font-family="geogebra-sans-serif, sans-serif" font-size="16px" font-style="normal" font-weight="normal" text-decoration="normal" x="482" y="522" text-anchor="start" dominant-baseline="alphabetic" fill-opacity="1">B</text><text fill="none" stroke="rgb(255,255,255)" font-family="geogebra-sans-serif, sans-serif" font-size="16px" font-style="normal" font-weight="normal" text-decoration="normal" x="482" y="522" text-anchor="start" dominant-baseline="alphabetic" stroke-opacity="1" stroke-linejoin="bevel" stroke-miterlimit="10" stroke-width="3">B</text><text fill="rgb(21,101,192)" stroke="none" font-family="geogebra-sans-serif, sans-serif" font-size="16px" font-style="normal" font-weight="normal" text-decoration="normal" x="482" y="522" text-anchor="start" dominant-baseline="alphabetic" fill-opacity="1">B</text><path fill="rgb(97,97,97)" stroke="none" paint-order="stroke fill markers" d=" M 563.3326668048661 531.0887656740829 C 563.3326668048661 533.297904673406 561.5418058041893 535.0887656740829 559.3326668048661 535.0887656740829 C 557.123527805543 535.0887656740829 555.3326668048661 533.297904673406 555.3326668048661 531.0887656740829 C 555.3326668048661 528.8796266747597 557.123527805543 527.0887656740829 559.3326668048661 527.0887656740829 C 561.5418058041893 527.0887656740829 563.3326668048661 528.8796266747597 563.3326668048661 531.0887656740829 Z" fill-opacity="1"/><path fill="none" stroke="rgb(0,0,0)" paint-order="fill stroke markers" d=" M 563.3326668048661 531.0887656740829 C 563.3326668048661 533.297904673406 561.5418058041893 535.0887656740829 559.3326668048661 535.0887656740829 C 557.123527805543 535.0887656740829 555.3326668048661 533.297904673406 555.3326668048661 531.0887656740829 C 555.3326668048661 528.8796266747597 557.123527805543 527.0887656740829 559.3326668048661 527.0887656740829 C 561.5418058041893 527.0887656740829 563.3326668048661 528.8796266747597 563.3326668048661 531.0887656740829 Z" stroke-opacity="1" stroke-linecap="round" stroke-linejoin="round" stroke-miterlimit="10"/><text fill="rgb(97,97,97)" stroke="none" font-family="geogebra-sans-serif, sans-serif" font-size="16px" font-style="normal" font-weight="normal" text-decoration="normal" x="563" y="523" text-anchor="start" dominant-baseline="alphabetic" fill-opacity="1">C</text><text fill="none" stroke="rgb(255,255,255)" font-family="geogebra-sans-serif, sans-serif" font-size="16px" font-style="normal" font-weight="normal" text-decoration="normal" x="563" y="523" text-anchor="start" dominant-baseline="alphabetic" stroke-opacity="1" stroke-linejoin="bevel" stroke-miterlimit="10" stroke-width="3">C</text><text fill="rgb(97,97,97)" stroke="none" font-family="geogebra-sans-serif, sans-serif" font-size="16px" font-style="normal" font-weight="normal" text-decoration="normal" x="563" y="523" text-anchor="start" dominant-baseline="alphabetic" fill-opacity="1">C</text><path fill="rgb(97,97,97)" stroke="none" paint-order="stroke fill markers" d=" M 522.0021620424311 460.9005158116486 C 522.0021620424311 463.10965481097173 520.2113010417543 464.9005158116486 518.0021620424311 464.9005158116486 C 515.793023043108 464.9005158116486 514.0021620424311 463.10965481097173 514.0021620424311 460.9005158116486 C 514.0021620424311 458.6913768123254 515.793023043108 456.9005158116486 518.0021620424311 456.9005158116486 C 520.2113010417543 456.9005158116486 522.0021620424311 458.6913768123254 522.0021620424311 460.9005158116486 Z" fill-opacity="1"/><path fill="none" stroke="rgb(0,0,0)" paint-order="fill stroke markers" d=" M 522.0021620424311 460.9005158116486 C 522.0021620424311 463.10965481097173 520.2113010417543 464.9005158116486 518.0021620424311 464.9005158116486 C 515.793023043108 464.9005158116486 514.0021620424311 463.10965481097173 514.0021620424311 460.9005158116486 C 514.0021620424311 458.6913768123254 515.793023043108 456.9005158116486 518.0021620424311 456.9005158116486 C 520.2113010417543 456.9005158116486 522.0021620424311 458.6913768123254 522.0021620424311 460.9005158116486 Z" stroke-opacity="1" stroke-linecap="round" stroke-linejoin="round" stroke-miterlimit="10"/><text fill="rgb(97,97,97)" stroke="none" font-family="geogebra-sans-serif, sans-serif" font-size="16px" font-style="normal" font-weight="normal" text-decoration="normal" x="522" y="453" text-anchor="start" dominant-baseline="alphabetic" fill-opacity="1">D</text><text fill="none" stroke="rgb(255,255,255)" font-family="geogebra-sans-serif, sans-serif" font-size="16px" font-style="normal" font-weight="normal" text-decoration="normal" x="522" y="453" text-anchor="start" dominant-baseline="alphabetic" stroke-opacity="1" stroke-linejoin="bevel" stroke-miterlimit="10" stroke-width="3">D</text><text fill="rgb(97,97,97)" stroke="none" font-family="geogebra-sans-serif, sans-serif" font-size="16px" font-style="normal" font-weight="normal" text-decoration="normal" x="522" y="453" text-anchor="start" dominant-baseline="alphabetic" fill-opacity="1">D</text><path fill="rgb(97,97,97)" stroke="none" paint-order="stroke fill markers" d=" M 523.2131117580461 601.9761576808025 C 523.2131117580461 604.1852966801257 521.4222507573693 605.9761576808025 519.2131117580461 605.9761576808025 C 517.003972758723 605.9761576808025 515.2131117580461 604.1852966801257 515.2131117580461 601.9761576808025 C 515.2131117580461 599.7670186814794 517.003972758723 597.9761576808025 519.2131117580461 597.9761576808025 C 521.4222507573693 597.9761576808025 523.2131117580461 599.7670186814794 523.2131117580461 601.9761576808025 Z" fill-opacity="1"/><path fill="none" stroke="rgb(0,0,0)" paint-order="fill stroke markers" d=" M 523.2131117580461 601.9761576808025 C 523.2131117580461 604.1852966801257 521.4222507573693 605.9761576808025 519.2131117580461 605.9761576808025 C 517.003972758723 605.9761576808025 515.2131117580461 604.1852966801257 515.2131117580461 601.9761576808025 C 515.2131117580461 599.7670186814794 517.003972758723 597.9761576808025 519.2131117580461 597.9761576808025 C 521.4222507573693 597.9761576808025 523.2131117580461 599.7670186814794 523.2131117580461 601.9761576808025 Z" stroke-opacity="1" stroke-linecap="round" stroke-linejoin="round" stroke-miterlimit="10"/><text fill="rgb(97,97,97)" stroke="none" font-family="geogebra-sans-serif, sans-serif" font-size="16px" font-style="normal" font-weight="normal" text-decoration="normal" x="523" y="594" text-anchor="start" dominant-baseline="alphabetic" fill-opacity="1">E</text><text fill="none" stroke="rgb(255,255,255)" font-family="geogebra-sans-serif, sans-serif" font-size="16px" font-style="normal" font-weight="normal" text-decoration="normal" x="523" y="594" text-anchor="start" dominant-baseline="alphabetic" stroke-opacity="1" stroke-linejoin="bevel" stroke-miterlimit="10" stroke-width="3">E</text><text fill="rgb(97,97,97)" stroke="none" font-family="geogebra-sans-serif, sans-serif" font-size="16px" font-style="normal" font-weight="normal" text-decoration="normal" x="523" y="594" text-anchor="start" dominant-baseline="alphabetic" fill-opacity="1">E</text></g></g></svg>