<svg version="1.1" xmlns="http://www.w3.org/2000/svg" xmlns:xlink="http://www.w3.org/1999/xlink" width="211" height="176"><defs><clipPath id="uTniaVIfanpg"><path fill="none" stroke="none" d=" M 0 0 L 211 0 L 211 176 L 0 176 L 0 0 Z"/></clipPath></defs><g transform="scale(1,1)" clip-path="url(#uTniaVIfanpg)"><g transform="translate(-460,-457)"><rect fill="rgb(255,255,255)" stroke="none" x="0" y="0" width="1126" height="932" fill-opacity="1"/><path fill="none" stroke="rgb(97,97,97)" paint-order="fill stroke markers" d=" M 634.5812361843191 546.8760739833526 C 634.5812361843191 590.5017652784071 599.2156257850568 625.8673756776694 555.5899344900024 625.8673756776694 C 511.964243194948 625.8673756776694 476.5986327956857 590.5017652784071 476.5986327956857 546.8760739833526 C 476.5986327956857 503.25038268829815 511.964243194948 467.8847722890358 555.5899344900024 467.8847722890358 C 599.2156257850568 467.8847722890358 634.5812361843191 503.25038268829815 634.5812361843191 546.8760739833526 Z" stroke-opacity="0.8" stroke-linecap="round" stroke-linejoin="round" stroke-miterlimit="10" stroke-width="2.5"/><path fill="none" stroke="rgb(97,97,97)" paint-order="fill stroke markers" d=" M 657.4628230683292 518.6807149457564 C 657.4628230683292 534.1916509642333 644.888725011125 546.7657490214376 629.3777889926481 546.7657490214376 C 613.8668529741713 546.7657490214376 601.292754916967 534.1916509642333 601.292754916967 518.6807149457564 C 601.292754916967 503.1697789272796 613.8668529741713 490.59568087007534 629.3777889926481 490.59568087007534 C 644.888725011125 490.59568087007534 657.4628230683292 503.1697789272796 657.4628230683292 518.6807149457564 Z" stroke-opacity="0.8" stroke-linecap="round" stroke-linejoin="round" stroke-miterlimit="10" stroke-width="2.5"/><path fill="none" stroke="rgb(97,97,97)" paint-order="fill stroke markers" d=" M 662.6640206928272 546.2799301937139 C 662.6640206928272 561.7908662121907 650.089922635623 574.3649642693949 634.5789866171461 574.3649642693949 C 619.0680505986693 574.3649642693949 606.4939525414651 561.7908662121907 606.4939525414651 546.2799301937139 C 606.4939525414651 530.768994175237 619.0680505986693 518.1948961180327 634.5789866171461 518.1948961180327 C 650.089922635623 518.1948961180327 662.6640206928272 530.768994175237 662.6640206928272 546.2799301937139 Z" stroke-opacity="0.8" stroke-linecap="round" stroke-linejoin="round" stroke-miterlimit="10" stroke-width="2.5"/><path fill="none" stroke="rgb(97,97,97)" paint-order="fill stroke markers" d=" M 555.5899344900024 546.8760739833526 L 1126 328.9145042356304" stroke-opacity="0.8" stroke-linecap="round" stroke-linejoin="round" stroke-miterlimit="10" stroke-width="2.5"/><path fill="none" stroke="rgb(97,97,97)" paint-order="fill stroke markers" d=" M 555.5899344900024 546.8760739833526 L 1126 542.5710923568621" stroke-opacity="0.8" stroke-linecap="round" stroke-linejoin="round" stroke-miterlimit="10" stroke-width="2.5"/><path fill="none" stroke="rgb(97,97,97)" paint-order="fill stroke markers" d=" M 555.5899344900024 546.8760739833526 L 1126 44.121410426725845" stroke-opacity="0.8" stroke-linecap="round" stroke-linejoin="round" stroke-miterlimit="10" stroke-width="2.5"/><path fill="none" stroke="rgb(97,97,97)" paint-order="fill stroke markers" d=" M 555.5899344900024 546.8760739833526 L 1126 755.0265604672582" stroke-opacity="0.8" stroke-linecap="round" stroke-linejoin="round" stroke-miterlimit="10" stroke-width="2.5"/><path fill="rgb(21,101,192)" stroke="none" paint-order="stroke fill markers" d=" M 560.5899344900024 546.8760739833526 C 560.5899344900024 549.6374977325066 558.3513582391564 551.8760739833526 555.5899344900024 551.8760739833526 C 552.8285107408484 551.8760739833526 550.5899344900024 549.6374977325066 550.5899344900024 546.8760739833526 C 550.5899344900024 544.1146502341986 552.8285107408484 541.8760739833526 555.5899344900024 541.8760739833526 C 558.3513582391564 541.8760739833526 560.5899344900024 544.1146502341986 560.5899344900024 546.8760739833526 Z" fill-opacity="1"/><path fill="none" stroke="rgb(0,0,0)" paint-order="fill stroke markers" d=" M 560.5899344900024 546.8760739833526 C 560.5899344900024 549.6374977325066 558.3513582391564 551.8760739833526 555.5899344900024 551.8760739833526 C 552.8285107408484 551.8760739833526 550.5899344900024 549.6374977325066 550.5899344900024 546.8760739833526 C 550.5899344900024 544.1146502341986 552.8285107408484 541.8760739833526 555.5899344900024 541.8760739833526 C 558.3513582391564 541.8760739833526 560.5899344900024 544.1146502341986 560.5899344900024 546.8760739833526 Z" stroke-opacity="1" stroke-linecap="round" stroke-linejoin="round" stroke-miterlimit="10"/><text fill="rgb(21,101,192)" stroke="none" font-family="geogebra-sans-serif, sans-serif" font-size="16px" font-style="normal" font-weight="normal" text-decoration="normal" x="560" y="537" text-anchor="start" dominant-baseline="alphabetic" fill-opacity="1">A</text><text fill="none" stroke="rgb(255,255,255)" font-family="geogebra-sans-serif, sans-serif" font-size="16px" font-style="normal" font-weight="normal" text-decoration="normal" x="560" y="537" text-anchor="start" dominant-baseline="alphabetic" stroke-opacity="1" stroke-linejoin="bevel" stroke-miterlimit="10" stroke-width="3">A</text><text fill="rgb(21,101,192)" stroke="none" font-family="geogebra-sans-serif, sans-serif" font-size="16px" font-style="normal" font-weight="normal" text-decoration="normal" x="560" y="537" text-anchor="start" dominant-baseline="alphabetic" fill-opacity="1">A</text><path fill="rgb(21,101,192)" stroke="none" paint-order="stroke fill markers" d=" M 639.5789866171461 546.2799301937139 C 639.5789866171461 549.0413539428679 637.3404103663001 551.2799301937139 634.5789866171461 551.2799301937139 C 631.8175628679921 551.2799301937139 629.5789866171461 549.0413539428679 629.5789866171461 546.2799301937139 C 629.5789866171461 543.5185064445599 631.8175628679921 541.2799301937139 634.5789866171461 541.2799301937139 C 637.3404103663001 541.2799301937139 639.5789866171461 543.5185064445599 639.5789866171461 546.2799301937139 Z" fill-opacity="1"/><path fill="none" stroke="rgb(0,0,0)" paint-order="fill stroke markers" d=" M 639.5789866171461 546.2799301937139 C 639.5789866171461 549.0413539428679 637.3404103663001 551.2799301937139 634.5789866171461 551.2799301937139 C 631.8175628679921 551.2799301937139 629.5789866171461 549.0413539428679 629.5789866171461 546.2799301937139 C 629.5789866171461 543.5185064445599 631.8175628679921 541.2799301937139 634.5789866171461 541.2799301937139 C 637.3404103663001 541.2799301937139 639.5789866171461 543.5185064445599 639.5789866171461 546.2799301937139 Z" stroke-opacity="1" stroke-linecap="round" stroke-linejoin="round" stroke-miterlimit="10"/><text fill="rgb(21,101,192)" stroke="none" font-family="geogebra-sans-serif, sans-serif" font-size="16px" font-style="normal" font-weight="normal" text-decoration="normal" x="639" y="536" text-anchor="start" dominant-baseline="alphabetic" fill-opacity="1">B</text><text fill="none" stroke="rgb(255,255,255)" font-family="geogebra-sans-serif, sans-serif" font-size="16px" font-style="normal" font-weight="normal" text-decoration="normal" x="639" y="536" text-anchor="start" dominant-baseline="alphabetic" stroke-opacity="1" stroke-linejoin="bevel" stroke-miterlimit="10" stroke-width="3">B</text><text fill="rgb(21,101,192)" stroke="none" font-family="geogebra-sans-serif, sans-serif" font-size="16px" font-style="normal" font-weight="normal" text-decoration="normal" x="639" y="536" text-anchor="start" dominant-baseline="alphabetic" fill-opacity="1">B</text><path fill="rgb(21,101,192)" stroke="none" paint-order="stroke fill markers" d=" M 634.3777889926481 518.6807149457564 C 634.3777889926481 521.4421386949105 632.1392127418021 523.6807149457564 629.3777889926481 523.6807149457564 C 626.6163652434941 523.6807149457564 624.3777889926481 521.4421386949105 624.3777889926481 518.6807149457564 C 624.3777889926481 515.9192911966024 626.6163652434941 513.6807149457564 629.3777889926481 513.6807149457564 C 632.1392127418021 513.6807149457564 634.3777889926481 515.9192911966024 634.3777889926481 518.6807149457564 Z" fill-opacity="1"/><path fill="none" stroke="rgb(0,0,0)" paint-order="fill stroke markers" d=" M 634.3777889926481 518.6807149457564 C 634.3777889926481 521.4421386949105 632.1392127418021 523.6807149457564 629.3777889926481 523.6807149457564 C 626.6163652434941 523.6807149457564 624.3777889926481 521.4421386949105 624.3777889926481 518.6807149457564 C 624.3777889926481 515.9192911966024 626.6163652434941 513.6807149457564 629.3777889926481 513.6807149457564 C 632.1392127418021 513.6807149457564 634.3777889926481 515.9192911966024 634.3777889926481 518.6807149457564 Z" stroke-opacity="1" stroke-linecap="round" stroke-linejoin="round" stroke-miterlimit="10"/><text fill="rgb(21,101,192)" stroke="none" font-family="geogebra-sans-serif, sans-serif" font-size="16px" font-style="normal" font-weight="normal" text-decoration="normal" x="633" y="509" text-anchor="start" dominant-baseline="alphabetic" fill-opacity="1">C</text><text fill="none" stroke="rgb(255,255,255)" font-family="geogebra-sans-serif, sans-serif" font-size="16px" font-style="normal" font-weight="normal" text-decoration="normal" x="633" y="509" text-anchor="start" dominant-baseline="alphabetic" stroke-opacity="1" stroke-linejoin="bevel" stroke-miterlimit="10" stroke-width="3">C</text><text fill="rgb(21,101,192)" stroke="none" font-family="geogebra-sans-serif, sans-serif" font-size="16px" font-style="normal" font-weight="normal" text-decoration="normal" x="633" y="509" text-anchor="start" dominant-baseline="alphabetic" fill-opacity="1">C</text><path fill="rgb(97,97,97)" stroke="none" paint-order="stroke fill markers" d=" M 618.8488552408678 494.64575659196373 C 618.8488552408678 496.8548955912869 617.057994240191 498.64575659196373 614.8488552408678 498.64575659196373 C 612.6397162415446 498.64575659196373 610.8488552408678 496.8548955912869 610.8488552408678 494.64575659196373 C 610.8488552408678 492.4366175926406 612.6397162415446 490.64575659196373 614.8488552408678 490.64575659196373 C 617.057994240191 490.64575659196373 618.8488552408678 492.4366175926406 618.8488552408678 494.64575659196373 Z" fill-opacity="1"/><path fill="none" stroke="rgb(0,0,0)" paint-order="fill stroke markers" d=" M 618.8488552408678 494.64575659196373 C 618.8488552408678 496.8548955912869 617.057994240191 498.64575659196373 614.8488552408678 498.64575659196373 C 612.6397162415446 498.64575659196373 610.8488552408678 496.8548955912869 610.8488552408678 494.64575659196373 C 610.8488552408678 492.4366175926406 612.6397162415446 490.64575659196373 614.8488552408678 490.64575659196373 C 617.057994240191 490.64575659196373 618.8488552408678 492.4366175926406 618.8488552408678 494.64575659196373 Z" stroke-opacity="1" stroke-linecap="round" stroke-linejoin="round" stroke-miterlimit="10"/><text fill="rgb(97,97,97)" stroke="none" font-family="geogebra-sans-serif, sans-serif" font-size="16px" font-style="normal" font-weight="normal" text-decoration="normal" x="619" y="487" text-anchor="start" dominant-baseline="alphabetic" fill-opacity="1">D</text><text fill="none" stroke="rgb(255,255,255)" font-family="geogebra-sans-serif, sans-serif" font-size="16px" font-style="normal" font-weight="normal" text-decoration="normal" x="619" y="487" text-anchor="start" dominant-baseline="alphabetic" stroke-opacity="1" stroke-linejoin="bevel" stroke-miterlimit="10" stroke-width="3">D</text><text fill="rgb(97,97,97)" stroke="none" font-family="geogebra-sans-serif, sans-serif" font-size="16px" font-style="normal" font-weight="normal" text-decoration="normal" x="619" y="487" text-anchor="start" dominant-baseline="alphabetic" fill-opacity="1">D</text><path fill="rgb(97,97,97)" stroke="none" paint-order="stroke fill markers" d=" M 633.7949496776049 573.954505702532 C 633.7949496776049 576.1636447018551 632.0040886769281 577.954505702532 629.7949496776049 577.954505702532 C 627.5858106782817 577.954505702532 625.7949496776049 576.1636447018551 625.7949496776049 573.954505702532 C 625.7949496776049 571.7453667032088 627.5858106782817 569.954505702532 629.7949496776049 569.954505702532 C 632.0040886769281 569.954505702532 633.7949496776049 571.7453667032088 633.7949496776049 573.954505702532 Z" fill-opacity="1"/><path fill="none" stroke="rgb(0,0,0)" paint-order="fill stroke markers" d=" M 633.7949496776049 573.954505702532 C 633.7949496776049 576.1636447018551 632.0040886769281 577.954505702532 629.7949496776049 577.954505702532 C 627.5858106782817 577.954505702532 625.7949496776049 576.1636447018551 625.7949496776049 573.954505702532 C 625.7949496776049 571.7453667032088 627.5858106782817 569.954505702532 629.7949496776049 569.954505702532 C 632.0040886769281 569.954505702532 633.7949496776049 571.7453667032088 633.7949496776049 573.954505702532 Z" stroke-opacity="1" stroke-linecap="round" stroke-linejoin="round" stroke-miterlimit="10"/><text fill="rgb(97,97,97)" stroke="none" font-family="geogebra-sans-serif, sans-serif" font-size="16px" font-style="normal" font-weight="normal" text-decoration="normal" x="634" y="566" text-anchor="start" dominant-baseline="alphabetic" fill-opacity="1">E</text><text fill="none" stroke="rgb(255,255,255)" font-family="geogebra-sans-serif, sans-serif" font-size="16px" font-style="normal" font-weight="normal" text-decoration="normal" x="634" y="566" text-anchor="start" dominant-baseline="alphabetic" stroke-opacity="1" stroke-linejoin="bevel" stroke-miterlimit="10" stroke-width="3">E</text><text fill="rgb(97,97,97)" stroke="none" font-family="geogebra-sans-serif, sans-serif" font-size="16px" font-style="normal" font-weight="normal" text-decoration="normal" x="634" y="566" text-anchor="start" dominant-baseline="alphabetic" fill-opacity="1">E</text></g></g></svg>