<svg version="1.1" xmlns="http://www.w3.org/2000/svg" xmlns:xlink="http://www.w3.org/1999/xlink" width="145" height="148"><defs><clipPath id="ndGkVMAvDzMo"><path fill="none" stroke="none" d=" M 0 0 L 145 0 L 145 148 L 0 148 L 0 0 Z"/></clipPath></defs><g transform="scale(1,1)" clip-path="url(#ndGkVMAvDzMo)"><g transform="translate(-388,-475)"><rect fill="rgb(255,255,255)" stroke="none" x="0" y="0" width="1126" height="932" fill-opacity="1"/><path fill="none" stroke="rgb(97,97,97)" paint-order="fill stroke markers" d=" M -5 606.4985136189397 L 1131 606.4985136189397" stroke-opacity="0.8" stroke-linecap="round" stroke-linejoin="round" stroke-miterlimit="10" stroke-width="2.5"/><path fill="none" stroke="rgb(97,97,97)" paint-order="fill stroke markers" d=" M 490.9171831515675 937 L 490.9171831515675 -5" stroke-opacity="0.8" stroke-linecap="round" stroke-linejoin="round" stroke-miterlimit="10" stroke-width="2.5"/><path fill="none" stroke="rgb(97,97,97)" paint-order="fill stroke markers" d=" M -5 558.9689121450167 L 1131 558.9689121450167" stroke-opacity="0.8" stroke-linecap="round" stroke-linejoin="round" stroke-miterlimit="10" stroke-width="2.5"/><path fill="none" stroke="rgb(97,97,97)" paint-order="fill stroke markers" d=" M 406.7973329239103 937 L 406.7973329239103 -5" stroke-opacity="0.8" stroke-linecap="round" stroke-linejoin="round" stroke-miterlimit="10" stroke-width="2.5"/><path fill="none" stroke="rgb(97,97,97)" paint-order="fill stroke markers" d=" M 155.9395230791796 937 L 934.8126938108863 -5" stroke-opacity="0.8" stroke-linecap="round" stroke-linejoin="round" stroke-miterlimit="10" stroke-width="2.5"/><path fill="none" stroke="rgb(97,97,97)" paint-order="fill stroke markers" d=" M 406.7973329239103 558.9689121450167 L 490.9171831515675 606.4985136189397" stroke-opacity="0.8" stroke-linecap="round" stroke-linejoin="round" stroke-miterlimit="10" stroke-width="2.5"/><path fill="none" stroke="rgb(97,97,97)" paint-order="fill stroke markers" d=" M 406.7973329239103 606.4985136189397 L 490.9171831515675 558.9689121450167" stroke-opacity="0.8" stroke-linecap="round" stroke-linejoin="round" stroke-miterlimit="10" stroke-width="2.5"/><path fill="rgb(21,101,192)" stroke="none" paint-order="stroke fill markers" d=" M 411.7973329239103 606.4985136189397 C 411.7973329239103 609.2599373680937 409.55875667306424 611.4985136189397 406.7973329239103 611.4985136189397 C 404.03590917475634 611.4985136189397 401.7973329239103 609.2599373680937 401.7973329239103 606.4985136189397 C 401.7973329239103 603.7370898697857 404.03590917475634 601.4985136189397 406.7973329239103 601.4985136189397 C 409.55875667306424 601.4985136189397 411.7973329239103 603.7370898697857 411.7973329239103 606.4985136189397 Z" fill-opacity="1"/><path fill="none" stroke="rgb(0,0,0)" paint-order="fill stroke markers" d=" M 411.7973329239103 606.4985136189397 C 411.7973329239103 609.2599373680937 409.55875667306424 611.4985136189397 406.7973329239103 611.4985136189397 C 404.03590917475634 611.4985136189397 401.7973329239103 609.2599373680937 401.7973329239103 606.4985136189397 C 401.7973329239103 603.7370898697857 404.03590917475634 601.4985136189397 406.7973329239103 601.4985136189397 C 409.55875667306424 601.4985136189397 411.7973329239103 603.7370898697857 411.7973329239103 606.4985136189397 Z" stroke-opacity="1" stroke-linecap="round" stroke-linejoin="round" stroke-miterlimit="10"/><text fill="rgb(21,101,192)" stroke="none" font-family="geogebra-sans-serif, sans-serif" font-size="16px" font-style="normal" font-weight="normal" text-decoration="normal" x="411" y="596" text-anchor="start" dominant-baseline="alphabetic" fill-opacity="1">A</text><text fill="none" stroke="rgb(255,255,255)" font-family="geogebra-sans-serif, sans-serif" font-size="16px" font-style="normal" font-weight="normal" text-decoration="normal" x="411" y="596" text-anchor="start" dominant-baseline="alphabetic" stroke-opacity="1" stroke-linejoin="bevel" stroke-miterlimit="10" stroke-width="3">A</text><text fill="rgb(21,101,192)" stroke="none" font-family="geogebra-sans-serif, sans-serif" font-size="16px" font-style="normal" font-weight="normal" text-decoration="normal" x="411" y="596" text-anchor="start" dominant-baseline="alphabetic" fill-opacity="1">A</text><path fill="rgb(21,101,192)" stroke="none" paint-order="stroke fill markers" d=" M 495.9171831515675 606.4985136189397 C 495.9171831515675 609.2599373680937 493.67860690072143 611.4985136189397 490.9171831515675 611.4985136189397 C 488.15575940241354 611.4985136189397 485.9171831515675 609.2599373680937 485.9171831515675 606.4985136189397 C 485.9171831515675 603.7370898697857 488.15575940241354 601.4985136189397 490.9171831515675 601.4985136189397 C 493.67860690072143 601.4985136189397 495.9171831515675 603.7370898697857 495.9171831515675 606.4985136189397 Z" fill-opacity="1"/><path fill="none" stroke="rgb(0,0,0)" paint-order="fill stroke markers" d=" M 495.9171831515675 606.4985136189397 C 495.9171831515675 609.2599373680937 493.67860690072143 611.4985136189397 490.9171831515675 611.4985136189397 C 488.15575940241354 611.4985136189397 485.9171831515675 609.2599373680937 485.9171831515675 606.4985136189397 C 485.9171831515675 603.7370898697857 488.15575940241354 601.4985136189397 490.9171831515675 601.4985136189397 C 493.67860690072143 601.4985136189397 495.9171831515675 603.7370898697857 495.9171831515675 606.4985136189397 Z" stroke-opacity="1" stroke-linecap="round" stroke-linejoin="round" stroke-miterlimit="10"/><text fill="rgb(21,101,192)" stroke="none" font-family="geogebra-sans-serif, sans-serif" font-size="16px" font-style="normal" font-weight="normal" text-decoration="normal" x="495" y="596" text-anchor="start" dominant-baseline="alphabetic" fill-opacity="1">B</text><text fill="none" stroke="rgb(255,255,255)" font-family="geogebra-sans-serif, sans-serif" font-size="16px" font-style="normal" font-weight="normal" text-decoration="normal" x="495" y="596" text-anchor="start" dominant-baseline="alphabetic" stroke-opacity="1" stroke-linejoin="bevel" stroke-miterlimit="10" stroke-width="3">B</text><text fill="rgb(21,101,192)" stroke="none" font-family="geogebra-sans-serif, sans-serif" font-size="16px" font-style="normal" font-weight="normal" text-decoration="normal" x="495" y="596" text-anchor="start" dominant-baseline="alphabetic" fill-opacity="1">B</text><path fill="rgb(21,101,192)" stroke="none" paint-order="stroke fill markers" d=" M 495.9171831515675 558.9689121450167 C 495.9171831515675 561.7303358941707 493.67860690072143 563.9689121450167 490.9171831515675 563.9689121450167 C 488.15575940241354 563.9689121450167 485.9171831515675 561.7303358941707 485.9171831515675 558.9689121450167 C 485.9171831515675 556.2074883958627 488.15575940241354 553.9689121450167 490.9171831515675 553.9689121450167 C 493.67860690072143 553.9689121450167 495.9171831515675 556.2074883958627 495.9171831515675 558.9689121450167 Z" fill-opacity="1"/><path fill="none" stroke="rgb(0,0,0)" paint-order="fill stroke markers" d=" M 495.9171831515675 558.9689121450167 C 495.9171831515675 561.7303358941707 493.67860690072143 563.9689121450167 490.9171831515675 563.9689121450167 C 488.15575940241354 563.9689121450167 485.9171831515675 561.7303358941707 485.9171831515675 558.9689121450167 C 485.9171831515675 556.2074883958627 488.15575940241354 553.9689121450167 490.9171831515675 553.9689121450167 C 493.67860690072143 553.9689121450167 495.9171831515675 556.2074883958627 495.9171831515675 558.9689121450167 Z" stroke-opacity="1" stroke-linecap="round" stroke-linejoin="round" stroke-miterlimit="10"/><text fill="rgb(21,101,192)" stroke="none" font-family="geogebra-sans-serif, sans-serif" font-size="16px" font-style="normal" font-weight="normal" text-decoration="normal" x="495" y="549" text-anchor="start" dominant-baseline="alphabetic" fill-opacity="1">C</text><text fill="none" stroke="rgb(255,255,255)" font-family="geogebra-sans-serif, sans-serif" font-size="16px" font-style="normal" font-weight="normal" text-decoration="normal" x="495" y="549" text-anchor="start" dominant-baseline="alphabetic" stroke-opacity="1" stroke-linejoin="bevel" stroke-miterlimit="10" stroke-width="3">C</text><text fill="rgb(21,101,192)" stroke="none" font-family="geogebra-sans-serif, sans-serif" font-size="16px" font-style="normal" font-weight="normal" text-decoration="normal" x="495" y="549" text-anchor="start" dominant-baseline="alphabetic" fill-opacity="1">C</text><path fill="rgb(97,97,97)" stroke="none" paint-order="stroke fill markers" d=" M 410.7973329239103 558.9689121450167 C 410.7973329239103 561.1780511443399 409.00647192323345 562.9689121450167 406.7973329239103 562.9689121450167 C 404.58819392458713 562.9689121450167 402.7973329239103 561.1780511443399 402.7973329239103 558.9689121450167 C 402.7973329239103 556.7597731456935 404.58819392458713 554.9689121450167 406.7973329239103 554.9689121450167 C 409.00647192323345 554.9689121450167 410.7973329239103 556.7597731456935 410.7973329239103 558.9689121450167 Z" fill-opacity="1"/><path fill="none" stroke="rgb(0,0,0)" paint-order="fill stroke markers" d=" M 410.7973329239103 558.9689121450167 C 410.7973329239103 561.1780511443399 409.00647192323345 562.9689121450167 406.7973329239103 562.9689121450167 C 404.58819392458713 562.9689121450167 402.7973329239103 561.1780511443399 402.7973329239103 558.9689121450167 C 402.7973329239103 556.7597731456935 404.58819392458713 554.9689121450167 406.7973329239103 554.9689121450167 C 409.00647192323345 554.9689121450167 410.7973329239103 556.7597731456935 410.7973329239103 558.9689121450167 Z" stroke-opacity="1" stroke-linecap="round" stroke-linejoin="round" stroke-miterlimit="10"/><text fill="rgb(97,97,97)" stroke="none" font-family="geogebra-sans-serif, sans-serif" font-size="16px" font-style="normal" font-weight="normal" text-decoration="normal" x="411" y="551" text-anchor="start" dominant-baseline="alphabetic" fill-opacity="1">D</text><text fill="none" stroke="rgb(255,255,255)" font-family="geogebra-sans-serif, sans-serif" font-size="16px" font-style="normal" font-weight="normal" text-decoration="normal" x="411" y="551" text-anchor="start" dominant-baseline="alphabetic" stroke-opacity="1" stroke-linejoin="bevel" stroke-miterlimit="10" stroke-width="3">D</text><text fill="rgb(97,97,97)" stroke="none" font-family="geogebra-sans-serif, sans-serif" font-size="16px" font-style="normal" font-weight="normal" text-decoration="normal" x="411" y="551" text-anchor="start" dominant-baseline="alphabetic" fill-opacity="1">D</text><path fill="rgb(21,101,192)" stroke="none" paint-order="stroke fill markers" d=" M 517.7958885919447 505.40380572202423 C 517.7958885919447 508.1652294711782 515.5573123410987 510.40380572202423 512.7958885919447 510.40380572202423 C 510.0344648427908 510.40380572202423 507.79588859194473 508.1652294711782 507.79588859194473 505.40380572202423 C 507.79588859194473 502.6423819728703 510.0344648427908 500.40380572202423 512.7958885919447 500.40380572202423 C 515.5573123410987 500.40380572202423 517.7958885919447 502.6423819728703 517.7958885919447 505.40380572202423 Z" fill-opacity="1"/><path fill="none" stroke="rgb(0,0,0)" paint-order="fill stroke markers" d=" M 517.7958885919447 505.40380572202423 C 517.7958885919447 508.1652294711782 515.5573123410987 510.40380572202423 512.7958885919447 510.40380572202423 C 510.0344648427908 510.40380572202423 507.79588859194473 508.1652294711782 507.79588859194473 505.40380572202423 C 507.79588859194473 502.6423819728703 510.0344648427908 500.40380572202423 512.7958885919447 500.40380572202423 C 515.5573123410987 500.40380572202423 517.7958885919447 502.6423819728703 517.7958885919447 505.40380572202423 Z" stroke-opacity="1" stroke-linecap="round" stroke-linejoin="round" stroke-miterlimit="10"/><text fill="rgb(21,101,192)" stroke="none" font-family="geogebra-sans-serif, sans-serif" font-size="16px" font-style="normal" font-weight="normal" text-decoration="normal" x="517" y="495" text-anchor="start" dominant-baseline="alphabetic" fill-opacity="1">E</text><text fill="none" stroke="rgb(255,255,255)" font-family="geogebra-sans-serif, sans-serif" font-size="16px" font-style="normal" font-weight="normal" text-decoration="normal" x="517" y="495" text-anchor="start" dominant-baseline="alphabetic" stroke-opacity="1" stroke-linejoin="bevel" stroke-miterlimit="10" stroke-width="3">E</text><text fill="rgb(21,101,192)" stroke="none" font-family="geogebra-sans-serif, sans-serif" font-size="16px" font-style="normal" font-weight="normal" text-decoration="normal" x="517" y="495" text-anchor="start" dominant-baseline="alphabetic" fill-opacity="1">E</text><path fill="rgb(97,97,97)" stroke="none" paint-order="stroke fill markers" d=" M 452.85725803773886 582.7337128819782 C 452.85725803773886 584.9428518813014 451.066397037062 586.7337128819782 448.85725803773886 586.7337128819782 C 446.6481190384157 586.7337128819782 444.85725803773886 584.9428518813014 444.85725803773886 582.7337128819782 C 444.85725803773886 580.5245738826551 446.6481190384157 578.7337128819782 448.85725803773886 578.7337128819782 C 451.066397037062 578.7337128819782 452.85725803773886 580.5245738826551 452.85725803773886 582.7337128819782 Z" fill-opacity="1"/><path fill="none" stroke="rgb(0,0,0)" paint-order="fill stroke markers" d=" M 452.85725803773886 582.7337128819782 C 452.85725803773886 584.9428518813014 451.066397037062 586.7337128819782 448.85725803773886 586.7337128819782 C 446.6481190384157 586.7337128819782 444.85725803773886 584.9428518813014 444.85725803773886 582.7337128819782 C 444.85725803773886 580.5245738826551 446.6481190384157 578.7337128819782 448.85725803773886 578.7337128819782 C 451.066397037062 578.7337128819782 452.85725803773886 580.5245738826551 452.85725803773886 582.7337128819782 Z" stroke-opacity="1" stroke-linecap="round" stroke-linejoin="round" stroke-miterlimit="10"/><text fill="rgb(97,97,97)" stroke="none" font-family="geogebra-sans-serif, sans-serif" font-size="16px" font-style="normal" font-weight="normal" text-decoration="normal" x="453" y="575" text-anchor="start" dominant-baseline="alphabetic" fill-opacity="1">F</text><text fill="none" stroke="rgb(255,255,255)" font-family="geogebra-sans-serif, sans-serif" font-size="16px" font-style="normal" font-weight="normal" text-decoration="normal" x="453" y="575" text-anchor="start" dominant-baseline="alphabetic" stroke-opacity="1" stroke-linejoin="bevel" stroke-miterlimit="10" stroke-width="3">F</text><text fill="rgb(97,97,97)" stroke="none" font-family="geogebra-sans-serif, sans-serif" font-size="16px" font-style="normal" font-weight="normal" text-decoration="normal" x="453" y="575" text-anchor="start" dominant-baseline="alphabetic" fill-opacity="1">F</text></g></g></svg>