<svg version="1.1" xmlns="http://www.w3.org/2000/svg" xmlns:xlink="http://www.w3.org/1999/xlink" width="75" height="76"><defs><clipPath id="XDrlKCkOTgoP"><path fill="none" stroke="none" d=" M 0 0 L 75 0 L 75 76 L 0 76 L 0 0 Z"/></clipPath></defs><g transform="scale(1,1)" clip-path="url(#XDrlKCkOTgoP)"><g transform="translate(-452,-469)"><rect fill="rgb(255,255,255)" stroke="none" x="0" y="0" width="1126" height="932" fill-opacity="1"/><path fill="none" stroke="rgb(97,97,97)" paint-order="fill stroke markers" d=" M 519.0856944567654 507.9821832676589 C 519.0856944567654 525.1471998037605 505.1706992030058 539.0621950575202 488.00568266690425 539.0621950575202 C 470.8406661308027 539.0621950575202 456.9256708770431 525.1471998037605 456.9256708770431 507.9821832676589 C 456.9256708770431 490.81716673155734 470.8406661308027 476.9021714777977 488.00568266690425 476.9021714777977 C 505.1706992030058 476.9021714777977 519.0856944567654 490.81716673155734 519.0856944567654 507.9821832676589 Z" stroke-opacity="0.8" stroke-linecap="round" stroke-linejoin="round" stroke-miterlimit="10" stroke-width="2.5"/><path fill="none" stroke="rgb(97,97,97)" paint-order="fill stroke markers" d=" M -5 535.6470061719402 L 1131 533.3840669445083" stroke-opacity="0.8" stroke-linecap="round" stroke-linejoin="round" stroke-miterlimit="10" stroke-width="2.5"/><path fill="none" stroke="rgb(97,97,97)" paint-order="fill stroke markers" d=" M 488.8602964404525 937 L 486.98380986277573 -5" stroke-opacity="0.8" stroke-linecap="round" stroke-linejoin="round" stroke-miterlimit="10" stroke-width="2.5"/><path fill="rgb(21,101,192)" stroke="none" paint-order="stroke fill markers" d=" M 493.00568266690425 507.9821832676589 C 493.00568266690425 510.74360701681286 490.7671064160582 512.9821832676589 488.00568266690425 512.9821832676589 C 485.2442589177503 512.9821832676589 483.00568266690425 510.74360701681286 483.00568266690425 507.9821832676589 C 483.00568266690425 505.22075951850496 485.2442589177503 502.9821832676589 488.00568266690425 502.9821832676589 C 490.7671064160582 502.9821832676589 493.00568266690425 505.22075951850496 493.00568266690425 507.9821832676589 Z" fill-opacity="1"/><path fill="none" stroke="rgb(0,0,0)" paint-order="fill stroke markers" d=" M 493.00568266690425 507.9821832676589 C 493.00568266690425 510.74360701681286 490.7671064160582 512.9821832676589 488.00568266690425 512.9821832676589 C 485.2442589177503 512.9821832676589 483.00568266690425 510.74360701681286 483.00568266690425 507.9821832676589 C 483.00568266690425 505.22075951850496 485.2442589177503 502.9821832676589 488.00568266690425 502.9821832676589 C 490.7671064160582 502.9821832676589 493.00568266690425 505.22075951850496 493.00568266690425 507.9821832676589 Z" stroke-opacity="1" stroke-linecap="round" stroke-linejoin="round" stroke-miterlimit="10"/><text fill="rgb(21,101,192)" stroke="none" font-family="geogebra-sans-serif, sans-serif" font-size="16px" font-style="normal" font-weight="normal" text-decoration="normal" x="492" y="498" text-anchor="start" dominant-baseline="alphabetic" fill-opacity="1">A</text><text fill="none" stroke="rgb(255,255,255)" font-family="geogebra-sans-serif, sans-serif" font-size="16px" font-style="normal" font-weight="normal" text-decoration="normal" x="492" y="498" text-anchor="start" dominant-baseline="alphabetic" stroke-opacity="1" stroke-linejoin="bevel" stroke-miterlimit="10" stroke-width="3">A</text><text fill="rgb(21,101,192)" stroke="none" font-family="geogebra-sans-serif, sans-serif" font-size="16px" font-style="normal" font-weight="normal" text-decoration="normal" x="492" y="498" text-anchor="start" dominant-baseline="alphabetic" fill-opacity="1">A</text><path fill="rgb(21,101,192)" stroke="none" paint-order="stroke fill markers" d=" M 477.12145343077447 534.6965688011499 C 477.12145343077447 537.4579925503039 474.8828771799284 539.6965688011499 472.12145343077447 539.6965688011499 C 469.3600296816205 539.6965688011499 467.12145343077447 537.4579925503039 467.12145343077447 534.6965688011499 C 467.12145343077447 531.9351450519958 469.3600296816205 529.6965688011499 472.12145343077447 529.6965688011499 C 474.8828771799284 529.6965688011499 477.12145343077447 531.9351450519958 477.12145343077447 534.6965688011499 Z" fill-opacity="1"/><path fill="none" stroke="rgb(0,0,0)" paint-order="fill stroke markers" d=" M 477.12145343077447 534.6965688011499 C 477.12145343077447 537.4579925503039 474.8828771799284 539.6965688011499 472.12145343077447 539.6965688011499 C 469.3600296816205 539.6965688011499 467.12145343077447 537.4579925503039 467.12145343077447 534.6965688011499 C 467.12145343077447 531.9351450519958 469.3600296816205 529.6965688011499 472.12145343077447 529.6965688011499 C 474.8828771799284 529.6965688011499 477.12145343077447 531.9351450519958 477.12145343077447 534.6965688011499 Z" stroke-opacity="1" stroke-linecap="round" stroke-linejoin="round" stroke-miterlimit="10"/><text fill="rgb(21,101,192)" stroke="none" font-family="geogebra-sans-serif, sans-serif" font-size="16px" font-style="normal" font-weight="normal" text-decoration="normal" x="476" y="525" text-anchor="start" dominant-baseline="alphabetic" fill-opacity="1">B</text><text fill="none" stroke="rgb(255,255,255)" font-family="geogebra-sans-serif, sans-serif" font-size="16px" font-style="normal" font-weight="normal" text-decoration="normal" x="476" y="525" text-anchor="start" dominant-baseline="alphabetic" stroke-opacity="1" stroke-linejoin="bevel" stroke-miterlimit="10" stroke-width="3">B</text><text fill="rgb(21,101,192)" stroke="none" font-family="geogebra-sans-serif, sans-serif" font-size="16px" font-style="normal" font-weight="normal" text-decoration="normal" x="476" y="525" text-anchor="start" dominant-baseline="alphabetic" fill-opacity="1">B</text><path fill="rgb(21,101,192)" stroke="none" paint-order="stroke fill markers" d=" M 508.9962168114253 534.6330735085273 C 508.9962168114253 537.3944972576813 506.75764056057926 539.6330735085273 503.9962168114253 539.6330735085273 C 501.23479306227136 539.6330735085273 498.9962168114253 537.3944972576813 498.9962168114253 534.6330735085273 C 498.9962168114253 531.8716497593733 501.23479306227136 529.6330735085273 503.9962168114253 529.6330735085273 C 506.75764056057926 529.6330735085273 508.9962168114253 531.8716497593733 508.9962168114253 534.6330735085273 Z" fill-opacity="1"/><path fill="none" stroke="rgb(0,0,0)" paint-order="fill stroke markers" d=" M 508.9962168114253 534.6330735085273 C 508.9962168114253 537.3944972576813 506.75764056057926 539.6330735085273 503.9962168114253 539.6330735085273 C 501.23479306227136 539.6330735085273 498.9962168114253 537.3944972576813 498.9962168114253 534.6330735085273 C 498.9962168114253 531.8716497593733 501.23479306227136 529.6330735085273 503.9962168114253 529.6330735085273 C 506.75764056057926 529.6330735085273 508.9962168114253 531.8716497593733 508.9962168114253 534.6330735085273 Z" stroke-opacity="1" stroke-linecap="round" stroke-linejoin="round" stroke-miterlimit="10"/><text fill="rgb(21,101,192)" stroke="none" font-family="geogebra-sans-serif, sans-serif" font-size="16px" font-style="normal" font-weight="normal" text-decoration="normal" x="508" y="525" text-anchor="start" dominant-baseline="alphabetic" fill-opacity="1">C</text><text fill="none" stroke="rgb(255,255,255)" font-family="geogebra-sans-serif, sans-serif" font-size="16px" font-style="normal" font-weight="normal" text-decoration="normal" x="508" y="525" text-anchor="start" dominant-baseline="alphabetic" stroke-opacity="1" stroke-linejoin="bevel" stroke-miterlimit="10" stroke-width="3">C</text><text fill="rgb(21,101,192)" stroke="none" font-family="geogebra-sans-serif, sans-serif" font-size="16px" font-style="normal" font-weight="normal" text-decoration="normal" x="508" y="525" text-anchor="start" dominant-baseline="alphabetic" fill-opacity="1">C</text></g></g></svg>