<svg version="1.1" xmlns="http://www.w3.org/2000/svg" xmlns:xlink="http://www.w3.org/1999/xlink" width="149" height="96"><defs><clipPath id="aXIxJbuvSDlz"><path fill="none" stroke="none" d=" M 0 0 L 149 0 L 149 96 L 0 96 L 0 0 Z"/></clipPath></defs><g transform="scale(1,1)" clip-path="url(#aXIxJbuvSDlz)"><g transform="translate(-404,-437)"><rect fill="rgb(255,255,255)" stroke="none" x="0" y="0" width="1126" height="932" fill-opacity="1"/><path fill="none" stroke="rgb(97,97,97)" paint-order="fill stroke markers" d=" M 484.82041327080697 488.79067635830745 C 484.82041327080697 508.40295763548255 468.9215179616581 524.3018529446315 449.3092366844831 524.3018529446315 C 429.6969554073081 524.3018529446315 413.7980600981593 508.40295763548255 413.7980600981593 488.79067635830745 C 413.7980600981593 469.1783950811324 429.6969554073081 453.27949977198347 449.3092366844831 453.27949977198347 C 468.9215179616581 453.27949977198347 484.82041327080697 469.1783950811324 484.82041327080697 488.79067635830745 Z" stroke-opacity="0.8" stroke-linecap="round" stroke-linejoin="round" stroke-miterlimit="10" stroke-width="2.5"/><path fill="none" stroke="rgb(97,97,97)" paint-order="fill stroke markers" d=" M 538.842995786865 488.39999999999986 C 538.842995786865 508.19553996133493 522.795539961335 524.2429957868651 503 524.2429957868651 C 483.20446003866505 524.2429957868651 467.15700421313494 508.19553996133493 467.15700421313494 488.39999999999986 C 467.15700421313494 468.6044600386648 483.20446003866505 452.55700421313463 503 452.55700421313463 C 522.795539961335 452.55700421313463 538.842995786865 468.6044600386648 538.842995786865 488.39999999999986 Z" stroke-opacity="0.8" stroke-linecap="round" stroke-linejoin="round" stroke-miterlimit="10" stroke-width="2.5"/><path fill="none" stroke="rgb(97,97,97)" paint-order="fill stroke markers" d=" M -5 492.0964196030139 L 1131 483.830410412022" stroke-opacity="0.8" stroke-linecap="round" stroke-linejoin="round" stroke-miterlimit="10" stroke-width="2.5"/><path fill="none" stroke="rgb(97,97,97)" paint-order="fill stroke markers" d=" M 475.76316754372556 465.10031535135994 L 476.105110036339 512.0935696090688" stroke-opacity="0.8" stroke-linecap="round" stroke-linejoin="round" stroke-miterlimit="10" stroke-width="2.5"/><path fill="rgb(21,101,192)" stroke="none" paint-order="stroke fill markers" d=" M 454.3092366844831 488.79067635830745 C 454.3092366844831 491.5521001074614 452.07066043363704 493.79067635830745 449.3092366844831 493.79067635830745 C 446.54781293532915 493.79067635830745 444.3092366844831 491.5521001074614 444.3092366844831 488.79067635830745 C 444.3092366844831 486.0292526091535 446.54781293532915 483.79067635830745 449.3092366844831 483.79067635830745 C 452.07066043363704 483.79067635830745 454.3092366844831 486.0292526091535 454.3092366844831 488.79067635830745 Z" fill-opacity="1"/><path fill="none" stroke="rgb(0,0,0)" paint-order="fill stroke markers" d=" M 454.3092366844831 488.79067635830745 C 454.3092366844831 491.5521001074614 452.07066043363704 493.79067635830745 449.3092366844831 493.79067635830745 C 446.54781293532915 493.79067635830745 444.3092366844831 491.5521001074614 444.3092366844831 488.79067635830745 C 444.3092366844831 486.0292526091535 446.54781293532915 483.79067635830745 449.3092366844831 483.79067635830745 C 452.07066043363704 483.79067635830745 454.3092366844831 486.0292526091535 454.3092366844831 488.79067635830745 Z" stroke-opacity="1" stroke-linecap="round" stroke-linejoin="round" stroke-miterlimit="10"/><text fill="rgb(21,101,192)" stroke="none" font-family="geogebra-sans-serif, sans-serif" font-size="16px" font-style="normal" font-weight="normal" text-decoration="normal" x="453" y="479" text-anchor="start" dominant-baseline="alphabetic" fill-opacity="1">A</text><text fill="none" stroke="rgb(255,255,255)" font-family="geogebra-sans-serif, sans-serif" font-size="16px" font-style="normal" font-weight="normal" text-decoration="normal" x="453" y="479" text-anchor="start" dominant-baseline="alphabetic" stroke-opacity="1" stroke-linejoin="bevel" stroke-miterlimit="10" stroke-width="3">A</text><text fill="rgb(21,101,192)" stroke="none" font-family="geogebra-sans-serif, sans-serif" font-size="16px" font-style="normal" font-weight="normal" text-decoration="normal" x="453" y="479" text-anchor="start" dominant-baseline="alphabetic" fill-opacity="1">A</text><path fill="rgb(21,101,192)" stroke="none" paint-order="stroke fill markers" d=" M 508 488.39999999999986 C 508 491.1614237491538 505.76142374915395 493.39999999999986 503 493.39999999999986 C 500.23857625084605 493.39999999999986 498 491.1614237491538 498 488.39999999999986 C 498 485.6385762508459 500.23857625084605 483.39999999999986 503 483.39999999999986 C 505.76142374915395 483.39999999999986 508 485.6385762508459 508 488.39999999999986 Z" fill-opacity="1"/><path fill="none" stroke="rgb(0,0,0)" paint-order="fill stroke markers" d=" M 508 488.39999999999986 C 508 491.1614237491538 505.76142374915395 493.39999999999986 503 493.39999999999986 C 500.23857625084605 493.39999999999986 498 491.1614237491538 498 488.39999999999986 C 498 485.6385762508459 500.23857625084605 483.39999999999986 503 483.39999999999986 C 505.76142374915395 483.39999999999986 508 485.6385762508459 508 488.39999999999986 Z" stroke-opacity="1" stroke-linecap="round" stroke-linejoin="round" stroke-miterlimit="10"/><text fill="rgb(21,101,192)" stroke="none" font-family="geogebra-sans-serif, sans-serif" font-size="16px" font-style="normal" font-weight="normal" text-decoration="normal" x="507" y="478" text-anchor="start" dominant-baseline="alphabetic" fill-opacity="1">B</text><text fill="none" stroke="rgb(255,255,255)" font-family="geogebra-sans-serif, sans-serif" font-size="16px" font-style="normal" font-weight="normal" text-decoration="normal" x="507" y="478" text-anchor="start" dominant-baseline="alphabetic" stroke-opacity="1" stroke-linejoin="bevel" stroke-miterlimit="10" stroke-width="3">B</text><text fill="rgb(21,101,192)" stroke="none" font-family="geogebra-sans-serif, sans-serif" font-size="16px" font-style="normal" font-weight="normal" text-decoration="normal" x="507" y="478" text-anchor="start" dominant-baseline="alphabetic" fill-opacity="1">B</text><path fill="rgb(21,101,192)" stroke="none" paint-order="stroke fill markers" d=" M 480.76316754372556 465.10031535135994 C 480.76316754372556 467.8617391005139 478.5245912928795 470.10031535135994 475.76316754372556 470.10031535135994 C 473.0017437945716 470.10031535135994 470.76316754372556 467.8617391005139 470.76316754372556 465.10031535135994 C 470.76316754372556 462.338891602206 473.0017437945716 460.10031535135994 475.76316754372556 460.10031535135994 C 478.5245912928795 460.10031535135994 480.76316754372556 462.338891602206 480.76316754372556 465.10031535135994 Z" fill-opacity="1"/><path fill="none" stroke="rgb(0,0,0)" paint-order="fill stroke markers" d=" M 480.76316754372556 465.10031535135994 C 480.76316754372556 467.8617391005139 478.5245912928795 470.10031535135994 475.76316754372556 470.10031535135994 C 473.0017437945716 470.10031535135994 470.76316754372556 467.8617391005139 470.76316754372556 465.10031535135994 C 470.76316754372556 462.338891602206 473.0017437945716 460.10031535135994 475.76316754372556 460.10031535135994 C 478.5245912928795 460.10031535135994 480.76316754372556 462.338891602206 480.76316754372556 465.10031535135994 Z" stroke-opacity="1" stroke-linecap="round" stroke-linejoin="round" stroke-miterlimit="10"/><text fill="rgb(21,101,192)" stroke="none" font-family="geogebra-sans-serif, sans-serif" font-size="16px" font-style="normal" font-weight="normal" text-decoration="normal" x="480" y="455" text-anchor="start" dominant-baseline="alphabetic" fill-opacity="1">C</text><text fill="none" stroke="rgb(255,255,255)" font-family="geogebra-sans-serif, sans-serif" font-size="16px" font-style="normal" font-weight="normal" text-decoration="normal" x="480" y="455" text-anchor="start" dominant-baseline="alphabetic" stroke-opacity="1" stroke-linejoin="bevel" stroke-miterlimit="10" stroke-width="3">C</text><text fill="rgb(21,101,192)" stroke="none" font-family="geogebra-sans-serif, sans-serif" font-size="16px" font-style="normal" font-weight="normal" text-decoration="normal" x="480" y="455" text-anchor="start" dominant-baseline="alphabetic" fill-opacity="1">C</text><path fill="rgb(97,97,97)" stroke="none" paint-order="stroke fill markers" d=" M 480.105110036339 512.0935696090688 C 480.105110036339 514.302708608392 478.31424903566216 516.0935696090688 476.105110036339 516.0935696090688 C 473.89597103701584 516.0935696090688 472.105110036339 514.302708608392 472.105110036339 512.0935696090688 C 472.105110036339 509.88443060974566 473.89597103701584 508.0935696090688 476.105110036339 508.0935696090688 C 478.31424903566216 508.0935696090688 480.105110036339 509.88443060974566 480.105110036339 512.0935696090688 Z" fill-opacity="1"/><path fill="none" stroke="rgb(0,0,0)" paint-order="fill stroke markers" d=" M 480.105110036339 512.0935696090688 C 480.105110036339 514.302708608392 478.31424903566216 516.0935696090688 476.105110036339 516.0935696090688 C 473.89597103701584 516.0935696090688 472.105110036339 514.302708608392 472.105110036339 512.0935696090688 C 472.105110036339 509.88443060974566 473.89597103701584 508.0935696090688 476.105110036339 508.0935696090688 C 478.31424903566216 508.0935696090688 480.105110036339 509.88443060974566 480.105110036339 512.0935696090688 Z" stroke-opacity="1" stroke-linecap="round" stroke-linejoin="round" stroke-miterlimit="10"/><text fill="rgb(97,97,97)" stroke="none" font-family="geogebra-sans-serif, sans-serif" font-size="16px" font-style="normal" font-weight="normal" text-decoration="normal" x="480" y="504" text-anchor="start" dominant-baseline="alphabetic" fill-opacity="1">D</text><text fill="none" stroke="rgb(255,255,255)" font-family="geogebra-sans-serif, sans-serif" font-size="16px" font-style="normal" font-weight="normal" text-decoration="normal" x="480" y="504" text-anchor="start" dominant-baseline="alphabetic" stroke-opacity="1" stroke-linejoin="bevel" stroke-miterlimit="10" stroke-width="3">D</text><text fill="rgb(97,97,97)" stroke="none" font-family="geogebra-sans-serif, sans-serif" font-size="16px" font-style="normal" font-weight="normal" text-decoration="normal" x="480" y="504" text-anchor="start" dominant-baseline="alphabetic" fill-opacity="1">D</text></g></g></svg>