<svg version="1.1" xmlns="http://www.w3.org/2000/svg" xmlns:xlink="http://www.w3.org/1999/xlink" width="61" height="41"><defs><clipPath id="sZdTqCFspaqx"><path fill="none" stroke="none" d=" M 0 0 L 61 0 L 61 41 L 0 41 L 0 0 Z"/></clipPath></defs><g transform="scale(1,1)" clip-path="url(#sZdTqCFspaqx)"><g transform="translate(-511,-524)"><rect fill="rgb(255,255,255)" stroke="none" x="0" y="0" width="1126" height="932" fill-opacity="1"/><path fill="none" stroke="rgb(97,97,97)" paint-order="fill stroke markers" d=" M -5 554.3018421207152 L 1131 552.074391140323" stroke-opacity="0.8" stroke-linecap="round" stroke-linejoin="round" stroke-miterlimit="10" stroke-width="2.5"/><path fill="none" stroke="rgb(97,97,97)" paint-order="fill stroke markers" d=" M 537.223097770565 937 L 535.3760389470356 -5" stroke-opacity="0.8" stroke-linecap="round" stroke-linejoin="round" stroke-miterlimit="10" stroke-width="2.5"/><path fill="rgb(21,101,192)" stroke="none" paint-order="stroke fill markers" d=" M 541.4706274470514 553.2401350080739 C 541.4706274470514 556.0015587572279 539.2320511962054 558.2401350080739 536.4706274470514 558.2401350080739 C 533.7092036978974 558.2401350080739 531.4706274470514 556.0015587572279 531.4706274470514 553.2401350080739 C 531.4706274470514 550.4787112589199 533.7092036978974 548.2401350080739 536.4706274470514 548.2401350080739 C 539.2320511962054 548.2401350080739 541.4706274470514 550.4787112589199 541.4706274470514 553.2401350080739 Z" fill-opacity="1"/><path fill="none" stroke="rgb(0,0,0)" paint-order="fill stroke markers" d=" M 541.4706274470514 553.2401350080739 C 541.4706274470514 556.0015587572279 539.2320511962054 558.2401350080739 536.4706274470514 558.2401350080739 C 533.7092036978974 558.2401350080739 531.4706274470514 556.0015587572279 531.4706274470514 553.2401350080739 C 531.4706274470514 550.4787112589199 533.7092036978974 548.2401350080739 536.4706274470514 548.2401350080739 C 539.2320511962054 548.2401350080739 541.4706274470514 550.4787112589199 541.4706274470514 553.2401350080739 Z" stroke-opacity="1" stroke-linecap="round" stroke-linejoin="round" stroke-miterlimit="10"/><text fill="rgb(21,101,192)" stroke="none" font-family="geogebra-sans-serif, sans-serif" font-size="16px" font-style="normal" font-weight="normal" text-decoration="normal" x="540" y="543" text-anchor="start" dominant-baseline="alphabetic" fill-opacity="1">A</text><text fill="none" stroke="rgb(255,255,255)" font-family="geogebra-sans-serif, sans-serif" font-size="16px" font-style="normal" font-weight="normal" text-decoration="normal" x="540" y="543" text-anchor="start" dominant-baseline="alphabetic" stroke-opacity="1" stroke-linejoin="bevel" stroke-miterlimit="10" stroke-width="3">A</text><text fill="rgb(21,101,192)" stroke="none" font-family="geogebra-sans-serif, sans-serif" font-size="16px" font-style="normal" font-weight="normal" text-decoration="normal" x="540" y="543" text-anchor="start" dominant-baseline="alphabetic" fill-opacity="1">A</text><path fill="rgb(21,101,192)" stroke="none" paint-order="stroke fill markers" d=" M 559.5030547623371 553.2047773074556 C 559.5030547623371 555.9662010566096 557.2644785114911 558.2047773074556 554.5030547623371 558.2047773074556 C 551.7416310131831 558.2047773074556 549.5030547623371 555.9662010566096 549.5030547623371 553.2047773074556 C 549.5030547623371 550.4433535583016 551.7416310131831 548.2047773074556 554.5030547623371 548.2047773074556 C 557.2644785114911 548.2047773074556 559.5030547623371 550.4433535583016 559.5030547623371 553.2047773074556 Z" fill-opacity="1"/><path fill="none" stroke="rgb(0,0,0)" paint-order="fill stroke markers" d=" M 559.5030547623371 553.2047773074556 C 559.5030547623371 555.9662010566096 557.2644785114911 558.2047773074556 554.5030547623371 558.2047773074556 C 551.7416310131831 558.2047773074556 549.5030547623371 555.9662010566096 549.5030547623371 553.2047773074556 C 549.5030547623371 550.4433535583016 551.7416310131831 548.2047773074556 554.5030547623371 548.2047773074556 C 557.2644785114911 548.2047773074556 559.5030547623371 550.4433535583016 559.5030547623371 553.2047773074556 Z" stroke-opacity="1" stroke-linecap="round" stroke-linejoin="round" stroke-miterlimit="10"/><text fill="rgb(21,101,192)" stroke="none" font-family="geogebra-sans-serif, sans-serif" font-size="16px" font-style="normal" font-weight="normal" text-decoration="normal" x="559" y="543" text-anchor="start" dominant-baseline="alphabetic" fill-opacity="1">B</text><text fill="none" stroke="rgb(255,255,255)" font-family="geogebra-sans-serif, sans-serif" font-size="16px" font-style="normal" font-weight="normal" text-decoration="normal" x="559" y="543" text-anchor="start" dominant-baseline="alphabetic" stroke-opacity="1" stroke-linejoin="bevel" stroke-miterlimit="10" stroke-width="3">B</text><text fill="rgb(21,101,192)" stroke="none" font-family="geogebra-sans-serif, sans-serif" font-size="16px" font-style="normal" font-weight="normal" text-decoration="normal" x="559" y="543" text-anchor="start" dominant-baseline="alphabetic" fill-opacity="1">B</text><path fill="rgb(21,101,192)" stroke="none" paint-order="stroke fill markers" d=" M 524.1807783186009 553.2740366730317 C 524.1807783186009 556.0354604221857 521.9422020677549 558.2740366730317 519.1807783186009 558.2740366730317 C 516.4193545694469 558.2740366730317 514.1807783186009 556.0354604221857 514.1807783186009 553.2740366730317 C 514.1807783186009 550.5126129238777 516.4193545694469 548.2740366730317 519.1807783186009 548.2740366730317 C 521.9422020677549 548.2740366730317 524.1807783186009 550.5126129238777 524.1807783186009 553.2740366730317 Z" fill-opacity="1"/><path fill="none" stroke="rgb(0,0,0)" paint-order="fill stroke markers" d=" M 524.1807783186009 553.2740366730317 C 524.1807783186009 556.0354604221857 521.9422020677549 558.2740366730317 519.1807783186009 558.2740366730317 C 516.4193545694469 558.2740366730317 514.1807783186009 556.0354604221857 514.1807783186009 553.2740366730317 C 514.1807783186009 550.5126129238777 516.4193545694469 548.2740366730317 519.1807783186009 548.2740366730317 C 521.9422020677549 548.2740366730317 524.1807783186009 550.5126129238777 524.1807783186009 553.2740366730317 Z" stroke-opacity="1" stroke-linecap="round" stroke-linejoin="round" stroke-miterlimit="10"/><text fill="rgb(21,101,192)" stroke="none" font-family="geogebra-sans-serif, sans-serif" font-size="16px" font-style="normal" font-weight="normal" text-decoration="normal" x="523" y="543" text-anchor="start" dominant-baseline="alphabetic" fill-opacity="1">C</text><text fill="none" stroke="rgb(255,255,255)" font-family="geogebra-sans-serif, sans-serif" font-size="16px" font-style="normal" font-weight="normal" text-decoration="normal" x="523" y="543" text-anchor="start" dominant-baseline="alphabetic" stroke-opacity="1" stroke-linejoin="bevel" stroke-miterlimit="10" stroke-width="3">C</text><text fill="rgb(21,101,192)" stroke="none" font-family="geogebra-sans-serif, sans-serif" font-size="16px" font-style="normal" font-weight="normal" text-decoration="normal" x="523" y="543" text-anchor="start" dominant-baseline="alphabetic" fill-opacity="1">C</text></g></g></svg>