<svg version="1.1" xmlns="http://www.w3.org/2000/svg" xmlns:xlink="http://www.w3.org/1999/xlink" width="82" height="93"><defs><clipPath id="vTFMhUCgsknx"><path fill="none" stroke="none" d=" M 0 0 L 82 0 L 82 93 L 0 93 L 0 0 Z"/></clipPath></defs><g transform="scale(1,1)" clip-path="url(#vTFMhUCgsknx)"><g transform="translate(-452,-438)"><rect fill="rgb(255,255,255)" stroke="none" x="0" y="0" width="1126" height="932" fill-opacity="1"/><path fill="none" stroke="rgb(97,97,97)" paint-order="fill stroke markers" d=" M 526.9422442994622 491.1199962261878 C 526.9422442994622 509.6460478426966 511.92391211362155 524.6643800285374 493.3978604971129 524.6643800285374 C 474.87180888060425 524.6643800285374 459.8534766947635 509.6460478426966 459.8534766947635 491.1199962261878 C 459.8534766947635 472.5939446096791 474.87180888060425 457.57561242383827 493.3978604971129 457.57561242383827 C 511.92391211362155 457.57561242383827 526.9422442994622 472.5939446096791 526.9422442994622 491.1199962261878 Z" stroke-opacity="0.8" stroke-linecap="round" stroke-linejoin="round" stroke-miterlimit="10" stroke-width="2.5"/><path fill="none" stroke="rgb(97,97,97)" paint-order="fill stroke markers" d=" M -5 515.6247541100182 L 1131 520.1704552837358" stroke-opacity="0.8" stroke-linecap="round" stroke-linejoin="round" stroke-miterlimit="10" stroke-width="2.5"/><path fill="none" stroke="rgb(97,97,97)" paint-order="fill stroke markers" d=" M 144.44829232630389 937 L 881.6656836306506 -5" stroke-opacity="0.8" stroke-linecap="round" stroke-linejoin="round" stroke-miterlimit="10" stroke-width="2.5"/><path fill="none" stroke="rgb(97,97,97)" paint-order="fill stroke markers" d=" M 512.1816486021131 937 L 515.9510592584879 -5" stroke-opacity="0.8" stroke-linecap="round" stroke-linejoin="round" stroke-miterlimit="10" stroke-width="2.5"/><path fill="rgb(21,101,192)" stroke="none" paint-order="stroke fill markers" d=" M 498.3978604971129 491.1199962261878 C 498.3978604971129 493.88141997534177 496.15928424626685 496.1199962261878 493.3978604971129 496.1199962261878 C 490.63643674795895 496.1199962261878 488.3978604971129 493.88141997534177 488.3978604971129 491.1199962261878 C 488.3978604971129 488.3585724770339 490.63643674795895 486.1199962261878 493.3978604971129 486.1199962261878 C 496.15928424626685 486.1199962261878 498.3978604971129 488.3585724770339 498.3978604971129 491.1199962261878 Z" fill-opacity="1"/><path fill="none" stroke="rgb(0,0,0)" paint-order="fill stroke markers" d=" M 498.3978604971129 491.1199962261878 C 498.3978604971129 493.88141997534177 496.15928424626685 496.1199962261878 493.3978604971129 496.1199962261878 C 490.63643674795895 496.1199962261878 488.3978604971129 493.88141997534177 488.3978604971129 491.1199962261878 C 488.3978604971129 488.3585724770339 490.63643674795895 486.1199962261878 493.3978604971129 486.1199962261878 C 496.15928424626685 486.1199962261878 498.3978604971129 488.3585724770339 498.3978604971129 491.1199962261878 Z" stroke-opacity="1" stroke-linecap="round" stroke-linejoin="round" stroke-miterlimit="10"/><text fill="rgb(21,101,192)" stroke="none" font-family="geogebra-sans-serif, sans-serif" font-size="16px" font-style="normal" font-weight="normal" text-decoration="normal" x="497" y="481" text-anchor="start" dominant-baseline="alphabetic" fill-opacity="1">A</text><text fill="none" stroke="rgb(255,255,255)" font-family="geogebra-sans-serif, sans-serif" font-size="16px" font-style="normal" font-weight="normal" text-decoration="normal" x="497" y="481" text-anchor="start" dominant-baseline="alphabetic" stroke-opacity="1" stroke-linejoin="bevel" stroke-miterlimit="10" stroke-width="3">A</text><text fill="rgb(21,101,192)" stroke="none" font-family="geogebra-sans-serif, sans-serif" font-size="16px" font-style="normal" font-weight="normal" text-decoration="normal" x="497" y="481" text-anchor="start" dominant-baseline="alphabetic" fill-opacity="1">A</text><path fill="rgb(21,101,192)" stroke="none" paint-order="stroke fill markers" d=" M 518.8594726314797 517.7009689988698 C 518.8594726314797 520.4623927480238 516.6208963806337 522.7009689988698 513.8594726314797 522.7009689988698 C 511.0980488823257 522.7009689988698 508.85947263147966 520.4623927480238 508.85947263147966 517.7009689988698 C 508.85947263147966 514.9395452497158 511.0980488823257 512.7009689988698 513.8594726314797 512.7009689988698 C 516.6208963806337 512.7009689988698 518.8594726314797 514.9395452497158 518.8594726314797 517.7009689988698 Z" fill-opacity="1"/><path fill="none" stroke="rgb(0,0,0)" paint-order="fill stroke markers" d=" M 518.8594726314797 517.7009689988698 C 518.8594726314797 520.4623927480238 516.6208963806337 522.7009689988698 513.8594726314797 522.7009689988698 C 511.0980488823257 522.7009689988698 508.85947263147966 520.4623927480238 508.85947263147966 517.7009689988698 C 508.85947263147966 514.9395452497158 511.0980488823257 512.7009689988698 513.8594726314797 512.7009689988698 C 516.6208963806337 512.7009689988698 518.8594726314797 514.9395452497158 518.8594726314797 517.7009689988698 Z" stroke-opacity="1" stroke-linecap="round" stroke-linejoin="round" stroke-miterlimit="10"/><text fill="rgb(21,101,192)" stroke="none" font-family="geogebra-sans-serif, sans-serif" font-size="16px" font-style="normal" font-weight="normal" text-decoration="normal" x="518" y="508" text-anchor="start" dominant-baseline="alphabetic" fill-opacity="1">B</text><text fill="none" stroke="rgb(255,255,255)" font-family="geogebra-sans-serif, sans-serif" font-size="16px" font-style="normal" font-weight="normal" text-decoration="normal" x="518" y="508" text-anchor="start" dominant-baseline="alphabetic" stroke-opacity="1" stroke-linejoin="bevel" stroke-miterlimit="10" stroke-width="3">B</text><text fill="rgb(21,101,192)" stroke="none" font-family="geogebra-sans-serif, sans-serif" font-size="16px" font-style="normal" font-weight="normal" text-decoration="normal" x="518" y="508" text-anchor="start" dominant-baseline="alphabetic" fill-opacity="1">B</text><path fill="rgb(21,101,192)" stroke="none" paint-order="stroke fill markers" d=" M 477.72417962749444 517.536366226256 C 477.72417962749444 520.29778997541 475.4856033766484 522.536366226256 472.72417962749444 522.536366226256 C 469.9627558783405 522.536366226256 467.72417962749444 520.29778997541 467.72417962749444 517.536366226256 C 467.72417962749444 514.774942477102 469.9627558783405 512.536366226256 472.72417962749444 512.536366226256 C 475.4856033766484 512.536366226256 477.72417962749444 514.774942477102 477.72417962749444 517.536366226256 Z" fill-opacity="1"/><path fill="none" stroke="rgb(0,0,0)" paint-order="fill stroke markers" d=" M 477.72417962749444 517.536366226256 C 477.72417962749444 520.29778997541 475.4856033766484 522.536366226256 472.72417962749444 522.536366226256 C 469.9627558783405 522.536366226256 467.72417962749444 520.29778997541 467.72417962749444 517.536366226256 C 467.72417962749444 514.774942477102 469.9627558783405 512.536366226256 472.72417962749444 512.536366226256 C 475.4856033766484 512.536366226256 477.72417962749444 514.774942477102 477.72417962749444 517.536366226256 Z" stroke-opacity="1" stroke-linecap="round" stroke-linejoin="round" stroke-miterlimit="10"/><text fill="rgb(21,101,192)" stroke="none" font-family="geogebra-sans-serif, sans-serif" font-size="16px" font-style="normal" font-weight="normal" text-decoration="normal" x="477" y="508" text-anchor="start" dominant-baseline="alphabetic" fill-opacity="1">C</text><text fill="none" stroke="rgb(255,255,255)" font-family="geogebra-sans-serif, sans-serif" font-size="16px" font-style="normal" font-weight="normal" text-decoration="normal" x="477" y="508" text-anchor="start" dominant-baseline="alphabetic" stroke-opacity="1" stroke-linejoin="bevel" stroke-miterlimit="10" stroke-width="3">C</text><text fill="rgb(21,101,192)" stroke="none" font-family="geogebra-sans-serif, sans-serif" font-size="16px" font-style="normal" font-weight="normal" text-decoration="normal" x="477" y="508" text-anchor="start" dominant-baseline="alphabetic" fill-opacity="1">C</text><path fill="rgb(97,97,97)" stroke="none" paint-order="stroke fill markers" d=" M 518.0715413667314 464.70362622611975 C 518.0715413667314 466.9127652254429 516.2806803660545 468.70362622611975 514.0715413667314 468.70362622611975 C 511.8624023674082 468.70362622611975 510.07154136673137 466.9127652254429 510.07154136673137 464.70362622611975 C 510.07154136673137 462.4944872267966 511.8624023674082 460.70362622611975 514.0715413667314 460.70362622611975 C 516.2806803660545 460.70362622611975 518.0715413667314 462.4944872267966 518.0715413667314 464.70362622611975 Z" fill-opacity="1"/><path fill="none" stroke="rgb(0,0,0)" paint-order="fill stroke markers" d=" M 518.0715413667314 464.70362622611975 C 518.0715413667314 466.9127652254429 516.2806803660545 468.70362622611975 514.0715413667314 468.70362622611975 C 511.8624023674082 468.70362622611975 510.07154136673137 466.9127652254429 510.07154136673137 464.70362622611975 C 510.07154136673137 462.4944872267966 511.8624023674082 460.70362622611975 514.0715413667314 460.70362622611975 C 516.2806803660545 460.70362622611975 518.0715413667314 462.4944872267966 518.0715413667314 464.70362622611975 Z" stroke-opacity="1" stroke-linecap="round" stroke-linejoin="round" stroke-miterlimit="10"/><text fill="rgb(97,97,97)" stroke="none" font-family="geogebra-sans-serif, sans-serif" font-size="16px" font-style="normal" font-weight="normal" text-decoration="normal" x="518" y="457" text-anchor="start" dominant-baseline="alphabetic" fill-opacity="1">D</text><text fill="none" stroke="rgb(255,255,255)" font-family="geogebra-sans-serif, sans-serif" font-size="16px" font-style="normal" font-weight="normal" text-decoration="normal" x="518" y="457" text-anchor="start" dominant-baseline="alphabetic" stroke-opacity="1" stroke-linejoin="bevel" stroke-miterlimit="10" stroke-width="3">D</text><text fill="rgb(97,97,97)" stroke="none" font-family="geogebra-sans-serif, sans-serif" font-size="16px" font-style="normal" font-weight="normal" text-decoration="normal" x="518" y="457" text-anchor="start" dominant-baseline="alphabetic" fill-opacity="1">D</text></g></g></svg>