<svg version="1.1" xmlns="http://www.w3.org/2000/svg" xmlns:xlink="http://www.w3.org/1999/xlink" width="129" height="154"><defs><clipPath id="BVsoDNHeEafC"><path fill="none" stroke="none" d=" M 0 0 L 129 0 L 129 154 L 0 154 L 0 0 Z"/></clipPath></defs><g transform="scale(1,1)" clip-path="url(#BVsoDNHeEafC)"><g transform="translate(-624,-431)"><rect fill="rgb(255,255,255)" stroke="none" x="0" y="0" width="1204" height="932" fill-opacity="1"/><path fill="none" stroke="rgb(97,97,97)" paint-order="fill stroke markers" d=" M 692.0583928087157 509.12250080356995 C 692.0583928087157 524.4517870701928 679.631550970553 536.8786289083554 664.3022647039301 536.8786289083554 C 648.9729784373071 536.8786289083554 636.5461365991446 524.4517870701928 636.5461365991446 509.12250080356995 C 636.5461365991446 493.79321453694706 648.9729784373071 481.36637269878446 664.3022647039301 481.36637269878446 C 679.631550970553 481.36637269878446 692.0583928087157 493.79321453694706 692.0583928087157 509.12250080356995 Z" stroke-opacity="0.8" stroke-linecap="round" stroke-linejoin="round" stroke-miterlimit="10" stroke-width="2.5"/><path fill="none" stroke="rgb(97,97,97)" paint-order="fill stroke markers" d=" M 714.5605524187156 534.3288846702739 C 714.5605524187156 555.6678305908839 697.2619188531135 572.966464156486 675.9229729325033 572.966464156486 C 654.5840270118931 572.966464156486 637.285393446291 555.6678305908839 637.285393446291 534.3288846702739 C 637.285393446291 512.9899387496637 654.5840270118931 495.6913051840616 675.9229729325033 495.6913051840616 C 697.2619188531135 495.6913051840616 714.5605524187156 512.9899387496637 714.5605524187156 534.3288846702739 Z" stroke-opacity="0.8" stroke-linecap="round" stroke-linejoin="round" stroke-miterlimit="10" stroke-width="2.5"/><path fill="none" stroke="rgb(97,97,97)" paint-order="fill stroke markers" d=" M 745.3434035369436 498.2917256073156 C 745.3434035369436 528.9354532370264 720.5017540326681 553.7771027413019 689.8580264029573 553.7771027413019 C 659.2142987732464 553.7771027413019 634.3726492689709 528.9354532370264 634.3726492689709 498.2917256073156 C 634.3726492689709 467.64799797760475 659.2142987732464 442.8063484733293 689.8580264029573 442.8063484733293 C 720.5017540326681 442.8063484733293 745.3434035369436 467.64799797760475 745.3434035369436 498.2917256073156 Z" stroke-opacity="0.8" stroke-linecap="round" stroke-linejoin="round" stroke-miterlimit="10" stroke-width="2.5"/><path fill="none" stroke="rgb(97,97,97)" paint-order="fill stroke markers" d=" M 875.7867712646189 937 L 476.5581998360471 -5" stroke-opacity="0.8" stroke-linecap="round" stroke-linejoin="round" stroke-miterlimit="10" stroke-width="2.5"/><path fill="rgb(21,101,192)" stroke="none" paint-order="stroke fill markers" d=" M 669.3022647039301 509.12250080356995 C 669.3022647039301 511.8839245527239 667.0636884530841 514.1225008035699 664.3022647039301 514.1225008035699 C 661.5408409547761 514.1225008035699 659.3022647039301 511.8839245527239 659.3022647039301 509.12250080356995 C 659.3022647039301 506.361077054416 661.5408409547761 504.12250080356995 664.3022647039301 504.12250080356995 C 667.0636884530841 504.12250080356995 669.3022647039301 506.361077054416 669.3022647039301 509.12250080356995 Z" fill-opacity="1"/><path fill="none" stroke="rgb(0,0,0)" paint-order="fill stroke markers" d=" M 669.3022647039301 509.12250080356995 C 669.3022647039301 511.8839245527239 667.0636884530841 514.1225008035699 664.3022647039301 514.1225008035699 C 661.5408409547761 514.1225008035699 659.3022647039301 511.8839245527239 659.3022647039301 509.12250080356995 C 659.3022647039301 506.361077054416 661.5408409547761 504.12250080356995 664.3022647039301 504.12250080356995 C 667.0636884530841 504.12250080356995 669.3022647039301 506.361077054416 669.3022647039301 509.12250080356995 Z" stroke-opacity="1" stroke-linecap="round" stroke-linejoin="round" stroke-miterlimit="10"/><text fill="rgb(21,101,192)" stroke="none" font-family="geogebra-sans-serif, sans-serif" font-size="16px" font-style="normal" font-weight="normal" text-decoration="normal" x="668" y="499" text-anchor="start" dominant-baseline="alphabetic" fill-opacity="1">A</text><text fill="none" stroke="rgb(255,255,255)" font-family="geogebra-sans-serif, sans-serif" font-size="16px" font-style="normal" font-weight="normal" text-decoration="normal" x="668" y="499" text-anchor="start" dominant-baseline="alphabetic" stroke-opacity="1" stroke-linejoin="bevel" stroke-miterlimit="10" stroke-width="3">A</text><text fill="rgb(21,101,192)" stroke="none" font-family="geogebra-sans-serif, sans-serif" font-size="16px" font-style="normal" font-weight="normal" text-decoration="normal" x="668" y="499" text-anchor="start" dominant-baseline="alphabetic" fill-opacity="1">A</text><path fill="rgb(21,101,192)" stroke="none" paint-order="stroke fill markers" d=" M 694.8580264029573 498.2917256073156 C 694.8580264029573 501.05314935646953 692.6194501521113 503.2917256073156 689.8580264029573 503.2917256073156 C 687.0966026538033 503.2917256073156 684.8580264029573 501.05314935646953 684.8580264029573 498.2917256073156 C 684.8580264029573 495.53030185816164 687.0966026538033 493.2917256073156 689.8580264029573 493.2917256073156 C 692.6194501521113 493.2917256073156 694.8580264029573 495.53030185816164 694.8580264029573 498.2917256073156 Z" fill-opacity="1"/><path fill="none" stroke="rgb(0,0,0)" paint-order="fill stroke markers" d=" M 694.8580264029573 498.2917256073156 C 694.8580264029573 501.05314935646953 692.6194501521113 503.2917256073156 689.8580264029573 503.2917256073156 C 687.0966026538033 503.2917256073156 684.8580264029573 501.05314935646953 684.8580264029573 498.2917256073156 C 684.8580264029573 495.53030185816164 687.0966026538033 493.2917256073156 689.8580264029573 493.2917256073156 C 692.6194501521113 493.2917256073156 694.8580264029573 495.53030185816164 694.8580264029573 498.2917256073156 Z" stroke-opacity="1" stroke-linecap="round" stroke-linejoin="round" stroke-miterlimit="10"/><text fill="rgb(21,101,192)" stroke="none" font-family="geogebra-sans-serif, sans-serif" font-size="16px" font-style="normal" font-weight="normal" text-decoration="normal" x="694" y="488" text-anchor="start" dominant-baseline="alphabetic" fill-opacity="1">B</text><text fill="none" stroke="rgb(255,255,255)" font-family="geogebra-sans-serif, sans-serif" font-size="16px" font-style="normal" font-weight="normal" text-decoration="normal" x="694" y="488" text-anchor="start" dominant-baseline="alphabetic" stroke-opacity="1" stroke-linejoin="bevel" stroke-miterlimit="10" stroke-width="3">B</text><text fill="rgb(21,101,192)" stroke="none" font-family="geogebra-sans-serif, sans-serif" font-size="16px" font-style="normal" font-weight="normal" text-decoration="normal" x="694" y="488" text-anchor="start" dominant-baseline="alphabetic" fill-opacity="1">B</text><path fill="rgb(21,101,192)" stroke="none" paint-order="stroke fill markers" d=" M 680.9229729325033 534.3288846702739 C 680.9229729325033 537.0903084194279 678.6843966816573 539.3288846702739 675.9229729325033 539.3288846702739 C 673.1615491833493 539.3288846702739 670.9229729325033 537.0903084194279 670.9229729325033 534.3288846702739 C 670.9229729325033 531.5674609211198 673.1615491833493 529.3288846702739 675.9229729325033 529.3288846702739 C 678.6843966816573 529.3288846702739 680.9229729325033 531.5674609211198 680.9229729325033 534.3288846702739 Z" fill-opacity="1"/><path fill="none" stroke="rgb(0,0,0)" paint-order="fill stroke markers" d=" M 680.9229729325033 534.3288846702739 C 680.9229729325033 537.0903084194279 678.6843966816573 539.3288846702739 675.9229729325033 539.3288846702739 C 673.1615491833493 539.3288846702739 670.9229729325033 537.0903084194279 670.9229729325033 534.3288846702739 C 670.9229729325033 531.5674609211198 673.1615491833493 529.3288846702739 675.9229729325033 529.3288846702739 C 678.6843966816573 529.3288846702739 680.9229729325033 531.5674609211198 680.9229729325033 534.3288846702739 Z" stroke-opacity="1" stroke-linecap="round" stroke-linejoin="round" stroke-miterlimit="10"/><text fill="rgb(21,101,192)" stroke="none" font-family="geogebra-sans-serif, sans-serif" font-size="16px" font-style="normal" font-weight="normal" text-decoration="normal" x="680" y="524" text-anchor="start" dominant-baseline="alphabetic" fill-opacity="1">C</text><text fill="none" stroke="rgb(255,255,255)" font-family="geogebra-sans-serif, sans-serif" font-size="16px" font-style="normal" font-weight="normal" text-decoration="normal" x="680" y="524" text-anchor="start" dominant-baseline="alphabetic" stroke-opacity="1" stroke-linejoin="bevel" stroke-miterlimit="10" stroke-width="3">C</text><text fill="rgb(21,101,192)" stroke="none" font-family="geogebra-sans-serif, sans-serif" font-size="16px" font-style="normal" font-weight="normal" text-decoration="normal" x="680" y="524" text-anchor="start" dominant-baseline="alphabetic" fill-opacity="1">C</text><path fill="rgb(97,97,97)" stroke="none" paint-order="stroke fill markers" d=" M 643.4696685690357 521.5218885533944 C 643.4696685690357 523.7310275527176 641.6788075683588 525.5218885533944 639.4696685690357 525.5218885533944 C 637.2605295697125 525.5218885533944 635.4696685690357 523.7310275527176 635.4696685690357 521.5218885533944 C 635.4696685690357 519.3127495540713 637.2605295697125 517.5218885533944 639.4696685690357 517.5218885533944 C 641.6788075683588 517.5218885533944 643.4696685690357 519.3127495540713 643.4696685690357 521.5218885533944 Z" fill-opacity="1"/><path fill="none" stroke="rgb(0,0,0)" paint-order="fill stroke markers" d=" M 643.4696685690357 521.5218885533944 C 643.4696685690357 523.7310275527176 641.6788075683588 525.5218885533944 639.4696685690357 525.5218885533944 C 637.2605295697125 525.5218885533944 635.4696685690357 523.7310275527176 635.4696685690357 521.5218885533944 C 635.4696685690357 519.3127495540713 637.2605295697125 517.5218885533944 639.4696685690357 517.5218885533944 C 641.6788075683588 517.5218885533944 643.4696685690357 519.3127495540713 643.4696685690357 521.5218885533944 Z" stroke-opacity="1" stroke-linecap="round" stroke-linejoin="round" stroke-miterlimit="10"/><text fill="rgb(97,97,97)" stroke="none" font-family="geogebra-sans-serif, sans-serif" font-size="16px" font-style="normal" font-weight="normal" text-decoration="normal" x="643" y="514" text-anchor="start" dominant-baseline="alphabetic" fill-opacity="1">D</text><text fill="none" stroke="rgb(255,255,255)" font-family="geogebra-sans-serif, sans-serif" font-size="16px" font-style="normal" font-weight="normal" text-decoration="normal" x="643" y="514" text-anchor="start" dominant-baseline="alphabetic" stroke-opacity="1" stroke-linejoin="bevel" stroke-miterlimit="10" stroke-width="3">D</text><text fill="rgb(97,97,97)" stroke="none" font-family="geogebra-sans-serif, sans-serif" font-size="16px" font-style="normal" font-weight="normal" text-decoration="normal" x="643" y="514" text-anchor="start" dominant-baseline="alphabetic" fill-opacity="1">D</text><path fill="rgb(97,97,97)" stroke="none" paint-order="stroke fill markers" d=" M 715.5090882567173 549.378500767873 C 715.5090882567173 551.5876397671962 713.7182272560404 553.378500767873 711.5090882567173 553.378500767873 C 709.2999492573941 553.378500767873 707.5090882567173 551.5876397671962 707.5090882567173 549.378500767873 C 707.5090882567173 547.1693617685498 709.2999492573941 545.378500767873 711.5090882567173 545.378500767873 C 713.7182272560404 545.378500767873 715.5090882567173 547.1693617685498 715.5090882567173 549.378500767873 Z" fill-opacity="1"/><path fill="none" stroke="rgb(0,0,0)" paint-order="fill stroke markers" d=" M 715.5090882567173 549.378500767873 C 715.5090882567173 551.5876397671962 713.7182272560404 553.378500767873 711.5090882567173 553.378500767873 C 709.2999492573941 553.378500767873 707.5090882567173 551.5876397671962 707.5090882567173 549.378500767873 C 707.5090882567173 547.1693617685498 709.2999492573941 545.378500767873 711.5090882567173 545.378500767873 C 713.7182272560404 545.378500767873 715.5090882567173 547.1693617685498 715.5090882567173 549.378500767873 Z" stroke-opacity="1" stroke-linecap="round" stroke-linejoin="round" stroke-miterlimit="10"/><text fill="rgb(97,97,97)" stroke="none" font-family="geogebra-sans-serif, sans-serif" font-size="16px" font-style="normal" font-weight="normal" text-decoration="normal" x="716" y="541" text-anchor="start" dominant-baseline="alphabetic" fill-opacity="1">E</text><text fill="none" stroke="rgb(255,255,255)" font-family="geogebra-sans-serif, sans-serif" font-size="16px" font-style="normal" font-weight="normal" text-decoration="normal" x="716" y="541" text-anchor="start" dominant-baseline="alphabetic" stroke-opacity="1" stroke-linejoin="bevel" stroke-miterlimit="10" stroke-width="3">E</text><text fill="rgb(97,97,97)" stroke="none" font-family="geogebra-sans-serif, sans-serif" font-size="16px" font-style="normal" font-weight="normal" text-decoration="normal" x="716" y="541" text-anchor="start" dominant-baseline="alphabetic" fill-opacity="1">E</text></g></g></svg>