<svg version="1.1" xmlns="http://www.w3.org/2000/svg" xmlns:xlink="http://www.w3.org/1999/xlink" width="82" height="78"><defs><clipPath id="vMqkkGuixznI"><path fill="none" stroke="none" d=" M 0 0 L 82 0 L 82 78 L 0 78 L 0 0 Z"/></clipPath></defs><g transform="scale(1,1)" clip-path="url(#vMqkkGuixznI)"><g transform="translate(-380,-473)"><rect fill="rgb(255,255,255)" stroke="none" x="0" y="0" width="1126" height="932" fill-opacity="1"/><path fill="none" stroke="rgb(97,97,97)" paint-order="fill stroke markers" d=" M 441.5342264812615 516.0718899713337 C 441.5342264812615 531.4469733225837 429.07025877060806 543.9109410332373 413.695175419358 543.9109410332373 C 398.320092068108 543.9109410332373 385.8561243574546 531.4469733225837 385.8561243574546 516.0718899713337 C 385.8561243574546 500.6968066200835 398.320092068108 488.23283890943003 413.695175419358 488.23283890943003 C 429.07025877060806 488.23283890943003 441.5342264812615 500.6968066200835 441.5342264812615 516.0718899713337 Z" stroke-opacity="0.8" stroke-linecap="round" stroke-linejoin="round" stroke-miterlimit="10" stroke-width="2.5"/><path fill="none" stroke="rgb(97,97,97)" paint-order="fill stroke markers" d=" M 643.7126169032966 937 L 197.8805558346001 -5" stroke-opacity="0.8" stroke-linecap="round" stroke-linejoin="round" stroke-miterlimit="10" stroke-width="2.5"/><path fill="none" stroke="rgb(97,97,97)" paint-order="fill stroke markers" d=" M 413.695175419358 516.0718899713337 L 438.8582891376674 504.1626300435843" stroke-opacity="0.8" stroke-linecap="round" stroke-linejoin="round" stroke-miterlimit="10" stroke-width="2.5"/><path fill="rgb(21,101,192)" stroke="none" paint-order="stroke fill markers" d=" M 418.695175419358 516.0718899713337 C 418.695175419358 518.8333137204877 416.45659916851196 521.0718899713337 413.695175419358 521.0718899713337 C 410.93375167020406 521.0718899713337 408.695175419358 518.8333137204877 408.695175419358 516.0718899713337 C 408.695175419358 513.3104662221797 410.93375167020406 511.0718899713337 413.695175419358 511.0718899713337 C 416.45659916851196 511.0718899713337 418.695175419358 513.3104662221797 418.695175419358 516.0718899713337 Z" fill-opacity="1"/><path fill="none" stroke="rgb(0,0,0)" paint-order="fill stroke markers" d=" M 418.695175419358 516.0718899713337 C 418.695175419358 518.8333137204877 416.45659916851196 521.0718899713337 413.695175419358 521.0718899713337 C 410.93375167020406 521.0718899713337 408.695175419358 518.8333137204877 408.695175419358 516.0718899713337 C 408.695175419358 513.3104662221797 410.93375167020406 511.0718899713337 413.695175419358 511.0718899713337 C 416.45659916851196 511.0718899713337 418.695175419358 513.3104662221797 418.695175419358 516.0718899713337 Z" stroke-opacity="1" stroke-linecap="round" stroke-linejoin="round" stroke-miterlimit="10"/><text fill="rgb(21,101,192)" stroke="none" font-family="geogebra-sans-serif, sans-serif" font-size="16px" font-style="normal" font-weight="normal" text-decoration="normal" x="418" y="506" text-anchor="start" dominant-baseline="alphabetic" fill-opacity="1">A</text><text fill="none" stroke="rgb(255,255,255)" font-family="geogebra-sans-serif, sans-serif" font-size="16px" font-style="normal" font-weight="normal" text-decoration="normal" x="418" y="506" text-anchor="start" dominant-baseline="alphabetic" stroke-opacity="1" stroke-linejoin="bevel" stroke-miterlimit="10" stroke-width="3">A</text><text fill="rgb(21,101,192)" stroke="none" font-family="geogebra-sans-serif, sans-serif" font-size="16px" font-style="normal" font-weight="normal" text-decoration="normal" x="418" y="506" text-anchor="start" dominant-baseline="alphabetic" fill-opacity="1">A</text><path fill="rgb(21,101,192)" stroke="none" paint-order="stroke fill markers" d=" M 443.8582891376674 504.1626300435843 C 443.8582891376674 506.9240537927382 441.61971288682133 509.1626300435843 438.8582891376674 509.1626300435843 C 436.09686538851344 509.1626300435843 433.8582891376674 506.9240537927382 433.8582891376674 504.1626300435843 C 433.8582891376674 501.4012062944303 436.09686538851344 499.1626300435843 438.8582891376674 499.1626300435843 C 441.61971288682133 499.1626300435843 443.8582891376674 501.4012062944303 443.8582891376674 504.1626300435843 Z" fill-opacity="1"/><path fill="none" stroke="rgb(0,0,0)" paint-order="fill stroke markers" d=" M 443.8582891376674 504.1626300435843 C 443.8582891376674 506.9240537927382 441.61971288682133 509.1626300435843 438.8582891376674 509.1626300435843 C 436.09686538851344 509.1626300435843 433.8582891376674 506.9240537927382 433.8582891376674 504.1626300435843 C 433.8582891376674 501.4012062944303 436.09686538851344 499.1626300435843 438.8582891376674 499.1626300435843 C 441.61971288682133 499.1626300435843 443.8582891376674 501.4012062944303 443.8582891376674 504.1626300435843 Z" stroke-opacity="1" stroke-linecap="round" stroke-linejoin="round" stroke-miterlimit="10"/><text fill="rgb(21,101,192)" stroke="none" font-family="geogebra-sans-serif, sans-serif" font-size="16px" font-style="normal" font-weight="normal" text-decoration="normal" x="443" y="494" text-anchor="start" dominant-baseline="alphabetic" fill-opacity="1">B</text><text fill="none" stroke="rgb(255,255,255)" font-family="geogebra-sans-serif, sans-serif" font-size="16px" font-style="normal" font-weight="normal" text-decoration="normal" x="443" y="494" text-anchor="start" dominant-baseline="alphabetic" stroke-opacity="1" stroke-linejoin="bevel" stroke-miterlimit="10" stroke-width="3">B</text><text fill="rgb(21,101,192)" stroke="none" font-family="geogebra-sans-serif, sans-serif" font-size="16px" font-style="normal" font-weight="normal" text-decoration="normal" x="443" y="494" text-anchor="start" dominant-baseline="alphabetic" fill-opacity="1">B</text></g></g></svg>