<svg version="1.1" xmlns="http://www.w3.org/2000/svg" xmlns:xlink="http://www.w3.org/1999/xlink" width="68" height="70"><defs><clipPath id="tpnycWeccUTQ"><path fill="none" stroke="none" d=" M 0 0 L 68 0 L 68 70 L 0 70 L 0 0 Z"/></clipPath></defs><g transform="scale(1,1)" clip-path="url(#tpnycWeccUTQ)"><g transform="translate(-409,-440)"><rect fill="rgb(255,255,255)" stroke="none" x="0" y="0" width="1204" height="932" fill-opacity="1"/><path fill="none" stroke="rgb(97,97,97)" paint-order="fill stroke markers" d=" M 469.1893476715118 470.5324174817396 C 469.1893476715118 485.30417212900363 457.2144745116714 497.27904528884403 442.4427198644074 497.27904528884403 C 427.6709652171435 497.27904528884403 415.6960920573031 485.30417212900363 415.6960920573031 470.5324174817396 C 415.6960920573031 455.7606628344756 427.6709652171435 443.7857896746352 442.4427198644074 443.7857896746352 C 457.2144745116714 443.7857896746352 469.1893476715118 455.7606628344756 469.1893476715118 470.5324174817396 Z" stroke-opacity="0.8" stroke-linecap="round" stroke-linejoin="round" stroke-miterlimit="10" stroke-width="2.5"/><path fill="none" stroke="rgb(97,97,97)" paint-order="fill stroke markers" d=" M 445.21931261749233 937 L 439.61216976034945 -5" stroke-opacity="0.8" stroke-linecap="round" stroke-linejoin="round" stroke-miterlimit="10" stroke-width="2.5"/><path fill="none" stroke="rgb(97,97,97)" paint-order="fill stroke markers" d=" M -5 499.9428686353814 L 1209 492.7166781591909" stroke-opacity="0.8" stroke-linecap="round" stroke-linejoin="round" stroke-miterlimit="10" stroke-width="2.5"/><path fill="rgb(21,101,192)" stroke="none" paint-order="stroke fill markers" d=" M 447.4427198644074 470.5324174817396 C 447.4427198644074 473.2938412308936 445.20414361356137 475.5324174817396 442.4427198644074 475.5324174817396 C 439.6812961152535 475.5324174817396 437.4427198644074 473.2938412308936 437.4427198644074 470.5324174817396 C 437.4427198644074 467.7709937325857 439.6812961152535 465.5324174817396 442.4427198644074 465.5324174817396 C 445.20414361356137 465.5324174817396 447.4427198644074 467.7709937325857 447.4427198644074 470.5324174817396 Z" fill-opacity="1"/><path fill="none" stroke="rgb(0,0,0)" paint-order="fill stroke markers" d=" M 447.4427198644074 470.5324174817396 C 447.4427198644074 473.2938412308936 445.20414361356137 475.5324174817396 442.4427198644074 475.5324174817396 C 439.6812961152535 475.5324174817396 437.4427198644074 473.2938412308936 437.4427198644074 470.5324174817396 C 437.4427198644074 467.7709937325857 439.6812961152535 465.5324174817396 442.4427198644074 465.5324174817396 C 445.20414361356137 465.5324174817396 447.4427198644074 467.7709937325857 447.4427198644074 470.5324174817396 Z" stroke-opacity="1" stroke-linecap="round" stroke-linejoin="round" stroke-miterlimit="10"/><text fill="rgb(21,101,192)" stroke="none" font-family="geogebra-sans-serif, sans-serif" font-size="16px" font-style="normal" font-weight="normal" text-decoration="normal" x="446" y="461" text-anchor="start" dominant-baseline="alphabetic" fill-opacity="1">A</text><text fill="none" stroke="rgb(255,255,255)" font-family="geogebra-sans-serif, sans-serif" font-size="16px" font-style="normal" font-weight="normal" text-decoration="normal" x="446" y="461" text-anchor="start" dominant-baseline="alphabetic" stroke-opacity="1" stroke-linejoin="bevel" stroke-miterlimit="10" stroke-width="3">A</text><text fill="rgb(21,101,192)" stroke="none" font-family="geogebra-sans-serif, sans-serif" font-size="16px" font-style="normal" font-weight="normal" text-decoration="normal" x="446" y="461" text-anchor="start" dominant-baseline="alphabetic" fill-opacity="1">A</text><path fill="rgb(21,101,192)" stroke="none" paint-order="stroke fill markers" d=" M 447.6019231619786 497.2785714737029 C 447.6019231619786 500.0399952228569 445.36334691113257 502.2785714737029 442.6019231619786 502.2785714737029 C 439.84049941282467 502.2785714737029 437.6019231619786 500.0399952228569 437.6019231619786 497.2785714737029 C 437.6019231619786 494.517147724549 439.84049941282467 492.2785714737029 442.6019231619786 492.2785714737029 C 445.36334691113257 492.2785714737029 447.6019231619786 494.517147724549 447.6019231619786 497.2785714737029 Z" fill-opacity="1"/><path fill="none" stroke="rgb(0,0,0)" paint-order="fill stroke markers" d=" M 447.6019231619786 497.2785714737029 C 447.6019231619786 500.0399952228569 445.36334691113257 502.2785714737029 442.6019231619786 502.2785714737029 C 439.84049941282467 502.2785714737029 437.6019231619786 500.0399952228569 437.6019231619786 497.2785714737029 C 437.6019231619786 494.517147724549 439.84049941282467 492.2785714737029 442.6019231619786 492.2785714737029 C 445.36334691113257 492.2785714737029 447.6019231619786 494.517147724549 447.6019231619786 497.2785714737029 Z" stroke-opacity="1" stroke-linecap="round" stroke-linejoin="round" stroke-miterlimit="10"/><text fill="rgb(21,101,192)" stroke="none" font-family="geogebra-sans-serif, sans-serif" font-size="16px" font-style="normal" font-weight="normal" text-decoration="normal" x="447" y="487" text-anchor="start" dominant-baseline="alphabetic" fill-opacity="1">B</text><text fill="none" stroke="rgb(255,255,255)" font-family="geogebra-sans-serif, sans-serif" font-size="16px" font-style="normal" font-weight="normal" text-decoration="normal" x="447" y="487" text-anchor="start" dominant-baseline="alphabetic" stroke-opacity="1" stroke-linejoin="bevel" stroke-miterlimit="10" stroke-width="3">B</text><text fill="rgb(21,101,192)" stroke="none" font-family="geogebra-sans-serif, sans-serif" font-size="16px" font-style="normal" font-weight="normal" text-decoration="normal" x="447" y="487" text-anchor="start" dominant-baseline="alphabetic" fill-opacity="1">B</text></g></g></svg>