<svg version="1.1" xmlns="http://www.w3.org/2000/svg" xmlns:xlink="http://www.w3.org/1999/xlink" width="598" height="540"><defs><clipPath id="yNoWUTFGZvyW"><path fill="none" stroke="none" d=" M 0 0 L 598 0 L 598 540 L 0 540 L 0 0 Z"/></clipPath></defs><g transform="scale(1,1)" clip-path="url(#yNoWUTFGZvyW)"><g transform="translate(-197,-155)"><rect fill="rgb(255,255,255)" stroke="none" x="0" y="0" width="1204" height="932" fill-opacity="1"/><path fill="none" stroke="rgb(97,97,97)" paint-order="fill stroke markers" d=" M 604.4031443652259 484.2199999999999 C 604.4031443652259 592.2762478893569 516.8062478893568 679.873144365226 408.7499999999999 679.873144365226 C 300.693752110643 679.873144365226 213.09685563477393 592.2762478893569 213.09685563477393 484.2199999999999 C 213.09685563477393 376.1637521106429 300.693752110643 288.5668556347738 408.7499999999999 288.5668556347738 C 516.8062478893568 288.5668556347738 604.4031443652259 376.1637521106429 604.4031443652259 484.2199999999999 Z" stroke-opacity="0.8" stroke-linecap="round" stroke-linejoin="round" stroke-miterlimit="10" stroke-width="2.5"/><path fill="none" stroke="rgb(97,97,97)" paint-order="fill stroke markers" d=" M 780.878830389586 484.20240496619516 C 780.878830389586 581.6672355103212 701.8679741181936 660.6780917817138 604.4031435740676 660.6780917817138 C 506.9383130299416 660.6780917817138 427.92745675854917 581.6672355103212 427.92745675854917 484.20240496619516 C 427.92745675854917 386.73757442206903 506.9383130299416 307.72671815067656 604.4031435740676 307.72671815067656 C 701.8679741181936 307.72671815067656 780.878830389586 386.73757442206903 780.878830389586 484.20240496619516 Z" stroke-opacity="0.8" stroke-linecap="round" stroke-linejoin="round" stroke-miterlimit="10" stroke-width="2.5"/><path fill="none" stroke="rgb(97,97,97)" paint-order="fill stroke markers" d=" M 682.3095630182538 326.69999999999993 C 682.3095630182538 413.6901296074939 611.7901296074938 484.20956301825385 524.8 484.20956301825385 C 437.8098703925061 484.20956301825385 367.2904369817462 413.6901296074939 367.2904369817462 326.69999999999993 C 367.2904369817462 239.709870392506 437.8098703925061 169.19043698174602 524.8 169.19043698174602 C 611.7901296074938 169.19043698174602 682.3095630182538 239.709870392506 682.3095630182538 326.69999999999993 Z" stroke-opacity="0.8" stroke-linecap="round" stroke-linejoin="round" stroke-miterlimit="10" stroke-width="2.5"/><path fill="none" stroke="rgb(97,97,97)" paint-order="fill stroke markers" d=" M -5 484.257208424581 L 1209 484.1480337359009" stroke-opacity="0.8" stroke-linecap="round" stroke-linejoin="round" stroke-miterlimit="10" stroke-width="2.5"/><path fill="none" stroke="rgb(97,97,97)" paint-order="fill stroke markers" d=" M 524.8 326.69999999999993 L 524.8283295839161 641.719124762672" stroke-opacity="0.8" stroke-linecap="round" stroke-linejoin="round" stroke-miterlimit="10" stroke-width="2.5"/><path fill="rgb(21,101,192)" stroke="none" paint-order="stroke fill markers" d=" M 529.8 326.69999999999993 C 529.8 329.4614237491539 527.561423749154 331.69999999999993 524.8 331.69999999999993 C 522.038576250846 331.69999999999993 519.8 329.4614237491539 519.8 326.69999999999993 C 519.8 323.938576250846 522.038576250846 321.69999999999993 524.8 321.69999999999993 C 527.561423749154 321.69999999999993 529.8 323.938576250846 529.8 326.69999999999993 Z" fill-opacity="1"/><path fill="none" stroke="rgb(0,0,0)" paint-order="fill stroke markers" d=" M 529.8 326.69999999999993 C 529.8 329.4614237491539 527.561423749154 331.69999999999993 524.8 331.69999999999993 C 522.038576250846 331.69999999999993 519.8 329.4614237491539 519.8 326.69999999999993 C 519.8 323.938576250846 522.038576250846 321.69999999999993 524.8 321.69999999999993 C 527.561423749154 321.69999999999993 529.8 323.938576250846 529.8 326.69999999999993 Z" stroke-opacity="1" stroke-linecap="round" stroke-linejoin="round" stroke-miterlimit="10"/><text fill="rgb(21,101,192)" stroke="none" font-family="geogebra-sans-serif, sans-serif" font-size="16px" font-style="normal" font-weight="normal" text-decoration="normal" x="529" y="317" text-anchor="start" dominant-baseline="alphabetic" fill-opacity="1">A</text><text fill="none" stroke="rgb(255,255,255)" font-family="geogebra-sans-serif, sans-serif" font-size="16px" font-style="normal" font-weight="normal" text-decoration="normal" x="529" y="317" text-anchor="start" dominant-baseline="alphabetic" stroke-opacity="1" stroke-linejoin="bevel" stroke-miterlimit="10" stroke-width="3">A</text><text fill="rgb(21,101,192)" stroke="none" font-family="geogebra-sans-serif, sans-serif" font-size="16px" font-style="normal" font-weight="normal" text-decoration="normal" x="529" y="317" text-anchor="start" dominant-baseline="alphabetic" fill-opacity="1">A</text><path fill="rgb(21,101,192)" stroke="none" paint-order="stroke fill markers" d=" M 413.7499999999999 484.2199999999999 C 413.7499999999999 486.98142374915386 411.51142374915383 489.2199999999999 408.7499999999999 489.2199999999999 C 405.98857625084594 489.2199999999999 403.7499999999999 486.98142374915386 403.7499999999999 484.2199999999999 C 403.7499999999999 481.45857625084597 405.98857625084594 479.2199999999999 408.7499999999999 479.2199999999999 C 411.51142374915383 479.2199999999999 413.7499999999999 481.45857625084597 413.7499999999999 484.2199999999999 Z" fill-opacity="1"/><path fill="none" stroke="rgb(0,0,0)" paint-order="fill stroke markers" d=" M 413.7499999999999 484.2199999999999 C 413.7499999999999 486.98142374915386 411.51142374915383 489.2199999999999 408.7499999999999 489.2199999999999 C 405.98857625084594 489.2199999999999 403.7499999999999 486.98142374915386 403.7499999999999 484.2199999999999 C 403.7499999999999 481.45857625084597 405.98857625084594 479.2199999999999 408.7499999999999 479.2199999999999 C 411.51142374915383 479.2199999999999 413.7499999999999 481.45857625084597 413.7499999999999 484.2199999999999 Z" stroke-opacity="1" stroke-linecap="round" stroke-linejoin="round" stroke-miterlimit="10"/><text fill="rgb(21,101,192)" stroke="none" font-family="geogebra-sans-serif, sans-serif" font-size="16px" font-style="normal" font-weight="normal" text-decoration="normal" x="413" y="474" text-anchor="start" dominant-baseline="alphabetic" fill-opacity="1">B</text><text fill="none" stroke="rgb(255,255,255)" font-family="geogebra-sans-serif, sans-serif" font-size="16px" font-style="normal" font-weight="normal" text-decoration="normal" x="413" y="474" text-anchor="start" dominant-baseline="alphabetic" stroke-opacity="1" stroke-linejoin="bevel" stroke-miterlimit="10" stroke-width="3">B</text><text fill="rgb(21,101,192)" stroke="none" font-family="geogebra-sans-serif, sans-serif" font-size="16px" font-style="normal" font-weight="normal" text-decoration="normal" x="413" y="474" text-anchor="start" dominant-baseline="alphabetic" fill-opacity="1">B</text><path fill="rgb(21,101,192)" stroke="none" paint-order="stroke fill markers" d=" M 609.4031435740676 484.20240496619516 C 609.4031435740676 486.9638287153491 607.1645673232216 489.20240496619516 604.4031435740676 489.20240496619516 C 601.6417198249136 489.20240496619516 599.4031435740676 486.9638287153491 599.4031435740676 484.20240496619516 C 599.4031435740676 481.4409812170412 601.6417198249136 479.20240496619516 604.4031435740676 479.20240496619516 C 607.1645673232216 479.20240496619516 609.4031435740676 481.4409812170412 609.4031435740676 484.20240496619516 Z" fill-opacity="1"/><path fill="none" stroke="rgb(0,0,0)" paint-order="fill stroke markers" d=" M 609.4031435740676 484.20240496619516 C 609.4031435740676 486.9638287153491 607.1645673232216 489.20240496619516 604.4031435740676 489.20240496619516 C 601.6417198249136 489.20240496619516 599.4031435740676 486.9638287153491 599.4031435740676 484.20240496619516 C 599.4031435740676 481.4409812170412 601.6417198249136 479.20240496619516 604.4031435740676 479.20240496619516 C 607.1645673232216 479.20240496619516 609.4031435740676 481.4409812170412 609.4031435740676 484.20240496619516 Z" stroke-opacity="1" stroke-linecap="round" stroke-linejoin="round" stroke-miterlimit="10"/><text fill="rgb(21,101,192)" stroke="none" font-family="geogebra-sans-serif, sans-serif" font-size="16px" font-style="normal" font-weight="normal" text-decoration="normal" x="608" y="474" text-anchor="start" dominant-baseline="alphabetic" fill-opacity="1">C</text><text fill="none" stroke="rgb(255,255,255)" font-family="geogebra-sans-serif, sans-serif" font-size="16px" font-style="normal" font-weight="normal" text-decoration="normal" x="608" y="474" text-anchor="start" dominant-baseline="alphabetic" stroke-opacity="1" stroke-linejoin="bevel" stroke-miterlimit="10" stroke-width="3">C</text><text fill="rgb(21,101,192)" stroke="none" font-family="geogebra-sans-serif, sans-serif" font-size="16px" font-style="normal" font-weight="normal" text-decoration="normal" x="608" y="474" text-anchor="start" dominant-baseline="alphabetic" fill-opacity="1">C</text><path fill="rgb(97,97,97)" stroke="none" paint-order="stroke fill markers" d=" M 528.8283295839161 641.719124762672 C 528.8283295839161 643.9282637619951 527.0374685832393 645.719124762672 524.8283295839161 645.719124762672 C 522.619190584593 645.719124762672 520.8283295839161 643.9282637619951 520.8283295839161 641.719124762672 C 520.8283295839161 639.5099857633488 522.619190584593 637.719124762672 524.8283295839161 637.719124762672 C 527.0374685832393 637.719124762672 528.8283295839161 639.5099857633488 528.8283295839161 641.719124762672 Z" fill-opacity="1"/><path fill="none" stroke="rgb(0,0,0)" paint-order="fill stroke markers" d=" M 528.8283295839161 641.719124762672 C 528.8283295839161 643.9282637619951 527.0374685832393 645.719124762672 524.8283295839161 645.719124762672 C 522.619190584593 645.719124762672 520.8283295839161 643.9282637619951 520.8283295839161 641.719124762672 C 520.8283295839161 639.5099857633488 522.619190584593 637.719124762672 524.8283295839161 637.719124762672 C 527.0374685832393 637.719124762672 528.8283295839161 639.5099857633488 528.8283295839161 641.719124762672 Z" stroke-opacity="1" stroke-linecap="round" stroke-linejoin="round" stroke-miterlimit="10"/><text fill="rgb(97,97,97)" stroke="none" font-family="geogebra-sans-serif, sans-serif" font-size="16px" font-style="normal" font-weight="normal" text-decoration="normal" x="529" y="634" text-anchor="start" dominant-baseline="alphabetic" fill-opacity="1">D</text><text fill="none" stroke="rgb(255,255,255)" font-family="geogebra-sans-serif, sans-serif" font-size="16px" font-style="normal" font-weight="normal" text-decoration="normal" x="529" y="634" text-anchor="start" dominant-baseline="alphabetic" stroke-opacity="1" stroke-linejoin="bevel" stroke-miterlimit="10" stroke-width="3">D</text><text fill="rgb(97,97,97)" stroke="none" font-family="geogebra-sans-serif, sans-serif" font-size="16px" font-style="normal" font-weight="normal" text-decoration="normal" x="529" y="634" text-anchor="start" dominant-baseline="alphabetic" fill-opacity="1">D</text><path fill="rgb(97,97,97)" stroke="none" paint-order="stroke fill markers" d=" M 528.814164791958 484.20956238133596 C 528.814164791958 486.4187013806591 527.0233037912811 488.20956238133596 524.814164791958 488.20956238133596 C 522.6050257926348 488.20956238133596 520.814164791958 486.4187013806591 520.814164791958 484.20956238133596 C 520.814164791958 482.0004233820128 522.6050257926348 480.20956238133596 524.814164791958 480.20956238133596 C 527.0233037912811 480.20956238133596 528.814164791958 482.0004233820128 528.814164791958 484.20956238133596 Z" fill-opacity="1"/><path fill="none" stroke="rgb(0,0,0)" paint-order="fill stroke markers" d=" M 528.814164791958 484.20956238133596 C 528.814164791958 486.4187013806591 527.0233037912811 488.20956238133596 524.814164791958 488.20956238133596 C 522.6050257926348 488.20956238133596 520.814164791958 486.4187013806591 520.814164791958 484.20956238133596 C 520.814164791958 482.0004233820128 522.6050257926348 480.20956238133596 524.814164791958 480.20956238133596 C 527.0233037912811 480.20956238133596 528.814164791958 482.0004233820128 528.814164791958 484.20956238133596 Z" stroke-opacity="1" stroke-linecap="round" stroke-linejoin="round" stroke-miterlimit="10"/><text fill="rgb(97,97,97)" stroke="none" font-family="geogebra-sans-serif, sans-serif" font-size="16px" font-style="normal" font-weight="normal" text-decoration="normal" x="529" y="476" text-anchor="start" dominant-baseline="alphabetic" fill-opacity="1">E</text><text fill="none" stroke="rgb(255,255,255)" font-family="geogebra-sans-serif, sans-serif" font-size="16px" font-style="normal" font-weight="normal" text-decoration="normal" x="529" y="476" text-anchor="start" dominant-baseline="alphabetic" stroke-opacity="1" stroke-linejoin="bevel" stroke-miterlimit="10" stroke-width="3">E</text><text fill="rgb(97,97,97)" stroke="none" font-family="geogebra-sans-serif, sans-serif" font-size="16px" font-style="normal" font-weight="normal" text-decoration="normal" x="529" y="476" text-anchor="start" dominant-baseline="alphabetic" fill-opacity="1">E</text></g></g></svg>