<svg version="1.1" xmlns="http://www.w3.org/2000/svg" xmlns:xlink="http://www.w3.org/1999/xlink" width="148" height="158"><defs><clipPath id="hmgdFfDgbwdV"><path fill="none" stroke="none" d=" M 0 0 L 148 0 L 148 158 L 0 158 L 0 0 Z"/></clipPath></defs><g transform="scale(1,1)" clip-path="url(#hmgdFfDgbwdV)"><g transform="translate(-427,-379)"><rect fill="rgb(255,255,255)" stroke="none" x="0" y="0" width="1204" height="932" fill-opacity="1"/><path fill="none" stroke="rgb(97,97,97)" paint-order="fill stroke markers" d=" M 566.1377411213092 468.9999999999999 C 566.1377411213092 502.76544206040194 538.7654420604019 530.1377411213091 504.99999999999966 530.1377411213091 C 471.2345579395974 530.1377411213091 443.86225887869006 502.76544206040194 443.86225887869006 468.9999999999999 C 443.86225887869006 435.2345579395978 471.2345579395974 407.8622588786906 504.99999999999966 407.8622588786906 C 538.7654420604019 407.8622588786906 566.1377411213092 435.2345579395978 566.1377411213092 468.9999999999999 Z" stroke-opacity="0.8" stroke-linecap="round" stroke-linejoin="round" stroke-miterlimit="10" stroke-width="2.5"/><path fill="none" stroke="rgb(97,97,97)" paint-order="fill stroke markers" d=" M 102.77896381737776 937 L 795.0380433230717 -5" stroke-opacity="0.8" stroke-linecap="round" stroke-linejoin="round" stroke-miterlimit="10" stroke-width="2.5"/><path fill="none" stroke="rgb(97,97,97)" paint-order="fill stroke markers" d=" M 467.14663780440264 441.1822360194061 L 504.99999999999966 468.9999999999999" stroke-opacity="0.8" stroke-linecap="round" stroke-linejoin="round" stroke-miterlimit="10" stroke-width="2.5"/><path fill="rgb(21,101,192)" stroke="none" paint-order="stroke fill markers" d=" M 472.14663780440264 441.1822360194061 C 472.14663780440264 443.94365976856005 469.9080615535566 446.1822360194061 467.14663780440264 446.1822360194061 C 464.3852140552487 446.1822360194061 462.14663780440264 443.94365976856005 462.14663780440264 441.1822360194061 C 462.14663780440264 438.42081227025216 464.3852140552487 436.1822360194061 467.14663780440264 436.1822360194061 C 469.9080615535566 436.1822360194061 472.14663780440264 438.42081227025216 472.14663780440264 441.1822360194061 Z" fill-opacity="1"/><path fill="none" stroke="rgb(0,0,0)" paint-order="fill stroke markers" d=" M 472.14663780440264 441.1822360194061 C 472.14663780440264 443.94365976856005 469.9080615535566 446.1822360194061 467.14663780440264 446.1822360194061 C 464.3852140552487 446.1822360194061 462.14663780440264 443.94365976856005 462.14663780440264 441.1822360194061 C 462.14663780440264 438.42081227025216 464.3852140552487 436.1822360194061 467.14663780440264 436.1822360194061 C 469.9080615535566 436.1822360194061 472.14663780440264 438.42081227025216 472.14663780440264 441.1822360194061 Z" stroke-opacity="1" stroke-linecap="round" stroke-linejoin="round" stroke-miterlimit="10"/><text fill="rgb(21,101,192)" stroke="none" font-family="geogebra-sans-serif, sans-serif" font-size="16px" font-style="normal" font-weight="normal" text-decoration="normal" x="471" y="431" text-anchor="start" dominant-baseline="alphabetic" fill-opacity="1">A</text><text fill="none" stroke="rgb(255,255,255)" font-family="geogebra-sans-serif, sans-serif" font-size="16px" font-style="normal" font-weight="normal" text-decoration="normal" x="471" y="431" text-anchor="start" dominant-baseline="alphabetic" stroke-opacity="1" stroke-linejoin="bevel" stroke-miterlimit="10" stroke-width="3">A</text><text fill="rgb(21,101,192)" stroke="none" font-family="geogebra-sans-serif, sans-serif" font-size="16px" font-style="normal" font-weight="normal" text-decoration="normal" x="471" y="431" text-anchor="start" dominant-baseline="alphabetic" fill-opacity="1">A</text><path fill="rgb(21,101,192)" stroke="none" paint-order="stroke fill markers" d=" M 509.99999999999966 468.9999999999999 C 509.99999999999966 471.76142374915383 507.7614237491536 473.9999999999999 504.99999999999966 473.9999999999999 C 502.2385762508457 473.9999999999999 499.99999999999966 471.76142374915383 499.99999999999966 468.9999999999999 C 499.99999999999966 466.23857625084594 502.2385762508457 463.9999999999999 504.99999999999966 463.9999999999999 C 507.7614237491536 463.9999999999999 509.99999999999966 466.23857625084594 509.99999999999966 468.9999999999999 Z" fill-opacity="1"/><path fill="none" stroke="rgb(0,0,0)" paint-order="fill stroke markers" d=" M 509.99999999999966 468.9999999999999 C 509.99999999999966 471.76142374915383 507.7614237491536 473.9999999999999 504.99999999999966 473.9999999999999 C 502.2385762508457 473.9999999999999 499.99999999999966 471.76142374915383 499.99999999999966 468.9999999999999 C 499.99999999999966 466.23857625084594 502.2385762508457 463.9999999999999 504.99999999999966 463.9999999999999 C 507.7614237491536 463.9999999999999 509.99999999999966 466.23857625084594 509.99999999999966 468.9999999999999 Z" stroke-opacity="1" stroke-linecap="round" stroke-linejoin="round" stroke-miterlimit="10"/><text fill="rgb(21,101,192)" stroke="none" font-family="geogebra-sans-serif, sans-serif" font-size="16px" font-style="normal" font-weight="normal" text-decoration="normal" x="509" y="459" text-anchor="start" dominant-baseline="alphabetic" fill-opacity="1">B</text><text fill="none" stroke="rgb(255,255,255)" font-family="geogebra-sans-serif, sans-serif" font-size="16px" font-style="normal" font-weight="normal" text-decoration="normal" x="509" y="459" text-anchor="start" dominant-baseline="alphabetic" stroke-opacity="1" stroke-linejoin="bevel" stroke-miterlimit="10" stroke-width="3">B</text><text fill="rgb(21,101,192)" stroke="none" font-family="geogebra-sans-serif, sans-serif" font-size="16px" font-style="normal" font-weight="normal" text-decoration="normal" x="509" y="459" text-anchor="start" dominant-baseline="alphabetic" fill-opacity="1">B</text><path fill="rgb(21,101,192)" stroke="none" paint-order="stroke fill markers" d=" M 495.3181543876368 409.651311734538 C 495.3181543876368 412.41273548369196 493.07957813679076 414.651311734538 490.3181543876368 414.651311734538 C 487.55673063848286 414.651311734538 485.3181543876368 412.41273548369196 485.3181543876368 409.651311734538 C 485.3181543876368 406.88988798538406 487.55673063848286 404.651311734538 490.3181543876368 404.651311734538 C 493.07957813679076 404.651311734538 495.3181543876368 406.88988798538406 495.3181543876368 409.651311734538 Z" fill-opacity="1"/><path fill="none" stroke="rgb(0,0,0)" paint-order="fill stroke markers" d=" M 495.3181543876368 409.651311734538 C 495.3181543876368 412.41273548369196 493.07957813679076 414.651311734538 490.3181543876368 414.651311734538 C 487.55673063848286 414.651311734538 485.3181543876368 412.41273548369196 485.3181543876368 409.651311734538 C 485.3181543876368 406.88988798538406 487.55673063848286 404.651311734538 490.3181543876368 404.651311734538 C 493.07957813679076 404.651311734538 495.3181543876368 406.88988798538406 495.3181543876368 409.651311734538 Z" stroke-opacity="1" stroke-linecap="round" stroke-linejoin="round" stroke-miterlimit="10"/><text fill="rgb(21,101,192)" stroke="none" font-family="geogebra-sans-serif, sans-serif" font-size="16px" font-style="normal" font-weight="normal" text-decoration="normal" x="494" y="400" text-anchor="start" dominant-baseline="alphabetic" fill-opacity="1">C</text><text fill="none" stroke="rgb(255,255,255)" font-family="geogebra-sans-serif, sans-serif" font-size="16px" font-style="normal" font-weight="normal" text-decoration="normal" x="494" y="400" text-anchor="start" dominant-baseline="alphabetic" stroke-opacity="1" stroke-linejoin="bevel" stroke-miterlimit="10" stroke-width="3">C</text><text fill="rgb(21,101,192)" stroke="none" font-family="geogebra-sans-serif, sans-serif" font-size="16px" font-style="normal" font-weight="normal" text-decoration="normal" x="494" y="400" text-anchor="start" dominant-baseline="alphabetic" fill-opacity="1">C</text><path fill="rgb(97,97,97)" stroke="none" paint-order="stroke fill markers" d=" M 447.9751212211686 472.7131603042742 C 447.9751212211686 474.92229930359736 446.18426022049175 476.7131603042742 443.9751212211686 476.7131603042742 C 441.76598222184543 476.7131603042742 439.9751212211686 474.92229930359736 439.9751212211686 472.7131603042742 C 439.9751212211686 470.50402130495104 441.76598222184543 468.7131603042742 443.9751212211686 468.7131603042742 C 446.18426022049175 468.7131603042742 447.9751212211686 470.50402130495104 447.9751212211686 472.7131603042742 Z" fill-opacity="1"/><path fill="none" stroke="rgb(0,0,0)" paint-order="fill stroke markers" d=" M 447.9751212211686 472.7131603042742 C 447.9751212211686 474.92229930359736 446.18426022049175 476.7131603042742 443.9751212211686 476.7131603042742 C 441.76598222184543 476.7131603042742 439.9751212211686 474.92229930359736 439.9751212211686 472.7131603042742 C 439.9751212211686 470.50402130495104 441.76598222184543 468.7131603042742 443.9751212211686 468.7131603042742 C 446.18426022049175 468.7131603042742 447.9751212211686 470.50402130495104 447.9751212211686 472.7131603042742 Z" stroke-opacity="1" stroke-linecap="round" stroke-linejoin="round" stroke-miterlimit="10"/><text fill="rgb(97,97,97)" stroke="none" font-family="geogebra-sans-serif, sans-serif" font-size="16px" font-style="normal" font-weight="normal" text-decoration="normal" x="448" y="465" text-anchor="start" dominant-baseline="alphabetic" fill-opacity="1">D</text><text fill="none" stroke="rgb(255,255,255)" font-family="geogebra-sans-serif, sans-serif" font-size="16px" font-style="normal" font-weight="normal" text-decoration="normal" x="448" y="465" text-anchor="start" dominant-baseline="alphabetic" stroke-opacity="1" stroke-linejoin="bevel" stroke-miterlimit="10" stroke-width="3">D</text><text fill="rgb(97,97,97)" stroke="none" font-family="geogebra-sans-serif, sans-serif" font-size="16px" font-style="normal" font-weight="normal" text-decoration="normal" x="448" y="465" text-anchor="start" dominant-baseline="alphabetic" fill-opacity="1">D</text></g></g></svg>