<svg version="1.1" xmlns="http://www.w3.org/2000/svg" xmlns:xlink="http://www.w3.org/1999/xlink" width="228" height="217"><defs><clipPath id="THUZAuHwytgL"><path fill="none" stroke="none" d=" M 0 0 L 228 0 L 228 217 L 0 217 L 0 0 Z"/></clipPath></defs><g transform="scale(1,1)" clip-path="url(#THUZAuHwytgL)"><g transform="translate(-505,-306)"><rect fill="rgb(255,255,255)" stroke="none" x="0" y="0" width="1204" height="932" fill-opacity="1"/><path fill="none" stroke="rgb(97,97,97)" paint-order="fill stroke markers" d=" M 692.2129631698796 441 C 692.2129631698796 465.97043005338566 671.9704300533858 486.21296316987934 647 486.21296316987934 C 622.0295699466141 486.21296316987934 601.7870368301203 465.97043005338566 601.7870368301203 441 C 601.7870368301203 416.0295699466143 622.0295699466141 395.78703683012066 647 395.78703683012066 C 671.9704300533858 395.78703683012066 692.2129631698796 416.0295699466143 692.2129631698796 441 Z" stroke-opacity="0.8" stroke-linecap="round" stroke-linejoin="round" stroke-miterlimit="10" stroke-width="2.5"/><path fill="none" stroke="rgb(97,97,97)" paint-order="fill stroke markers" d=" M 722.1555539489495 398.7857932323866 C 722.1555539489495 431.3506026466166 695.7565599552325 457.74959664033344 663.1917505410024 457.74959664033344 C 630.6269411267722 457.74959664033344 604.2279471330552 431.3506026466166 604.2279471330552 398.7857932323866 C 604.2279471330552 366.22098381815664 630.6269411267722 339.8219898244398 663.1917505410024 339.8219898244398 C 695.7565599552325 339.8219898244398 722.1555539489495 366.22098381815664 722.1555539489495 398.7857932323866 Z" stroke-opacity="0.8" stroke-linecap="round" stroke-linejoin="round" stroke-miterlimit="10" stroke-width="2.5"/><path fill="none" stroke="rgb(97,97,97)" paint-order="fill stroke markers" d=" M 697.0916027312818 418.6745771395874 C 697.0916027312818 468.0533113210589 657.0622295974597 508.08268445488073 607.6834954159879 508.08268445488073 C 558.3047612345161 508.08268445488073 518.275388100694 468.0533113210589 518.275388100694 418.6745771395874 C 518.275388100694 369.295842958116 558.3047612345161 329.2664698242942 607.6834954159879 329.2664698242942 C 657.0622295974597 329.2664698242942 697.0916027312818 369.295842958116 697.0916027312818 418.6745771395874 Z" stroke-opacity="0.8" stroke-linecap="round" stroke-linejoin="round" stroke-miterlimit="10" stroke-width="2.5"/><path fill="none" stroke="rgb(97,97,97)" paint-order="fill stroke markers" d=" M 720.0041218907975 441 C 720.0041218907975 481.3190631950755 687.3190631950758 514.0041218907969 647 514.0041218907969 C 606.6809368049243 514.0041218907969 573.9958781092026 481.3190631950755 573.9958781092026 441 C 573.9958781092026 400.6809368049245 606.6809368049243 367.9958781092031 647 367.9958781092031 C 687.3190631950758 367.9958781092031 720.0041218907975 400.6809368049245 720.0041218907975 441 Z" stroke-opacity="0.8" stroke-linecap="round" stroke-linejoin="round" stroke-miterlimit="10" stroke-width="2.5"/><path fill="none" stroke="rgb(97,97,97)" paint-order="fill stroke markers" d=" M 313.3583928389228 937 L 848.2622088577276 -5" stroke-opacity="0.8" stroke-linecap="round" stroke-linejoin="round" stroke-miterlimit="10" stroke-width="2.5"/><path fill="rgb(21,101,192)" stroke="none" paint-order="stroke fill markers" d=" M 652 441 C 652 443.76142374915395 649.761423749154 446 647 446 C 644.238576250846 446 642 443.76142374915395 642 441 C 642 438.23857625084605 644.238576250846 436 647 436 C 649.761423749154 436 652 438.23857625084605 652 441 Z" fill-opacity="1"/><path fill="none" stroke="rgb(0,0,0)" paint-order="fill stroke markers" d=" M 652 441 C 652 443.76142374915395 649.761423749154 446 647 446 C 644.238576250846 446 642 443.76142374915395 642 441 C 642 438.23857625084605 644.238576250846 436 647 436 C 649.761423749154 436 652 438.23857625084605 652 441 Z" stroke-opacity="1" stroke-linecap="round" stroke-linejoin="round" stroke-miterlimit="10"/><text fill="rgb(21,101,192)" stroke="none" font-family="geogebra-sans-serif, sans-serif" font-size="16px" font-style="normal" font-weight="normal" text-decoration="normal" x="651" y="431" text-anchor="start" dominant-baseline="alphabetic" fill-opacity="1">A</text><text fill="none" stroke="rgb(255,255,255)" font-family="geogebra-sans-serif, sans-serif" font-size="16px" font-style="normal" font-weight="normal" text-decoration="normal" x="651" y="431" text-anchor="start" dominant-baseline="alphabetic" stroke-opacity="1" stroke-linejoin="bevel" stroke-miterlimit="10" stroke-width="3">A</text><text fill="rgb(21,101,192)" stroke="none" font-family="geogebra-sans-serif, sans-serif" font-size="16px" font-style="normal" font-weight="normal" text-decoration="normal" x="651" y="431" text-anchor="start" dominant-baseline="alphabetic" fill-opacity="1">A</text><path fill="rgb(21,101,192)" stroke="none" paint-order="stroke fill markers" d=" M 612.6834954159879 418.6745771395874 C 612.6834954159879 421.4360008887414 610.4449191651419 423.6745771395874 607.6834954159879 423.6745771395874 C 604.9220716668339 423.6745771395874 602.6834954159879 421.4360008887414 602.6834954159879 418.6745771395874 C 602.6834954159879 415.9131533904335 604.9220716668339 413.6745771395874 607.6834954159879 413.6745771395874 C 610.4449191651419 413.6745771395874 612.6834954159879 415.9131533904335 612.6834954159879 418.6745771395874 Z" fill-opacity="1"/><path fill="none" stroke="rgb(0,0,0)" paint-order="fill stroke markers" d=" M 612.6834954159879 418.6745771395874 C 612.6834954159879 421.4360008887414 610.4449191651419 423.6745771395874 607.6834954159879 423.6745771395874 C 604.9220716668339 423.6745771395874 602.6834954159879 421.4360008887414 602.6834954159879 418.6745771395874 C 602.6834954159879 415.9131533904335 604.9220716668339 413.6745771395874 607.6834954159879 413.6745771395874 C 610.4449191651419 413.6745771395874 612.6834954159879 415.9131533904335 612.6834954159879 418.6745771395874 Z" stroke-opacity="1" stroke-linecap="round" stroke-linejoin="round" stroke-miterlimit="10"/><text fill="rgb(21,101,192)" stroke="none" font-family="geogebra-sans-serif, sans-serif" font-size="16px" font-style="normal" font-weight="normal" text-decoration="normal" x="612" y="409" text-anchor="start" dominant-baseline="alphabetic" fill-opacity="1">B</text><text fill="none" stroke="rgb(255,255,255)" font-family="geogebra-sans-serif, sans-serif" font-size="16px" font-style="normal" font-weight="normal" text-decoration="normal" x="612" y="409" text-anchor="start" dominant-baseline="alphabetic" stroke-opacity="1" stroke-linejoin="bevel" stroke-miterlimit="10" stroke-width="3">B</text><text fill="rgb(21,101,192)" stroke="none" font-family="geogebra-sans-serif, sans-serif" font-size="16px" font-style="normal" font-weight="normal" text-decoration="normal" x="612" y="409" text-anchor="start" dominant-baseline="alphabetic" fill-opacity="1">B</text><path fill="rgb(21,101,192)" stroke="none" paint-order="stroke fill markers" d=" M 668.1917505410024 398.7857932323866 C 668.1917505410024 401.54721698154054 665.9531742901564 403.7857932323866 663.1917505410024 403.7857932323866 C 660.4303267918484 403.7857932323866 658.1917505410024 401.54721698154054 658.1917505410024 398.7857932323866 C 658.1917505410024 396.02436948323265 660.4303267918484 393.7857932323866 663.1917505410024 393.7857932323866 C 665.9531742901564 393.7857932323866 668.1917505410024 396.02436948323265 668.1917505410024 398.7857932323866 Z" fill-opacity="1"/><path fill="none" stroke="rgb(0,0,0)" paint-order="fill stroke markers" d=" M 668.1917505410024 398.7857932323866 C 668.1917505410024 401.54721698154054 665.9531742901564 403.7857932323866 663.1917505410024 403.7857932323866 C 660.4303267918484 403.7857932323866 658.1917505410024 401.54721698154054 658.1917505410024 398.7857932323866 C 658.1917505410024 396.02436948323265 660.4303267918484 393.7857932323866 663.1917505410024 393.7857932323866 C 665.9531742901564 393.7857932323866 668.1917505410024 396.02436948323265 668.1917505410024 398.7857932323866 Z" stroke-opacity="1" stroke-linecap="round" stroke-linejoin="round" stroke-miterlimit="10"/><text fill="rgb(21,101,192)" stroke="none" font-family="geogebra-sans-serif, sans-serif" font-size="16px" font-style="normal" font-weight="normal" text-decoration="normal" x="667" y="389" text-anchor="start" dominant-baseline="alphabetic" fill-opacity="1">C</text><text fill="none" stroke="rgb(255,255,255)" font-family="geogebra-sans-serif, sans-serif" font-size="16px" font-style="normal" font-weight="normal" text-decoration="normal" x="667" y="389" text-anchor="start" dominant-baseline="alphabetic" stroke-opacity="1" stroke-linejoin="bevel" stroke-miterlimit="10" stroke-width="3">C</text><text fill="rgb(21,101,192)" stroke="none" font-family="geogebra-sans-serif, sans-serif" font-size="16px" font-style="normal" font-weight="normal" text-decoration="normal" x="667" y="389" text-anchor="start" dominant-baseline="alphabetic" fill-opacity="1">C</text><path fill="rgb(97,97,97)" stroke="none" paint-order="stroke fill markers" d=" M 695.1615969225752 450.6935749777299 C 695.1615969225752 452.90271397705305 693.3707359218984 454.6935749777299 691.1615969225752 454.6935749777299 C 688.952457923252 454.6935749777299 687.1615969225752 452.90271397705305 687.1615969225752 450.6935749777299 C 687.1615969225752 448.48443597840674 688.952457923252 446.6935749777299 691.1615969225752 446.6935749777299 C 693.3707359218984 446.6935749777299 695.1615969225752 448.48443597840674 695.1615969225752 450.6935749777299 Z" fill-opacity="1"/><path fill="none" stroke="rgb(0,0,0)" paint-order="fill stroke markers" d=" M 695.1615969225752 450.6935749777299 C 695.1615969225752 452.90271397705305 693.3707359218984 454.6935749777299 691.1615969225752 454.6935749777299 C 688.952457923252 454.6935749777299 687.1615969225752 452.90271397705305 687.1615969225752 450.6935749777299 C 687.1615969225752 448.48443597840674 688.952457923252 446.6935749777299 691.1615969225752 446.6935749777299 C 693.3707359218984 446.6935749777299 695.1615969225752 448.48443597840674 695.1615969225752 450.6935749777299 Z" stroke-opacity="1" stroke-linecap="round" stroke-linejoin="round" stroke-miterlimit="10"/><text fill="rgb(97,97,97)" stroke="none" font-family="geogebra-sans-serif, sans-serif" font-size="16px" font-style="normal" font-weight="normal" text-decoration="normal" x="695" y="443" text-anchor="start" dominant-baseline="alphabetic" fill-opacity="1">D</text><text fill="none" stroke="rgb(255,255,255)" font-family="geogebra-sans-serif, sans-serif" font-size="16px" font-style="normal" font-weight="normal" text-decoration="normal" x="695" y="443" text-anchor="start" dominant-baseline="alphabetic" stroke-opacity="1" stroke-linejoin="bevel" stroke-miterlimit="10" stroke-width="3">D</text><text fill="rgb(97,97,97)" stroke="none" font-family="geogebra-sans-serif, sans-serif" font-size="16px" font-style="normal" font-weight="normal" text-decoration="normal" x="695" y="443" text-anchor="start" dominant-baseline="alphabetic" fill-opacity="1">D</text><path fill="rgb(97,97,97)" stroke="none" paint-order="stroke fill markers" d=" M 655.8317587240839 340.9266479029703 C 655.8317587240839 343.13578690229343 654.040897723407 344.9266479029703 651.8317587240839 344.9266479029703 C 649.6226197247607 344.9266479029703 647.8317587240839 343.13578690229343 647.8317587240839 340.9266479029703 C 647.8317587240839 338.7175089036471 649.6226197247607 336.9266479029703 651.8317587240839 336.9266479029703 C 654.040897723407 336.9266479029703 655.8317587240839 338.7175089036471 655.8317587240839 340.9266479029703 Z" fill-opacity="1"/><path fill="none" stroke="rgb(0,0,0)" paint-order="fill stroke markers" d=" M 655.8317587240839 340.9266479029703 C 655.8317587240839 343.13578690229343 654.040897723407 344.9266479029703 651.8317587240839 344.9266479029703 C 649.6226197247607 344.9266479029703 647.8317587240839 343.13578690229343 647.8317587240839 340.9266479029703 C 647.8317587240839 338.7175089036471 649.6226197247607 336.9266479029703 651.8317587240839 336.9266479029703 C 654.040897723407 336.9266479029703 655.8317587240839 338.7175089036471 655.8317587240839 340.9266479029703 Z" stroke-opacity="1" stroke-linecap="round" stroke-linejoin="round" stroke-miterlimit="10"/><text fill="rgb(97,97,97)" stroke="none" font-family="geogebra-sans-serif, sans-serif" font-size="16px" font-style="normal" font-weight="normal" text-decoration="normal" x="656" y="333" text-anchor="start" dominant-baseline="alphabetic" fill-opacity="1">E</text><text fill="none" stroke="rgb(255,255,255)" font-family="geogebra-sans-serif, sans-serif" font-size="16px" font-style="normal" font-weight="normal" text-decoration="normal" x="656" y="333" text-anchor="start" dominant-baseline="alphabetic" stroke-opacity="1" stroke-linejoin="bevel" stroke-miterlimit="10" stroke-width="3">E</text><text fill="rgb(97,97,97)" stroke="none" font-family="geogebra-sans-serif, sans-serif" font-size="16px" font-style="normal" font-weight="normal" text-decoration="normal" x="656" y="333" text-anchor="start" dominant-baseline="alphabetic" fill-opacity="1">E</text><path fill="rgb(21,101,192)" stroke="none" paint-order="stroke fill markers" d=" M 640.9863456489883 368.83143876394115 C 640.9863456489883 371.5928625130951 638.7477693981423 373.83143876394115 635.9863456489883 373.83143876394115 C 633.2249218998343 373.83143876394115 630.9863456489883 371.5928625130951 630.9863456489883 368.83143876394115 C 630.9863456489883 366.0700150147872 633.2249218998343 363.83143876394115 635.9863456489883 363.83143876394115 C 638.7477693981423 363.83143876394115 640.9863456489883 366.0700150147872 640.9863456489883 368.83143876394115 Z" fill-opacity="1"/><path fill="none" stroke="rgb(0,0,0)" paint-order="fill stroke markers" d=" M 640.9863456489883 368.83143876394115 C 640.9863456489883 371.5928625130951 638.7477693981423 373.83143876394115 635.9863456489883 373.83143876394115 C 633.2249218998343 373.83143876394115 630.9863456489883 371.5928625130951 630.9863456489883 368.83143876394115 C 630.9863456489883 366.0700150147872 633.2249218998343 363.83143876394115 635.9863456489883 363.83143876394115 C 638.7477693981423 363.83143876394115 640.9863456489883 366.0700150147872 640.9863456489883 368.83143876394115 Z" stroke-opacity="1" stroke-linecap="round" stroke-linejoin="round" stroke-miterlimit="10"/><text fill="rgb(21,101,192)" stroke="none" font-family="geogebra-sans-serif, sans-serif" font-size="16px" font-style="normal" font-weight="normal" text-decoration="normal" x="640" y="359" text-anchor="start" dominant-baseline="alphabetic" fill-opacity="1">F</text><text fill="none" stroke="rgb(255,255,255)" font-family="geogebra-sans-serif, sans-serif" font-size="16px" font-style="normal" font-weight="normal" text-decoration="normal" x="640" y="359" text-anchor="start" dominant-baseline="alphabetic" stroke-opacity="1" stroke-linejoin="bevel" stroke-miterlimit="10" stroke-width="3">F</text><text fill="rgb(21,101,192)" stroke="none" font-family="geogebra-sans-serif, sans-serif" font-size="16px" font-style="normal" font-weight="normal" text-decoration="normal" x="640" y="359" text-anchor="start" dominant-baseline="alphabetic" fill-opacity="1">F</text></g></g></svg>