<svg version="1.1" xmlns="http://www.w3.org/2000/svg" xmlns:xlink="http://www.w3.org/1999/xlink" width="212" height="156"><defs><clipPath id="hffMBfzxcogK"><path fill="none" stroke="none" d=" M 0 0 L 212 0 L 212 156 L 0 156 L 0 0 Z"/></clipPath></defs><g transform="scale(1,1)" clip-path="url(#hffMBfzxcogK)"><g transform="translate(-545,-381)"><rect fill="rgb(255,255,255)" stroke="none" x="0" y="0" width="1204" height="932" fill-opacity="1"/><path fill="none" stroke="rgb(97,97,97)" paint-order="fill stroke markers" d=" M 557.2157764010573 526.7604195022076 L 1204 -85.26927306415712" stroke-opacity="0.8" stroke-linecap="round" stroke-linejoin="round" stroke-miterlimit="10" stroke-width="2.5"/><path fill="none" stroke="rgb(97,97,97)" paint-order="fill stroke markers" d=" M 557.2157764010573 526.7604195022076 L 1204 523.3923286971517" stroke-opacity="0.8" stroke-linecap="round" stroke-linejoin="round" stroke-miterlimit="10" stroke-width="2.5"/><path fill="none" stroke="rgb(97,97,97)" paint-order="fill stroke markers" d=" M 653.7644738309516 435.3997037492797 L 1123.6802750412803 932" stroke-opacity="0.8" stroke-linecap="round" stroke-linejoin="round" stroke-miterlimit="10" stroke-width="2.5"/><path fill="none" stroke="rgb(97,97,97)" paint-order="fill stroke markers" d=" M 681.3225089286052 526.1141409916626 L 678.5828004817542 0" stroke-opacity="0.8" stroke-linecap="round" stroke-linejoin="round" stroke-miterlimit="10" stroke-width="2.5"/><path fill="none" stroke="rgb(97,97,97)" paint-order="fill stroke markers" d=" M 680.7173054466853 409.89516507055134 L 739.3186465013852 525.8121295161804" stroke-opacity="0.8" stroke-linecap="round" stroke-linejoin="round" stroke-miterlimit="10" stroke-width="2.5"/><path fill="rgb(21,101,192)" stroke="none" paint-order="stroke fill markers" d=" M 562.2157764010573 526.7604195022076 C 562.2157764010573 529.5218432513616 559.9772001502113 531.7604195022076 557.2157764010573 531.7604195022076 C 554.4543526519033 531.7604195022076 552.2157764010573 529.5218432513616 552.2157764010573 526.7604195022076 C 552.2157764010573 523.9989957530536 554.4543526519033 521.7604195022076 557.2157764010573 521.7604195022076 C 559.9772001502113 521.7604195022076 562.2157764010573 523.9989957530536 562.2157764010573 526.7604195022076 Z" fill-opacity="1"/><path fill="none" stroke="rgb(0,0,0)" paint-order="fill stroke markers" d=" M 562.2157764010573 526.7604195022076 C 562.2157764010573 529.5218432513616 559.9772001502113 531.7604195022076 557.2157764010573 531.7604195022076 C 554.4543526519033 531.7604195022076 552.2157764010573 529.5218432513616 552.2157764010573 526.7604195022076 C 552.2157764010573 523.9989957530536 554.4543526519033 521.7604195022076 557.2157764010573 521.7604195022076 C 559.9772001502113 521.7604195022076 562.2157764010573 523.9989957530536 562.2157764010573 526.7604195022076 Z" stroke-opacity="1" stroke-linecap="round" stroke-linejoin="round" stroke-miterlimit="10"/><text fill="rgb(21,101,192)" stroke="none" font-family="geogebra-sans-serif, sans-serif" font-size="16px" font-style="normal" font-weight="normal" text-decoration="normal" x="561" y="517" text-anchor="start" dominant-baseline="alphabetic" fill-opacity="1">A</text><text fill="none" stroke="rgb(255,255,255)" font-family="geogebra-sans-serif, sans-serif" font-size="16px" font-style="normal" font-weight="normal" text-decoration="normal" x="561" y="517" text-anchor="start" dominant-baseline="alphabetic" stroke-opacity="1" stroke-linejoin="bevel" stroke-miterlimit="10" stroke-width="3">A</text><text fill="rgb(21,101,192)" stroke="none" font-family="geogebra-sans-serif, sans-serif" font-size="16px" font-style="normal" font-weight="normal" text-decoration="normal" x="561" y="517" text-anchor="start" dominant-baseline="alphabetic" fill-opacity="1">A</text><path fill="rgb(21,101,192)" stroke="none" paint-order="stroke fill markers" d=" M 686 464.1818181818182 C 686 466.94324193097214 683.761423749154 469.1818181818182 681 469.1818181818182 C 678.238576250846 469.1818181818182 676 466.94324193097214 676 464.1818181818182 C 676 461.42039443266424 678.238576250846 459.1818181818182 681 459.1818181818182 C 683.761423749154 459.1818181818182 686 461.42039443266424 686 464.1818181818182 Z" fill-opacity="1"/><path fill="none" stroke="rgb(0,0,0)" paint-order="fill stroke markers" d=" M 686 464.1818181818182 C 686 466.94324193097214 683.761423749154 469.1818181818182 681 469.1818181818182 C 678.238576250846 469.1818181818182 676 466.94324193097214 676 464.1818181818182 C 676 461.42039443266424 678.238576250846 459.1818181818182 681 459.1818181818182 C 683.761423749154 459.1818181818182 686 461.42039443266424 686 464.1818181818182 Z" stroke-opacity="1" stroke-linecap="round" stroke-linejoin="round" stroke-miterlimit="10"/><text fill="rgb(21,101,192)" stroke="none" font-family="geogebra-sans-serif, sans-serif" font-size="16px" font-style="normal" font-weight="normal" text-decoration="normal" x="685" y="454" text-anchor="start" dominant-baseline="alphabetic" fill-opacity="1">B</text><text fill="none" stroke="rgb(255,255,255)" font-family="geogebra-sans-serif, sans-serif" font-size="16px" font-style="normal" font-weight="normal" text-decoration="normal" x="685" y="454" text-anchor="start" dominant-baseline="alphabetic" stroke-opacity="1" stroke-linejoin="bevel" stroke-miterlimit="10" stroke-width="3">B</text><text fill="rgb(21,101,192)" stroke="none" font-family="geogebra-sans-serif, sans-serif" font-size="16px" font-style="normal" font-weight="normal" text-decoration="normal" x="685" y="454" text-anchor="start" dominant-baseline="alphabetic" fill-opacity="1">B</text><path fill="rgb(21,101,192)" stroke="none" paint-order="stroke fill markers" d=" M 658.7644738309516 435.3997037492797 C 658.7644738309516 438.16112749843364 656.5258975801056 440.3997037492797 653.7644738309516 440.3997037492797 C 651.0030500817976 440.3997037492797 648.7644738309516 438.16112749843364 648.7644738309516 435.3997037492797 C 648.7644738309516 432.63828000012575 651.0030500817976 430.3997037492797 653.7644738309516 430.3997037492797 C 656.5258975801056 430.3997037492797 658.7644738309516 432.63828000012575 658.7644738309516 435.3997037492797 Z" fill-opacity="1"/><path fill="none" stroke="rgb(0,0,0)" paint-order="fill stroke markers" d=" M 658.7644738309516 435.3997037492797 C 658.7644738309516 438.16112749843364 656.5258975801056 440.3997037492797 653.7644738309516 440.3997037492797 C 651.0030500817976 440.3997037492797 648.7644738309516 438.16112749843364 648.7644738309516 435.3997037492797 C 648.7644738309516 432.63828000012575 651.0030500817976 430.3997037492797 653.7644738309516 430.3997037492797 C 656.5258975801056 430.3997037492797 658.7644738309516 432.63828000012575 658.7644738309516 435.3997037492797 Z" stroke-opacity="1" stroke-linecap="round" stroke-linejoin="round" stroke-miterlimit="10"/><text fill="rgb(21,101,192)" stroke="none" font-family="geogebra-sans-serif, sans-serif" font-size="16px" font-style="normal" font-weight="normal" text-decoration="normal" x="658" y="425" text-anchor="start" dominant-baseline="alphabetic" fill-opacity="1">C</text><text fill="none" stroke="rgb(255,255,255)" font-family="geogebra-sans-serif, sans-serif" font-size="16px" font-style="normal" font-weight="normal" text-decoration="normal" x="658" y="425" text-anchor="start" dominant-baseline="alphabetic" stroke-opacity="1" stroke-linejoin="bevel" stroke-miterlimit="10" stroke-width="3">C</text><text fill="rgb(21,101,192)" stroke="none" font-family="geogebra-sans-serif, sans-serif" font-size="16px" font-style="normal" font-weight="normal" text-decoration="normal" x="658" y="425" text-anchor="start" dominant-baseline="alphabetic" fill-opacity="1">C</text><path fill="rgb(21,101,192)" stroke="none" paint-order="stroke fill markers" d=" M 686.3225089286052 526.1141409916626 C 686.3225089286052 528.8755647408166 684.0839326777592 531.1141409916626 681.3225089286052 531.1141409916626 C 678.5610851794512 531.1141409916626 676.3225089286052 528.8755647408166 676.3225089286052 526.1141409916626 C 676.3225089286052 523.3527172425086 678.5610851794512 521.1141409916626 681.3225089286052 521.1141409916626 C 684.0839326777592 521.1141409916626 686.3225089286052 523.3527172425086 686.3225089286052 526.1141409916626 Z" fill-opacity="1"/><path fill="none" stroke="rgb(0,0,0)" paint-order="fill stroke markers" d=" M 686.3225089286052 526.1141409916626 C 686.3225089286052 528.8755647408166 684.0839326777592 531.1141409916626 681.3225089286052 531.1141409916626 C 678.5610851794512 531.1141409916626 676.3225089286052 528.8755647408166 676.3225089286052 526.1141409916626 C 676.3225089286052 523.3527172425086 678.5610851794512 521.1141409916626 681.3225089286052 521.1141409916626 C 684.0839326777592 521.1141409916626 686.3225089286052 523.3527172425086 686.3225089286052 526.1141409916626 Z" stroke-opacity="1" stroke-linecap="round" stroke-linejoin="round" stroke-miterlimit="10"/><text fill="rgb(21,101,192)" stroke="none" font-family="geogebra-sans-serif, sans-serif" font-size="16px" font-style="normal" font-weight="normal" text-decoration="normal" x="685" y="516" text-anchor="start" dominant-baseline="alphabetic" fill-opacity="1">D</text><text fill="none" stroke="rgb(255,255,255)" font-family="geogebra-sans-serif, sans-serif" font-size="16px" font-style="normal" font-weight="normal" text-decoration="normal" x="685" y="516" text-anchor="start" dominant-baseline="alphabetic" stroke-opacity="1" stroke-linejoin="bevel" stroke-miterlimit="10" stroke-width="3">D</text><text fill="rgb(21,101,192)" stroke="none" font-family="geogebra-sans-serif, sans-serif" font-size="16px" font-style="normal" font-weight="normal" text-decoration="normal" x="685" y="516" text-anchor="start" dominant-baseline="alphabetic" fill-opacity="1">D</text><path fill="rgb(97,97,97)" stroke="none" paint-order="stroke fill markers" d=" M 684.7173054466853 409.89516507055134 C 684.7173054466853 412.1043040698745 682.9264444460084 413.89516507055134 680.7173054466853 413.89516507055134 C 678.5081664473621 413.89516507055134 676.7173054466853 412.1043040698745 676.7173054466853 409.89516507055134 C 676.7173054466853 407.6860260712282 678.5081664473621 405.89516507055134 680.7173054466853 405.89516507055134 C 682.9264444460084 405.89516507055134 684.7173054466853 407.6860260712282 684.7173054466853 409.89516507055134 Z" fill-opacity="1"/><path fill="none" stroke="rgb(0,0,0)" paint-order="fill stroke markers" d=" M 684.7173054466853 409.89516507055134 C 684.7173054466853 412.1043040698745 682.9264444460084 413.89516507055134 680.7173054466853 413.89516507055134 C 678.5081664473621 413.89516507055134 676.7173054466853 412.1043040698745 676.7173054466853 409.89516507055134 C 676.7173054466853 407.6860260712282 678.5081664473621 405.89516507055134 680.7173054466853 405.89516507055134 C 682.9264444460084 405.89516507055134 684.7173054466853 407.6860260712282 684.7173054466853 409.89516507055134 Z" stroke-opacity="1" stroke-linecap="round" stroke-linejoin="round" stroke-miterlimit="10"/><text fill="rgb(97,97,97)" stroke="none" font-family="geogebra-sans-serif, sans-serif" font-size="16px" font-style="normal" font-weight="normal" text-decoration="normal" x="685" y="402" text-anchor="start" dominant-baseline="alphabetic" fill-opacity="1">E</text><text fill="none" stroke="rgb(255,255,255)" font-family="geogebra-sans-serif, sans-serif" font-size="16px" font-style="normal" font-weight="normal" text-decoration="normal" x="685" y="402" text-anchor="start" dominant-baseline="alphabetic" stroke-opacity="1" stroke-linejoin="bevel" stroke-miterlimit="10" stroke-width="3">E</text><text fill="rgb(97,97,97)" stroke="none" font-family="geogebra-sans-serif, sans-serif" font-size="16px" font-style="normal" font-weight="normal" text-decoration="normal" x="685" y="402" text-anchor="start" dominant-baseline="alphabetic" fill-opacity="1">E</text><path fill="rgb(97,97,97)" stroke="none" paint-order="stroke fill markers" d=" M 743.3186465013852 525.8121295161804 C 743.3186465013852 528.0212685155036 741.5277855007083 529.8121295161804 739.3186465013852 529.8121295161804 C 737.109507502062 529.8121295161804 735.3186465013852 528.0212685155036 735.3186465013852 525.8121295161804 C 735.3186465013852 523.6029905168573 737.109507502062 521.8121295161804 739.3186465013852 521.8121295161804 C 741.5277855007083 521.8121295161804 743.3186465013852 523.6029905168573 743.3186465013852 525.8121295161804 Z" fill-opacity="1"/><path fill="none" stroke="rgb(0,0,0)" paint-order="fill stroke markers" d=" M 743.3186465013852 525.8121295161804 C 743.3186465013852 528.0212685155036 741.5277855007083 529.8121295161804 739.3186465013852 529.8121295161804 C 737.109507502062 529.8121295161804 735.3186465013852 528.0212685155036 735.3186465013852 525.8121295161804 C 735.3186465013852 523.6029905168573 737.109507502062 521.8121295161804 739.3186465013852 521.8121295161804 C 741.5277855007083 521.8121295161804 743.3186465013852 523.6029905168573 743.3186465013852 525.8121295161804 Z" stroke-opacity="1" stroke-linecap="round" stroke-linejoin="round" stroke-miterlimit="10"/><text fill="rgb(97,97,97)" stroke="none" font-family="geogebra-sans-serif, sans-serif" font-size="16px" font-style="normal" font-weight="normal" text-decoration="normal" x="743" y="518" text-anchor="start" dominant-baseline="alphabetic" fill-opacity="1">F</text><text fill="none" stroke="rgb(255,255,255)" font-family="geogebra-sans-serif, sans-serif" font-size="16px" font-style="normal" font-weight="normal" text-decoration="normal" x="743" y="518" text-anchor="start" dominant-baseline="alphabetic" stroke-opacity="1" stroke-linejoin="bevel" stroke-miterlimit="10" stroke-width="3">F</text><text fill="rgb(97,97,97)" stroke="none" font-family="geogebra-sans-serif, sans-serif" font-size="16px" font-style="normal" font-weight="normal" text-decoration="normal" x="743" y="518" text-anchor="start" dominant-baseline="alphabetic" fill-opacity="1">F</text></g></g></svg>