<svg version="1.1" xmlns="http://www.w3.org/2000/svg" xmlns:xlink="http://www.w3.org/1999/xlink" width="652" height="552"><defs><clipPath id="zKlKbwGNqZTo"><path fill="none" stroke="none" d=" M 0 0 L 652 0 L 652 552 L 0 552 L 0 0 Z"/></clipPath></defs><g transform="scale(1,1)" clip-path="url(#zKlKbwGNqZTo)"><g transform="translate(-149,-301)"><rect fill="rgb(255,255,255)" stroke="none" x="0" y="0" width="1204" height="932" fill-opacity="1"/><path fill="none" stroke="rgb(97,97,97)" paint-order="fill stroke markers" d=" M 695.4590526957188 571.433493613824 C 695.4590526957188 719.1201200348839 575.7353867516391 838.8437859789628 428.04876033057803 838.8437859789628 C 280.36213390951696 838.8437859789628 160.6384679654372 719.1201200348839 160.6384679654372 571.433493613824 C 160.6384679654372 423.746867192764 280.36213390951696 304.0232012486852 428.04876033057803 304.0232012486852 C 575.7353867516391 304.0232012486852 695.4590526957188 423.746867192764 695.4590526957188 571.433493613824 Z" stroke-opacity="0.8" stroke-linecap="round" stroke-linejoin="round" stroke-miterlimit="10" stroke-width="2.5"/><path fill="none" stroke="rgb(97,97,97)" paint-order="fill stroke markers" d=" M 710.9704608605657 417.6067167324066 C 710.9704608605657 453.05531158068425 682.2336968715074 481.7920755697423 646.7851020232295 481.7920755697423 C 611.3365071749515 481.7920755697423 582.5997431858933 453.05531158068425 582.5997431858933 417.6067167324066 C 582.5997431858933 382.15812188412895 611.3365071749515 353.4213578950709 646.7851020232295 353.4213578950709 C 682.2336968715074 353.4213578950709 710.9704608605657 382.15812188412895 710.9704608605657 417.6067167324066 Z" stroke-opacity="0.8" stroke-linecap="round" stroke-linejoin="round" stroke-miterlimit="10" stroke-width="2.5"/><path fill="none" stroke="rgb(97,97,97)" paint-order="fill stroke markers" d=" M 791.834337112586 568.794704742025 C 791.834337112586 622.0284953461252 748.6798232769747 665.183009181736 695.4460326728743 665.183009181736 C 642.2122420687737 665.183009181736 599.0577282331625 622.0284953461252 599.0577282331625 568.794704742025 C 599.0577282331625 515.5609141379249 642.2122420687737 472.406400302314 695.4460326728743 472.406400302314 C 748.6798232769747 472.406400302314 791.834337112586 515.5609141379249 791.834337112586 568.794704742025 Z" stroke-opacity="0.8" stroke-linecap="round" stroke-linejoin="round" stroke-miterlimit="10" stroke-width="2.5"/><path fill="none" stroke="rgb(97,97,97)" paint-order="fill stroke markers" d=" M 428.04876033057803 571.433493613824 L 1204 563.7760800644546" stroke-opacity="0.8" stroke-linecap="round" stroke-linejoin="round" stroke-miterlimit="10" stroke-width="2.5"/><path fill="none" stroke="rgb(97,97,97)" paint-order="fill stroke markers" d=" M 428.04876033057803 571.433493613824 L 1204 25.74420717963733" stroke-opacity="0.8" stroke-linecap="round" stroke-linejoin="round" stroke-miterlimit="10" stroke-width="2.5"/><path fill="none" stroke="rgb(97,97,97)" paint-order="fill stroke markers" d=" M 679.0108278546148 663.7714875646932 L 672.4604513325946 0" stroke-opacity="0.8" stroke-linecap="round" stroke-linejoin="round" stroke-miterlimit="10" stroke-width="2.5"/><path fill="none" stroke="rgb(97,97,97)" paint-order="fill stroke markers" d=" M 603.8286164963034 369.91499166135713 L 999.1160410596635 932" stroke-opacity="0.8" stroke-linecap="round" stroke-linejoin="round" stroke-miterlimit="10" stroke-width="2.5"/><path fill="none" stroke="rgb(97,97,97)" paint-order="fill stroke markers" d=" M 743.3586658878851 568.321882703719 L 676.376208349672 396.7967110638109" stroke-opacity="0.8" stroke-linecap="round" stroke-linejoin="round" stroke-miterlimit="10" stroke-width="2.5"/><path fill="rgb(21,101,192)" stroke="none" paint-order="stroke fill markers" d=" M 433.04876033057803 571.433493613824 C 433.04876033057803 574.194917362978 430.810184079732 576.433493613824 428.04876033057803 576.433493613824 C 425.2873365814241 576.433493613824 423.04876033057803 574.194917362978 423.04876033057803 571.433493613824 C 423.04876033057803 568.67206986467 425.2873365814241 566.433493613824 428.04876033057803 566.433493613824 C 430.810184079732 566.433493613824 433.04876033057803 568.67206986467 433.04876033057803 571.433493613824 Z" fill-opacity="1"/><path fill="none" stroke="rgb(0,0,0)" paint-order="fill stroke markers" d=" M 433.04876033057803 571.433493613824 C 433.04876033057803 574.194917362978 430.810184079732 576.433493613824 428.04876033057803 576.433493613824 C 425.2873365814241 576.433493613824 423.04876033057803 574.194917362978 423.04876033057803 571.433493613824 C 423.04876033057803 568.67206986467 425.2873365814241 566.433493613824 428.04876033057803 566.433493613824 C 430.810184079732 566.433493613824 433.04876033057803 568.67206986467 433.04876033057803 571.433493613824 Z" stroke-opacity="1" stroke-linecap="round" stroke-linejoin="round" stroke-miterlimit="10"/><text fill="rgb(21,101,192)" stroke="none" font-family="geogebra-sans-serif, sans-serif" font-size="16px" font-style="normal" font-weight="normal" text-decoration="normal" x="432" y="561" text-anchor="start" dominant-baseline="alphabetic" fill-opacity="1">A</text><text fill="none" stroke="rgb(255,255,255)" font-family="geogebra-sans-serif, sans-serif" font-size="16px" font-style="normal" font-weight="normal" text-decoration="normal" x="432" y="561" text-anchor="start" dominant-baseline="alphabetic" stroke-opacity="1" stroke-linejoin="bevel" stroke-miterlimit="10" stroke-width="3">A</text><text fill="rgb(21,101,192)" stroke="none" font-family="geogebra-sans-serif, sans-serif" font-size="16px" font-style="normal" font-weight="normal" text-decoration="normal" x="432" y="561" text-anchor="start" dominant-baseline="alphabetic" fill-opacity="1">A</text><path fill="rgb(21,101,192)" stroke="none" paint-order="stroke fill markers" d=" M 682.1396694214872 474.16076634109675 C 682.1396694214872 476.9221900902507 679.9010931706412 479.16076634109675 677.1396694214872 479.16076634109675 C 674.3782456723332 479.16076634109675 672.1396694214872 476.9221900902507 672.1396694214872 474.16076634109675 C 672.1396694214872 471.3993425919428 674.3782456723332 469.16076634109675 677.1396694214872 469.16076634109675 C 679.9010931706412 469.16076634109675 682.1396694214872 471.3993425919428 682.1396694214872 474.16076634109675 Z" fill-opacity="1"/><path fill="none" stroke="rgb(0,0,0)" paint-order="fill stroke markers" d=" M 682.1396694214872 474.16076634109675 C 682.1396694214872 476.9221900902507 679.9010931706412 479.16076634109675 677.1396694214872 479.16076634109675 C 674.3782456723332 479.16076634109675 672.1396694214872 476.9221900902507 672.1396694214872 474.16076634109675 C 672.1396694214872 471.3993425919428 674.3782456723332 469.16076634109675 677.1396694214872 469.16076634109675 C 679.9010931706412 469.16076634109675 682.1396694214872 471.3993425919428 682.1396694214872 474.16076634109675 Z" stroke-opacity="1" stroke-linecap="round" stroke-linejoin="round" stroke-miterlimit="10"/><text fill="rgb(21,101,192)" stroke="none" font-family="geogebra-sans-serif, sans-serif" font-size="16px" font-style="normal" font-weight="normal" text-decoration="normal" x="681" y="464" text-anchor="start" dominant-baseline="alphabetic" fill-opacity="1">B</text><text fill="none" stroke="rgb(255,255,255)" font-family="geogebra-sans-serif, sans-serif" font-size="16px" font-style="normal" font-weight="normal" text-decoration="normal" x="681" y="464" text-anchor="start" dominant-baseline="alphabetic" stroke-opacity="1" stroke-linejoin="bevel" stroke-miterlimit="10" stroke-width="3">B</text><text fill="rgb(21,101,192)" stroke="none" font-family="geogebra-sans-serif, sans-serif" font-size="16px" font-style="normal" font-weight="normal" text-decoration="normal" x="681" y="464" text-anchor="start" dominant-baseline="alphabetic" fill-opacity="1">B</text><path fill="rgb(21,101,192)" stroke="none" paint-order="stroke fill markers" d=" M 651.7851020232295 417.6067167324066 C 651.7851020232295 420.36814048156054 649.5465257723835 422.6067167324066 646.7851020232295 422.6067167324066 C 644.0236782740755 422.6067167324066 641.7851020232295 420.36814048156054 641.7851020232295 417.6067167324066 C 641.7851020232295 414.84529298325265 644.0236782740755 412.6067167324066 646.7851020232295 412.6067167324066 C 649.5465257723835 412.6067167324066 651.7851020232295 414.84529298325265 651.7851020232295 417.6067167324066 Z" fill-opacity="1"/><path fill="none" stroke="rgb(0,0,0)" paint-order="fill stroke markers" d=" M 651.7851020232295 417.6067167324066 C 651.7851020232295 420.36814048156054 649.5465257723835 422.6067167324066 646.7851020232295 422.6067167324066 C 644.0236782740755 422.6067167324066 641.7851020232295 420.36814048156054 641.7851020232295 417.6067167324066 C 641.7851020232295 414.84529298325265 644.0236782740755 412.6067167324066 646.7851020232295 412.6067167324066 C 649.5465257723835 412.6067167324066 651.7851020232295 414.84529298325265 651.7851020232295 417.6067167324066 Z" stroke-opacity="1" stroke-linecap="round" stroke-linejoin="round" stroke-miterlimit="10"/><text fill="rgb(21,101,192)" stroke="none" font-family="geogebra-sans-serif, sans-serif" font-size="16px" font-style="normal" font-weight="normal" text-decoration="normal" x="651" y="408" text-anchor="start" dominant-baseline="alphabetic" fill-opacity="1">C</text><text fill="none" stroke="rgb(255,255,255)" font-family="geogebra-sans-serif, sans-serif" font-size="16px" font-style="normal" font-weight="normal" text-decoration="normal" x="651" y="408" text-anchor="start" dominant-baseline="alphabetic" stroke-opacity="1" stroke-linejoin="bevel" stroke-miterlimit="10" stroke-width="3">C</text><text fill="rgb(21,101,192)" stroke="none" font-family="geogebra-sans-serif, sans-serif" font-size="16px" font-style="normal" font-weight="normal" text-decoration="normal" x="651" y="408" text-anchor="start" dominant-baseline="alphabetic" fill-opacity="1">C</text><path fill="rgb(21,101,192)" stroke="none" paint-order="stroke fill markers" d=" M 700.4460326728743 568.794704742025 C 700.4460326728743 571.556128491179 698.2074564220283 573.794704742025 695.4460326728743 573.794704742025 C 692.6846089237202 573.794704742025 690.4460326728743 571.556128491179 690.4460326728743 568.794704742025 C 690.4460326728743 566.033280992871 692.6846089237202 563.794704742025 695.4460326728743 563.794704742025 C 698.2074564220283 563.794704742025 700.4460326728743 566.033280992871 700.4460326728743 568.794704742025 Z" fill-opacity="1"/><path fill="none" stroke="rgb(0,0,0)" paint-order="fill stroke markers" d=" M 700.4460326728743 568.794704742025 C 700.4460326728743 571.556128491179 698.2074564220283 573.794704742025 695.4460326728743 573.794704742025 C 692.6846089237202 573.794704742025 690.4460326728743 571.556128491179 690.4460326728743 568.794704742025 C 690.4460326728743 566.033280992871 692.6846089237202 563.794704742025 695.4460326728743 563.794704742025 C 698.2074564220283 563.794704742025 700.4460326728743 566.033280992871 700.4460326728743 568.794704742025 Z" stroke-opacity="1" stroke-linecap="round" stroke-linejoin="round" stroke-miterlimit="10"/><text fill="rgb(21,101,192)" stroke="none" font-family="geogebra-sans-serif, sans-serif" font-size="16px" font-style="normal" font-weight="normal" text-decoration="normal" x="699" y="559" text-anchor="start" dominant-baseline="alphabetic" fill-opacity="1">D</text><text fill="none" stroke="rgb(255,255,255)" font-family="geogebra-sans-serif, sans-serif" font-size="16px" font-style="normal" font-weight="normal" text-decoration="normal" x="699" y="559" text-anchor="start" dominant-baseline="alphabetic" stroke-opacity="1" stroke-linejoin="bevel" stroke-miterlimit="10" stroke-width="3">D</text><text fill="rgb(21,101,192)" stroke="none" font-family="geogebra-sans-serif, sans-serif" font-size="16px" font-style="normal" font-weight="normal" text-decoration="normal" x="699" y="559" text-anchor="start" dominant-baseline="alphabetic" fill-opacity="1">D</text><path fill="rgb(97,97,97)" stroke="none" paint-order="stroke fill markers" d=" M 683.0108278546148 663.7714875646932 C 683.0108278546148 665.9806265640163 681.219966853938 667.7714875646932 679.0108278546148 667.7714875646932 C 676.8016888552917 667.7714875646932 675.0108278546148 665.9806265640163 675.0108278546148 663.7714875646932 C 675.0108278546148 661.56234856537 676.8016888552917 659.7714875646932 679.0108278546148 659.7714875646932 C 681.219966853938 659.7714875646932 683.0108278546148 661.56234856537 683.0108278546148 663.7714875646932 Z" fill-opacity="1"/><path fill="none" stroke="rgb(0,0,0)" paint-order="fill stroke markers" d=" M 683.0108278546148 663.7714875646932 C 683.0108278546148 665.9806265640163 681.219966853938 667.7714875646932 679.0108278546148 667.7714875646932 C 676.8016888552917 667.7714875646932 675.0108278546148 665.9806265640163 675.0108278546148 663.7714875646932 C 675.0108278546148 661.56234856537 676.8016888552917 659.7714875646932 679.0108278546148 659.7714875646932 C 681.219966853938 659.7714875646932 683.0108278546148 661.56234856537 683.0108278546148 663.7714875646932 Z" stroke-opacity="1" stroke-linecap="round" stroke-linejoin="round" stroke-miterlimit="10"/><text fill="rgb(97,97,97)" stroke="none" font-family="geogebra-sans-serif, sans-serif" font-size="16px" font-style="normal" font-weight="normal" text-decoration="normal" x="683" y="656" text-anchor="start" dominant-baseline="alphabetic" fill-opacity="1">E</text><text fill="none" stroke="rgb(255,255,255)" font-family="geogebra-sans-serif, sans-serif" font-size="16px" font-style="normal" font-weight="normal" text-decoration="normal" x="683" y="656" text-anchor="start" dominant-baseline="alphabetic" stroke-opacity="1" stroke-linejoin="bevel" stroke-miterlimit="10" stroke-width="3">E</text><text fill="rgb(97,97,97)" stroke="none" font-family="geogebra-sans-serif, sans-serif" font-size="16px" font-style="normal" font-weight="normal" text-decoration="normal" x="683" y="656" text-anchor="start" dominant-baseline="alphabetic" fill-opacity="1">E</text><path fill="rgb(97,97,97)" stroke="none" paint-order="stroke fill markers" d=" M 607.8286164963034 369.91499166135713 C 607.8286164963034 372.1241306606803 606.0377554956266 373.91499166135713 603.8286164963034 373.91499166135713 C 601.6194774969803 373.91499166135713 599.8286164963034 372.1241306606803 599.8286164963034 369.91499166135713 C 599.8286164963034 367.705852662034 601.6194774969803 365.91499166135713 603.8286164963034 365.91499166135713 C 606.0377554956266 365.91499166135713 607.8286164963034 367.705852662034 607.8286164963034 369.91499166135713 Z" fill-opacity="1"/><path fill="none" stroke="rgb(0,0,0)" paint-order="fill stroke markers" d=" M 607.8286164963034 369.91499166135713 C 607.8286164963034 372.1241306606803 606.0377554956266 373.91499166135713 603.8286164963034 373.91499166135713 C 601.6194774969803 373.91499166135713 599.8286164963034 372.1241306606803 599.8286164963034 369.91499166135713 C 599.8286164963034 367.705852662034 601.6194774969803 365.91499166135713 603.8286164963034 365.91499166135713 C 606.0377554956266 365.91499166135713 607.8286164963034 367.705852662034 607.8286164963034 369.91499166135713 Z" stroke-opacity="1" stroke-linecap="round" stroke-linejoin="round" stroke-miterlimit="10"/><text fill="rgb(97,97,97)" stroke="none" font-family="geogebra-sans-serif, sans-serif" font-size="16px" font-style="normal" font-weight="normal" text-decoration="normal" x="608" y="362" text-anchor="start" dominant-baseline="alphabetic" fill-opacity="1">F</text><text fill="none" stroke="rgb(255,255,255)" font-family="geogebra-sans-serif, sans-serif" font-size="16px" font-style="normal" font-weight="normal" text-decoration="normal" x="608" y="362" text-anchor="start" dominant-baseline="alphabetic" stroke-opacity="1" stroke-linejoin="bevel" stroke-miterlimit="10" stroke-width="3">F</text><text fill="rgb(97,97,97)" stroke="none" font-family="geogebra-sans-serif, sans-serif" font-size="16px" font-style="normal" font-weight="normal" text-decoration="normal" x="608" y="362" text-anchor="start" dominant-baseline="alphabetic" fill-opacity="1">F</text><path fill="rgb(97,97,97)" stroke="none" paint-order="stroke fill markers" d=" M 747.3586658878851 568.321882703719 C 747.3586658878851 570.5310217030421 745.5678048872082 572.321882703719 743.3586658878851 572.321882703719 C 741.1495268885619 572.321882703719 739.3586658878851 570.5310217030421 739.3586658878851 568.321882703719 C 739.3586658878851 566.1127437043958 741.1495268885619 564.321882703719 743.3586658878851 564.321882703719 C 745.5678048872082 564.321882703719 747.3586658878851 566.1127437043958 747.3586658878851 568.321882703719 Z" fill-opacity="1"/><path fill="none" stroke="rgb(0,0,0)" paint-order="fill stroke markers" d=" M 747.3586658878851 568.321882703719 C 747.3586658878851 570.5310217030421 745.5678048872082 572.321882703719 743.3586658878851 572.321882703719 C 741.1495268885619 572.321882703719 739.3586658878851 570.5310217030421 739.3586658878851 568.321882703719 C 739.3586658878851 566.1127437043958 741.1495268885619 564.321882703719 743.3586658878851 564.321882703719 C 745.5678048872082 564.321882703719 747.3586658878851 566.1127437043958 747.3586658878851 568.321882703719 Z" stroke-opacity="1" stroke-linecap="round" stroke-linejoin="round" stroke-miterlimit="10"/><text fill="rgb(97,97,97)" stroke="none" font-family="geogebra-sans-serif, sans-serif" font-size="16px" font-style="normal" font-weight="normal" text-decoration="normal" x="747" y="560" text-anchor="start" dominant-baseline="alphabetic" fill-opacity="1">G</text><text fill="none" stroke="rgb(255,255,255)" font-family="geogebra-sans-serif, sans-serif" font-size="16px" font-style="normal" font-weight="normal" text-decoration="normal" x="747" y="560" text-anchor="start" dominant-baseline="alphabetic" stroke-opacity="1" stroke-linejoin="bevel" stroke-miterlimit="10" stroke-width="3">G</text><text fill="rgb(97,97,97)" stroke="none" font-family="geogebra-sans-serif, sans-serif" font-size="16px" font-style="normal" font-weight="normal" text-decoration="normal" x="747" y="560" text-anchor="start" dominant-baseline="alphabetic" fill-opacity="1">G</text><path fill="rgb(97,97,97)" stroke="none" paint-order="stroke fill markers" d=" M 680.376208349672 396.7967110638109 C 680.376208349672 399.00585006313406 678.5853473489951 400.7967110638109 676.376208349672 400.7967110638109 C 674.1670693503488 400.7967110638109 672.376208349672 399.00585006313406 672.376208349672 396.7967110638109 C 672.376208349672 394.58757206448774 674.1670693503488 392.7967110638109 676.376208349672 392.7967110638109 C 678.5853473489951 392.7967110638109 680.376208349672 394.58757206448774 680.376208349672 396.7967110638109 Z" fill-opacity="1"/><path fill="none" stroke="rgb(0,0,0)" paint-order="fill stroke markers" d=" M 680.376208349672 396.7967110638109 C 680.376208349672 399.00585006313406 678.5853473489951 400.7967110638109 676.376208349672 400.7967110638109 C 674.1670693503488 400.7967110638109 672.376208349672 399.00585006313406 672.376208349672 396.7967110638109 C 672.376208349672 394.58757206448774 674.1670693503488 392.7967110638109 676.376208349672 392.7967110638109 C 678.5853473489951 392.7967110638109 680.376208349672 394.58757206448774 680.376208349672 396.7967110638109 Z" stroke-opacity="1" stroke-linecap="round" stroke-linejoin="round" stroke-miterlimit="10"/><text fill="rgb(97,97,97)" stroke="none" font-family="geogebra-sans-serif, sans-serif" font-size="16px" font-style="normal" font-weight="normal" text-decoration="normal" x="680" y="389" text-anchor="start" dominant-baseline="alphabetic" fill-opacity="1">H</text><text fill="none" stroke="rgb(255,255,255)" font-family="geogebra-sans-serif, sans-serif" font-size="16px" font-style="normal" font-weight="normal" text-decoration="normal" x="680" y="389" text-anchor="start" dominant-baseline="alphabetic" stroke-opacity="1" stroke-linejoin="bevel" stroke-miterlimit="10" stroke-width="3">H</text><text fill="rgb(97,97,97)" stroke="none" font-family="geogebra-sans-serif, sans-serif" font-size="16px" font-style="normal" font-weight="normal" text-decoration="normal" x="680" y="389" text-anchor="start" dominant-baseline="alphabetic" fill-opacity="1">H</text></g></g></svg>