<svg version="1.1" xmlns="http://www.w3.org/2000/svg" xmlns:xlink="http://www.w3.org/1999/xlink" width="89" height="93"><defs><clipPath id="KalppvSqPrcU"><path fill="none" stroke="none" d=" M 0 0 L 89 0 L 89 93 L 0 93 L 0 0 Z"/></clipPath></defs><g transform="scale(1,1)" clip-path="url(#KalppvSqPrcU)"><g transform="translate(-543,-329)"><rect fill="rgb(255,255,255)" stroke="none" x="0" y="0" width="1190" height="918" fill-opacity="1"/><path fill="none" stroke="rgb(97,97,97)" paint-order="fill stroke markers" d=" M 615.1211771405049 385.6526281429891 C 615.1211771405049 402.38498066059134 601.5569253743049 415.9492324267913 584.8245728567026 415.9492324267913 C 568.0922203391004 415.9492324267913 554.5279685729005 402.38498066059134 554.5279685729005 385.6526281429891 C 554.5279685729005 368.92027562538686 568.0922203391004 355.3560238591869 584.8245728567026 355.3560238591869 C 601.5569253743049 355.3560238591869 615.1211771405049 368.92027562538686 615.1211771405049 385.6526281429891 Z" stroke-opacity="0.8" stroke-linecap="round" stroke-linejoin="round" stroke-miterlimit="10" stroke-width="2.5"/><path fill="none" stroke="rgb(97,97,97)" paint-order="fill stroke markers" d=" M 556.6471557536432 396.7844472454323 L 930.364321831288 0" stroke-opacity="0.8" stroke-linecap="round" stroke-linejoin="round" stroke-miterlimit="10" stroke-width="2.5"/><path fill="none" stroke="rgb(97,97,97)" paint-order="fill stroke markers" d=" M 556.6471557536432 396.7844472454323 L 1190 384.7751488075914" stroke-opacity="0.8" stroke-linecap="round" stroke-linejoin="round" stroke-miterlimit="10" stroke-width="2.5"/><path fill="none" stroke="rgb(97,97,97)" paint-order="fill stroke markers" d=" M 594.250814785621 356.85974370556596 L 613.4037350779104 395.7082592948955" stroke-opacity="0.8" stroke-linecap="round" stroke-linejoin="round" stroke-miterlimit="10" stroke-width="2.5"/><path fill="rgb(21,101,192)" stroke="none" paint-order="stroke fill markers" d=" M 589.8245728567026 385.6526281429891 C 589.8245728567026 388.41405189214305 587.5859966058566 390.6526281429891 584.8245728567026 390.6526281429891 C 582.0631491075486 390.6526281429891 579.8245728567026 388.41405189214305 579.8245728567026 385.6526281429891 C 579.8245728567026 382.89120439383515 582.0631491075486 380.6526281429891 584.8245728567026 380.6526281429891 C 587.5859966058566 380.6526281429891 589.8245728567026 382.89120439383515 589.8245728567026 385.6526281429891 Z" fill-opacity="1"/><path fill="none" stroke="rgb(0,0,0)" paint-order="fill stroke markers" d=" M 589.8245728567026 385.6526281429891 C 589.8245728567026 388.41405189214305 587.5859966058566 390.6526281429891 584.8245728567026 390.6526281429891 C 582.0631491075486 390.6526281429891 579.8245728567026 388.41405189214305 579.8245728567026 385.6526281429891 C 579.8245728567026 382.89120439383515 582.0631491075486 380.6526281429891 584.8245728567026 380.6526281429891 C 587.5859966058566 380.6526281429891 589.8245728567026 382.89120439383515 589.8245728567026 385.6526281429891 Z" stroke-opacity="1" stroke-linecap="round" stroke-linejoin="round" stroke-miterlimit="10"/><text fill="rgb(21,101,192)" stroke="none" font-family="geogebra-sans-serif, sans-serif" font-size="16px" font-style="normal" font-weight="normal" text-decoration="normal" x="589" y="376" text-anchor="start" dominant-baseline="alphabetic" fill-opacity="1">A</text><text fill="none" stroke="rgb(255,255,255)" font-family="geogebra-sans-serif, sans-serif" font-size="16px" font-style="normal" font-weight="normal" text-decoration="normal" x="589" y="376" text-anchor="start" dominant-baseline="alphabetic" stroke-opacity="1" stroke-linejoin="bevel" stroke-miterlimit="10" stroke-width="3">A</text><text fill="rgb(21,101,192)" stroke="none" font-family="geogebra-sans-serif, sans-serif" font-size="16px" font-style="normal" font-weight="normal" text-decoration="normal" x="589" y="376" text-anchor="start" dominant-baseline="alphabetic" fill-opacity="1">A</text><path fill="rgb(21,101,192)" stroke="none" paint-order="stroke fill markers" d=" M 561.6471557536432 396.7844472454323 C 561.6471557536432 399.54587099458627 559.4085795027972 401.7844472454323 556.6471557536432 401.7844472454323 C 553.8857320044892 401.7844472454323 551.6471557536432 399.54587099458627 551.6471557536432 396.7844472454323 C 551.6471557536432 394.02302349627837 553.8857320044892 391.7844472454323 556.6471557536432 391.7844472454323 C 559.4085795027972 391.7844472454323 561.6471557536432 394.02302349627837 561.6471557536432 396.7844472454323 Z" fill-opacity="1"/><path fill="none" stroke="rgb(0,0,0)" paint-order="fill stroke markers" d=" M 561.6471557536432 396.7844472454323 C 561.6471557536432 399.54587099458627 559.4085795027972 401.7844472454323 556.6471557536432 401.7844472454323 C 553.8857320044892 401.7844472454323 551.6471557536432 399.54587099458627 551.6471557536432 396.7844472454323 C 551.6471557536432 394.02302349627837 553.8857320044892 391.7844472454323 556.6471557536432 391.7844472454323 C 559.4085795027972 391.7844472454323 561.6471557536432 394.02302349627837 561.6471557536432 396.7844472454323 Z" stroke-opacity="1" stroke-linecap="round" stroke-linejoin="round" stroke-miterlimit="10"/><text fill="rgb(21,101,192)" stroke="none" font-family="geogebra-sans-serif, sans-serif" font-size="16px" font-style="normal" font-weight="normal" text-decoration="normal" x="561" y="387" text-anchor="start" dominant-baseline="alphabetic" fill-opacity="1">B</text><text fill="none" stroke="rgb(255,255,255)" font-family="geogebra-sans-serif, sans-serif" font-size="16px" font-style="normal" font-weight="normal" text-decoration="normal" x="561" y="387" text-anchor="start" dominant-baseline="alphabetic" stroke-opacity="1" stroke-linejoin="bevel" stroke-miterlimit="10" stroke-width="3">B</text><text fill="rgb(21,101,192)" stroke="none" font-family="geogebra-sans-serif, sans-serif" font-size="16px" font-style="normal" font-weight="normal" text-decoration="normal" x="561" y="387" text-anchor="start" dominant-baseline="alphabetic" fill-opacity="1">B</text><path fill="rgb(21,101,192)" stroke="none" paint-order="stroke fill markers" d=" M 599.250814785621 356.85974370556596 C 599.250814785621 359.6211674547199 597.012238534775 361.85974370556596 594.250814785621 361.85974370556596 C 591.4893910364669 361.85974370556596 589.250814785621 359.6211674547199 589.250814785621 356.85974370556596 C 589.250814785621 354.098319956412 591.4893910364669 351.85974370556596 594.250814785621 351.85974370556596 C 597.012238534775 351.85974370556596 599.250814785621 354.098319956412 599.250814785621 356.85974370556596 Z" fill-opacity="1"/><path fill="none" stroke="rgb(0,0,0)" paint-order="fill stroke markers" d=" M 599.250814785621 356.85974370556596 C 599.250814785621 359.6211674547199 597.012238534775 361.85974370556596 594.250814785621 361.85974370556596 C 591.4893910364669 361.85974370556596 589.250814785621 359.6211674547199 589.250814785621 356.85974370556596 C 589.250814785621 354.098319956412 591.4893910364669 351.85974370556596 594.250814785621 351.85974370556596 C 597.012238534775 351.85974370556596 599.250814785621 354.098319956412 599.250814785621 356.85974370556596 Z" stroke-opacity="1" stroke-linecap="round" stroke-linejoin="round" stroke-miterlimit="10"/><text fill="rgb(21,101,192)" stroke="none" font-family="geogebra-sans-serif, sans-serif" font-size="16px" font-style="normal" font-weight="normal" text-decoration="normal" x="598" y="347" text-anchor="start" dominant-baseline="alphabetic" fill-opacity="1">C</text><text fill="none" stroke="rgb(255,255,255)" font-family="geogebra-sans-serif, sans-serif" font-size="16px" font-style="normal" font-weight="normal" text-decoration="normal" x="598" y="347" text-anchor="start" dominant-baseline="alphabetic" stroke-opacity="1" stroke-linejoin="bevel" stroke-miterlimit="10" stroke-width="3">C</text><text fill="rgb(21,101,192)" stroke="none" font-family="geogebra-sans-serif, sans-serif" font-size="16px" font-style="normal" font-weight="normal" text-decoration="normal" x="598" y="347" text-anchor="start" dominant-baseline="alphabetic" fill-opacity="1">C</text><path fill="rgb(21,101,192)" stroke="none" paint-order="stroke fill markers" d=" M 618.4037350779104 395.7082592948955 C 618.4037350779104 398.4696830440495 616.1651588270644 400.7082592948955 613.4037350779104 400.7082592948955 C 610.6423113287564 400.7082592948955 608.4037350779104 398.4696830440495 608.4037350779104 395.7082592948955 C 608.4037350779104 392.9468355457416 610.6423113287564 390.7082592948955 613.4037350779104 390.7082592948955 C 616.1651588270644 390.7082592948955 618.4037350779104 392.9468355457416 618.4037350779104 395.7082592948955 Z" fill-opacity="1"/><path fill="none" stroke="rgb(0,0,0)" paint-order="fill stroke markers" d=" M 618.4037350779104 395.7082592948955 C 618.4037350779104 398.4696830440495 616.1651588270644 400.7082592948955 613.4037350779104 400.7082592948955 C 610.6423113287564 400.7082592948955 608.4037350779104 398.4696830440495 608.4037350779104 395.7082592948955 C 608.4037350779104 392.9468355457416 610.6423113287564 390.7082592948955 613.4037350779104 390.7082592948955 C 616.1651588270644 390.7082592948955 618.4037350779104 392.9468355457416 618.4037350779104 395.7082592948955 Z" stroke-opacity="1" stroke-linecap="round" stroke-linejoin="round" stroke-miterlimit="10"/><text fill="rgb(21,101,192)" stroke="none" font-family="geogebra-sans-serif, sans-serif" font-size="16px" font-style="normal" font-weight="normal" text-decoration="normal" x="617" y="386" text-anchor="start" dominant-baseline="alphabetic" fill-opacity="1">D</text><text fill="none" stroke="rgb(255,255,255)" font-family="geogebra-sans-serif, sans-serif" font-size="16px" font-style="normal" font-weight="normal" text-decoration="normal" x="617" y="386" text-anchor="start" dominant-baseline="alphabetic" stroke-opacity="1" stroke-linejoin="bevel" stroke-miterlimit="10" stroke-width="3">D</text><text fill="rgb(21,101,192)" stroke="none" font-family="geogebra-sans-serif, sans-serif" font-size="16px" font-style="normal" font-weight="normal" text-decoration="normal" x="617" y="386" text-anchor="start" dominant-baseline="alphabetic" fill-opacity="1">D</text></g></g></svg>