<svg version="1.1" xmlns="http://www.w3.org/2000/svg" xmlns:xlink="http://www.w3.org/1999/xlink" width="180" height="115"><defs><clipPath id="aAxznVBCEUOn"><path fill="none" stroke="none" d=" M 0 0 L 180 0 L 180 115 L 0 115 L 0 0 Z"/></clipPath></defs><g transform="scale(1,1)" clip-path="url(#aAxznVBCEUOn)"><g transform="translate(-591,-471)"><rect fill="rgb(255,255,255)" stroke="none" x="0" y="0" width="1190" height="918" fill-opacity="1"/><path fill="none" stroke="rgb(97,97,97)" paint-order="fill stroke markers" d=" M 730.593262053906 534.8677685950415 C 730.593262053906 558.6150301749582 711.3423029022305 577.8659893266338 687.5950413223138 577.8659893266338 C 663.8477797423973 577.8659893266338 644.5968205907217 558.6150301749582 644.5968205907217 534.8677685950415 C 644.5968205907217 511.1205070151249 663.8477797423973 491.86954786344927 687.5950413223138 491.86954786344927 C 711.3423029022305 491.86954786344927 730.593262053906 511.1205070151249 730.593262053906 534.8677685950415 Z" stroke-opacity="0.8" stroke-linecap="round" stroke-linejoin="round" stroke-miterlimit="10" stroke-width="2.5"/><path fill="none" stroke="rgb(97,97,97)" paint-order="fill stroke markers" d=" M 799.7181409516052 923 L 423.37123087872357 -5" stroke-opacity="0.8" stroke-linecap="round" stroke-linejoin="round" stroke-miterlimit="10" stroke-width="2.5"/><path fill="none" stroke="rgb(97,97,97)" paint-order="fill stroke markers" d=" M 609.8213681860572 566.408589252206 L 1190 165.0780956307974" stroke-opacity="0.8" stroke-linecap="round" stroke-linejoin="round" stroke-miterlimit="10" stroke-width="2.5"/><path fill="none" stroke="rgb(97,97,97)" paint-order="fill stroke markers" d=" M 609.8213681860572 566.408589252206 L 1190 569.2585822976461" stroke-opacity="0.8" stroke-linecap="round" stroke-linejoin="round" stroke-miterlimit="10" stroke-width="2.5"/><path fill="none" stroke="rgb(97,97,97)" paint-order="fill stroke markers" d=" M 645.1836267716675 541.9472390481155 L 687.5950413223138 534.8677685950415" stroke-opacity="0.8" stroke-linecap="round" stroke-linejoin="round" stroke-miterlimit="10" stroke-width="2.5"/><path fill="none" stroke="rgb(97,97,97)" paint-order="fill stroke markers" d=" M 687.5950413223138 534.8677685950415 L 658.6322912024459 566.6483615973253" stroke-opacity="0.8" stroke-linecap="round" stroke-linejoin="round" stroke-miterlimit="10" stroke-width="2.5"/><path fill="none" stroke="rgb(97,97,97)" paint-order="fill stroke markers" d=" M 687.5950413223138 534.8677685950415 L 716.2441716526869 566.931366605808" stroke-opacity="0.8" stroke-linecap="round" stroke-linejoin="round" stroke-miterlimit="10" stroke-width="2.5"/><path fill="rgb(21,101,192)" stroke="none" paint-order="stroke fill markers" d=" M 614.8213681860572 566.408589252206 C 614.8213681860572 569.17001300136 612.5827919352112 571.408589252206 609.8213681860572 571.408589252206 C 607.0599444369032 571.408589252206 604.8213681860572 569.17001300136 604.8213681860572 566.408589252206 C 604.8213681860572 563.647165503052 607.0599444369032 561.408589252206 609.8213681860572 561.408589252206 C 612.5827919352112 561.408589252206 614.8213681860572 563.647165503052 614.8213681860572 566.408589252206 Z" fill-opacity="1"/><path fill="none" stroke="rgb(0,0,0)" paint-order="fill stroke markers" d=" M 614.8213681860572 566.408589252206 C 614.8213681860572 569.17001300136 612.5827919352112 571.408589252206 609.8213681860572 571.408589252206 C 607.0599444369032 571.408589252206 604.8213681860572 569.17001300136 604.8213681860572 566.408589252206 C 604.8213681860572 563.647165503052 607.0599444369032 561.408589252206 609.8213681860572 561.408589252206 C 612.5827919352112 561.408589252206 614.8213681860572 563.647165503052 614.8213681860572 566.408589252206 Z" stroke-opacity="1" stroke-linecap="round" stroke-linejoin="round" stroke-miterlimit="10"/><text fill="rgb(21,101,192)" stroke="none" font-family="geogebra-sans-serif, sans-serif" font-size="16px" font-style="normal" font-weight="normal" text-decoration="normal" x="614" y="556" text-anchor="start" dominant-baseline="alphabetic" fill-opacity="1">B</text><text fill="none" stroke="rgb(255,255,255)" font-family="geogebra-sans-serif, sans-serif" font-size="16px" font-style="normal" font-weight="normal" text-decoration="normal" x="614" y="556" text-anchor="start" dominant-baseline="alphabetic" stroke-opacity="1" stroke-linejoin="bevel" stroke-miterlimit="10" stroke-width="3">B</text><text fill="rgb(21,101,192)" stroke="none" font-family="geogebra-sans-serif, sans-serif" font-size="16px" font-style="normal" font-weight="normal" text-decoration="normal" x="614" y="556" text-anchor="start" dominant-baseline="alphabetic" fill-opacity="1">B</text><path fill="rgb(21,101,192)" stroke="none" paint-order="stroke fill markers" d=" M 705.8181818181815 503.4628099173557 C 705.8181818181815 506.22423366650963 703.5796055673355 508.4628099173557 700.8181818181815 508.4628099173557 C 698.0567580690275 508.4628099173557 695.8181818181815 506.22423366650963 695.8181818181815 503.4628099173557 C 695.8181818181815 500.70138616820174 698.0567580690275 498.4628099173557 700.8181818181815 498.4628099173557 C 703.5796055673355 498.4628099173557 705.8181818181815 500.70138616820174 705.8181818181815 503.4628099173557 Z" fill-opacity="1"/><path fill="none" stroke="rgb(0,0,0)" paint-order="fill stroke markers" d=" M 705.8181818181815 503.4628099173557 C 705.8181818181815 506.22423366650963 703.5796055673355 508.4628099173557 700.8181818181815 508.4628099173557 C 698.0567580690275 508.4628099173557 695.8181818181815 506.22423366650963 695.8181818181815 503.4628099173557 C 695.8181818181815 500.70138616820174 698.0567580690275 498.4628099173557 700.8181818181815 498.4628099173557 C 703.5796055673355 498.4628099173557 705.8181818181815 500.70138616820174 705.8181818181815 503.4628099173557 Z" stroke-opacity="1" stroke-linecap="round" stroke-linejoin="round" stroke-miterlimit="10"/><text fill="rgb(21,101,192)" stroke="none" font-family="geogebra-sans-serif, sans-serif" font-size="16px" font-style="normal" font-weight="normal" text-decoration="normal" x="705" y="493" text-anchor="start" dominant-baseline="alphabetic" fill-opacity="1">A</text><text fill="none" stroke="rgb(255,255,255)" font-family="geogebra-sans-serif, sans-serif" font-size="16px" font-style="normal" font-weight="normal" text-decoration="normal" x="705" y="493" text-anchor="start" dominant-baseline="alphabetic" stroke-opacity="1" stroke-linejoin="bevel" stroke-miterlimit="10" stroke-width="3">A</text><text fill="rgb(21,101,192)" stroke="none" font-family="geogebra-sans-serif, sans-serif" font-size="16px" font-style="normal" font-weight="normal" text-decoration="normal" x="705" y="493" text-anchor="start" dominant-baseline="alphabetic" fill-opacity="1">A</text><path fill="rgb(21,101,192)" stroke="none" paint-order="stroke fill markers" d=" M 755.4049586776857 567.0991735537192 C 755.4049586776857 569.8605973028732 753.1663824268397 572.0991735537192 750.4049586776857 572.0991735537192 C 747.6435349285317 572.0991735537192 745.4049586776857 569.8605973028732 745.4049586776857 567.0991735537192 C 745.4049586776857 564.3377498045652 747.6435349285317 562.0991735537192 750.4049586776857 562.0991735537192 C 753.1663824268397 562.0991735537192 755.4049586776857 564.3377498045652 755.4049586776857 567.0991735537192 Z" fill-opacity="1"/><path fill="none" stroke="rgb(0,0,0)" paint-order="fill stroke markers" d=" M 755.4049586776857 567.0991735537192 C 755.4049586776857 569.8605973028732 753.1663824268397 572.0991735537192 750.4049586776857 572.0991735537192 C 747.6435349285317 572.0991735537192 745.4049586776857 569.8605973028732 745.4049586776857 567.0991735537192 C 745.4049586776857 564.3377498045652 747.6435349285317 562.0991735537192 750.4049586776857 562.0991735537192 C 753.1663824268397 562.0991735537192 755.4049586776857 564.3377498045652 755.4049586776857 567.0991735537192 Z" stroke-opacity="1" stroke-linecap="round" stroke-linejoin="round" stroke-miterlimit="10"/><text fill="rgb(21,101,192)" stroke="none" font-family="geogebra-sans-serif, sans-serif" font-size="16px" font-style="normal" font-weight="normal" text-decoration="normal" x="754" y="557" text-anchor="start" dominant-baseline="alphabetic" fill-opacity="1">C</text><text fill="none" stroke="rgb(255,255,255)" font-family="geogebra-sans-serif, sans-serif" font-size="16px" font-style="normal" font-weight="normal" text-decoration="normal" x="754" y="557" text-anchor="start" dominant-baseline="alphabetic" stroke-opacity="1" stroke-linejoin="bevel" stroke-miterlimit="10" stroke-width="3">C</text><text fill="rgb(21,101,192)" stroke="none" font-family="geogebra-sans-serif, sans-serif" font-size="16px" font-style="normal" font-weight="normal" text-decoration="normal" x="754" y="557" text-anchor="start" dominant-baseline="alphabetic" fill-opacity="1">C</text><path fill="rgb(21,101,192)" stroke="none" paint-order="stroke fill markers" d=" M 692.5950413223138 534.8677685950415 C 692.5950413223138 537.6291923441955 690.3564650714678 539.8677685950415 687.5950413223138 539.8677685950415 C 684.8336175731598 539.8677685950415 682.5950413223138 537.6291923441955 682.5950413223138 534.8677685950415 C 682.5950413223138 532.1063448458875 684.8336175731598 529.8677685950415 687.5950413223138 529.8677685950415 C 690.3564650714678 529.8677685950415 692.5950413223138 532.1063448458875 692.5950413223138 534.8677685950415 Z" fill-opacity="1"/><path fill="none" stroke="rgb(0,0,0)" paint-order="fill stroke markers" d=" M 692.5950413223138 534.8677685950415 C 692.5950413223138 537.6291923441955 690.3564650714678 539.8677685950415 687.5950413223138 539.8677685950415 C 684.8336175731598 539.8677685950415 682.5950413223138 537.6291923441955 682.5950413223138 534.8677685950415 C 682.5950413223138 532.1063448458875 684.8336175731598 529.8677685950415 687.5950413223138 529.8677685950415 C 690.3564650714678 529.8677685950415 692.5950413223138 532.1063448458875 692.5950413223138 534.8677685950415 Z" stroke-opacity="1" stroke-linecap="round" stroke-linejoin="round" stroke-miterlimit="10"/><text fill="rgb(21,101,192)" stroke="none" font-family="geogebra-sans-serif, sans-serif" font-size="16px" font-style="normal" font-weight="normal" text-decoration="normal" x="692" y="525" text-anchor="start" dominant-baseline="alphabetic" fill-opacity="1">M</text><text fill="none" stroke="rgb(255,255,255)" font-family="geogebra-sans-serif, sans-serif" font-size="16px" font-style="normal" font-weight="normal" text-decoration="normal" x="692" y="525" text-anchor="start" dominant-baseline="alphabetic" stroke-opacity="1" stroke-linejoin="bevel" stroke-miterlimit="10" stroke-width="3">M</text><text fill="rgb(21,101,192)" stroke="none" font-family="geogebra-sans-serif, sans-serif" font-size="16px" font-style="normal" font-weight="normal" text-decoration="normal" x="692" y="525" text-anchor="start" dominant-baseline="alphabetic" fill-opacity="1">M</text><path fill="rgb(97,97,97)" stroke="none" paint-order="stroke fill markers" d=" M 649.1836267716675 541.9472390481155 C 649.1836267716675 544.1563780474387 647.3927657709906 545.9472390481155 645.1836267716675 545.9472390481155 C 642.9744877723443 545.9472390481155 641.1836267716675 544.1563780474387 641.1836267716675 541.9472390481155 C 641.1836267716675 539.7381000487924 642.9744877723443 537.9472390481155 645.1836267716675 537.9472390481155 C 647.3927657709906 537.9472390481155 649.1836267716675 539.7381000487924 649.1836267716675 541.9472390481155 Z" fill-opacity="1"/><path fill="none" stroke="rgb(0,0,0)" paint-order="fill stroke markers" d=" M 649.1836267716675 541.9472390481155 C 649.1836267716675 544.1563780474387 647.3927657709906 545.9472390481155 645.1836267716675 545.9472390481155 C 642.9744877723443 545.9472390481155 641.1836267716675 544.1563780474387 641.1836267716675 541.9472390481155 C 641.1836267716675 539.7381000487924 642.9744877723443 537.9472390481155 645.1836267716675 537.9472390481155 C 647.3927657709906 537.9472390481155 649.1836267716675 539.7381000487924 649.1836267716675 541.9472390481155 Z" stroke-opacity="1" stroke-linecap="round" stroke-linejoin="round" stroke-miterlimit="10"/><text fill="rgb(97,97,97)" stroke="none" font-family="geogebra-sans-serif, sans-serif" font-size="16px" font-style="normal" font-weight="normal" text-decoration="normal" x="649" y="534" text-anchor="start" dominant-baseline="alphabetic" fill-opacity="1">D</text><text fill="none" stroke="rgb(255,255,255)" font-family="geogebra-sans-serif, sans-serif" font-size="16px" font-style="normal" font-weight="normal" text-decoration="normal" x="649" y="534" text-anchor="start" dominant-baseline="alphabetic" stroke-opacity="1" stroke-linejoin="bevel" stroke-miterlimit="10" stroke-width="3">D</text><text fill="rgb(97,97,97)" stroke="none" font-family="geogebra-sans-serif, sans-serif" font-size="16px" font-style="normal" font-weight="normal" text-decoration="normal" x="649" y="534" text-anchor="start" dominant-baseline="alphabetic" fill-opacity="1">D</text><path fill="rgb(97,97,97)" stroke="none" paint-order="stroke fill markers" d=" M 662.6322912024459 566.6483615973253 C 662.6322912024459 568.8575005966485 660.8414302017691 570.6483615973253 658.6322912024459 570.6483615973253 C 656.4231522031228 570.6483615973253 654.6322912024459 568.8575005966485 654.6322912024459 566.6483615973253 C 654.6322912024459 564.4392225980022 656.4231522031228 562.6483615973253 658.6322912024459 562.6483615973253 C 660.8414302017691 562.6483615973253 662.6322912024459 564.4392225980022 662.6322912024459 566.6483615973253 Z" fill-opacity="1"/><path fill="none" stroke="rgb(0,0,0)" paint-order="fill stroke markers" d=" M 662.6322912024459 566.6483615973253 C 662.6322912024459 568.8575005966485 660.8414302017691 570.6483615973253 658.6322912024459 570.6483615973253 C 656.4231522031228 570.6483615973253 654.6322912024459 568.8575005966485 654.6322912024459 566.6483615973253 C 654.6322912024459 564.4392225980022 656.4231522031228 562.6483615973253 658.6322912024459 562.6483615973253 C 660.8414302017691 562.6483615973253 662.6322912024459 564.4392225980022 662.6322912024459 566.6483615973253 Z" stroke-opacity="1" stroke-linecap="round" stroke-linejoin="round" stroke-miterlimit="10"/><text fill="rgb(97,97,97)" stroke="none" font-family="geogebra-sans-serif, sans-serif" font-size="16px" font-style="normal" font-weight="normal" text-decoration="normal" x="663" y="559" text-anchor="start" dominant-baseline="alphabetic" fill-opacity="1">E</text><text fill="none" stroke="rgb(255,255,255)" font-family="geogebra-sans-serif, sans-serif" font-size="16px" font-style="normal" font-weight="normal" text-decoration="normal" x="663" y="559" text-anchor="start" dominant-baseline="alphabetic" stroke-opacity="1" stroke-linejoin="bevel" stroke-miterlimit="10" stroke-width="3">E</text><text fill="rgb(97,97,97)" stroke="none" font-family="geogebra-sans-serif, sans-serif" font-size="16px" font-style="normal" font-weight="normal" text-decoration="normal" x="663" y="559" text-anchor="start" dominant-baseline="alphabetic" fill-opacity="1">E</text><path fill="rgb(97,97,97)" stroke="none" paint-order="stroke fill markers" d=" M 720.2441716526869 566.931366605808 C 720.2441716526869 569.1405056051311 718.45331065201 570.931366605808 716.2441716526869 570.931366605808 C 714.0350326533637 570.931366605808 712.2441716526869 569.1405056051311 712.2441716526869 566.931366605808 C 712.2441716526869 564.7222276064848 714.0350326533637 562.931366605808 716.2441716526869 562.931366605808 C 718.45331065201 562.931366605808 720.2441716526869 564.7222276064848 720.2441716526869 566.931366605808 Z" fill-opacity="1"/><path fill="none" stroke="rgb(0,0,0)" paint-order="fill stroke markers" d=" M 720.2441716526869 566.931366605808 C 720.2441716526869 569.1405056051311 718.45331065201 570.931366605808 716.2441716526869 570.931366605808 C 714.0350326533637 570.931366605808 712.2441716526869 569.1405056051311 712.2441716526869 566.931366605808 C 712.2441716526869 564.7222276064848 714.0350326533637 562.931366605808 716.2441716526869 562.931366605808 C 718.45331065201 562.931366605808 720.2441716526869 564.7222276064848 720.2441716526869 566.931366605808 Z" stroke-opacity="1" stroke-linecap="round" stroke-linejoin="round" stroke-miterlimit="10"/><text fill="rgb(97,97,97)" stroke="none" font-family="geogebra-sans-serif, sans-serif" font-size="16px" font-style="normal" font-weight="normal" text-decoration="normal" x="720" y="559" text-anchor="start" dominant-baseline="alphabetic" fill-opacity="1">F</text><text fill="none" stroke="rgb(255,255,255)" font-family="geogebra-sans-serif, sans-serif" font-size="16px" font-style="normal" font-weight="normal" text-decoration="normal" x="720" y="559" text-anchor="start" dominant-baseline="alphabetic" stroke-opacity="1" stroke-linejoin="bevel" stroke-miterlimit="10" stroke-width="3">F</text><text fill="rgb(97,97,97)" stroke="none" font-family="geogebra-sans-serif, sans-serif" font-size="16px" font-style="normal" font-weight="normal" text-decoration="normal" x="720" y="559" text-anchor="start" dominant-baseline="alphabetic" fill-opacity="1">F</text></g></g></svg>