<svg version="1.1" xmlns="http://www.w3.org/2000/svg" xmlns:xlink="http://www.w3.org/1999/xlink" width="853" height="858"><defs><clipPath id="TNVOCWXCFxKh"><path fill="none" stroke="none" d=" M 0 0 L 853 0 L 853 858 L 0 858 L 0 0 Z"/></clipPath></defs><g transform="scale(1,1)" clip-path="url(#TNVOCWXCFxKh)"><g transform="translate(-181,-57)"><rect fill="rgb(255,255,255)" stroke="none" x="0" y="0" width="1190" height="918" fill-opacity="1"/><path fill="none" stroke="rgb(97,97,97)" paint-order="fill stroke markers" d=" M 819.6665738660545 372.33675204930347 C 819.6665738660545 542.8714556653944 681.4208817382133 681.1171477932356 510.8861781221225 681.1171477932356 C 340.35147450603165 681.1171477932356 202.10578237819044 542.8714556653944 202.10578237819044 372.33675204930347 C 202.10578237819044 201.80204843321252 340.35147450603165 63.55635630537131 510.8861781221225 63.55635630537131 C 681.4208817382133 63.55635630537131 819.6665738660545 201.80204843321252 819.6665738660545 372.33675204930347 Z" stroke-opacity="0.8" stroke-linecap="round" stroke-linejoin="round" stroke-miterlimit="10" stroke-width="2.5"/><path fill="none" stroke="rgb(97,97,97)" paint-order="fill stroke markers" d=" M 1024.5777522304093 603.3275349327573 C 1024.5777522304093 773.8622385488482 886.332060102568 912.1079306766894 715.7973564864772 912.1079306766894 C 545.2626528703863 912.1079306766894 407.0169607425451 773.8622385488482 407.0169607425451 603.3275349327573 C 407.0169607425451 432.79283131666637 545.2626528703863 294.54713918882516 715.7973564864772 294.54713918882516 C 886.332060102568 294.54713918882516 1024.5777522304093 432.79283131666637 1024.5777522304093 603.3275349327573 Z" stroke-opacity="0.8" stroke-linecap="round" stroke-linejoin="round" stroke-miterlimit="10" stroke-width="2.5"/><path fill="none" stroke="rgb(97,97,97)" paint-order="fill stroke markers" d=" M 921.9043125515291 397.0741042032216 C 921.9043125515291 510.9847573406324 829.561482911604 603.3275869805576 715.6508297741932 603.3275869805576 C 601.7401766367824 603.3275869805576 509.3973469968573 510.9847573406324 509.3973469968573 397.0741042032216 C 509.3973469968573 283.16345106581076 601.7401766367824 190.82062142588563 715.6508297741932 190.82062142588563 C 829.561482911604 190.82062142588563 921.9043125515291 283.16345106581076 921.9043125515291 397.0741042032216 Z" stroke-opacity="0.8" stroke-linecap="round" stroke-linejoin="round" stroke-miterlimit="10" stroke-width="2.5"/><path fill="none" stroke="rgb(97,97,97)" paint-order="fill stroke markers" d=" M -5 603.839604315048 L 1195 602.9870994421889" stroke-opacity="0.8" stroke-linecap="round" stroke-linejoin="round" stroke-miterlimit="10" stroke-width="2.5"/><path fill="none" stroke="rgb(97,97,97)" paint-order="fill stroke markers" d=" M 306.3034077083745 603.6184479217071 L 840.2407514435138 0" stroke-opacity="0.8" stroke-linecap="round" stroke-linejoin="round" stroke-miterlimit="10" stroke-width="2.5"/><path fill="none" stroke="rgb(97,97,97)" paint-order="fill stroke markers" d=" M 715.4689485358705 141.0550561769 L 715.7973564864772 603.3275349327573" stroke-opacity="0.8" stroke-linecap="round" stroke-linejoin="round" stroke-miterlimit="10" stroke-width="2.5"/><path fill="none" stroke="rgb(97,97,97)" paint-order="fill stroke markers" d=" M 413.29788128717314 665.2904294739658 L 813.3856533214265 310.37385750809494" stroke-opacity="0.8" stroke-linecap="round" stroke-linejoin="round" stroke-miterlimit="10" stroke-width="2.5"/><path fill="rgb(21,101,192)" stroke="none" paint-order="stroke fill markers" d=" M 720.7973564864772 603.3275349327573 C 720.7973564864772 606.0889586819113 718.5587802356312 608.3275349327573 715.7973564864772 608.3275349327573 C 713.0359327373232 608.3275349327573 710.7973564864772 606.0889586819113 710.7973564864772 603.3275349327573 C 710.7973564864772 600.5661111836033 713.0359327373232 598.3275349327573 715.7973564864772 598.3275349327573 C 718.5587802356312 598.3275349327573 720.7973564864772 600.5661111836033 720.7973564864772 603.3275349327573 Z" fill-opacity="1"/><path fill="none" stroke="rgb(0,0,0)" paint-order="fill stroke markers" d=" M 720.7973564864772 603.3275349327573 C 720.7973564864772 606.0889586819113 718.5587802356312 608.3275349327573 715.7973564864772 608.3275349327573 C 713.0359327373232 608.3275349327573 710.7973564864772 606.0889586819113 710.7973564864772 603.3275349327573 C 710.7973564864772 600.5661111836033 713.0359327373232 598.3275349327573 715.7973564864772 598.3275349327573 C 718.5587802356312 598.3275349327573 720.7973564864772 600.5661111836033 720.7973564864772 603.3275349327573 Z" stroke-opacity="1" stroke-linecap="round" stroke-linejoin="round" stroke-miterlimit="10"/><text fill="rgb(21,101,192)" stroke="none" font-family="geogebra-sans-serif, sans-serif" font-size="16px" font-style="normal" font-weight="normal" text-decoration="normal" x="720" y="593" text-anchor="start" dominant-baseline="alphabetic" fill-opacity="1">B</text><text fill="none" stroke="rgb(255,255,255)" font-family="geogebra-sans-serif, sans-serif" font-size="16px" font-style="normal" font-weight="normal" text-decoration="normal" x="720" y="593" text-anchor="start" dominant-baseline="alphabetic" stroke-opacity="1" stroke-linejoin="bevel" stroke-miterlimit="10" stroke-width="3">B</text><text fill="rgb(21,101,192)" stroke="none" font-family="geogebra-sans-serif, sans-serif" font-size="16px" font-style="normal" font-weight="normal" text-decoration="normal" x="720" y="593" text-anchor="start" dominant-baseline="alphabetic" fill-opacity="1">B</text><path fill="rgb(21,101,192)" stroke="none" paint-order="stroke fill markers" d=" M 515.8861781221225 372.33675204930347 C 515.8861781221225 375.0981757984574 513.6476018712765 377.33675204930347 510.8861781221225 377.33675204930347 C 508.12475437296854 377.33675204930347 505.8861781221225 375.0981757984574 505.8861781221225 372.33675204930347 C 505.8861781221225 369.5753283001495 508.12475437296854 367.33675204930347 510.8861781221225 367.33675204930347 C 513.6476018712765 367.33675204930347 515.8861781221225 369.5753283001495 515.8861781221225 372.33675204930347 Z" fill-opacity="1"/><path fill="none" stroke="rgb(0,0,0)" paint-order="fill stroke markers" d=" M 515.8861781221225 372.33675204930347 C 515.8861781221225 375.0981757984574 513.6476018712765 377.33675204930347 510.8861781221225 377.33675204930347 C 508.12475437296854 377.33675204930347 505.8861781221225 375.0981757984574 505.8861781221225 372.33675204930347 C 505.8861781221225 369.5753283001495 508.12475437296854 367.33675204930347 510.8861781221225 367.33675204930347 C 513.6476018712765 367.33675204930347 515.8861781221225 369.5753283001495 515.8861781221225 372.33675204930347 Z" stroke-opacity="1" stroke-linecap="round" stroke-linejoin="round" stroke-miterlimit="10"/><text fill="rgb(21,101,192)" stroke="none" font-family="geogebra-sans-serif, sans-serif" font-size="16px" font-style="normal" font-weight="normal" text-decoration="normal" x="515" y="362" text-anchor="start" dominant-baseline="alphabetic" fill-opacity="1">A</text><text fill="none" stroke="rgb(255,255,255)" font-family="geogebra-sans-serif, sans-serif" font-size="16px" font-style="normal" font-weight="normal" text-decoration="normal" x="515" y="362" text-anchor="start" dominant-baseline="alphabetic" stroke-opacity="1" stroke-linejoin="bevel" stroke-miterlimit="10" stroke-width="3">A</text><text fill="rgb(21,101,192)" stroke="none" font-family="geogebra-sans-serif, sans-serif" font-size="16px" font-style="normal" font-weight="normal" text-decoration="normal" x="515" y="362" text-anchor="start" dominant-baseline="alphabetic" fill-opacity="1">A</text><path fill="rgb(21,101,192)" stroke="none" paint-order="stroke fill markers" d=" M 311.3034077083745 603.6184479217071 C 311.3034077083745 606.3798716708611 309.06483145752844 608.6184479217071 306.3034077083745 608.6184479217071 C 303.54198395922054 608.6184479217071 301.3034077083745 606.3798716708611 301.3034077083745 603.6184479217071 C 301.3034077083745 600.8570241725531 303.54198395922054 598.6184479217071 306.3034077083745 598.6184479217071 C 309.06483145752844 598.6184479217071 311.3034077083745 600.8570241725531 311.3034077083745 603.6184479217071 Z" fill-opacity="1"/><path fill="none" stroke="rgb(0,0,0)" paint-order="fill stroke markers" d=" M 311.3034077083745 603.6184479217071 C 311.3034077083745 606.3798716708611 309.06483145752844 608.6184479217071 306.3034077083745 608.6184479217071 C 303.54198395922054 608.6184479217071 301.3034077083745 606.3798716708611 301.3034077083745 603.6184479217071 C 301.3034077083745 600.8570241725531 303.54198395922054 598.6184479217071 306.3034077083745 598.6184479217071 C 309.06483145752844 598.6184479217071 311.3034077083745 600.8570241725531 311.3034077083745 603.6184479217071 Z" stroke-opacity="1" stroke-linecap="round" stroke-linejoin="round" stroke-miterlimit="10"/><text fill="rgb(21,101,192)" stroke="none" font-family="geogebra-sans-serif, sans-serif" font-size="16px" font-style="normal" font-weight="normal" text-decoration="normal" x="310" y="594" text-anchor="start" dominant-baseline="alphabetic" fill-opacity="1">C</text><text fill="none" stroke="rgb(255,255,255)" font-family="geogebra-sans-serif, sans-serif" font-size="16px" font-style="normal" font-weight="normal" text-decoration="normal" x="310" y="594" text-anchor="start" dominant-baseline="alphabetic" stroke-opacity="1" stroke-linejoin="bevel" stroke-miterlimit="10" stroke-width="3">C</text><text fill="rgb(21,101,192)" stroke="none" font-family="geogebra-sans-serif, sans-serif" font-size="16px" font-style="normal" font-weight="normal" text-decoration="normal" x="310" y="594" text-anchor="start" dominant-baseline="alphabetic" fill-opacity="1">C</text><path fill="rgb(97,97,97)" stroke="none" paint-order="stroke fill markers" d=" M 719.4689485358705 141.0550561769 C 719.4689485358705 143.26419517622315 717.6780875351936 145.0550561769 715.4689485358705 145.0550561769 C 713.2598095365473 145.0550561769 711.4689485358705 143.26419517622315 711.4689485358705 141.0550561769 C 711.4689485358705 138.8459171775768 713.2598095365473 137.0550561769 715.4689485358705 137.0550561769 C 717.6780875351936 137.0550561769 719.4689485358705 138.8459171775768 719.4689485358705 141.0550561769 Z" fill-opacity="1"/><path fill="none" stroke="rgb(0,0,0)" paint-order="fill stroke markers" d=" M 719.4689485358705 141.0550561769 C 719.4689485358705 143.26419517622315 717.6780875351936 145.0550561769 715.4689485358705 145.0550561769 C 713.2598095365473 145.0550561769 711.4689485358705 143.26419517622315 711.4689485358705 141.0550561769 C 711.4689485358705 138.8459171775768 713.2598095365473 137.0550561769 715.4689485358705 137.0550561769 C 717.6780875351936 137.0550561769 719.4689485358705 138.8459171775768 719.4689485358705 141.0550561769 Z" stroke-opacity="1" stroke-linecap="round" stroke-linejoin="round" stroke-miterlimit="10"/><text fill="rgb(97,97,97)" stroke="none" font-family="geogebra-sans-serif, sans-serif" font-size="16px" font-style="normal" font-weight="normal" text-decoration="normal" x="719" y="133" text-anchor="start" dominant-baseline="alphabetic" fill-opacity="1">D</text><text fill="none" stroke="rgb(255,255,255)" font-family="geogebra-sans-serif, sans-serif" font-size="16px" font-style="normal" font-weight="normal" text-decoration="normal" x="719" y="133" text-anchor="start" dominant-baseline="alphabetic" stroke-opacity="1" stroke-linejoin="bevel" stroke-miterlimit="10" stroke-width="3">D</text><text fill="rgb(97,97,97)" stroke="none" font-family="geogebra-sans-serif, sans-serif" font-size="16px" font-style="normal" font-weight="normal" text-decoration="normal" x="719" y="133" text-anchor="start" dominant-baseline="alphabetic" fill-opacity="1">D</text><path fill="rgb(97,97,97)" stroke="none" paint-order="stroke fill markers" d=" M 417.29788128717314 665.2904294739658 C 417.29788128717314 667.499568473289 415.5070202864963 669.2904294739658 413.29788128717314 669.2904294739658 C 411.08874228785 669.2904294739658 409.29788128717314 667.499568473289 409.29788128717314 665.2904294739658 C 409.29788128717314 663.0812904746426 411.08874228785 661.2904294739658 413.29788128717314 661.2904294739658 C 415.5070202864963 661.2904294739658 417.29788128717314 663.0812904746426 417.29788128717314 665.2904294739658 Z" fill-opacity="1"/><path fill="none" stroke="rgb(0,0,0)" paint-order="fill stroke markers" d=" M 417.29788128717314 665.2904294739658 C 417.29788128717314 667.499568473289 415.5070202864963 669.2904294739658 413.29788128717314 669.2904294739658 C 411.08874228785 669.2904294739658 409.29788128717314 667.499568473289 409.29788128717314 665.2904294739658 C 409.29788128717314 663.0812904746426 411.08874228785 661.2904294739658 413.29788128717314 661.2904294739658 C 415.5070202864963 661.2904294739658 417.29788128717314 663.0812904746426 417.29788128717314 665.2904294739658 Z" stroke-opacity="1" stroke-linecap="round" stroke-linejoin="round" stroke-miterlimit="10"/><text fill="rgb(97,97,97)" stroke="none" font-family="geogebra-sans-serif, sans-serif" font-size="16px" font-style="normal" font-weight="normal" text-decoration="normal" x="417" y="657" text-anchor="start" dominant-baseline="alphabetic" fill-opacity="1">E</text><text fill="none" stroke="rgb(255,255,255)" font-family="geogebra-sans-serif, sans-serif" font-size="16px" font-style="normal" font-weight="normal" text-decoration="normal" x="417" y="657" text-anchor="start" dominant-baseline="alphabetic" stroke-opacity="1" stroke-linejoin="bevel" stroke-miterlimit="10" stroke-width="3">E</text><text fill="rgb(97,97,97)" stroke="none" font-family="geogebra-sans-serif, sans-serif" font-size="16px" font-style="normal" font-weight="normal" text-decoration="normal" x="417" y="657" text-anchor="start" dominant-baseline="alphabetic" fill-opacity="1">E</text><path fill="rgb(97,97,97)" stroke="none" paint-order="stroke fill markers" d=" M 817.3856533214265 310.37385750809494 C 817.3856533214265 312.5829965074181 815.5947923207497 314.37385750809494 813.3856533214265 314.37385750809494 C 811.1765143221033 314.37385750809494 809.3856533214265 312.5829965074181 809.3856533214265 310.37385750809494 C 809.3856533214265 308.1647185087718 811.1765143221033 306.37385750809494 813.3856533214265 306.37385750809494 C 815.5947923207497 306.37385750809494 817.3856533214265 308.1647185087718 817.3856533214265 310.37385750809494 Z" fill-opacity="1"/><path fill="none" stroke="rgb(0,0,0)" paint-order="fill stroke markers" d=" M 817.3856533214265 310.37385750809494 C 817.3856533214265 312.5829965074181 815.5947923207497 314.37385750809494 813.3856533214265 314.37385750809494 C 811.1765143221033 314.37385750809494 809.3856533214265 312.5829965074181 809.3856533214265 310.37385750809494 C 809.3856533214265 308.1647185087718 811.1765143221033 306.37385750809494 813.3856533214265 306.37385750809494 C 815.5947923207497 306.37385750809494 817.3856533214265 308.1647185087718 817.3856533214265 310.37385750809494 Z" stroke-opacity="1" stroke-linecap="round" stroke-linejoin="round" stroke-miterlimit="10"/><text fill="rgb(97,97,97)" stroke="none" font-family="geogebra-sans-serif, sans-serif" font-size="16px" font-style="normal" font-weight="normal" text-decoration="normal" x="817" y="302" text-anchor="start" dominant-baseline="alphabetic" fill-opacity="1">F</text><text fill="none" stroke="rgb(255,255,255)" font-family="geogebra-sans-serif, sans-serif" font-size="16px" font-style="normal" font-weight="normal" text-decoration="normal" x="817" y="302" text-anchor="start" dominant-baseline="alphabetic" stroke-opacity="1" stroke-linejoin="bevel" stroke-miterlimit="10" stroke-width="3">F</text><text fill="rgb(97,97,97)" stroke="none" font-family="geogebra-sans-serif, sans-serif" font-size="16px" font-style="normal" font-weight="normal" text-decoration="normal" x="817" y="302" text-anchor="start" dominant-baseline="alphabetic" fill-opacity="1">F</text><path fill="rgb(97,97,97)" stroke="none" paint-order="stroke fill markers" d=" M 719.6508297741932 397.0741042032216 C 719.6508297741932 399.2832432025448 717.8599687735164 401.0741042032216 715.6508297741932 401.0741042032216 C 713.44169077487 401.0741042032216 711.6508297741932 399.2832432025448 711.6508297741932 397.0741042032216 C 711.6508297741932 394.86496520389846 713.44169077487 393.0741042032216 715.6508297741932 393.0741042032216 C 717.8599687735164 393.0741042032216 719.6508297741932 394.86496520389846 719.6508297741932 397.0741042032216 Z" fill-opacity="1"/><path fill="none" stroke="rgb(0,0,0)" paint-order="fill stroke markers" d=" M 719.6508297741932 397.0741042032216 C 719.6508297741932 399.2832432025448 717.8599687735164 401.0741042032216 715.6508297741932 401.0741042032216 C 713.44169077487 401.0741042032216 711.6508297741932 399.2832432025448 711.6508297741932 397.0741042032216 C 711.6508297741932 394.86496520389846 713.44169077487 393.0741042032216 715.6508297741932 393.0741042032216 C 717.8599687735164 393.0741042032216 719.6508297741932 394.86496520389846 719.6508297741932 397.0741042032216 Z" stroke-opacity="1" stroke-linecap="round" stroke-linejoin="round" stroke-miterlimit="10"/><text fill="rgb(97,97,97)" stroke="none" font-family="geogebra-sans-serif, sans-serif" font-size="16px" font-style="normal" font-weight="normal" text-decoration="normal" x="720" y="389" text-anchor="start" dominant-baseline="alphabetic" fill-opacity="1">G</text><text fill="none" stroke="rgb(255,255,255)" font-family="geogebra-sans-serif, sans-serif" font-size="16px" font-style="normal" font-weight="normal" text-decoration="normal" x="720" y="389" text-anchor="start" dominant-baseline="alphabetic" stroke-opacity="1" stroke-linejoin="bevel" stroke-miterlimit="10" stroke-width="3">G</text><text fill="rgb(97,97,97)" stroke="none" font-family="geogebra-sans-serif, sans-serif" font-size="16px" font-style="normal" font-weight="normal" text-decoration="normal" x="720" y="389" text-anchor="start" dominant-baseline="alphabetic" fill-opacity="1">G</text></g></g></svg>