<svg version="1.1" xmlns="http://www.w3.org/2000/svg" xmlns:xlink="http://www.w3.org/1999/xlink" width="75" height="79"><defs><clipPath id="FoGgglvINBqb"><path fill="none" stroke="none" d=" M 0 0 L 75 0 L 75 79 L 0 79 L 0 0 Z"/></clipPath></defs><g transform="scale(1,1)" clip-path="url(#FoGgglvINBqb)"><g transform="translate(-549,-407)"><rect fill="rgb(255,255,255)" stroke="none" x="0" y="0" width="1190" height="918" fill-opacity="1"/><path fill="none" stroke="rgb(97,97,97)" paint-order="fill stroke markers" d=" M 618.3678092887573 447.0811575752577 C 618.3678092887573 463.3627313126481 605.1689859259586 476.56155467544687 588.8874121885682 476.56155467544687 C 572.6058384511779 476.56155467544687 559.4070150883791 463.3627313126481 559.4070150883791 447.0811575752577 C 559.4070150883791 430.79958383786726 572.6058384511779 417.6007604750685 588.8874121885682 417.6007604750685 C 605.1689859259586 417.6007604750685 618.3678092887573 430.79958383786726 618.3678092887573 447.0811575752577 Z" stroke-opacity="0.8" stroke-linecap="round" stroke-linejoin="round" stroke-miterlimit="10" stroke-width="2.5"/><path fill="none" stroke="rgb(97,97,97)" paint-order="fill stroke markers" d=" M 52.39708072795224 923 L 1098.5061716370378 -5" stroke-opacity="0.8" stroke-linecap="round" stroke-linejoin="round" stroke-miterlimit="10" stroke-width="2.5"/><path fill="none" stroke="rgb(97,97,97)" paint-order="fill stroke markers" d=" M -5 478.67150539769835 L 1195 474.40854647711956" stroke-opacity="0.8" stroke-linecap="round" stroke-linejoin="round" stroke-miterlimit="10" stroke-width="2.5"/><path fill="none" stroke="rgb(97,97,97)" paint-order="fill stroke markers" d=" M 588.9921396292399 476.5613686557098 L 587.2991716811448 5.684341886080802e-14" stroke-opacity="0.8" stroke-linecap="round" stroke-linejoin="round" stroke-miterlimit="10" stroke-width="2.5"/><path fill="rgb(21,101,192)" stroke="none" paint-order="stroke fill markers" d=" M 593.9921396292399 476.5613686557098 C 593.9921396292399 479.3227924048638 591.7535633783939 481.5613686557098 588.9921396292399 481.5613686557098 C 586.2307158800859 481.5613686557098 583.9921396292399 479.3227924048638 583.9921396292399 476.5613686557098 C 583.9921396292399 473.7999449065559 586.2307158800859 471.5613686557098 588.9921396292399 471.5613686557098 C 591.7535633783939 471.5613686557098 593.9921396292399 473.7999449065559 593.9921396292399 476.5613686557098 Z" fill-opacity="1"/><path fill="none" stroke="rgb(0,0,0)" paint-order="fill stroke markers" d=" M 593.9921396292399 476.5613686557098 C 593.9921396292399 479.3227924048638 591.7535633783939 481.5613686557098 588.9921396292399 481.5613686557098 C 586.2307158800859 481.5613686557098 583.9921396292399 479.3227924048638 583.9921396292399 476.5613686557098 C 583.9921396292399 473.7999449065559 586.2307158800859 471.5613686557098 588.9921396292399 471.5613686557098 C 591.7535633783939 471.5613686557098 593.9921396292399 473.7999449065559 593.9921396292399 476.5613686557098 Z" stroke-opacity="1" stroke-linecap="round" stroke-linejoin="round" stroke-miterlimit="10"/><text fill="rgb(21,101,192)" stroke="none" font-family="geogebra-sans-serif, sans-serif" font-size="16px" font-style="normal" font-weight="normal" text-decoration="normal" x="593" y="467" text-anchor="start" dominant-baseline="alphabetic" fill-opacity="1">B</text><text fill="none" stroke="rgb(255,255,255)" font-family="geogebra-sans-serif, sans-serif" font-size="16px" font-style="normal" font-weight="normal" text-decoration="normal" x="593" y="467" text-anchor="start" dominant-baseline="alphabetic" stroke-opacity="1" stroke-linejoin="bevel" stroke-miterlimit="10" stroke-width="3">B</text><text fill="rgb(21,101,192)" stroke="none" font-family="geogebra-sans-serif, sans-serif" font-size="16px" font-style="normal" font-weight="normal" text-decoration="normal" x="593" y="467" text-anchor="start" dominant-baseline="alphabetic" fill-opacity="1">B</text><path fill="rgb(21,101,192)" stroke="none" paint-order="stroke fill markers" d=" M 564.629984936454 443.4622124565693 C 564.629984936454 446.22363620572327 562.391408685608 448.4622124565693 559.629984936454 448.4622124565693 C 556.8685611873 448.4622124565693 554.629984936454 446.22363620572327 554.629984936454 443.4622124565693 C 554.629984936454 440.70078870741537 556.8685611873 438.4622124565693 559.629984936454 438.4622124565693 C 562.391408685608 438.4622124565693 564.629984936454 440.70078870741537 564.629984936454 443.4622124565693 Z" fill-opacity="1"/><path fill="none" stroke="rgb(0,0,0)" paint-order="fill stroke markers" d=" M 564.629984936454 443.4622124565693 C 564.629984936454 446.22363620572327 562.391408685608 448.4622124565693 559.629984936454 448.4622124565693 C 556.8685611873 448.4622124565693 554.629984936454 446.22363620572327 554.629984936454 443.4622124565693 C 554.629984936454 440.70078870741537 556.8685611873 438.4622124565693 559.629984936454 438.4622124565693 C 562.391408685608 438.4622124565693 564.629984936454 440.70078870741537 564.629984936454 443.4622124565693 Z" stroke-opacity="1" stroke-linecap="round" stroke-linejoin="round" stroke-miterlimit="10"/><text fill="rgb(21,101,192)" stroke="none" font-family="geogebra-sans-serif, sans-serif" font-size="16px" font-style="normal" font-weight="normal" text-decoration="normal" x="564" y="433" text-anchor="start" dominant-baseline="alphabetic" fill-opacity="1">A</text><text fill="none" stroke="rgb(255,255,255)" font-family="geogebra-sans-serif, sans-serif" font-size="16px" font-style="normal" font-weight="normal" text-decoration="normal" x="564" y="433" text-anchor="start" dominant-baseline="alphabetic" stroke-opacity="1" stroke-linejoin="bevel" stroke-miterlimit="10" stroke-width="3">A</text><text fill="rgb(21,101,192)" stroke="none" font-family="geogebra-sans-serif, sans-serif" font-size="16px" font-style="normal" font-weight="normal" text-decoration="normal" x="564" y="433" text-anchor="start" dominant-baseline="alphabetic" fill-opacity="1">A</text><path fill="rgb(21,101,192)" stroke="none" paint-order="stroke fill markers" d=" M 593.8874121885682 447.0811575752577 C 593.8874121885682 449.84258132441164 591.6488359377222 452.0811575752577 588.8874121885682 452.0811575752577 C 586.1259884394142 452.0811575752577 583.8874121885682 449.84258132441164 583.8874121885682 447.0811575752577 C 583.8874121885682 444.31973382610374 586.1259884394142 442.0811575752577 588.8874121885682 442.0811575752577 C 591.6488359377222 442.0811575752577 593.8874121885682 444.31973382610374 593.8874121885682 447.0811575752577 Z" fill-opacity="1"/><path fill="none" stroke="rgb(0,0,0)" paint-order="fill stroke markers" d=" M 593.8874121885682 447.0811575752577 C 593.8874121885682 449.84258132441164 591.6488359377222 452.0811575752577 588.8874121885682 452.0811575752577 C 586.1259884394142 452.0811575752577 583.8874121885682 449.84258132441164 583.8874121885682 447.0811575752577 C 583.8874121885682 444.31973382610374 586.1259884394142 442.0811575752577 588.8874121885682 442.0811575752577 C 591.6488359377222 442.0811575752577 593.8874121885682 444.31973382610374 593.8874121885682 447.0811575752577 Z" stroke-opacity="1" stroke-linecap="round" stroke-linejoin="round" stroke-miterlimit="10"/><text fill="rgb(21,101,192)" stroke="none" font-family="geogebra-sans-serif, sans-serif" font-size="16px" font-style="normal" font-weight="normal" text-decoration="normal" x="593" y="437" text-anchor="start" dominant-baseline="alphabetic" fill-opacity="1">C</text><text fill="none" stroke="rgb(255,255,255)" font-family="geogebra-sans-serif, sans-serif" font-size="16px" font-style="normal" font-weight="normal" text-decoration="normal" x="593" y="437" text-anchor="start" dominant-baseline="alphabetic" stroke-opacity="1" stroke-linejoin="bevel" stroke-miterlimit="10" stroke-width="3">C</text><text fill="rgb(21,101,192)" stroke="none" font-family="geogebra-sans-serif, sans-serif" font-size="16px" font-style="normal" font-weight="normal" text-decoration="normal" x="593" y="437" text-anchor="start" dominant-baseline="alphabetic" fill-opacity="1">C</text></g></g></svg>