<svg version="1.1" xmlns="http://www.w3.org/2000/svg" xmlns:xlink="http://www.w3.org/1999/xlink" width="283" height="129"><defs><clipPath id="EPJaTZVFBoWa"><path fill="none" stroke="none" d=" M 0 0 L 283 0 L 283 129 L 0 129 L 0 0 Z"/></clipPath></defs><g transform="scale(1,1)" clip-path="url(#EPJaTZVFBoWa)"><g transform="translate(-193,-410)"><rect fill="rgb(255,255,255)" stroke="none" x="0" y="0" width="1190" height="918" fill-opacity="1"/><path fill="none" stroke="rgb(97,97,97)" paint-order="fill stroke markers" d=" M -5 528.9218299215037 L 1195 524.1218299215036" stroke-opacity="0.8" stroke-linecap="round" stroke-linejoin="round" stroke-miterlimit="10" stroke-width="2.5"/><path fill="none" stroke="rgb(97,97,97)" paint-order="fill stroke markers" d=" M 346.6179939225138 923 L 342.90599392251374 -5" stroke-opacity="0.8" stroke-linecap="round" stroke-linejoin="round" stroke-miterlimit="10" stroke-width="2.5"/><path fill="none" stroke="rgb(97,97,97)" paint-order="fill stroke markers" d=" M 331.05210006122644 923 L 327.34010006122645 -5" stroke-opacity="0.8" stroke-linecap="round" stroke-linejoin="round" stroke-miterlimit="10" stroke-width="2.5"/><path fill="none" stroke="rgb(97,97,97)" paint-order="fill stroke markers" d=" M 282.33285490589714 439.8061934891987 L 407.03558724332663 439.3073825598489" stroke-opacity="0.8" stroke-linecap="round" stroke-linejoin="round" stroke-miterlimit="10" stroke-width="2.5"/><path fill="none" stroke="rgb(97,97,97)" paint-order="fill stroke markers" d=" M 282.33285490589714 439.8061934891987 L 208.0099226817759 528.0697902307766" stroke-opacity="0.8" stroke-linecap="round" stroke-linejoin="round" stroke-miterlimit="10" stroke-width="2.5"/><path fill="none" stroke="rgb(97,97,97)" paint-order="fill stroke markers" d=" M 407.03558724332663 439.3073825598489 L 450.93094902610176 527.0981061253993" stroke-opacity="0.8" stroke-linecap="round" stroke-linejoin="round" stroke-miterlimit="10" stroke-width="2.5"/><path fill="none" stroke="rgb(97,97,97)" paint-order="fill stroke markers" d=" M 344.6842210746118 439.5567880245238 L 329.47043585393885 527.583948178088" stroke-opacity="0.8" stroke-linecap="round" stroke-linejoin="round" stroke-miterlimit="10" stroke-width="2.5"/><path fill="rgb(21,101,192)" stroke="none" paint-order="stroke fill markers" d=" M 287.33285490589714 439.8061934891987 C 287.33285490589714 442.5676172383526 285.0942786550511 444.8061934891987 282.33285490589714 444.8061934891987 C 279.5714311567432 444.8061934891987 277.33285490589714 442.5676172383526 277.33285490589714 439.8061934891987 C 277.33285490589714 437.0447697400447 279.5714311567432 434.8061934891987 282.33285490589714 434.8061934891987 C 285.0942786550511 434.8061934891987 287.33285490589714 437.0447697400447 287.33285490589714 439.8061934891987 Z" fill-opacity="1"/><path fill="none" stroke="rgb(0,0,0)" paint-order="fill stroke markers" d=" M 287.33285490589714 439.8061934891987 C 287.33285490589714 442.5676172383526 285.0942786550511 444.8061934891987 282.33285490589714 444.8061934891987 C 279.5714311567432 444.8061934891987 277.33285490589714 442.5676172383526 277.33285490589714 439.8061934891987 C 277.33285490589714 437.0447697400447 279.5714311567432 434.8061934891987 282.33285490589714 434.8061934891987 C 285.0942786550511 434.8061934891987 287.33285490589714 437.0447697400447 287.33285490589714 439.8061934891987 Z" stroke-opacity="1" stroke-linecap="round" stroke-linejoin="round" stroke-miterlimit="10"/><text fill="rgb(21,101,192)" stroke="none" font-family="geogebra-sans-serif, sans-serif" font-size="16px" font-style="normal" font-weight="normal" text-decoration="normal" x="286" y="430" text-anchor="start" dominant-baseline="alphabetic" fill-opacity="1">A</text><text fill="none" stroke="rgb(255,255,255)" font-family="geogebra-sans-serif, sans-serif" font-size="16px" font-style="normal" font-weight="normal" text-decoration="normal" x="286" y="430" text-anchor="start" dominant-baseline="alphabetic" stroke-opacity="1" stroke-linejoin="bevel" stroke-miterlimit="10" stroke-width="3">A</text><text fill="rgb(21,101,192)" stroke="none" font-family="geogebra-sans-serif, sans-serif" font-size="16px" font-style="normal" font-weight="normal" text-decoration="normal" x="286" y="430" text-anchor="start" dominant-baseline="alphabetic" fill-opacity="1">A</text><path fill="rgb(21,101,192)" stroke="none" paint-order="stroke fill markers" d=" M 412.03558724332663 439.3073825598489 C 412.03558724332663 442.06880630900287 409.7970109924806 444.3073825598489 407.03558724332663 444.3073825598489 C 404.2741634941727 444.3073825598489 402.03558724332663 442.06880630900287 402.03558724332663 439.3073825598489 C 402.03558724332663 436.54595881069497 404.2741634941727 434.3073825598489 407.03558724332663 434.3073825598489 C 409.7970109924806 434.3073825598489 412.03558724332663 436.54595881069497 412.03558724332663 439.3073825598489 Z" fill-opacity="1"/><path fill="none" stroke="rgb(0,0,0)" paint-order="fill stroke markers" d=" M 412.03558724332663 439.3073825598489 C 412.03558724332663 442.06880630900287 409.7970109924806 444.3073825598489 407.03558724332663 444.3073825598489 C 404.2741634941727 444.3073825598489 402.03558724332663 442.06880630900287 402.03558724332663 439.3073825598489 C 402.03558724332663 436.54595881069497 404.2741634941727 434.3073825598489 407.03558724332663 434.3073825598489 C 409.7970109924806 434.3073825598489 412.03558724332663 436.54595881069497 412.03558724332663 439.3073825598489 Z" stroke-opacity="1" stroke-linecap="round" stroke-linejoin="round" stroke-miterlimit="10"/><text fill="rgb(21,101,192)" stroke="none" font-family="geogebra-sans-serif, sans-serif" font-size="16px" font-style="normal" font-weight="normal" text-decoration="normal" x="411" y="429" text-anchor="start" dominant-baseline="alphabetic" fill-opacity="1">B</text><text fill="none" stroke="rgb(255,255,255)" font-family="geogebra-sans-serif, sans-serif" font-size="16px" font-style="normal" font-weight="normal" text-decoration="normal" x="411" y="429" text-anchor="start" dominant-baseline="alphabetic" stroke-opacity="1" stroke-linejoin="bevel" stroke-miterlimit="10" stroke-width="3">B</text><text fill="rgb(21,101,192)" stroke="none" font-family="geogebra-sans-serif, sans-serif" font-size="16px" font-style="normal" font-weight="normal" text-decoration="normal" x="411" y="429" text-anchor="start" dominant-baseline="alphabetic" fill-opacity="1">B</text><path fill="rgb(21,101,192)" stroke="none" paint-order="stroke fill markers" d=" M 455.93094902610176 527.0981061253993 C 455.93094902610176 529.8595298745533 453.6923727752557 532.0981061253993 450.93094902610176 532.0981061253993 C 448.1695252769478 532.0981061253993 445.93094902610176 529.8595298745533 445.93094902610176 527.0981061253993 C 445.93094902610176 524.3366823762453 448.1695252769478 522.0981061253993 450.93094902610176 522.0981061253993 C 453.6923727752557 522.0981061253993 455.93094902610176 524.3366823762453 455.93094902610176 527.0981061253993 Z" fill-opacity="1"/><path fill="none" stroke="rgb(0,0,0)" paint-order="fill stroke markers" d=" M 455.93094902610176 527.0981061253993 C 455.93094902610176 529.8595298745533 453.6923727752557 532.0981061253993 450.93094902610176 532.0981061253993 C 448.1695252769478 532.0981061253993 445.93094902610176 529.8595298745533 445.93094902610176 527.0981061253993 C 445.93094902610176 524.3366823762453 448.1695252769478 522.0981061253993 450.93094902610176 522.0981061253993 C 453.6923727752557 522.0981061253993 455.93094902610176 524.3366823762453 455.93094902610176 527.0981061253993 Z" stroke-opacity="1" stroke-linecap="round" stroke-linejoin="round" stroke-miterlimit="10"/><text fill="rgb(21,101,192)" stroke="none" font-family="geogebra-sans-serif, sans-serif" font-size="16px" font-style="normal" font-weight="normal" text-decoration="normal" x="455" y="517" text-anchor="start" dominant-baseline="alphabetic" fill-opacity="1">C</text><text fill="none" stroke="rgb(255,255,255)" font-family="geogebra-sans-serif, sans-serif" font-size="16px" font-style="normal" font-weight="normal" text-decoration="normal" x="455" y="517" text-anchor="start" dominant-baseline="alphabetic" stroke-opacity="1" stroke-linejoin="bevel" stroke-miterlimit="10" stroke-width="3">C</text><text fill="rgb(21,101,192)" stroke="none" font-family="geogebra-sans-serif, sans-serif" font-size="16px" font-style="normal" font-weight="normal" text-decoration="normal" x="455" y="517" text-anchor="start" dominant-baseline="alphabetic" fill-opacity="1">C</text><path fill="rgb(21,101,192)" stroke="none" paint-order="stroke fill markers" d=" M 213.0099226817759 528.0697902307766 C 213.0099226817759 530.8312139799306 210.77134643092987 533.0697902307766 208.0099226817759 533.0697902307766 C 205.2484989326219 533.0697902307766 203.0099226817759 530.8312139799306 203.0099226817759 528.0697902307766 C 203.0099226817759 525.3083664816226 205.2484989326219 523.0697902307766 208.0099226817759 523.0697902307766 C 210.77134643092987 523.0697902307766 213.0099226817759 525.3083664816226 213.0099226817759 528.0697902307766 Z" fill-opacity="1"/><path fill="none" stroke="rgb(0,0,0)" paint-order="fill stroke markers" d=" M 213.0099226817759 528.0697902307766 C 213.0099226817759 530.8312139799306 210.77134643092987 533.0697902307766 208.0099226817759 533.0697902307766 C 205.2484989326219 533.0697902307766 203.0099226817759 530.8312139799306 203.0099226817759 528.0697902307766 C 203.0099226817759 525.3083664816226 205.2484989326219 523.0697902307766 208.0099226817759 523.0697902307766 C 210.77134643092987 523.0697902307766 213.0099226817759 525.3083664816226 213.0099226817759 528.0697902307766 Z" stroke-opacity="1" stroke-linecap="round" stroke-linejoin="round" stroke-miterlimit="10"/><text fill="rgb(21,101,192)" stroke="none" font-family="geogebra-sans-serif, sans-serif" font-size="16px" font-style="normal" font-weight="normal" text-decoration="normal" x="212" y="518" text-anchor="start" dominant-baseline="alphabetic" fill-opacity="1">D</text><text fill="none" stroke="rgb(255,255,255)" font-family="geogebra-sans-serif, sans-serif" font-size="16px" font-style="normal" font-weight="normal" text-decoration="normal" x="212" y="518" text-anchor="start" dominant-baseline="alphabetic" stroke-opacity="1" stroke-linejoin="bevel" stroke-miterlimit="10" stroke-width="3">D</text><text fill="rgb(21,101,192)" stroke="none" font-family="geogebra-sans-serif, sans-serif" font-size="16px" font-style="normal" font-weight="normal" text-decoration="normal" x="212" y="518" text-anchor="start" dominant-baseline="alphabetic" fill-opacity="1">D</text><path fill="rgb(97,97,97)" stroke="none" paint-order="stroke fill markers" d=" M 348.6842210746118 439.5567880245238 C 348.6842210746118 441.765927023847 346.89336007393496 443.5567880245238 344.6842210746118 443.5567880245238 C 342.47508207528864 443.5567880245238 340.6842210746118 441.765927023847 340.6842210746118 439.5567880245238 C 340.6842210746118 437.34764902520067 342.47508207528864 435.5567880245238 344.6842210746118 435.5567880245238 C 346.89336007393496 435.5567880245238 348.6842210746118 437.34764902520067 348.6842210746118 439.5567880245238 Z" fill-opacity="1"/><path fill="none" stroke="rgb(0,0,0)" paint-order="fill stroke markers" d=" M 348.6842210746118 439.5567880245238 C 348.6842210746118 441.765927023847 346.89336007393496 443.5567880245238 344.6842210746118 443.5567880245238 C 342.47508207528864 443.5567880245238 340.6842210746118 441.765927023847 340.6842210746118 439.5567880245238 C 340.6842210746118 437.34764902520067 342.47508207528864 435.5567880245238 344.6842210746118 435.5567880245238 C 346.89336007393496 435.5567880245238 348.6842210746118 437.34764902520067 348.6842210746118 439.5567880245238 Z" stroke-opacity="1" stroke-linecap="round" stroke-linejoin="round" stroke-miterlimit="10"/><text fill="rgb(97,97,97)" stroke="none" font-family="geogebra-sans-serif, sans-serif" font-size="16px" font-style="normal" font-weight="normal" text-decoration="normal" x="349" y="432" text-anchor="start" dominant-baseline="alphabetic" fill-opacity="1">E</text><text fill="none" stroke="rgb(255,255,255)" font-family="geogebra-sans-serif, sans-serif" font-size="16px" font-style="normal" font-weight="normal" text-decoration="normal" x="349" y="432" text-anchor="start" dominant-baseline="alphabetic" stroke-opacity="1" stroke-linejoin="bevel" stroke-miterlimit="10" stroke-width="3">E</text><text fill="rgb(97,97,97)" stroke="none" font-family="geogebra-sans-serif, sans-serif" font-size="16px" font-style="normal" font-weight="normal" text-decoration="normal" x="349" y="432" text-anchor="start" dominant-baseline="alphabetic" fill-opacity="1">E</text><path fill="rgb(97,97,97)" stroke="none" paint-order="stroke fill markers" d=" M 333.47043585393885 527.583948178088 C 333.47043585393885 529.7930871774112 331.679574853262 531.583948178088 329.47043585393885 531.583948178088 C 327.2612968546157 531.583948178088 325.47043585393885 529.7930871774112 325.47043585393885 527.583948178088 C 325.47043585393885 525.3748091787648 327.2612968546157 523.583948178088 329.47043585393885 523.583948178088 C 331.679574853262 523.583948178088 333.47043585393885 525.3748091787648 333.47043585393885 527.583948178088 Z" fill-opacity="1"/><path fill="none" stroke="rgb(0,0,0)" paint-order="fill stroke markers" d=" M 333.47043585393885 527.583948178088 C 333.47043585393885 529.7930871774112 331.679574853262 531.583948178088 329.47043585393885 531.583948178088 C 327.2612968546157 531.583948178088 325.47043585393885 529.7930871774112 325.47043585393885 527.583948178088 C 325.47043585393885 525.3748091787648 327.2612968546157 523.583948178088 329.47043585393885 523.583948178088 C 331.679574853262 523.583948178088 333.47043585393885 525.3748091787648 333.47043585393885 527.583948178088 Z" stroke-opacity="1" stroke-linecap="round" stroke-linejoin="round" stroke-miterlimit="10"/><text fill="rgb(97,97,97)" stroke="none" font-family="geogebra-sans-serif, sans-serif" font-size="16px" font-style="normal" font-weight="normal" text-decoration="normal" x="333" y="520" text-anchor="start" dominant-baseline="alphabetic" fill-opacity="1">F</text><text fill="none" stroke="rgb(255,255,255)" font-family="geogebra-sans-serif, sans-serif" font-size="16px" font-style="normal" font-weight="normal" text-decoration="normal" x="333" y="520" text-anchor="start" dominant-baseline="alphabetic" stroke-opacity="1" stroke-linejoin="bevel" stroke-miterlimit="10" stroke-width="3">F</text><text fill="rgb(97,97,97)" stroke="none" font-family="geogebra-sans-serif, sans-serif" font-size="16px" font-style="normal" font-weight="normal" text-decoration="normal" x="333" y="520" text-anchor="start" dominant-baseline="alphabetic" fill-opacity="1">F</text></g></g></svg>