<svg version="1.1" xmlns="http://www.w3.org/2000/svg" xmlns:xlink="http://www.w3.org/1999/xlink" width="240" height="194"><defs><clipPath id="LNOkQUSbGwVD"><path fill="none" stroke="none" d=" M 0 0 L 240 0 L 240 194 L 0 194 L 0 0 Z"/></clipPath></defs><g transform="scale(1,1)" clip-path="url(#LNOkQUSbGwVD)"><g transform="translate(-353,-390)"><rect fill="rgb(255,255,255)" stroke="none" x="0" y="0" width="1190" height="918" fill-opacity="1"/><path fill="none" stroke="rgb(97,97,97)" paint-order="fill stroke markers" d=" M -5 571.5018210387952 L 1195 566.7018210387952" stroke-opacity="0.8" stroke-linecap="round" stroke-linejoin="round" stroke-miterlimit="10" stroke-width="2.5"/><path fill="none" stroke="rgb(97,97,97)" paint-order="fill stroke markers" d=" M 429.8681549045367 496.21390724897526 L 534.1318450954642 495.7968524882115" stroke-opacity="0.8" stroke-linecap="round" stroke-linejoin="round" stroke-miterlimit="10" stroke-width="2.5"/><path fill="none" stroke="rgb(97,97,97)" paint-order="fill stroke markers" d=" M 429.8681549045367 496.21390724897526 L 367.72690880474164 570.0109134035762" stroke-opacity="0.8" stroke-linecap="round" stroke-linejoin="round" stroke-miterlimit="10" stroke-width="2.5"/><path fill="none" stroke="rgb(97,97,97)" paint-order="fill stroke markers" d=" M 534.1318450954642 495.7968524882115 L 570.8326640426707 569.1984903826245" stroke-opacity="0.8" stroke-linecap="round" stroke-linejoin="round" stroke-miterlimit="10" stroke-width="2.5"/><path fill="none" stroke="rgb(97,97,97)" paint-order="fill stroke markers" d=" M 367.72690880474164 570.0109134035762 L 847.7082833224968 0" stroke-opacity="0.8" stroke-linecap="round" stroke-linejoin="round" stroke-miterlimit="10" stroke-width="2.5"/><path fill="none" stroke="rgb(97,97,97)" paint-order="fill stroke markers" d=" M 570.8326640426707 569.1984903826245 L 286.23341885135835 0" stroke-opacity="0.8" stroke-linecap="round" stroke-linejoin="round" stroke-miterlimit="10" stroke-width="2.5"/><path fill="none" stroke="rgb(97,97,97)" paint-order="fill stroke markers" d=" M 429.8681549045367 496.21390724897526 L 570.8326640426707 569.1984903826245" stroke-opacity="0.8" stroke-linecap="round" stroke-linejoin="round" stroke-miterlimit="10" stroke-width="2.5"/><path fill="none" stroke="rgb(97,97,97)" paint-order="fill stroke markers" d=" M 534.1318450954642 495.7968524882115 L 367.72690880474164 570.0109134035762" stroke-opacity="0.8" stroke-linecap="round" stroke-linejoin="round" stroke-miterlimit="10" stroke-width="2.5"/><path fill="none" stroke="rgb(97,97,97)" paint-order="fill stroke markers" d=" M 495.4179350345479 418.369032366379 L 409.0664246834874 918" stroke-opacity="0.8" stroke-linecap="round" stroke-linejoin="round" stroke-miterlimit="10" stroke-width="2.5"/><path fill="rgb(21,101,192)" stroke="none" paint-order="stroke fill markers" d=" M 434.8681549045367 496.21390724897526 C 434.8681549045367 498.9753309981292 432.62957865369066 501.21390724897526 429.8681549045367 501.21390724897526 C 427.10673115538276 501.21390724897526 424.8681549045367 498.9753309981292 424.8681549045367 496.21390724897526 C 424.8681549045367 493.4524834998213 427.10673115538276 491.21390724897526 429.8681549045367 491.21390724897526 C 432.62957865369066 491.21390724897526 434.8681549045367 493.4524834998213 434.8681549045367 496.21390724897526 Z" fill-opacity="1"/><path fill="none" stroke="rgb(0,0,0)" paint-order="fill stroke markers" d=" M 434.8681549045367 496.21390724897526 C 434.8681549045367 498.9753309981292 432.62957865369066 501.21390724897526 429.8681549045367 501.21390724897526 C 427.10673115538276 501.21390724897526 424.8681549045367 498.9753309981292 424.8681549045367 496.21390724897526 C 424.8681549045367 493.4524834998213 427.10673115538276 491.21390724897526 429.8681549045367 491.21390724897526 C 432.62957865369066 491.21390724897526 434.8681549045367 493.4524834998213 434.8681549045367 496.21390724897526 Z" stroke-opacity="1" stroke-linecap="round" stroke-linejoin="round" stroke-miterlimit="10"/><text fill="rgb(21,101,192)" stroke="none" font-family="geogebra-sans-serif, sans-serif" font-size="16px" font-style="normal" font-weight="normal" text-decoration="normal" x="434" y="486" text-anchor="start" dominant-baseline="alphabetic" fill-opacity="1">A</text><text fill="none" stroke="rgb(255,255,255)" font-family="geogebra-sans-serif, sans-serif" font-size="16px" font-style="normal" font-weight="normal" text-decoration="normal" x="434" y="486" text-anchor="start" dominant-baseline="alphabetic" stroke-opacity="1" stroke-linejoin="bevel" stroke-miterlimit="10" stroke-width="3">A</text><text fill="rgb(21,101,192)" stroke="none" font-family="geogebra-sans-serif, sans-serif" font-size="16px" font-style="normal" font-weight="normal" text-decoration="normal" x="434" y="486" text-anchor="start" dominant-baseline="alphabetic" fill-opacity="1">A</text><path fill="rgb(21,101,192)" stroke="none" paint-order="stroke fill markers" d=" M 539.1318450954642 495.7968524882115 C 539.1318450954642 498.5582762373655 536.8932688446182 500.7968524882115 534.1318450954642 500.7968524882115 C 531.3704213463102 500.7968524882115 529.1318450954642 498.5582762373655 529.1318450954642 495.7968524882115 C 529.1318450954642 493.0354287390576 531.3704213463102 490.7968524882115 534.1318450954642 490.7968524882115 C 536.8932688446182 490.7968524882115 539.1318450954642 493.0354287390576 539.1318450954642 495.7968524882115 Z" fill-opacity="1"/><path fill="none" stroke="rgb(0,0,0)" paint-order="fill stroke markers" d=" M 539.1318450954642 495.7968524882115 C 539.1318450954642 498.5582762373655 536.8932688446182 500.7968524882115 534.1318450954642 500.7968524882115 C 531.3704213463102 500.7968524882115 529.1318450954642 498.5582762373655 529.1318450954642 495.7968524882115 C 529.1318450954642 493.0354287390576 531.3704213463102 490.7968524882115 534.1318450954642 490.7968524882115 C 536.8932688446182 490.7968524882115 539.1318450954642 493.0354287390576 539.1318450954642 495.7968524882115 Z" stroke-opacity="1" stroke-linecap="round" stroke-linejoin="round" stroke-miterlimit="10"/><text fill="rgb(21,101,192)" stroke="none" font-family="geogebra-sans-serif, sans-serif" font-size="16px" font-style="normal" font-weight="normal" text-decoration="normal" x="538" y="486" text-anchor="start" dominant-baseline="alphabetic" fill-opacity="1">B</text><text fill="none" stroke="rgb(255,255,255)" font-family="geogebra-sans-serif, sans-serif" font-size="16px" font-style="normal" font-weight="normal" text-decoration="normal" x="538" y="486" text-anchor="start" dominant-baseline="alphabetic" stroke-opacity="1" stroke-linejoin="bevel" stroke-miterlimit="10" stroke-width="3">B</text><text fill="rgb(21,101,192)" stroke="none" font-family="geogebra-sans-serif, sans-serif" font-size="16px" font-style="normal" font-weight="normal" text-decoration="normal" x="538" y="486" text-anchor="start" dominant-baseline="alphabetic" fill-opacity="1">B</text><path fill="rgb(21,101,192)" stroke="none" paint-order="stroke fill markers" d=" M 575.8326640426707 569.1984903826245 C 575.8326640426707 571.9599141317785 573.5940877918247 574.1984903826245 570.8326640426707 574.1984903826245 C 568.0712402935167 574.1984903826245 565.8326640426707 571.9599141317785 565.8326640426707 569.1984903826245 C 565.8326640426707 566.4370666334705 568.0712402935167 564.1984903826245 570.8326640426707 564.1984903826245 C 573.5940877918247 564.1984903826245 575.8326640426707 566.4370666334705 575.8326640426707 569.1984903826245 Z" fill-opacity="1"/><path fill="none" stroke="rgb(0,0,0)" paint-order="fill stroke markers" d=" M 575.8326640426707 569.1984903826245 C 575.8326640426707 571.9599141317785 573.5940877918247 574.1984903826245 570.8326640426707 574.1984903826245 C 568.0712402935167 574.1984903826245 565.8326640426707 571.9599141317785 565.8326640426707 569.1984903826245 C 565.8326640426707 566.4370666334705 568.0712402935167 564.1984903826245 570.8326640426707 564.1984903826245 C 573.5940877918247 564.1984903826245 575.8326640426707 566.4370666334705 575.8326640426707 569.1984903826245 Z" stroke-opacity="1" stroke-linecap="round" stroke-linejoin="round" stroke-miterlimit="10"/><text fill="rgb(21,101,192)" stroke="none" font-family="geogebra-sans-serif, sans-serif" font-size="16px" font-style="normal" font-weight="normal" text-decoration="normal" x="575" y="559" text-anchor="start" dominant-baseline="alphabetic" fill-opacity="1">C</text><text fill="none" stroke="rgb(255,255,255)" font-family="geogebra-sans-serif, sans-serif" font-size="16px" font-style="normal" font-weight="normal" text-decoration="normal" x="575" y="559" text-anchor="start" dominant-baseline="alphabetic" stroke-opacity="1" stroke-linejoin="bevel" stroke-miterlimit="10" stroke-width="3">C</text><text fill="rgb(21,101,192)" stroke="none" font-family="geogebra-sans-serif, sans-serif" font-size="16px" font-style="normal" font-weight="normal" text-decoration="normal" x="575" y="559" text-anchor="start" dominant-baseline="alphabetic" fill-opacity="1">C</text><path fill="rgb(21,101,192)" stroke="none" paint-order="stroke fill markers" d=" M 372.72690880474164 570.0109134035762 C 372.72690880474164 572.7723371527302 370.4883325538956 575.0109134035762 367.72690880474164 575.0109134035762 C 364.9654850555877 575.0109134035762 362.72690880474164 572.7723371527302 362.72690880474164 570.0109134035762 C 362.72690880474164 567.2494896544222 364.9654850555877 565.0109134035762 367.72690880474164 565.0109134035762 C 370.4883325538956 565.0109134035762 372.72690880474164 567.2494896544222 372.72690880474164 570.0109134035762 Z" fill-opacity="1"/><path fill="none" stroke="rgb(0,0,0)" paint-order="fill stroke markers" d=" M 372.72690880474164 570.0109134035762 C 372.72690880474164 572.7723371527302 370.4883325538956 575.0109134035762 367.72690880474164 575.0109134035762 C 364.9654850555877 575.0109134035762 362.72690880474164 572.7723371527302 362.72690880474164 570.0109134035762 C 362.72690880474164 567.2494896544222 364.9654850555877 565.0109134035762 367.72690880474164 565.0109134035762 C 370.4883325538956 565.0109134035762 372.72690880474164 567.2494896544222 372.72690880474164 570.0109134035762 Z" stroke-opacity="1" stroke-linecap="round" stroke-linejoin="round" stroke-miterlimit="10"/><text fill="rgb(21,101,192)" stroke="none" font-family="geogebra-sans-serif, sans-serif" font-size="16px" font-style="normal" font-weight="normal" text-decoration="normal" x="372" y="560" text-anchor="start" dominant-baseline="alphabetic" fill-opacity="1">D</text><text fill="none" stroke="rgb(255,255,255)" font-family="geogebra-sans-serif, sans-serif" font-size="16px" font-style="normal" font-weight="normal" text-decoration="normal" x="372" y="560" text-anchor="start" dominant-baseline="alphabetic" stroke-opacity="1" stroke-linejoin="bevel" stroke-miterlimit="10" stroke-width="3">D</text><text fill="rgb(21,101,192)" stroke="none" font-family="geogebra-sans-serif, sans-serif" font-size="16px" font-style="normal" font-weight="normal" text-decoration="normal" x="372" y="560" text-anchor="start" dominant-baseline="alphabetic" fill-opacity="1">D</text><path fill="rgb(97,97,97)" stroke="none" paint-order="stroke fill markers" d=" M 499.4179350345479 418.369032366379 C 499.4179350345479 420.57817136570213 497.62707403387105 422.369032366379 495.4179350345479 422.369032366379 C 493.20879603522474 422.369032366379 491.4179350345479 420.57817136570213 491.4179350345479 418.369032366379 C 491.4179350345479 416.1598933670558 493.20879603522474 414.369032366379 495.4179350345479 414.369032366379 C 497.62707403387105 414.369032366379 499.4179350345479 416.1598933670558 499.4179350345479 418.369032366379 Z" fill-opacity="1"/><path fill="none" stroke="rgb(0,0,0)" paint-order="fill stroke markers" d=" M 499.4179350345479 418.369032366379 C 499.4179350345479 420.57817136570213 497.62707403387105 422.369032366379 495.4179350345479 422.369032366379 C 493.20879603522474 422.369032366379 491.4179350345479 420.57817136570213 491.4179350345479 418.369032366379 C 491.4179350345479 416.1598933670558 493.20879603522474 414.369032366379 495.4179350345479 414.369032366379 C 497.62707403387105 414.369032366379 499.4179350345479 416.1598933670558 499.4179350345479 418.369032366379 Z" stroke-opacity="1" stroke-linecap="round" stroke-linejoin="round" stroke-miterlimit="10"/><text fill="rgb(97,97,97)" stroke="none" font-family="geogebra-sans-serif, sans-serif" font-size="16px" font-style="normal" font-weight="normal" text-decoration="normal" x="499" y="410" text-anchor="start" dominant-baseline="alphabetic" fill-opacity="1">E</text><text fill="none" stroke="rgb(255,255,255)" font-family="geogebra-sans-serif, sans-serif" font-size="16px" font-style="normal" font-weight="normal" text-decoration="normal" x="499" y="410" text-anchor="start" dominant-baseline="alphabetic" stroke-opacity="1" stroke-linejoin="bevel" stroke-miterlimit="10" stroke-width="3">E</text><text fill="rgb(97,97,97)" stroke="none" font-family="geogebra-sans-serif, sans-serif" font-size="16px" font-style="normal" font-weight="normal" text-decoration="normal" x="499" y="410" text-anchor="start" dominant-baseline="alphabetic" fill-opacity="1">E</text><path fill="rgb(97,97,97)" stroke="none" paint-order="stroke fill markers" d=" M 481.6851390819586 520.9712215420191 C 481.6851390819586 523.1803605413422 479.89427808128175 524.9712215420191 477.6851390819586 524.9712215420191 C 475.47600008263544 524.9712215420191 473.6851390819586 523.1803605413422 473.6851390819586 520.9712215420191 C 473.6851390819586 518.7620825426959 475.47600008263544 516.9712215420191 477.6851390819586 516.9712215420191 C 479.89427808128175 516.9712215420191 481.6851390819586 518.7620825426959 481.6851390819586 520.9712215420191 Z" fill-opacity="1"/><path fill="none" stroke="rgb(0,0,0)" paint-order="fill stroke markers" d=" M 481.6851390819586 520.9712215420191 C 481.6851390819586 523.1803605413422 479.89427808128175 524.9712215420191 477.6851390819586 524.9712215420191 C 475.47600008263544 524.9712215420191 473.6851390819586 523.1803605413422 473.6851390819586 520.9712215420191 C 473.6851390819586 518.7620825426959 475.47600008263544 516.9712215420191 477.6851390819586 516.9712215420191 C 479.89427808128175 516.9712215420191 481.6851390819586 518.7620825426959 481.6851390819586 520.9712215420191 Z" stroke-opacity="1" stroke-linecap="round" stroke-linejoin="round" stroke-miterlimit="10"/><text fill="rgb(97,97,97)" stroke="none" font-family="geogebra-sans-serif, sans-serif" font-size="16px" font-style="normal" font-weight="normal" text-decoration="normal" x="482" y="513" text-anchor="start" dominant-baseline="alphabetic" fill-opacity="1">F</text><text fill="none" stroke="rgb(255,255,255)" font-family="geogebra-sans-serif, sans-serif" font-size="16px" font-style="normal" font-weight="normal" text-decoration="normal" x="482" y="513" text-anchor="start" dominant-baseline="alphabetic" stroke-opacity="1" stroke-linejoin="bevel" stroke-miterlimit="10" stroke-width="3">F</text><text fill="rgb(97,97,97)" stroke="none" font-family="geogebra-sans-serif, sans-serif" font-size="16px" font-style="normal" font-weight="normal" text-decoration="normal" x="482" y="513" text-anchor="start" dominant-baseline="alphabetic" fill-opacity="1">F</text><path fill="rgb(97,97,97)" stroke="none" paint-order="stroke fill markers" d=" M 473.2797864237061 569.6047018931004 C 473.2797864237061 571.8138408924235 471.4889254230293 573.6047018931004 469.2797864237061 573.6047018931004 C 467.07064742438297 573.6047018931004 465.2797864237061 571.8138408924235 465.2797864237061 569.6047018931004 C 465.2797864237061 567.3955628937772 467.07064742438297 565.6047018931004 469.2797864237061 565.6047018931004 C 471.4889254230293 565.6047018931004 473.2797864237061 567.3955628937772 473.2797864237061 569.6047018931004 Z" fill-opacity="1"/><path fill="none" stroke="rgb(0,0,0)" paint-order="fill stroke markers" d=" M 473.2797864237061 569.6047018931004 C 473.2797864237061 571.8138408924235 471.4889254230293 573.6047018931004 469.2797864237061 573.6047018931004 C 467.07064742438297 573.6047018931004 465.2797864237061 571.8138408924235 465.2797864237061 569.6047018931004 C 465.2797864237061 567.3955628937772 467.07064742438297 565.6047018931004 469.2797864237061 565.6047018931004 C 471.4889254230293 565.6047018931004 473.2797864237061 567.3955628937772 473.2797864237061 569.6047018931004 Z" stroke-opacity="1" stroke-linecap="round" stroke-linejoin="round" stroke-miterlimit="10"/><text fill="rgb(97,97,97)" stroke="none" font-family="geogebra-sans-serif, sans-serif" font-size="16px" font-style="normal" font-weight="normal" text-decoration="normal" x="473" y="562" text-anchor="start" dominant-baseline="alphabetic" fill-opacity="1">G</text><text fill="none" stroke="rgb(255,255,255)" font-family="geogebra-sans-serif, sans-serif" font-size="16px" font-style="normal" font-weight="normal" text-decoration="normal" x="473" y="562" text-anchor="start" dominant-baseline="alphabetic" stroke-opacity="1" stroke-linejoin="bevel" stroke-miterlimit="10" stroke-width="3">G</text><text fill="rgb(97,97,97)" stroke="none" font-family="geogebra-sans-serif, sans-serif" font-size="16px" font-style="normal" font-weight="normal" text-decoration="normal" x="473" y="562" text-anchor="start" dominant-baseline="alphabetic" fill-opacity="1">G</text><path fill="rgb(97,97,97)" stroke="none" paint-order="stroke fill markers" d=" M 486.0000000000004 496.0053798685934 C 486.0000000000004 498.2145188679166 484.20913899932356 500.0053798685934 482.0000000000004 500.0053798685934 C 479.79086100067724 500.0053798685934 478.0000000000004 498.2145188679166 478.0000000000004 496.0053798685934 C 478.0000000000004 493.79624086927026 479.79086100067724 492.0053798685934 482.0000000000004 492.0053798685934 C 484.20913899932356 492.0053798685934 486.0000000000004 493.79624086927026 486.0000000000004 496.0053798685934 Z" fill-opacity="1"/><path fill="none" stroke="rgb(0,0,0)" paint-order="fill stroke markers" d=" M 486.0000000000004 496.0053798685934 C 486.0000000000004 498.2145188679166 484.20913899932356 500.0053798685934 482.0000000000004 500.0053798685934 C 479.79086100067724 500.0053798685934 478.0000000000004 498.2145188679166 478.0000000000004 496.0053798685934 C 478.0000000000004 493.79624086927026 479.79086100067724 492.0053798685934 482.0000000000004 492.0053798685934 C 484.20913899932356 492.0053798685934 486.0000000000004 493.79624086927026 486.0000000000004 496.0053798685934 Z" stroke-opacity="1" stroke-linecap="round" stroke-linejoin="round" stroke-miterlimit="10"/><text fill="rgb(97,97,97)" stroke="none" font-family="geogebra-sans-serif, sans-serif" font-size="16px" font-style="normal" font-weight="normal" text-decoration="normal" x="486" y="488" text-anchor="start" dominant-baseline="alphabetic" fill-opacity="1">H</text><text fill="none" stroke="rgb(255,255,255)" font-family="geogebra-sans-serif, sans-serif" font-size="16px" font-style="normal" font-weight="normal" text-decoration="normal" x="486" y="488" text-anchor="start" dominant-baseline="alphabetic" stroke-opacity="1" stroke-linejoin="bevel" stroke-miterlimit="10" stroke-width="3">H</text><text fill="rgb(97,97,97)" stroke="none" font-family="geogebra-sans-serif, sans-serif" font-size="16px" font-style="normal" font-weight="normal" text-decoration="normal" x="486" y="488" text-anchor="start" dominant-baseline="alphabetic" fill-opacity="1">H</text></g></g></svg>