<svg version="1.1" xmlns="http://www.w3.org/2000/svg" xmlns:xlink="http://www.w3.org/1999/xlink" width="308" height="294"><defs><clipPath id="vsOhbqIioONr"><path fill="none" stroke="none" d=" M 0 0 L 308 0 L 308 294 L 0 294 L 0 0 Z"/></clipPath></defs><g transform="scale(1,1)" clip-path="url(#vsOhbqIioONr)"><g transform="translate(-605,-145)"><rect fill="rgb(255,255,255)" stroke="none" x="0" y="0" width="1190" height="918" fill-opacity="1"/><path fill="none" stroke="rgb(97,97,97)" paint-order="fill stroke markers" d=" M 827.9571390148778 326.7915988237696 C 827.9571390148778 383.4120305540117 782.0572101021922 429.31195946669743 725.4367783719503 429.31195946669743 C 668.8163466417082 429.31195946669743 622.9164177290226 383.4120305540117 622.9164177290226 326.7915988237696 C 622.9164177290226 270.1711670935275 668.8163466417082 224.27123818084178 725.4367783719503 224.27123818084178 C 782.0572101021922 224.27123818084178 827.9571390148778 270.1711670935275 827.9571390148778 326.7915988237696 Z" stroke-opacity="0.8" stroke-linecap="round" stroke-linejoin="round" stroke-miterlimit="10" stroke-width="2.5"/><path fill="none" stroke="rgb(97,97,97)" paint-order="fill stroke markers" d=" M 903.0297122867655 256.97374230630663 C 903.0297122867655 313.59417403654874 857.1297833740798 359.4941029492345 800.5093516438378 359.4941029492345 C 743.8889199135958 359.4941029492345 697.9889910009101 313.59417403654874 697.9889910009101 256.97374230630663 C 697.9889910009101 200.3533105760645 743.8889199135958 154.45338166337876 800.5093516438378 154.45338166337876 C 857.1297833740798 154.45338166337876 903.0297122867655 200.3533105760645 903.0297122867655 256.97374230630663 Z" stroke-opacity="0.8" stroke-linecap="round" stroke-linejoin="round" stroke-miterlimit="10" stroke-width="2.5"/><path fill="none" stroke="rgb(97,97,97)" paint-order="fill stroke markers" d=" M 622.9165991854846 326.59871043395503 L 1190 327.6656594477171" stroke-opacity="0.8" stroke-linecap="round" stroke-linejoin="round" stroke-miterlimit="10" stroke-width="2.5"/><path fill="none" stroke="rgb(97,97,97)" paint-order="fill stroke markers" d=" M 875.3186742836319 327.0735967464633 L 0 -493.1411771725526" stroke-opacity="0.8" stroke-linecap="round" stroke-linejoin="round" stroke-miterlimit="10" stroke-width="2.5"/><path fill="none" stroke="rgb(97,97,97)" paint-order="fill stroke markers" d=" M 725.7000290040436 186.87388786614997 L 725.4367783719503 326.7915988237696" stroke-opacity="0.8" stroke-linecap="round" stroke-linejoin="round" stroke-miterlimit="10" stroke-width="2.5"/><path fill="none" stroke="rgb(97,97,97)" paint-order="fill stroke markers" d=" M 622.9165991854846 326.59871043395503 L 1190 -238.35479967327683" stroke-opacity="0.8" stroke-linecap="round" stroke-linejoin="round" stroke-miterlimit="10" stroke-width="2.5"/><path fill="rgb(21,101,192)" stroke="none" paint-order="stroke fill markers" d=" M 627.9165991854846 326.59871043395503 C 627.9165991854846 329.360134183109 625.6780229346386 331.59871043395503 622.9165991854846 331.59871043395503 C 620.1551754363306 331.59871043395503 617.9165991854846 329.360134183109 617.9165991854846 326.59871043395503 C 617.9165991854846 323.8372866848011 620.1551754363306 321.59871043395503 622.9165991854846 321.59871043395503 C 625.6780229346386 321.59871043395503 627.9165991854846 323.8372866848011 627.9165991854846 326.59871043395503 Z" fill-opacity="1"/><path fill="none" stroke="rgb(0,0,0)" paint-order="fill stroke markers" d=" M 627.9165991854846 326.59871043395503 C 627.9165991854846 329.360134183109 625.6780229346386 331.59871043395503 622.9165991854846 331.59871043395503 C 620.1551754363306 331.59871043395503 617.9165991854846 329.360134183109 617.9165991854846 326.59871043395503 C 617.9165991854846 323.8372866848011 620.1551754363306 321.59871043395503 622.9165991854846 321.59871043395503 C 625.6780229346386 321.59871043395503 627.9165991854846 323.8372866848011 627.9165991854846 326.59871043395503 Z" stroke-opacity="1" stroke-linecap="round" stroke-linejoin="round" stroke-miterlimit="10"/><text fill="rgb(21,101,192)" stroke="none" font-family="geogebra-sans-serif, sans-serif" font-size="16px" font-style="normal" font-weight="normal" text-decoration="normal" x="627" y="317" text-anchor="start" dominant-baseline="alphabetic" fill-opacity="1">A</text><text fill="none" stroke="rgb(255,255,255)" font-family="geogebra-sans-serif, sans-serif" font-size="16px" font-style="normal" font-weight="normal" text-decoration="normal" x="627" y="317" text-anchor="start" dominant-baseline="alphabetic" stroke-opacity="1" stroke-linejoin="bevel" stroke-miterlimit="10" stroke-width="3">A</text><text fill="rgb(21,101,192)" stroke="none" font-family="geogebra-sans-serif, sans-serif" font-size="16px" font-style="normal" font-weight="normal" text-decoration="normal" x="627" y="317" text-anchor="start" dominant-baseline="alphabetic" fill-opacity="1">A</text><path fill="rgb(21,101,192)" stroke="none" paint-order="stroke fill markers" d=" M 730.4367783719503 326.7915988237696 C 730.4367783719503 329.55302257292357 728.1982021211043 331.7915988237696 725.4367783719503 331.7915988237696 C 722.6753546227962 331.7915988237696 720.4367783719503 329.55302257292357 720.4367783719503 326.7915988237696 C 720.4367783719503 324.03017507461567 722.6753546227962 321.7915988237696 725.4367783719503 321.7915988237696 C 728.1982021211043 321.7915988237696 730.4367783719503 324.03017507461567 730.4367783719503 326.7915988237696 Z" fill-opacity="1"/><path fill="none" stroke="rgb(0,0,0)" paint-order="fill stroke markers" d=" M 730.4367783719503 326.7915988237696 C 730.4367783719503 329.55302257292357 728.1982021211043 331.7915988237696 725.4367783719503 331.7915988237696 C 722.6753546227962 331.7915988237696 720.4367783719503 329.55302257292357 720.4367783719503 326.7915988237696 C 720.4367783719503 324.03017507461567 722.6753546227962 321.7915988237696 725.4367783719503 321.7915988237696 C 728.1982021211043 321.7915988237696 730.4367783719503 324.03017507461567 730.4367783719503 326.7915988237696 Z" stroke-opacity="1" stroke-linecap="round" stroke-linejoin="round" stroke-miterlimit="10"/><text fill="rgb(21,101,192)" stroke="none" font-family="geogebra-sans-serif, sans-serif" font-size="16px" font-style="normal" font-weight="normal" text-decoration="normal" x="729" y="317" text-anchor="start" dominant-baseline="alphabetic" fill-opacity="1">B</text><text fill="none" stroke="rgb(255,255,255)" font-family="geogebra-sans-serif, sans-serif" font-size="16px" font-style="normal" font-weight="normal" text-decoration="normal" x="729" y="317" text-anchor="start" dominant-baseline="alphabetic" stroke-opacity="1" stroke-linejoin="bevel" stroke-miterlimit="10" stroke-width="3">B</text><text fill="rgb(21,101,192)" stroke="none" font-family="geogebra-sans-serif, sans-serif" font-size="16px" font-style="normal" font-weight="normal" text-decoration="normal" x="729" y="317" text-anchor="start" dominant-baseline="alphabetic" fill-opacity="1">B</text><path fill="rgb(21,101,192)" stroke="none" paint-order="stroke fill markers" d=" M 805.5093516438378 256.97374230630663 C 805.5093516438378 259.7351660554606 803.2707753929918 261.97374230630663 800.5093516438378 261.97374230630663 C 797.7479278946838 261.97374230630663 795.5093516438378 259.7351660554606 795.5093516438378 256.97374230630663 C 795.5093516438378 254.21231855715266 797.7479278946838 251.97374230630663 800.5093516438378 251.97374230630663 C 803.2707753929918 251.97374230630663 805.5093516438378 254.21231855715266 805.5093516438378 256.97374230630663 Z" fill-opacity="1"/><path fill="none" stroke="rgb(0,0,0)" paint-order="fill stroke markers" d=" M 805.5093516438378 256.97374230630663 C 805.5093516438378 259.7351660554606 803.2707753929918 261.97374230630663 800.5093516438378 261.97374230630663 C 797.7479278946838 261.97374230630663 795.5093516438378 259.7351660554606 795.5093516438378 256.97374230630663 C 795.5093516438378 254.21231855715266 797.7479278946838 251.97374230630663 800.5093516438378 251.97374230630663 C 803.2707753929918 251.97374230630663 805.5093516438378 254.21231855715266 805.5093516438378 256.97374230630663 Z" stroke-opacity="1" stroke-linecap="round" stroke-linejoin="round" stroke-miterlimit="10"/><text fill="rgb(21,101,192)" stroke="none" font-family="geogebra-sans-serif, sans-serif" font-size="16px" font-style="normal" font-weight="normal" text-decoration="normal" x="805" y="247" text-anchor="start" dominant-baseline="alphabetic" fill-opacity="1">C</text><text fill="none" stroke="rgb(255,255,255)" font-family="geogebra-sans-serif, sans-serif" font-size="16px" font-style="normal" font-weight="normal" text-decoration="normal" x="805" y="247" text-anchor="start" dominant-baseline="alphabetic" stroke-opacity="1" stroke-linejoin="bevel" stroke-miterlimit="10" stroke-width="3">C</text><text fill="rgb(21,101,192)" stroke="none" font-family="geogebra-sans-serif, sans-serif" font-size="16px" font-style="normal" font-weight="normal" text-decoration="normal" x="805" y="247" text-anchor="start" dominant-baseline="alphabetic" fill-opacity="1">C</text><path fill="rgb(97,97,97)" stroke="none" paint-order="stroke fill markers" d=" M 879.3186742836319 327.0735967464633 C 879.3186742836319 329.28273574578645 877.5278132829551 331.0735967464633 875.3186742836319 331.0735967464633 C 873.1095352843088 331.0735967464633 871.3186742836319 329.28273574578645 871.3186742836319 327.0735967464633 C 871.3186742836319 324.86445774714014 873.1095352843088 323.0735967464633 875.3186742836319 323.0735967464633 C 877.5278132829551 323.0735967464633 879.3186742836319 324.86445774714014 879.3186742836319 327.0735967464633 Z" fill-opacity="1"/><path fill="none" stroke="rgb(0,0,0)" paint-order="fill stroke markers" d=" M 879.3186742836319 327.0735967464633 C 879.3186742836319 329.28273574578645 877.5278132829551 331.0735967464633 875.3186742836319 331.0735967464633 C 873.1095352843088 331.0735967464633 871.3186742836319 329.28273574578645 871.3186742836319 327.0735967464633 C 871.3186742836319 324.86445774714014 873.1095352843088 323.0735967464633 875.3186742836319 323.0735967464633 C 877.5278132829551 323.0735967464633 879.3186742836319 324.86445774714014 879.3186742836319 327.0735967464633 Z" stroke-opacity="1" stroke-linecap="round" stroke-linejoin="round" stroke-miterlimit="10"/><text fill="rgb(97,97,97)" stroke="none" font-family="geogebra-sans-serif, sans-serif" font-size="16px" font-style="normal" font-weight="normal" text-decoration="normal" x="879" y="319" text-anchor="start" dominant-baseline="alphabetic" fill-opacity="1">D</text><text fill="none" stroke="rgb(255,255,255)" font-family="geogebra-sans-serif, sans-serif" font-size="16px" font-style="normal" font-weight="normal" text-decoration="normal" x="879" y="319" text-anchor="start" dominant-baseline="alphabetic" stroke-opacity="1" stroke-linejoin="bevel" stroke-miterlimit="10" stroke-width="3">D</text><text fill="rgb(97,97,97)" stroke="none" font-family="geogebra-sans-serif, sans-serif" font-size="16px" font-style="normal" font-weight="normal" text-decoration="normal" x="879" y="319" text-anchor="start" dominant-baseline="alphabetic" fill-opacity="1">D</text><path fill="rgb(97,97,97)" stroke="none" paint-order="stroke fill markers" d=" M 729.7000290040436 186.87388786614997 C 729.7000290040436 189.08302686547313 727.9091680033667 190.87388786614997 725.7000290040436 190.87388786614997 C 723.4908900047204 190.87388786614997 721.7000290040436 189.08302686547313 721.7000290040436 186.87388786614997 C 721.7000290040436 184.66474886682678 723.4908900047204 182.87388786614997 725.7000290040436 182.87388786614997 C 727.9091680033667 182.87388786614997 729.7000290040436 184.66474886682678 729.7000290040436 186.87388786614997 Z" fill-opacity="1"/><path fill="none" stroke="rgb(0,0,0)" paint-order="fill stroke markers" d=" M 729.7000290040436 186.87388786614997 C 729.7000290040436 189.08302686547313 727.9091680033667 190.87388786614997 725.7000290040436 190.87388786614997 C 723.4908900047204 190.87388786614997 721.7000290040436 189.08302686547313 721.7000290040436 186.87388786614997 C 721.7000290040436 184.66474886682678 723.4908900047204 182.87388786614997 725.7000290040436 182.87388786614997 C 727.9091680033667 182.87388786614997 729.7000290040436 184.66474886682678 729.7000290040436 186.87388786614997 Z" stroke-opacity="1" stroke-linecap="round" stroke-linejoin="round" stroke-miterlimit="10"/><text fill="rgb(97,97,97)" stroke="none" font-family="geogebra-sans-serif, sans-serif" font-size="16px" font-style="normal" font-weight="normal" text-decoration="normal" x="730" y="179" text-anchor="start" dominant-baseline="alphabetic" fill-opacity="1">E</text><text fill="none" stroke="rgb(255,255,255)" font-family="geogebra-sans-serif, sans-serif" font-size="16px" font-style="normal" font-weight="normal" text-decoration="normal" x="730" y="179" text-anchor="start" dominant-baseline="alphabetic" stroke-opacity="1" stroke-linejoin="bevel" stroke-miterlimit="10" stroke-width="3">E</text><text fill="rgb(97,97,97)" stroke="none" font-family="geogebra-sans-serif, sans-serif" font-size="16px" font-style="normal" font-weight="normal" text-decoration="normal" x="730" y="179" text-anchor="start" dominant-baseline="alphabetic" fill-opacity="1">E</text><path fill="rgb(97,97,97)" stroke="none" paint-order="stroke fill markers" d=" M 729.6296667617648 224.27141963730378 C 729.6296667617648 226.48055863662694 727.838805761088 228.27141963730378 725.6296667617648 228.27141963730378 C 723.4205277624417 228.27141963730378 721.6296667617648 226.48055863662694 721.6296667617648 224.27141963730378 C 721.6296667617648 222.0622806379806 723.4205277624417 220.27141963730378 725.6296667617648 220.27141963730378 C 727.838805761088 220.27141963730378 729.6296667617648 222.0622806379806 729.6296667617648 224.27141963730378 Z" fill-opacity="1"/><path fill="none" stroke="rgb(0,0,0)" paint-order="fill stroke markers" d=" M 729.6296667617648 224.27141963730378 C 729.6296667617648 226.48055863662694 727.838805761088 228.27141963730378 725.6296667617648 228.27141963730378 C 723.4205277624417 228.27141963730378 721.6296667617648 226.48055863662694 721.6296667617648 224.27141963730378 C 721.6296667617648 222.0622806379806 723.4205277624417 220.27141963730378 725.6296667617648 220.27141963730378 C 727.838805761088 220.27141963730378 729.6296667617648 222.0622806379806 729.6296667617648 224.27141963730378 Z" stroke-opacity="1" stroke-linecap="round" stroke-linejoin="round" stroke-miterlimit="10"/><text fill="rgb(97,97,97)" stroke="none" font-family="geogebra-sans-serif, sans-serif" font-size="16px" font-style="normal" font-weight="normal" text-decoration="normal" x="730" y="216" text-anchor="start" dominant-baseline="alphabetic" fill-opacity="1">F</text><text fill="none" stroke="rgb(255,255,255)" font-family="geogebra-sans-serif, sans-serif" font-size="16px" font-style="normal" font-weight="normal" text-decoration="normal" x="730" y="216" text-anchor="start" dominant-baseline="alphabetic" stroke-opacity="1" stroke-linejoin="bevel" stroke-miterlimit="10" stroke-width="3">F</text><text fill="rgb(97,97,97)" stroke="none" font-family="geogebra-sans-serif, sans-serif" font-size="16px" font-style="normal" font-weight="normal" text-decoration="normal" x="730" y="216" text-anchor="start" dominant-baseline="alphabetic" fill-opacity="1">F</text></g></g></svg>