<svg version="1.1" xmlns="http://www.w3.org/2000/svg" xmlns:xlink="http://www.w3.org/1999/xlink" width="28" height="39"><defs><clipPath id="fyCZVSzZmbue"><path fill="none" stroke="none" d=" M 0 0 L 28 0 L 28 39 L 0 39 L 0 0 Z"/></clipPath></defs><g transform="scale(1,1)" clip-path="url(#fyCZVSzZmbue)"><g transform="translate(-97,-562)"><rect fill="rgb(255,255,255)" stroke="none" x="0" y="0" width="1190" height="918" fill-opacity="1"/><path fill="none" stroke="rgb(97,97,97)" paint-order="fill stroke markers" d=" M 105.36970837253052 923 L 107.11571025399807 -5" stroke-opacity="0.8" stroke-linecap="round" stroke-linejoin="round" stroke-miterlimit="10" stroke-width="2.5"/><path fill="none" stroke="rgb(97,97,97)" paint-order="fill stroke markers" d=" M -5 698.5830985915494 L 701.2356267672008 -5" stroke-opacity="0.8" stroke-linecap="round" stroke-linejoin="round" stroke-miterlimit="10" stroke-width="2.5"/><path fill="none" stroke="rgb(97,97,97)" paint-order="fill stroke markers" d=" M 439.7417840375588 923 L -5 476.58152686145144" stroke-opacity="0.8" stroke-linecap="round" stroke-linejoin="round" stroke-miterlimit="10" stroke-width="2.5"/><path fill="none" stroke="rgb(97,97,97)" paint-order="fill stroke markers" d=" M 106.00000000000006 588 L 1190 590.0395108184384" stroke-opacity="0.8" stroke-linecap="round" stroke-linejoin="round" stroke-miterlimit="10" stroke-width="2.5"/><path fill="rgb(21,101,192)" stroke="none" paint-order="stroke fill markers" d=" M 111.00000000000006 588 C 111.00000000000006 590.761423749154 108.76142374915402 593 106.00000000000006 593 C 103.2385762508461 593 101.00000000000006 590.761423749154 101.00000000000006 588 C 101.00000000000006 585.238576250846 103.2385762508461 583 106.00000000000006 583 C 108.76142374915402 583 111.00000000000006 585.238576250846 111.00000000000006 588 Z" fill-opacity="1"/><path fill="none" stroke="rgb(0,0,0)" paint-order="fill stroke markers" d=" M 111.00000000000006 588 C 111.00000000000006 590.761423749154 108.76142374915402 593 106.00000000000006 593 C 103.2385762508461 593 101.00000000000006 590.761423749154 101.00000000000006 588 C 101.00000000000006 585.238576250846 103.2385762508461 583 106.00000000000006 583 C 108.76142374915402 583 111.00000000000006 585.238576250846 111.00000000000006 588 Z" stroke-opacity="1" stroke-linecap="round" stroke-linejoin="round" stroke-miterlimit="10"/><text fill="rgb(21,101,192)" stroke="none" font-family="geogebra-sans-serif, sans-serif" font-size="16px" font-style="normal" font-weight="normal" text-decoration="normal" x="110" y="578" text-anchor="start" dominant-baseline="alphabetic" fill-opacity="1">A</text><text fill="none" stroke="rgb(255,255,255)" font-family="geogebra-sans-serif, sans-serif" font-size="16px" font-style="normal" font-weight="normal" text-decoration="normal" x="110" y="578" text-anchor="start" dominant-baseline="alphabetic" stroke-opacity="1" stroke-linejoin="bevel" stroke-miterlimit="10" stroke-width="3">A</text><text fill="rgb(21,101,192)" stroke="none" font-family="geogebra-sans-serif, sans-serif" font-size="16px" font-style="normal" font-weight="normal" text-decoration="normal" x="110" y="578" text-anchor="start" dominant-baseline="alphabetic" fill-opacity="1">A</text><path fill="rgb(21,101,192)" stroke="none" paint-order="stroke fill markers" d=" M 1174 590 C 1174 592.761423749154 1171.761423749154 595 1169 595 C 1166.238576250846 595 1164 592.761423749154 1164 590 C 1164 587.238576250846 1166.238576250846 585 1169 585 C 1171.761423749154 585 1174 587.238576250846 1174 590 Z" fill-opacity="1"/><path fill="none" stroke="rgb(0,0,0)" paint-order="fill stroke markers" d=" M 1174 590 C 1174 592.761423749154 1171.761423749154 595 1169 595 C 1166.238576250846 595 1164 592.761423749154 1164 590 C 1164 587.238576250846 1166.238576250846 585 1169 585 C 1171.761423749154 585 1174 587.238576250846 1174 590 Z" stroke-opacity="1" stroke-linecap="round" stroke-linejoin="round" stroke-miterlimit="10"/><text fill="rgb(21,101,192)" stroke="none" font-family="geogebra-sans-serif, sans-serif" font-size="16px" font-style="normal" font-weight="normal" text-decoration="normal" x="1173" y="580" text-anchor="start" dominant-baseline="alphabetic" fill-opacity="1">B</text><text fill="none" stroke="rgb(255,255,255)" font-family="geogebra-sans-serif, sans-serif" font-size="16px" font-style="normal" font-weight="normal" text-decoration="normal" x="1173" y="580" text-anchor="start" dominant-baseline="alphabetic" stroke-opacity="1" stroke-linejoin="bevel" stroke-miterlimit="10" stroke-width="3">B</text><text fill="rgb(21,101,192)" stroke="none" font-family="geogebra-sans-serif, sans-serif" font-size="16px" font-style="normal" font-weight="normal" text-decoration="normal" x="1173" y="580" text-anchor="start" dominant-baseline="alphabetic" fill-opacity="1">B</text></g></g></svg>