<svg version="1.1" xmlns="http://www.w3.org/2000/svg" xmlns:xlink="http://www.w3.org/1999/xlink" width="293" height="200"><defs><clipPath id="wBzdnMturKkx"><path fill="none" stroke="none" d=" M 0 0 L 293 0 L 293 200 L 0 200 L 0 0 Z"/></clipPath></defs><g transform="scale(1,1)" clip-path="url(#wBzdnMturKkx)"><g transform="translate(-653,-458)"><rect fill="rgb(255,255,255)" stroke="none" x="0" y="0" width="1190" height="918" fill-opacity="1"/><path fill="none" stroke="rgb(97,97,97)" paint-order="fill stroke markers" d=" M 844.6606526808259 559.0801926522704 C 844.6606526808259 605.845830309715 806.749612824049 643.756870166492 759.9839751666045 643.756870166492 C 713.2183375091599 643.756870166492 675.3072976523831 605.845830309715 675.3072976523831 559.0801926522704 C 675.3072976523831 512.3145549948258 713.2183375091599 474.4035151380488 759.9839751666045 474.4035151380488 C 806.749612824049 474.4035151380488 844.6606526808259 512.3145549948258 844.6606526808259 559.0801926522704 Z" stroke-opacity="0.8" stroke-linecap="round" stroke-linejoin="round" stroke-miterlimit="10" stroke-width="2.5"/><path fill="none" stroke="rgb(97,97,97)" paint-order="fill stroke markers" d=" M 929.3360636713641 558.6170636951663 C 929.3360636713641 605.3827013526109 891.4250238145871 643.2937412093879 844.6593861571426 643.2937412093879 C 797.8937484996981 643.2937412093879 759.9827086429212 605.3827013526109 759.9827086429212 558.6170636951663 C 759.9827086429212 511.85142603772164 797.8937484996981 473.9403861809447 844.6593861571426 473.9403861809447 C 891.4250238145871 473.9403861809447 929.3360636713641 511.85142603772164 929.3360636713641 558.6170636951663 Z" stroke-opacity="0.8" stroke-linecap="round" stroke-linejoin="round" stroke-miterlimit="10" stroke-width="2.5"/><path fill="none" stroke="rgb(97,97,97)" paint-order="fill stroke markers" d=" M 844.6600194189842 558.8486281737183 C 844.6600194189842 582.2314470024406 825.7044994905958 601.1869669308292 802.3216806618735 601.1869669308292 C 778.9388618331512 601.1869669308292 759.9833419047628 582.2314470024406 759.9833419047628 558.8486281737183 C 759.9833419047628 535.465809344996 778.9388618331512 516.5102894166075 802.3216806618735 516.5102894166075 C 825.7044994905958 516.5102894166075 844.6600194189842 535.465809344996 844.6600194189842 558.8486281737183 Z" stroke-opacity="0.8" stroke-linecap="round" stroke-linejoin="round" stroke-miterlimit="10" stroke-width="2.5"/><path fill="none" stroke="rgb(97,97,97)" paint-order="fill stroke markers" d=" M 759.9839751666045 559.0801926522704 L 844.6593861571426 558.6170636951663" stroke-opacity="0.8" stroke-linecap="round" stroke-linejoin="round" stroke-miterlimit="10" stroke-width="2.5"/><path fill="none" stroke="rgb(97,97,97)" paint-order="fill stroke markers" d=" M 801.9205992197932 485.51757118002416 L 802.722762103954 632.1796851674126" stroke-opacity="0.8" stroke-linecap="round" stroke-linejoin="round" stroke-miterlimit="10" stroke-width="2.5"/><path fill="none" stroke="rgb(97,97,97)" paint-order="fill stroke markers" d=" M 759.9839751666045 559.0801926522704 L 1312.9816997211155 0" stroke-opacity="0.8" stroke-linecap="round" stroke-linejoin="round" stroke-miterlimit="10" stroke-width="2.5"/><path fill="none" stroke="rgb(97,97,97)" paint-order="fill stroke markers" d=" M 802.5532451404256 601.1863336689876 L 1397.1990203288788 0" stroke-opacity="0.8" stroke-linecap="round" stroke-linejoin="round" stroke-miterlimit="10" stroke-width="2.5"/><path fill="none" stroke="rgb(97,97,97)" paint-order="fill stroke markers" d=" M 819.5310508516397 498.8781537149707 L 904.2064618421779 498.4150247578666" stroke-opacity="0.8" stroke-linecap="round" stroke-linejoin="round" stroke-miterlimit="10" stroke-width="2.5"/><path fill="rgb(21,101,192)" stroke="none" paint-order="stroke fill markers" d=" M 764.9839751666045 559.0801926522704 C 764.9839751666045 561.8416164014244 762.7453989157585 564.0801926522704 759.9839751666045 564.0801926522704 C 757.2225514174505 564.0801926522704 754.9839751666045 561.8416164014244 754.9839751666045 559.0801926522704 C 754.9839751666045 556.3187689031164 757.2225514174505 554.0801926522704 759.9839751666045 554.0801926522704 C 762.7453989157585 554.0801926522704 764.9839751666045 556.3187689031164 764.9839751666045 559.0801926522704 Z" fill-opacity="1"/><path fill="none" stroke="rgb(0,0,0)" paint-order="fill stroke markers" d=" M 764.9839751666045 559.0801926522704 C 764.9839751666045 561.8416164014244 762.7453989157585 564.0801926522704 759.9839751666045 564.0801926522704 C 757.2225514174505 564.0801926522704 754.9839751666045 561.8416164014244 754.9839751666045 559.0801926522704 C 754.9839751666045 556.3187689031164 757.2225514174505 554.0801926522704 759.9839751666045 554.0801926522704 C 762.7453989157585 554.0801926522704 764.9839751666045 556.3187689031164 764.9839751666045 559.0801926522704 Z" stroke-opacity="1" stroke-linecap="round" stroke-linejoin="round" stroke-miterlimit="10"/><text fill="rgb(21,101,192)" stroke="none" font-family="geogebra-sans-serif, sans-serif" font-size="16px" font-style="normal" font-weight="normal" text-decoration="normal" x="764" y="549" text-anchor="start" dominant-baseline="alphabetic" fill-opacity="1">A</text><text fill="none" stroke="rgb(255,255,255)" font-family="geogebra-sans-serif, sans-serif" font-size="16px" font-style="normal" font-weight="normal" text-decoration="normal" x="764" y="549" text-anchor="start" dominant-baseline="alphabetic" stroke-opacity="1" stroke-linejoin="bevel" stroke-miterlimit="10" stroke-width="3">A</text><text fill="rgb(21,101,192)" stroke="none" font-family="geogebra-sans-serif, sans-serif" font-size="16px" font-style="normal" font-weight="normal" text-decoration="normal" x="764" y="549" text-anchor="start" dominant-baseline="alphabetic" fill-opacity="1">A</text><path fill="rgb(21,101,192)" stroke="none" paint-order="stroke fill markers" d=" M 849.6593861571426 558.6170636951663 C 849.6593861571426 561.3784874443203 847.4208099062967 563.6170636951663 844.6593861571426 563.6170636951663 C 841.8979624079886 563.6170636951663 839.6593861571426 561.3784874443203 839.6593861571426 558.6170636951663 C 839.6593861571426 555.8556399460123 841.8979624079886 553.6170636951663 844.6593861571426 553.6170636951663 C 847.4208099062967 553.6170636951663 849.6593861571426 555.8556399460123 849.6593861571426 558.6170636951663 Z" fill-opacity="1"/><path fill="none" stroke="rgb(0,0,0)" paint-order="fill stroke markers" d=" M 849.6593861571426 558.6170636951663 C 849.6593861571426 561.3784874443203 847.4208099062967 563.6170636951663 844.6593861571426 563.6170636951663 C 841.8979624079886 563.6170636951663 839.6593861571426 561.3784874443203 839.6593861571426 558.6170636951663 C 839.6593861571426 555.8556399460123 841.8979624079886 553.6170636951663 844.6593861571426 553.6170636951663 C 847.4208099062967 553.6170636951663 849.6593861571426 555.8556399460123 849.6593861571426 558.6170636951663 Z" stroke-opacity="1" stroke-linecap="round" stroke-linejoin="round" stroke-miterlimit="10"/><text fill="rgb(21,101,192)" stroke="none" font-family="geogebra-sans-serif, sans-serif" font-size="16px" font-style="normal" font-weight="normal" text-decoration="normal" x="849" y="549" text-anchor="start" dominant-baseline="alphabetic" fill-opacity="1">B</text><text fill="none" stroke="rgb(255,255,255)" font-family="geogebra-sans-serif, sans-serif" font-size="16px" font-style="normal" font-weight="normal" text-decoration="normal" x="849" y="549" text-anchor="start" dominant-baseline="alphabetic" stroke-opacity="1" stroke-linejoin="bevel" stroke-miterlimit="10" stroke-width="3">B</text><text fill="rgb(21,101,192)" stroke="none" font-family="geogebra-sans-serif, sans-serif" font-size="16px" font-style="normal" font-weight="normal" text-decoration="normal" x="849" y="549" text-anchor="start" dominant-baseline="alphabetic" fill-opacity="1">B</text><path fill="rgb(97,97,97)" stroke="none" paint-order="stroke fill markers" d=" M 805.9205992197932 485.51757118002416 C 805.9205992197932 487.7267101793473 804.1297382191163 489.51757118002416 801.9205992197932 489.51757118002416 C 799.71146022047 489.51757118002416 797.9205992197932 487.7267101793473 797.9205992197932 485.51757118002416 C 797.9205992197932 483.308432180701 799.71146022047 481.51757118002416 801.9205992197932 481.51757118002416 C 804.1297382191163 481.51757118002416 805.9205992197932 483.308432180701 805.9205992197932 485.51757118002416 Z" fill-opacity="1"/><path fill="none" stroke="rgb(0,0,0)" paint-order="fill stroke markers" d=" M 805.9205992197932 485.51757118002416 C 805.9205992197932 487.7267101793473 804.1297382191163 489.51757118002416 801.9205992197932 489.51757118002416 C 799.71146022047 489.51757118002416 797.9205992197932 487.7267101793473 797.9205992197932 485.51757118002416 C 797.9205992197932 483.308432180701 799.71146022047 481.51757118002416 801.9205992197932 481.51757118002416 C 804.1297382191163 481.51757118002416 805.9205992197932 483.308432180701 805.9205992197932 485.51757118002416 Z" stroke-opacity="1" stroke-linecap="round" stroke-linejoin="round" stroke-miterlimit="10"/><text fill="rgb(97,97,97)" stroke="none" font-family="geogebra-sans-serif, sans-serif" font-size="16px" font-style="normal" font-weight="normal" text-decoration="normal" x="806" y="478" text-anchor="start" dominant-baseline="alphabetic" fill-opacity="1">C</text><text fill="none" stroke="rgb(255,255,255)" font-family="geogebra-sans-serif, sans-serif" font-size="16px" font-style="normal" font-weight="normal" text-decoration="normal" x="806" y="478" text-anchor="start" dominant-baseline="alphabetic" stroke-opacity="1" stroke-linejoin="bevel" stroke-miterlimit="10" stroke-width="3">C</text><text fill="rgb(97,97,97)" stroke="none" font-family="geogebra-sans-serif, sans-serif" font-size="16px" font-style="normal" font-weight="normal" text-decoration="normal" x="806" y="478" text-anchor="start" dominant-baseline="alphabetic" fill-opacity="1">C</text><path fill="rgb(97,97,97)" stroke="none" paint-order="stroke fill markers" d=" M 806.722762103954 632.1796851674126 C 806.722762103954 634.3888241667357 804.9319011032771 636.1796851674126 802.722762103954 636.1796851674126 C 800.5136231046308 636.1796851674126 798.722762103954 634.3888241667357 798.722762103954 632.1796851674126 C 798.722762103954 629.9705461680894 800.5136231046308 628.1796851674126 802.722762103954 628.1796851674126 C 804.9319011032771 628.1796851674126 806.722762103954 629.9705461680894 806.722762103954 632.1796851674126 Z" fill-opacity="1"/><path fill="none" stroke="rgb(0,0,0)" paint-order="fill stroke markers" d=" M 806.722762103954 632.1796851674126 C 806.722762103954 634.3888241667357 804.9319011032771 636.1796851674126 802.722762103954 636.1796851674126 C 800.5136231046308 636.1796851674126 798.722762103954 634.3888241667357 798.722762103954 632.1796851674126 C 798.722762103954 629.9705461680894 800.5136231046308 628.1796851674126 802.722762103954 628.1796851674126 C 804.9319011032771 628.1796851674126 806.722762103954 629.9705461680894 806.722762103954 632.1796851674126 Z" stroke-opacity="1" stroke-linecap="round" stroke-linejoin="round" stroke-miterlimit="10"/><text fill="rgb(97,97,97)" stroke="none" font-family="geogebra-sans-serif, sans-serif" font-size="16px" font-style="normal" font-weight="normal" text-decoration="normal" x="807" y="624" text-anchor="start" dominant-baseline="alphabetic" fill-opacity="1">D</text><text fill="none" stroke="rgb(255,255,255)" font-family="geogebra-sans-serif, sans-serif" font-size="16px" font-style="normal" font-weight="normal" text-decoration="normal" x="807" y="624" text-anchor="start" dominant-baseline="alphabetic" stroke-opacity="1" stroke-linejoin="bevel" stroke-miterlimit="10" stroke-width="3">D</text><text fill="rgb(97,97,97)" stroke="none" font-family="geogebra-sans-serif, sans-serif" font-size="16px" font-style="normal" font-weight="normal" text-decoration="normal" x="807" y="624" text-anchor="start" dominant-baseline="alphabetic" fill-opacity="1">D</text><path fill="rgb(97,97,97)" stroke="none" paint-order="stroke fill markers" d=" M 806.3216806618735 558.8486281737183 C 806.3216806618735 561.0577671730415 804.5308196611967 562.8486281737183 802.3216806618735 562.8486281737183 C 800.1125416625504 562.8486281737183 798.3216806618735 561.0577671730415 798.3216806618735 558.8486281737183 C 798.3216806618735 556.6394891743952 800.1125416625504 554.8486281737183 802.3216806618735 554.8486281737183 C 804.5308196611967 554.8486281737183 806.3216806618735 556.6394891743952 806.3216806618735 558.8486281737183 Z" fill-opacity="1"/><path fill="none" stroke="rgb(0,0,0)" paint-order="fill stroke markers" d=" M 806.3216806618735 558.8486281737183 C 806.3216806618735 561.0577671730415 804.5308196611967 562.8486281737183 802.3216806618735 562.8486281737183 C 800.1125416625504 562.8486281737183 798.3216806618735 561.0577671730415 798.3216806618735 558.8486281737183 C 798.3216806618735 556.6394891743952 800.1125416625504 554.8486281737183 802.3216806618735 554.8486281737183 C 804.5308196611967 554.8486281737183 806.3216806618735 556.6394891743952 806.3216806618735 558.8486281737183 Z" stroke-opacity="1" stroke-linecap="round" stroke-linejoin="round" stroke-miterlimit="10"/><text fill="rgb(97,97,97)" stroke="none" font-family="geogebra-sans-serif, sans-serif" font-size="16px" font-style="normal" font-weight="normal" text-decoration="normal" x="806" y="551" text-anchor="start" dominant-baseline="alphabetic" fill-opacity="1">E</text><text fill="none" stroke="rgb(255,255,255)" font-family="geogebra-sans-serif, sans-serif" font-size="16px" font-style="normal" font-weight="normal" text-decoration="normal" x="806" y="551" text-anchor="start" dominant-baseline="alphabetic" stroke-opacity="1" stroke-linejoin="bevel" stroke-miterlimit="10" stroke-width="3">E</text><text fill="rgb(97,97,97)" stroke="none" font-family="geogebra-sans-serif, sans-serif" font-size="16px" font-style="normal" font-weight="normal" text-decoration="normal" x="806" y="551" text-anchor="start" dominant-baseline="alphabetic" fill-opacity="1">E</text><path fill="rgb(97,97,97)" stroke="none" paint-order="stroke fill markers" d=" M 806.0901161833215 516.5109226784492 C 806.0901161833215 518.7200616777724 804.2992551826446 520.5109226784492 802.0901161833215 520.5109226784492 C 799.8809771839983 520.5109226784492 798.0901161833215 518.7200616777724 798.0901161833215 516.5109226784492 C 798.0901161833215 514.3017836791261 799.8809771839983 512.5109226784492 802.0901161833215 512.5109226784492 C 804.2992551826446 512.5109226784492 806.0901161833215 514.3017836791261 806.0901161833215 516.5109226784492 Z" fill-opacity="1"/><path fill="none" stroke="rgb(0,0,0)" paint-order="fill stroke markers" d=" M 806.0901161833215 516.5109226784492 C 806.0901161833215 518.7200616777724 804.2992551826446 520.5109226784492 802.0901161833215 520.5109226784492 C 799.8809771839983 520.5109226784492 798.0901161833215 518.7200616777724 798.0901161833215 516.5109226784492 C 798.0901161833215 514.3017836791261 799.8809771839983 512.5109226784492 802.0901161833215 512.5109226784492 C 804.2992551826446 512.5109226784492 806.0901161833215 514.3017836791261 806.0901161833215 516.5109226784492 Z" stroke-opacity="1" stroke-linecap="round" stroke-linejoin="round" stroke-miterlimit="10"/><text fill="rgb(97,97,97)" stroke="none" font-family="geogebra-sans-serif, sans-serif" font-size="16px" font-style="normal" font-weight="normal" text-decoration="normal" x="806" y="509" text-anchor="start" dominant-baseline="alphabetic" fill-opacity="1">F</text><text fill="none" stroke="rgb(255,255,255)" font-family="geogebra-sans-serif, sans-serif" font-size="16px" font-style="normal" font-weight="normal" text-decoration="normal" x="806" y="509" text-anchor="start" dominant-baseline="alphabetic" stroke-opacity="1" stroke-linejoin="bevel" stroke-miterlimit="10" stroke-width="3">F</text><text fill="rgb(97,97,97)" stroke="none" font-family="geogebra-sans-serif, sans-serif" font-size="16px" font-style="normal" font-weight="normal" text-decoration="normal" x="806" y="509" text-anchor="start" dominant-baseline="alphabetic" fill-opacity="1">F</text><path fill="rgb(97,97,97)" stroke="none" paint-order="stroke fill markers" d=" M 806.5532451404256 601.1863336689876 C 806.5532451404256 603.3954726683107 804.7623841397487 605.1863336689876 802.5532451404256 605.1863336689876 C 800.3441061411024 605.1863336689876 798.5532451404256 603.3954726683107 798.5532451404256 601.1863336689876 C 798.5532451404256 598.9771946696644 800.3441061411024 597.1863336689876 802.5532451404256 597.1863336689876 C 804.7623841397487 597.1863336689876 806.5532451404256 598.9771946696644 806.5532451404256 601.1863336689876 Z" fill-opacity="1"/><path fill="none" stroke="rgb(0,0,0)" paint-order="fill stroke markers" d=" M 806.5532451404256 601.1863336689876 C 806.5532451404256 603.3954726683107 804.7623841397487 605.1863336689876 802.5532451404256 605.1863336689876 C 800.3441061411024 605.1863336689876 798.5532451404256 603.3954726683107 798.5532451404256 601.1863336689876 C 798.5532451404256 598.9771946696644 800.3441061411024 597.1863336689876 802.5532451404256 597.1863336689876 C 804.7623841397487 597.1863336689876 806.5532451404256 598.9771946696644 806.5532451404256 601.1863336689876 Z" stroke-opacity="1" stroke-linecap="round" stroke-linejoin="round" stroke-miterlimit="10"/><text fill="rgb(97,97,97)" stroke="none" font-family="geogebra-sans-serif, sans-serif" font-size="16px" font-style="normal" font-weight="normal" text-decoration="normal" x="807" y="593" text-anchor="start" dominant-baseline="alphabetic" fill-opacity="1">G</text><text fill="none" stroke="rgb(255,255,255)" font-family="geogebra-sans-serif, sans-serif" font-size="16px" font-style="normal" font-weight="normal" text-decoration="normal" x="807" y="593" text-anchor="start" dominant-baseline="alphabetic" stroke-opacity="1" stroke-linejoin="bevel" stroke-miterlimit="10" stroke-width="3">G</text><text fill="rgb(97,97,97)" stroke="none" font-family="geogebra-sans-serif, sans-serif" font-size="16px" font-style="normal" font-weight="normal" text-decoration="normal" x="807" y="593" text-anchor="start" dominant-baseline="alphabetic" fill-opacity="1">G</text><path fill="rgb(97,97,97)" stroke="none" paint-order="stroke fill markers" d=" M 823.5310508516397 498.8781537149707 C 823.5310508516397 501.0872927142939 821.7401898509629 502.8781537149707 819.5310508516397 502.8781537149707 C 817.3219118523166 502.8781537149707 815.5310508516397 501.0872927142939 815.5310508516397 498.8781537149707 C 815.5310508516397 496.66901471564756 817.3219118523166 494.8781537149707 819.5310508516397 494.8781537149707 C 821.7401898509629 494.8781537149707 823.5310508516397 496.66901471564756 823.5310508516397 498.8781537149707 Z" fill-opacity="1"/><path fill="none" stroke="rgb(0,0,0)" paint-order="fill stroke markers" d=" M 823.5310508516397 498.8781537149707 C 823.5310508516397 501.0872927142939 821.7401898509629 502.8781537149707 819.5310508516397 502.8781537149707 C 817.3219118523166 502.8781537149707 815.5310508516397 501.0872927142939 815.5310508516397 498.8781537149707 C 815.5310508516397 496.66901471564756 817.3219118523166 494.8781537149707 819.5310508516397 494.8781537149707 C 821.7401898509629 494.8781537149707 823.5310508516397 496.66901471564756 823.5310508516397 498.8781537149707 Z" stroke-opacity="1" stroke-linecap="round" stroke-linejoin="round" stroke-miterlimit="10"/><text fill="rgb(97,97,97)" stroke="none" font-family="geogebra-sans-serif, sans-serif" font-size="16px" font-style="normal" font-weight="normal" text-decoration="normal" x="824" y="491" text-anchor="start" dominant-baseline="alphabetic" fill-opacity="1">H</text><text fill="none" stroke="rgb(255,255,255)" font-family="geogebra-sans-serif, sans-serif" font-size="16px" font-style="normal" font-weight="normal" text-decoration="normal" x="824" y="491" text-anchor="start" dominant-baseline="alphabetic" stroke-opacity="1" stroke-linejoin="bevel" stroke-miterlimit="10" stroke-width="3">H</text><text fill="rgb(97,97,97)" stroke="none" font-family="geogebra-sans-serif, sans-serif" font-size="16px" font-style="normal" font-weight="normal" text-decoration="normal" x="824" y="491" text-anchor="start" dominant-baseline="alphabetic" fill-opacity="1">H</text><path fill="rgb(97,97,97)" stroke="none" paint-order="stroke fill markers" d=" M 908.2064618421779 498.4150247578666 C 908.2064618421779 500.62416375718976 906.415600841501 502.4150247578666 904.2064618421779 502.4150247578666 C 901.9973228428547 502.4150247578666 900.2064618421779 500.62416375718976 900.2064618421779 498.4150247578666 C 900.2064618421779 496.20588575854345 901.9973228428547 494.4150247578666 904.2064618421779 494.4150247578666 C 906.415600841501 494.4150247578666 908.2064618421779 496.20588575854345 908.2064618421779 498.4150247578666 Z" fill-opacity="1"/><path fill="none" stroke="rgb(0,0,0)" paint-order="fill stroke markers" d=" M 908.2064618421779 498.4150247578666 C 908.2064618421779 500.62416375718976 906.415600841501 502.4150247578666 904.2064618421779 502.4150247578666 C 901.9973228428547 502.4150247578666 900.2064618421779 500.62416375718976 900.2064618421779 498.4150247578666 C 900.2064618421779 496.20588575854345 901.9973228428547 494.4150247578666 904.2064618421779 494.4150247578666 C 906.415600841501 494.4150247578666 908.2064618421779 496.20588575854345 908.2064618421779 498.4150247578666 Z" stroke-opacity="1" stroke-linecap="round" stroke-linejoin="round" stroke-miterlimit="10"/><text fill="rgb(97,97,97)" stroke="none" font-family="geogebra-sans-serif, sans-serif" font-size="16px" font-style="normal" font-weight="normal" text-decoration="normal" x="908" y="490" text-anchor="start" dominant-baseline="alphabetic" fill-opacity="1">I</text><text fill="none" stroke="rgb(255,255,255)" font-family="geogebra-sans-serif, sans-serif" font-size="16px" font-style="normal" font-weight="normal" text-decoration="normal" x="908" y="490" text-anchor="start" dominant-baseline="alphabetic" stroke-opacity="1" stroke-linejoin="bevel" stroke-miterlimit="10" stroke-width="3">I</text><text fill="rgb(97,97,97)" stroke="none" font-family="geogebra-sans-serif, sans-serif" font-size="16px" font-style="normal" font-weight="normal" text-decoration="normal" x="908" y="490" text-anchor="start" dominant-baseline="alphabetic" fill-opacity="1">I</text></g></g></svg>