<svg version="1.1" xmlns="http://www.w3.org/2000/svg" xmlns:xlink="http://www.w3.org/1999/xlink" width="332" height="254"><defs><clipPath id="tHUTURGkphHf"><path fill="none" stroke="none" d=" M 0 0 L 332 0 L 332 254 L 0 254 L 0 0 Z"/></clipPath></defs><g transform="scale(1,1)" clip-path="url(#tHUTURGkphHf)"><g transform="translate(-575,-405)"><rect fill="rgb(255,255,255)" stroke="none" x="0" y="0" width="1190" height="918" fill-opacity="1"/><path fill="none" stroke="rgb(97,97,97)" paint-order="fill stroke markers" d=" M 807.9007856923058 539.472281640903 C 807.9007856923058 599.0247279160465 759.6239893649895 647.3015242433628 700.071543089846 647.3015242433628 C 640.5190968147027 647.3015242433628 592.2423004873864 599.0247279160465 592.2423004873864 539.472281640903 C 592.2423004873864 479.9198353657597 640.5190968147027 431.64303903844336 700.071543089846 431.64303903844336 C 759.6239893649895 431.64303903844336 807.9007856923058 479.9198353657597 807.9007856923058 539.472281640903 Z" stroke-opacity="0.8" stroke-linecap="round" stroke-linejoin="round" stroke-miterlimit="10" stroke-width="2.5"/><path fill="none" stroke="rgb(97,97,97)" paint-order="fill stroke markers" d=" M 702.1692334363862 923 L 697.0935725430408 -5" stroke-opacity="0.8" stroke-linecap="round" stroke-linejoin="round" stroke-miterlimit="10" stroke-width="2.5"/><path fill="none" stroke="rgb(97,97,97)" paint-order="fill stroke markers" d=" M 320.716383770014 923 L 1195 39.100065351352384" stroke-opacity="0.8" stroke-linecap="round" stroke-linejoin="round" stroke-miterlimit="10" stroke-width="2.5"/><path fill="none" stroke="rgb(97,97,97)" paint-order="fill stroke markers" d=" M 149.61056540889624 -5 L 1087.8177148131126 923" stroke-opacity="0.8" stroke-linecap="round" stroke-linejoin="round" stroke-miterlimit="10" stroke-width="2.5"/><path fill="none" stroke="rgb(97,97,97)" paint-order="fill stroke markers" d=" M 700.071543089846 539.472281640903 L 807.8991728717095 538.8825224989786" stroke-opacity="0.8" stroke-linecap="round" stroke-linejoin="round" stroke-miterlimit="10" stroke-width="2.5"/><path fill="none" stroke="rgb(97,97,97)" paint-order="fill stroke markers" d=" M 623.4088721832962 463.64365611139647 L 1190 460.54470737219833" stroke-opacity="0.8" stroke-linecap="round" stroke-linejoin="round" stroke-miterlimit="10" stroke-width="2.5"/><path fill="none" stroke="rgb(97,97,97)" paint-order="fill stroke markers" d=" M 699.4817839479216 431.6446518590395 L 1190 916.826314336662" stroke-opacity="0.8" stroke-linecap="round" stroke-linejoin="round" stroke-miterlimit="10" stroke-width="2.5"/><path fill="none" stroke="rgb(97,97,97)" paint-order="fill stroke markers" d=" M 624.2429175603394 616.1349525474529 L 1190 613.0405655878923" stroke-opacity="0.8" stroke-linecap="round" stroke-linejoin="round" stroke-miterlimit="10" stroke-width="2.5"/><path fill="none" stroke="rgb(97,97,97)" paint-order="fill stroke markers" d=" M 700.6613022317706 647.2999114227666 L 1340.9189662047881 0" stroke-opacity="0.8" stroke-linecap="round" stroke-linejoin="round" stroke-miterlimit="10" stroke-width="2.5"/><path fill="rgb(21,101,192)" stroke="none" paint-order="stroke fill markers" d=" M 705.071543089846 539.472281640903 C 705.071543089846 542.233705390057 702.832966839 544.472281640903 700.071543089846 544.472281640903 C 697.310119340692 544.472281640903 695.071543089846 542.233705390057 695.071543089846 539.472281640903 C 695.071543089846 536.710857891749 697.310119340692 534.472281640903 700.071543089846 534.472281640903 C 702.832966839 534.472281640903 705.071543089846 536.710857891749 705.071543089846 539.472281640903 Z" fill-opacity="1"/><path fill="none" stroke="rgb(0,0,0)" paint-order="fill stroke markers" d=" M 705.071543089846 539.472281640903 C 705.071543089846 542.233705390057 702.832966839 544.472281640903 700.071543089846 544.472281640903 C 697.310119340692 544.472281640903 695.071543089846 542.233705390057 695.071543089846 539.472281640903 C 695.071543089846 536.710857891749 697.310119340692 534.472281640903 700.071543089846 534.472281640903 C 702.832966839 534.472281640903 705.071543089846 536.710857891749 705.071543089846 539.472281640903 Z" stroke-opacity="1" stroke-linecap="round" stroke-linejoin="round" stroke-miterlimit="10"/><text fill="rgb(21,101,192)" stroke="none" font-family="geogebra-sans-serif, sans-serif" font-size="16px" font-style="normal" font-weight="normal" text-decoration="normal" x="704" y="529" text-anchor="start" dominant-baseline="alphabetic" fill-opacity="1">A</text><text fill="none" stroke="rgb(255,255,255)" font-family="geogebra-sans-serif, sans-serif" font-size="16px" font-style="normal" font-weight="normal" text-decoration="normal" x="704" y="529" text-anchor="start" dominant-baseline="alphabetic" stroke-opacity="1" stroke-linejoin="bevel" stroke-miterlimit="10" stroke-width="3">A</text><text fill="rgb(21,101,192)" stroke="none" font-family="geogebra-sans-serif, sans-serif" font-size="16px" font-style="normal" font-weight="normal" text-decoration="normal" x="704" y="529" text-anchor="start" dominant-baseline="alphabetic" fill-opacity="1">A</text><path fill="rgb(21,101,192)" stroke="none" paint-order="stroke fill markers" d=" M 812.8991728717095 538.8825224989786 C 812.8991728717095 541.6439462481326 810.6605966208635 543.8825224989786 807.8991728717095 543.8825224989786 C 805.1377491225555 543.8825224989786 802.8991728717095 541.6439462481326 802.8991728717095 538.8825224989786 C 802.8991728717095 536.1210987498246 805.1377491225555 533.8825224989786 807.8991728717095 533.8825224989786 C 810.6605966208635 533.8825224989786 812.8991728717095 536.1210987498246 812.8991728717095 538.8825224989786 Z" fill-opacity="1"/><path fill="none" stroke="rgb(0,0,0)" paint-order="fill stroke markers" d=" M 812.8991728717095 538.8825224989786 C 812.8991728717095 541.6439462481326 810.6605966208635 543.8825224989786 807.8991728717095 543.8825224989786 C 805.1377491225555 543.8825224989786 802.8991728717095 541.6439462481326 802.8991728717095 538.8825224989786 C 802.8991728717095 536.1210987498246 805.1377491225555 533.8825224989786 807.8991728717095 533.8825224989786 C 810.6605966208635 533.8825224989786 812.8991728717095 536.1210987498246 812.8991728717095 538.8825224989786 Z" stroke-opacity="1" stroke-linecap="round" stroke-linejoin="round" stroke-miterlimit="10"/><text fill="rgb(21,101,192)" stroke="none" font-family="geogebra-sans-serif, sans-serif" font-size="16px" font-style="normal" font-weight="normal" text-decoration="normal" x="812" y="529" text-anchor="start" dominant-baseline="alphabetic" fill-opacity="1">B</text><text fill="none" stroke="rgb(255,255,255)" font-family="geogebra-sans-serif, sans-serif" font-size="16px" font-style="normal" font-weight="normal" text-decoration="normal" x="812" y="529" text-anchor="start" dominant-baseline="alphabetic" stroke-opacity="1" stroke-linejoin="bevel" stroke-miterlimit="10" stroke-width="3">B</text><text fill="rgb(21,101,192)" stroke="none" font-family="geogebra-sans-serif, sans-serif" font-size="16px" font-style="normal" font-weight="normal" text-decoration="normal" x="812" y="529" text-anchor="start" dominant-baseline="alphabetic" fill-opacity="1">B</text><path fill="rgb(97,97,97)" stroke="none" paint-order="stroke fill markers" d=" M 627.4088721832962 463.64365611139647 C 627.4088721832962 465.8527951107196 625.6180111826194 467.64365611139647 623.4088721832962 467.64365611139647 C 621.1997331839731 467.64365611139647 619.4088721832962 465.8527951107196 619.4088721832962 463.64365611139647 C 619.4088721832962 461.4345171120733 621.1997331839731 459.64365611139647 623.4088721832962 459.64365611139647 C 625.6180111826194 459.64365611139647 627.4088721832962 461.4345171120733 627.4088721832962 463.64365611139647 Z" fill-opacity="1"/><path fill="none" stroke="rgb(0,0,0)" paint-order="fill stroke markers" d=" M 627.4088721832962 463.64365611139647 C 627.4088721832962 465.8527951107196 625.6180111826194 467.64365611139647 623.4088721832962 467.64365611139647 C 621.1997331839731 467.64365611139647 619.4088721832962 465.8527951107196 619.4088721832962 463.64365611139647 C 619.4088721832962 461.4345171120733 621.1997331839731 459.64365611139647 623.4088721832962 459.64365611139647 C 625.6180111826194 459.64365611139647 627.4088721832962 461.4345171120733 627.4088721832962 463.64365611139647 Z" stroke-opacity="1" stroke-linecap="round" stroke-linejoin="round" stroke-miterlimit="10"/><text fill="rgb(97,97,97)" stroke="none" font-family="geogebra-sans-serif, sans-serif" font-size="16px" font-style="normal" font-weight="normal" text-decoration="normal" x="627" y="456" text-anchor="start" dominant-baseline="alphabetic" fill-opacity="1">C</text><text fill="none" stroke="rgb(255,255,255)" font-family="geogebra-sans-serif, sans-serif" font-size="16px" font-style="normal" font-weight="normal" text-decoration="normal" x="627" y="456" text-anchor="start" dominant-baseline="alphabetic" stroke-opacity="1" stroke-linejoin="bevel" stroke-miterlimit="10" stroke-width="3">C</text><text fill="rgb(97,97,97)" stroke="none" font-family="geogebra-sans-serif, sans-serif" font-size="16px" font-style="normal" font-weight="normal" text-decoration="normal" x="627" y="456" text-anchor="start" dominant-baseline="alphabetic" fill-opacity="1">C</text><path fill="rgb(97,97,97)" stroke="none" paint-order="stroke fill markers" d=" M 779.9001686193527 462.80961073435327 C 779.9001686193527 465.01874973367643 778.1093076186759 466.80961073435327 775.9001686193527 466.80961073435327 C 773.6910296200296 466.80961073435327 771.9001686193527 465.01874973367643 771.9001686193527 462.80961073435327 C 771.9001686193527 460.6004717350301 773.6910296200296 458.80961073435327 775.9001686193527 458.80961073435327 C 778.1093076186759 458.80961073435327 779.9001686193527 460.6004717350301 779.9001686193527 462.80961073435327 Z" fill-opacity="1"/><path fill="none" stroke="rgb(0,0,0)" paint-order="fill stroke markers" d=" M 779.9001686193527 462.80961073435327 C 779.9001686193527 465.01874973367643 778.1093076186759 466.80961073435327 775.9001686193527 466.80961073435327 C 773.6910296200296 466.80961073435327 771.9001686193527 465.01874973367643 771.9001686193527 462.80961073435327 C 771.9001686193527 460.6004717350301 773.6910296200296 458.80961073435327 775.9001686193527 458.80961073435327 C 778.1093076186759 458.80961073435327 779.9001686193527 460.6004717350301 779.9001686193527 462.80961073435327 Z" stroke-opacity="1" stroke-linecap="round" stroke-linejoin="round" stroke-miterlimit="10"/><text fill="rgb(97,97,97)" stroke="none" font-family="geogebra-sans-serif, sans-serif" font-size="16px" font-style="normal" font-weight="normal" text-decoration="normal" x="780" y="455" text-anchor="start" dominant-baseline="alphabetic" fill-opacity="1">D</text><text fill="none" stroke="rgb(255,255,255)" font-family="geogebra-sans-serif, sans-serif" font-size="16px" font-style="normal" font-weight="normal" text-decoration="normal" x="780" y="455" text-anchor="start" dominant-baseline="alphabetic" stroke-opacity="1" stroke-linejoin="bevel" stroke-miterlimit="10" stroke-width="3">D</text><text fill="rgb(97,97,97)" stroke="none" font-family="geogebra-sans-serif, sans-serif" font-size="16px" font-style="normal" font-weight="normal" text-decoration="normal" x="780" y="455" text-anchor="start" dominant-baseline="alphabetic" fill-opacity="1">D</text><path fill="rgb(97,97,97)" stroke="none" paint-order="stroke fill markers" d=" M 703.4817839479216 431.6446518590395 C 703.4817839479216 433.8537908583627 701.6909229472448 435.6446518590395 699.4817839479216 435.6446518590395 C 697.2726449485984 435.6446518590395 695.4817839479216 433.8537908583627 695.4817839479216 431.6446518590395 C 695.4817839479216 429.43551285971637 697.2726449485984 427.6446518590395 699.4817839479216 427.6446518590395 C 701.6909229472448 427.6446518590395 703.4817839479216 429.43551285971637 703.4817839479216 431.6446518590395 Z" fill-opacity="1"/><path fill="none" stroke="rgb(0,0,0)" paint-order="fill stroke markers" d=" M 703.4817839479216 431.6446518590395 C 703.4817839479216 433.8537908583627 701.6909229472448 435.6446518590395 699.4817839479216 435.6446518590395 C 697.2726449485984 435.6446518590395 695.4817839479216 433.8537908583627 695.4817839479216 431.6446518590395 C 695.4817839479216 429.43551285971637 697.2726449485984 427.6446518590395 699.4817839479216 427.6446518590395 C 701.6909229472448 427.6446518590395 703.4817839479216 429.43551285971637 703.4817839479216 431.6446518590395 Z" stroke-opacity="1" stroke-linecap="round" stroke-linejoin="round" stroke-miterlimit="10"/><text fill="rgb(97,97,97)" stroke="none" font-family="geogebra-sans-serif, sans-serif" font-size="16px" font-style="normal" font-weight="normal" text-decoration="normal" x="703" y="424" text-anchor="start" dominant-baseline="alphabetic" fill-opacity="1">E</text><text fill="none" stroke="rgb(255,255,255)" font-family="geogebra-sans-serif, sans-serif" font-size="16px" font-style="normal" font-weight="normal" text-decoration="normal" x="703" y="424" text-anchor="start" dominant-baseline="alphabetic" stroke-opacity="1" stroke-linejoin="bevel" stroke-miterlimit="10" stroke-width="3">E</text><text fill="rgb(97,97,97)" stroke="none" font-family="geogebra-sans-serif, sans-serif" font-size="16px" font-style="normal" font-weight="normal" text-decoration="normal" x="703" y="424" text-anchor="start" dominant-baseline="alphabetic" fill-opacity="1">E</text><path fill="rgb(97,97,97)" stroke="none" paint-order="stroke fill markers" d=" M 628.2429175603394 616.1349525474529 C 628.2429175603394 618.3440915467761 626.4520565596625 620.1349525474529 624.2429175603394 620.1349525474529 C 622.0337785610162 620.1349525474529 620.2429175603394 618.3440915467761 620.2429175603394 616.1349525474529 C 620.2429175603394 613.9258135481298 622.0337785610162 612.1349525474529 624.2429175603394 612.1349525474529 C 626.4520565596625 612.1349525474529 628.2429175603394 613.9258135481298 628.2429175603394 616.1349525474529 Z" fill-opacity="1"/><path fill="none" stroke="rgb(0,0,0)" paint-order="fill stroke markers" d=" M 628.2429175603394 616.1349525474529 C 628.2429175603394 618.3440915467761 626.4520565596625 620.1349525474529 624.2429175603394 620.1349525474529 C 622.0337785610162 620.1349525474529 620.2429175603394 618.3440915467761 620.2429175603394 616.1349525474529 C 620.2429175603394 613.9258135481298 622.0337785610162 612.1349525474529 624.2429175603394 612.1349525474529 C 626.4520565596625 612.1349525474529 628.2429175603394 613.9258135481298 628.2429175603394 616.1349525474529 Z" stroke-opacity="1" stroke-linecap="round" stroke-linejoin="round" stroke-miterlimit="10"/><text fill="rgb(97,97,97)" stroke="none" font-family="geogebra-sans-serif, sans-serif" font-size="16px" font-style="normal" font-weight="normal" text-decoration="normal" x="628" y="608" text-anchor="start" dominant-baseline="alphabetic" fill-opacity="1">F</text><text fill="none" stroke="rgb(255,255,255)" font-family="geogebra-sans-serif, sans-serif" font-size="16px" font-style="normal" font-weight="normal" text-decoration="normal" x="628" y="608" text-anchor="start" dominant-baseline="alphabetic" stroke-opacity="1" stroke-linejoin="bevel" stroke-miterlimit="10" stroke-width="3">F</text><text fill="rgb(97,97,97)" stroke="none" font-family="geogebra-sans-serif, sans-serif" font-size="16px" font-style="normal" font-weight="normal" text-decoration="normal" x="628" y="608" text-anchor="start" dominant-baseline="alphabetic" fill-opacity="1">F</text><path fill="rgb(97,97,97)" stroke="none" paint-order="stroke fill markers" d=" M 780.7342139963959 615.3009071704097 C 780.7342139963959 617.5100461697328 778.943352995719 619.3009071704097 776.7342139963959 619.3009071704097 C 774.5250749970727 619.3009071704097 772.7342139963959 617.5100461697328 772.7342139963959 615.3009071704097 C 772.7342139963959 613.0917681710865 774.5250749970727 611.3009071704097 776.7342139963959 611.3009071704097 C 778.943352995719 611.3009071704097 780.7342139963959 613.0917681710865 780.7342139963959 615.3009071704097 Z" fill-opacity="1"/><path fill="none" stroke="rgb(0,0,0)" paint-order="fill stroke markers" d=" M 780.7342139963959 615.3009071704097 C 780.7342139963959 617.5100461697328 778.943352995719 619.3009071704097 776.7342139963959 619.3009071704097 C 774.5250749970727 619.3009071704097 772.7342139963959 617.5100461697328 772.7342139963959 615.3009071704097 C 772.7342139963959 613.0917681710865 774.5250749970727 611.3009071704097 776.7342139963959 611.3009071704097 C 778.943352995719 611.3009071704097 780.7342139963959 613.0917681710865 780.7342139963959 615.3009071704097 Z" stroke-opacity="1" stroke-linecap="round" stroke-linejoin="round" stroke-miterlimit="10"/><text fill="rgb(97,97,97)" stroke="none" font-family="geogebra-sans-serif, sans-serif" font-size="16px" font-style="normal" font-weight="normal" text-decoration="normal" x="781" y="607" text-anchor="start" dominant-baseline="alphabetic" fill-opacity="1">G</text><text fill="none" stroke="rgb(255,255,255)" font-family="geogebra-sans-serif, sans-serif" font-size="16px" font-style="normal" font-weight="normal" text-decoration="normal" x="781" y="607" text-anchor="start" dominant-baseline="alphabetic" stroke-opacity="1" stroke-linejoin="bevel" stroke-miterlimit="10" stroke-width="3">G</text><text fill="rgb(97,97,97)" stroke="none" font-family="geogebra-sans-serif, sans-serif" font-size="16px" font-style="normal" font-weight="normal" text-decoration="normal" x="781" y="607" text-anchor="start" dominant-baseline="alphabetic" fill-opacity="1">G</text><path fill="rgb(97,97,97)" stroke="none" paint-order="stroke fill markers" d=" M 704.6613022317706 647.2999114227666 C 704.6613022317706 649.5090504220898 702.8704412310938 651.2999114227666 700.6613022317706 651.2999114227666 C 698.4521632324474 651.2999114227666 696.6613022317706 649.5090504220898 696.6613022317706 647.2999114227666 C 696.6613022317706 645.0907724234435 698.4521632324474 643.2999114227666 700.6613022317706 643.2999114227666 C 702.8704412310938 643.2999114227666 704.6613022317706 645.0907724234435 704.6613022317706 647.2999114227666 Z" fill-opacity="1"/><path fill="none" stroke="rgb(0,0,0)" paint-order="fill stroke markers" d=" M 704.6613022317706 647.2999114227666 C 704.6613022317706 649.5090504220898 702.8704412310938 651.2999114227666 700.6613022317706 651.2999114227666 C 698.4521632324474 651.2999114227666 696.6613022317706 649.5090504220898 696.6613022317706 647.2999114227666 C 696.6613022317706 645.0907724234435 698.4521632324474 643.2999114227666 700.6613022317706 643.2999114227666 C 702.8704412310938 643.2999114227666 704.6613022317706 645.0907724234435 704.6613022317706 647.2999114227666 Z" stroke-opacity="1" stroke-linecap="round" stroke-linejoin="round" stroke-miterlimit="10"/><text fill="rgb(97,97,97)" stroke="none" font-family="geogebra-sans-serif, sans-serif" font-size="16px" font-style="normal" font-weight="normal" text-decoration="normal" x="705" y="639" text-anchor="start" dominant-baseline="alphabetic" fill-opacity="1">H</text><text fill="none" stroke="rgb(255,255,255)" font-family="geogebra-sans-serif, sans-serif" font-size="16px" font-style="normal" font-weight="normal" text-decoration="normal" x="705" y="639" text-anchor="start" dominant-baseline="alphabetic" stroke-opacity="1" stroke-linejoin="bevel" stroke-miterlimit="10" stroke-width="3">H</text><text fill="rgb(97,97,97)" stroke="none" font-family="geogebra-sans-serif, sans-serif" font-size="16px" font-style="normal" font-weight="normal" text-decoration="normal" x="705" y="639" text-anchor="start" dominant-baseline="alphabetic" fill-opacity="1">H</text><path fill="rgb(97,97,97)" stroke="none" paint-order="stroke fill markers" d=" M 735.2365019651597 463.0538969694719 C 735.2365019651597 465.26303596879507 733.4456409644829 467.0538969694719 731.2365019651597 467.0538969694719 C 729.0273629658366 467.0538969694719 727.2365019651597 465.26303596879507 727.2365019651597 463.0538969694719 C 727.2365019651597 460.84475797014875 729.0273629658366 459.0538969694719 731.2365019651597 459.0538969694719 C 733.4456409644829 459.0538969694719 735.2365019651597 460.84475797014875 735.2365019651597 463.0538969694719 Z" fill-opacity="1"/><path fill="none" stroke="rgb(0,0,0)" paint-order="fill stroke markers" d=" M 735.2365019651597 463.0538969694719 C 735.2365019651597 465.26303596879507 733.4456409644829 467.0538969694719 731.2365019651597 467.0538969694719 C 729.0273629658366 467.0538969694719 727.2365019651597 465.26303596879507 727.2365019651597 463.0538969694719 C 727.2365019651597 460.84475797014875 729.0273629658366 459.0538969694719 731.2365019651597 459.0538969694719 C 733.4456409644829 459.0538969694719 735.2365019651597 460.84475797014875 735.2365019651597 463.0538969694719 Z" stroke-opacity="1" stroke-linecap="round" stroke-linejoin="round" stroke-miterlimit="10"/><text fill="rgb(97,97,97)" stroke="none" font-family="geogebra-sans-serif, sans-serif" font-size="16px" font-style="normal" font-weight="normal" text-decoration="normal" x="735" y="455" text-anchor="start" dominant-baseline="alphabetic" fill-opacity="1">I</text><text fill="none" stroke="rgb(255,255,255)" font-family="geogebra-sans-serif, sans-serif" font-size="16px" font-style="normal" font-weight="normal" text-decoration="normal" x="735" y="455" text-anchor="start" dominant-baseline="alphabetic" stroke-opacity="1" stroke-linejoin="bevel" stroke-miterlimit="10" stroke-width="3">I</text><text fill="rgb(97,97,97)" stroke="none" font-family="geogebra-sans-serif, sans-serif" font-size="16px" font-style="normal" font-weight="normal" text-decoration="normal" x="735" y="455" text-anchor="start" dominant-baseline="alphabetic" fill-opacity="1">I</text><path fill="rgb(97,97,97)" stroke="none" paint-order="stroke fill markers" d=" M 887.7277984012162 462.21985159242877 C 887.7277984012162 464.4289905917519 885.9369374005394 466.21985159242877 883.7277984012162 466.21985159242877 C 881.518659401893 466.21985159242877 879.7277984012162 464.4289905917519 879.7277984012162 462.21985159242877 C 879.7277984012162 460.0107125931056 881.518659401893 458.21985159242877 883.7277984012162 458.21985159242877 C 885.9369374005394 458.21985159242877 887.7277984012162 460.0107125931056 887.7277984012162 462.21985159242877 Z" fill-opacity="1"/><path fill="none" stroke="rgb(0,0,0)" paint-order="fill stroke markers" d=" M 887.7277984012162 462.21985159242877 C 887.7277984012162 464.4289905917519 885.9369374005394 466.21985159242877 883.7277984012162 466.21985159242877 C 881.518659401893 466.21985159242877 879.7277984012162 464.4289905917519 879.7277984012162 462.21985159242877 C 879.7277984012162 460.0107125931056 881.518659401893 458.21985159242877 883.7277984012162 458.21985159242877 C 885.9369374005394 458.21985159242877 887.7277984012162 460.0107125931056 887.7277984012162 462.21985159242877 Z" stroke-opacity="1" stroke-linecap="round" stroke-linejoin="round" stroke-miterlimit="10"/><text fill="rgb(97,97,97)" stroke="none" font-family="geogebra-sans-serif, sans-serif" font-size="16px" font-style="normal" font-weight="normal" text-decoration="normal" x="888" y="454" text-anchor="start" dominant-baseline="alphabetic" fill-opacity="1">J</text><text fill="none" stroke="rgb(255,255,255)" font-family="geogebra-sans-serif, sans-serif" font-size="16px" font-style="normal" font-weight="normal" text-decoration="normal" x="888" y="454" text-anchor="start" dominant-baseline="alphabetic" stroke-opacity="1" stroke-linejoin="bevel" stroke-miterlimit="10" stroke-width="3">J</text><text fill="rgb(97,97,97)" stroke="none" font-family="geogebra-sans-serif, sans-serif" font-size="16px" font-style="normal" font-weight="normal" text-decoration="normal" x="888" y="454" text-anchor="start" dominant-baseline="alphabetic" fill-opacity="1">J</text><path fill="rgb(97,97,97)" stroke="none" paint-order="stroke fill markers" d=" M 736.0705473422029 615.5451934055284 C 736.0705473422029 617.7543324048515 734.279686341526 619.5451934055284 732.0705473422029 619.5451934055284 C 729.8614083428797 619.5451934055284 728.0705473422029 617.7543324048515 728.0705473422029 615.5451934055284 C 728.0705473422029 613.3360544062052 729.8614083428797 611.5451934055284 732.0705473422029 611.5451934055284 C 734.279686341526 611.5451934055284 736.0705473422029 613.3360544062052 736.0705473422029 615.5451934055284 Z" fill-opacity="1"/><path fill="none" stroke="rgb(0,0,0)" paint-order="fill stroke markers" d=" M 736.0705473422029 615.5451934055284 C 736.0705473422029 617.7543324048515 734.279686341526 619.5451934055284 732.0705473422029 619.5451934055284 C 729.8614083428797 619.5451934055284 728.0705473422029 617.7543324048515 728.0705473422029 615.5451934055284 C 728.0705473422029 613.3360544062052 729.8614083428797 611.5451934055284 732.0705473422029 611.5451934055284 C 734.279686341526 611.5451934055284 736.0705473422029 613.3360544062052 736.0705473422029 615.5451934055284 Z" stroke-opacity="1" stroke-linecap="round" stroke-linejoin="round" stroke-miterlimit="10"/><text fill="rgb(97,97,97)" stroke="none" font-family="geogebra-sans-serif, sans-serif" font-size="16px" font-style="normal" font-weight="normal" text-decoration="normal" x="736" y="608" text-anchor="start" dominant-baseline="alphabetic" fill-opacity="1">K</text><text fill="none" stroke="rgb(255,255,255)" font-family="geogebra-sans-serif, sans-serif" font-size="16px" font-style="normal" font-weight="normal" text-decoration="normal" x="736" y="608" text-anchor="start" dominant-baseline="alphabetic" stroke-opacity="1" stroke-linejoin="bevel" stroke-miterlimit="10" stroke-width="3">K</text><text fill="rgb(97,97,97)" stroke="none" font-family="geogebra-sans-serif, sans-serif" font-size="16px" font-style="normal" font-weight="normal" text-decoration="normal" x="736" y="608" text-anchor="start" dominant-baseline="alphabetic" fill-opacity="1">K</text><path fill="rgb(97,97,97)" stroke="none" paint-order="stroke fill markers" d=" M 888.5618437782593 614.7111480284852 C 888.5618437782593 616.9202870278084 886.7709827775825 618.7111480284852 884.5618437782593 618.7111480284852 C 882.3527047789362 618.7111480284852 880.5618437782593 616.9202870278084 880.5618437782593 614.7111480284852 C 880.5618437782593 612.5020090291621 882.3527047789362 610.7111480284852 884.5618437782593 610.7111480284852 C 886.7709827775825 610.7111480284852 888.5618437782593 612.5020090291621 888.5618437782593 614.7111480284852 Z" fill-opacity="1"/><path fill="none" stroke="rgb(0,0,0)" paint-order="fill stroke markers" d=" M 888.5618437782593 614.7111480284852 C 888.5618437782593 616.9202870278084 886.7709827775825 618.7111480284852 884.5618437782593 618.7111480284852 C 882.3527047789362 618.7111480284852 880.5618437782593 616.9202870278084 880.5618437782593 614.7111480284852 C 880.5618437782593 612.5020090291621 882.3527047789362 610.7111480284852 884.5618437782593 610.7111480284852 C 886.7709827775825 610.7111480284852 888.5618437782593 612.5020090291621 888.5618437782593 614.7111480284852 Z" stroke-opacity="1" stroke-linecap="round" stroke-linejoin="round" stroke-miterlimit="10"/><text fill="rgb(97,97,97)" stroke="none" font-family="geogebra-sans-serif, sans-serif" font-size="16px" font-style="normal" font-weight="normal" text-decoration="normal" x="889" y="607" text-anchor="start" dominant-baseline="alphabetic" fill-opacity="1">L</text><text fill="none" stroke="rgb(255,255,255)" font-family="geogebra-sans-serif, sans-serif" font-size="16px" font-style="normal" font-weight="normal" text-decoration="normal" x="889" y="607" text-anchor="start" dominant-baseline="alphabetic" stroke-opacity="1" stroke-linejoin="bevel" stroke-miterlimit="10" stroke-width="3">L</text><text fill="rgb(97,97,97)" stroke="none" font-family="geogebra-sans-serif, sans-serif" font-size="16px" font-style="normal" font-weight="normal" text-decoration="normal" x="889" y="607" text-anchor="start" dominant-baseline="alphabetic" fill-opacity="1">L</text></g></g></svg>