<svg version="1.1" xmlns="http://www.w3.org/2000/svg" xmlns:xlink="http://www.w3.org/1999/xlink" width="1044" height="622"><defs><clipPath id="BTTzbTfOuVMU"><path fill="none" stroke="none" d=" M 0 0 L 1044 0 L 1044 622 L 0 622 L 0 0 Z"/></clipPath></defs><g transform="scale(1,1)" clip-path="url(#BTTzbTfOuVMU)"><g transform="translate(-107,-83)"><rect fill="rgb(255,255,255)" stroke="none" x="0" y="0" width="1190" height="918" fill-opacity="1"/><path fill="rgb(21,101,192)" stroke="none" paint-order="stroke fill markers" fill-rule="evenodd" d=" M 399.9572528907838 114.45354530435247 L 802.7345730326608 192.77135755416214 L 1127 695 L 123.04784529324365 690.6488782850951 Z" fill-opacity="0.09803921568627451"/><path fill="none" stroke="rgb(97,97,97)" paint-order="fill stroke markers" d=" M -5 274.47474402720167 L 1195 851.1737731534197" stroke-opacity="0.8" stroke-linecap="round" stroke-linejoin="round" stroke-miterlimit="10" stroke-width="2.5"/><path fill="none" stroke="rgb(97,97,97)" paint-order="fill stroke markers" d=" M 222.80564468616615 923 L 1195 295.29980316170713" stroke-opacity="0.8" stroke-linecap="round" stroke-linejoin="round" stroke-miterlimit="10" stroke-width="2.5"/><path fill="none" stroke="rgb(97,97,97)" paint-order="fill stroke markers" d=" M -5 274.47474402720167 L 1195 851.1737731534197" stroke-opacity="0.8" stroke-linecap="round" stroke-linejoin="round" stroke-miterlimit="10" stroke-width="2.5"/><path fill="none" stroke="rgb(97,97,97)" paint-order="fill stroke markers" d=" M -5 274.47474402720167 L 1195 851.1737731534197" stroke-opacity="0.8" stroke-linecap="round" stroke-linejoin="round" stroke-miterlimit="10" stroke-width="2.5"/><path fill="none" stroke="rgb(97,97,97)" paint-order="fill stroke markers" d=" M -5 274.47474402720167 L 1195 851.1737731534197" stroke-opacity="0.8" stroke-linecap="round" stroke-linejoin="round" stroke-miterlimit="10" stroke-width="2.5"/><path fill="none" stroke="rgb(97,97,97)" paint-order="fill stroke markers" d=" M 583.8143749370814 923 L 638.3499285676108 -5" stroke-opacity="0.8" stroke-linecap="round" stroke-linejoin="round" stroke-miterlimit="10" stroke-width="2.5"/><path fill="none" stroke="rgb(21,101,192)" paint-order="fill stroke markers" d=" M 399.9572528907838 114.45354530435247 L 802.7345730326608 192.77135755416214" stroke-opacity="0.8" stroke-linecap="round" stroke-linejoin="round" stroke-miterlimit="10" stroke-width="2.5"/><path fill="none" stroke="rgb(21,101,192)" paint-order="fill stroke markers" d=" M 802.7345730326608 192.77135755416214 L 1127 695" stroke-opacity="0.8" stroke-linecap="round" stroke-linejoin="round" stroke-miterlimit="10" stroke-width="2.5"/><path fill="none" stroke="rgb(21,101,192)" paint-order="fill stroke markers" d=" M 1127 695 L 123.04784529324365 690.6488782850951" stroke-opacity="0.8" stroke-linecap="round" stroke-linejoin="round" stroke-miterlimit="10" stroke-width="2.5"/><path fill="none" stroke="rgb(21,101,192)" paint-order="fill stroke markers" d=" M 123.04784529324365 690.6488782850951 L 399.9572528907838 114.45354530435247" stroke-opacity="0.8" stroke-linecap="round" stroke-linejoin="round" stroke-miterlimit="10" stroke-width="2.5"/><path fill="none" stroke="rgb(97,97,97)" paint-order="fill stroke markers" d=" M 261.5025490920136 402.5512117947238 L 964.8672865163304 443.88567877708107" stroke-opacity="0.8" stroke-linecap="round" stroke-linejoin="round" stroke-miterlimit="10" stroke-width="2.5"/><path fill="none" stroke="rgb(97,97,97)" paint-order="fill stroke markers" d=" M 399.9572528907838 114.45354530435247 L 1127 695" stroke-opacity="0.8" stroke-linecap="round" stroke-linejoin="round" stroke-miterlimit="10" stroke-width="2.5"/><path fill="none" stroke="rgb(97,97,97)" paint-order="fill stroke markers" d=" M 802.7345730326608 192.77135755416214 L 123.04784529324365 690.6488782850951" stroke-opacity="0.8" stroke-linecap="round" stroke-linejoin="round" stroke-miterlimit="10" stroke-width="2.5"/><path fill="none" stroke="rgb(97,97,97)" paint-order="fill stroke markers" d=" M 462.89120916295235 441.7101179196286 L 763.4786264453919 404.72677265217624" stroke-opacity="0.8" stroke-linecap="round" stroke-linejoin="round" stroke-miterlimit="10" stroke-width="2.5"/><path fill="rgb(21,101,192)" stroke="none" paint-order="stroke fill markers" d=" M 404.9572528907838 114.45354530435247 C 404.9572528907838 117.21496905350644 402.71867663993777 119.45354530435247 399.9572528907838 119.45354530435247 C 397.1958291416299 119.45354530435247 394.9572528907838 117.21496905350644 394.9572528907838 114.45354530435247 C 394.9572528907838 111.69212155519851 397.1958291416299 109.45354530435247 399.9572528907838 109.45354530435247 C 402.71867663993777 109.45354530435247 404.9572528907838 111.69212155519851 404.9572528907838 114.45354530435247 Z" fill-opacity="1"/><path fill="none" stroke="rgb(0,0,0)" paint-order="fill stroke markers" d=" M 404.9572528907838 114.45354530435247 C 404.9572528907838 117.21496905350644 402.71867663993777 119.45354530435247 399.9572528907838 119.45354530435247 C 397.1958291416299 119.45354530435247 394.9572528907838 117.21496905350644 394.9572528907838 114.45354530435247 C 394.9572528907838 111.69212155519851 397.1958291416299 109.45354530435247 399.9572528907838 109.45354530435247 C 402.71867663993777 109.45354530435247 404.9572528907838 111.69212155519851 404.9572528907838 114.45354530435247 Z" stroke-opacity="1" stroke-linecap="round" stroke-linejoin="round" stroke-miterlimit="10"/><text fill="rgb(21,101,192)" stroke="none" font-family="geogebra-sans-serif, sans-serif" font-size="16px" font-style="normal" font-weight="normal" text-decoration="normal" x="404" y="104" text-anchor="start" dominant-baseline="alphabetic" fill-opacity="1">A</text><text fill="none" stroke="rgb(255,255,255)" font-family="geogebra-sans-serif, sans-serif" font-size="16px" font-style="normal" font-weight="normal" text-decoration="normal" x="404" y="104" text-anchor="start" dominant-baseline="alphabetic" stroke-opacity="1" stroke-linejoin="bevel" stroke-miterlimit="10" stroke-width="3">A</text><text fill="rgb(21,101,192)" stroke="none" font-family="geogebra-sans-serif, sans-serif" font-size="16px" font-style="normal" font-weight="normal" text-decoration="normal" x="404" y="104" text-anchor="start" dominant-baseline="alphabetic" fill-opacity="1">A</text><path fill="rgb(21,101,192)" stroke="none" paint-order="stroke fill markers" d=" M 807.7345730326608 192.77135755416214 C 807.7345730326608 195.5327813033161 805.4959967818148 197.77135755416214 802.7345730326608 197.77135755416214 C 799.9731492835068 197.77135755416214 797.7345730326608 195.5327813033161 797.7345730326608 192.77135755416214 C 797.7345730326608 190.00993380500816 799.9731492835068 187.77135755416214 802.7345730326608 187.77135755416214 C 805.4959967818148 187.77135755416214 807.7345730326608 190.00993380500816 807.7345730326608 192.77135755416214 Z" fill-opacity="1"/><path fill="none" stroke="rgb(0,0,0)" paint-order="fill stroke markers" d=" M 807.7345730326608 192.77135755416214 C 807.7345730326608 195.5327813033161 805.4959967818148 197.77135755416214 802.7345730326608 197.77135755416214 C 799.9731492835068 197.77135755416214 797.7345730326608 195.5327813033161 797.7345730326608 192.77135755416214 C 797.7345730326608 190.00993380500816 799.9731492835068 187.77135755416214 802.7345730326608 187.77135755416214 C 805.4959967818148 187.77135755416214 807.7345730326608 190.00993380500816 807.7345730326608 192.77135755416214 Z" stroke-opacity="1" stroke-linecap="round" stroke-linejoin="round" stroke-miterlimit="10"/><text fill="rgb(21,101,192)" stroke="none" font-family="geogebra-sans-serif, sans-serif" font-size="16px" font-style="normal" font-weight="normal" text-decoration="normal" x="807" y="183" text-anchor="start" dominant-baseline="alphabetic" fill-opacity="1">B</text><text fill="none" stroke="rgb(255,255,255)" font-family="geogebra-sans-serif, sans-serif" font-size="16px" font-style="normal" font-weight="normal" text-decoration="normal" x="807" y="183" text-anchor="start" dominant-baseline="alphabetic" stroke-opacity="1" stroke-linejoin="bevel" stroke-miterlimit="10" stroke-width="3">B</text><text fill="rgb(21,101,192)" stroke="none" font-family="geogebra-sans-serif, sans-serif" font-size="16px" font-style="normal" font-weight="normal" text-decoration="normal" x="807" y="183" text-anchor="start" dominant-baseline="alphabetic" fill-opacity="1">B</text><path fill="rgb(21,101,192)" stroke="none" paint-order="stroke fill markers" d=" M 1132 695 C 1132 697.761423749154 1129.761423749154 700 1127 700 C 1124.238576250846 700 1122 697.761423749154 1122 695 C 1122 692.238576250846 1124.238576250846 690 1127 690 C 1129.761423749154 690 1132 692.238576250846 1132 695 Z" fill-opacity="1"/><path fill="none" stroke="rgb(0,0,0)" paint-order="fill stroke markers" d=" M 1132 695 C 1132 697.761423749154 1129.761423749154 700 1127 700 C 1124.238576250846 700 1122 697.761423749154 1122 695 C 1122 692.238576250846 1124.238576250846 690 1127 690 C 1129.761423749154 690 1132 692.238576250846 1132 695 Z" stroke-opacity="1" stroke-linecap="round" stroke-linejoin="round" stroke-miterlimit="10"/><text fill="rgb(21,101,192)" stroke="none" font-family="geogebra-sans-serif, sans-serif" font-size="16px" font-style="normal" font-weight="normal" text-decoration="normal" x="1131" y="685" text-anchor="start" dominant-baseline="alphabetic" fill-opacity="1">C</text><text fill="none" stroke="rgb(255,255,255)" font-family="geogebra-sans-serif, sans-serif" font-size="16px" font-style="normal" font-weight="normal" text-decoration="normal" x="1131" y="685" text-anchor="start" dominant-baseline="alphabetic" stroke-opacity="1" stroke-linejoin="bevel" stroke-miterlimit="10" stroke-width="3">C</text><text fill="rgb(21,101,192)" stroke="none" font-family="geogebra-sans-serif, sans-serif" font-size="16px" font-style="normal" font-weight="normal" text-decoration="normal" x="1131" y="685" text-anchor="start" dominant-baseline="alphabetic" fill-opacity="1">C</text><path fill="rgb(21,101,192)" stroke="none" paint-order="stroke fill markers" d=" M 128.04784529324365 690.6488782850951 C 128.04784529324365 693.4103020342491 125.80926904239762 695.6488782850951 123.04784529324365 695.6488782850951 C 120.28642154408969 695.6488782850951 118.04784529324365 693.4103020342491 118.04784529324365 690.6488782850951 C 118.04784529324365 687.8874545359411 120.28642154408969 685.6488782850951 123.04784529324365 685.6488782850951 C 125.80926904239762 685.6488782850951 128.04784529324365 687.8874545359411 128.04784529324365 690.6488782850951 Z" fill-opacity="1"/><path fill="none" stroke="rgb(0,0,0)" paint-order="fill stroke markers" d=" M 128.04784529324365 690.6488782850951 C 128.04784529324365 693.4103020342491 125.80926904239762 695.6488782850951 123.04784529324365 695.6488782850951 C 120.28642154408969 695.6488782850951 118.04784529324365 693.4103020342491 118.04784529324365 690.6488782850951 C 118.04784529324365 687.8874545359411 120.28642154408969 685.6488782850951 123.04784529324365 685.6488782850951 C 125.80926904239762 685.6488782850951 128.04784529324365 687.8874545359411 128.04784529324365 690.6488782850951 Z" stroke-opacity="1" stroke-linecap="round" stroke-linejoin="round" stroke-miterlimit="10"/><text fill="rgb(21,101,192)" stroke="none" font-family="geogebra-sans-serif, sans-serif" font-size="16px" font-style="normal" font-weight="normal" text-decoration="normal" x="127" y="681" text-anchor="start" dominant-baseline="alphabetic" fill-opacity="1">D</text><text fill="none" stroke="rgb(255,255,255)" font-family="geogebra-sans-serif, sans-serif" font-size="16px" font-style="normal" font-weight="normal" text-decoration="normal" x="127" y="681" text-anchor="start" dominant-baseline="alphabetic" stroke-opacity="1" stroke-linejoin="bevel" stroke-miterlimit="10" stroke-width="3">D</text><text fill="rgb(21,101,192)" stroke="none" font-family="geogebra-sans-serif, sans-serif" font-size="16px" font-style="normal" font-weight="normal" text-decoration="normal" x="127" y="681" text-anchor="start" dominant-baseline="alphabetic" fill-opacity="1">D</text><path fill="rgb(97,97,97)" stroke="none" paint-order="stroke fill markers" d=" M 968.8672865163304 443.88567877708107 C 968.8672865163304 446.0948177764042 967.0764255156536 447.88567877708107 964.8672865163304 447.88567877708107 C 962.6581475170073 447.88567877708107 960.8672865163304 446.0948177764042 960.8672865163304 443.88567877708107 C 960.8672865163304 441.6765397777579 962.6581475170073 439.88567877708107 964.8672865163304 439.88567877708107 C 967.0764255156536 439.88567877708107 968.8672865163304 441.6765397777579 968.8672865163304 443.88567877708107 Z" fill-opacity="1"/><path fill="none" stroke="rgb(0,0,0)" paint-order="fill stroke markers" d=" M 968.8672865163304 443.88567877708107 C 968.8672865163304 446.0948177764042 967.0764255156536 447.88567877708107 964.8672865163304 447.88567877708107 C 962.6581475170073 447.88567877708107 960.8672865163304 446.0948177764042 960.8672865163304 443.88567877708107 C 960.8672865163304 441.6765397777579 962.6581475170073 439.88567877708107 964.8672865163304 439.88567877708107 C 967.0764255156536 439.88567877708107 968.8672865163304 441.6765397777579 968.8672865163304 443.88567877708107 Z" stroke-opacity="1" stroke-linecap="round" stroke-linejoin="round" stroke-miterlimit="10"/><text fill="rgb(97,97,97)" stroke="none" font-family="geogebra-sans-serif, sans-serif" font-size="16px" font-style="normal" font-weight="normal" text-decoration="normal" x="969" y="436" text-anchor="start" dominant-baseline="alphabetic" fill-opacity="1">E</text><text fill="none" stroke="rgb(255,255,255)" font-family="geogebra-sans-serif, sans-serif" font-size="16px" font-style="normal" font-weight="normal" text-decoration="normal" x="969" y="436" text-anchor="start" dominant-baseline="alphabetic" stroke-opacity="1" stroke-linejoin="bevel" stroke-miterlimit="10" stroke-width="3">E</text><text fill="rgb(97,97,97)" stroke="none" font-family="geogebra-sans-serif, sans-serif" font-size="16px" font-style="normal" font-weight="normal" text-decoration="normal" x="969" y="436" text-anchor="start" dominant-baseline="alphabetic" fill-opacity="1">E</text><path fill="rgb(97,97,97)" stroke="none" paint-order="stroke fill markers" d=" M 265.5025490920136 402.5512117947238 C 265.5025490920136 404.760350794047 263.7116880913368 406.5512117947238 261.5025490920136 406.5512117947238 C 259.29341009269046 406.5512117947238 257.5025490920136 404.760350794047 257.5025490920136 402.5512117947238 C 257.5025490920136 400.34207279540067 259.29341009269046 398.5512117947238 261.5025490920136 398.5512117947238 C 263.7116880913368 398.5512117947238 265.5025490920136 400.34207279540067 265.5025490920136 402.5512117947238 Z" fill-opacity="1"/><path fill="none" stroke="rgb(0,0,0)" paint-order="fill stroke markers" d=" M 265.5025490920136 402.5512117947238 C 265.5025490920136 404.760350794047 263.7116880913368 406.5512117947238 261.5025490920136 406.5512117947238 C 259.29341009269046 406.5512117947238 257.5025490920136 404.760350794047 257.5025490920136 402.5512117947238 C 257.5025490920136 400.34207279540067 259.29341009269046 398.5512117947238 261.5025490920136 398.5512117947238 C 263.7116880913368 398.5512117947238 265.5025490920136 400.34207279540067 265.5025490920136 402.5512117947238 Z" stroke-opacity="1" stroke-linecap="round" stroke-linejoin="round" stroke-miterlimit="10"/><text fill="rgb(97,97,97)" stroke="none" font-family="geogebra-sans-serif, sans-serif" font-size="16px" font-style="normal" font-weight="normal" text-decoration="normal" x="266" y="395" text-anchor="start" dominant-baseline="alphabetic" fill-opacity="1">F</text><text fill="none" stroke="rgb(255,255,255)" font-family="geogebra-sans-serif, sans-serif" font-size="16px" font-style="normal" font-weight="normal" text-decoration="normal" x="266" y="395" text-anchor="start" dominant-baseline="alphabetic" stroke-opacity="1" stroke-linejoin="bevel" stroke-miterlimit="10" stroke-width="3">F</text><text fill="rgb(97,97,97)" stroke="none" font-family="geogebra-sans-serif, sans-serif" font-size="16px" font-style="normal" font-weight="normal" text-decoration="normal" x="266" y="395" text-anchor="start" dominant-baseline="alphabetic" fill-opacity="1">F</text><path fill="rgb(97,97,97)" stroke="none" paint-order="stroke fill markers" d=" M 617.1849178041721 423.2184452859024 C 617.1849178041721 425.4275842852256 615.3940568034952 427.2184452859024 613.1849178041721 427.2184452859024 C 610.9757788048489 427.2184452859024 609.1849178041721 425.4275842852256 609.1849178041721 423.2184452859024 C 609.1849178041721 421.00930628657926 610.9757788048489 419.2184452859024 613.1849178041721 419.2184452859024 C 615.3940568034952 419.2184452859024 617.1849178041721 421.00930628657926 617.1849178041721 423.2184452859024 Z" fill-opacity="1"/><path fill="none" stroke="rgb(0,0,0)" paint-order="fill stroke markers" d=" M 617.1849178041721 423.2184452859024 C 617.1849178041721 425.4275842852256 615.3940568034952 427.2184452859024 613.1849178041721 427.2184452859024 C 610.9757788048489 427.2184452859024 609.1849178041721 425.4275842852256 609.1849178041721 423.2184452859024 C 609.1849178041721 421.00930628657926 610.9757788048489 419.2184452859024 613.1849178041721 419.2184452859024 C 615.3940568034952 419.2184452859024 617.1849178041721 421.00930628657926 617.1849178041721 423.2184452859024 Z" stroke-opacity="1" stroke-linecap="round" stroke-linejoin="round" stroke-miterlimit="10"/><text fill="rgb(97,97,97)" stroke="none" font-family="geogebra-sans-serif, sans-serif" font-size="16px" font-style="normal" font-weight="normal" text-decoration="normal" x="617" y="415" text-anchor="start" dominant-baseline="alphabetic" fill-opacity="1">G</text><text fill="none" stroke="rgb(255,255,255)" font-family="geogebra-sans-serif, sans-serif" font-size="16px" font-style="normal" font-weight="normal" text-decoration="normal" x="617" y="415" text-anchor="start" dominant-baseline="alphabetic" stroke-opacity="1" stroke-linejoin="bevel" stroke-miterlimit="10" stroke-width="3">G</text><text fill="rgb(97,97,97)" stroke="none" font-family="geogebra-sans-serif, sans-serif" font-size="16px" font-style="normal" font-weight="normal" text-decoration="normal" x="617" y="415" text-anchor="start" dominant-baseline="alphabetic" fill-opacity="1">G</text><path fill="rgb(97,97,97)" stroke="none" paint-order="stroke fill markers" d=" M 466.89120916295235 441.7101179196286 C 466.89120916295235 443.91925691895176 465.1003481622755 445.7101179196286 462.89120916295235 445.7101179196286 C 460.6820701636292 445.7101179196286 458.89120916295235 443.91925691895176 458.89120916295235 441.7101179196286 C 458.89120916295235 439.50097892030544 460.6820701636292 437.7101179196286 462.89120916295235 437.7101179196286 C 465.1003481622755 437.7101179196286 466.89120916295235 439.50097892030544 466.89120916295235 441.7101179196286 Z" fill-opacity="1"/><path fill="none" stroke="rgb(0,0,0)" paint-order="fill stroke markers" d=" M 466.89120916295235 441.7101179196286 C 466.89120916295235 443.91925691895176 465.1003481622755 445.7101179196286 462.89120916295235 445.7101179196286 C 460.6820701636292 445.7101179196286 458.89120916295235 443.91925691895176 458.89120916295235 441.7101179196286 C 458.89120916295235 439.50097892030544 460.6820701636292 437.7101179196286 462.89120916295235 437.7101179196286 C 465.1003481622755 437.7101179196286 466.89120916295235 439.50097892030544 466.89120916295235 441.7101179196286 Z" stroke-opacity="1" stroke-linecap="round" stroke-linejoin="round" stroke-miterlimit="10"/><text fill="rgb(97,97,97)" stroke="none" font-family="geogebra-sans-serif, sans-serif" font-size="16px" font-style="normal" font-weight="normal" text-decoration="normal" x="467" y="434" text-anchor="start" dominant-baseline="alphabetic" fill-opacity="1">H</text><text fill="none" stroke="rgb(255,255,255)" font-family="geogebra-sans-serif, sans-serif" font-size="16px" font-style="normal" font-weight="normal" text-decoration="normal" x="467" y="434" text-anchor="start" dominant-baseline="alphabetic" stroke-opacity="1" stroke-linejoin="bevel" stroke-miterlimit="10" stroke-width="3">H</text><text fill="rgb(97,97,97)" stroke="none" font-family="geogebra-sans-serif, sans-serif" font-size="16px" font-style="normal" font-weight="normal" text-decoration="normal" x="467" y="434" text-anchor="start" dominant-baseline="alphabetic" fill-opacity="1">H</text><path fill="rgb(97,97,97)" stroke="none" paint-order="stroke fill markers" d=" M 767.4786264453919 404.72677265217624 C 767.4786264453919 406.9359116514994 765.6877654447151 408.72677265217624 763.4786264453919 408.72677265217624 C 761.2694874460688 408.72677265217624 759.4786264453919 406.9359116514994 759.4786264453919 404.72677265217624 C 759.4786264453919 402.5176336528531 761.2694874460688 400.72677265217624 763.4786264453919 400.72677265217624 C 765.6877654447151 400.72677265217624 767.4786264453919 402.5176336528531 767.4786264453919 404.72677265217624 Z" fill-opacity="1"/><path fill="none" stroke="rgb(0,0,0)" paint-order="fill stroke markers" d=" M 767.4786264453919 404.72677265217624 C 767.4786264453919 406.9359116514994 765.6877654447151 408.72677265217624 763.4786264453919 408.72677265217624 C 761.2694874460688 408.72677265217624 759.4786264453919 406.9359116514994 759.4786264453919 404.72677265217624 C 759.4786264453919 402.5176336528531 761.2694874460688 400.72677265217624 763.4786264453919 400.72677265217624 C 765.6877654447151 400.72677265217624 767.4786264453919 402.5176336528531 767.4786264453919 404.72677265217624 Z" stroke-opacity="1" stroke-linecap="round" stroke-linejoin="round" stroke-miterlimit="10"/><text fill="rgb(97,97,97)" stroke="none" font-family="geogebra-sans-serif, sans-serif" font-size="16px" font-style="normal" font-weight="normal" text-decoration="normal" x="767" y="397" text-anchor="start" dominant-baseline="alphabetic" fill-opacity="1">I</text><text fill="none" stroke="rgb(255,255,255)" font-family="geogebra-sans-serif, sans-serif" font-size="16px" font-style="normal" font-weight="normal" text-decoration="normal" x="767" y="397" text-anchor="start" dominant-baseline="alphabetic" stroke-opacity="1" stroke-linejoin="bevel" stroke-miterlimit="10" stroke-width="3">I</text><text fill="rgb(97,97,97)" stroke="none" font-family="geogebra-sans-serif, sans-serif" font-size="16px" font-style="normal" font-weight="normal" text-decoration="normal" x="767" y="397" text-anchor="start" dominant-baseline="alphabetic" fill-opacity="1">I</text></g></g></svg>